<?xml version="1.0" encoding="UTF-8"?>
<!DOCTYPE svg PUBLIC "-//W3C//DTD SVG 1.1//EN" "http://www.w3.org/Graphics/SVG/1.1/DTD/svg11.dtd">
<svg xmlns="http://www.w3.org/2000/svg" version="1.1" width="188px" height="188px" style="shape-rendering:geometricPrecision; text-rendering:geometricPrecision; image-rendering:optimizeQuality; fill-rule:evenodd; clip-rule:evenodd" xmlns:xlink="http://www.w3.org/1999/xlink">
<g><path style="opacity:0.984" fill="#000001" d="M 79.5,-0.5 C 88.8333,-0.5 98.1667,-0.5 107.5,-0.5C 151.167,9.16667 177.833,35.8333 187.5,79.5C 187.5,88.8333 187.5,98.1667 187.5,107.5C 177.833,151.167 151.167,177.833 107.5,187.5C 98.1667,187.5 88.8333,187.5 79.5,187.5C 35.8333,177.833 9.16667,151.167 -0.5,107.5C -0.5,98.1667 -0.5,88.8333 -0.5,79.5C 9.16667,35.8333 35.8333,9.16667 79.5,-0.5 Z"/></g>
<g><path style="opacity:1" fill="#896ac1" d="M 107.5,34.5 C 102.791,31.5944 97.791,29.2611 92.5,27.5C 90.6305,28.0676 88.7972,28.7343 87,29.5C 84.5217,28.6681 82.0217,28.5014 79.5,29C 78.5291,30.4813 77.1958,31.3146 75.5,31.5C 76.8606,29.4727 78.5273,27.806 80.5,26.5C 91.2201,23.7096 100.22,26.3762 107.5,34.5 Z"/></g>
<g><path style="opacity:1" fill="#9268e3" d="M 107.5,34.5 C 107.833,34.5 108.167,34.5 108.5,34.5C 110.088,38.7488 112.755,42.0821 116.5,44.5C 116.5,45.1667 116.5,45.8333 116.5,46.5C 115.417,46.4606 114.417,46.1272 113.5,45.5C 112.719,46.7366 111.719,47.7366 110.5,48.5C 109.571,49.6888 109.238,51.0222 109.5,52.5C 111.262,52.6427 112.929,52.3094 114.5,51.5C 114.012,55.9159 114.679,60.2492 116.5,64.5C 114.926,63.0158 113.593,61.3492 112.5,59.5C 112.167,58.8333 111.833,58.1667 111.5,57.5C 107.479,50.1452 101.812,44.4786 94.5,40.5C 94.1583,39.6618 93.4916,39.3284 92.5,39.5C 92.5,39.1667 92.5,38.8333 92.5,38.5C 89.3601,37.3592 86.0267,37.1925 82.5,38C 81.3474,39.883 79.6807,40.7163 77.5,40.5C 75.7579,43.6074 74.4245,46.9408 73.5,50.5C 73.1667,51.1667 72.8333,51.8333 72.5,52.5C 69.4675,53.5324 67.4675,55.5324 66.5,58.5C 66.0453,54.9184 64.0453,52.5851 60.5,51.5C 65.0028,44.5104 70.0028,37.8438 75.5,31.5C 77.1958,31.3146 78.5291,30.4813 79.5,29C 82.0217,28.5014 84.5217,28.6681 87,29.5C 88.7972,28.7343 90.6305,28.0676 92.5,27.5C 97.791,29.2611 102.791,31.5944 107.5,34.5 Z"/></g>
<g><path style="opacity:1" fill="#8366bb" d="M 108.5,34.5 C 111.54,37.5393 114.206,40.8726 116.5,44.5C 112.755,42.0821 110.088,38.7488 108.5,34.5 Z"/></g>
<g><path style="opacity:1" fill="#8468c1" d="M 92.5,38.5 C 88.2059,37.8073 84.5392,38.8073 81.5,41.5C 78.1711,43.8336 75.5044,46.8336 73.5,50.5C 74.4245,46.9408 75.7579,43.6074 77.5,40.5C 79.6807,40.7163 81.3474,39.883 82.5,38C 86.0267,37.1925 89.3601,37.3592 92.5,38.5 Z"/></g>
<g><path style="opacity:1" fill="#130927" d="M 92.5,38.5 C 92.5,38.8333 92.5,39.1667 92.5,39.5C 88.7674,39.87 85.1007,40.5367 81.5,41.5C 84.5392,38.8073 88.2059,37.8073 92.5,38.5 Z"/></g>
<g><path style="opacity:1" fill="#010105" d="M 92.5,39.5 C 93.4916,39.3284 94.1583,39.6618 94.5,40.5C 98.0552,44.5146 101.889,48.1813 106,51.5C 107.179,54.2601 109.012,56.2601 111.5,57.5C 111.833,58.1667 112.167,58.8333 112.5,59.5C 112.794,63.1608 113.628,66.4941 115,69.5C 113.5,70.3333 112.333,71.5 111.5,73C 110.552,73.4828 109.552,73.6495 108.5,73.5C 108.5,74.5 108.5,75.5 108.5,76.5C 104.759,75.5985 102.759,76.9319 102.5,80.5C 101.167,80.5 99.8333,80.5 98.5,80.5C 98.5,81.8333 98.5,83.1667 98.5,84.5C 97.1667,85.1667 96.1667,86.1667 95.5,87.5C 91.8726,89.7935 88.5393,92.4602 85.5,95.5C 83.5393,96.4602 81.8726,97.7935 80.5,99.5C 78.9731,99.427 77.9731,100.094 77.5,101.5C 74.8806,101.768 72.3806,101.435 70,100.5C 68.9614,101.244 68.4614,102.244 68.5,103.5C 68.5,104.167 68.1667,104.5 67.5,104.5C 66.5,104.5 65.5,104.5 64.5,104.5C 64.9657,108.909 63.9657,112.909 61.5,116.5C 61.8333,116.833 62.1667,117.167 62.5,117.5C 63.1667,116.833 63.8333,116.167 64.5,115.5C 65.897,117.606 67.7304,119.273 70,120.5C 73.9631,119.101 77.9631,117.767 82,116.5C 82.4986,112.848 82.6653,109.182 82.5,105.5C 83.8333,105.5 84.5,104.833 84.5,103.5C 85.5,102.833 86.5,102.167 87.5,101.5C 90.4274,100.243 92.7607,98.2427 94.5,95.5C 98.4135,94.5501 101.08,92.2167 102.5,88.5C 102.5,87.8333 102.833,87.5 103.5,87.5C 104.5,86.8333 105.5,86.1667 106.5,85.5C 111.19,84.6564 115.357,82.6564 119,79.5C 123.553,82.3143 124.72,85.981 122.5,90.5C 123.391,91.5896 124.391,91.5896 125.5,90.5C 126.944,92.6079 127.61,94.9412 127.5,97.5C 125.806,99.8606 123.806,101.861 121.5,103.5C 118.525,104.655 115.858,106.322 113.5,108.5C 111.246,109.415 109.246,110.748 107.5,112.5C 104.242,113.068 100.909,113.234 97.5,113C 98.1667,113.333 98.8333,113.667 99.5,114C 98.1667,114.667 98.1667,115.333 99.5,116C 97.2925,117.047 95.6258,118.547 94.5,120.5C 89.9712,124.237 84.6379,126.237 78.5,126.5C 75.1501,126.665 71.8168,126.498 68.5,126C 65.6064,124.207 62.6064,122.707 59.5,121.5C 59.2503,119.326 58.2503,117.659 56.5,116.5C 54.2774,108.932 53.9441,101.266 55.5,93.5C 56.3382,93.1583 56.6716,92.4916 56.5,91.5C 58.3668,87.1044 60.5334,82.7711 63,78.5C 63.8902,73.7338 65.0569,69.0671 66.5,64.5C 67.4959,64.5858 68.3292,64.2524 69,63.5C 69.6189,60.9682 70.6189,58.6349 72,56.5C 73.0113,57.3366 74.1779,57.67 75.5,57.5C 75.3359,54.8127 75.5026,52.146 76,49.5C 78.2918,47.1177 80.1251,44.451 81.5,41.5C 85.1007,40.5367 88.7674,39.87 92.5,39.5 Z"/></g>
<g><path style="opacity:1" fill="#120823" d="M 65.5,41.5 C 62.8082,45.5703 60.1415,49.5703 57.5,53.5C 58.0517,49.876 59.385,46.5427 61.5,43.5C 62.5769,42.2949 63.9102,41.6282 65.5,41.5 Z"/></g>
<g><path style="opacity:1" fill="#8668ca" d="M 75.5,31.5 C 70.0028,37.8438 65.0028,44.5104 60.5,51.5C 59.8571,53.0764 58.8571,54.4097 57.5,55.5C 57.5,54.8333 57.5,54.1667 57.5,53.5C 60.1415,49.5703 62.8082,45.5703 65.5,41.5C 67.8548,37.1452 71.1881,33.8119 75.5,31.5 Z"/></g>
<g><path style="opacity:1" fill="#7d64c5" d="M 116.5,44.5 C 119.833,48.8333 123.167,53.1667 126.5,57.5C 127.11,58.391 127.443,59.391 127.5,60.5C 127.5,61.1667 127.5,61.8333 127.5,62.5C 123.101,57.751 119.435,52.4176 116.5,46.5C 116.5,45.8333 116.5,45.1667 116.5,44.5 Z"/></g>
<g><path style="opacity:1" fill="#0f0426" d="M 94.5,40.5 C 101.812,44.4786 107.479,50.1452 111.5,57.5C 109.012,56.2601 107.179,54.2601 106,51.5C 101.889,48.1813 98.0552,44.5146 94.5,40.5 Z"/></g>
<g><path style="opacity:1" fill="#0d041c" d="M 126.5,57.5 C 123.167,53.1667 119.833,48.8333 116.5,44.5C 114.206,40.8726 111.54,37.5393 108.5,34.5C 108.167,34.5 107.833,34.5 107.5,34.5C 100.22,26.3762 91.2201,23.7096 80.5,26.5C 88.9877,23.392 97.321,24.2253 105.5,29C 108.642,32.3977 111.975,35.5644 115.5,38.5C 116.406,40.3864 117.406,42.2197 118.5,44C 120.08,42.6913 122.08,41.8579 124.5,41.5C 123.781,44.0725 122.781,46.5725 121.5,49C 123.004,50.7878 124.671,51.2878 126.5,50.5C 127.575,52.8111 127.575,55.1445 126.5,57.5 Z"/></g>
<g><path style="opacity:1" fill="#0f061d" d="M 81.5,41.5 C 80.1251,44.451 78.2918,47.1177 76,49.5C 75.5026,52.146 75.3359,54.8127 75.5,57.5C 74.1779,57.67 73.0113,57.3366 72,56.5C 70.6189,58.6349 69.6189,60.9682 69,63.5C 68.3292,64.2524 67.4959,64.5858 66.5,64.5C 67.9751,60.2165 69.9751,56.2165 72.5,52.5C 72.8333,51.8333 73.1667,51.1667 73.5,50.5C 75.5044,46.8336 78.1711,43.8336 81.5,41.5 Z"/></g>
<g><path style="opacity:1" fill="#493887" d="M 155.5,56.5 C 151.102,56.2941 146.768,56.6274 142.5,57.5C 142.611,56.8826 142.944,56.3826 143.5,56C 147.689,55.1881 151.689,55.3547 155.5,56.5 Z"/></g>
<g><path style="opacity:1" fill="#745faf" d="M 156.5,56.5 C 158.749,57.0798 160.415,58.4131 161.5,60.5C 161.806,63.3854 161.473,66.0521 160.5,68.5C 160.664,65.8127 160.497,63.146 160,60.5C 158.373,59.4677 157.207,58.1344 156.5,56.5 Z"/></g>
<g><path style="opacity:1" fill="#7d63d5" d="M 155.5,56.5 C 155.833,56.5 156.167,56.5 156.5,56.5C 157.207,58.1344 158.373,59.4677 160,60.5C 160.497,63.146 160.664,65.8127 160.5,68.5C 160.5,69.1667 160.5,69.8333 160.5,70.5C 160.5,70.8333 160.5,71.1667 160.5,71.5C 158.992,73.1815 157.992,75.1815 157.5,77.5C 156.728,78.6935 155.728,79.6935 154.5,80.5C 154.5,79.1667 154.5,77.8333 154.5,76.5C 151.869,78.1124 149.202,79.779 146.5,81.5C 146.833,80.8333 147.167,80.1667 147.5,79.5C 148.167,79.5 148.5,79.1667 148.5,78.5C 150.522,76.4687 152.189,74.1354 153.5,71.5C 155.061,69.5095 156.061,67.1761 156.5,64.5C 156.547,62.9623 155.88,61.9623 154.5,61.5C 150.71,60.0976 147.044,60.4309 143.5,62.5C 140.982,63.2638 138.649,64.2638 136.5,65.5C 135.833,65.5 135.167,65.5 134.5,65.5C 132.824,64.8166 132.157,63.4832 132.5,61.5C 135.555,59.59 138.889,58.2567 142.5,57.5C 146.768,56.6274 151.102,56.2941 155.5,56.5 Z"/></g>
<g><path style="opacity:1" fill="#0d0527" d="M 57.5,53.5 C 57.5,54.1667 57.5,54.8333 57.5,55.5C 53.6452,61.2096 50.3119,67.2096 47.5,73.5C 49.283,66.9174 51.9497,60.5841 55.5,54.5C 55.9569,53.7025 56.6236,53.3691 57.5,53.5 Z"/></g>
<g><path style="opacity:1" fill="#110931" d="M 154.5,61.5 C 150.846,61.9422 147.179,62.2756 143.5,62.5C 147.044,60.4309 150.71,60.0976 154.5,61.5 Z"/></g>
<g><path style="opacity:1" fill="#030209" d="M 154.5,61.5 C 155.88,61.9623 156.547,62.9623 156.5,64.5C 156.061,67.1761 155.061,69.5095 153.5,71.5C 152.504,71.4142 151.671,71.7476 151,72.5C 149.441,74.2166 148.608,76.2166 148.5,78.5C 148.5,79.1667 148.167,79.5 147.5,79.5C 145.234,79.1412 143.401,79.8078 142,81.5C 141.667,80.5 141.333,79.5 141,78.5C 139.989,79.3366 138.822,79.67 137.5,79.5C 137.357,77.7376 137.691,76.0709 138.5,74.5C 137.726,73.2888 136.893,73.2888 136,74.5C 135.167,72.8333 134.333,71.1667 133.5,69.5C 134.524,68.1482 135.524,66.8149 136.5,65.5C 138.649,64.2638 140.982,63.2638 143.5,62.5C 147.179,62.2756 150.846,61.9422 154.5,61.5 Z"/></g>
<g><path style="opacity:1" fill="#0f0632" d="M 161.5,60.5 C 162.638,63.3035 162.805,66.3035 162,69.5C 161.617,70.056 161.117,70.3893 160.5,70.5C 160.5,69.8333 160.5,69.1667 160.5,68.5C 161.473,66.0521 161.806,63.3854 161.5,60.5 Z"/></g>
<g><path style="opacity:1" fill="#7c62d3" d="M 72.5,52.5 C 69.9751,56.2165 67.9751,60.2165 66.5,64.5C 63.447,69.9959 60.7804,75.6626 58.5,81.5C 58.4744,78.1243 59.1411,74.9577 60.5,72C 60.5175,69.6212 59.8509,67.4545 58.5,65.5C 58.8333,65.1667 59.1667,64.8333 59.5,64.5C 60.5,65.1667 61.5,65.8333 62.5,66.5C 64.3716,64.0901 65.705,61.4234 66.5,58.5C 67.4675,55.5324 69.4675,53.5324 72.5,52.5 Z"/></g>
<g><path style="opacity:1" fill="#6b5ba8" d="M 132.5,61.5 C 132.157,63.4832 132.824,64.8166 134.5,65.5C 134.217,66.2891 133.717,66.9558 133,67.5C 131.628,66.0899 130.795,64.4233 130.5,62.5C 131.167,62.1667 131.833,61.8333 132.5,61.5 Z"/></g>
<g><path style="opacity:1" fill="#8162e5" d="M 116.5,46.5 C 119.435,52.4176 123.101,57.751 127.5,62.5C 128.649,65.0408 128.649,67.5408 127.5,70C 129.247,70.3519 130.914,70.8519 132.5,71.5C 134.417,74.7174 136.251,78.0508 138,81.5C 138.494,83.1341 138.66,84.8008 138.5,86.5C 137.391,86.5569 136.391,86.8902 135.5,87.5C 135.206,82.5979 134.04,77.9312 132,73.5C 131.311,72.6433 130.478,71.9767 129.5,71.5C 128.833,73.5 128.167,75.5 127.5,77.5C 127.431,72.357 125.098,68.6903 120.5,66.5C 119.348,68.3971 119.681,70.0638 121.5,71.5C 120.833,71.5 120.167,71.5 119.5,71.5C 118.737,69.6316 117.737,67.9649 116.5,66.5C 116.5,65.8333 116.5,65.1667 116.5,64.5C 114.679,60.2492 114.012,55.9159 114.5,51.5C 112.929,52.3094 111.262,52.6427 109.5,52.5C 109.238,51.0222 109.571,49.6888 110.5,48.5C 111.719,47.7366 112.719,46.7366 113.5,45.5C 114.417,46.1272 115.417,46.4606 116.5,46.5 Z"/></g>
<g><path style="opacity:1" fill="#7660c7" d="M 127.5,62.5 C 129.924,65.0078 131.59,68.0078 132.5,71.5C 130.914,70.8519 129.247,70.3519 127.5,70C 128.649,67.5408 128.649,65.0408 127.5,62.5 Z"/></g>
<g><path style="opacity:1" fill="#735dc2" d="M 57.5,55.5 C 57.6602,57.1992 57.4935,58.8659 57,60.5C 53.221,65.7231 50.221,71.3898 48,77.5C 47.2917,78.3805 46.4584,79.0472 45.5,79.5C 45.8333,78.1667 46.1667,76.8333 46.5,75.5C 46.8333,74.8333 47.1667,74.1667 47.5,73.5C 50.3119,67.2096 53.6452,61.2096 57.5,55.5 Z"/></g>
<g><path style="opacity:1" fill="#0d031e" d="M 112.5,59.5 C 113.593,61.3492 114.926,63.0158 116.5,64.5C 116.5,65.1667 116.5,65.8333 116.5,66.5C 116.634,68.2915 116.301,69.9582 115.5,71.5C 114.167,72.1667 113.167,73.1667 112.5,74.5C 110.938,74.7329 109.605,75.3995 108.5,76.5C 108.5,75.5 108.5,74.5 108.5,73.5C 109.552,73.6495 110.552,73.4828 111.5,73C 112.333,71.5 113.5,70.3333 115,69.5C 113.628,66.4941 112.794,63.1608 112.5,59.5 Z"/></g>
<g><path style="opacity:1" fill="#7f60ea" d="M 60.5,51.5 C 64.0453,52.5851 66.0453,54.9184 66.5,58.5C 65.705,61.4234 64.3716,64.0901 62.5,66.5C 61.5,65.8333 60.5,65.1667 59.5,64.5C 59.1667,64.8333 58.8333,65.1667 58.5,65.5C 59.8509,67.4545 60.5175,69.6212 60.5,72C 59.1411,74.9577 58.4744,78.1243 58.5,81.5C 57.8333,81.8333 57.1667,82.1667 56.5,82.5C 58.3497,78.1993 57.0164,75.5326 52.5,74.5C 52.5,75.5 52.5,76.5 52.5,77.5C 50.6096,77.2965 49.1096,77.9632 48,79.5C 47.6799,82.5399 47.6799,85.5399 48,88.5C 46.5944,89.6682 45.4277,89.3348 44.5,87.5C 43.6751,89.3596 42.6751,91.0262 41.5,92.5C 41.5,91.5 41.5,90.5 41.5,89.5C 42.3121,85.8878 43.6454,82.5544 45.5,79.5C 46.4584,79.0472 47.2917,78.3805 48,77.5C 50.221,71.3898 53.221,65.7231 57,60.5C 57.4935,58.8659 57.6602,57.1992 57.5,55.5C 58.8571,54.4097 59.8571,53.0764 60.5,51.5 Z"/></g>
<g><path style="opacity:1" fill="#100b2d" d="M 66.5,64.5 C 65.0569,69.0671 63.8902,73.7338 63,78.5C 60.5334,82.7711 58.3668,87.1044 56.5,91.5C 56.9595,88.1226 57.6261,84.7893 58.5,81.5C 60.7804,75.6626 63.447,69.9959 66.5,64.5 Z"/></g>
<g><path style="opacity:1" fill="#7f63b2" d="M 115.5,71.5 C 120.528,73.8757 120.528,76.209 115.5,78.5C 115.48,76.857 116.147,75.5237 117.5,74.5C 115.905,73.5661 114.239,73.5661 112.5,74.5C 113.167,73.1667 114.167,72.1667 115.5,71.5 Z"/></g>
<g><path style="opacity:1" fill="#0d0a33" d="M 153.5,71.5 C 152.189,74.1354 150.522,76.4687 148.5,78.5C 148.608,76.2166 149.441,74.2166 151,72.5C 151.671,71.7476 152.504,71.4142 153.5,71.5 Z"/></g>
<g><path style="opacity:1" fill="#100629" d="M 160.5,71.5 C 160.66,73.1992 160.494,74.8659 160,76.5C 159.329,77.2524 158.496,77.5858 157.5,77.5C 157.992,75.1815 158.992,73.1815 160.5,71.5 Z"/></g>
<g><path style="opacity:1" fill="#140d34" d="M 116.5,66.5 C 117.737,67.9649 118.737,69.6316 119.5,71.5C 121.06,73.9535 122.06,76.6202 122.5,79.5C 121.279,78.9717 120.113,78.305 119,77.5C 117.512,79.16 115.679,80.16 113.5,80.5C 113.833,79.5 114.5,78.8333 115.5,78.5C 120.528,76.209 120.528,73.8757 115.5,71.5C 116.301,69.9582 116.634,68.2915 116.5,66.5 Z"/></g>
<g><path style="opacity:1" fill="#795def" d="M 135.5,87.5 C 135.5,88.1667 135.167,88.5 134.5,88.5C 132.508,88.3285 130.842,88.9951 129.5,90.5C 126.456,84.3799 123.789,78.0466 121.5,71.5C 119.681,70.0638 119.348,68.3971 120.5,66.5C 125.098,68.6903 127.431,72.357 127.5,77.5C 128.167,75.5 128.833,73.5 129.5,71.5C 130.478,71.9767 131.311,72.6433 132,73.5C 134.04,77.9312 135.206,82.5979 135.5,87.5 Z"/></g>
<g><path style="opacity:1" fill="#0c041f" d="M 127.5,60.5 C 128.5,61.1667 129.5,61.8333 130.5,62.5C 130.795,64.4233 131.628,66.0899 133,67.5C 133.717,66.9558 134.217,66.2891 134.5,65.5C 135.167,65.5 135.833,65.5 136.5,65.5C 135.524,66.8149 134.524,68.1482 133.5,69.5C 134.333,71.1667 135.167,72.8333 136,74.5C 136.893,73.2888 137.726,73.2888 138.5,74.5C 137.691,76.0709 137.357,77.7376 137.5,79.5C 138.822,79.67 139.989,79.3366 141,78.5C 141.333,79.5 141.667,80.5 142,81.5C 143.401,79.8078 145.234,79.1412 147.5,79.5C 147.167,80.1667 146.833,80.8333 146.5,81.5C 144.167,83.5 141.833,85.5 139.5,87.5C 138.833,87.5 138.5,87.1667 138.5,86.5C 138.66,84.8008 138.494,83.1341 138,81.5C 136.251,78.0508 134.417,74.7174 132.5,71.5C 131.59,68.0078 129.924,65.0078 127.5,62.5C 127.5,61.8333 127.5,61.1667 127.5,60.5 Z"/></g>
<g><path style="opacity:1" fill="#050213" d="M 46.5,75.5 C 46.1667,76.8333 45.8333,78.1667 45.5,79.5C 43.6454,82.5544 42.3121,85.8878 41.5,89.5C 41.1667,89.5 40.8333,89.5 40.5,89.5C 40.7507,86.091 40.4173,82.7577 39.5,79.5C 40.9696,76.6919 41.8029,73.6919 42,70.5C 42.6667,69.8333 43.3333,69.1667 44,68.5C 43.9698,71.3615 44.8031,73.6948 46.5,75.5 Z"/></g>
<g><path style="opacity:1" fill="#0f0523" d="M 108.5,76.5 C 105.48,79.5162 102.146,82.1829 98.5,84.5C 98.5,83.1667 98.5,81.8333 98.5,80.5C 99.8333,80.5 101.167,80.5 102.5,80.5C 102.759,76.9319 104.759,75.5985 108.5,76.5 Z"/></g>
<g><path style="opacity:1" fill="#6e5cc0" d="M 119.5,71.5 C 120.167,71.5 120.833,71.5 121.5,71.5C 123.789,78.0466 126.456,84.3799 129.5,90.5C 130.842,88.9951 132.508,88.3285 134.5,88.5C 133.089,90.914 131.089,92.5806 128.5,93.5C 127.014,88.5374 125.014,83.8707 122.5,79.5C 122.06,76.6202 121.06,73.9535 119.5,71.5 Z"/></g>
<g><path style="opacity:1" fill="#7a63c7" d="M 115.5,78.5 C 114.5,78.8333 113.833,79.5 113.5,80.5C 110.865,81.8109 108.531,83.4776 106.5,85.5C 105.5,86.1667 104.5,86.8333 103.5,87.5C 103.539,86.4168 103.873,85.4168 104.5,84.5C 104,84.1667 103.5,83.8333 103,83.5C 100.541,84.9784 98.0413,86.3118 95.5,87.5C 96.1667,86.1667 97.1667,85.1667 98.5,84.5C 102.146,82.1829 105.48,79.5162 108.5,76.5C 109.605,75.3995 110.938,74.7329 112.5,74.5C 114.239,73.5661 115.905,73.5661 117.5,74.5C 116.147,75.5237 115.48,76.857 115.5,78.5 Z"/></g>
<g><path style="opacity:1" fill="#6d5bc9" d="M 58.5,81.5 C 57.6261,84.7893 56.9595,88.1226 56.5,91.5C 56.6716,92.4916 56.3382,93.1583 55.5,93.5C 55.423,89.7852 55.7564,86.1185 56.5,82.5C 57.1667,82.1667 57.8333,81.8333 58.5,81.5 Z"/></g>
<g><path style="opacity:1" fill="#0f0c49" d="M 138.5,86.5 C 138.5,87.1667 138.833,87.5 139.5,87.5C 138.833,88.5 138.167,89.5 137.5,90.5C 135.251,91.0798 133.585,92.4131 132.5,94.5C 131.5,95.1667 130.5,95.8333 129.5,96.5C 129.443,95.391 129.11,94.391 128.5,93.5C 131.089,92.5806 133.089,90.914 134.5,88.5C 135.167,88.5 135.5,88.1667 135.5,87.5C 136.391,86.8902 137.391,86.5569 138.5,86.5 Z"/></g>
<g><path style="opacity:1" fill="#0c0a3d" d="M 152.5,84.5 C 151.946,88.0548 149.946,90.3882 146.5,91.5C 148.529,89.1415 150.529,86.8082 152.5,84.5 Z"/></g>
<g><path style="opacity:1" fill="#07042f" d="M 102.5,88.5 C 101.08,92.2167 98.4135,94.5501 94.5,95.5C 96.7514,92.7052 99.4181,90.3719 102.5,88.5 Z"/></g>
<g><path style="opacity:1" fill="#6154b6" d="M 95.5,87.5 C 93.0063,91.3384 89.673,94.0051 85.5,95.5C 88.5393,92.4602 91.8726,89.7935 95.5,87.5 Z"/></g>
<g><path style="opacity:1" fill="#08021d" d="M 122.5,79.5 C 125.014,83.8707 127.014,88.5374 128.5,93.5C 129.11,94.391 129.443,95.391 129.5,96.5C 128.833,96.8333 128.167,97.1667 127.5,97.5C 127.61,94.9412 126.944,92.6079 125.5,90.5C 124.391,91.5896 123.391,91.5896 122.5,90.5C 124.72,85.981 123.553,82.3143 119,79.5C 115.357,82.6564 111.19,84.6564 106.5,85.5C 108.531,83.4776 110.865,81.8109 113.5,80.5C 115.679,80.16 117.512,79.16 119,77.5C 120.113,78.305 121.279,78.9717 122.5,79.5 Z"/></g>
<g><path style="opacity:1" fill="#6255b5" d="M 137.5,90.5 C 136.415,92.5869 134.749,93.9202 132.5,94.5C 133.585,92.4131 135.251,91.0798 137.5,90.5 Z"/></g>
<g><path style="opacity:1" fill="#6e59ed" d="M 56.5,82.5 C 55.7564,86.1185 55.423,89.7852 55.5,93.5C 53.9441,101.266 54.2774,108.932 56.5,116.5C 56.3939,119.079 57.0605,121.412 58.5,123.5C 57.4168,123.461 56.4168,123.127 55.5,122.5C 54.5159,119.572 54.1826,116.572 54.5,113.5C 51.6118,113.78 50.1118,112.447 50,109.5C 49.1751,107.299 49.6751,105.466 51.5,104C 50.7734,102.601 50.2734,101.101 50,99.5C 48.7012,99.0338 47.2012,99.0338 45.5,99.5C 45.5973,102.314 44.4307,104.314 42,105.5C 41.0546,105.095 40.3879,104.428 40,103.5C 39.6667,105.5 39.3333,107.5 39,109.5C 38.6174,110.056 38.1174,110.389 37.5,110.5C 37.5,108.833 37.5,107.167 37.5,105.5C 39.2284,101.313 40.5617,96.9798 41.5,92.5C 42.6751,91.0262 43.6751,89.3596 44.5,87.5C 45.4277,89.3348 46.5944,89.6682 48,88.5C 47.6799,85.5399 47.6799,82.5399 48,79.5C 49.1096,77.9632 50.6096,77.2965 52.5,77.5C 52.5,76.5 52.5,75.5 52.5,74.5C 57.0164,75.5326 58.3497,78.1993 56.5,82.5 Z"/></g>
<g><path style="opacity:1" fill="#6c59db" d="M 154.5,80.5 C 154.267,82.0618 153.6,83.3951 152.5,84.5C 150.529,86.8082 148.529,89.1415 146.5,91.5C 145.026,92.4363 144.026,93.7697 143.5,95.5C 139.833,98.8333 136.167,102.167 132.5,105.5C 132.5,105.833 132.5,106.167 132.5,106.5C 131.833,106.5 131.5,106.833 131.5,107.5C 129.938,107.733 128.605,108.4 127.5,109.5C 126.826,107.976 125.826,106.642 124.5,105.5C 123.675,104.614 122.675,104.281 121.5,104.5C 121.5,104.167 121.5,103.833 121.5,103.5C 123.806,101.861 125.806,99.8606 127.5,97.5C 128.167,97.1667 128.833,96.8333 129.5,96.5C 130.5,95.8333 131.5,95.1667 132.5,94.5C 134.749,93.9202 136.415,92.5869 137.5,90.5C 138.167,89.5 138.833,88.5 139.5,87.5C 141.833,85.5 144.167,83.5 146.5,81.5C 149.202,79.779 151.869,78.1124 154.5,76.5C 154.5,77.8333 154.5,79.1667 154.5,80.5 Z"/></g>
<g><path style="opacity:1" fill="#6052d3" d="M 103.5,87.5 C 102.833,87.5 102.5,87.8333 102.5,88.5C 99.4181,90.3719 96.7514,92.7052 94.5,95.5C 91.5726,96.7573 89.2393,98.7573 87.5,101.5C 86.5,102.167 85.5,102.833 84.5,103.5C 82.0884,104.979 80.0884,104.479 78.5,102C 79.3805,101.292 80.0472,100.458 80.5,99.5C 81.8726,97.7935 83.5393,96.4602 85.5,95.5C 89.673,94.0051 93.0063,91.3384 95.5,87.5C 98.0413,86.3118 100.541,84.9784 103,83.5C 103.5,83.8333 104,84.1667 104.5,84.5C 103.873,85.4168 103.539,86.4168 103.5,87.5 Z"/></g>
<g><path style="opacity:1" fill="#08052f" d="M 94.5,95.5 C 92.7607,98.2427 90.4274,100.243 87.5,101.5C 89.2393,98.7573 91.5726,96.7573 94.5,95.5 Z"/></g>
<g><path style="opacity:1" fill="#6b57f0" d="M 132.5,105.5 C 129.62,105.967 127.287,105.134 125.5,103C 128.336,101.335 130.669,99.0014 132.5,96C 134.614,95.6711 136.28,96.5044 137.5,98.5C 135.955,99.4519 134.288,99.7852 132.5,99.5C 132.5,101.5 132.5,103.5 132.5,105.5 Z"/></g>
<g><path style="opacity:1" fill="#7e65b6" d="M 143.5,97.5 C 144.5,97.8333 145.167,98.5 145.5,99.5C 145.833,102.167 146.167,104.833 146.5,107.5C 146.167,107.5 145.833,107.5 145.5,107.5C 145.672,106.508 145.338,105.842 144.5,105.5C 144.785,103.712 144.452,102.045 143.5,100.5C 141.466,101.559 139.466,102.559 137.5,103.5C 139.167,101.167 141.167,99.1667 143.5,97.5 Z"/></g>
<g><path style="opacity:1" fill="#5c4eb5" d="M 40.5,89.5 C 40.8333,89.5 41.1667,89.5 41.5,89.5C 41.5,90.5 41.5,91.5 41.5,92.5C 40.5617,96.9798 39.2284,101.313 37.5,105.5C 37.7506,101.751 38.4172,98.0845 39.5,94.5C 40.038,92.8828 40.3713,91.2161 40.5,89.5 Z"/></g>
<g><path style="opacity:1" fill="#0e042c" d="M 77.5,101.5 C 77.5,102.167 77.1667,102.5 76.5,102.5C 73.7628,102.401 71.0961,102.735 68.5,103.5C 68.4614,102.244 68.9614,101.244 70,100.5C 72.3806,101.435 74.8806,101.768 77.5,101.5 Z"/></g>
<g><path style="opacity:1" fill="#090121" d="M 39.5,94.5 C 38.4172,98.0845 37.7506,101.751 37.5,105.5C 36.8333,107.167 36.1667,108.833 35.5,110.5C 33.4071,104.204 34.7404,98.8708 39.5,94.5 Z"/></g>
<g><path style="opacity:1" fill="#816cbb" d="M 76.5,102.5 C 77.6935,103.272 78.6935,104.272 79.5,105.5C 77.3254,105.318 75.3254,104.651 73.5,103.5C 71.9271,103.752 70.5938,104.418 69.5,105.5C 68.8333,105.5 68.1667,105.5 67.5,105.5C 67.5,105.167 67.5,104.833 67.5,104.5C 68.1667,104.5 68.5,104.167 68.5,103.5C 71.0961,102.735 73.7628,102.401 76.5,102.5 Z"/></g>
<g><path style="opacity:1" fill="#1b125d" d="M 80.5,99.5 C 80.0472,100.458 79.3805,101.292 78.5,102C 80.0884,104.479 82.0884,104.979 84.5,103.5C 84.5,104.833 83.8333,105.5 82.5,105.5C 81.8333,105.5 81.1667,105.5 80.5,105.5C 80.1667,105.5 79.8333,105.5 79.5,105.5C 78.6935,104.272 77.6935,103.272 76.5,102.5C 77.1667,102.5 77.5,102.167 77.5,101.5C 77.9731,100.094 78.9731,99.427 80.5,99.5 Z"/></g>
<g><path style="opacity:1" fill="#0d0840" d="M 143.5,95.5 C 143.5,96.1667 143.5,96.8333 143.5,97.5C 141.167,99.1667 139.167,101.167 137.5,103.5C 135.273,104.401 134.273,106.067 134.5,108.5C 133.833,107.833 133.167,107.167 132.5,106.5C 132.5,106.167 132.5,105.833 132.5,105.5C 136.167,102.167 139.833,98.8333 143.5,95.5 Z"/></g>
<g><path style="opacity:1" fill="#6455ea" d="M 121.5,104.5 C 122.675,104.281 123.675,104.614 124.5,105.5C 125.826,106.642 126.826,107.976 127.5,109.5C 127.167,110.167 126.833,110.833 126.5,111.5C 123.243,112.762 120.577,114.762 118.5,117.5C 116.24,118.139 114.24,119.306 112.5,121C 111.748,121.671 111.414,122.504 111.5,123.5C 111.167,123.5 110.833,123.5 110.5,123.5C 110.167,123.5 109.833,123.5 109.5,123.5C 109.014,121.193 109.014,119.027 109.5,117C 107.803,116.616 106.137,116.782 104.5,117.5C 105.5,116.167 106.5,114.833 107.5,113.5C 109.411,112.925 111.078,111.925 112.5,110.5C 115.824,108.856 118.824,106.856 121.5,104.5 Z"/></g>
<g><path style="opacity:1" fill="#0c0e44" d="M 131.5,107.5 C 130.415,109.587 128.749,110.92 126.5,111.5C 126.833,110.833 127.167,110.167 127.5,109.5C 128.605,108.4 129.938,107.733 131.5,107.5 Z"/></g>
<g><path style="opacity:1" fill="#4d43a5" d="M 121.5,103.5 C 121.5,103.833 121.5,104.167 121.5,104.5C 118.824,106.856 115.824,108.856 112.5,110.5C 112.833,109.833 113.167,109.167 113.5,108.5C 115.858,106.322 118.525,104.655 121.5,103.5 Z"/></g>
<g><path style="opacity:1" fill="#7b60d5" d="M 144.5,105.5 C 142.565,104.85 140.565,104.517 138.5,104.5C 137.866,110.145 137.532,115.811 137.5,121.5C 137.5,127.5 137.5,133.5 137.5,139.5C 138.5,139.5 139.5,139.5 140.5,139.5C 140.167,140.5 139.5,141.167 138.5,141.5C 136.689,132.554 135.855,123.22 136,113.5C 135.768,112.263 135.268,111.263 134.5,110.5C 134.5,109.833 134.5,109.167 134.5,108.5C 134.273,106.067 135.273,104.401 137.5,103.5C 139.466,102.559 141.466,101.559 143.5,100.5C 144.452,102.045 144.785,103.712 144.5,105.5 Z"/></g>
<g><path style="opacity:1" fill="#0d041f" d="M 145.5,99.5 C 146.452,100.452 147.452,101.452 148.5,102.5C 147.954,103.772 147.621,105.106 147.5,106.5C 148.911,109.44 149.578,112.607 149.5,116C 149.64,119.15 148.973,121.983 147.5,124.5C 147.687,118.788 147.354,113.121 146.5,107.5C 146.167,104.833 145.833,102.167 145.5,99.5 Z"/></g>
<g><path style="opacity:1" fill="#1b165d" d="M 113.5,108.5 C 113.167,109.167 112.833,109.833 112.5,110.5C 111.078,111.925 109.411,112.925 107.5,113.5C 107.5,113.167 107.5,112.833 107.5,112.5C 109.246,110.748 111.246,109.415 113.5,108.5 Z"/></g>
<g><path style="opacity:1" fill="#0b0620" d="M 107.5,112.5 C 107.5,112.833 107.5,113.167 107.5,113.5C 104.545,115.122 101.878,117.122 99.5,119.5C 97.7085,119.366 96.0418,119.699 94.5,120.5C 95.6258,118.547 97.2925,117.047 99.5,116C 98.1667,115.333 98.1667,114.667 99.5,114C 98.8333,113.667 98.1667,113.333 97.5,113C 100.909,113.234 104.242,113.068 107.5,112.5 Z"/></g>
<g><path style="opacity:1" fill="#725beb" d="M 79.5,105.5 C 79.6741,107.861 80.0074,110.194 80.5,112.5C 80.5,113.167 80.5,113.833 80.5,114.5C 79.3951,115.6 78.0618,116.267 76.5,116.5C 68.0098,116.684 65.6765,113.017 69.5,105.5C 70.5938,104.418 71.9271,103.752 73.5,103.5C 75.3254,104.651 77.3254,105.318 79.5,105.5 Z"/></g>
<g><path style="opacity:1" fill="#6153f6" d="M 58.5,123.5 C 59.1667,123.5 59.5,123.833 59.5,124.5C 54.6101,124.639 54.2767,126.139 58.5,129C 57.2068,129.49 55.8734,129.657 54.5,129.5C 54.5,127.833 54.5,126.167 54.5,124.5C 53.5,124.5 52.5,124.5 51.5,124.5C 50.5872,119.565 48.5872,119.232 45.5,123.5C 42.9135,124.48 40.2469,124.813 37.5,124.5C 37.5,119.833 37.5,115.167 37.5,110.5C 38.1174,110.389 38.6174,110.056 39,109.5C 39.3333,107.5 39.6667,105.5 40,103.5C 40.3879,104.428 41.0546,105.095 42,105.5C 44.4307,104.314 45.5973,102.314 45.5,99.5C 47.2012,99.0338 48.7012,99.0338 50,99.5C 50.2734,101.101 50.7734,102.601 51.5,104C 49.6751,105.466 49.1751,107.299 50,109.5C 50.1118,112.447 51.6118,113.78 54.5,113.5C 54.1826,116.572 54.5159,119.572 55.5,122.5C 56.4168,123.127 57.4168,123.461 58.5,123.5 Z"/></g>
<g><path style="opacity:1" fill="#050314" d="M 132.5,106.5 C 133.167,107.167 133.833,107.833 134.5,108.5C 134.5,109.167 134.5,109.833 134.5,110.5C 134.5,112.167 134.5,113.833 134.5,115.5C 132.027,115.201 129.86,114.201 128,112.5C 126.72,112.613 125.887,113.28 125.5,114.5C 127.737,115.132 129.403,116.465 130.5,118.5C 129.224,119.645 127.891,119.645 126.5,118.5C 125.749,119.376 125.249,120.376 125,121.5C 122.928,121.742 120.761,121.409 118.5,120.5C 118.5,121.5 118.5,122.5 118.5,123.5C 114.365,123.776 110.698,125.109 107.5,127.5C 108.5,126.167 109.5,124.833 110.5,123.5C 110.833,123.5 111.167,123.5 111.5,123.5C 114.432,122.2 116.766,120.2 118.5,117.5C 120.577,114.762 123.243,112.762 126.5,111.5C 128.749,110.92 130.415,109.587 131.5,107.5C 131.5,106.833 131.833,106.5 132.5,106.5 Z"/></g>
<g><path style="opacity:1" fill="#534ab2" d="M 107.5,113.5 C 106.5,114.833 105.5,116.167 104.5,117.5C 103.18,118.942 101.514,119.608 99.5,119.5C 101.878,117.122 104.545,115.122 107.5,113.5 Z"/></g>
<g><path style="opacity:1" fill="#0c0720" d="M 67.5,104.5 C 67.5,104.833 67.5,105.167 67.5,105.5C 64.8266,109.213 65.1599,112.879 68.5,116.5C 71.0865,117.48 73.7531,117.813 76.5,117.5C 78.9726,117.912 80.3059,116.912 80.5,114.5C 80.5,113.833 80.5,113.167 80.5,112.5C 81.6227,110.312 81.6227,107.979 80.5,105.5C 81.1667,105.5 81.8333,105.5 82.5,105.5C 82.6653,109.182 82.4986,112.848 82,116.5C 77.9631,117.767 73.9631,119.101 70,120.5C 67.7304,119.273 65.897,117.606 64.5,115.5C 63.8333,116.167 63.1667,116.833 62.5,117.5C 62.1667,117.167 61.8333,116.833 61.5,116.5C 63.9657,112.909 64.9657,108.909 64.5,104.5C 65.5,104.5 66.5,104.5 67.5,104.5 Z"/></g>
<g><path style="opacity:1" fill="#171853" d="M 80.5,114.5 C 80.3059,116.912 78.9726,117.912 76.5,117.5C 76.5,117.167 76.5,116.833 76.5,116.5C 78.0618,116.267 79.3951,115.6 80.5,114.5 Z"/></g>
<g><path style="opacity:1" fill="#6051be" d="M 67.5,105.5 C 68.1667,105.5 68.8333,105.5 69.5,105.5C 65.6765,113.017 68.0098,116.684 76.5,116.5C 76.5,116.833 76.5,117.167 76.5,117.5C 73.7531,117.813 71.0865,117.48 68.5,116.5C 65.1599,112.879 64.8266,109.213 67.5,105.5 Z"/></g>
<g><path style="opacity:1" fill="#6d5cb6" d="M 79.5,105.5 C 79.8333,105.5 80.1667,105.5 80.5,105.5C 81.6227,107.979 81.6227,110.312 80.5,112.5C 80.0074,110.194 79.6741,107.861 79.5,105.5 Z"/></g>
<g><path style="opacity:1" fill="#7f60eb" d="M 144.5,105.5 C 145.338,105.842 145.672,106.508 145.5,107.5C 145.666,112.179 145.499,116.845 145,121.5C 144.768,120.263 144.268,119.263 143.5,118.5C 143.838,115.843 143.171,113.51 141.5,111.5C 140.513,114.768 140.18,118.102 140.5,121.5C 139.5,121.5 138.5,121.5 137.5,121.5C 137.532,115.811 137.866,110.145 138.5,104.5C 140.565,104.517 142.565,104.85 144.5,105.5 Z"/></g>
<g><path style="opacity:1" fill="#4c44a1" d="M 118.5,117.5 C 116.766,120.2 114.432,122.2 111.5,123.5C 111.414,122.504 111.748,121.671 112.5,121C 114.24,119.306 116.24,118.139 118.5,117.5 Z"/></g>
<g><path style="opacity:1" fill="#5951c9" d="M 37.5,105.5 C 37.5,107.167 37.5,108.833 37.5,110.5C 37.5,115.167 37.5,119.833 37.5,124.5C 36.9066,127.596 37.9066,129.929 40.5,131.5C 41.2548,134.325 42.2548,136.991 43.5,139.5C 42.5,138.833 41.5,138.167 40.5,137.5C 40.0679,136.29 39.4013,135.29 38.5,134.5C 35.8464,126.815 34.8464,118.815 35.5,110.5C 36.1667,108.833 36.8333,107.167 37.5,105.5 Z"/></g>
<g><path style="opacity:1" fill="#463fa4" d="M 56.5,116.5 C 58.2503,117.659 59.2503,119.326 59.5,121.5C 60.1667,122.5 60.8333,123.5 61.5,124.5C 60.8333,124.5 60.1667,124.5 59.5,124.5C 59.5,123.833 59.1667,123.5 58.5,123.5C 57.0605,121.412 56.3939,119.079 56.5,116.5 Z"/></g>
<g><path style="opacity:1" fill="#6350be" d="M 145.5,107.5 C 145.833,107.5 146.167,107.5 146.5,107.5C 147.354,113.121 147.687,118.788 147.5,124.5C 146.317,127.567 144.983,130.567 143.5,133.5C 144.235,128.337 144.235,123.337 143.5,118.5C 144.268,119.263 144.768,120.263 145,121.5C 145.499,116.845 145.666,112.179 145.5,107.5 Z"/></g>
<g><path style="opacity:1" fill="#4e45b2" d="M 99.5,119.5 C 93.5603,124.487 86.5603,127.154 78.5,127.5C 78.5,127.167 78.5,126.833 78.5,126.5C 84.6379,126.237 89.9712,124.237 94.5,120.5C 96.0418,119.699 97.7085,119.366 99.5,119.5 Z"/></g>
<g><path style="opacity:1" fill="#201953" d="M 134.5,110.5 C 135.268,111.263 135.768,112.263 136,113.5C 135.855,123.22 136.689,132.554 138.5,141.5C 137.791,142.404 136.791,142.737 135.5,142.5C 135.827,133.318 135.493,124.318 134.5,115.5C 134.5,113.833 134.5,112.167 134.5,110.5 Z"/></g>
<g><path style="opacity:1" fill="#080631" d="M 59.5,121.5 C 62.6064,122.707 65.6064,124.207 68.5,126C 71.8168,126.498 75.1501,126.665 78.5,126.5C 78.5,126.833 78.5,127.167 78.5,127.5C 78.1667,127.5 77.8333,127.5 77.5,127.5C 72.6001,127.967 67.9334,127.301 63.5,125.5C 62.8333,125.167 62.1667,124.833 61.5,124.5C 60.8333,123.5 60.1667,122.5 59.5,121.5 Z"/></g>
<g><path style="opacity:1" fill="#433d9c" d="M 109.5,123.5 C 109.833,123.5 110.167,123.5 110.5,123.5C 109.5,124.833 108.5,126.167 107.5,127.5C 106.391,127.557 105.391,127.89 104.5,128.5C 105.785,126.548 107.451,124.882 109.5,123.5 Z"/></g>
<g><path style="opacity:1" fill="#4f48c3" d="M 103.5,128.5 C 101.45,130.547 99.117,132.214 96.5,133.5C 97.1408,132.518 97.8075,131.518 98.5,130.5C 97.8333,129.833 97.1667,129.167 96.5,128.5C 98.7175,127.943 101.051,127.943 103.5,128.5 Z"/></g>
<g><path style="opacity:1" fill="#040114" d="M 92.5,136.5 C 92.5,136.167 92.5,135.833 92.5,135.5C 93.8333,134.833 95.1667,134.167 96.5,133.5C 99.117,132.214 101.45,130.547 103.5,128.5C 103.833,128.5 104.167,128.5 104.5,128.5C 105.391,127.89 106.391,127.557 107.5,127.5C 106.438,128.575 106.438,129.575 107.5,130.5C 109.228,128.774 111.228,127.441 113.5,126.5C 113.833,127 114.167,127.5 114.5,128C 111.642,129.929 108.976,132.096 106.5,134.5C 104.021,135.673 101.521,135.673 99,134.5C 97.2382,134.944 97.4049,135.444 99.5,136C 97.408,137.113 95.0747,137.279 92.5,136.5 Z"/></g>
<g><path style="opacity:1" fill="#5a50f1" d="M 109.5,123.5 C 107.451,124.882 105.785,126.548 104.5,128.5C 104.167,128.5 103.833,128.5 103.5,128.5C 101.051,127.943 98.7175,127.943 96.5,128.5C 97.1667,129.167 97.8333,129.833 98.5,130.5C 97.8075,131.518 97.1408,132.518 96.5,133.5C 95.1667,134.167 93.8333,134.833 92.5,135.5C 91.1667,135.833 89.8333,136.167 88.5,136.5C 87.032,135.221 86.3653,133.554 86.5,131.5C 85.0222,131.762 83.6888,131.429 82.5,130.5C 84.8333,129.833 87.1667,129.167 89.5,128.5C 88.5,128.167 87.5,127.833 86.5,127.5C 78.3059,129.873 69.9726,131.039 61.5,131C 61.0137,128.973 61.0137,126.807 61.5,124.5C 62.1667,124.833 62.8333,125.167 63.5,125.5C 63.4142,126.496 63.7476,127.329 64.5,128C 69.0204,128.814 73.3537,128.647 77.5,127.5C 77.8333,127.5 78.1667,127.5 78.5,127.5C 86.5603,127.154 93.5603,124.487 99.5,119.5C 101.514,119.608 103.18,118.942 104.5,117.5C 106.137,116.782 107.803,116.616 109.5,117C 109.014,119.027 109.014,121.193 109.5,123.5 Z"/></g>
<g><path style="opacity:1" fill="#433ca8" d="M 63.5,125.5 C 67.9334,127.301 72.6001,127.967 77.5,127.5C 73.3537,128.647 69.0204,128.814 64.5,128C 63.7476,127.329 63.4142,126.496 63.5,125.5 Z"/></g>
<g><path style="opacity:1" fill="#564df8" d="M 59.5,124.5 C 60.1667,124.5 60.8333,124.5 61.5,124.5C 61.0137,126.807 61.0137,128.973 61.5,131C 69.9726,131.039 78.3059,129.873 86.5,127.5C 87.5,127.833 88.5,128.167 89.5,128.5C 87.1667,129.167 84.8333,129.833 82.5,130.5C 83.6888,131.429 85.0222,131.762 86.5,131.5C 86.3653,133.554 87.032,135.221 88.5,136.5C 87.5,136.833 86.8333,137.5 86.5,138.5C 84.3206,139.677 81.9872,140.677 79.5,141.5C 70.6152,143.48 61.6152,144.48 52.5,144.5C 49.4175,143.024 46.4175,141.357 43.5,139.5C 42.2548,136.991 41.2548,134.325 40.5,131.5C 37.9066,129.929 36.9066,127.596 37.5,124.5C 40.2469,124.813 42.9135,124.48 45.5,123.5C 48.5872,119.232 50.5872,119.565 51.5,124.5C 52.5,124.5 53.5,124.5 54.5,124.5C 54.5,126.167 54.5,127.833 54.5,129.5C 55.8734,129.657 57.2068,129.49 58.5,129C 54.2767,126.139 54.6101,124.639 59.5,124.5 Z"/></g>
<g><path style="opacity:1" fill="#080d54" d="M 38.5,134.5 C 39.4013,135.29 40.0679,136.29 40.5,137.5C 38.9519,137.179 38.2852,136.179 38.5,134.5 Z"/></g>
<g><path style="opacity:1" fill="#6456ea" d="M 143.5,118.5 C 144.235,123.337 144.235,128.337 143.5,133.5C 143.385,135.947 142.385,137.947 140.5,139.5C 139.5,139.5 138.5,139.5 137.5,139.5C 137.5,133.5 137.5,127.5 137.5,121.5C 138.5,121.5 139.5,121.5 140.5,121.5C 140.18,118.102 140.513,114.768 141.5,111.5C 143.171,113.51 143.838,115.843 143.5,118.5 Z"/></g>
<g><path style="opacity:1" fill="#443da6" d="M 92.5,135.5 C 92.5,135.833 92.5,136.167 92.5,136.5C 91.0048,136.989 89.6715,137.655 88.5,138.5C 87.8333,138.5 87.1667,138.5 86.5,138.5C 86.8333,137.5 87.5,136.833 88.5,136.5C 89.8333,136.167 91.1667,135.833 92.5,135.5 Z"/></g>
<g><path style="opacity:1" fill="#060c3b" d="M 40.5,137.5 C 41.5,138.167 42.5,138.833 43.5,139.5C 43.8333,140.167 44.1667,140.833 44.5,141.5C 41.5,141.833 40.1667,140.5 40.5,137.5 Z"/></g>
<g><path style="opacity:1" fill="#4945af" d="M 43.5,139.5 C 46.4175,141.357 49.4175,143.024 52.5,144.5C 51.8333,144.5 51.1667,144.5 50.5,144.5C 48.2163,144.025 46.2163,143.025 44.5,141.5C 44.1667,140.833 43.8333,140.167 43.5,139.5 Z"/></g>
<g><path style="opacity:1" fill="#050c45" d="M 86.5,138.5 C 87.1667,138.5 87.8333,138.5 88.5,138.5C 85.8333,140.167 83.1667,141.833 80.5,143.5C 79.5,143.5 78.5,143.5 77.5,143.5C 78.1667,142.833 78.8333,142.167 79.5,141.5C 81.9872,140.677 84.3206,139.677 86.5,138.5 Z"/></g>
<g><path style="opacity:1" fill="#030117" d="M 92.5,136.5 C 91.5448,138.746 90.8782,141.079 90.5,143.5C 87.1475,142.293 83.8142,142.293 80.5,143.5C 83.1667,141.833 85.8333,140.167 88.5,138.5C 89.6715,137.655 91.0048,136.989 92.5,136.5 Z"/></g>
<g><path style="opacity:1" fill="#4b45bc" d="M 79.5,141.5 C 78.8333,142.167 78.1667,142.833 77.5,143.5C 77.1667,143.5 76.8333,143.5 76.5,143.5C 74.1016,143.259 72.1016,143.926 70.5,145.5C 64.31,145.823 58.31,145.49 52.5,144.5C 61.6152,144.48 70.6152,143.48 79.5,141.5 Z"/></g>
<g><path style="opacity:1" fill="#04083f" d="M 76.5,143.5 C 74.8984,145.074 72.8984,145.741 70.5,145.5C 72.1016,143.926 74.1016,143.259 76.5,143.5 Z"/></g>
<g><path style="opacity:1" fill="#010032" d="M 50.5,144.5 C 51.1667,144.5 51.8333,144.5 52.5,144.5C 58.31,145.49 64.31,145.823 70.5,145.5C 64.3471,146.653 58.0137,146.82 51.5,146C 50.944,145.617 50.6107,145.117 50.5,144.5 Z"/></g>
</svg>
