<?xml version="1.0" encoding="UTF-8"?>
<!DOCTYPE svg PUBLIC "-//W3C//DTD SVG 1.1//EN" "http://www.w3.org/Graphics/SVG/1.1/DTD/svg11.dtd">
<svg xmlns="http://www.w3.org/2000/svg" version="1.1" width="236px" height="236px" style="shape-rendering:geometricPrecision; text-rendering:geometricPrecision; image-rendering:optimizeQuality; fill-rule:evenodd; clip-rule:evenodd" xmlns:xlink="http://www.w3.org/1999/xlink">
<g><path style="opacity:0.99" fill="#000000" d="M 102.5,-0.5 C 112.5,-0.5 122.5,-0.5 132.5,-0.5C 189.833,10.8333 224.167,45.1667 235.5,102.5C 235.5,112.5 235.5,122.5 235.5,132.5C 224.167,189.833 189.833,224.167 132.5,235.5C 122.5,235.5 112.5,235.5 102.5,235.5C 45.1667,224.167 10.8333,189.833 -0.5,132.5C -0.5,122.5 -0.5,112.5 -0.5,102.5C 10.8333,45.1667 45.1667,10.8333 102.5,-0.5 Z"/></g>
<g><path style="opacity:1" fill="#225da3" d="M 117.5,47.5 C 118.11,48.391 118.443,49.391 118.5,50.5C 117.167,49.1667 115.833,49.1667 114.5,50.5C 114.5,48.5 115.5,47.5 117.5,47.5 Z"/></g>
<g><path style="opacity:1" fill="#08061a" d="M 117.5,47.5 C 118.5,47.5 119.5,47.5 120.5,47.5C 120.5,48.8333 120.5,50.1667 120.5,51.5C 122.143,51.5198 123.476,50.8532 124.5,49.5C 124.833,50.1667 125.167,50.8333 125.5,51.5C 124.246,53.3337 123.579,55.3337 123.5,57.5C 122.833,57.1667 122.167,56.8333 121.5,56.5C 121.5,56.1667 121.5,55.8333 121.5,55.5C 120.89,53.5659 119.89,51.8993 118.5,50.5C 118.443,49.391 118.11,48.391 117.5,47.5 Z"/></g>
<g><path style="opacity:1" fill="#00143b" d="M 112.5,53.5 C 111.89,54.391 111.557,55.391 111.5,56.5C 109.336,58.822 107.669,61.4887 106.5,64.5C 104.992,66.1815 103.992,68.1815 103.5,70.5C 102.094,70.9731 101.427,71.9731 101.5,73.5C 101.167,73.5 100.833,73.5 100.5,73.5C 102.316,67.9053 104.816,62.572 108,57.5C 108.876,55.3645 110.376,54.0312 112.5,53.5 Z"/></g>
<g><path style="opacity:1" fill="#1379e4" d="M 118.5,50.5 C 119.89,51.8993 120.89,53.5659 121.5,55.5C 120.292,54.7659 118.959,54.4326 117.5,54.5C 117.646,52.0576 116.813,51.3909 115,52.5C 114.605,54.1786 114.772,55.8453 115.5,57.5C 114.5,59.5 113.5,61.5 112.5,63.5C 111.914,63.2907 111.414,62.9574 111,62.5C 108.238,65.0896 105.738,67.7563 103.5,70.5C 103.992,68.1815 104.992,66.1815 106.5,64.5C 109.833,62.8413 111.5,60.1746 111.5,56.5C 111.557,55.391 111.89,54.391 112.5,53.5C 112.932,52.2905 113.599,51.2905 114.5,50.5C 115.833,49.1667 117.167,49.1667 118.5,50.5 Z"/></g>
<g><path style="opacity:1" fill="#047ef9" d="M 121.5,55.5 C 121.5,55.8333 121.5,56.1667 121.5,56.5C 122.505,59.7209 123.339,63.0543 124,66.5C 126.714,70.7167 128.048,75.3834 128,80.5C 128.71,81.9733 129.876,82.6399 131.5,82.5C 131.259,85.999 132.092,86.3323 134,83.5C 137.351,84.898 138.351,87.2313 137,90.5C 137.671,89.7476 138.504,89.4142 139.5,89.5C 141.675,93.324 143.342,97.324 144.5,101.5C 145.5,101.5 146.5,101.5 147.5,101.5C 147.343,102.873 147.51,104.207 148,105.5C 151.607,108.321 152.774,111.821 151.5,116C 154.494,117.157 156.16,119.324 156.5,122.5C 157.5,122.5 158.5,122.5 159.5,122.5C 160.906,122.973 161.573,123.973 161.5,125.5C 161.386,129.614 163.052,132.614 166.5,134.5C 165.916,137.285 166.916,138.952 169.5,139.5C 170.673,143.533 172.173,147.533 174,151.5C 175.113,152.305 176.279,152.972 177.5,153.5C 177.5,154.833 177.5,156.167 177.5,157.5C 176.5,157.5 175.5,157.5 174.5,157.5C 176.953,161.427 178.62,165.76 179.5,170.5C 175.143,170.414 170.81,170.08 166.5,169.5C 166.815,167.774 166.981,166.107 167,164.5C 165.644,165.38 164.144,165.714 162.5,165.5C 161.662,165.158 161.328,164.492 161.5,163.5C 161.297,159.116 159.297,156.116 155.5,154.5C 155.5,154.167 155.5,153.833 155.5,153.5C 153.588,148.942 151.755,144.276 150,139.5C 148.887,138.695 147.721,138.028 146.5,137.5C 144.412,135.664 143.079,133.331 142.5,130.5C 142.682,128.409 142.348,126.409 141.5,124.5C 140.675,123.614 139.675,123.281 138.5,123.5C 135.474,116.589 131.974,109.923 128,103.5C 127.329,102.748 126.496,102.414 125.5,102.5C 125.5,102.167 125.5,101.833 125.5,101.5C 123.483,97.7914 122.483,93.7914 122.5,89.5C 121.5,89.5 120.5,89.5 119.5,89.5C 119.912,85.212 118.245,84.5453 114.5,87.5C 111.521,92.4322 108.687,97.4322 106,102.5C 104.667,103.167 103.333,103.833 102,104.5C 101.383,105.449 101.549,106.282 102.5,107C 100.692,110.782 99.0252,114.615 97.5,118.5C 96.5592,120.05 95.8925,121.716 95.5,123.5C 95.1667,123.5 94.8333,123.5 94.5,123.5C 93.5041,123.414 92.6708,123.748 92,124.5C 90.4873,128.188 88.9873,131.855 87.5,135.5C 87.1667,136.833 86.8333,138.167 86.5,139.5C 85.8333,139.5 85.5,139.833 85.5,140.5C 84.5987,141.29 83.9321,142.29 83.5,143.5C 81.0178,144.663 79.6845,146.663 79.5,149.5C 78.6236,149.369 77.9569,149.702 77.5,150.5C 74.9745,154.661 72.9745,158.994 71.5,163.5C 71.5,164.167 71.5,164.833 71.5,165.5C 69.078,166.085 67.4113,167.585 66.5,170C 60.1754,170.5 53.8421,170.666 47.5,170.5C 47.5,169.5 47.5,168.5 47.5,167.5C 47.5,166.833 47.5,166.167 47.5,165.5C 49.2624,164.738 50.2624,163.404 50.5,161.5C 54.514,158.485 56.8473,154.485 57.5,149.5C 59.8356,147.996 61.669,145.996 63,143.5C 62.5889,145.785 62.4222,147.952 62.5,150C 64.4477,154.78 65.7811,154.614 66.5,149.5C 65.3934,147.119 64.7267,144.619 64.5,142C 65.749,138.915 66.749,135.749 67.5,132.5C 70.0797,130.911 71.413,128.578 71.5,125.5C 73.1601,122.202 74.8267,118.869 76.5,115.5C 76.8333,115.5 77.1667,115.5 77.5,115.5C 79.0744,115.063 80.2411,114.063 81,112.5C 82.4936,113.747 83.9936,113.747 85.5,112.5C 84.675,111.614 83.675,111.281 82.5,111.5C 82.9926,109.194 83.3259,106.861 83.5,104.5C 84.7942,103.71 85.9609,102.71 87,101.5C 89.4518,96.9317 91.6185,92.265 93.5,87.5C 93.5,86.8333 93.8333,86.5 94.5,86.5C 98.4477,83.0767 100.781,78.7433 101.5,73.5C 101.427,71.9731 102.094,70.9731 103.5,70.5C 105.738,67.7563 108.238,65.0896 111,62.5C 111.414,62.9574 111.914,63.2907 112.5,63.5C 113.5,61.5 114.5,59.5 115.5,57.5C 114.772,55.8453 114.605,54.1786 115,52.5C 116.813,51.3909 117.646,52.0576 117.5,54.5C 118.959,54.4326 120.292,54.7659 121.5,55.5 Z"/></g>
<g><path style="opacity:1" fill="#1c70c5" d="M 111.5,56.5 C 111.5,60.1746 109.833,62.8413 106.5,64.5C 107.669,61.4887 109.336,58.822 111.5,56.5 Z"/></g>
<g><path style="opacity:1" fill="#001239" d="M 123.5,58.5 C 124.496,58.4142 125.329,58.7476 126,59.5C 128.119,63.4023 129.952,67.4023 131.5,71.5C 128.597,67.3699 125.93,63.0366 123.5,58.5 Z"/></g>
<g><path style="opacity:1" fill="#070f27" d="M 100.5,73.5 C 99.5294,75.4832 98.5294,77.4832 97.5,79.5C 97.1667,79.5 96.8333,79.5 96.5,79.5C 96.5,77.8333 96.5,76.1667 96.5,74.5C 97.9587,74.5674 99.2921,74.2341 100.5,73.5 Z"/></g>
<g><path style="opacity:1" fill="#001037" d="M 131.5,71.5 C 134.112,73.0522 135.445,75.3855 135.5,78.5C 134.833,77.8333 134.167,77.1667 133.5,76.5C 132.559,74.9505 131.893,73.2838 131.5,71.5 Z"/></g>
<g><path style="opacity:1" fill="#107beb" d="M 121.5,56.5 C 122.167,56.8333 122.833,57.1667 123.5,57.5C 123.5,57.8333 123.5,58.1667 123.5,58.5C 125.93,63.0366 128.597,67.3699 131.5,71.5C 131.893,73.2838 132.559,74.9505 133.5,76.5C 133.076,80.0017 134.41,82.335 137.5,83.5C 138.167,84.1667 138.833,84.8333 139.5,85.5C 139.5,86.1667 139.5,86.8333 139.5,87.5C 139.5,88.1667 139.5,88.8333 139.5,89.5C 138.504,89.4142 137.671,89.7476 137,90.5C 138.351,87.2313 137.351,84.898 134,83.5C 132.092,86.3323 131.259,85.999 131.5,82.5C 129.876,82.6399 128.71,81.9733 128,80.5C 128.048,75.3834 126.714,70.7167 124,66.5C 123.339,63.0543 122.505,59.7209 121.5,56.5 Z"/></g>
<g><path style="opacity:1" fill="#1b66b8" d="M 133.5,76.5 C 134.167,77.1667 134.833,77.8333 135.5,78.5C 136.441,80.0495 137.107,81.7162 137.5,83.5C 134.41,82.335 133.076,80.0017 133.5,76.5 Z"/></g>
<g><path style="opacity:1" fill="#2575cd" d="M 100.5,73.5 C 100.833,73.5 101.167,73.5 101.5,73.5C 100.781,78.7433 98.4477,83.0767 94.5,86.5C 95.2271,84.0462 96.2271,81.7128 97.5,79.5C 98.5294,77.4832 99.5294,75.4832 100.5,73.5 Z"/></g>
<g><path style="opacity:1" fill="#01265f" d="M 96.5,79.5 C 96.8333,79.5 97.1667,79.5 97.5,79.5C 96.2271,81.7128 95.2271,84.0462 94.5,86.5C 93.8333,86.5 93.5,86.8333 93.5,87.5C 93.1667,87.5 92.8333,87.5 92.5,87.5C 92.5,87.1667 92.5,86.8333 92.5,86.5C 93.5957,83.9684 94.9291,81.6351 96.5,79.5 Z"/></g>
<g><path style="opacity:1" fill="#061331" d="M 139.5,85.5 C 141.688,86.4443 143.021,88.111 143.5,90.5C 144.234,91.7079 144.567,93.0413 144.5,94.5C 143.079,91.9906 141.412,89.6572 139.5,87.5C 139.5,86.8333 139.5,86.1667 139.5,85.5 Z"/></g>
<g><path style="opacity:1" fill="#020c32" d="M 92.5,86.5 C 92.5,86.8333 92.5,87.1667 92.5,87.5C 90.8248,90.245 89.1581,92.9117 87.5,95.5C 87.8611,91.7781 89.5278,88.7781 92.5,86.5 Z"/></g>
<g><path style="opacity:1" fill="#030206" d="M 124.5,101.5 C 124.241,103.989 125.241,105.656 127.5,106.5C 128.674,107.514 129.34,108.847 129.5,110.5C 129.427,112.027 130.094,113.027 131.5,113.5C 131.241,115.989 132.241,117.656 134.5,118.5C 134.403,122.652 136.069,125.652 139.5,127.5C 140.167,127.5 140.5,127.833 140.5,128.5C 140.89,131.466 140.223,134.132 138.5,136.5C 139.325,137.386 140.325,137.719 141.5,137.5C 141.664,140.187 141.497,142.854 141,145.5C 139.192,148.438 137.692,151.438 136.5,154.5C 136.167,154.5 135.833,154.5 135.5,154.5C 134.996,150.14 132.996,146.807 129.5,144.5C 129.5,144.167 129.5,143.833 129.5,143.5C 129.912,141.027 128.912,139.694 126.5,139.5C 125.5,137.5 124.5,135.5 123.5,133.5C 123.497,128.806 121.497,125.472 117.5,123.5C 116.292,122.218 114.958,122.218 113.5,123.5C 112.014,125.302 111.014,127.302 110.5,129.5C 110.167,130.833 109.833,132.167 109.5,133.5C 108.833,133.833 108.167,134.167 107.5,134.5C 105.167,133.167 102.833,131.833 100.5,130.5C 100.5,129.5 100.5,128.5 100.5,127.5C 101.5,127.5 102.5,127.5 103.5,127.5C 103.539,125.641 102.706,124.308 101,123.5C 100.092,125.439 98.5922,126.439 96.5,126.5C 96.5,125.5 96.5,124.5 96.5,123.5C 98.1126,120.714 99.946,118.047 102,115.5C 102.49,114.207 102.657,112.873 102.5,111.5C 105.084,110.952 106.084,109.285 105.5,106.5C 106.906,106.027 107.573,105.027 107.5,103.5C 108.079,100.669 109.412,98.3356 111.5,96.5C 113.148,95.1902 114.814,93.8569 116.5,92.5C 118.957,95.7924 121.623,98.7924 124.5,101.5 Z"/></g>
<g><path style="opacity:1" fill="#1d68c2" d="M 92.5,87.5 C 92.8333,87.5 93.1667,87.5 93.5,87.5C 91.6185,92.265 89.4518,96.9317 87,101.5C 85.9609,102.71 84.7942,103.71 83.5,104.5C 85.0909,101.648 86.4242,98.6484 87.5,95.5C 89.1581,92.9117 90.8248,90.245 92.5,87.5 Z"/></g>
<g><path style="opacity:1" fill="#021332" d="M 87.5,95.5 C 86.4242,98.6484 85.0909,101.648 83.5,104.5C 82.8333,105.167 82.1667,105.833 81.5,106.5C 82.2145,102.067 84.2145,98.4 87.5,95.5 Z"/></g>
<g><path style="opacity:1" fill="#030615" d="M 143.5,90.5 C 145.649,92.0456 147.816,93.7122 150,95.5C 149.782,97.5868 149.949,99.5868 150.5,101.5C 151.722,99.0217 153.722,98.0217 156.5,98.5C 156.405,101.272 155.071,103.272 152.5,104.5C 153.695,106.751 154.695,109.085 155.5,111.5C 156.391,112.59 157.391,112.59 158.5,111.5C 159.626,112.808 159.626,114.142 158.5,115.5C 157.609,114.89 156.609,114.557 155.5,114.5C 153.571,109.628 150.905,105.295 147.5,101.5C 146.773,99.0462 145.773,96.7128 144.5,94.5C 144.567,93.0413 144.234,91.7079 143.5,90.5 Z"/></g>
<g><path style="opacity:1" fill="#1572d2" d="M 139.5,87.5 C 141.412,89.6572 143.079,91.9906 144.5,94.5C 145.773,96.7128 146.773,99.0462 147.5,101.5C 146.5,101.5 145.5,101.5 144.5,101.5C 143.342,97.324 141.675,93.324 139.5,89.5C 139.5,88.8333 139.5,88.1667 139.5,87.5 Z"/></g>
<g><path style="opacity:1" fill="#001238" d="M 107.5,103.5 C 107.573,105.027 106.906,106.027 105.5,106.5C 105.427,104.973 106.094,103.973 107.5,103.5 Z"/></g>
<g><path style="opacity:1" fill="#041738" d="M 124.5,101.5 C 124.833,101.5 125.167,101.5 125.5,101.5C 125.5,101.833 125.5,102.167 125.5,102.5C 126.6,103.605 127.267,104.938 127.5,106.5C 125.241,105.656 124.241,103.989 124.5,101.5 Z"/></g>
<g><path style="opacity:1" fill="#01193f" d="M 81.5,106.5 C 80.8897,108.434 79.8897,110.101 78.5,111.5C 78.2729,109.067 79.2729,107.401 81.5,106.5 Z"/></g>
<g><path style="opacity:1" fill="#1a75d7" d="M 125.5,101.5 C 125.167,101.5 124.833,101.5 124.5,101.5C 123.226,98.2402 121.56,95.2402 119.5,92.5C 118.952,90.6064 117.952,88.9397 116.5,87.5C 115.295,88.5769 114.628,89.9102 114.5,91.5C 112.75,92.6594 111.75,94.326 111.5,96.5C 109.412,98.3356 108.079,100.669 107.5,103.5C 106.094,103.973 105.427,104.973 105.5,106.5C 103.75,107.659 102.75,109.326 102.5,111.5C 101.079,114.009 99.4121,116.343 97.5,118.5C 99.0252,114.615 100.692,110.782 102.5,107C 101.549,106.282 101.383,105.449 102,104.5C 103.333,103.833 104.667,103.167 106,102.5C 108.687,97.4322 111.521,92.4322 114.5,87.5C 118.245,84.5453 119.912,85.212 119.5,89.5C 120.5,89.5 121.5,89.5 122.5,89.5C 122.483,93.7914 123.483,97.7914 125.5,101.5 Z"/></g>
<g><path style="opacity:1" fill="#080d2a" d="M 119.5,92.5 C 121.56,95.2402 123.226,98.2402 124.5,101.5C 121.623,98.7924 118.957,95.7924 116.5,92.5C 114.814,93.8569 113.148,95.1902 111.5,96.5C 111.75,94.326 112.75,92.6594 114.5,91.5C 116.398,90.2655 118.065,90.5989 119.5,92.5 Z"/></g>
<g><path style="opacity:1" fill="#00133d" d="M 119.5,92.5 C 118.065,90.5989 116.398,90.2655 114.5,91.5C 114.628,89.9102 115.295,88.5769 116.5,87.5C 117.952,88.9397 118.952,90.6064 119.5,92.5 Z"/></g>
<g><path style="opacity:1" fill="#081436" d="M 105.5,106.5 C 106.084,109.285 105.084,110.952 102.5,111.5C 102.75,109.326 103.75,107.659 105.5,106.5 Z"/></g>
<g><path style="opacity:1" fill="#1478e1" d="M 83.5,104.5 C 83.3259,106.861 82.9926,109.194 82.5,111.5C 83.675,111.281 84.675,111.614 85.5,112.5C 83.9936,113.747 82.4936,113.747 81,112.5C 80.2411,114.063 79.0744,115.063 77.5,115.5C 77.8333,114.167 78.1667,112.833 78.5,111.5C 79.8897,110.101 80.8897,108.434 81.5,106.5C 82.1667,105.833 82.8333,105.167 83.5,104.5 Z"/></g>
<g><path style="opacity:1" fill="#00153b" d="M 129.5,110.5 C 130.906,110.973 131.573,111.973 131.5,113.5C 130.094,113.027 129.427,112.027 129.5,110.5 Z"/></g>
<g><path style="opacity:1" fill="#1d71c7" d="M 125.5,102.5 C 126.496,102.414 127.329,102.748 128,103.5C 131.974,109.923 135.474,116.589 138.5,123.5C 136.926,122.016 135.593,120.349 134.5,118.5C 133.89,116.566 132.89,114.899 131.5,113.5C 131.573,111.973 130.906,110.973 129.5,110.5C 129.34,108.847 128.674,107.514 127.5,106.5C 127.267,104.938 126.6,103.605 125.5,102.5 Z"/></g>
<g><path style="opacity:1" fill="#001b4b" d="M 78.5,111.5 C 78.1667,112.833 77.8333,114.167 77.5,115.5C 77.1667,115.5 76.8333,115.5 76.5,115.5C 76.2291,113.62 76.8958,112.287 78.5,111.5 Z"/></g>
<g><path style="opacity:1" fill="#1676d7" d="M 147.5,101.5 C 150.905,105.295 153.571,109.628 155.5,114.5C 157.358,116.883 158.692,119.55 159.5,122.5C 158.5,122.5 157.5,122.5 156.5,122.5C 156.16,119.324 154.494,117.157 151.5,116C 152.774,111.821 151.607,108.321 148,105.5C 147.51,104.207 147.343,102.873 147.5,101.5 Z"/></g>
<g><path style="opacity:1" fill="#011639" d="M 102.5,111.5 C 102.657,112.873 102.49,114.207 102,115.5C 99.946,118.047 98.1126,120.714 96.5,123.5C 96.1667,123.5 95.8333,123.5 95.5,123.5C 95.8925,121.716 96.5592,120.05 97.5,118.5C 99.4121,116.343 101.079,114.009 102.5,111.5 Z"/></g>
<g><path style="opacity:1" fill="#090f2c" d="M 131.5,113.5 C 132.89,114.899 133.89,116.566 134.5,118.5C 132.241,117.656 131.241,115.989 131.5,113.5 Z"/></g>
<g><path style="opacity:1" fill="#08122b" d="M 155.5,114.5 C 156.609,114.557 157.609,114.89 158.5,115.5C 161.643,120.119 163.976,125.119 165.5,130.5C 164.167,128.833 162.833,127.167 161.5,125.5C 161.573,123.973 160.906,122.973 159.5,122.5C 158.692,119.55 157.358,116.883 155.5,114.5 Z"/></g>
<g><path style="opacity:1" fill="#070e2b" d="M 134.5,118.5 C 135.593,120.349 136.926,122.016 138.5,123.5C 138.833,124.833 139.167,126.167 139.5,127.5C 136.069,125.652 134.403,122.652 134.5,118.5 Z"/></g>
<g><path style="opacity:1" fill="#021e49" d="M 76.5,115.5 C 74.8267,118.869 73.1601,122.202 71.5,125.5C 70.7281,126.694 69.7281,127.694 68.5,128.5C 70.1774,125.299 71.6774,121.965 73,118.5C 73.7589,116.937 74.9256,115.937 76.5,115.5 Z"/></g>
<g><path style="opacity:1" fill="#080e27" d="M 117.5,123.5 C 116.761,123.369 116.094,123.536 115.5,124C 114.303,126.015 112.97,127.849 111.5,129.5C 111.167,129.5 110.833,129.5 110.5,129.5C 111.014,127.302 112.014,125.302 113.5,123.5C 114.958,122.218 116.292,122.218 117.5,123.5 Z"/></g>
<g><path style="opacity:1" fill="#080725" d="M 117.5,123.5 C 121.497,125.472 123.497,128.806 123.5,133.5C 122.833,132.833 122.167,132.167 121.5,131.5C 120.601,128.605 119.267,125.938 117.5,123.5 Z"/></g>
<g><path style="opacity:1" fill="#1878dd" d="M 138.5,123.5 C 139.675,123.281 140.675,123.614 141.5,124.5C 142.348,126.409 142.682,128.409 142.5,130.5C 141.833,129.833 141.167,129.167 140.5,128.5C 140.5,127.833 140.167,127.5 139.5,127.5C 139.167,126.167 138.833,124.833 138.5,123.5 Z"/></g>
<g><path style="opacity:1" fill="#1777dd" d="M 117.5,123.5 C 119.267,125.938 120.601,128.605 121.5,131.5C 119.94,131.519 118.44,131.852 117,132.5C 115.287,131.863 115.121,130.863 116.5,129.5C 116.192,128.692 115.692,128.025 115,127.5C 114.439,130.29 113.106,132.623 111,134.5C 110.51,135.793 110.343,137.127 110.5,138.5C 109.5,138.5 108.5,138.5 107.5,138.5C 108.167,136.833 108.833,135.167 109.5,133.5C 111.104,132.713 111.771,131.38 111.5,129.5C 112.97,127.849 114.303,126.015 115.5,124C 116.094,123.536 116.761,123.369 117.5,123.5 Z"/></g>
<g><path style="opacity:1" fill="#2474ca" d="M 94.5,123.5 C 92.668,127.836 90.3346,131.836 87.5,135.5C 88.9873,131.855 90.4873,128.188 92,124.5C 92.6708,123.748 93.5041,123.414 94.5,123.5 Z"/></g>
<g><path style="opacity:1" fill="#021333" d="M 68.5,128.5 C 68.1667,129.833 67.8333,131.167 67.5,132.5C 66.8333,132.833 66.1667,133.167 65.5,133.5C 65.5923,131.152 66.5923,129.486 68.5,128.5 Z"/></g>
<g><path style="opacity:1" fill="#07091c" d="M 94.5,123.5 C 94.8333,123.5 95.1667,123.5 95.5,123.5C 95.8333,123.5 96.1667,123.5 96.5,123.5C 96.5,124.5 96.5,125.5 96.5,126.5C 95.8592,127.482 95.1925,128.482 94.5,129.5C 95.6538,132.102 96.1538,134.768 96,137.5C 94.8378,135.162 93.0044,133.828 90.5,133.5C 90.0523,136.172 88.719,138.172 86.5,139.5C 86.8333,138.167 87.1667,136.833 87.5,135.5C 90.3346,131.836 92.668,127.836 94.5,123.5 Z"/></g>
<g><path style="opacity:1" fill="#1e6fbd" d="M 71.5,125.5 C 71.413,128.578 70.0797,130.911 67.5,132.5C 67.8333,131.167 68.1667,129.833 68.5,128.5C 69.7281,127.694 70.7281,126.694 71.5,125.5 Z"/></g>
<g><path style="opacity:1" fill="#1674d0" d="M 161.5,125.5 C 162.833,127.167 164.167,128.833 165.5,130.5C 165.5,130.833 165.5,131.167 165.5,131.5C 166.11,132.391 166.443,133.391 166.5,134.5C 163.052,132.614 161.386,129.614 161.5,125.5 Z"/></g>
<g><path style="opacity:1" fill="#00265c" d="M 110.5,129.5 C 110.833,129.5 111.167,129.5 111.5,129.5C 111.771,131.38 111.104,132.713 109.5,133.5C 109.833,132.167 110.167,130.833 110.5,129.5 Z"/></g>
<g><path style="opacity:1" fill="#070e29" d="M 165.5,131.5 C 166.5,131.5 167.5,131.5 168.5,131.5C 168.833,133.5 169.167,135.5 169.5,137.5C 168.728,136.306 167.728,135.306 166.5,134.5C 166.443,133.391 166.11,132.391 165.5,131.5 Z"/></g>
<g><path style="opacity:1" fill="#047efa" d="M 121.5,131.5 C 122.167,132.167 122.833,132.833 123.5,133.5C 124.5,135.5 125.5,137.5 126.5,139.5C 127.026,141.23 128.026,142.564 129.5,143.5C 129.5,143.833 129.5,144.167 129.5,144.5C 130.441,146.05 131.107,147.716 131.5,149.5C 131.88,152.745 133.047,155.745 135,158.5C 135.671,159.252 136.504,159.586 137.5,159.5C 137.343,160.873 137.51,162.207 138,163.5C 139.564,165.263 140.731,167.263 141.5,169.5C 124.513,170.499 107.513,170.833 90.5,170.5C 90.5,169.5 90.5,168.5 90.5,167.5C 93.0858,166.513 94.4191,164.513 94.5,161.5C 96.083,160.064 97.583,158.398 99,156.5C 99.49,155.207 99.6567,153.873 99.5,152.5C 103.834,148.822 106.501,144.155 107.5,138.5C 108.5,138.5 109.5,138.5 110.5,138.5C 110.343,137.127 110.51,135.793 111,134.5C 113.106,132.623 114.439,130.29 115,127.5C 115.692,128.025 116.192,128.692 116.5,129.5C 115.121,130.863 115.287,131.863 117,132.5C 118.44,131.852 119.94,131.519 121.5,131.5 Z"/></g>
<g><path style="opacity:1" fill="#0a0c1f" d="M 140.5,128.5 C 141.167,129.167 141.833,129.833 142.5,130.5C 143.079,133.331 144.412,135.664 146.5,137.5C 146.833,138.833 147.167,140.167 147.5,141.5C 146.265,141.721 145.265,142.388 144.5,143.5C 144.502,141.259 144.168,138.926 143.5,136.5C 142.056,135.019 141.389,135.352 141.5,137.5C 140.325,137.719 139.325,137.386 138.5,136.5C 140.223,134.132 140.89,131.466 140.5,128.5 Z"/></g>
<g><path style="opacity:1" fill="#1b71cd" d="M 146.5,137.5 C 147.721,138.028 148.887,138.695 150,139.5C 151.755,144.276 153.588,148.942 155.5,153.5C 154.728,152.306 153.728,151.306 152.5,150.5C 151.59,147.008 149.924,144.008 147.5,141.5C 147.167,140.167 146.833,138.833 146.5,137.5 Z"/></g>
<g><path style="opacity:1" fill="#1a72c8" d="M 166.5,134.5 C 167.728,135.306 168.728,136.306 169.5,137.5C 169.5,138.167 169.5,138.833 169.5,139.5C 166.916,138.952 165.916,137.285 166.5,134.5 Z"/></g>
<g><path style="opacity:1" fill="#050c2a" d="M 169.5,137.5 C 172.083,138.985 173.416,141.318 173.5,144.5C 172.407,142.651 171.074,140.984 169.5,139.5C 169.5,138.833 169.5,138.167 169.5,137.5 Z"/></g>
<g><path style="opacity:1" fill="#011a46" d="M 65.5,134.5 C 63.8899,138.1 61.8899,141.434 59.5,144.5C 60.2226,140.435 62.2226,137.101 65.5,134.5 Z"/></g>
<g><path style="opacity:1" fill="#001239" d="M 109.5,133.5 C 108.833,135.167 108.167,136.833 107.5,138.5C 106.167,140.167 104.833,141.833 103.5,143.5C 104.023,140.122 105.356,137.122 107.5,134.5C 108.167,134.167 108.833,133.833 109.5,133.5 Z"/></g>
<g><path style="opacity:1" fill="#001642" d="M 126.5,139.5 C 128.912,139.694 129.912,141.027 129.5,143.5C 128.026,142.564 127.026,141.23 126.5,139.5 Z"/></g>
<g><path style="opacity:1" fill="#107ae5" d="M 67.5,132.5 C 66.749,135.749 65.749,138.915 64.5,142C 64.7267,144.619 65.3934,147.119 66.5,149.5C 65.7811,154.614 64.4477,154.78 62.5,150C 62.4222,147.952 62.5889,145.785 63,143.5C 61.669,145.996 59.8356,147.996 57.5,149.5C 57.5569,148.391 57.8902,147.391 58.5,146.5C 59.3382,146.158 59.6716,145.492 59.5,144.5C 61.8899,141.434 63.8899,138.1 65.5,134.5C 65.5,134.167 65.5,133.833 65.5,133.5C 66.1667,133.167 66.8333,132.833 67.5,132.5 Z"/></g>
<g><path style="opacity:1" fill="#001c48" d="M 85.5,140.5 C 85.7709,142.38 85.1042,143.713 83.5,144.5C 83.5,144.167 83.5,143.833 83.5,143.5C 83.9321,142.29 84.5987,141.29 85.5,140.5 Z"/></g>
<g><path style="opacity:1" fill="#1770c9" d="M 107.5,138.5 C 106.501,144.155 103.834,148.822 99.5,152.5C 100.833,149.5 102.167,146.5 103.5,143.5C 104.833,141.833 106.167,140.167 107.5,138.5 Z"/></g>
<g><path style="opacity:1" fill="#040819" d="M 180.5,154.5 C 179.833,154.5 179.167,154.5 178.5,154.5C 178.5,153.833 178.167,153.5 177.5,153.5C 177.107,151.716 176.441,150.05 175.5,148.5C 176.496,148.414 177.329,148.748 178,149.5C 178.333,147.833 178.667,146.167 179,144.5C 182.089,146.608 182.256,148.941 179.5,151.5C 179.685,152.584 180.018,153.584 180.5,154.5 Z"/></g>
<g><path style="opacity:1" fill="#060513" d="M 59.5,144.5 C 59.6716,145.492 59.3382,146.158 58.5,146.5C 56.9519,146.821 56.2852,147.821 56.5,149.5C 55.5023,153.505 53.5023,156.839 50.5,159.5C 52.4168,150.585 53.9168,141.585 55,132.5C 56.1827,131.269 57.3493,131.269 58.5,132.5C 56.8245,136.87 56.1578,141.203 56.5,145.5C 57.2508,144.624 57.7508,143.624 58,142.5C 58.2784,143.416 58.7784,144.082 59.5,144.5 Z"/></g>
<g><path style="opacity:1" fill="#1a6ec5" d="M 169.5,139.5 C 171.074,140.984 172.407,142.651 173.5,144.5C 174.167,145.833 174.833,147.167 175.5,148.5C 176.441,150.05 177.107,151.716 177.5,153.5C 176.279,152.972 175.113,152.305 174,151.5C 172.173,147.533 170.673,143.533 169.5,139.5 Z"/></g>
<g><path style="opacity:1" fill="#1c6bba" d="M 83.5,143.5 C 83.5,143.833 83.5,144.167 83.5,144.5C 82.2632,145.965 81.2632,147.632 80.5,149.5C 80.1667,149.5 79.8333,149.5 79.5,149.5C 79.6845,146.663 81.0178,144.663 83.5,143.5 Z"/></g>
<g><path style="opacity:1" fill="#001239" d="M 58.5,146.5 C 57.8902,147.391 57.5569,148.391 57.5,149.5C 57.1667,149.5 56.8333,149.5 56.5,149.5C 56.2852,147.821 56.9519,146.821 58.5,146.5 Z"/></g>
<g><path style="opacity:1" fill="#030f30" d="M 103.5,143.5 C 102.167,146.5 100.833,149.5 99.5,152.5C 98.8333,152.833 98.1667,153.167 97.5,153.5C 98.4792,149.539 100.479,146.206 103.5,143.5 Z"/></g>
<g><path style="opacity:1" fill="#080b23" d="M 147.5,141.5 C 149.924,144.008 151.59,147.008 152.5,150.5C 151.504,150.586 150.671,150.252 150,149.5C 148.659,146.978 147.826,144.311 147.5,141.5 Z"/></g>
<g><path style="opacity:1" fill="#021232" d="M 129.5,144.5 C 132.996,146.807 134.996,150.14 135.5,154.5C 134.407,152.651 133.074,150.984 131.5,149.5C 131.107,147.716 130.441,146.05 129.5,144.5 Z"/></g>
<g><path style="opacity:1" fill="#1971c9" d="M 79.5,149.5 C 78.7729,151.954 77.7729,154.287 76.5,156.5C 74.5879,158.657 72.9213,160.991 71.5,163.5C 72.9745,158.994 74.9745,154.661 77.5,150.5C 77.9569,149.702 78.6236,149.369 79.5,149.5 Z"/></g>
<g><path style="opacity:1" fill="#1579d7" d="M 131.5,149.5 C 133.074,150.984 134.407,152.651 135.5,154.5C 136.167,156.167 136.833,157.833 137.5,159.5C 136.504,159.586 135.671,159.252 135,158.5C 133.047,155.745 131.88,152.745 131.5,149.5 Z"/></g>
<g><path style="opacity:1" fill="#1872ce" d="M 56.5,149.5 C 56.8333,149.5 57.1667,149.5 57.5,149.5C 56.8473,154.485 54.514,158.485 50.5,161.5C 50.5,160.833 50.5,160.167 50.5,159.5C 53.5023,156.839 55.5023,153.505 56.5,149.5 Z"/></g>
<g><path style="opacity:1" fill="#1773cd" d="M 99.5,152.5 C 99.6567,153.873 99.49,155.207 99,156.5C 97.583,158.398 96.083,160.064 94.5,161.5C 95.242,159.02 96.242,156.687 97.5,154.5C 97.5,154.167 97.5,153.833 97.5,153.5C 98.1667,153.167 98.8333,152.833 99.5,152.5 Z"/></g>
<g><path style="opacity:1" fill="#00163e" d="M 135.5,154.5 C 135.833,154.5 136.167,154.5 136.5,154.5C 138.455,156.346 139.455,158.679 139.5,161.5C 138.833,160.833 138.167,160.167 137.5,159.5C 136.833,157.833 136.167,156.167 135.5,154.5 Z"/></g>
<g><path style="opacity:1" fill="#1a77d4" d="M 155.5,154.5 C 159.297,156.116 161.297,159.116 161.5,163.5C 160.833,162.833 160.167,162.167 159.5,161.5C 159.573,159.973 158.906,158.973 157.5,158.5C 157.267,156.938 156.6,155.605 155.5,154.5 Z"/></g>
<g><path style="opacity:1" fill="#050819" d="M 152.5,150.5 C 153.728,151.306 154.728,152.306 155.5,153.5C 155.5,153.833 155.5,154.167 155.5,154.5C 156.6,155.605 157.267,156.938 157.5,158.5C 157.427,160.027 158.094,161.027 159.5,161.5C 160.167,162.167 160.833,162.833 161.5,163.5C 161.328,164.492 161.662,165.158 162.5,165.5C 162.833,166.833 163.167,168.167 163.5,169.5C 162.265,169.721 161.265,170.388 160.5,171.5C 160.92,168.851 160.42,166.184 159,163.5C 157.215,162.76 155.382,162.093 153.5,161.5C 153.327,157.836 152.993,154.17 152.5,150.5 Z"/></g>
<g><path style="opacity:1" fill="#030415" d="M 79.5,149.5 C 79.8333,149.5 80.1667,149.5 80.5,149.5C 80.7521,152.244 80.0855,154.744 78.5,157C 79.0933,158.882 80.4267,159.882 82.5,160C 80.9095,161.046 79.4095,162.213 78,163.5C 77.79,161.942 77.29,160.609 76.5,159.5C 76.5,158.5 76.5,157.5 76.5,156.5C 77.7729,154.287 78.7729,151.954 79.5,149.5 Z"/></g>
<g><path style="opacity:1" fill="#001b4e" d="M 97.5,154.5 C 96.242,156.687 95.242,159.02 94.5,161.5C 94.1667,161.5 93.8333,161.5 93.5,161.5C 93.5548,158.386 94.8881,156.052 97.5,154.5 Z"/></g>
<g><path style="opacity:1" fill="#051334" d="M 178.5,154.5 C 179.167,154.5 179.833,154.5 180.5,154.5C 182.906,159.208 185.24,163.875 187.5,168.5C 186.833,168.167 186.167,167.833 185.5,167.5C 183.731,162.855 181.397,158.521 178.5,154.5 Z"/></g>
<g><path style="opacity:1" fill="#032852" d="M 157.5,158.5 C 158.906,158.973 159.573,159.973 159.5,161.5C 158.094,161.027 157.427,160.027 157.5,158.5 Z"/></g>
<g><path style="opacity:1" fill="#0d4289" d="M 50.5,161.5 C 50.2624,163.404 49.2624,164.738 47.5,165.5C 47.7376,163.596 48.7376,162.262 50.5,161.5 Z"/></g>
<g><path style="opacity:1" fill="#010f35" d="M 139.5,161.5 C 140.496,161.414 141.329,161.748 142,162.5C 143.118,164.765 143.951,167.099 144.5,169.5C 144.167,169.5 143.833,169.5 143.5,169.5C 142.167,166.833 140.833,164.167 139.5,161.5 Z"/></g>
<g><path style="opacity:1" fill="#041433" d="M 76.5,156.5 C 76.5,157.5 76.5,158.5 76.5,159.5C 74.2255,164.398 71.2255,168.732 67.5,172.5C 67.5,172.167 67.5,171.833 67.5,171.5C 68.4411,169.228 69.7745,167.228 71.5,165.5C 71.5,164.833 71.5,164.167 71.5,163.5C 72.9213,160.991 74.5879,158.657 76.5,156.5 Z"/></g>
<g><path style="opacity:1" fill="#1965b6" d="M 93.5,161.5 C 93.8333,161.5 94.1667,161.5 94.5,161.5C 94.4191,164.513 93.0858,166.513 90.5,167.5C 90.9925,165.181 91.9925,163.181 93.5,161.5 Z"/></g>
<g><path style="opacity:1" fill="#0f7ded" d="M 177.5,153.5 C 178.167,153.5 178.5,153.833 178.5,154.5C 181.397,158.521 183.731,162.855 185.5,167.5C 185.414,168.496 185.748,169.329 186.5,170C 184.19,170.497 181.857,170.663 179.5,170.5C 178.62,165.76 176.953,161.427 174.5,157.5C 175.5,157.5 176.5,157.5 177.5,157.5C 177.5,156.167 177.5,154.833 177.5,153.5 Z"/></g>
<g><path style="opacity:1" fill="#1f72cc" d="M 71.5,165.5 C 69.7745,167.228 68.4411,169.228 67.5,171.5C 60.1667,171.5 52.8333,171.5 45.5,171.5C 45.2291,169.62 45.8958,168.287 47.5,167.5C 47.5,168.5 47.5,169.5 47.5,170.5C 53.8421,170.666 60.1754,170.5 66.5,170C 67.4113,167.585 69.078,166.085 71.5,165.5 Z"/></g>
<g><path style="opacity:1" fill="#1d75d4" d="M 137.5,159.5 C 138.167,160.167 138.833,160.833 139.5,161.5C 140.833,164.167 142.167,166.833 143.5,169.5C 125.864,171.487 107.864,172.153 89.5,171.5C 89.5,170.5 89.5,169.5 89.5,168.5C 89.5,167.833 89.8333,167.5 90.5,167.5C 90.5,168.5 90.5,169.5 90.5,170.5C 107.513,170.833 124.513,170.499 141.5,169.5C 140.731,167.263 139.564,165.263 138,163.5C 137.51,162.207 137.343,160.873 137.5,159.5 Z"/></g>
<g><path style="opacity:1" fill="#1a76d8" d="M 179.5,170.5 C 181.857,170.663 184.19,170.497 186.5,170C 185.748,169.329 185.414,168.496 185.5,167.5C 186.167,167.833 186.833,168.167 187.5,168.5C 187.5,168.833 187.5,169.167 187.5,169.5C 180.576,171.463 173.243,172.13 165.5,171.5C 165.167,170.5 164.5,169.833 163.5,169.5C 163.167,168.167 162.833,166.833 162.5,165.5C 164.144,165.714 165.644,165.38 167,164.5C 166.981,166.107 166.815,167.774 166.5,169.5C 170.81,170.08 175.143,170.414 179.5,170.5 Z"/></g>
<g><path style="opacity:1" fill="#042a61" d="M 47.5,165.5 C 47.5,166.167 47.5,166.833 47.5,167.5C 45.8958,168.287 45.2291,169.62 45.5,171.5C 52.8333,171.5 60.1667,171.5 67.5,171.5C 67.5,171.833 67.5,172.167 67.5,172.5C 59.8333,172.5 52.1667,172.5 44.5,172.5C 44.5,170.833 44.5,169.167 44.5,167.5C 45.5,166.833 46.5,166.167 47.5,165.5 Z"/></g>
<g><path style="opacity:1" fill="#062c5c" d="M 89.5,168.5 C 89.5,169.5 89.5,170.5 89.5,171.5C 107.864,172.153 125.864,171.487 143.5,169.5C 143.833,169.5 144.167,169.5 144.5,169.5C 144.737,170.791 144.404,171.791 143.5,172.5C 127.167,172.5 110.833,172.5 94.5,172.5C 92.5,172.5 90.5,172.5 88.5,172.5C 88.2322,170.901 88.5655,169.568 89.5,168.5 Z"/></g>
<g><path style="opacity:1" fill="#01051f" d="M 44.5,167.5 C 44.5,169.167 44.5,170.833 44.5,172.5C 52.1667,172.5 59.8333,172.5 67.5,172.5C 59.6841,173.492 51.6841,173.826 43.5,173.5C 43.2053,171.265 43.5386,169.265 44.5,167.5 Z"/></g>
<g><path style="opacity:1" fill="#00041b" d="M 94.5,172.5 C 110.833,172.5 127.167,172.5 143.5,172.5C 127.431,173.174 111.265,173.84 95,174.5C 94.5357,173.906 94.369,173.239 94.5,172.5 Z"/></g>
<g><path style="opacity:1" fill="#02051a" d="M 163.5,169.5 C 164.5,169.833 165.167,170.5 165.5,171.5C 172.982,172.492 180.648,172.825 188.5,172.5C 188.5,171.5 188.5,170.5 188.5,169.5C 189.376,169.369 190.043,169.702 190.5,170.5C 189.699,172.353 189.365,174.019 189.5,175.5C 188.389,174.389 187.055,173.722 185.5,173.5C 178.645,173.427 171.811,173.76 165,174.5C 164.392,172.846 163.892,171.179 163.5,169.5 Z"/></g>
<g><path style="opacity:1" fill="#032b60" d="M 187.5,169.5 C 187.833,169.5 188.167,169.5 188.5,169.5C 188.5,170.5 188.5,171.5 188.5,172.5C 180.648,172.825 172.982,172.492 165.5,171.5C 173.243,172.13 180.576,171.463 187.5,169.5 Z"/></g>
</svg>
