<?xml version="1.0" encoding="UTF-8"?>
<!DOCTYPE svg PUBLIC "-//W3C//DTD SVG 1.1//EN" "http://www.w3.org/Graphics/SVG/1.1/DTD/svg11.dtd">
<svg xmlns="http://www.w3.org/2000/svg" version="1.1" width="400px" height="400px" style="shape-rendering:geometricPrecision; text-rendering:geometricPrecision; image-rendering:optimizeQuality; fill-rule:evenodd; clip-rule:evenodd" xmlns:xlink="http://www.w3.org/1999/xlink">
<g><path style="opacity:0.994" fill="#fefefe" d="M 179.5,-0.5 C 192.833,-0.5 206.167,-0.5 219.5,-0.5C 287.286,8.48556 338.786,42.1522 374,100.5C 387.612,125.313 396.112,151.646 399.5,179.5C 399.5,192.833 399.5,206.167 399.5,219.5C 390.514,287.286 356.848,338.786 298.5,374C 273.687,387.612 247.354,396.112 219.5,399.5C 206.167,399.5 192.833,399.5 179.5,399.5C 111.714,390.514 60.214,356.848 25,298.5C 11.3884,273.687 2.88842,247.354 -0.5,219.5C -0.5,206.167 -0.5,192.833 -0.5,179.5C 8.48556,111.714 42.1522,60.214 100.5,25C 125.313,11.3884 151.646,2.88842 179.5,-0.5 Z"/></g>
<g><path style="opacity:1" fill="#91b7ef" d="M 256.5,83.5 C 272.995,82.3384 289.662,82.1717 306.5,83C 307.942,83.3768 308.942,84.2101 309.5,85.5C 309.167,85.5 308.833,85.5 308.5,85.5C 307.527,85.0133 306.527,84.5133 305.5,84C 289.17,83.5001 272.837,83.3334 256.5,83.5 Z"/></g>
<g><path style="opacity:1" fill="#3978e6" d="M 256.5,84.5 C 256.5,84.1667 256.5,83.8333 256.5,83.5C 272.837,83.3334 289.17,83.5001 305.5,84C 306.527,84.5133 307.527,85.0133 308.5,85.5C 308.768,87.099 308.434,88.4324 307.5,89.5C 307.5,88.5 307.5,87.5 307.5,86.5C 290.608,84.6183 273.608,83.9516 256.5,84.5 Z"/></g>
<g><path style="opacity:1" fill="#8eb9f2" d="M 256.5,83.5 C 256.5,83.8333 256.5,84.1667 256.5,84.5C 254.246,85.4151 252.246,86.7484 250.5,88.5C 251.288,85.3791 253.288,83.7124 256.5,83.5 Z"/></g>
<g><path style="opacity:1" fill="#6c9be9" d="M 308.5,85.5 C 308.833,85.5 309.167,85.5 309.5,85.5C 310.598,86.6009 310.765,87.9343 310,89.5C 307.963,91.7059 305.797,93.7059 303.5,95.5C 303.5,94.8333 303.5,94.1667 303.5,93.5C 305.167,92.5 306.5,91.1667 307.5,89.5C 308.434,88.4324 308.768,87.099 308.5,85.5 Z"/></g>
<g><path style="opacity:1" fill="#85aff2" d="M 247.5,91.5 C 245.167,94.5 242.5,97.1667 239.5,99.5C 241.167,95.8333 243.833,93.1667 247.5,91.5 Z"/></g>
<g><path style="opacity:1" fill="#176cfc" d="M 256.5,84.5 C 273.608,83.9516 290.608,84.6183 307.5,86.5C 307.5,87.5 307.5,88.5 307.5,89.5C 306.5,91.1667 305.167,92.5 303.5,93.5C 300.022,93.1842 296.688,93.6842 293.5,95C 294.328,95.9147 295.328,96.5814 296.5,97C 295.015,100.023 293.348,100.19 291.5,97.5C 292.641,96.5745 292.641,95.7412 291.5,95C 290.207,94.51 288.873,94.3433 287.5,94.5C 287.338,96.5273 287.505,98.5273 288,100.5C 289.613,99.3777 290.78,99.8777 291.5,102C 290.62,103.356 290.286,104.856 290.5,106.5C 287.5,106.167 286.167,107.5 286.5,110.5C 283.327,110.401 280.327,111.068 277.5,112.5C 278.325,113.386 279.325,113.719 280.5,113.5C 280.5,114.833 280.5,116.167 280.5,117.5C 280.167,118.167 279.833,118.833 279.5,119.5C 277.246,120.415 275.246,121.748 273.5,123.5C 272.5,123.5 271.5,123.5 270.5,123.5C 270.5,124.5 270.5,125.5 270.5,126.5C 267.376,126.943 265.043,128.61 263.5,131.5C 262.271,132.281 260.938,132.781 259.5,133C 260.973,133.71 261.64,134.876 261.5,136.5C 260.833,136.833 260.167,137.167 259.5,137.5C 255.625,136.874 253.791,138.541 254,142.5C 253.586,142.043 253.086,141.709 252.5,141.5C 251.148,143.636 249.482,143.97 247.5,142.5C 242.427,144.413 242.427,145.913 247.5,147C 248.252,147.671 248.586,148.504 248.5,149.5C 247.662,149.842 247.328,150.508 247.5,151.5C 246.508,151.328 245.842,151.662 245.5,152.5C 243.003,152.273 241.336,150.94 240.5,148.5C 239.294,150.484 239.294,152.484 240.5,154.5C 239.147,155.524 238.48,156.857 238.5,158.5C 237.5,158.5 236.5,158.5 235.5,158.5C 235.719,159.675 235.386,160.675 234.5,161.5C 233.604,160.494 232.938,160.494 232.5,161.5C 233.127,162.417 233.461,163.417 233.5,164.5C 229.434,167.563 226.101,171.229 223.5,175.5C 221.946,176.693 220.279,177.86 218.5,179C 216.859,180.129 215.859,181.629 215.5,183.5C 212.5,185.833 209.833,188.5 207.5,191.5C 206.833,191.833 206.167,192.167 205.5,192.5C 203.856,192.714 202.356,192.38 201,191.5C 200.667,193.167 200.333,194.833 200,196.5C 198.989,195.663 197.822,195.33 196.5,195.5C 196.5,198.167 196.5,200.833 196.5,203.5C 197.978,203.238 199.311,203.571 200.5,204.5C 199.41,205.609 199.41,206.609 200.5,207.5C 201.736,206.754 203.07,206.421 204.5,206.5C 207.895,209.902 211.562,212.902 215.5,215.5C 215.5,215.833 215.5,216.167 215.5,216.5C 216.783,218.606 217.616,220.94 218,223.5C 224.141,224.944 227.141,228.61 227,234.5C 228.681,232.572 230.514,232.239 232.5,233.5C 232.833,233.5 233.167,233.5 233.5,233.5C 233.833,236.5 235.5,238.167 238.5,238.5C 240.5,242.5 243.5,245.5 247.5,247.5C 249.167,251.167 251.833,253.833 255.5,255.5C 256.167,258.167 257.833,259.833 260.5,260.5C 262.981,265.373 266.647,269.039 271.5,271.5C 271.343,272.873 271.51,274.207 272,275.5C 274.475,276.986 276.975,278.319 279.5,279.5C 281.428,281.781 282.428,284.447 282.5,287.5C 284.292,287.366 285.958,287.699 287.5,288.5C 290.167,290.833 292.833,293.167 295.5,295.5C 296.5,295.833 297.167,296.5 297.5,297.5C 298.167,300.833 300.167,302.833 303.5,303.5C 304.5,303.833 305.167,304.5 305.5,305.5C 305.714,307.144 305.38,308.644 304.5,310C 305.624,310.249 306.624,310.749 307.5,311.5C 289.833,312.833 272.167,312.833 254.5,311.5C 255.645,310.109 255.645,308.776 254.5,307.5C 253.833,308.167 253.167,308.833 252.5,309.5C 251.583,308.873 250.583,308.539 249.5,308.5C 248.963,306.289 247.963,304.289 246.5,302.5C 246.556,301.263 247.056,300.263 248,299.5C 249.011,300.337 250.178,300.67 251.5,300.5C 251.5,298.833 251.5,297.167 251.5,295.5C 247.336,296.116 243.336,297.116 239.5,298.5C 237.167,296.833 235.167,294.833 233.5,292.5C 232.627,290.114 231.127,288.114 229,286.5C 228.517,285.552 228.351,284.552 228.5,283.5C 227.167,283.5 225.833,283.5 224.5,283.5C 221.833,281.5 219.5,279.167 217.5,276.5C 215.469,272.289 212.803,268.455 209.5,265C 208.207,264.51 206.873,264.343 205.5,264.5C 203.833,263.5 202.5,262.167 201.5,260.5C 200.741,258.564 199.741,256.731 198.5,255C 199.275,252.73 199.608,250.563 199.5,248.5C 196.455,247.305 193.122,247.305 189.5,248.5C 189.141,246.629 188.141,245.129 186.5,244C 186.057,242.482 186.724,241.315 188.5,240.5C 186.587,239.949 184.587,239.782 182.5,240C 180.582,235.246 177.249,232.08 172.5,230.5C 173.126,226.625 171.459,224.791 167.5,225C 162.661,221.172 158.994,216.505 156.5,211C 153.005,210.881 150.005,209.715 147.5,207.5C 147.315,205.804 146.481,204.471 145,203.5C 144.264,200.408 144.431,197.408 145.5,194.5C 147.5,192.167 149.5,189.833 151.5,187.5C 152.5,186.833 153.5,186.167 154.5,185.5C 156.138,184.086 157.472,184.42 158.5,186.5C 159.429,185.311 159.762,183.978 159.5,182.5C 163.134,181.029 165.634,178.363 167,174.5C 168.667,175.833 170.333,175.833 172,174.5C 172.239,172.275 171.405,171.942 169.5,173.5C 168.702,173.043 168.369,172.376 168.5,171.5C 173.5,166.167 178.5,160.833 183.5,155.5C 183.5,154.167 184.167,153.5 185.5,153.5C 190.5,149.167 195.167,144.5 199.5,139.5C 205.167,134.5 210.5,129.167 215.5,123.5C 217.167,122.5 218.5,121.167 219.5,119.5C 221.167,118.5 222.5,117.167 223.5,115.5C 223.833,115.5 224.167,115.5 224.5,115.5C 226.371,115.141 227.871,114.141 229,112.5C 231.252,109.606 233.418,106.606 235.5,103.5C 237.167,102.5 238.5,101.167 239.5,99.5C 242.5,97.1667 245.167,94.5 247.5,91.5C 248.167,90.1667 249.167,89.1667 250.5,88.5C 252.246,86.7484 254.246,85.4151 256.5,84.5 Z"/></g>
<g><path style="opacity:1" fill="#1b6ef4" d="M 303.5,93.5 C 303.5,94.1667 303.5,94.8333 303.5,95.5C 297.833,100.5 292.5,105.833 287.5,111.5C 285.167,113.5 282.833,115.5 280.5,117.5C 280.5,116.167 280.5,114.833 280.5,113.5C 279.325,113.719 278.325,113.386 277.5,112.5C 280.327,111.068 283.327,110.401 286.5,110.5C 286.167,107.5 287.5,106.167 290.5,106.5C 290.286,104.856 290.62,103.356 291.5,102C 290.78,99.8777 289.613,99.3777 288,100.5C 287.505,98.5273 287.338,96.5273 287.5,94.5C 288.873,94.3433 290.207,94.51 291.5,95C 292.641,95.7412 292.641,96.5745 291.5,97.5C 293.348,100.19 295.015,100.023 296.5,97C 295.328,96.5814 294.328,95.9147 293.5,95C 296.688,93.6842 300.022,93.1842 303.5,93.5 Z"/></g>
<g><path style="opacity:1" fill="#81abef" d="M 239.5,99.5 C 238.5,101.167 237.167,102.5 235.5,103.5C 235.833,101.167 237.167,99.8333 239.5,99.5 Z"/></g>
<g><path style="opacity:1" fill="#86b0f3" d="M 303.5,95.5 C 299.194,101.806 293.861,107.139 287.5,111.5C 292.5,105.833 297.833,100.5 303.5,95.5 Z"/></g>
<g><path style="opacity:1" fill="#7ba7ec" d="M 227.5,111.5 C 226.5,112.833 225.5,114.167 224.5,115.5C 224.167,115.5 223.833,115.5 223.5,115.5C 223.833,113.167 225.167,111.833 227.5,111.5 Z"/></g>
<g><path style="opacity:1" fill="#427be0" d="M 235.5,103.5 C 233.418,106.606 231.252,109.606 229,112.5C 227.871,114.141 226.371,115.141 224.5,115.5C 225.5,114.167 226.5,112.833 227.5,111.5C 227.369,110.761 227.536,110.094 228,109.5C 230.663,107.666 233.163,105.666 235.5,103.5 Z"/></g>
<g><path style="opacity:1" fill="#97bcf9" d="M 287.5,111.5 C 285.833,115.167 283.167,117.833 279.5,119.5C 279.833,118.833 280.167,118.167 280.5,117.5C 282.833,115.5 285.167,113.5 287.5,111.5 Z"/></g>
<g><path style="opacity:1" fill="#80acf2" d="M 223.5,115.5 C 222.5,117.167 221.167,118.5 219.5,119.5C 219.833,117.167 221.167,115.833 223.5,115.5 Z"/></g>
<g><path style="opacity:1" fill="#75aaf3" d="M 219.5,119.5 C 218.5,121.167 217.167,122.5 215.5,123.5C 215.833,121.167 217.167,119.833 219.5,119.5 Z"/></g>
<g><path style="opacity:1" fill="#6196e8" d="M 279.5,119.5 C 277.167,122.5 274.5,125.167 271.5,127.5C 271.733,125.938 272.4,124.605 273.5,123.5C 275.246,121.748 277.246,120.415 279.5,119.5 Z"/></g>
<g><path style="opacity:1" fill="#7daaf1" d="M 215.5,123.5 C 210.5,129.167 205.167,134.5 199.5,139.5C 203.833,133.167 209.167,127.833 215.5,123.5 Z"/></g>
<g><path style="opacity:1" fill="#2570ec" d="M 273.5,123.5 C 272.4,124.605 271.733,125.938 271.5,127.5C 268.167,130.5 264.833,133.5 261.5,136.5C 261.64,134.876 260.973,133.71 259.5,133C 260.938,132.781 262.271,132.281 263.5,131.5C 265.043,128.61 267.376,126.943 270.5,126.5C 270.5,125.5 270.5,124.5 270.5,123.5C 271.5,123.5 272.5,123.5 273.5,123.5 Z"/></g>
<g><path style="opacity:1" fill="#93b8f7" d="M 271.5,127.5 C 268.521,132.479 264.521,136.479 259.5,139.5C 259.5,138.833 259.5,138.167 259.5,137.5C 260.167,137.167 260.833,136.833 261.5,136.5C 264.833,133.5 268.167,130.5 271.5,127.5 Z"/></g>
<g><path style="opacity:1" fill="#aaaaaa" d="M 142.5,138.5 C 125.325,138.17 108.325,138.503 91.5,139.5C 90.8333,139.833 90.1667,140.167 89.5,140.5C 89.4142,139.504 89.7476,138.671 90.5,138C 108.005,137.171 125.338,137.338 142.5,138.5 Z"/></g>
<g><path style="opacity:1" fill="#373737" d="M 91.5,139.5 C 108.325,138.503 125.325,138.17 142.5,138.5C 143.5,138.833 144.167,139.5 144.5,140.5C 126.88,139.527 109.214,139.194 91.5,139.5 Z"/></g>
<g><path style="opacity:1" fill="#040404" d="M 91.5,139.5 C 109.214,139.194 126.88,139.527 144.5,140.5C 150.167,145.833 155.833,151.167 161.5,156.5C 162.833,158.5 164.5,160.167 166.5,161.5C 166.649,162.552 166.483,163.552 166,164.5C 163.295,167.036 160.795,169.703 158.5,172.5C 154.833,175.5 151.5,178.833 148.5,182.5C 146.5,183.833 144.833,185.5 143.5,187.5C 141.659,188.402 140.326,189.736 139.5,191.5C 136.962,190.957 134.628,189.957 132.5,188.5C 130.833,186.167 128.833,184.167 126.5,182.5C 125.5,180.833 124.167,179.5 122.5,178.5C 121.5,176.833 120.167,175.5 118.5,174.5C 116.5,171.833 114.167,169.5 111.5,167.5C 110.167,165.5 108.5,163.833 106.5,162.5C 105.5,160.833 104.167,159.5 102.5,158.5C 101.5,156.833 100.167,155.5 98.5,154.5C 97.5,152.833 96.1667,151.5 94.5,150.5C 93.1667,148.5 91.5,146.833 89.5,145.5C 88.1667,143.833 88.1667,142.167 89.5,140.5C 90.1667,140.167 90.8333,139.833 91.5,139.5 Z"/></g>
<g><path style="opacity:1" fill="#71a1ef" d="M 259.5,139.5 C 258.598,141.341 257.264,142.674 255.5,143.5C 255.957,141.227 257.29,139.894 259.5,139.5 Z"/></g>
<g><path style="opacity:1" fill="#236fef" d="M 259.5,137.5 C 259.5,138.167 259.5,138.833 259.5,139.5C 257.29,139.894 255.957,141.227 255.5,143.5C 253.167,145.5 250.833,147.5 248.5,149.5C 248.586,148.504 248.252,147.671 247.5,147C 242.427,145.913 242.427,144.413 247.5,142.5C 249.482,143.97 251.148,143.636 252.5,141.5C 253.086,141.709 253.586,142.043 254,142.5C 253.791,138.541 255.625,136.874 259.5,137.5 Z"/></g>
<g><path style="opacity:1" fill="#7ba8ed" d="M 197.5,139.5 C 198.167,139.5 198.833,139.5 199.5,139.5C 195.167,144.5 190.5,149.167 185.5,153.5C 189.103,148.558 193.103,143.892 197.5,139.5 Z"/></g>
<g><path style="opacity:1" fill="#a0a0a0" d="M 89.5,145.5 C 91.5,146.833 93.1667,148.5 94.5,150.5C 91.8333,149.833 90.1667,148.167 89.5,145.5 Z"/></g>
<g><path style="opacity:1" fill="#97baf8" d="M 255.5,143.5 C 253.855,147.145 251.188,149.812 247.5,151.5C 247.328,150.508 247.662,149.842 248.5,149.5C 250.833,147.5 253.167,145.5 255.5,143.5 Z"/></g>
<g><path style="opacity:1" fill="#c0c0c0" d="M 94.5,150.5 C 96.1667,151.5 97.5,152.833 98.5,154.5C 95.858,154.512 94.5246,153.179 94.5,150.5 Z"/></g>
<g><path style="opacity:1" fill="#8db2f6" d="M 247.5,151.5 C 246.167,154.833 243.833,157.167 240.5,158.5C 241.838,156.304 243.505,154.304 245.5,152.5C 245.842,151.662 246.508,151.328 247.5,151.5 Z"/></g>
<g><path style="opacity:1" fill="#a1a1a1" d="M 98.5,154.5 C 100.167,155.5 101.5,156.833 102.5,158.5C 100.167,158.167 98.8333,156.833 98.5,154.5 Z"/></g>
<g><path style="opacity:1" fill="#2570ee" d="M 245.5,152.5 C 243.505,154.304 241.838,156.304 240.5,158.5C 239.833,158.5 239.5,158.833 239.5,159.5C 237.5,160.833 235.833,162.5 234.5,164.5C 234.167,164.5 233.833,164.5 233.5,164.5C 233.461,163.417 233.127,162.417 232.5,161.5C 232.938,160.494 233.604,160.494 234.5,161.5C 235.386,160.675 235.719,159.675 235.5,158.5C 236.5,158.5 237.5,158.5 238.5,158.5C 238.48,156.857 239.147,155.524 240.5,154.5C 239.294,152.484 239.294,150.484 240.5,148.5C 241.336,150.94 243.003,152.273 245.5,152.5 Z"/></g>
<g><path style="opacity:1" fill="#a3a3a3" d="M 102.5,158.5 C 104.167,159.5 105.5,160.833 106.5,162.5C 104.167,162.167 102.833,160.833 102.5,158.5 Z"/></g>
<g><path style="opacity:1" fill="#9ec2fa" d="M 239.5,159.5 C 238.581,162.089 236.914,164.089 234.5,165.5C 234.5,165.167 234.5,164.833 234.5,164.5C 235.833,162.5 237.5,160.833 239.5,159.5 Z"/></g>
<g><path style="opacity:1" fill="#a2a2a2" d="M 106.5,162.5 C 108.5,163.833 110.167,165.5 111.5,167.5C 108.833,166.833 107.167,165.167 106.5,162.5 Z"/></g>
<g><path style="opacity:1" fill="#ecf2f8" d="M 197.5,139.5 C 193.103,143.892 189.103,148.558 185.5,153.5C 184.167,153.5 183.5,154.167 183.5,155.5C 173.921,163.575 164.754,172.242 156,181.5C 155.536,182.094 155.369,182.761 155.5,183.5C 154.833,183.5 154.5,183.833 154.5,184.5C 152.5,184.5 151.5,185.5 151.5,187.5C 148.167,188.833 145.833,191.167 144.5,194.5C 141.232,199.642 142.232,203.976 147.5,207.5C 150.195,210.526 152.862,213.526 155.5,216.5C 160.833,222.167 166.167,227.833 171.5,233.5C 170.419,235.134 169.085,236.467 167.5,237.5C 167.5,237.167 167.5,236.833 167.5,236.5C 158.5,227.167 149.5,217.833 140.5,208.5C 140.306,206.088 138.973,205.088 136.5,205.5C 136.811,204.522 137.478,203.855 138.5,203.5C 139.607,197.669 141.607,192.336 144.5,187.5C 146.587,186.415 147.92,184.749 148.5,182.5C 152.833,180.167 156.167,176.833 158.5,172.5C 161.731,170.78 164.564,168.447 167,165.5C 167.765,163.934 167.598,162.601 166.5,161.5C 164.5,160.167 162.833,158.5 161.5,156.5C 164.636,159.401 168.303,161.235 172.5,162C 173.667,160.833 174.833,159.667 176,158.5C 176.617,157.551 176.451,156.718 175.5,156C 179.554,150.221 184.554,146.221 190.5,144C 192.037,142.89 192.703,141.39 192.5,139.5C 194.167,139.5 195.833,139.5 197.5,139.5 Z"/></g>
<g><path style="opacity:1" fill="#a4a4a4" d="M 111.5,167.5 C 114.167,169.5 116.5,171.833 118.5,174.5C 115.167,173.167 112.833,170.833 111.5,167.5 Z"/></g>
<g><path style="opacity:1" fill="#a6a1a4" d="M 166.5,161.5 C 167.598,162.601 167.765,163.934 167,165.5C 164.564,168.447 161.731,170.78 158.5,172.5C 160.795,169.703 163.295,167.036 166,164.5C 166.483,163.552 166.649,162.552 166.5,161.5 Z"/></g>
<g><path style="opacity:1" fill="#79a7ef" d="M 183.5,155.5 C 178.5,160.833 173.5,166.167 168.5,171.5C 164.167,175.5 159.833,179.5 155.5,183.5C 155.369,182.761 155.536,182.094 156,181.5C 164.754,172.242 173.921,163.575 183.5,155.5 Z"/></g>
<g><path style="opacity:1" fill="#699aef" d="M 233.5,164.5 C 233.833,164.5 234.167,164.5 234.5,164.5C 234.5,164.833 234.5,165.167 234.5,165.5C 230.833,168.833 227.167,172.167 223.5,175.5C 226.101,171.229 229.434,167.563 233.5,164.5 Z"/></g>
<g><path style="opacity:1" fill="#aca7ab" d="M 158.5,172.5 C 156.167,176.833 152.833,180.167 148.5,182.5C 151.5,178.833 154.833,175.5 158.5,172.5 Z"/></g>
<g><path style="opacity:1" fill="#7aa6f3" d="M 223.5,175.5 C 221.349,178.597 218.683,181.263 215.5,183.5C 215.859,181.629 216.859,180.129 218.5,179C 220.279,177.86 221.946,176.693 223.5,175.5 Z"/></g>
<g><path style="opacity:1" fill="#c2c2c2" d="M 122.5,178.5 C 124.167,179.5 125.5,180.833 126.5,182.5C 123.858,182.512 122.525,181.179 122.5,178.5 Z"/></g>
<g><path style="opacity:1" fill="#a9a9a9" d="M 126.5,182.5 C 128.833,184.167 130.833,186.167 132.5,188.5C 129.5,187.5 127.5,185.5 126.5,182.5 Z"/></g>
<g><path style="opacity:1" fill="#216eed" d="M 168.5,171.5 C 168.369,172.376 168.702,173.043 169.5,173.5C 171.405,171.942 172.239,172.275 172,174.5C 170.333,175.833 168.667,175.833 167,174.5C 165.634,178.363 163.134,181.029 159.5,182.5C 159.762,183.978 159.429,185.311 158.5,186.5C 157.472,184.42 156.138,184.086 154.5,185.5C 154.5,185.167 154.5,184.833 154.5,184.5C 154.5,183.833 154.833,183.5 155.5,183.5C 159.833,179.5 164.167,175.5 168.5,171.5 Z"/></g>
<g><path style="opacity:1" fill="#a9a5a7" d="M 148.5,182.5 C 147.92,184.749 146.587,186.415 144.5,187.5C 144.167,187.5 143.833,187.5 143.5,187.5C 144.833,185.5 146.5,183.833 148.5,182.5 Z"/></g>
<g><path style="opacity:1" fill="#72a7ed" d="M 154.5,184.5 C 154.5,184.833 154.5,185.167 154.5,185.5C 153.5,186.167 152.5,186.833 151.5,187.5C 151.5,185.5 152.5,184.5 154.5,184.5 Z"/></g>
<g><path style="opacity:1" fill="#59595b" d="M 132.5,188.5 C 134.628,189.957 136.962,190.957 139.5,191.5C 139.027,192.906 138.027,193.573 136.5,193.5C 135.167,191.833 133.833,190.167 132.5,188.5 Z"/></g>
<g><path style="opacity:1" fill="#98bef8" d="M 215.5,183.5 C 213.833,187.167 211.167,189.833 207.5,191.5C 209.833,188.5 212.5,185.833 215.5,183.5 Z"/></g>
<g><path style="opacity:1" fill="#77a5f0" d="M 151.5,187.5 C 149.5,189.833 147.5,192.167 145.5,194.5C 145.167,194.5 144.833,194.5 144.5,194.5C 145.833,191.167 148.167,188.833 151.5,187.5 Z"/></g>
<g><path style="opacity:1" fill="#acadac" d="M 143.5,187.5 C 142.063,189.494 140.73,191.661 139.5,194C 138.251,194.74 137.251,194.573 136.5,193.5C 138.027,193.573 139.027,192.906 139.5,191.5C 140.326,189.736 141.659,188.402 143.5,187.5 Z"/></g>
<g><path style="opacity:1" fill="#a8ccfc" d="M 207.5,191.5 C 206.92,193.749 205.587,195.415 203.5,196.5C 203.733,194.938 204.4,193.605 205.5,192.5C 206.167,192.167 206.833,191.833 207.5,191.5 Z"/></g>
<g><path style="opacity:1" fill="#2371f5" d="M 205.5,192.5 C 204.4,193.605 203.733,194.938 203.5,196.5C 202.833,196.5 202.5,196.833 202.5,197.5C 200.904,200.901 201.571,203.901 204.5,206.5C 203.07,206.421 201.736,206.754 200.5,207.5C 199.41,206.609 199.41,205.609 200.5,204.5C 199.311,203.571 197.978,203.238 196.5,203.5C 196.5,200.833 196.5,198.167 196.5,195.5C 197.822,195.33 198.989,195.663 200,196.5C 200.333,194.833 200.667,193.167 201,191.5C 202.356,192.38 203.856,192.714 205.5,192.5 Z"/></g>
<g><path style="opacity:1" fill="#5c8ae7" d="M 144.5,194.5 C 144.833,194.5 145.167,194.5 145.5,194.5C 144.431,197.408 144.264,200.408 145,203.5C 146.481,204.471 147.315,205.804 147.5,207.5C 142.232,203.976 141.232,199.642 144.5,194.5 Z"/></g>
<g><path style="opacity:1" fill="#6b9cef" d="M 202.5,197.5 C 202.34,199.199 202.506,200.866 203,202.5C 207.37,206.702 211.537,211.036 215.5,215.5C 211.562,212.902 207.895,209.902 204.5,206.5C 201.571,203.901 200.904,200.901 202.5,197.5 Z"/></g>
<g><path style="opacity:1" fill="#7e7d7e" d="M 136.5,206.5 C 136.5,206.167 136.5,205.833 136.5,205.5C 138.973,205.088 140.306,206.088 140.5,208.5C 139.395,207.4 138.062,206.733 136.5,206.5 Z"/></g>
<g><path style="opacity:1" fill="#020303" d="M 136.5,206.5 C 138.062,206.733 139.395,207.4 140.5,208.5C 149.5,217.833 158.5,227.167 167.5,236.5C 164.5,238.833 161.833,241.5 159.5,244.5C 157.856,244.81 156.856,245.81 156.5,247.5C 154.5,248.833 152.833,250.5 151.5,252.5C 148.74,255.584 145.407,257.917 141.5,259.5C 124.83,259.667 108.163,259.5 91.5,259C 90.9781,258.439 90.6448,257.772 90.5,257C 91.6513,254.535 92.6513,252.035 93.5,249.5C 94.5,248.833 95.5,248.167 96.5,247.5C 101.923,243.082 106.589,238.082 110.5,232.5C 114.5,230.5 117.5,227.5 119.5,223.5C 124.5,220.5 128.5,216.5 131.5,211.5C 134.167,210.833 135.833,209.167 136.5,206.5 Z"/></g>
<g><path style="opacity:1" fill="#4f4f4f" d="M 136.5,206.5 C 135.833,209.167 134.167,210.833 131.5,211.5C 132.833,209.5 134.5,207.833 136.5,206.5 Z"/></g>
<g><path style="opacity:1" fill="#575757" d="M 131.5,211.5 C 128.5,216.5 124.5,220.5 119.5,223.5C 123.167,219.167 127.167,215.167 131.5,211.5 Z"/></g>
<g><path style="opacity:1" fill="#9ec0fb" d="M 215.5,216.5 C 215.5,216.167 215.5,215.833 215.5,215.5C 219.167,217.167 221.833,219.833 223.5,223.5C 220.833,221.167 218.167,218.833 215.5,216.5 Z"/></g>
<g><path style="opacity:1" fill="#7daaf1" d="M 155.5,216.5 C 166.781,226.113 177.447,236.446 187.5,247.5C 181.89,243.228 176.557,238.562 171.5,233.5C 166.167,227.833 160.833,222.167 155.5,216.5 Z"/></g>
<g><path style="opacity:1" fill="#2873ec" d="M 215.5,216.5 C 218.167,218.833 220.833,221.167 223.5,223.5C 225.833,226.5 228.5,229.167 231.5,231.5C 231.833,232.167 232.167,232.833 232.5,233.5C 230.514,232.239 228.681,232.572 227,234.5C 227.141,228.61 224.141,224.944 218,223.5C 217.616,220.94 216.783,218.606 215.5,216.5 Z"/></g>
<g><path style="opacity:1" fill="#9cc2f3" d="M 223.5,223.5 C 227.167,225.167 229.833,227.833 231.5,231.5C 228.5,229.167 225.833,226.5 223.5,223.5 Z"/></g>
<g><path style="opacity:1" fill="#515151" d="M 119.5,223.5 C 117.5,227.5 114.5,230.5 110.5,232.5C 113.167,229.167 116.167,226.167 119.5,223.5 Z"/></g>
<g><path style="opacity:1" fill="#2571ec" d="M 147.5,207.5 C 150.005,209.715 153.005,210.881 156.5,211C 158.994,216.505 162.661,221.172 167.5,225C 171.459,224.791 173.126,226.625 172.5,230.5C 177.249,232.08 180.582,235.246 182.5,240C 184.587,239.782 186.587,239.949 188.5,240.5C 186.724,241.315 186.057,242.482 186.5,244C 188.141,245.129 189.141,246.629 189.5,248.5C 188.833,248.167 188.167,247.833 187.5,247.5C 177.447,236.446 166.781,226.113 155.5,216.5C 152.862,213.526 150.195,210.526 147.5,207.5 Z"/></g>
<g><path style="opacity:1" fill="#5b8eec" d="M 233.5,233.5 C 235.5,234.833 237.167,236.5 238.5,238.5C 235.5,238.167 233.833,236.5 233.5,233.5 Z"/></g>
<g><path style="opacity:1" fill="#464646" d="M 110.5,232.5 C 106.589,238.082 101.923,243.082 96.5,247.5C 100.467,241.866 105.134,236.866 110.5,232.5 Z"/></g>
<g><path style="opacity:1" fill="#b3b2b4" d="M 167.5,236.5 C 167.5,236.833 167.5,237.167 167.5,237.5C 165.431,240.573 162.764,242.906 159.5,244.5C 161.833,241.5 164.5,238.833 167.5,236.5 Z"/></g>
<g><path style="opacity:1" fill="#6396ee" d="M 238.5,238.5 C 241.882,241.215 244.882,244.215 247.5,247.5C 243.5,245.5 240.5,242.5 238.5,238.5 Z"/></g>
<g><path style="opacity:1" fill="#999999" d="M 159.5,244.5 C 159.144,246.19 158.144,247.19 156.5,247.5C 156.856,245.81 157.856,244.81 159.5,244.5 Z"/></g>
<g><path style="opacity:1" fill="#1d6ef2" d="M 201.5,260.5 C 197.167,256.833 193.167,252.833 189.5,248.5C 193.122,247.305 196.455,247.305 199.5,248.5C 199.608,250.563 199.275,252.73 198.5,255C 199.741,256.731 200.741,258.564 201.5,260.5 Z"/></g>
<g><path style="opacity:1" fill="#87b3f3" d="M 187.5,247.5 C 188.167,247.833 188.833,248.167 189.5,248.5C 193.167,252.833 197.167,256.833 201.5,260.5C 202.5,262.167 203.833,263.5 205.5,264.5C 209.167,268.833 213.167,272.833 217.5,276.5C 219.5,279.167 221.833,281.5 224.5,283.5C 227.167,286.833 230.167,289.833 233.5,292.5C 235.167,294.833 237.167,296.833 239.5,298.5C 240.833,300.167 242.167,301.833 243.5,303.5C 224.585,286.087 206.085,268.087 188,249.5C 187.536,248.906 187.369,248.239 187.5,247.5 Z"/></g>
<g><path style="opacity:1" fill="#6092ef" d="M 247.5,247.5 C 250.5,249.833 253.167,252.5 255.5,255.5C 251.833,253.833 249.167,251.167 247.5,247.5 Z"/></g>
<g><path style="opacity:1" fill="#b7b7b7" d="M 156.5,247.5 C 155.833,250.167 154.167,251.833 151.5,252.5C 152.833,250.5 154.5,248.833 156.5,247.5 Z"/></g>
<g><path style="opacity:1" fill="#666666" d="M 90.5,252.5 C 89.8505,254.435 89.5172,256.435 89.5,258.5C 88.8614,257.903 88.528,257.07 88.5,256C 88.3866,254.301 89.0532,253.134 90.5,252.5 Z"/></g>
<g><path style="opacity:1" fill="#a5a5a5" d="M 151.5,252.5 C 149.641,257.027 146.308,259.694 141.5,260.5C 141.5,260.167 141.5,259.833 141.5,259.5C 145.407,257.917 148.74,255.584 151.5,252.5 Z"/></g>
<g><path style="opacity:1" fill="#6295eb" d="M 255.5,255.5 C 257.5,256.833 259.167,258.5 260.5,260.5C 257.833,259.833 256.167,258.167 255.5,255.5 Z"/></g>
<g><path style="opacity:1" fill="#181818" d="M 93.5,249.5 C 92.6513,252.035 91.6513,254.535 90.5,257C 90.6448,257.772 90.9781,258.439 91.5,259C 108.163,259.5 124.83,259.667 141.5,259.5C 141.5,259.833 141.5,260.167 141.5,260.5C 124.497,260.667 107.497,260.5 90.5,260C 89.944,259.617 89.6107,259.117 89.5,258.5C 89.5172,256.435 89.8505,254.435 90.5,252.5C 91.1667,251.167 92.1667,250.167 93.5,249.5 Z"/></g>
<g><path style="opacity:1" fill="#276fe6" d="M 205.5,264.5 C 206.873,264.343 208.207,264.51 209.5,265C 212.803,268.455 215.469,272.289 217.5,276.5C 213.167,272.833 209.167,268.833 205.5,264.5 Z"/></g>
<g><path style="opacity:1" fill="#6c9bee" d="M 260.5,260.5 C 264.953,263.524 268.619,267.191 271.5,271.5C 266.647,269.039 262.981,265.373 260.5,260.5 Z"/></g>
<g><path style="opacity:1" fill="#457ee4" d="M 271.5,271.5 C 274.5,273.833 277.167,276.5 279.5,279.5C 276.975,278.319 274.475,276.986 272,275.5C 271.51,274.207 271.343,272.873 271.5,271.5 Z"/></g>
<g><path style="opacity:1" fill="#2e71e2" d="M 224.5,283.5 C 225.833,283.5 227.167,283.5 228.5,283.5C 228.351,284.552 228.517,285.552 229,286.5C 231.127,288.114 232.627,290.114 233.5,292.5C 230.167,289.833 227.167,286.833 224.5,283.5 Z"/></g>
<g><path style="opacity:1" fill="#437ee9" d="M 279.5,279.5 C 282.5,281.833 285.167,284.5 287.5,287.5C 287.5,287.833 287.5,288.167 287.5,288.5C 285.958,287.699 284.292,287.366 282.5,287.5C 282.428,284.447 281.428,281.781 279.5,279.5 Z"/></g>
<g><path style="opacity:1" fill="#92b9f5" d="M 287.5,288.5 C 287.5,288.167 287.5,287.833 287.5,287.5C 291.167,289.167 293.833,291.833 295.5,295.5C 292.833,293.167 290.167,290.833 287.5,288.5 Z"/></g>
<g><path style="opacity:1" fill="#1d6ff3" d="M 249.5,308.5 C 247.5,306.833 245.5,305.167 243.5,303.5C 242.167,301.833 240.833,300.167 239.5,298.5C 243.336,297.116 247.336,296.116 251.5,295.5C 251.5,297.167 251.5,298.833 251.5,300.5C 250.178,300.67 249.011,300.337 248,299.5C 247.056,300.263 246.556,301.263 246.5,302.5C 247.963,304.289 248.963,306.289 249.5,308.5 Z"/></g>
<g><path style="opacity:1" fill="#568ae8" d="M 297.5,297.5 C 299.939,299.027 301.939,301.027 303.5,303.5C 300.167,302.833 298.167,300.833 297.5,297.5 Z"/></g>
<g><path style="opacity:1" fill="#8bb8f7" d="M 243.5,303.5 C 245.5,305.167 247.5,306.833 249.5,308.5C 250.167,309.5 250.833,310.5 251.5,311.5C 247.833,309.833 245.167,307.167 243.5,303.5 Z"/></g>
<g><path style="opacity:1" fill="#1f6be9" d="M 305.5,305.5 C 308.137,307.482 309.47,310.148 309.5,313.5C 291.21,314.64 272.877,314.807 254.5,314C 253.627,312.955 252.627,312.122 251.5,311.5C 250.833,310.5 250.167,309.5 249.5,308.5C 250.583,308.539 251.583,308.873 252.5,309.5C 253.167,308.833 253.833,308.167 254.5,307.5C 255.645,308.776 255.645,310.109 254.5,311.5C 272.167,312.833 289.833,312.833 307.5,311.5C 306.624,310.749 305.624,310.249 304.5,310C 305.38,308.644 305.714,307.144 305.5,305.5 Z"/></g>
<g><path style="opacity:1" fill="#639af6" d="M 251.5,311.5 C 252.627,312.122 253.627,312.955 254.5,314C 272.877,314.807 291.21,314.64 309.5,313.5C 309.389,314.117 309.056,314.617 308.5,315C 290.167,315.667 271.833,315.667 253.5,315C 252.177,314.184 251.511,313.017 251.5,311.5 Z"/></g>
</svg>
