<?xml version="1.0" encoding="UTF-8"?>
<!DOCTYPE svg PUBLIC "-//W3C//DTD SVG 1.1//EN" "http://www.w3.org/Graphics/SVG/1.1/DTD/svg11.dtd">
<svg xmlns="http://www.w3.org/2000/svg" version="1.1" width="400px" height="400px" style="shape-rendering:geometricPrecision; text-rendering:geometricPrecision; image-rendering:optimizeQuality; fill-rule:evenodd; clip-rule:evenodd" xmlns:xlink="http://www.w3.org/1999/xlink">
<g><path style="opacity:1" fill="#fefefe" d="M -0.5,-0.5 C 132.833,-0.5 266.167,-0.5 399.5,-0.5C 399.5,132.833 399.5,266.167 399.5,399.5C 266.167,399.5 132.833,399.5 -0.5,399.5C -0.5,266.167 -0.5,132.833 -0.5,-0.5 Z"/></g>
<g><path style="opacity:1" fill="#010101" d="M 343.5,219.5 C 343.5,222.5 343.5,225.5 343.5,228.5C 323.993,228.17 304.659,228.503 285.5,229.5C 282.354,271.638 260.688,299.138 220.5,312C 180.282,319.488 148.782,306.321 126,272.5C 119.233,260.365 115.399,247.365 114.5,233.5C 114.5,231.833 114.5,230.167 114.5,228.5C 95.1667,228.5 75.8333,228.5 56.5,228.5C 56.5,223.833 56.5,219.167 56.5,214.5C 64.2097,158.222 93.8763,118.389 145.5,95C 209.118,73.2355 263.951,86.7355 310,135.5C 330.299,159.778 341.466,187.778 343.5,219.5 Z"/></g>
<g><path style="opacity:1" fill="#fefefe" d="M 184.5,144.5 C 228.435,140.539 259.935,158.206 279,197.5C 283.088,207.44 284.922,217.774 284.5,228.5C 228.167,228.5 171.833,228.5 115.5,228.5C 116.43,196.467 130.43,171.967 157.5,155C 166.189,150.387 175.189,146.887 184.5,144.5 Z"/></g>
<g><path style="opacity:1" fill="#a7a7a7" d="M 56.5,214.5 C 56.5,219.167 56.5,223.833 56.5,228.5C 75.8333,228.5 95.1667,228.5 114.5,228.5C 114.5,230.167 114.5,231.833 114.5,233.5C 113.566,232.432 113.232,231.099 113.5,229.5C 94.1667,229.5 74.8333,229.5 55.5,229.5C 55.1795,224.305 55.5128,219.305 56.5,214.5 Z"/></g>
<g><path style="opacity:1" fill="#a7a7a7" d="M 343.5,219.5 C 344.479,222.625 344.813,225.958 344.5,229.5C 324.833,229.5 305.167,229.5 285.5,229.5C 304.659,228.503 323.993,228.17 343.5,228.5C 343.5,225.5 343.5,222.5 343.5,219.5 Z"/></g>
</svg>
