<?xml version="1.0" encoding="UTF-8"?>
<!DOCTYPE svg PUBLIC "-//W3C//DTD SVG 1.1//EN" "http://www.w3.org/Graphics/SVG/1.1/DTD/svg11.dtd">
<svg xmlns="http://www.w3.org/2000/svg" version="1.1" width="400px" height="400px" style="shape-rendering:geometricPrecision; text-rendering:geometricPrecision; image-rendering:optimizeQuality; fill-rule:evenodd; clip-rule:evenodd" xmlns:xlink="http://www.w3.org/1999/xlink">
<g><path style="opacity:0.997" fill="#011c34" d="M 179.5,-0.5 C 181.167,-0.5 182.833,-0.5 184.5,-0.5C 183.394,3.52492 183.727,7.52492 185.5,11.5C 184.979,13.9241 184.312,16.2574 183.5,18.5C 182.325,18.281 181.325,18.6143 180.5,19.5C 183.374,22.949 186.707,25.949 190.5,28.5C 191.386,29.325 191.719,30.325 191.5,31.5C 194.567,32.1952 197.567,33.1952 200.5,34.5C 203.407,32.9335 206.074,31.1002 208.5,29C 213.462,28.2323 218.295,27.0656 223,25.5C 224.356,26.3802 225.856,26.7135 227.5,26.5C 227.657,27.8734 227.49,29.2068 227,30.5C 223.924,32.9564 220.424,34.7898 216.5,36C 215.663,37.0113 215.33,38.1779 215.5,39.5C 214.127,39.3433 212.793,39.51 211.5,40C 207.449,44.1009 205.449,49.1009 205.5,55C 205.651,58.1542 206.317,61.1542 207.5,64C 206.978,64.9503 206.311,65.7836 205.5,66.5C 206.5,67.8333 207.5,69.1667 208.5,70.5C 208.291,71.086 207.957,71.586 207.5,72C 209.779,72.4728 211.779,73.4728 213.5,75C 209.616,78.0952 210.283,79.9285 215.5,80.5C 216.241,82.3542 217.241,84.0209 218.5,85.5C 212.132,82.5657 205.966,79.2323 200,75.5C 185.741,83.3784 171.574,91.3784 157.5,99.5C 156.833,99.5 156.5,99.8333 156.5,100.5C 155.509,107.313 155.175,114.313 155.5,121.5C 153.007,121.671 151.174,120.671 150,118.5C 149.329,119.252 148.496,119.586 147.5,119.5C 149.739,116.416 150.072,113.083 148.5,109.5C 149.014,106.789 150.014,104.289 151.5,102C 150.016,99.6179 148.182,97.4512 146,95.5C 145.667,99.1667 145.333,102.833 145,106.5C 144.667,106.833 144.333,107.167 144,107.5C 141.828,106.491 140.662,104.824 140.5,102.5C 141.5,102.5 142.5,102.5 143.5,102.5C 143.5,100.833 143.5,99.1667 143.5,97.5C 141.833,97.5 140.167,97.5 138.5,97.5C 136.014,89.0498 135.014,80.3832 135.5,71.5C 136.5,71.5 137.5,71.5 138.5,71.5C 138.5,68.8333 138.5,66.1667 138.5,63.5C 140.167,63.5 141.833,63.5 143.5,63.5C 143.329,50.1024 143.329,36.769 143.5,23.5C 145.231,22.6569 147.065,22.6569 149,23.5C 157.637,27.6522 166.304,31.6522 175,35.5C 177.391,34.5164 179.224,32.8498 180.5,30.5C 179.332,28.7826 177.665,28.1159 175.5,28.5C 173.493,20.1648 168.16,15.1648 159.5,13.5C 159.719,12.325 159.386,11.325 158.5,10.5C 155.75,8.82421 153.083,7.15754 150.5,5.5C 160.025,2.75905 169.692,0.75905 179.5,-0.5 Z"/></g>
<g><path style="opacity:0.996" fill="#00203a" d="M 150.5,5.5 C 153.083,7.15754 155.75,8.82421 158.5,10.5C 159.386,11.325 159.719,12.325 159.5,13.5C 168.16,15.1648 173.493,20.1648 175.5,28.5C 177.665,28.1159 179.332,28.7826 180.5,30.5C 179.224,32.8498 177.391,34.5164 175,35.5C 166.304,31.6522 157.637,27.6522 149,23.5C 147.065,22.6569 145.231,22.6569 143.5,23.5C 143.329,36.769 143.329,50.1024 143.5,63.5C 141.833,63.5 140.167,63.5 138.5,63.5C 138.5,66.1667 138.5,68.8333 138.5,71.5C 137.5,71.5 136.5,71.5 135.5,71.5C 135.014,80.3832 136.014,89.0498 138.5,97.5C 140.167,97.5 141.833,97.5 143.5,97.5C 143.5,99.1667 143.5,100.833 143.5,102.5C 142.5,102.5 141.5,102.5 140.5,102.5C 140.662,104.824 141.828,106.491 144,107.5C 144.333,107.167 144.667,106.833 145,106.5C 145.333,102.833 145.667,99.1667 146,95.5C 148.182,97.4512 150.016,99.6179 151.5,102C 150.014,104.289 149.014,106.789 148.5,109.5C 150.072,113.083 149.739,116.416 147.5,119.5C 145.847,119.34 144.514,118.674 143.5,117.5C 143.719,116.325 143.386,115.325 142.5,114.5C 140.338,112.98 138.005,111.98 135.5,111.5C 135.881,109.058 135.214,108.391 133.5,109.5C 132.304,109.154 132.304,108.654 133.5,108C 131.899,107.727 130.399,107.227 129,106.5C 128.667,106.833 128.333,107.167 128,107.5C 125.974,105.212 126.308,103.212 129,101.5C 130.892,102.13 132.559,103.13 134,104.5C 135.299,104.034 136.799,104.034 138.5,104.5C 138.703,102.61 138.037,101.11 136.5,100C 133.898,99.0229 131.398,97.8563 129,96.5C 128.077,97.7588 127.243,99.0921 126.5,100.5C 125.817,100.137 125.15,99.8039 124.5,99.5C 125.643,95.5328 128.31,93.6994 132.5,94C 130.024,92.6912 128.024,90.8579 126.5,88.5C 125.311,87.5713 123.978,87.238 122.5,87.5C 123.55,79.1033 123.55,70.77 122.5,62.5C 124.204,46.2207 124.871,29.8874 124.5,13.5C 132.868,9.90736 141.534,7.2407 150.5,5.5 Z"/></g>
<g><path style="opacity:0.998" fill="#01152a" d="M 267.5,11.5 C 274.399,13.5776 281.065,16.2442 287.5,19.5C 287.482,27.6964 287.649,35.6964 288,43.5C 292.723,43.8221 297.556,43.8221 302.5,43.5C 302.64,45.1238 301.973,46.2904 300.5,47C 296.446,46.0044 292.446,46.3377 288.5,48C 287.565,50.3806 287.232,52.8806 287.5,55.5C 290.774,55.628 290.941,56.9613 288,59.5C 287.418,65.0153 287.584,70.5153 288.5,76C 287.601,79.792 286.934,83.6253 286.5,87.5C 286.574,90.2875 287.24,92.7875 288.5,95C 287.584,95.3742 286.75,95.8742 286,96.5C 282.594,95.2933 279.094,94.7933 275.5,95C 272.785,95.8747 271.452,97.7081 271.5,100.5C 274.991,100.091 278.325,99.0911 281.5,97.5C 282.167,97.8333 282.833,98.1667 283.5,98.5C 281.156,99.3372 279.156,100.671 277.5,102.5C 279.5,103.333 281.5,104.167 283.5,105C 282.944,105.383 282.611,105.883 282.5,106.5C 281.193,105.847 279.86,105.18 278.5,104.5C 269.806,109.512 261.139,114.512 252.5,119.5C 252.083,118.876 251.416,118.543 250.5,118.5C 248.513,120.327 246.179,121.327 243.5,121.5C 243.188,114.578 243.521,107.744 244.5,101C 243.956,100.283 243.289,99.7828 242.5,99.5C 234.164,95.3347 226.164,90.668 218.5,85.5C 217.241,84.0209 216.241,82.3542 215.5,80.5C 218.004,79.3978 220.504,79.7312 223,81.5C 223.249,80.376 223.749,79.376 224.5,78.5C 225.243,79.9079 226.077,81.2412 227,82.5C 229.501,82.05 231.667,81.05 233.5,79.5C 231.955,78.5481 230.288,78.2148 228.5,78.5C 228.5,65.5 228.5,52.5 228.5,39.5C 227.127,39.6567 225.793,39.49 224.5,39C 226.373,36.7911 228.54,34.9578 231,33.5C 231.239,35.7612 231.406,37.7612 231.5,39.5C 232.48,36.9135 232.813,34.2469 232.5,31.5C 235.792,31.8804 238.125,30.5471 239.5,27.5C 244.06,25.3865 248.726,23.5531 253.5,22C 255.037,20.8904 255.703,19.3904 255.5,17.5C 260.075,16.5458 264.075,14.5458 267.5,11.5 Z"/></g>
<g><path style="opacity:0.997" fill="#002641" d="M 124.5,13.5 C 124.871,29.8874 124.204,46.2207 122.5,62.5C 120.958,63.3007 119.292,63.634 117.5,63.5C 117.796,74.3313 116.796,84.9979 114.5,95.5C 111.402,95.5875 111.068,95.0875 113.5,94C 112.24,91.7875 111.574,89.2875 111.5,86.5C 110.926,78.1712 110.426,69.8379 110,61.5C 108.352,60.283 106.519,59.4497 104.5,59C 103.663,57.9887 103.33,56.8221 103.5,55.5C 101.5,55.5 99.5,55.5 97.5,55.5C 97.5,58.1667 97.5,60.8333 97.5,63.5C 96.1667,63.5 94.8333,63.5 93.5,63.5C 93.5,66.1667 93.5,68.8333 93.5,71.5C 92.5,71.5 91.5,71.5 90.5,71.5C 90.5,76.8333 90.5,82.1667 90.5,87.5C 89.5,87.5 88.5,87.5 87.5,87.5C 87.5,90.1667 87.5,92.8333 87.5,95.5C 85.8333,95.5 84.1667,95.5 82.5,95.5C 82.3338,101.509 82.5005,107.509 83,113.5C 85.3687,114.268 87.5353,115.435 89.5,117C 91.8333,117.667 94.1667,117.667 96.5,117C 100.464,114.611 104.13,111.777 107.5,108.5C 109.804,108.691 112.138,108.357 114.5,107.5C 102.367,115.07 90.0342,122.404 77.5,129.5C 76.5039,144.324 76.1706,159.324 76.5,174.5C 75.8826,174.389 75.3826,174.056 75,173.5C 74.8333,174.667 74.6667,175.833 74.5,177C 75.2493,180.248 76.2493,183.415 77.5,186.5C 77.1667,187.833 76.8333,189.167 76.5,190.5C 73.4391,186.771 70.7724,182.771 68.5,178.5C 67.0572,181.435 65.5572,184.435 64,187.5C 61.2809,186.556 58.4475,186.223 55.5,186.5C 55.5,188.167 55.5,189.833 55.5,191.5C 52.7531,191.187 50.0865,191.52 47.5,192.5C 49.8818,195.278 49.8818,197.945 47.5,200.5C 43.7489,203.709 39.4156,205.876 34.5,207C 28.6878,211.411 22.3544,215.078 15.5,218C 11.1387,221.734 6.47205,224.901 1.5,227.5C 0.833333,224.833 0.166667,222.167 -0.5,219.5C -0.5,209.167 -0.5,198.833 -0.5,188.5C 2.51953,189.718 5.6862,190.718 9,191.5C 11.0989,190.713 13.2655,190.38 15.5,190.5C 15.4661,187.801 16.1328,185.301 17.5,183C 15.9632,181.89 15.2965,180.39 15.5,178.5C 13.6536,178.778 12.3202,178.111 11.5,176.5C 12.6888,175.571 14.0222,175.238 15.5,175.5C 15.5,170.167 15.5,164.833 15.5,159.5C 18.4587,159.65 20.9587,158.65 23,156.5C 24.0294,152.571 24.8627,148.571 25.5,144.5C 27.7466,143.626 30.0799,143.292 32.5,143.5C 32.5,138.5 32.5,133.5 32.5,128.5C 39.4283,128.193 46.2617,127.193 53,125.5C 56.0845,125.363 58.9179,126.03 61.5,127.5C 62.4419,127.392 63.2753,127.059 64,126.5C 64.2463,123.11 64.7463,119.777 65.5,116.5C 64.376,115.086 63.376,113.586 62.5,112C 59.8673,111.577 57.7006,110.41 56,108.5C 55.501,104.179 55.3343,99.8461 55.5,95.5C 58.1194,95.7683 60.6194,95.435 63,94.5C 63.4993,89.5111 63.6659,84.5111 63.5,79.5C 64.8221,79.67 65.9887,79.3366 67,78.5C 67.4993,73.5111 67.6659,68.5111 67.5,63.5C 70.4475,63.7771 73.2809,63.4438 76,62.5C 76.4993,57.5111 76.6659,52.5111 76.5,47.5C 74.2188,47.9227 72.5521,47.256 71.5,45.5C 87.3355,32.07 105.002,21.4033 124.5,13.5 Z"/></g>
<g><path style="opacity:0.995" fill="#011528" d="M 287.5,19.5 C 300.046,25.5968 311.712,32.9302 322.5,41.5C 316.942,44.52 311.442,47.8533 306,51.5C 304.85,52.4239 303.85,52.4239 303,51.5C 301.682,54.9414 299.182,56.2747 295.5,55.5C 295.65,58.4587 294.65,60.9587 292.5,63C 294.259,68.2085 295.093,73.7085 295,79.5C 295.49,78.2068 295.657,76.8734 295.5,75.5C 296.833,75.5 298.167,75.5 299.5,75.5C 299.335,71.8183 299.501,68.1516 300,64.5C 300.741,63.3595 301.575,63.3595 302.5,64.5C 303.496,70.7985 303.83,77.1318 303.5,83.5C 306.167,83.5 308.833,83.5 311.5,83.5C 311.5,84.8333 311.5,86.1667 311.5,87.5C 310.167,87.5 308.833,87.5 307.5,87.5C 307.5,88.8333 307.5,90.1667 307.5,91.5C 311.5,91.5 315.5,91.5 319.5,91.5C 319.5,94.1667 319.5,96.8333 319.5,99.5C 322.167,99.5 324.833,99.5 327.5,99.5C 327.5,98.1667 327.5,96.8333 327.5,95.5C 330.167,95.5 332.833,95.5 335.5,95.5C 335.5,96.8333 335.5,98.1667 335.5,99.5C 340.833,99.5 346.167,99.5 351.5,99.5C 351.5,95.5 351.5,91.5 351.5,87.5C 356.167,87.5 360.833,87.5 365.5,87.5C 377.373,104.585 386.04,123.252 391.5,143.5C 389.393,144.468 387.059,144.802 384.5,144.5C 384.5,146.5 384.5,148.5 384.5,150.5C 378.907,150.193 373.407,150.527 368,151.5C 367.794,147.869 366.627,147.535 364.5,150.5C 366.26,153.212 366.927,156.212 366.5,159.5C 364.5,159.5 362.5,159.5 360.5,159.5C 360.167,148.833 359.833,148.833 359.5,159.5C 355.143,159.586 350.81,159.92 346.5,160.5C 346.5,161.833 346.5,163.167 346.5,164.5C 345.5,164.5 344.5,164.5 343.5,164.5C 343.5,165.5 343.5,166.5 343.5,167.5C 341.167,167.5 338.833,167.5 336.5,167.5C 336.66,169.199 336.494,170.866 336,172.5C 335.333,173.833 334.667,173.833 334,172.5C 333.832,162.816 333.332,153.149 332.5,143.5C 331.708,151.173 330.875,158.839 330,166.5C 328.921,158.847 327.921,159.181 327,167.5C 326.759,164.711 326.092,162.044 325,159.5C 324.823,163.356 324.323,167.023 323.5,170.5C 322.73,156.18 322.396,141.847 322.5,127.5C 321.5,127.5 320.5,127.5 319.5,127.5C 318.496,126.317 317.662,124.984 317,123.5C 316.667,123.833 316.333,124.167 316,124.5C 313.325,122.842 310.825,121.009 308.5,119C 306.866,118.506 305.199,118.34 303.5,118.5C 296.365,114.765 289.365,110.765 282.5,106.5C 282.611,105.883 282.944,105.383 283.5,105C 281.5,104.167 279.5,103.333 277.5,102.5C 279.156,100.671 281.156,99.3372 283.5,98.5C 282.833,98.1667 282.167,97.8333 281.5,97.5C 278.325,99.0911 274.991,100.091 271.5,100.5C 271.452,97.7081 272.785,95.8747 275.5,95C 279.094,94.7933 282.594,95.2933 286,96.5C 286.75,95.8742 287.584,95.3742 288.5,95C 287.24,92.7875 286.574,90.2875 286.5,87.5C 286.934,83.6253 287.601,79.792 288.5,76C 287.584,70.5153 287.418,65.0153 288,59.5C 290.941,56.9613 290.774,55.628 287.5,55.5C 287.232,52.8806 287.565,50.3806 288.5,48C 292.446,46.3377 296.446,46.0044 300.5,47C 301.973,46.2904 302.64,45.1238 302.5,43.5C 297.556,43.8221 292.723,43.8221 288,43.5C 287.649,35.6964 287.482,27.6964 287.5,19.5 Z"/></g>
<g><path style="opacity:1" fill="#00182e" d="M 184.5,-0.5 C 196.167,-0.5 207.833,-0.5 219.5,-0.5C 235.971,1.59445 251.971,5.59445 267.5,11.5C 264.075,14.5458 260.075,16.5458 255.5,17.5C 255.703,19.3904 255.037,20.8904 253.5,22C 248.726,23.5531 244.06,25.3865 239.5,27.5C 238.125,30.5471 235.792,31.8804 232.5,31.5C 232.813,34.2469 232.48,36.9135 231.5,39.5C 231.406,37.7612 231.239,35.7612 231,33.5C 228.54,34.9578 226.373,36.7911 224.5,39C 225.793,39.49 227.127,39.6567 228.5,39.5C 228.5,52.5 228.5,65.5 228.5,78.5C 230.288,78.2148 231.955,78.5481 233.5,79.5C 231.667,81.05 229.501,82.05 227,82.5C 226.077,81.2412 225.243,79.9079 224.5,78.5C 223.749,79.376 223.249,80.376 223,81.5C 220.504,79.7312 218.004,79.3978 215.5,80.5C 210.283,79.9285 209.616,78.0952 213.5,75C 211.779,73.4728 209.779,72.4728 207.5,72C 207.957,71.586 208.291,71.086 208.5,70.5C 207.5,69.1667 206.5,67.8333 205.5,66.5C 206.311,65.7836 206.978,64.9503 207.5,64C 206.317,61.1542 205.651,58.1542 205.5,55C 205.449,49.1009 207.449,44.1009 211.5,40C 212.793,39.51 214.127,39.3433 215.5,39.5C 215.33,38.1779 215.663,37.0113 216.5,36C 220.424,34.7898 223.924,32.9564 227,30.5C 227.49,29.2068 227.657,27.8734 227.5,26.5C 225.856,26.7135 224.356,26.3802 223,25.5C 218.295,27.0656 213.462,28.2323 208.5,29C 206.074,31.1002 203.407,32.9335 200.5,34.5C 197.567,33.1952 194.567,32.1952 191.5,31.5C 191.719,30.325 191.386,29.325 190.5,28.5C 186.707,25.949 183.374,22.949 180.5,19.5C 181.325,18.6143 182.325,18.281 183.5,18.5C 184.312,16.2574 184.979,13.9241 185.5,11.5C 183.727,7.52492 183.394,3.52492 184.5,-0.5 Z"/></g>
<g><path style="opacity:0.998" fill="#001125" d="M 322.5,41.5 C 339.628,54.2919 353.961,69.6252 365.5,87.5C 360.833,87.5 356.167,87.5 351.5,87.5C 351.5,91.5 351.5,95.5 351.5,99.5C 346.167,99.5 340.833,99.5 335.5,99.5C 335.5,98.1667 335.5,96.8333 335.5,95.5C 332.833,95.5 330.167,95.5 327.5,95.5C 327.5,96.8333 327.5,98.1667 327.5,99.5C 324.833,99.5 322.167,99.5 319.5,99.5C 319.5,96.8333 319.5,94.1667 319.5,91.5C 315.5,91.5 311.5,91.5 307.5,91.5C 307.5,90.1667 307.5,88.8333 307.5,87.5C 308.833,87.5 310.167,87.5 311.5,87.5C 311.5,86.1667 311.5,84.8333 311.5,83.5C 308.833,83.5 306.167,83.5 303.5,83.5C 303.83,77.1318 303.496,70.7985 302.5,64.5C 301.575,63.3595 300.741,63.3595 300,64.5C 299.501,68.1516 299.335,71.8183 299.5,75.5C 298.167,75.5 296.833,75.5 295.5,75.5C 295.657,76.8734 295.49,78.2068 295,79.5C 295.093,73.7085 294.259,68.2085 292.5,63C 294.65,60.9587 295.65,58.4587 295.5,55.5C 299.182,56.2747 301.682,54.9414 303,51.5C 303.85,52.4239 304.85,52.4239 306,51.5C 311.442,47.8533 316.942,44.52 322.5,41.5 Z"/></g>
<g><path style="opacity:1" fill="#00243e" d="M 122.5,62.5 C 123.55,70.77 123.55,79.1033 122.5,87.5C 123.978,87.238 125.311,87.5713 126.5,88.5C 128.024,90.8579 130.024,92.6912 132.5,94C 128.31,93.6994 125.643,95.5328 124.5,99.5C 123.819,101.158 122.985,102.825 122,104.5C 119.059,102.94 116.892,103.607 115.5,106.5C 115.5,107.167 115.167,107.5 114.5,107.5C 112.138,108.357 109.804,108.691 107.5,108.5C 104.13,111.777 100.464,114.611 96.5,117C 94.1667,117.667 91.8333,117.667 89.5,117C 87.5353,115.435 85.3687,114.268 83,113.5C 82.5005,107.509 82.3338,101.509 82.5,95.5C 84.1667,95.5 85.8333,95.5 87.5,95.5C 87.5,92.8333 87.5,90.1667 87.5,87.5C 88.5,87.5 89.5,87.5 90.5,87.5C 90.5,82.1667 90.5,76.8333 90.5,71.5C 91.5,71.5 92.5,71.5 93.5,71.5C 93.5,68.8333 93.5,66.1667 93.5,63.5C 94.8333,63.5 96.1667,63.5 97.5,63.5C 97.5,60.8333 97.5,58.1667 97.5,55.5C 99.5,55.5 101.5,55.5 103.5,55.5C 103.33,56.8221 103.663,57.9887 104.5,59C 106.519,59.4497 108.352,60.283 110,61.5C 110.426,69.8379 110.926,78.1712 111.5,86.5C 111.574,89.2875 112.24,91.7875 113.5,94C 111.068,95.0875 111.402,95.5875 114.5,95.5C 116.796,84.9979 117.796,74.3313 117.5,63.5C 119.292,63.634 120.958,63.3007 122.5,62.5 Z"/></g>
<g><path style="opacity:0.984" fill="#002b47" d="M 71.5,45.5 C 72.5521,47.256 74.2188,47.9227 76.5,47.5C 76.6659,52.5111 76.4993,57.5111 76,62.5C 73.2809,63.4438 70.4475,63.7771 67.5,63.5C 67.6659,68.5111 67.4993,73.5111 67,78.5C 65.9887,79.3366 64.8221,79.67 63.5,79.5C 63.6659,84.5111 63.4993,89.5111 63,94.5C 60.6194,95.435 58.1194,95.7683 55.5,95.5C 55.3343,99.8461 55.501,104.179 56,108.5C 57.7006,110.41 59.8673,111.577 62.5,112C 63.376,113.586 64.376,115.086 65.5,116.5C 64.7463,119.777 64.2463,123.11 64,126.5C 63.2753,127.059 62.4419,127.392 61.5,127.5C 58.9179,126.03 56.0845,125.363 53,125.5C 46.2617,127.193 39.4283,128.193 32.5,128.5C 32.5,133.5 32.5,138.5 32.5,143.5C 30.0799,143.292 27.7466,143.626 25.5,144.5C 24.8627,148.571 24.0294,152.571 23,156.5C 20.9587,158.65 18.4587,159.65 15.5,159.5C 15.5,164.833 15.5,170.167 15.5,175.5C 14.0222,175.238 12.6888,175.571 11.5,176.5C 12.3202,178.111 13.6536,178.778 15.5,178.5C 15.2965,180.39 15.9632,181.89 17.5,183C 16.1328,185.301 15.4661,187.801 15.5,190.5C 13.2655,190.38 11.0989,190.713 9,191.5C 5.6862,190.718 2.51953,189.718 -0.5,188.5C -0.5,185.5 -0.5,182.5 -0.5,179.5C 6.21427,125.397 30.2143,80.7301 71.5,45.5 Z"/></g>
<g><path style="opacity:1" fill="#003152" d="M 242.5,99.5 C 243.289,99.7828 243.956,100.283 244.5,101C 243.521,107.744 243.188,114.578 243.5,121.5C 246.179,121.327 248.513,120.327 250.5,118.5C 251.416,118.543 252.083,118.876 252.5,119.5C 249.688,121.408 246.688,123.075 243.5,124.5C 242.502,116.193 242.169,107.86 242.5,99.5 Z"/></g>
<g><path style="opacity:1" fill="#022649" d="M 143.5,117.5 C 135.641,113.318 127.807,108.985 120,104.5C 118.67,105.582 117.17,106.249 115.5,106.5C 116.892,103.607 119.059,102.94 122,104.5C 122.985,102.825 123.819,101.158 124.5,99.5C 125.15,99.8039 125.817,100.137 126.5,100.5C 127.243,99.0921 128.077,97.7588 129,96.5C 131.398,97.8563 133.898,99.0229 136.5,100C 138.037,101.11 138.703,102.61 138.5,104.5C 136.799,104.034 135.299,104.034 134,104.5C 132.559,103.13 130.892,102.13 129,101.5C 126.308,103.212 125.974,105.212 128,107.5C 128.333,107.167 128.667,106.833 129,106.5C 130.399,107.227 131.899,107.727 133.5,108C 132.304,108.654 132.304,109.154 133.5,109.5C 135.214,108.391 135.881,109.058 135.5,111.5C 138.005,111.98 140.338,112.98 142.5,114.5C 143.386,115.325 143.719,116.325 143.5,117.5 Z"/></g>
<g><path style="opacity:1" fill="#003359" d="M 156.5,100.5 C 156.826,108.684 156.492,116.684 155.5,124.5C 152.46,123.32 149.794,121.653 147.5,119.5C 148.496,119.586 149.329,119.252 150,118.5C 151.174,120.671 153.007,121.671 155.5,121.5C 155.175,114.313 155.509,107.313 156.5,100.5 Z"/></g>
<g><path style="opacity:1" fill="#2891c0" d="M 157.5,99.5 C 157.831,108.192 157.498,116.859 156.5,125.5C 155.893,125.376 155.56,125.043 155.5,124.5C 156.492,116.684 156.826,108.684 156.5,100.5C 156.5,99.8333 156.833,99.5 157.5,99.5 Z"/></g>
<g><path style="opacity:1" fill="#002847" d="M 303.5,118.5 C 305.199,118.34 306.866,118.506 308.5,119C 310.825,121.009 313.325,122.842 316,124.5C 316.333,124.167 316.667,123.833 317,123.5C 317.662,124.984 318.496,126.317 319.5,127.5C 313.835,125.003 308.502,122.003 303.5,118.5 Z"/></g>
<g><path style="opacity:1" fill="#21bbf1" d="M 218.5,85.5 C 226.164,90.668 234.164,95.3347 242.5,99.5C 242.169,107.86 242.502,116.193 243.5,124.5C 246.688,123.075 249.688,121.408 252.5,119.5C 261.139,114.512 269.806,109.512 278.5,104.5C 279.86,105.18 281.193,105.847 282.5,106.5C 289.365,110.765 296.365,114.765 303.5,118.5C 308.502,122.003 313.835,125.003 319.5,127.5C 319.5,128.167 319.833,128.5 320.5,128.5C 319.544,129.659 318.544,130.826 317.5,132C 318.009,133.169 318.842,134.002 320,134.5C 320.948,148.902 320.615,163.235 319,177.5C 318.282,178.451 317.449,178.617 316.5,178C 317.125,166.275 317.792,154.275 318.5,142C 317.809,140.933 317.309,139.766 317,138.5C 316.329,137.748 315.496,137.414 314.5,137.5C 307.995,140.917 301.662,144.584 295.5,148.5C 292.996,149.584 290.663,150.917 288.5,152.5C 278.997,157.081 269.997,162.414 261.5,168.5C 256.23,170.803 251.23,173.636 246.5,177C 247.942,177.377 248.942,178.21 249.5,179.5C 249.33,180.822 249.663,181.989 250.5,183C 249.833,183.167 249.167,183.333 248.5,183.5C 245.29,182.453 242.456,180.786 240,178.5C 237.495,178.994 235.661,180.328 234.5,182.5C 231.167,184.833 227.833,187.167 224.5,189.5C 220.167,191.5 215.833,193.5 211.5,195.5C 209.565,196.15 207.565,196.483 205.5,196.5C 205.357,198.262 205.691,199.929 206.5,201.5C 211.556,203.729 216.222,206.562 220.5,210C 219.975,210.692 219.308,211.192 218.5,211.5C 214.915,210.126 211.748,208.126 209,205.5C 207.437,204.278 205.937,204.278 204.5,205.5C 203.167,205.5 202.5,206.167 202.5,207.5C 201.171,212.624 200.505,218.124 200.5,224C 200.622,231.518 200.955,239.018 201.5,246.5C 200.178,246.67 199.011,246.337 198,245.5C 197.177,231.592 197.344,217.758 198.5,204C 192.11,204.119 190.776,201.619 194.5,196.5C 195.739,196.058 196.739,195.391 197.5,194.5C 199.263,195.954 200.597,195.62 201.5,193.5C 202.492,193.672 203.158,193.338 203.5,192.5C 212.035,188.069 220.368,183.402 228.5,178.5C 230.973,178.396 231.639,177.396 230.5,175.5C 224.955,172.228 219.288,169.228 213.5,166.5C 208.833,168.833 204.167,171.167 199.5,173.5C 196.489,172.147 193.489,170.814 190.5,169.5C 188.811,167 186.478,166.167 183.5,167C 178.5,169.833 173.5,172.667 168.5,175.5C 167.289,176.274 167.289,177.107 168.5,178C 171.356,179.259 174.023,180.759 176.5,182.5C 177.626,184.453 179.292,185.953 181.5,187C 178.737,189.239 176.404,188.906 174.5,186C 173.251,185.26 172.251,185.427 171.5,186.5C 170.167,186.167 168.833,185.833 167.5,185.5C 165.324,183.485 162.824,181.818 160,180.5C 154.353,183.733 148.853,187.067 143.5,190.5C 141.566,191.11 139.899,192.11 138.5,193.5C 129.499,197.998 120.832,202.998 112.5,208.5C 106.661,211.585 100.994,214.918 95.5,218.5C 93.5336,219.441 91.5336,220.441 89.5,221.5C 88.1667,222.167 88.1667,222.833 89.5,223.5C 99.7969,229.301 109.964,235.301 120,241.5C 129.312,235.763 138.812,230.429 148.5,225.5C 150.84,224.914 153.007,223.914 155,222.5C 156,223.833 157,223.833 158,222.5C 158.684,223.784 158.517,224.951 157.5,226C 155.575,225.865 153.575,225.698 151.5,225.5C 150.789,229.382 148.456,231.882 144.5,233C 143.748,233.671 143.414,234.504 143.5,235.5C 137.358,239.408 131.024,243.074 124.5,246.5C 124.167,252.833 123.833,259.167 123.5,265.5C 123.504,272.204 124.17,278.537 125.5,284.5C 125.435,284.938 125.601,285.272 126,285.5C 129.755,283.372 133.588,281.372 137.5,279.5C 138.5,279.833 139.5,280.167 140.5,280.5C 135.157,283.169 130.157,286.335 125.5,290C 123.061,291.61 120.394,292.444 117.5,292.5C 104.194,284.845 90.8608,277.178 77.5,269.5C 77.5,268.167 77.5,266.833 77.5,265.5C 77.3334,250.496 77.5001,235.496 78,220.5C 81.6767,218.304 85.1767,215.97 88.5,213.5C 91.3311,212.921 93.6644,211.588 95.5,209.5C 101.641,206.931 107.307,203.598 112.5,199.5C 104.809,194.32 96.8085,189.654 88.5,185.5C 85.1515,183.066 81.6515,180.733 78,178.5C 77.5001,162.17 77.3334,145.837 77.5,129.5C 90.0342,122.404 102.367,115.07 114.5,107.5C 115.167,107.5 115.5,107.167 115.5,106.5C 117.17,106.249 118.67,105.582 120,104.5C 127.807,108.985 135.641,113.318 143.5,117.5C 144.514,118.674 145.847,119.34 147.5,119.5C 149.794,121.653 152.46,123.32 155.5,124.5C 155.56,125.043 155.893,125.376 156.5,125.5C 157.498,116.859 157.831,108.192 157.5,99.5C 171.574,91.3784 185.741,83.3784 200,75.5C 205.966,79.2323 212.132,82.5657 218.5,85.5 Z"/></g>
<g><path style="opacity:1" fill="#03223f" d="M 304.5,127.5 C 306.14,128.32 307.807,129.153 309.5,130C 310.711,130.893 310.711,131.726 309.5,132.5C 293.445,141.524 277.445,150.524 261.5,159.5C 262.619,157.213 264.285,155.379 266.5,154C 265.833,153.667 265.167,153.333 264.5,153C 266.976,151.691 268.976,149.858 270.5,147.5C 271.251,148.376 271.751,149.376 272,150.5C 274.052,149.207 276.219,148.207 278.5,147.5C 280.875,146.122 282.541,144.122 283.5,141.5C 292.027,139.821 300.027,136.654 307.5,132C 306.252,130.6 305.252,129.1 304.5,127.5 Z"/></g>
<g><path style="opacity:1" fill="#022748" d="M 127.5,162.5 C 123.86,161.85 120.527,160.35 117.5,158C 114.278,156.635 110.944,155.468 107.5,154.5C 105.293,156.514 102.627,157.514 99.5,157.5C 100.76,154.989 102.427,152.656 104.5,150.5C 100.813,149.581 97.6458,150.581 95,153.5C 94.6174,152.944 94.1174,152.611 93.5,152.5C 93.8174,149.428 93.4841,146.428 92.5,143.5C 91.3343,154.151 91.1676,164.818 92,175.5C 96.6895,180.258 102.19,183.591 108.5,185.5C 110.531,186.539 111.864,188.205 112.5,190.5C 103.393,185.778 94.3932,180.778 85.5,175.5C 84.1667,162.833 84.1667,150.167 85.5,137.5C 99.5633,145.859 113.563,154.193 127.5,162.5 Z"/></g>
<g><path style="opacity:1" fill="#02172e" d="M 246.5,136.5 C 248.597,136.997 250.43,137.33 252,137.5C 252.874,141.535 253.874,145.535 255,149.5C 255.667,150.167 256.333,150.833 257,151.5C 261.547,146.205 262.381,146.872 259.5,153.5C 259.709,154.086 260.043,154.586 260.5,155C 258.975,156.009 257.308,156.509 255.5,156.5C 255.5,157.5 255.5,158.5 255.5,159.5C 254.07,159.579 252.736,159.246 251.5,158.5C 249.247,161.578 246.581,162.078 243.5,160C 245.007,159.163 245.507,157.996 245,156.5C 241.131,157.845 237.297,158.345 233.5,158C 233.167,158.333 232.833,158.667 232.5,159C 236.072,159.392 238.739,161.059 240.5,164C 239.892,164.87 239.059,165.37 238,165.5C 235.97,163.373 233.47,162.04 230.5,161.5C 230.84,159.321 231.84,157.488 233.5,156C 237.528,155.572 240.695,153.738 243,150.5C 243.333,150.833 243.667,151.167 244,151.5C 244.499,147.848 244.665,144.182 244.5,140.5C 245.5,140.5 246.5,140.5 247.5,140.5C 247.567,139.041 247.234,137.708 246.5,136.5 Z"/></g>
<g><path style="opacity:1" fill="#021a30" d="M 218.5,155.5 C 214.993,157.754 211.327,159.754 207.5,161.5C 206.5,161.5 205.5,161.5 204.5,161.5C 204.333,150.162 204.5,138.828 205,127.5C 210.098,124.2 215.598,121.867 221.5,120.5C 222.122,126.527 224.456,127.527 228.5,123.5C 229.833,126.167 231.167,126.167 232.5,123.5C 238.485,138.131 234.152,147.964 219.5,153C 218.748,153.671 218.414,154.504 218.5,155.5 Z"/></g>
<g><path style="opacity:1" fill="#012f57" d="M 111.5,117.5 C 111.489,119.017 110.823,120.184 109.5,121C 107.385,121.557 105.385,122.391 103.5,123.5C 100.71,127.3 97.3763,130.3 93.5,132.5C 95.4233,133.308 97.4233,133.808 99.5,134C 101.037,135.11 101.703,136.61 101.5,138.5C 96.8136,136.655 92.4802,134.155 88.5,131C 96.1942,126.488 103.861,121.988 111.5,117.5 Z"/></g>
<g><path style="opacity:1" fill="#013258" d="M 148.5,128.5 C 150.969,129.569 153.302,130.902 155.5,132.5C 156.495,138.128 156.829,143.794 156.5,149.5C 155.335,148.504 154.668,147.171 154.5,145.5C 155.701,141.492 155.701,137.492 154.5,133.5C 151.203,133.209 149.203,131.542 148.5,128.5 Z"/></g>
<g><path style="opacity:1" fill="#021b2e" d="M 255.5,127.5 C 255.389,128.117 255.056,128.617 254.5,129C 258.095,131.569 262.095,133.236 266.5,134C 270.084,137.416 274.084,140.249 278.5,142.5C 279.434,144.095 279.434,145.761 278.5,147.5C 276.219,148.207 274.052,149.207 272,150.5C 271.751,149.376 271.251,148.376 270.5,147.5C 268.976,149.858 266.976,151.691 264.5,153C 265.167,153.333 265.833,153.667 266.5,154C 264.285,155.379 262.619,157.213 261.5,159.5C 256.817,159.892 252.817,161.725 249.5,165C 245.802,166.849 242.136,168.682 238.5,170.5C 235.446,168.271 232.28,166.271 229,164.5C 228.415,163.002 228.915,162.002 230.5,161.5C 233.47,162.04 235.97,163.373 238,165.5C 239.059,165.37 239.892,164.87 240.5,164C 238.739,161.059 236.072,159.392 232.5,159C 232.833,158.667 233.167,158.333 233.5,158C 237.297,158.345 241.131,157.845 245,156.5C 245.507,157.996 245.007,159.163 243.5,160C 246.581,162.078 249.247,161.578 251.5,158.5C 252.736,159.246 254.07,159.579 255.5,159.5C 255.5,158.5 255.5,157.5 255.5,156.5C 257.308,156.509 258.975,156.009 260.5,155C 260.043,154.586 259.709,154.086 259.5,153.5C 262.381,146.872 261.547,146.205 257,151.5C 256.333,150.833 255.667,150.167 255,149.5C 253.874,145.535 252.874,141.535 252,137.5C 250.43,137.33 248.597,136.997 246.5,136.5C 246.147,134.365 246.98,133.032 249,132.5C 251.077,133.017 253.077,133.684 255,134.5C 255.232,132.717 254.732,131.05 253.5,129.5C 253.747,128.287 254.414,127.62 255.5,127.5 Z"/></g>
<g><path style="opacity:1" fill="#01213a" d="M 140.5,124.5 C 143.45,125.308 146.117,126.642 148.5,128.5C 149.203,131.542 151.203,133.209 154.5,133.5C 155.701,137.492 155.701,141.492 154.5,145.5C 154.668,147.171 155.335,148.504 156.5,149.5C 156.586,150.496 156.252,151.329 155.5,152C 158.477,153.103 161.477,154.27 164.5,155.5C 166.321,156.728 167.321,158.394 167.5,160.5C 169.527,160.338 171.527,160.505 173.5,161C 171.181,162.147 169.848,163.981 169.5,166.5C 167.747,168.223 165.747,169.723 163.5,171C 161.956,172.187 160.289,172.52 158.5,172C 139.331,160.97 120.331,149.803 101.5,138.5C 101.703,136.61 101.037,135.11 99.5,134C 97.4233,133.808 95.4233,133.308 93.5,132.5C 97.3763,130.3 100.71,127.3 103.5,123.5C 105.385,122.391 107.385,121.557 109.5,121C 110.823,120.184 111.489,119.017 111.5,117.5C 111.833,117.5 112.167,117.5 112.5,117.5C 114.826,116.849 117.159,116.182 119.5,115.5C 122.47,116.622 125.47,117.622 128.5,118.5C 131.368,120.752 134.368,122.918 137.5,125C 138.749,125.74 139.749,125.573 140.5,124.5 Z"/></g>
<g><path style="opacity:1" fill="#02294d" d="M 287.5,117.5 C 293.367,120.596 299.033,123.929 304.5,127.5C 299.735,125.899 295.069,124.065 290.5,122C 289.252,120.6 288.252,119.1 287.5,117.5 Z"/></g>
<g><path style="opacity:1" fill="#012d51" d="M 192.5,161.5 C 193.458,161.047 194.292,160.381 195,159.5C 195.81,148.786 195.643,138.12 194.5,127.5C 188.199,123.68 181.866,119.846 175.5,116C 173.888,115.28 172.388,115.446 171,116.5C 169.13,114.781 166.963,113.781 164.5,113.5C 164.334,123.506 164.5,133.506 165,143.5C 167.116,145.792 169.282,147.792 171.5,149.5C 168.658,148.828 166.158,147.494 164,145.5C 163.333,132.833 163.333,120.167 164,107.5C 174.502,114.085 185.168,120.419 196,126.5C 196.667,139.167 196.667,151.833 196,164.5C 194.482,163.837 193.315,162.837 192.5,161.5 Z"/></g>
<g><path style="opacity:1" fill="#022849" d="M 218.5,155.5 C 218.414,154.504 218.748,153.671 219.5,153C 234.152,147.964 238.485,138.131 232.5,123.5C 231.167,126.167 229.833,126.167 228.5,123.5C 224.456,127.527 222.122,126.527 221.5,120.5C 215.598,121.867 210.098,124.2 205,127.5C 204.5,138.828 204.333,150.162 204.5,161.5C 205.5,161.5 206.5,161.5 207.5,161.5C 206.152,162.601 204.652,163.601 203,164.5C 202.333,151.833 202.333,139.167 203,126.5C 213.419,120.374 223.919,114.374 234.5,108.5C 235.666,120.82 235.833,133.153 235,145.5C 229.722,149.221 224.222,152.555 218.5,155.5 Z"/></g>
<g><path style="opacity:1" fill="#011c35" d="M 192.5,161.5 C 185.004,158.255 178.004,154.255 171.5,149.5C 169.282,147.792 167.116,145.792 165,143.5C 164.5,133.506 164.334,123.506 164.5,113.5C 166.963,113.781 169.13,114.781 171,116.5C 172.388,115.446 173.888,115.28 175.5,116C 181.866,119.846 188.199,123.68 194.5,127.5C 195.643,138.12 195.81,148.786 195,159.5C 194.292,160.381 193.458,161.047 192.5,161.5 Z"/></g>
<g><path style="opacity:1" fill="#01162a" d="M 286.5,117.5 C 286.833,117.5 287.167,117.5 287.5,117.5C 288.252,119.1 289.252,120.6 290.5,122C 295.069,124.065 299.735,125.899 304.5,127.5C 305.252,129.1 306.252,130.6 307.5,132C 300.027,136.654 292.027,139.821 283.5,141.5C 282.541,144.122 280.875,146.122 278.5,147.5C 279.434,145.761 279.434,144.095 278.5,142.5C 274.084,140.249 270.084,137.416 266.5,134C 262.095,133.236 258.095,131.569 254.5,129C 255.056,128.617 255.389,128.117 255.5,127.5C 257.137,127.705 258.804,127.205 260.5,126C 259.584,125.722 258.918,125.222 258.5,124.5C 259.873,124.657 261.207,124.49 262.5,124C 267.172,121.331 271.839,118.664 276.5,116C 279.968,115.566 283.302,116.066 286.5,117.5 Z"/></g>
<g><path style="opacity:1" fill="#012246" d="M 286.5,117.5 C 283.302,116.066 279.968,115.566 276.5,116C 271.839,118.664 267.172,121.331 262.5,124C 261.207,124.49 259.873,124.657 258.5,124.5C 264.772,120.023 271.438,116.023 278.5,112.5C 281.568,113.691 284.235,115.358 286.5,117.5 Z"/></g>
<g><path style="opacity:1" fill="#021b2d" d="M 231.5,113.5 C 232.693,113.97 233.36,114.97 233.5,116.5C 233.462,119.187 232.462,119.854 230.5,118.5C 229.757,119.908 228.923,121.241 228,122.5C 226.05,120.971 223.883,119.804 221.5,119C 223.994,115.451 226.827,114.284 230,115.5C 230.717,114.956 231.217,114.289 231.5,113.5 Z"/></g>
<g><path style="opacity:1" fill="#02284d" d="M 172.5,104.5 C 175.833,105.167 179.167,105.833 182.5,106.5C 182.33,107.822 182.663,108.989 183.5,110C 187.081,111.603 190.748,113.103 194.5,114.5C 195.115,116.384 196.448,117.384 198.5,117.5C 201.275,116.077 204.275,115.411 207.5,115.5C 205.235,117.642 202.568,119.309 199.5,120.5C 190.272,115.392 181.272,110.059 172.5,104.5 Z"/></g>
<g><path style="opacity:1" fill="#022c54" d="M 140.5,124.5 C 139.749,125.573 138.749,125.74 137.5,125C 134.368,122.918 131.368,120.752 128.5,118.5C 125.47,117.622 122.47,116.622 119.5,115.5C 117.159,116.182 114.826,116.849 112.5,117.5C 114.693,115.479 117.193,113.812 120,112.5C 127.291,115.889 134.124,119.889 140.5,124.5 Z"/></g>
<g><path style="opacity:1" fill="#002549" d="M 223.5,97.5 C 226.598,98.2159 229.264,99.7159 231.5,102C 223.607,106.777 215.607,111.277 207.5,115.5C 208.29,114.206 209.29,113.039 210.5,112C 215.426,108.774 220.593,105.941 226,103.5C 226.028,101.213 225.195,99.2134 223.5,97.5 Z"/></g>
<g><path style="opacity:1" fill="#042041" d="M 182.5,93.5 C 182.056,95.1132 181.056,96.2798 179.5,97C 182.167,98.3333 182.167,99.6667 179.5,101C 177.19,101.497 174.857,101.663 172.5,101.5C 172.5,102.5 172.5,103.5 172.5,104.5C 170.577,104.205 168.91,103.372 167.5,102C 172.23,98.6365 177.23,95.8032 182.5,93.5 Z"/></g>
<g><path style="opacity:1" fill="#021b33" d="M 223.5,97.5 C 225.195,99.2134 226.028,101.213 226,103.5C 220.593,105.941 215.426,108.774 210.5,112C 209.29,113.039 208.29,114.206 207.5,115.5C 204.275,115.411 201.275,116.077 198.5,117.5C 196.448,117.384 195.115,116.384 194.5,114.5C 190.748,113.103 187.081,111.603 183.5,110C 182.663,108.989 182.33,107.822 182.5,106.5C 179.167,105.833 175.833,105.167 172.5,104.5C 172.5,103.5 172.5,102.5 172.5,101.5C 174.857,101.663 177.19,101.497 179.5,101C 182.167,99.6667 182.167,98.3333 179.5,97C 181.056,96.2798 182.056,95.1132 182.5,93.5C 187.647,89.4211 193.314,86.0877 199.5,83.5C 207.854,87.6727 215.854,92.3394 223.5,97.5 Z"/></g>
<g><path style="opacity:1" fill="#021a2d" d="M 312.5,175.5 C 311.127,175.343 309.793,175.51 308.5,176C 301.842,179.744 295.009,183.244 288,186.5C 287.536,185.906 287.369,185.239 287.5,184.5C 289.163,182.467 291.163,180.634 293.5,179C 295.235,178.349 296.902,178.515 298.5,179.5C 301.35,175.956 300.35,173.956 295.5,173.5C 296.325,172.614 297.325,172.281 298.5,172.5C 298.5,171.5 298.5,170.5 298.5,169.5C 295.284,168.466 292.45,166.8 290,164.5C 283.047,165.98 275.88,167.647 268.5,169.5C 268.178,167.278 268.845,165.444 270.5,164C 272.833,163.667 275.167,163.333 277.5,163C 277.167,162.667 276.833,162.333 276.5,162C 278.863,159.82 281.53,158.153 284.5,157C 286.041,155.629 287.375,154.129 288.5,152.5C 290.663,150.917 292.996,149.584 295.5,148.5C 301.086,145.971 306.753,143.638 312.5,141.5C 312.5,152.833 312.5,164.167 312.5,175.5 Z"/></g>
<g><path style="opacity:1" fill="#022345" d="M 258.5,124.5 C 258.918,125.222 259.584,125.722 260.5,126C 258.804,127.205 257.137,127.705 255.5,127.5C 254.414,127.62 253.747,128.287 253.5,129.5C 254.732,131.05 255.232,132.717 255,134.5C 253.077,133.684 251.077,133.017 249,132.5C 246.98,133.032 246.147,134.365 246.5,136.5C 247.234,137.708 247.567,139.041 247.5,140.5C 246.5,140.5 245.5,140.5 244.5,140.5C 244.665,144.182 244.499,147.848 244,151.5C 243.667,151.167 243.333,150.833 243,150.5C 240.695,153.738 237.528,155.572 233.5,156C 231.84,157.488 230.84,159.321 230.5,161.5C 228.915,162.002 228.415,163.002 229,164.5C 232.28,166.271 235.446,168.271 238.5,170.5C 242.136,168.682 245.802,166.849 249.5,165C 252.817,161.725 256.817,159.892 261.5,159.5C 254.456,164.445 246.956,168.778 239,172.5C 232.843,169.016 226.677,165.516 220.5,162C 227.337,157.747 234.337,153.747 241.5,150C 242.147,144.22 242.814,138.387 243.5,132.5C 248.395,129.554 253.395,126.887 258.5,124.5 Z"/></g>
<g><path style="opacity:1" fill="#01294c" d="M 156.5,149.5 C 163.941,153.39 171.274,157.556 178.5,162C 175.757,164.038 172.757,165.538 169.5,166.5C 169.848,163.981 171.181,162.147 173.5,161C 171.527,160.505 169.527,160.338 167.5,160.5C 167.321,158.394 166.321,156.728 164.5,155.5C 161.477,154.27 158.477,153.103 155.5,152C 156.252,151.329 156.586,150.496 156.5,149.5 Z"/></g>
<g><path style="opacity:1" fill="#032646" d="M 288.5,152.5 C 287.375,154.129 286.041,155.629 284.5,157C 281.53,158.153 278.863,159.82 276.5,162C 276.833,162.333 277.167,162.667 277.5,163C 275.167,163.333 272.833,163.667 270.5,164C 268.845,165.444 268.178,167.278 268.5,169.5C 266.283,168.631 263.95,168.298 261.5,168.5C 269.997,162.414 278.997,157.081 288.5,152.5 Z"/></g>
<g><path style="opacity:0.999" fill="#001c2f" d="M 391.5,143.5 C 394.751,153.177 397.084,163.177 398.5,173.5C 396.521,175.168 394.188,175.834 391.5,175.5C 390.248,178.752 387.915,181.086 384.5,182.5C 384.833,183.167 385.167,183.833 385.5,184.5C 384.423,186.729 383.756,189.063 383.5,191.5C 380.833,191.5 378.167,191.5 375.5,191.5C 375.739,193.467 375.406,195.301 374.5,197C 372.19,197.497 369.857,197.663 367.5,197.5C 367.739,195.533 367.406,193.699 366.5,192C 361.845,191.501 357.179,191.334 352.5,191.5C 352.183,194.572 352.516,197.572 353.5,200.5C 355.768,199.456 358.101,199.289 360.5,200C 359.672,200.915 358.672,201.581 357.5,202C 360.709,204.12 364.043,205.953 367.5,207.5C 367.5,208.5 367.5,209.5 367.5,210.5C 375.629,214.151 383.462,218.484 391,223.5C 391.5,224.5 392,225.5 392.5,226.5C 392.176,230.297 391.676,234.297 391,238.5C 388.619,239.435 386.119,239.768 383.5,239.5C 383.5,242.167 383.5,244.833 383.5,247.5C 382.5,247.5 381.5,247.5 380.5,247.5C 380.5,250.167 380.5,252.833 380.5,255.5C 377.833,255.5 375.167,255.5 372.5,255.5C 372.5,258.167 372.5,260.833 372.5,263.5C 370.833,263.5 369.167,263.5 367.5,263.5C 367.5,262.5 367.5,261.5 367.5,260.5C 364.833,260.5 362.167,260.5 359.5,260.5C 359.5,261.5 359.5,262.5 359.5,263.5C 358.5,263.5 357.5,263.5 356.5,263.5C 356.5,266.167 356.5,268.833 356.5,271.5C 350.167,271.5 343.833,271.5 337.5,271.5C 337.703,269.61 337.037,268.11 335.5,267C 336.791,263.545 336.791,260.045 335.5,256.5C 334.808,257.025 334.308,257.692 334,258.5C 333.828,262.871 333.328,267.204 332.5,271.5C 331.081,269.664 329.914,267.664 329,265.5C 328.259,264.359 327.425,264.359 326.5,265.5C 325.702,265.043 325.369,264.376 325.5,263.5C 326.725,262.848 327.392,261.681 327.5,260C 327.182,245.746 326.016,231.58 324,217.5C 317.195,214.711 310.361,212.044 303.5,209.5C 301.326,209.25 299.659,208.25 298.5,206.5C 298.063,204.926 297.063,203.759 295.5,203C 297.842,202.164 299.842,200.83 301.5,199C 298.006,196.533 296.006,197.366 295.5,201.5C 293.335,201.884 291.668,201.217 290.5,199.5C 291.826,198.358 292.826,197.024 293.5,195.5C 294.659,193.75 296.326,192.75 298.5,192.5C 299.117,192.611 299.617,192.944 300,193.5C 301.93,190.604 304.43,189.604 307.5,190.5C 312.482,186.672 317.816,183.505 323.5,181C 324.266,177.582 324.266,174.082 323.5,170.5C 324.323,167.023 324.823,163.356 325,159.5C 326.092,162.044 326.759,164.711 327,167.5C 327.921,159.181 328.921,158.847 330,166.5C 330.875,158.839 331.708,151.173 332.5,143.5C 333.332,153.149 333.832,162.816 334,172.5C 334.667,173.833 335.333,173.833 336,172.5C 336.494,170.866 336.66,169.199 336.5,167.5C 338.833,167.5 341.167,167.5 343.5,167.5C 343.5,166.5 343.5,165.5 343.5,164.5C 344.5,164.5 345.5,164.5 346.5,164.5C 346.5,163.167 346.5,161.833 346.5,160.5C 350.81,159.92 355.143,159.586 359.5,159.5C 359.833,148.833 360.167,148.833 360.5,159.5C 362.5,159.5 364.5,159.5 366.5,159.5C 366.927,156.212 366.26,153.212 364.5,150.5C 366.627,147.535 367.794,147.869 368,151.5C 373.407,150.527 378.907,150.193 384.5,150.5C 384.5,148.5 384.5,146.5 384.5,144.5C 387.059,144.802 389.393,144.468 391.5,143.5 Z"/></g>
<g><path style="opacity:1" fill="#01182e" d="M 287.5,184.5 C 286.504,184.414 285.671,184.748 285,185.5C 283.659,188.022 282.826,190.689 282.5,193.5C 282.167,193.5 281.833,193.5 281.5,193.5C 276.251,191.511 270.918,189.511 265.5,187.5C 260.167,184.833 254.833,182.167 249.5,179.5C 248.942,178.21 247.942,177.377 246.5,177C 251.23,173.636 256.23,170.803 261.5,168.5C 263.95,168.298 266.283,168.631 268.5,169.5C 275.88,167.647 283.047,165.98 290,164.5C 292.45,166.8 295.284,168.466 298.5,169.5C 298.5,170.5 298.5,171.5 298.5,172.5C 297.325,172.281 296.325,172.614 295.5,173.5C 300.35,173.956 301.35,175.956 298.5,179.5C 296.902,178.515 295.235,178.349 293.5,179C 291.163,180.634 289.163,182.467 287.5,184.5 Z"/></g>
<g><path style="opacity:1" fill="#011f38" d="M 127.5,162.5 C 127.833,162.5 128.167,162.5 128.5,162.5C 128.414,163.496 128.748,164.329 129.5,165C 133.183,166.841 136.516,169.174 139.5,172C 142.788,172.977 145.788,174.477 148.5,176.5C 147.086,177.624 145.586,178.624 144,179.5C 143.517,180.448 143.351,181.448 143.5,182.5C 135.698,186.568 128.032,190.902 120.5,195.5C 117.432,194.309 114.765,192.642 112.5,190.5C 111.864,188.205 110.531,186.539 108.5,185.5C 109.5,185.5 110.5,185.5 111.5,185.5C 110.969,182.221 108.969,180.887 105.5,181.5C 105.5,180.167 105.5,178.833 105.5,177.5C 103.533,177.261 101.699,177.594 100,178.5C 98.6667,177.833 97.6667,176.833 97,175.5C 96.2588,176.641 95.4255,176.641 94.5,175.5C 93.5025,167.862 93.1692,160.196 93.5,152.5C 94.1174,152.611 94.6174,152.944 95,153.5C 97.6458,150.581 100.813,149.581 104.5,150.5C 102.427,152.656 100.76,154.989 99.5,157.5C 102.627,157.514 105.293,156.514 107.5,154.5C 110.944,155.468 114.278,156.635 117.5,158C 120.527,160.35 123.86,161.85 127.5,162.5 Z"/></g>
<g><path style="opacity:1" fill="#002649" d="M 314.5,137.5 C 315.147,150.544 314.48,163.211 312.5,175.5C 312.5,164.167 312.5,152.833 312.5,141.5C 306.753,143.638 301.086,145.971 295.5,148.5C 301.662,144.584 307.995,140.917 314.5,137.5 Z"/></g>
<g><path style="opacity:1" fill="#002b52" d="M 128.5,162.5 C 136.638,167.071 144.638,171.904 152.5,177C 149.472,178.844 146.472,180.678 143.5,182.5C 143.351,181.448 143.517,180.448 144,179.5C 145.586,178.624 147.086,177.624 148.5,176.5C 145.788,174.477 142.788,172.977 139.5,172C 136.516,169.174 133.183,166.841 129.5,165C 128.748,164.329 128.414,163.496 128.5,162.5 Z"/></g>
<g><path style="opacity:1" fill="#021c36" d="M 228.5,178.5 C 225.318,179.03 222.318,180.03 219.5,181.5C 219.209,180.351 218.376,179.684 217,179.5C 214.399,181.153 211.565,181.653 208.5,181C 207.978,180.439 207.645,179.772 207.5,179C 209.576,177.756 210.576,175.923 210.5,173.5C 208.876,173.36 207.71,174.027 207,175.5C 204.163,172.629 202.496,173.295 202,177.5C 200.612,178.554 199.112,178.72 197.5,178C 195.156,175.147 192.823,172.313 190.5,169.5C 193.489,170.814 196.489,172.147 199.5,173.5C 204.167,171.167 208.833,168.833 213.5,166.5C 219.288,169.228 224.955,172.228 230.5,175.5C 231.639,177.396 230.973,178.396 228.5,178.5 Z"/></g>
<g><path style="opacity:1" fill="#011b2f" d="M 190.5,169.5 C 192.823,172.313 195.156,175.147 197.5,178C 199.112,178.72 200.612,178.554 202,177.5C 202.496,173.295 204.163,172.629 207,175.5C 207.71,174.027 208.876,173.36 210.5,173.5C 210.576,175.923 209.576,177.756 207.5,179C 207.645,179.772 207.978,180.439 208.5,181C 211.565,181.653 214.399,181.153 217,179.5C 218.376,179.684 219.209,180.351 219.5,181.5C 212.962,183.741 207.629,187.408 203.5,192.5C 203.158,193.338 202.492,193.672 201.5,193.5C 198.438,193.159 196.272,191.492 195,188.5C 194.667,189.167 194.333,189.833 194,190.5C 190.888,188.725 188.055,186.558 185.5,184C 184.207,183.51 182.873,183.343 181.5,183.5C 181.5,182.167 181.5,180.833 181.5,179.5C 183.288,179.215 184.955,179.548 186.5,180.5C 187.436,181.974 188.77,182.974 190.5,183.5C 192.596,182.38 192.93,180.88 191.5,179C 188.499,179.094 186.499,177.761 185.5,175C 183.09,174.943 181.756,173.776 181.5,171.5C 181.484,169.516 182.484,168.516 184.5,168.5C 186.453,169.156 188.453,169.489 190.5,169.5 Z"/></g>
<g><path style="opacity:0.989" fill="#012134" d="M 398.5,173.5 C 398.205,175.735 398.539,177.735 399.5,179.5C 399.5,192.833 399.5,206.167 399.5,219.5C 390.514,287.286 356.848,338.786 298.5,374C 290.384,378.393 282.051,382.226 273.5,385.5C 273.833,384.833 274.167,384.167 274.5,383.5C 275.659,372.341 275.826,361.008 275,349.5C 273.5,343.333 269.667,339.5 263.5,338C 265.899,337.289 268.232,337.456 270.5,338.5C 271.354,337.052 272.354,335.719 273.5,334.5C 272.41,333.391 272.41,332.391 273.5,331.5C 281.07,333.894 288.404,336.894 295.5,340.5C 295.5,341.5 295.5,342.5 295.5,343.5C 298.788,343.073 301.788,343.74 304.5,345.5C 309.301,343.681 314.301,343.014 319.5,343.5C 320.167,338.167 320.833,332.833 321.5,327.5C 322.5,327.5 323.5,327.5 324.5,327.5C 324.5,324.833 324.5,322.167 324.5,319.5C 325.5,319.5 326.5,319.5 327.5,319.5C 327.5,316.833 327.5,314.167 327.5,311.5C 329.167,311.5 330.833,311.5 332.5,311.5C 332.5,308.833 332.5,306.167 332.5,303.5C 333.5,303.5 334.5,303.5 335.5,303.5C 335.5,300.833 335.5,298.167 335.5,295.5C 336.833,295.5 338.167,295.5 339.5,295.5C 339.708,293.08 339.374,290.747 338.5,288.5C 330.608,285.062 323.608,280.396 317.5,274.5C 318.953,272.815 320.286,271.149 321.5,269.5C 322.302,268.048 322.802,266.382 323,264.5C 323.671,263.748 324.504,263.414 325.5,263.5C 325.369,264.376 325.702,265.043 326.5,265.5C 327.425,264.359 328.259,264.359 329,265.5C 329.914,267.664 331.081,269.664 332.5,271.5C 333.328,267.204 333.828,262.871 334,258.5C 334.308,257.692 334.808,257.025 335.5,256.5C 336.791,260.045 336.791,263.545 335.5,267C 337.037,268.11 337.703,269.61 337.5,271.5C 343.833,271.5 350.167,271.5 356.5,271.5C 356.5,268.833 356.5,266.167 356.5,263.5C 357.5,263.5 358.5,263.5 359.5,263.5C 359.5,262.5 359.5,261.5 359.5,260.5C 362.167,260.5 364.833,260.5 367.5,260.5C 367.5,261.5 367.5,262.5 367.5,263.5C 369.167,263.5 370.833,263.5 372.5,263.5C 372.5,260.833 372.5,258.167 372.5,255.5C 375.167,255.5 377.833,255.5 380.5,255.5C 380.5,252.833 380.5,250.167 380.5,247.5C 381.5,247.5 382.5,247.5 383.5,247.5C 383.5,244.833 383.5,242.167 383.5,239.5C 386.119,239.768 388.619,239.435 391,238.5C 391.676,234.297 392.176,230.297 392.5,226.5C 392,225.5 391.5,224.5 391,223.5C 383.462,218.484 375.629,214.151 367.5,210.5C 367.5,209.5 367.5,208.5 367.5,207.5C 364.043,205.953 360.709,204.12 357.5,202C 358.672,201.581 359.672,200.915 360.5,200C 358.101,199.289 355.768,199.456 353.5,200.5C 352.516,197.572 352.183,194.572 352.5,191.5C 357.179,191.334 361.845,191.501 366.5,192C 367.406,193.699 367.739,195.533 367.5,197.5C 369.857,197.663 372.19,197.497 374.5,197C 375.406,195.301 375.739,193.467 375.5,191.5C 378.167,191.5 380.833,191.5 383.5,191.5C 383.756,189.063 384.423,186.729 385.5,184.5C 385.167,183.833 384.833,183.167 384.5,182.5C 387.915,181.086 390.248,178.752 391.5,175.5C 394.188,175.834 396.521,175.168 398.5,173.5 Z"/></g>
<g><path style="opacity:1" fill="#012b50" d="M 190.5,169.5 C 188.453,169.489 186.453,169.156 184.5,168.5C 182.484,168.516 181.484,169.516 181.5,171.5C 180.883,171.389 180.383,171.056 180,170.5C 177.079,172.712 173.912,174.545 170.5,176C 172.377,178.106 174.71,179.439 177.5,180C 178.823,180.816 179.489,181.983 179.5,183.5C 178.391,183.443 177.391,183.11 176.5,182.5C 174.023,180.759 171.356,179.259 168.5,178C 167.289,177.107 167.289,176.274 168.5,175.5C 173.5,172.667 178.5,169.833 183.5,167C 186.478,166.167 188.811,167 190.5,169.5 Z"/></g>
<g><path style="opacity:1" fill="#021f3a" d="M 181.5,171.5 C 181.756,173.776 183.09,174.943 185.5,175C 186.499,177.761 188.499,179.094 191.5,179C 192.93,180.88 192.596,182.38 190.5,183.5C 188.77,182.974 187.436,181.974 186.5,180.5C 184.955,179.548 183.288,179.215 181.5,179.5C 181.5,180.833 181.5,182.167 181.5,183.5C 182.873,183.343 184.207,183.51 185.5,184C 188.055,186.558 190.888,188.725 194,190.5C 194.333,189.833 194.667,189.167 195,188.5C 196.272,191.492 198.438,193.159 201.5,193.5C 200.597,195.62 199.263,195.954 197.5,194.5C 191.5,190.833 185.5,187.167 179.5,183.5C 179.489,181.983 178.823,180.816 177.5,180C 174.71,179.439 172.377,178.106 170.5,176C 173.912,174.545 177.079,172.712 180,170.5C 180.383,171.056 180.883,171.389 181.5,171.5 Z"/></g>
<g><path style="opacity:1" fill="#002334" d="M 93.5,152.5 C 93.1692,160.196 93.5025,167.862 94.5,175.5C 95.4255,176.641 96.2588,176.641 97,175.5C 97.6667,176.833 98.6667,177.833 100,178.5C 101.699,177.594 103.533,177.261 105.5,177.5C 105.5,178.833 105.5,180.167 105.5,181.5C 108.969,180.887 110.969,182.221 111.5,185.5C 110.5,185.5 109.5,185.5 108.5,185.5C 102.19,183.591 96.6895,180.258 92,175.5C 91.1676,164.818 91.3343,154.151 92.5,143.5C 93.4841,146.428 93.8174,149.428 93.5,152.5 Z"/></g>
<g><path style="opacity:1" fill="#00325a" d="M 77.5,129.5 C 77.3334,145.837 77.5001,162.17 78,178.5C 81.6515,180.733 85.1515,183.066 88.5,185.5C 86.5183,185.005 84.5183,184.505 82.5,184C 80.8442,182.171 78.8442,180.837 76.5,180C 75.2475,178.172 75.2475,176.339 76.5,174.5C 76.1706,159.324 76.5039,144.324 77.5,129.5 Z"/></g>
<g><path style="opacity:1" fill="#022a4f" d="M 228.5,178.5 C 220.368,183.402 212.035,188.069 203.5,192.5C 207.629,187.408 212.962,183.741 219.5,181.5C 222.318,180.03 225.318,179.03 228.5,178.5 Z"/></g>
<g><path style="opacity:0.995" fill="#002139" d="M 76.5,174.5 C 75.2475,176.339 75.2475,178.172 76.5,180C 78.8442,180.837 80.8442,182.171 82.5,184C 84.5183,184.505 86.5183,185.005 88.5,185.5C 89.5116,186.872 90.5116,188.205 91.5,189.5C 90.1516,190.186 88.985,191.186 88,192.5C 87.7931,196.089 87.2931,199.589 86.5,203C 84.5,204.333 82.5,205.667 80.5,207C 78.144,207.155 75.8107,207.155 73.5,207C 69.9747,211.529 66.808,216.363 64,221.5C 61.4266,218.995 59.2599,219.495 57.5,223C 54.5,223.333 51.5,223.667 48.5,224C 47.565,226.381 47.2317,228.881 47.5,231.5C 44.5,231.5 41.5,231.5 38.5,231.5C 38.762,232.978 38.4287,234.311 37.5,235.5C 36.0186,236.48 34.6853,237.647 33.5,239C 27.5092,239.499 21.5092,239.666 15.5,239.5C 15.5,242.167 15.5,244.833 15.5,247.5C 11.7657,247.677 8.09907,247.344 4.5,246.5C 2.85474,240.273 1.85474,233.939 1.5,227.5C 6.47205,224.901 11.1387,221.734 15.5,218C 22.3544,215.078 28.6878,211.411 34.5,207C 39.4156,205.876 43.7489,203.709 47.5,200.5C 49.8818,197.945 49.8818,195.278 47.5,192.5C 50.0865,191.52 52.7531,191.187 55.5,191.5C 55.5,189.833 55.5,188.167 55.5,186.5C 58.4475,186.223 61.2809,186.556 64,187.5C 65.5572,184.435 67.0572,181.435 68.5,178.5C 70.7724,182.771 73.4391,186.771 76.5,190.5C 76.8333,189.167 77.1667,187.833 77.5,186.5C 76.2493,183.415 75.2493,180.248 74.5,177C 74.6667,175.833 74.8333,174.667 75,173.5C 75.3826,174.056 75.8826,174.389 76.5,174.5 Z"/></g>
<g><path style="opacity:1" fill="#03274f" d="M 167.5,185.5 C 164.71,185.778 162.21,185.111 160,183.5C 154.441,185.761 148.941,188.094 143.5,190.5C 148.853,187.067 154.353,183.733 160,180.5C 162.824,181.818 165.324,183.485 167.5,185.5 Z"/></g>
<g><path style="opacity:1" fill="#021e3e" d="M 312.5,175.5 C 302.784,181.863 292.784,187.863 282.5,193.5C 282.826,190.689 283.659,188.022 285,185.5C 285.671,184.748 286.504,184.414 287.5,184.5C 287.369,185.239 287.536,185.906 288,186.5C 295.009,183.244 301.842,179.744 308.5,176C 309.793,175.51 311.127,175.343 312.5,175.5 Z"/></g>
<g><path style="opacity:1" fill="#022243" d="M 319.5,127.5 C 320.5,127.5 321.5,127.5 322.5,127.5C 322.396,141.847 322.73,156.18 323.5,170.5C 324.266,174.082 324.266,177.582 323.5,181C 317.816,183.505 312.482,186.672 307.5,190.5C 304.43,189.604 301.93,190.604 300,193.5C 299.617,192.944 299.117,192.611 298.5,192.5C 305.44,187.689 312.774,183.356 320.5,179.5C 321.827,162.338 321.827,145.338 320.5,128.5C 319.833,128.5 319.5,128.167 319.5,127.5 Z"/></g>
<g><path style="opacity:1" fill="#011c33" d="M 167.5,185.5 C 168.833,185.833 170.167,186.167 171.5,186.5C 174.291,188.735 177.291,190.735 180.5,192.5C 182.843,194.868 185.509,197.035 188.5,199C 185.227,202.617 181.393,204.45 177,204.5C 174.41,207.524 171.576,210.19 168.5,212.5C 162.666,216.921 156.332,220.588 149.5,223.5C 146.054,224.928 142.387,225.761 138.5,226C 137.48,227.556 136.147,228.722 134.5,229.5C 132.104,228.278 129.604,227.278 127,226.5C 123.559,225.94 122.226,227.273 123,230.5C 125.473,231.12 127.973,231.786 130.5,232.5C 129.652,233.991 128.319,234.658 126.5,234.5C 123.682,232.636 120.848,231.636 118,231.5C 116.278,231.611 116.112,232.111 117.5,233C 115.863,233.601 114.197,234.101 112.5,234.5C 108.034,231.66 103.368,228.993 98.5,226.5C 99.1667,225.167 99.8333,223.833 100.5,222.5C 99.2713,221.719 97.938,221.219 96.5,221C 95.7476,220.329 95.4142,219.496 95.5,218.5C 100.994,214.918 106.661,211.585 112.5,208.5C 117.483,206.533 122.483,204.533 127.5,202.5C 130.968,200.53 134.301,198.364 137.5,196C 138.252,195.329 138.586,194.496 138.5,193.5C 139.899,192.11 141.566,191.11 143.5,190.5C 148.941,188.094 154.441,185.761 160,183.5C 162.21,185.111 164.71,185.778 167.5,185.5 Z"/></g>
<g><path style="opacity:1" fill="#012c52" d="M 88.5,185.5 C 96.8085,189.654 104.809,194.32 112.5,199.5C 107.307,203.598 101.641,206.931 95.5,209.5C 99.4859,205.564 104.153,202.397 109.5,200C 103.961,195.73 97.9612,192.23 91.5,189.5C 90.5116,188.205 89.5116,186.872 88.5,185.5 Z"/></g>
<g><path style="opacity:1" fill="#01274b" d="M 138.5,193.5 C 138.586,194.496 138.252,195.329 137.5,196C 134.301,198.364 130.968,200.53 127.5,202.5C 122.483,204.533 117.483,206.533 112.5,208.5C 120.832,202.998 129.499,197.998 138.5,193.5 Z"/></g>
<g><path style="opacity:1" fill="#031f3d" d="M 293.5,195.5 C 292.826,197.024 291.826,198.358 290.5,199.5C 291.668,201.217 293.335,201.884 295.5,201.5C 296.006,197.366 298.006,196.533 301.5,199C 299.842,200.83 297.842,202.164 295.5,203C 297.063,203.759 298.063,204.926 298.5,206.5C 293.993,204.984 289.993,202.651 286.5,199.5C 288.4,197.384 290.733,196.051 293.5,195.5 Z"/></g>
<g><path style="opacity:1" fill="#013256" d="M 180.5,192.5 C 184.357,194.839 188.357,197.006 192.5,199C 184.607,203.777 176.607,208.277 168.5,212.5C 171.576,210.19 174.41,207.524 177,204.5C 181.393,204.45 185.227,202.617 188.5,199C 185.509,197.035 182.843,194.868 180.5,192.5 Z"/></g>
<g><path style="opacity:1" fill="#011a2f" d="M 180.5,251.5 C 179.883,251.389 179.383,251.056 179,250.5C 171.864,253.498 165.364,257.665 159.5,263C 156.695,263.442 154.028,262.942 151.5,261.5C 150.833,261.833 150.167,262.167 149.5,262.5C 150.833,263.5 152.167,264.5 153.5,265.5C 153.291,266.086 152.957,266.586 152.5,267C 149.663,266.791 146.996,266.124 144.5,265C 143.001,268.033 144.001,269.866 147.5,270.5C 145.664,272.588 143.331,273.921 140.5,274.5C 139.127,274.343 137.793,274.51 136.5,275C 132.746,276.676 129.246,278.843 126,281.5C 125.667,281.167 125.333,280.833 125,280.5C 124.5,269.505 124.333,258.505 124.5,247.5C 125.5,247.5 126.5,247.5 127.5,247.5C 127.343,248.873 127.51,250.207 128,251.5C 130.619,252.283 133.452,252.283 136.5,251.5C 135.332,249.783 133.665,249.116 131.5,249.5C 132.083,244.762 134.75,242.928 139.5,244C 138.542,245.147 138.875,246.147 140.5,247C 141.5,247.667 142.5,247.667 143.5,247C 144.48,243.596 144.48,240.429 143.5,237.5C 145.902,236.425 148.236,235.258 150.5,234C 152.259,233.202 153.926,233.369 155.5,234.5C 153.272,236.401 150.605,237.401 147.5,237.5C 147.5,238.5 147.5,239.5 147.5,240.5C 156.029,240.647 163.696,238.147 170.5,233C 168.273,232.879 166.44,232.046 165,230.5C 160.715,233.799 158.549,232.799 158.5,227.5C 160.086,226.587 161.586,226.587 163,227.5C 163.333,226.833 163.667,226.167 164,225.5C 165.049,226.517 166.216,226.684 167.5,226C 169.801,223.271 172.635,221.437 176,220.5C 178.17,220.672 179.837,221.672 181,223.5C 186.197,225.804 188.364,224.138 187.5,218.5C 184.873,219.092 182.206,219.425 179.5,219.5C 179.351,218.448 179.517,217.448 180,216.5C 181.512,215.743 182.846,214.743 184,213.5C 186.005,214.032 187.171,213.032 187.5,210.5C 189.484,210.617 191.15,209.95 192.5,208.5C 192.833,208.833 193.167,209.167 193.5,209.5C 192.691,219.453 192.191,229.453 192,239.5C 190.045,241.982 187.879,242.148 185.5,240C 182.167,239.333 178.833,239.333 175.5,240C 178.859,241.383 182.193,242.716 185.5,244C 186.337,245.011 186.67,246.178 186.5,247.5C 183.392,247.375 181.392,248.708 180.5,251.5 Z"/></g>
<g><path style="opacity:1" fill="#01223e" d="M 180.5,251.5 C 181.392,248.708 183.392,247.375 186.5,247.5C 186.67,246.178 186.337,245.011 185.5,244C 182.193,242.716 178.859,241.383 175.5,240C 178.833,239.333 182.167,239.333 185.5,240C 187.879,242.148 190.045,241.982 192,239.5C 192.191,229.453 192.691,219.453 193.5,209.5C 193.167,209.167 192.833,208.833 192.5,208.5C 191.15,209.95 189.484,210.617 187.5,210.5C 189.676,208.485 192.176,206.818 195,205.5C 195.667,218.167 195.667,230.833 195,243.5C 190.353,246.572 185.52,249.238 180.5,251.5 Z"/></g>
<g><path style="opacity:0.993" fill="#011c34" d="M 91.5,189.5 C 97.9612,192.23 103.961,195.73 109.5,200C 104.153,202.397 99.4859,205.564 95.5,209.5C 93.6644,211.588 91.3311,212.921 88.5,213.5C 86.8008,213.34 85.1341,213.506 83.5,214C 81.4293,217.037 78.7626,218.371 75.5,218C 76.1292,233.656 76.7959,249.489 77.5,265.5C 77.5,266.833 77.5,268.167 77.5,269.5C 77.5,270.5 77.5,271.5 77.5,272.5C 78.8333,272.5 80.1667,272.5 81.5,272.5C 81.31,274.959 82.31,276.626 84.5,277.5C 82.5165,277.383 80.8498,278.05 79.5,279.5C 78.8076,278.975 78.3076,278.308 78,277.5C 74.6113,279.224 71.1113,280.724 67.5,282C 65.2542,283.257 63.9209,285.09 63.5,287.5C 60.8333,287.5 58.1667,287.5 55.5,287.5C 55.5,288.833 55.5,290.167 55.5,291.5C 52.0033,290.891 49.3366,292.057 47.5,295C 47.0357,299.457 46.869,303.957 47,308.5C 46.6667,306.833 46.3333,305.167 46,303.5C 44.9887,302.663 43.8221,302.33 42.5,302.5C 42.3949,308.356 41.3949,314.022 39.5,319.5C 22.792,297.745 11.1253,273.412 4.5,246.5C 8.09907,247.344 11.7657,247.677 15.5,247.5C 15.5,244.833 15.5,242.167 15.5,239.5C 21.5092,239.666 27.5092,239.499 33.5,239C 34.6853,237.647 36.0186,236.48 37.5,235.5C 38.4287,234.311 38.762,232.978 38.5,231.5C 41.5,231.5 44.5,231.5 47.5,231.5C 47.2317,228.881 47.565,226.381 48.5,224C 51.5,223.667 54.5,223.333 57.5,223C 59.2599,219.495 61.4266,218.995 64,221.5C 66.808,216.363 69.9747,211.529 73.5,207C 75.8107,207.155 78.144,207.155 80.5,207C 82.5,205.667 84.5,204.333 86.5,203C 87.2931,199.589 87.7931,196.089 88,192.5C 88.985,191.186 90.1516,190.186 91.5,189.5 Z"/></g>
<g><path style="opacity:1" fill="#01203a" d="M 303.5,209.5 C 310.361,212.044 317.195,214.711 324,217.5C 326.016,231.58 327.182,245.746 327.5,260C 327.392,261.681 326.725,262.848 325.5,263.5C 324.504,263.414 323.671,263.748 323,264.5C 322.802,266.382 322.302,268.048 321.5,269.5C 321.667,253.163 321.5,236.83 321,220.5C 314.85,217.184 309.016,213.517 303.5,209.5 Z"/></g>
<g><path style="opacity:1" fill="#002b4e" d="M 88.5,213.5 C 85.1767,215.97 81.6767,218.304 78,220.5C 77.5001,235.496 77.3334,250.496 77.5,265.5C 76.7959,249.489 76.1292,233.656 75.5,218C 78.7626,218.371 81.4293,217.037 83.5,214C 85.1341,213.506 86.8008,213.34 88.5,213.5 Z"/></g>
<g><path style="opacity:1" fill="#02213f" d="M 95.5,218.5 C 95.4142,219.496 95.7476,220.329 96.5,221C 97.938,221.219 99.2713,221.719 100.5,222.5C 99.8333,223.833 99.1667,225.167 98.5,226.5C 103.368,228.993 108.034,231.66 112.5,234.5C 114.197,234.101 115.863,233.601 117.5,233C 116.112,232.111 116.278,231.611 118,231.5C 120.848,231.636 123.682,232.636 126.5,234.5C 128.319,234.658 129.652,233.991 130.5,232.5C 127.973,231.786 125.473,231.12 123,230.5C 122.226,227.273 123.559,225.94 127,226.5C 129.604,227.278 132.104,228.278 134.5,229.5C 136.147,228.722 137.48,227.556 138.5,226C 142.387,225.761 146.054,224.928 149.5,223.5C 149.167,224.167 148.833,224.833 148.5,225.5C 138.812,230.429 129.312,235.763 120,241.5C 109.964,235.301 99.7969,229.301 89.5,223.5C 88.1667,222.833 88.1667,222.167 89.5,221.5C 91.5336,220.441 93.5336,219.441 95.5,218.5 Z"/></g>
<g><path style="opacity:1" fill="#021c33" d="M 97.5,236.5 C 97.8333,236.5 98.1667,236.5 98.5,236.5C 98.3893,237.117 98.056,237.617 97.5,238C 103.045,240.556 108.712,243.723 114.5,247.5C 115.666,258.151 115.832,268.818 115,279.5C 111.375,280.354 108.542,279.02 106.5,275.5C 102.963,273.766 99.2961,272.432 95.5,271.5C 94.5084,271.672 93.8417,271.338 93.5,270.5C 93.6567,269.127 93.49,267.793 93,266.5C 90.6877,266.045 88.6877,265.045 87,263.5C 86.7938,254.299 86.2938,245.132 85.5,236C 85.7336,234.268 86.7336,233.434 88.5,233.5C 91.4222,234.798 94.4222,235.798 97.5,236.5 Z"/></g>
<g><path style="opacity:1" fill="#02203d" d="M 158.5,227.5 C 158.549,232.799 160.715,233.799 165,230.5C 166.44,232.046 168.273,232.879 170.5,233C 163.696,238.147 156.029,240.647 147.5,240.5C 147.5,239.5 147.5,238.5 147.5,237.5C 150.605,237.401 153.272,236.401 155.5,234.5C 153.926,233.369 152.259,233.202 150.5,234C 148.236,235.258 145.902,236.425 143.5,237.5C 144.48,240.429 144.48,243.596 143.5,247C 142.5,247.667 141.5,247.667 140.5,247C 138.875,246.147 138.542,245.147 139.5,244C 134.75,242.928 132.083,244.762 131.5,249.5C 133.665,249.116 135.332,249.783 136.5,251.5C 133.452,252.283 130.619,252.283 128,251.5C 127.51,250.207 127.343,248.873 127.5,247.5C 126.5,247.5 125.5,247.5 124.5,247.5C 124.333,258.505 124.5,269.505 125,280.5C 125.333,280.833 125.667,281.167 126,281.5C 129.246,278.843 132.746,276.676 136.5,275C 137.793,274.51 139.127,274.343 140.5,274.5C 135.5,277.833 130.5,281.167 125.5,284.5C 124.17,278.537 123.504,272.204 123.5,265.5C 123.833,259.167 124.167,252.833 124.5,246.5C 131.024,243.074 137.358,239.408 143.5,235.5C 148.368,232.566 153.368,229.9 158.5,227.5 Z"/></g>
<g><path style="opacity:1" fill="#012c52" d="M 97.5,236.5 C 94.4222,235.798 91.4222,234.798 88.5,233.5C 86.7336,233.434 85.7336,234.268 85.5,236C 86.2938,245.132 86.7938,254.299 87,263.5C 88.6877,265.045 90.6877,266.045 93,266.5C 93.49,267.793 93.6567,269.127 93.5,270.5C 90.4752,269.235 87.6418,267.568 85,265.5C 84.3333,253.167 84.3333,240.833 85,228.5C 89.3161,231.066 93.4828,233.733 97.5,236.5 Z"/></g>
<g><path style="opacity:1" fill="#002c50" d="M 98.5,236.5 C 104.304,239.57 109.97,242.903 115.5,246.5C 116.666,259.154 116.833,271.82 116,284.5C 109.018,280.267 102.184,275.934 95.5,271.5C 99.2961,272.432 102.963,273.766 106.5,275.5C 108.542,279.02 111.375,280.354 115,279.5C 115.832,268.818 115.666,258.151 114.5,247.5C 108.712,243.723 103.045,240.556 97.5,238C 98.056,237.617 98.3893,237.117 98.5,236.5 Z"/></g>
<g><path style="opacity:1" fill="#01213f" d="M 180.5,251.5 C 169.998,258.588 158.998,264.921 147.5,270.5C 144.001,269.866 143.001,268.033 144.5,265C 146.996,266.124 149.663,266.791 152.5,267C 152.957,266.586 153.291,266.086 153.5,265.5C 152.167,264.5 150.833,263.5 149.5,262.5C 150.167,262.167 150.833,261.833 151.5,261.5C 154.028,262.942 156.695,263.442 159.5,263C 165.364,257.665 171.864,253.498 179,250.5C 179.383,251.056 179.883,251.389 180.5,251.5 Z"/></g>
<g><path style="opacity:1" fill="#23b9ee" d="M 320.5,128.5 C 321.827,145.338 321.827,162.338 320.5,179.5C 312.774,183.356 305.44,187.689 298.5,192.5C 296.326,192.75 294.659,193.75 293.5,195.5C 290.733,196.051 288.4,197.384 286.5,199.5C 289.993,202.651 293.993,204.984 298.5,206.5C 299.659,208.25 301.326,209.25 303.5,209.5C 309.016,213.517 314.85,217.184 321,220.5C 321.5,236.83 321.667,253.163 321.5,269.5C 317.628,271.597 313.961,273.931 310.5,276.5C 299.612,282.044 288.945,288.044 278.5,294.5C 270.765,289.633 262.765,285.3 254.5,281.5C 251.067,278.941 247.401,276.608 243.5,274.5C 242.668,282.813 242.168,291.147 242,299.5C 239.833,300.488 238,301.821 236.5,303.5C 231.91,305.439 227.577,307.773 223.5,310.5C 215.451,314.943 207.284,319.276 199,323.5C 189.208,318.022 179.375,312.689 169.5,307.5C 167.664,305.412 165.331,304.079 162.5,303.5C 161,301.821 159.167,300.488 157,299.5C 156.832,291.147 156.332,282.813 155.5,274.5C 151.865,276.165 148.531,278.165 145.5,280.5C 144.508,280.328 143.842,280.662 143.5,281.5C 135.698,285.568 128.032,289.902 120.5,294.5C 119.261,294.058 118.261,293.391 117.5,292.5C 120.394,292.444 123.061,291.61 125.5,290C 130.157,286.335 135.157,283.169 140.5,280.5C 139.5,280.167 138.5,279.833 137.5,279.5C 133.588,281.372 129.755,283.372 126,285.5C 125.601,285.272 125.435,284.938 125.5,284.5C 130.5,281.167 135.5,277.833 140.5,274.5C 143.331,273.921 145.664,272.588 147.5,270.5C 158.998,264.921 169.998,258.588 180.5,251.5C 185.52,249.238 190.353,246.572 195,243.5C 195.667,230.833 195.667,218.167 195,205.5C 192.176,206.818 189.676,208.485 187.5,210.5C 177.332,215.413 167.666,221.08 158.5,227.5C 153.368,229.9 148.368,232.566 143.5,235.5C 143.414,234.504 143.748,233.671 144.5,233C 148.456,231.882 150.789,229.382 151.5,225.5C 153.575,225.698 155.575,225.865 157.5,226C 158.517,224.951 158.684,223.784 158,222.5C 157,223.833 156,223.833 155,222.5C 153.007,223.914 150.84,224.914 148.5,225.5C 148.833,224.833 149.167,224.167 149.5,223.5C 156.332,220.588 162.666,216.921 168.5,212.5C 176.607,208.277 184.607,203.777 192.5,199C 188.357,197.006 184.357,194.839 180.5,192.5C 177.291,190.735 174.291,188.735 171.5,186.5C 172.251,185.427 173.251,185.26 174.5,186C 176.404,188.906 178.737,189.239 181.5,187C 179.292,185.953 177.626,184.453 176.5,182.5C 177.391,183.11 178.391,183.443 179.5,183.5C 185.5,187.167 191.5,190.833 197.5,194.5C 196.739,195.391 195.739,196.058 194.5,196.5C 190.776,201.619 192.11,204.119 198.5,204C 197.344,217.758 197.177,231.592 198,245.5C 199.011,246.337 200.178,246.67 201.5,246.5C 200.955,239.018 200.622,231.518 200.5,224C 200.505,218.124 201.171,212.624 202.5,207.5C 202.168,219.518 202.501,231.518 203.5,243.5C 205.243,245.038 207.243,246.038 209.5,246.5C 222.967,254.737 236.634,262.737 250.5,270.5C 252.181,272.008 254.181,273.008 256.5,273.5C 262.102,277.643 268.102,281.31 274.5,284.5C 275.666,272.18 275.833,259.847 275,247.5C 252.854,233.845 230.354,220.845 207.5,208.5C 207.5,207.833 207.167,207.5 206.5,207.5C 205.833,206.833 205.167,206.167 204.5,205.5C 205.937,204.278 207.437,204.278 209,205.5C 211.748,208.126 214.915,210.126 218.5,211.5C 219.308,211.192 219.975,210.692 220.5,210C 216.222,206.562 211.556,203.729 206.5,201.5C 205.691,199.929 205.357,198.262 205.5,196.5C 207.565,196.483 209.565,196.15 211.5,195.5C 210.251,197.136 208.584,198.303 206.5,199C 211.23,202.364 216.23,205.197 221.5,207.5C 230.666,213.92 240.332,219.587 250.5,224.5C 259.77,230.141 269.103,235.808 278.5,241.5C 284.564,237.808 290.564,234.141 296.5,230.5C 301.437,228.363 306.104,225.696 310.5,222.5C 308.6,220.384 306.267,219.051 303.5,218.5C 290.783,210.47 277.783,202.803 264.5,195.5C 255.981,190.652 247.481,185.652 239,180.5C 237.67,181.582 236.17,182.249 234.5,182.5C 235.661,180.328 237.495,178.994 240,178.5C 242.456,180.786 245.29,182.453 248.5,183.5C 249.167,183.333 249.833,183.167 250.5,183C 249.663,181.989 249.33,180.822 249.5,179.5C 254.833,182.167 260.167,184.833 265.5,187.5C 269.602,190.392 273.935,193.059 278.5,195.5C 279.739,195.058 280.739,194.391 281.5,193.5C 281.833,193.5 282.167,193.5 282.5,193.5C 292.784,187.863 302.784,181.863 312.5,175.5C 314.48,163.211 315.147,150.544 314.5,137.5C 315.496,137.414 316.329,137.748 317,138.5C 317.309,139.766 317.809,140.933 318.5,142C 317.792,154.275 317.125,166.275 316.5,178C 317.449,178.617 318.282,178.451 319,177.5C 320.615,163.235 320.948,148.902 320,134.5C 318.842,134.002 318.009,133.169 317.5,132C 318.544,130.826 319.544,129.659 320.5,128.5 Z"/></g>
<g><path style="opacity:1" fill="#011a30" d="M 192.5,253.5 C 193.117,253.611 193.617,253.944 194,254.5C 194.667,272.5 194.667,290.5 194,308.5C 191.841,309.197 189.674,308.863 187.5,307.5C 183.549,305.19 179.883,302.523 176.5,299.5C 175.264,300.246 173.93,300.579 172.5,300.5C 171.579,298.731 170.412,297.065 169,295.5C 167.853,296.458 166.853,296.125 166,294.5C 164.522,286.889 164.188,279.222 165,271.5C 170.604,268.388 175.77,264.721 180.5,260.5C 184.164,257.665 188.164,255.332 192.5,253.5 Z"/></g>
<g><path style="opacity:1" fill="#012445" d="M 209.5,246.5 C 213.401,246.483 216.401,247.983 218.5,251C 226.352,253.57 233.352,257.57 239.5,263C 242.611,263.444 245.277,264.777 247.5,267C 250.046,266.368 252.712,265.868 255.5,265.5C 255.463,268.702 253.797,270.368 250.5,270.5C 236.634,262.737 222.967,254.737 209.5,246.5 Z"/></g>
<g><path style="opacity:1" fill="#02567f" d="M 282.5,247.5 C 282.172,259.678 282.505,271.678 283.5,283.5C 283.44,284.043 283.107,284.376 282.5,284.5C 281.175,272.006 281.175,259.673 282.5,247.5 Z"/></g>
<g><path style="opacity:1" fill="#011b2f" d="M 216.5,259.5 C 219.331,260.079 221.664,261.412 223.5,263.5C 226.189,266.685 229.356,269.352 233,271.5C 233.647,279.189 233.48,286.856 232.5,294.5C 229.446,293.679 226.446,293.679 223.5,294.5C 225.855,295.522 227.522,297.188 228.5,299.5C 228.167,299.5 227.833,299.5 227.5,299.5C 225.473,299.338 223.473,299.505 221.5,300C 219.205,303.809 215.872,305.642 211.5,305.5C 211.67,303.152 212.003,300.818 212.5,298.5C 212.66,295.482 211.326,293.482 208.5,292.5C 207.676,295.785 207.176,299.118 207,302.5C 204.877,286.807 205.043,271.14 207.5,255.5C 209.197,256.364 210.363,257.697 211,259.5C 212.626,259.146 214.459,259.146 216.5,259.5 Z"/></g>
<g><path style="opacity:1" fill="#012139" d="M 216.5,259.5 C 214.459,259.146 212.626,259.146 211,259.5C 210.363,257.697 209.197,256.364 207.5,255.5C 205.043,271.14 204.877,286.807 207,302.5C 207.176,299.118 207.676,295.785 208.5,292.5C 211.326,293.482 212.66,295.482 212.5,298.5C 212.003,300.818 211.67,303.152 211.5,305.5C 215.872,305.642 219.205,303.809 221.5,300C 223.473,299.505 225.473,299.338 227.5,299.5C 221.666,303.921 215.332,307.588 208.5,310.5C 206.856,310.714 205.356,310.38 204,309.5C 203.832,291.329 203.332,273.329 202.5,255.5C 202.238,254.022 202.571,252.689 203.5,251.5C 208.065,253.941 212.398,256.608 216.5,259.5 Z"/></g>
<g><path style="opacity:1" fill="#003358" d="M 202.5,255.5 C 203.332,273.329 203.832,291.329 204,309.5C 205.356,310.38 206.856,310.714 208.5,310.5C 207.063,311.725 205.396,312.725 203.5,313.5C 202.5,294.178 202.167,274.845 202.5,255.5 Z"/></g>
<g><path style="opacity:1" fill="#011f33" d="M 314.5,257.5 C 314.817,260.572 314.484,263.572 313.5,266.5C 309.272,269.113 304.939,271.446 300.5,273.5C 295.005,275.844 289.839,278.177 285,280.5C 283.514,269.539 283.181,258.539 284,247.5C 286.757,245.205 289.923,244.205 293.5,244.5C 296.478,245.305 299.478,245.638 302.5,245.5C 303.466,247.396 303.799,249.396 303.5,251.5C 302.178,251.67 301.011,251.337 300,250.5C 298.221,252.017 298.721,252.851 301.5,253C 300.346,253.914 300.513,254.747 302,255.5C 303.011,254.663 304.178,254.33 305.5,254.5C 305.334,249.156 305.501,243.823 306,238.5C 306.777,234.251 309.277,231.917 313.5,231.5C 313.5,239.5 313.5,247.5 313.5,255.5C 310.975,257.571 307.975,258.905 304.5,259.5C 303.167,260.833 303.167,262.167 304.5,263.5C 307.889,261.477 311.222,259.477 314.5,257.5 Z"/></g>
<g><path style="opacity:1" fill="#002a4a" d="M 306.5,233.5 C 306.586,234.496 306.252,235.329 305.5,236C 300.858,238.134 296.858,240.967 293.5,244.5C 289.923,244.205 286.757,245.205 284,247.5C 283.181,258.539 283.514,269.539 285,280.5C 289.839,278.177 295.005,275.844 300.5,273.5C 295.006,277.082 289.339,280.415 283.5,283.5C 282.505,271.678 282.172,259.678 282.5,247.5C 290.164,242.332 298.164,237.665 306.5,233.5 Z"/></g>
<g><path style="opacity:1" fill="#041d37" d="M 314.5,257.5 C 311.222,259.477 307.889,261.477 304.5,263.5C 303.167,262.167 303.167,260.833 304.5,259.5C 307.975,258.905 310.975,257.571 313.5,255.5C 313.5,247.5 313.5,239.5 313.5,231.5C 309.277,231.917 306.777,234.251 306,238.5C 305.501,243.823 305.334,249.156 305.5,254.5C 304.178,254.33 303.011,254.663 302,255.5C 300.513,254.747 300.346,253.914 301.5,253C 298.721,252.851 298.221,252.017 300,250.5C 301.011,251.337 302.178,251.67 303.5,251.5C 303.799,249.396 303.466,247.396 302.5,245.5C 299.478,245.638 296.478,245.305 293.5,244.5C 296.858,240.967 300.858,238.134 305.5,236C 306.252,235.329 306.586,234.496 306.5,233.5C 308.676,231.485 311.176,229.818 314,228.5C 314.5,238.161 314.666,247.828 314.5,257.5 Z"/></g>
<g><path style="opacity:1" fill="#022544" d="M 296.5,230.5 C 290.564,234.141 284.564,237.808 278.5,241.5C 269.103,235.808 259.77,230.141 250.5,224.5C 255.267,224.346 259.267,226.346 262.5,230.5C 265.661,231.913 268.661,233.58 271.5,235.5C 273.302,233.966 275.135,233.632 277,234.5C 280.794,233.77 284.627,233.27 288.5,233C 291.022,231.659 293.689,230.826 296.5,230.5 Z"/></g>
<g><path style="opacity:1" fill="#002a4f" d="M 303.5,218.5 C 306.267,219.051 308.6,220.384 310.5,222.5C 306.104,225.696 301.437,228.363 296.5,230.5C 298.212,227.289 300.879,225.456 304.5,225C 305.5,224 306.5,223 307.5,222C 305.45,221.584 304.116,220.417 303.5,218.5 Z"/></g>
<g><path style="opacity:1" fill="#012b4e" d="M 207.5,208.5 C 230.354,220.845 252.854,233.845 275,247.5C 275.833,259.847 275.666,272.18 274.5,284.5C 268.102,281.31 262.102,277.643 256.5,273.5C 258.199,273.34 259.866,273.506 261.5,274C 262.551,275.385 263.884,276.385 265.5,277C 268.368,278.383 271.368,279.216 274.5,279.5C 274.666,269.161 274.5,258.828 274,248.5C 270.048,246.299 265.881,244.466 261.5,243C 260.382,241.926 259.382,240.76 258.5,239.5C 249.417,234.978 240.75,229.812 232.5,224C 228.342,222.668 224.342,221.001 220.5,219C 216.396,214.983 212.063,211.483 207.5,208.5 Z"/></g>
<g><path style="opacity:1" fill="#04213f" d="M 187.5,210.5 C 187.171,213.032 186.005,214.032 184,213.5C 182.846,214.743 181.512,215.743 180,216.5C 179.517,217.448 179.351,218.448 179.5,219.5C 182.206,219.425 184.873,219.092 187.5,218.5C 188.364,224.138 186.197,225.804 181,223.5C 179.837,221.672 178.17,220.672 176,220.5C 172.635,221.437 169.801,223.271 167.5,226C 166.216,226.684 165.049,226.517 164,225.5C 163.667,226.167 163.333,226.833 163,227.5C 161.586,226.587 160.086,226.587 158.5,227.5C 167.666,221.08 177.332,215.413 187.5,210.5 Z"/></g>
<g><path style="opacity:1" fill="#012b4a" d="M 221.5,207.5 C 223.527,207.338 225.527,207.505 227.5,208C 226.833,208.333 226.167,208.667 225.5,209C 229.434,210.79 233.434,212.29 237.5,213.5C 237.513,216.361 238.679,217.361 241,216.5C 243.586,218.545 246.42,220.211 249.5,221.5C 250.386,222.325 250.719,223.325 250.5,224.5C 240.332,219.587 230.666,213.92 221.5,207.5 Z"/></g>
<g><path style="opacity:1" fill="#011b30" d="M 206.5,207.5 C 207.167,207.5 207.5,207.833 207.5,208.5C 212.063,211.483 216.396,214.983 220.5,219C 224.342,221.001 228.342,222.668 232.5,224C 240.75,229.812 249.417,234.978 258.5,239.5C 259.382,240.76 260.382,241.926 261.5,243C 265.881,244.466 270.048,246.299 274,248.5C 274.5,258.828 274.666,269.161 274.5,279.5C 271.368,279.216 268.368,278.383 265.5,277C 263.884,276.385 262.551,275.385 261.5,274C 259.866,273.506 258.199,273.34 256.5,273.5C 254.181,273.008 252.181,272.008 250.5,270.5C 253.797,270.368 255.463,268.702 255.5,265.5C 252.712,265.868 250.046,266.368 247.5,267C 245.277,264.777 242.611,263.444 239.5,263C 233.352,257.57 226.352,253.57 218.5,251C 216.401,247.983 213.401,246.483 209.5,246.5C 208.659,244.488 207.159,243.155 205,242.5C 204.833,236.667 204.667,230.833 204.5,225C 204.504,218.793 205.171,212.96 206.5,207.5 Z"/></g>
<g><path style="opacity:1" fill="#002b4b" d="M 204.5,205.5 C 205.167,206.167 205.833,206.833 206.5,207.5C 205.171,212.96 204.504,218.793 204.5,225C 204.667,230.833 204.833,236.667 205,242.5C 207.159,243.155 208.659,244.488 209.5,246.5C 207.243,246.038 205.243,245.038 203.5,243.5C 202.501,231.518 202.168,219.518 202.5,207.5C 202.5,206.167 203.167,205.5 204.5,205.5 Z"/></g>
<g><path style="opacity:1" fill="#00284c" d="M 265.5,187.5 C 270.918,189.511 276.251,191.511 281.5,193.5C 280.739,194.391 279.739,195.058 278.5,195.5C 273.935,193.059 269.602,190.392 265.5,187.5 Z"/></g>
<g><path style="opacity:1" fill="#011b30" d="M 264.5,195.5 C 277.783,202.803 290.783,210.47 303.5,218.5C 304.116,220.417 305.45,221.584 307.5,222C 306.5,223 305.5,224 304.5,225C 300.879,225.456 298.212,227.289 296.5,230.5C 293.689,230.826 291.022,231.659 288.5,233C 284.627,233.27 280.794,233.77 277,234.5C 275.135,233.632 273.302,233.966 271.5,235.5C 268.661,233.58 265.661,231.913 262.5,230.5C 259.267,226.346 255.267,224.346 250.5,224.5C 250.719,223.325 250.386,222.325 249.5,221.5C 246.42,220.211 243.586,218.545 241,216.5C 238.679,217.361 237.513,216.361 237.5,213.5C 233.434,212.29 229.434,210.79 225.5,209C 226.167,208.667 226.833,208.333 227.5,208C 225.527,207.505 223.527,207.338 221.5,207.5C 216.23,205.197 211.23,202.364 206.5,199C 208.584,198.303 210.251,197.136 211.5,195.5C 215.833,193.5 220.167,191.5 224.5,189.5C 226.199,189.66 227.866,189.494 229.5,189C 232.485,186.507 235.818,184.674 239.5,183.5C 244.905,186.738 250.571,189.572 256.5,192C 258.372,194.944 261.039,196.111 264.5,195.5 Z"/></g>
<g><path style="opacity:1" fill="#02274b" d="M 264.5,195.5 C 261.039,196.111 258.372,194.944 256.5,192C 250.571,189.572 244.905,186.738 239.5,183.5C 235.818,184.674 232.485,186.507 229.5,189C 227.866,189.494 226.199,189.66 224.5,189.5C 227.833,187.167 231.167,184.833 234.5,182.5C 236.17,182.249 237.67,181.582 239,180.5C 247.481,185.652 255.981,190.652 264.5,195.5 Z"/></g>
<g><path style="opacity:1" fill="#02395e" d="M 172.5,300.5 C 173.93,300.579 175.264,300.246 176.5,299.5C 179.883,302.523 183.549,305.19 187.5,307.5C 189.674,308.863 191.841,309.197 194,308.5C 194.667,290.5 194.667,272.5 194,254.5C 193.617,253.944 193.117,253.611 192.5,253.5C 193.261,252.609 194.261,251.942 195.5,251.5C 196.666,272.492 196.833,293.492 196,314.5C 188.186,309.681 180.353,305.015 172.5,300.5 Z"/></g>
<g><path style="opacity:1" fill="#022141" d="M 77.5,269.5 C 90.8608,277.178 104.194,284.845 117.5,292.5C 118.261,293.391 119.261,294.058 120.5,294.5C 128.032,289.902 135.698,285.568 143.5,281.5C 144.146,283.156 144.813,284.823 145.5,286.5C 144.53,288.483 143.53,290.483 142.5,292.5C 141.22,290.276 141.553,288.276 143.5,286.5C 142.833,286.167 142.167,285.833 141.5,285.5C 138.65,287.427 135.983,289.594 133.5,292C 129.138,292.747 124.971,293.913 121,295.5C 113.899,294.535 108.065,291.368 103.5,286C 101.527,285.505 99.5273,285.338 97.5,285.5C 97.67,284.178 97.3366,283.011 96.5,282C 94.5,281.667 92.5,281.333 90.5,281C 89.1113,278.812 87.1113,277.646 84.5,277.5C 82.31,276.626 81.31,274.959 81.5,272.5C 80.1667,272.5 78.8333,272.5 77.5,272.5C 77.5,271.5 77.5,270.5 77.5,269.5 Z"/></g>
<g><path style="opacity:0.999" fill="#01182d" d="M 84.5,277.5 C 87.1113,277.646 89.1113,278.812 90.5,281C 92.5,281.333 94.5,281.667 96.5,282C 97.3366,283.011 97.67,284.178 97.5,285.5C 99.5273,285.338 101.527,285.505 103.5,286C 108.065,291.368 113.899,294.535 121,295.5C 124.971,293.913 129.138,292.747 133.5,292C 135.983,289.594 138.65,287.427 141.5,285.5C 142.167,285.833 142.833,286.167 143.5,286.5C 141.553,288.276 141.22,290.276 142.5,292.5C 143.53,290.483 144.53,288.483 145.5,286.5C 144.813,284.823 144.146,283.156 143.5,281.5C 143.842,280.662 144.508,280.328 145.5,280.5C 147.201,280.034 148.701,280.034 150,280.5C 150.7,278.968 151.866,277.968 153.5,277.5C 154.331,284.811 154.831,292.144 155,299.5C 156.577,302.539 159.077,303.872 162.5,303.5C 165.331,304.079 167.664,305.412 169.5,307.5C 169.649,308.552 169.483,309.552 169,310.5C 167.391,311.147 165.891,311.98 164.5,313C 165.5,313.5 166.5,314 167.5,314.5C 170.289,312.702 173.289,312.202 176.5,313C 183.446,316.307 190.112,319.974 196.5,324C 198.473,324.495 200.473,324.662 202.5,324.5C 203.006,327.734 204.672,328.401 207.5,326.5C 207.703,328.39 207.037,329.89 205.5,331C 208.939,332.14 209.106,333.973 206,336.5C 204.511,356.492 203.344,356.492 202.5,336.5C 199.13,335.574 195.797,335.241 192.5,335.5C 191.541,343.339 190.541,351.172 189.5,359C 191.277,370.323 191.944,381.823 191.5,393.5C 189.833,393.5 188.167,393.5 186.5,393.5C 186.665,390.15 186.498,386.817 186,383.5C 183.835,381.347 183.002,378.681 183.5,375.5C 184.5,375.5 185.5,375.5 186.5,375.5C 186.5,372.833 186.5,370.167 186.5,367.5C 185.5,367.5 184.5,367.5 183.5,367.5C 183.828,362.125 183.495,356.792 182.5,351.5C 181.52,354.086 181.187,356.753 181.5,359.5C 180.167,359.5 178.833,359.5 177.5,359.5C 176.494,352.539 175.66,345.539 175,338.5C 173.916,339.665 173.083,340.998 172.5,342.5C 170.955,343.452 169.288,343.785 167.5,343.5C 167.98,340.995 168.98,338.662 170.5,336.5C 169.675,335.614 168.675,335.281 167.5,335.5C 167.5,334.5 167.5,333.5 167.5,332.5C 164.833,332.5 162.167,332.5 159.5,332.5C 159.5,331.5 159.5,330.5 159.5,329.5C 155.313,329.395 151.313,330.228 147.5,332C 139.718,336.908 131.884,341.074 124,344.5C 122.876,355.419 122.043,366.419 121.5,377.5C 120.668,368.852 120.168,360.186 120,351.5C 119.807,356.75 119.307,361.917 118.5,367C 115.805,367.254 113.305,367.421 111,367.5C 110.503,365.19 110.337,362.857 110.5,360.5C 112.017,357.413 112.684,354.079 112.5,350.5C 114.833,350.5 117.167,350.5 119.5,350.5C 119.586,348.323 120.253,346.323 121.5,344.5C 119.604,343.534 117.604,343.201 115.5,343.5C 115.336,340.813 115.503,338.146 116,335.5C 119.768,331.994 123.934,328.994 128.5,326.5C 127.831,322.991 126.664,319.658 125,316.5C 124.282,315.549 123.449,315.383 122.5,316C 121.929,317.205 121.262,318.372 120.5,319.5C 119.614,318.675 119.281,317.675 119.5,316.5C 114.167,316.5 108.833,316.5 103.5,316.5C 103.5,314.833 103.5,313.167 103.5,311.5C 92.8333,311.5 82.1667,311.5 71.5,311.5C 71.5,310.5 71.5,309.5 71.5,308.5C 68.8333,308.5 66.1667,308.5 63.5,308.5C 63.5,309.5 63.5,310.5 63.5,311.5C 57.6973,310.913 52.1973,311.58 47,313.5C 46.2904,312.027 45.1238,311.36 43.5,311.5C 43.5842,315.331 42.9175,318.998 41.5,322.5C 40.5987,321.71 39.9321,320.71 39.5,319.5C 41.3949,314.022 42.3949,308.356 42.5,302.5C 43.8221,302.33 44.9887,302.663 46,303.5C 46.3333,305.167 46.6667,306.833 47,308.5C 46.869,303.957 47.0357,299.457 47.5,295C 49.3366,292.057 52.0033,290.891 55.5,291.5C 55.5,290.167 55.5,288.833 55.5,287.5C 58.1667,287.5 60.8333,287.5 63.5,287.5C 63.9209,285.09 65.2542,283.257 67.5,282C 71.1113,280.724 74.6113,279.224 78,277.5C 78.3076,278.308 78.8076,278.975 79.5,279.5C 80.8498,278.05 82.5165,277.383 84.5,277.5 Z"/></g>
<g><path style="opacity:1" fill="#002d4e" d="M 162.5,303.5 C 159.077,303.872 156.577,302.539 155,299.5C 154.831,292.144 154.331,284.811 153.5,277.5C 151.866,277.968 150.7,278.968 150,280.5C 148.701,280.034 147.201,280.034 145.5,280.5C 148.531,278.165 151.865,276.165 155.5,274.5C 156.332,282.813 156.832,291.147 157,299.5C 159.167,300.488 161,301.821 162.5,303.5 Z"/></g>
<g><path style="opacity:1" fill="#002948" d="M 254.5,281.5 C 250.35,281.145 246.683,279.812 243.5,277.5C 244.003,283.727 244.669,289.894 245.5,296C 245.167,296.333 244.833,296.667 244.5,297C 245.5,297.333 246.5,297.667 247.5,298C 244.147,300.533 240.481,302.367 236.5,303.5C 238,301.821 239.833,300.488 242,299.5C 242.168,291.147 242.668,282.813 243.5,274.5C 247.401,276.608 251.067,278.941 254.5,281.5 Z"/></g>
<g><path style="opacity:1" fill="#011d31" d="M 321.5,269.5 C 320.286,271.149 318.953,272.815 317.5,274.5C 323.608,280.396 330.608,285.062 338.5,288.5C 339.374,290.747 339.708,293.08 339.5,295.5C 338.167,295.5 336.833,295.5 335.5,295.5C 335.5,298.167 335.5,300.833 335.5,303.5C 334.5,303.5 333.5,303.5 332.5,303.5C 332.5,306.167 332.5,308.833 332.5,311.5C 330.833,311.5 329.167,311.5 327.5,311.5C 327.5,314.167 327.5,316.833 327.5,319.5C 326.5,319.5 325.5,319.5 324.5,319.5C 324.5,322.167 324.5,324.833 324.5,327.5C 323.5,327.5 322.5,327.5 321.5,327.5C 320.833,332.833 320.167,338.167 319.5,343.5C 314.301,343.014 309.301,343.681 304.5,345.5C 301.788,343.74 298.788,343.073 295.5,343.5C 295.5,342.5 295.5,341.5 295.5,340.5C 288.404,336.894 281.07,333.894 273.5,331.5C 272.41,332.391 272.41,333.391 273.5,334.5C 272.354,335.719 271.354,337.052 270.5,338.5C 268.232,337.456 265.899,337.289 263.5,338C 269.667,339.5 273.5,343.333 275,349.5C 275.826,361.008 275.659,372.341 274.5,383.5C 272.165,372.552 271.831,361.385 273.5,350C 273.167,349.5 272.833,349 272.5,348.5C 271.476,349.853 270.143,350.52 268.5,350.5C 268.5,348.167 268.5,345.833 268.5,343.5C 265.412,343.803 263.746,342.47 263.5,339.5C 261.599,339.567 259.766,339.233 258,338.5C 255.293,335.89 252.46,333.39 249.5,331C 240.713,328.03 232.879,323.53 226,317.5C 224.85,316.576 223.85,316.576 223,317.5C 222.812,315.939 223.645,315.272 225.5,315.5C 225.715,313.821 225.048,312.821 223.5,312.5C 223.5,311.833 223.5,311.167 223.5,310.5C 227.577,307.773 231.91,305.439 236.5,303.5C 240.481,302.367 244.147,300.533 247.5,298C 246.5,297.667 245.5,297.333 244.5,297C 244.833,296.667 245.167,296.333 245.5,296C 244.669,289.894 244.003,283.727 243.5,277.5C 246.683,279.812 250.35,281.145 254.5,281.5C 258.298,284.902 262.298,288.068 266.5,291C 270.29,291.23 273.624,292.563 276.5,295C 278.568,295.687 280.568,295.52 282.5,294.5C 283.439,296.053 284.606,297.387 286,298.5C 288.712,296.221 291.546,294.055 294.5,292C 294.167,291.667 293.833,291.333 293.5,291C 294.227,289.601 294.727,288.101 295,286.5C 297.533,285.128 300.2,284.128 303,283.5C 305.434,285.023 308.101,286.023 311,286.5C 311.635,285.034 312.469,283.7 313.5,282.5C 312.167,281.833 310.833,281.167 309.5,280.5C 310.246,279.264 310.579,277.93 310.5,276.5C 313.961,273.931 317.628,271.597 321.5,269.5 Z"/></g>
<g><path style="opacity:1" fill="#012140" d="M 223.5,263.5 C 227.273,265.221 230.939,267.221 234.5,269.5C 235.665,278.147 235.832,286.814 235,295.5C 233.056,297.221 230.89,298.554 228.5,299.5C 227.522,297.188 225.855,295.522 223.5,294.5C 226.446,293.679 229.446,293.679 232.5,294.5C 233.48,286.856 233.647,279.189 233,271.5C 229.356,269.352 226.189,266.685 223.5,263.5 Z"/></g>
<g><path style="opacity:1" fill="#02213c" d="M 310.5,276.5 C 310.579,277.93 310.246,279.264 309.5,280.5C 310.833,281.167 312.167,281.833 313.5,282.5C 312.469,283.7 311.635,285.034 311,286.5C 308.101,286.023 305.434,285.023 303,283.5C 300.2,284.128 297.533,285.128 295,286.5C 294.727,288.101 294.227,289.601 293.5,291C 293.833,291.333 294.167,291.667 294.5,292C 291.546,294.055 288.712,296.221 286,298.5C 284.606,297.387 283.439,296.053 282.5,294.5C 280.568,295.52 278.568,295.687 276.5,295C 273.624,292.563 270.29,291.23 266.5,291C 262.298,288.068 258.298,284.902 254.5,281.5C 262.765,285.3 270.765,289.633 278.5,294.5C 288.945,288.044 299.612,282.044 310.5,276.5 Z"/></g>
<g><path style="opacity:1" fill="#01264c" d="M 180.5,260.5 C 175.77,264.721 170.604,268.388 165,271.5C 164.188,279.222 164.522,286.889 166,294.5C 166.853,296.125 167.853,296.458 169,295.5C 170.412,297.065 171.579,298.731 172.5,300.5C 169.86,299.18 167.193,297.847 164.5,296.5C 163.335,287.518 163.168,278.518 164,269.5C 169.314,266.094 174.814,263.094 180.5,260.5 Z"/></g>
<g><path style="opacity:0.991" fill="#00152a" d="M 110.5,360.5 C 109.549,359.081 109.216,357.415 109.5,355.5C 106.722,355.022 104.722,356.022 103.5,358.5C 100.833,359.5 98.1667,360.5 95.5,361.5C 93.0331,362.988 90.6998,364.654 88.5,366.5C 70.2909,354.627 54.6242,339.96 41.5,322.5C 42.9175,318.998 43.5842,315.331 43.5,311.5C 45.1238,311.36 46.2904,312.027 47,313.5C 52.1973,311.58 57.6973,310.913 63.5,311.5C 63.5,310.5 63.5,309.5 63.5,308.5C 66.1667,308.5 68.8333,308.5 71.5,308.5C 71.5,309.5 71.5,310.5 71.5,311.5C 82.1667,311.5 92.8333,311.5 103.5,311.5C 103.5,313.167 103.5,314.833 103.5,316.5C 108.833,316.5 114.167,316.5 119.5,316.5C 119.281,317.675 119.614,318.675 120.5,319.5C 121.262,318.372 121.929,317.205 122.5,316C 123.449,315.383 124.282,315.549 125,316.5C 126.664,319.658 127.831,322.991 128.5,326.5C 123.934,328.994 119.768,331.994 116,335.5C 115.503,338.146 115.336,340.813 115.5,343.5C 117.604,343.201 119.604,343.534 121.5,344.5C 120.253,346.323 119.586,348.323 119.5,350.5C 117.167,350.5 114.833,350.5 112.5,350.5C 112.684,354.079 112.017,357.413 110.5,360.5 Z"/></g>
<g><path style="opacity:0.995" fill="#001b2e" d="M 223.5,312.5 C 225.048,312.821 225.715,313.821 225.5,315.5C 223.645,315.272 222.812,315.939 223,317.5C 223.85,316.576 224.85,316.576 226,317.5C 232.879,323.53 240.713,328.03 249.5,331C 252.46,333.39 255.293,335.89 258,338.5C 259.766,339.233 261.599,339.567 263.5,339.5C 263.746,342.47 265.412,343.803 268.5,343.5C 268.5,345.833 268.5,348.167 268.5,350.5C 270.143,350.52 271.476,349.853 272.5,348.5C 272.833,349 273.167,349.5 273.5,350C 271.831,361.385 272.165,372.552 274.5,383.5C 274.167,384.167 273.833,384.833 273.5,385.5C 256.112,392.577 238.112,397.244 219.5,399.5C 210.167,399.5 200.833,399.5 191.5,399.5C 191.5,397.5 191.5,395.5 191.5,393.5C 191.944,381.823 191.277,370.323 189.5,359C 190.541,351.172 191.541,343.339 192.5,335.5C 195.797,335.241 199.13,335.574 202.5,336.5C 203.344,356.492 204.511,356.492 206,336.5C 209.106,333.973 208.939,332.14 205.5,331C 207.037,329.89 207.703,328.39 207.5,326.5C 204.672,328.401 203.006,327.734 202.5,324.5C 205.801,324.208 207.801,322.541 208.5,319.5C 213.388,317.02 218.388,314.687 223.5,312.5 Z"/></g>
<g><path style="opacity:1" fill="#012647" d="M 169.5,307.5 C 179.375,312.689 189.208,318.022 199,323.5C 207.284,319.276 215.451,314.943 223.5,310.5C 223.5,311.167 223.5,311.833 223.5,312.5C 218.388,314.687 213.388,317.02 208.5,319.5C 207.801,322.541 205.801,324.208 202.5,324.5C 200.473,324.662 198.473,324.495 196.5,324C 190.112,319.974 183.446,316.307 176.5,313C 173.289,312.202 170.289,312.702 167.5,314.5C 166.5,314 165.5,313.5 164.5,313C 165.891,311.98 167.391,311.147 169,310.5C 169.483,309.552 169.649,308.552 169.5,307.5 Z"/></g>
<g><path style="opacity:0.991" fill="#001529" d="M 191.5,393.5 C 191.5,395.5 191.5,397.5 191.5,399.5C 187.5,399.5 183.5,399.5 179.5,399.5C 146.7,395.454 116.367,384.454 88.5,366.5C 90.6998,364.654 93.0331,362.988 95.5,361.5C 98.1667,360.5 100.833,359.5 103.5,358.5C 104.722,356.022 106.722,355.022 109.5,355.5C 109.216,357.415 109.549,359.081 110.5,360.5C 110.337,362.857 110.503,365.19 111,367.5C 113.305,367.421 115.805,367.254 118.5,367C 119.307,361.917 119.807,356.75 120,351.5C 120.168,360.186 120.668,368.852 121.5,377.5C 122.043,366.419 122.876,355.419 124,344.5C 131.884,341.074 139.718,336.908 147.5,332C 151.313,330.228 155.313,329.395 159.5,329.5C 159.5,330.5 159.5,331.5 159.5,332.5C 162.167,332.5 164.833,332.5 167.5,332.5C 167.5,333.5 167.5,334.5 167.5,335.5C 168.675,335.281 169.675,335.614 170.5,336.5C 168.98,338.662 167.98,340.995 167.5,343.5C 169.288,343.785 170.955,343.452 172.5,342.5C 173.083,340.998 173.916,339.665 175,338.5C 175.66,345.539 176.494,352.539 177.5,359.5C 178.833,359.5 180.167,359.5 181.5,359.5C 181.187,356.753 181.52,354.086 182.5,351.5C 183.495,356.792 183.828,362.125 183.5,367.5C 184.5,367.5 185.5,367.5 186.5,367.5C 186.5,370.167 186.5,372.833 186.5,375.5C 185.5,375.5 184.5,375.5 183.5,375.5C 183.002,378.681 183.835,381.347 186,383.5C 186.498,386.817 186.665,390.15 186.5,393.5C 188.167,393.5 189.833,393.5 191.5,393.5 Z"/></g>
</svg>
