<?xml version="1.0" encoding="UTF-8"?>
<!DOCTYPE svg PUBLIC "-//W3C//DTD SVG 1.1//EN" "http://www.w3.org/Graphics/SVG/1.1/DTD/svg11.dtd">
<svg xmlns="http://www.w3.org/2000/svg" version="1.1" width="400px" height="400px" style="shape-rendering:geometricPrecision; text-rendering:geometricPrecision; image-rendering:optimizeQuality; fill-rule:evenodd; clip-rule:evenodd" xmlns:xlink="http://www.w3.org/1999/xlink">
<g><path style="opacity:1" fill="#fcfcfc" d="M -0.5,-0.5 C 25.1667,-0.5 50.8333,-0.5 76.5,-0.5C 76.5,0.166667 76.1667,0.5 75.5,0.5C 71.2095,0.197669 67.2095,0.864335 63.5,2.5C 60.5568,2.98023 57.8902,3.98023 55.5,5.5C 49.156,6.8399 43.4893,9.50657 38.5,13.5C 26.3662,20.2987 17.3662,29.9654 11.5,42.5C 6.85255,48.7028 3.85255,55.7028 2.5,63.5C 1.68421,67.5387 0.684206,71.5387 -0.5,75.5C -0.5,50.1667 -0.5,24.8333 -0.5,-0.5 Z"/></g>
<g><path style="opacity:1" fill="#fcfbfc" d="M 319.5,-0.5 C 346.167,-0.5 372.833,-0.5 399.5,-0.5C 399.5,25.1667 399.5,50.8333 399.5,76.5C 398.743,72.1189 397.743,67.7856 396.5,63.5C 395.037,56.2747 392.37,49.6081 388.5,43.5C 382.704,31.3645 374.037,21.6978 362.5,14.5C 361.833,14.5 361.167,14.5 360.5,14.5C 353.372,8.22225 345.039,4.22225 335.5,2.5C 330.167,1.5 324.833,0.5 319.5,-0.5 Z"/></g>
<g><path style="opacity:1" fill="#5139d8" d="M 76.5,-0.5 C 157.5,-0.5 238.5,-0.5 319.5,-0.5C 324.833,0.5 330.167,1.5 335.5,2.5C 332.5,2.5 329.5,2.5 326.5,2.5C 241.666,2.32037 156.666,2.32037 71.5,2.5C 72.8333,1.83333 74.1667,1.16667 75.5,0.5C 76.1667,0.5 76.5,0.166667 76.5,-0.5 Z"/></g>
<g><path style="opacity:1" fill="#5946bb" d="M 75.5,0.5 C 74.1667,1.16667 72.8333,1.83333 71.5,2.5C 68.8333,2.5 66.1667,2.5 63.5,2.5C 67.2095,0.864335 71.2095,0.197669 75.5,0.5 Z"/></g>
<g><path style="opacity:1" fill="#4829e3" d="M 326.5,2.5 C 329.5,2.5 332.5,2.5 335.5,2.5C 345.039,4.22225 353.372,8.22225 360.5,14.5C 355.078,15.9562 350.078,14.9562 345.5,11.5C 344.614,12.325 344.281,13.325 344.5,14.5C 338.792,14.4924 338.459,14.9924 343.5,16C 341.155,18.2016 338.489,19.7016 335.5,20.5C 335.657,21.8734 335.49,23.2068 335,24.5C 332.815,26.5402 330.315,27.8736 327.5,28.5C 327.657,29.8734 327.49,31.2068 327,32.5C 324.815,34.5402 322.315,35.8736 319.5,36.5C 319.5,37.5 319.5,38.5 319.5,39.5C 317.833,39.5 316.167,39.5 314.5,39.5C 314.5,42.1667 314.5,44.8333 314.5,47.5C 310.684,48.9094 307.017,50.576 303.5,52.5C 302.756,56.1185 302.423,59.7852 302.5,63.5C 299.833,63.5 297.167,63.5 294.5,63.5C 294.5,66.1667 294.5,68.8333 294.5,71.5C 291.833,71.5 289.167,71.5 286.5,71.5C 286.5,74.1667 286.5,76.8333 286.5,79.5C 283.833,79.5 281.167,79.5 278.5,79.5C 278.5,82.1667 278.5,84.8333 278.5,87.5C 276.167,87.5 273.833,87.5 271.5,87.5C 271.5,90.1667 271.5,92.8333 271.5,95.5C 268.833,95.5 266.167,95.5 263.5,95.5C 263.5,98.1667 263.5,100.833 263.5,103.5C 260.833,103.5 258.167,103.5 255.5,103.5C 255.5,106.167 255.5,108.833 255.5,111.5C 253.833,111.5 252.167,111.5 250.5,111.5C 250.5,114.167 250.5,116.833 250.5,119.5C 247.833,119.5 245.167,119.5 242.5,119.5C 242.142,122.898 242.808,126.065 244.5,129C 244.167,129.5 243.833,130 243.5,130.5C 241.219,127.772 238.219,126.772 234.5,127.5C 234.5,130.167 234.5,132.833 234.5,135.5C 230.684,136.909 227.017,138.576 223.5,140.5C 223.657,141.873 223.49,143.207 223,144.5C 220.815,146.54 218.315,147.874 215.5,148.5C 215.657,149.873 215.49,151.207 215,152.5C 212.815,154.54 210.315,155.874 207.5,156.5C 207.657,157.873 207.49,159.207 207,160.5C 204.815,162.54 202.315,163.874 199.5,164.5C 199.5,165.5 199.5,166.5 199.5,167.5C 197.833,167.5 196.167,167.5 194.5,167.5C 194.5,170.167 194.5,172.833 194.5,175.5C 190.684,176.909 187.017,178.576 183.5,180.5C 183.657,181.873 183.49,183.207 183,184.5C 180.815,186.54 178.315,187.874 175.5,188.5C 175.657,189.873 175.49,191.207 175,192.5C 172.815,194.54 170.315,195.874 167.5,196.5C 166.892,200.472 166.392,204.472 166,208.5C 163.323,210.633 163.323,212.3 166,213.5C 166.309,214.766 166.809,215.933 167.5,217C 169.587,216.782 171.587,216.949 173.5,217.5C 172.833,218.167 172.167,218.833 171.5,219.5C 172.63,220.622 173.297,221.956 173.5,223.5C 170.455,220.453 167.122,217.787 163.5,215.5C 159.211,210.039 154.711,204.706 150,199.5C 145.689,194.044 142.523,188.044 140.5,181.5C 141.229,176.87 141.563,172.203 141.5,167.5C 140.5,167.5 139.5,167.5 138.5,167.5C 138.897,163.42 137.897,159.754 135.5,156.5C 136.06,154.146 136.727,151.813 137.5,149.5C 138.852,150.518 139.852,151.851 140.5,153.5C 141.425,152.643 142.092,151.643 142.5,150.5C 143.15,150.804 143.817,151.137 144.5,151.5C 145.48,148.914 145.813,146.247 145.5,143.5C 147.5,143.5 149.5,143.5 151.5,143.5C 151.351,142.448 151.517,141.448 152,140.5C 156.971,136.774 161.471,132.608 165.5,128C 166.793,127.51 168.127,127.343 169.5,127.5C 169.5,124.833 169.5,122.167 169.5,119.5C 172.167,119.5 174.833,119.5 177.5,119.5C 177.5,116.833 177.5,114.167 177.5,111.5C 180.167,111.5 182.833,111.5 185.5,111.5C 185.5,108.833 185.5,106.167 185.5,103.5C 187.5,103.5 189.5,103.5 191.5,103.5C 191.5,100.833 191.5,98.1667 191.5,95.5C 194.167,95.5 196.833,95.5 199.5,95.5C 199.5,92.8333 199.5,90.1667 199.5,87.5C 202.167,87.5 204.833,87.5 207.5,87.5C 207.5,84.8333 207.5,82.1667 207.5,79.5C 210.167,79.5 212.833,79.5 215.5,79.5C 215.5,76.8333 215.5,74.1667 215.5,71.5C 217.167,71.5 218.833,71.5 220.5,71.5C 220.5,68.8333 220.5,66.1667 220.5,63.5C 223.167,63.5 225.833,63.5 228.5,63.5C 228.5,60.8333 228.5,58.1667 228.5,55.5C 231.167,55.5 233.833,55.5 236.5,55.5C 236.5,52.8333 236.5,50.1667 236.5,47.5C 238.288,47.7852 239.955,47.4519 241.5,46.5C 242.945,44.9373 244.611,43.604 246.5,42.5C 247.386,41.675 247.719,40.675 247.5,39.5C 249.167,39.5 250.833,39.5 252.5,39.5C 252.5,36.8333 252.5,34.1667 252.5,31.5C 254.288,31.7852 255.955,31.4519 257.5,30.5C 258.945,28.9373 260.611,27.604 262.5,26.5C 263.386,25.675 263.719,24.675 263.5,23.5C 265.167,23.5 266.833,23.5 268.5,23.5C 268.5,20.8333 268.5,18.1667 268.5,15.5C 277.472,14.6529 286.472,14.3195 295.5,14.5C 295.5,13.1667 295.5,11.8333 295.5,10.5C 290.167,10.5 284.833,10.5 279.5,10.5C 279.5,9.5 279.5,8.5 279.5,7.5C 276.565,6.48423 270.232,5.98423 260.5,6C 277.649,5.01668 294.649,4.18335 311.5,3.5C 316.507,3.24908 321.507,2.91574 326.5,2.5 Z"/></g>
<g><path style="opacity:1" fill="#3821d8" d="M 326.5,2.5 C 321.507,2.91574 316.507,3.24908 311.5,3.5C 234.164,3.16669 156.83,3.50002 79.5,4.5C 77.231,5.81526 74.8977,6.98193 72.5,8C 73.6667,8.16667 74.8333,8.33333 76,8.5C 83.8263,5.87328 91.6596,5.87328 99.5,8.5C 104.151,7.96742 108.818,7.63409 113.5,7.5C 139.49,8.57381 165.49,9.24048 191.5,9.5C 191.5,10.5 191.5,11.5 191.5,12.5C 179.193,12.844 166.86,13.0107 154.5,13C 150.954,14.1737 147.287,14.8404 143.5,15C 145.134,15.4935 146.801,15.6602 148.5,15.5C 148.5,18.1667 148.5,20.8333 148.5,23.5C 146.833,23.5 145.167,23.5 143.5,23.5C 143.5,24.5 143.5,25.5 143.5,26.5C 139.983,28.424 136.316,30.0906 132.5,31.5C 132.5,34.1667 132.5,36.8333 132.5,39.5C 129.833,39.5 127.167,39.5 124.5,39.5C 124.5,42.1667 124.5,44.8333 124.5,47.5C 122.833,47.5 121.167,47.5 119.5,47.5C 119.5,50.1667 119.5,52.8333 119.5,55.5C 116.833,55.5 114.167,55.5 111.5,55.5C 111.5,58.1667 111.5,60.8333 111.5,63.5C 108.833,63.5 106.167,63.5 103.5,63.5C 103.5,66.1667 103.5,68.8333 103.5,71.5C 100.833,71.5 98.1667,71.5 95.5,71.5C 95.5,74.1667 95.5,76.8333 95.5,79.5C 92.8333,79.5 90.1667,79.5 87.5,79.5C 87.5,82.1667 87.5,84.8333 87.5,87.5C 85.1667,87.5 82.8333,87.5 80.5,87.5C 80.5,90.1667 80.5,92.8333 80.5,95.5C 77.8333,95.5 75.1667,95.5 72.5,95.5C 72.5,98.1667 72.5,100.833 72.5,103.5C 69.8333,103.5 67.1667,103.5 64.5,103.5C 64.577,107.215 64.2436,110.881 63.5,114.5C 60.8602,114.954 58.5268,116.121 56.5,118C 55.6198,119.356 55.2865,120.856 55.5,122.5C 52.8602,122.954 50.5268,124.121 48.5,126C 47.6198,127.356 47.2865,128.856 47.5,130.5C 44.8602,130.954 42.5268,132.121 40.5,134C 39.6198,135.356 39.2865,136.856 39.5,138.5C 36.8602,138.954 34.5268,140.121 32.5,142C 31.6198,143.356 31.2865,144.856 31.5,146.5C 28.8602,146.954 26.5268,148.121 24.5,150C 23.6198,151.356 23.2865,152.856 23.5,154.5C 20.632,155.353 17.9653,156.686 15.5,158.5C 15.5,134.833 15.5,111.167 15.5,87.5C 16.5,87.5 17.5,87.5 18.5,87.5C 18.5,84.8333 18.5,82.1667 18.5,79.5C 21.1667,79.5 23.8333,79.5 26.5,79.5C 26.5,76.8333 26.5,74.1667 26.5,71.5C 28.1667,71.5 29.8333,71.5 31.5,71.5C 31.5,68.8333 31.5,66.1667 31.5,63.5C 34.1667,63.5 36.8333,63.5 39.5,63.5C 39.5,60.8333 39.5,58.1667 39.5,55.5C 42.1667,55.5 44.8333,55.5 47.5,55.5C 47.5,52.8333 47.5,50.1667 47.5,47.5C 50.1667,47.5 52.8333,47.5 55.5,47.5C 55.5,44.8333 55.5,42.1667 55.5,39.5C 57.8333,39.5 60.1667,39.5 62.5,39.5C 62.5,36.8333 62.5,34.1667 62.5,31.5C 65.1667,31.5 67.8333,31.5 70.5,31.5C 70.423,27.7852 70.7564,24.1185 71.5,20.5C 74.4886,19.7016 77.1552,18.2016 79.5,16C 84.8642,15.8295 90.1975,15.3295 95.5,14.5C 83.8563,13.9362 72.1896,13.9362 60.5,14.5C 60.5,13.5 60.5,12.5 60.5,11.5C 58.8333,11.5 57.1667,11.5 55.5,11.5C 55.5,12.5 55.5,13.5 55.5,14.5C 55.9483,16.0535 53.2817,16.0535 47.5,14.5C 52.0198,11.2119 57.0198,8.87856 62.5,7.5C 63.3857,8.32496 63.719,9.32496 63.5,10.5C 68.9233,10.5237 74.2566,11.1903 79.5,12.5C 79.5,11.5 79.5,10.5 79.5,9.5C 76.8127,9.66409 74.146,9.49742 71.5,9C 70.0267,8.29044 69.3601,7.12377 69.5,5.5C 63.9963,5.54204 58.663,6.54204 53.5,8.5C 52.8333,8.33333 52.1667,8.16667 51.5,8C 53.0664,7.3918 54.3998,6.55847 55.5,5.5C 57.8902,3.98023 60.5568,2.98023 63.5,2.5C 66.1667,2.5 68.8333,2.5 71.5,2.5C 156.666,2.32037 241.666,2.32037 326.5,2.5 Z"/></g>
<g><path style="opacity:1" fill="#3520d4" d="M 55.5,5.5 C 54.3998,6.55847 53.0664,7.3918 51.5,8C 52.1667,8.16667 52.8333,8.33333 53.5,8.5C 58.663,6.54204 63.9963,5.54204 69.5,5.5C 69.3601,7.12377 70.0267,8.29044 71.5,9C 74.146,9.49742 76.8127,9.66409 79.5,9.5C 79.5,10.5 79.5,11.5 79.5,12.5C 74.2566,11.1903 68.9233,10.5237 63.5,10.5C 63.719,9.32496 63.3857,8.32496 62.5,7.5C 57.0198,8.87856 52.0198,11.2119 47.5,14.5C 53.2817,16.0535 55.9483,16.0535 55.5,14.5C 55.5,13.5 55.5,12.5 55.5,11.5C 57.1667,11.5 58.8333,11.5 60.5,11.5C 60.5,12.5 60.5,13.5 60.5,14.5C 72.1896,13.9362 83.8563,13.9362 95.5,14.5C 90.1975,15.3295 84.8642,15.8295 79.5,16C 77.1552,18.2016 74.4886,19.7016 71.5,20.5C 70.7564,24.1185 70.423,27.7852 70.5,31.5C 67.8333,31.5 65.1667,31.5 62.5,31.5C 62.5,34.1667 62.5,36.8333 62.5,39.5C 60.1667,39.5 57.8333,39.5 55.5,39.5C 55.5,42.1667 55.5,44.8333 55.5,47.5C 52.8333,47.5 50.1667,47.5 47.5,47.5C 47.5,50.1667 47.5,52.8333 47.5,55.5C 44.8333,55.5 42.1667,55.5 39.5,55.5C 39.5,58.1667 39.5,60.8333 39.5,63.5C 36.8333,63.5 34.1667,63.5 31.5,63.5C 31.5,66.1667 31.5,68.8333 31.5,71.5C 29.8333,71.5 28.1667,71.5 26.5,71.5C 26.5,74.1667 26.5,76.8333 26.5,79.5C 23.8333,79.5 21.1667,79.5 18.5,79.5C 18.5,82.1667 18.5,84.8333 18.5,87.5C 17.5,87.5 16.5,87.5 15.5,87.5C 15.5,111.167 15.5,134.833 15.5,158.5C 15.5,193.5 15.5,228.5 15.5,263.5C 12.8436,265.627 12.5103,249.627 14.5,215.5C 13.2655,167.298 13.2655,119.131 14.5,71C 14.3333,68.1667 14.1667,65.3333 14,62.5C 13.586,62.0426 13.086,61.7093 12.5,61.5C 11.3571,67.4994 11.3571,73.4994 12.5,79.5C 11.5,79.5 10.5,79.5 9.5,79.5C 9.79156,124.847 9.45823,170.18 8.5,215.5C 8.9803,228.992 8.4803,242.325 7,255.5C 6.48935,196.786 5.65601,138.119 4.5,79.5C 4.16667,79.8333 3.83333,80.1667 3.5,80.5C 3.98672,81.4461 4.32006,82.4461 4.5,83.5C 2.75012,156.805 2.08346,230.138 2.5,303.5C 1.50075,229.002 1.16742,154.335 1.5,79.5C 1.83333,74.1667 2.16667,68.8333 2.5,63.5C 3.85255,55.7028 6.85255,48.7028 11.5,42.5C 13.0627,39.0991 15.5627,36.4324 19,34.5C 22.5,27 28,21.5 35.5,18C 36.3862,16.3853 37.3862,14.8853 38.5,13.5C 43.4893,9.50657 49.156,6.8399 55.5,5.5 Z"/></g>
<g><path style="opacity:1" fill="#4e2ce7" d="M 360.5,14.5 C 361.167,14.5 361.833,14.5 362.5,14.5C 363.423,17.2596 365.256,19.2596 368,20.5C 368.483,21.448 368.649,22.448 368.5,23.5C 370.484,23.3832 372.15,24.0499 373.5,25.5C 377.799,32.1284 382.799,38.1284 388.5,43.5C 392.37,49.6081 395.037,56.2747 396.5,63.5C 396.833,68.8333 397.167,74.1667 397.5,79.5C 396.679,157.517 396.346,235.517 396.5,313.5C 395.158,238.631 394.158,163.631 393.5,88.5C 393.709,87.914 394.043,87.414 394.5,87C 393.233,81.6103 392.399,76.1103 392,70.5C 389.749,73.0172 388.916,76.0172 389.5,79.5C 388.5,79.5 387.5,79.5 386.5,79.5C 387.167,74.1667 387.833,68.8333 388.5,63.5C 389.675,63.719 390.675,63.3857 391.5,62.5C 390.132,60.363 389.132,58.0297 388.5,55.5C 387.548,57.0453 387.215,58.712 387.5,60.5C 386.5,60.5 385.5,60.5 384.5,60.5C 383.855,57.4532 384.855,55.2865 387.5,54C 386.598,51.7984 385.598,49.6317 384.5,47.5C 384.728,50.1092 384.395,52.7759 383.5,55.5C 381.167,55.5 378.833,55.5 376.5,55.5C 376.223,58.4475 376.556,61.2809 377.5,64C 374.587,63.7097 371.587,63.5431 368.5,63.5C 368.223,66.4475 368.556,69.2809 369.5,72C 366.587,71.7097 363.587,71.5431 360.5,71.5C 360.666,76.8437 360.499,82.1771 360,87.5C 359.503,84.854 359.336,82.1873 359.5,79.5C 358.5,79.5 357.5,79.5 356.5,79.5C 356.5,82.1667 356.5,84.8333 356.5,87.5C 355.167,87.5 353.833,87.5 352.5,87.5C 352.664,90.1873 352.497,92.854 352,95.5C 351.506,93.8659 351.34,92.1992 351.5,90.5C 348.86,90.954 346.527,92.1207 344.5,94C 343.62,95.3561 343.286,96.8561 343.5,98.5C 340.86,98.954 338.527,100.121 336.5,102C 335.62,103.356 335.286,104.856 335.5,106.5C 332.86,106.954 330.527,108.121 328.5,110C 327.62,111.356 327.286,112.856 327.5,114.5C 323.983,116.424 320.316,118.091 316.5,119.5C 316.5,122.167 316.5,124.833 316.5,127.5C 314.833,127.5 313.167,127.5 311.5,127.5C 311.5,128.5 311.5,129.5 311.5,130.5C 308.86,130.954 306.527,132.121 304.5,134C 303.62,135.356 303.286,136.856 303.5,138.5C 300.511,139.298 297.845,140.798 295.5,143C 304.968,145.728 304.635,147.061 294.5,147C 292.779,148.527 290.779,149.527 288.5,150C 289.071,151.205 289.738,152.372 290.5,153.5C 291.736,152.754 293.07,152.421 294.5,152.5C 293.449,153.222 292.782,154.222 292.5,155.5C 291.655,156.671 290.989,158.005 290.5,159.5C 286.68,167.809 282.347,175.809 277.5,183.5C 274.879,183.523 273.545,182.189 273.5,179.5C 274.5,177.833 275.5,176.167 276.5,174.5C 274.896,172.821 274.229,170.821 274.5,168.5C 274.5,168.167 274.5,167.833 274.5,167.5C 275.117,167.389 275.617,167.056 276,166.5C 276.109,161.386 276.776,156.386 278,151.5C 278.667,146.5 278.667,141.5 278,136.5C 276.951,133.126 275.118,130.292 272.5,128C 271.207,127.51 269.873,127.343 268.5,127.5C 266.143,127.337 263.81,127.503 261.5,128C 259.34,129.332 257.34,130.832 255.5,132.5C 254.25,132.577 253.417,133.244 253,134.5C 252.667,140.833 252.333,147.167 252,153.5C 250.056,154.925 248.889,157.425 248.5,161C 249.33,162.465 249.496,163.965 249,165.5C 248.111,164.112 247.611,164.278 247.5,166C 248.367,169.105 248.701,172.272 248.5,175.5C 245.547,187.069 240.714,197.736 234,207.5C 228.321,216.675 221.155,224.341 212.5,230.5C 210.857,230.52 209.524,229.853 208.5,228.5C 207.571,229.689 207.238,231.022 207.5,232.5C 202.833,231.3 198.166,231.3 193.5,232.5C 188.948,230.99 184.614,229.323 180.5,227.5C 180.36,225.876 181.027,224.71 182.5,224C 180.19,223.503 177.857,223.337 175.5,223.5C 174.833,223.5 174.167,223.5 173.5,223.5C 173.297,221.956 172.63,220.622 171.5,219.5C 172.167,218.833 172.833,218.167 173.5,217.5C 171.587,216.949 169.587,216.782 167.5,217C 166.809,215.933 166.309,214.766 166,213.5C 163.323,212.3 163.323,210.633 166,208.5C 166.392,204.472 166.892,200.472 167.5,196.5C 170.315,195.874 172.815,194.54 175,192.5C 175.49,191.207 175.657,189.873 175.5,188.5C 178.315,187.874 180.815,186.54 183,184.5C 183.49,183.207 183.657,181.873 183.5,180.5C 187.017,178.576 190.684,176.909 194.5,175.5C 194.5,172.833 194.5,170.167 194.5,167.5C 196.167,167.5 197.833,167.5 199.5,167.5C 199.5,166.5 199.5,165.5 199.5,164.5C 202.315,163.874 204.815,162.54 207,160.5C 207.49,159.207 207.657,157.873 207.5,156.5C 210.315,155.874 212.815,154.54 215,152.5C 215.49,151.207 215.657,149.873 215.5,148.5C 218.315,147.874 220.815,146.54 223,144.5C 223.49,143.207 223.657,141.873 223.5,140.5C 227.017,138.576 230.684,136.909 234.5,135.5C 234.5,132.833 234.5,130.167 234.5,127.5C 238.219,126.772 241.219,127.772 243.5,130.5C 243.833,130 244.167,129.5 244.5,129C 242.808,126.065 242.142,122.898 242.5,119.5C 245.167,119.5 247.833,119.5 250.5,119.5C 250.5,116.833 250.5,114.167 250.5,111.5C 252.167,111.5 253.833,111.5 255.5,111.5C 255.5,108.833 255.5,106.167 255.5,103.5C 258.167,103.5 260.833,103.5 263.5,103.5C 263.5,100.833 263.5,98.1667 263.5,95.5C 266.167,95.5 268.833,95.5 271.5,95.5C 271.5,92.8333 271.5,90.1667 271.5,87.5C 273.833,87.5 276.167,87.5 278.5,87.5C 278.5,84.8333 278.5,82.1667 278.5,79.5C 281.167,79.5 283.833,79.5 286.5,79.5C 286.5,76.8333 286.5,74.1667 286.5,71.5C 289.167,71.5 291.833,71.5 294.5,71.5C 294.5,68.8333 294.5,66.1667 294.5,63.5C 297.167,63.5 299.833,63.5 302.5,63.5C 302.423,59.7852 302.756,56.1185 303.5,52.5C 307.017,50.576 310.684,48.9094 314.5,47.5C 314.5,44.8333 314.5,42.1667 314.5,39.5C 316.167,39.5 317.833,39.5 319.5,39.5C 319.5,38.5 319.5,37.5 319.5,36.5C 322.315,35.8736 324.815,34.5402 327,32.5C 327.49,31.2068 327.657,29.8734 327.5,28.5C 330.315,27.8736 332.815,26.5402 335,24.5C 335.49,23.2068 335.657,21.8734 335.5,20.5C 338.489,19.7016 341.155,18.2016 343.5,16C 338.459,14.9924 338.792,14.4924 344.5,14.5C 344.281,13.325 344.614,12.325 345.5,11.5C 350.078,14.9562 355.078,15.9562 360.5,14.5 Z"/></g>
<g><path style="opacity:1" fill="#5343bb" d="M 38.5,13.5 C 37.3862,14.8853 36.3862,16.3853 35.5,18C 28,21.5 22.5,27 19,34.5C 15.5627,36.4324 13.0627,39.0991 11.5,42.5C 17.3662,29.9654 26.3662,20.2987 38.5,13.5 Z"/></g>
<g><path style="opacity:1" fill="#664acf" d="M 362.5,14.5 C 374.037,21.6978 382.704,31.3645 388.5,43.5C 382.799,38.1284 377.799,32.1284 373.5,25.5C 372.15,24.0499 370.484,23.3832 368.5,23.5C 368.649,22.448 368.483,21.448 368,20.5C 365.256,19.2596 363.423,17.2596 362.5,14.5 Z"/></g>
<g><path style="opacity:1" fill="#552fec" d="M 389.5,79.5 C 389.633,96.8421 389.3,114.175 388.5,131.5C 390.296,151.398 390.962,171.398 390.5,191.5C 388.833,191.5 387.167,191.5 385.5,191.5C 385.833,177.151 385.499,162.818 384.5,148.5C 382.951,152.778 379.951,155.445 375.5,156.5C 374.756,160.119 374.423,163.785 374.5,167.5C 371.833,167.5 369.167,167.5 366.5,167.5C 366.5,170.167 366.5,172.833 366.5,175.5C 364.167,175.5 361.833,175.5 359.5,175.5C 359.5,178.167 359.5,180.833 359.5,183.5C 356.833,183.5 354.167,183.5 351.5,183.5C 351.5,186.167 351.5,188.833 351.5,191.5C 348.833,191.5 346.167,191.5 343.5,191.5C 343.5,194.167 343.5,196.833 343.5,199.5C 340.833,199.5 338.167,199.5 335.5,199.5C 335.48,208.741 334.814,208.741 333.5,199.5C 332.767,203.174 332.101,206.841 331.5,210.5C 333.071,213.023 332.571,215.023 330,216.5C 329.517,215.552 329.351,214.552 329.5,213.5C 328.5,213.5 327.5,213.5 326.5,213.5C 330.056,210.28 331.723,206.28 331.5,201.5C 331.705,194.295 328.205,190.961 321,191.5C 319.615,191.514 318.449,191.848 317.5,192.5C 317.167,192.5 316.833,192.5 316.5,192.5C 314.856,192.714 313.356,192.38 312,191.5C 310.991,193.025 310.491,194.692 310.5,196.5C 308.549,196.227 307.049,196.893 306,198.5C 301.177,196.187 299.677,192.521 301.5,187.5C 303.392,186.298 305.226,184.965 307,183.5C 308.772,171.606 310.272,171.606 311.5,183.5C 312.086,183.291 312.586,182.957 313,182.5C 313.27,175.555 313.27,168.555 313,161.5C 314.806,163.952 316.306,163.619 317.5,160.5C 315.604,159.534 313.604,159.201 311.5,159.5C 311.5,158.5 311.5,157.5 311.5,156.5C 314.957,156.333 315.29,155.333 312.5,153.5C 310.821,155.104 308.821,155.771 306.5,155.5C 306.196,154.85 305.863,154.183 305.5,153.5C 301.893,152.511 298.226,152.177 294.5,152.5C 293.07,152.421 291.736,152.754 290.5,153.5C 289.738,152.372 289.071,151.205 288.5,150C 290.779,149.527 292.779,148.527 294.5,147C 304.635,147.061 304.968,145.728 295.5,143C 297.845,140.798 300.511,139.298 303.5,138.5C 303.286,136.856 303.62,135.356 304.5,134C 306.527,132.121 308.86,130.954 311.5,130.5C 311.5,129.5 311.5,128.5 311.5,127.5C 313.167,127.5 314.833,127.5 316.5,127.5C 316.5,124.833 316.5,122.167 316.5,119.5C 320.316,118.091 323.983,116.424 327.5,114.5C 327.286,112.856 327.62,111.356 328.5,110C 330.527,108.121 332.86,106.954 335.5,106.5C 335.286,104.856 335.62,103.356 336.5,102C 338.527,100.121 340.86,98.954 343.5,98.5C 343.286,96.8561 343.62,95.3561 344.5,94C 346.527,92.1207 348.86,90.954 351.5,90.5C 351.34,92.1992 351.506,93.8659 352,95.5C 352.497,92.854 352.664,90.1873 352.5,87.5C 353.833,87.5 355.167,87.5 356.5,87.5C 356.5,84.8333 356.5,82.1667 356.5,79.5C 357.5,79.5 358.5,79.5 359.5,79.5C 359.336,82.1873 359.503,84.854 360,87.5C 360.499,82.1771 360.666,76.8437 360.5,71.5C 363.587,71.5431 366.587,71.7097 369.5,72C 368.556,69.2809 368.223,66.4475 368.5,63.5C 371.587,63.5431 374.587,63.7097 377.5,64C 376.556,61.2809 376.223,58.4475 376.5,55.5C 378.833,55.5 381.167,55.5 383.5,55.5C 384.395,52.7759 384.728,50.1092 384.5,47.5C 385.598,49.6317 386.598,51.7984 387.5,54C 384.855,55.2865 383.855,57.4532 384.5,60.5C 385.5,60.5 386.5,60.5 387.5,60.5C 387.215,58.712 387.548,57.0453 388.5,55.5C 389.132,58.0297 390.132,60.363 391.5,62.5C 390.675,63.3857 389.675,63.719 388.5,63.5C 387.833,68.8333 387.167,74.1667 386.5,79.5C 387.5,79.5 388.5,79.5 389.5,79.5 Z"/></g>
<g><path style="opacity:1" fill="#916dfc" d="M 396.5,63.5 C 397.743,67.7856 398.743,72.1189 399.5,76.5C 399.5,157.5 399.5,238.5 399.5,319.5C 399.167,319.5 398.833,319.5 398.5,319.5C 398.833,239.332 398.499,159.332 397.5,79.5C 397.167,74.1667 396.833,68.8333 396.5,63.5 Z"/></g>
<g><path style="opacity:1" fill="#5f38db" d="M 397.5,79.5 C 398.499,159.332 398.833,239.332 398.5,319.5C 398.495,323.534 398.162,327.534 397.5,331.5C 397.768,333.099 397.434,334.432 396.5,335.5C 396.5,330.167 396.5,324.833 396.5,319.5C 396.5,317.5 396.5,315.5 396.5,313.5C 396.346,235.517 396.679,157.517 397.5,79.5 Z"/></g>
<g><path style="opacity:1" fill="#edebf9" d="M 135.5,145.5 C 133.248,148.338 131.248,151.338 129.5,154.5C 131.508,164.229 135.175,173.229 140.5,181.5C 142.523,188.044 145.689,194.044 150,199.5C 154.711,204.706 159.211,210.039 163.5,215.5C 162.325,215.281 161.325,215.614 160.5,216.5C 159.917,218.002 159.084,219.335 158,220.5C 157.301,222.074 157.635,223.407 159,224.5C 164.721,223.295 164.887,223.961 159.5,226.5C 156.833,223.833 154.167,221.167 151.5,218.5C 149.565,214.293 146.898,210.627 143.5,207.5C 137.252,195.664 132.085,183.33 128,170.5C 126.841,164.534 126.007,158.534 125.5,152.5C 112.701,148.449 108.701,140.116 113.5,127.5C 113.833,127.5 114.167,127.5 114.5,127.5C 112.456,135.083 113.789,141.917 118.5,148C 119.448,148.483 120.448,148.649 121.5,148.5C 121.5,147.5 121.5,146.5 121.5,145.5C 123.903,145.393 125.736,146.393 127,148.5C 126.008,151.57 126.341,154.57 128,157.5C 128.361,154.475 128.861,151.475 129.5,148.5C 129.272,146.603 128.272,145.27 126.5,144.5C 125.548,142.955 125.215,141.288 125.5,139.5C 124.5,139.5 123.5,139.5 122.5,139.5C 122.281,135.622 121.281,131.956 119.5,128.5C 121.296,125.3 123.629,124.8 126.5,127C 125.552,127.483 124.552,127.649 123.5,127.5C 123.643,130.097 124.477,132.431 126,134.5C 126.915,133.672 127.581,132.672 128,131.5C 129.216,133.962 129.882,136.629 130,139.5C 133.669,137.991 135.169,139.324 134.5,143.5C 133.5,143.5 132.5,143.5 131.5,143.5C 131.343,144.873 131.51,146.207 132,147.5C 132.816,146.177 133.983,145.511 135.5,145.5 Z"/></g>
<g><path style="opacity:1" fill="#f1f2f4" d="M 137.5,141.5 C 137.267,143.062 136.6,144.395 135.5,145.5C 133.983,145.511 132.816,146.177 132,147.5C 131.51,146.207 131.343,144.873 131.5,143.5C 132.5,143.5 133.5,143.5 134.5,143.5C 135.169,139.324 133.669,137.991 130,139.5C 129.882,136.629 129.216,133.962 128,131.5C 127.581,132.672 126.915,133.672 126,134.5C 124.477,132.431 123.643,130.097 123.5,127.5C 124.552,127.649 125.552,127.483 126.5,127C 123.629,124.8 121.296,125.3 119.5,128.5C 121.281,131.956 122.281,135.622 122.5,139.5C 123.5,139.5 124.5,139.5 125.5,139.5C 125.215,141.288 125.548,142.955 126.5,144.5C 128.272,145.27 129.272,146.603 129.5,148.5C 128.861,151.475 128.361,154.475 128,157.5C 126.341,154.57 126.008,151.57 127,148.5C 125.736,146.393 123.903,145.393 121.5,145.5C 121.5,146.5 121.5,147.5 121.5,148.5C 120.448,148.649 119.448,148.483 118.5,148C 113.789,141.917 112.456,135.083 114.5,127.5C 115.167,127.167 115.833,126.833 116.5,126.5C 121.734,121.066 126.734,121.233 131.5,127C 130.833,127.333 130.167,127.667 129.5,128C 130.552,129.119 131.719,129.619 133,129.5C 133.617,130.449 133.451,131.282 132.5,132C 133.849,132.772 134.682,133.939 135,135.5C 136.011,134.663 137.178,134.33 138.5,134.5C 138.007,136.806 137.674,139.139 137.5,141.5 Z"/></g>
<g><path style="opacity:1" fill="#7966fb" d="M 2.5,63.5 C 2.16667,68.8333 1.83333,74.1667 1.5,79.5C 0.500701,159.332 0.167368,239.332 0.5,319.5C 0.166667,319.5 -0.166667,319.5 -0.5,319.5C -0.5,238.167 -0.5,156.833 -0.5,75.5C 0.684206,71.5387 1.68421,67.5387 2.5,63.5 Z"/></g>
<g><path style="opacity:1" fill="#5b3fcf" d="M 268.5,127.5 C 269.873,127.343 271.207,127.51 272.5,128C 275.118,130.292 276.951,133.126 278,136.5C 278.667,141.5 278.667,146.5 278,151.5C 276.776,156.386 276.109,161.386 276,166.5C 275.617,167.056 275.117,167.389 274.5,167.5C 275.265,164.904 275.599,162.237 275.5,159.5C 276.352,151.179 276.519,142.846 276,134.5C 273.604,131.933 271.104,129.6 268.5,127.5 Z"/></g>
<g><path style="opacity:1" fill="#3f25dd" d="M 311.5,3.5 C 294.649,4.18335 277.649,5.01668 260.5,6C 270.232,5.98423 276.565,6.48423 279.5,7.5C 279.5,8.5 279.5,9.5 279.5,10.5C 284.833,10.5 290.167,10.5 295.5,10.5C 295.5,11.8333 295.5,13.1667 295.5,14.5C 286.472,14.3195 277.472,14.6529 268.5,15.5C 268.5,18.1667 268.5,20.8333 268.5,23.5C 266.833,23.5 265.167,23.5 263.5,23.5C 263.719,24.675 263.386,25.675 262.5,26.5C 260.611,27.604 258.945,28.9373 257.5,30.5C 255.955,31.4519 254.288,31.7852 252.5,31.5C 252.5,34.1667 252.5,36.8333 252.5,39.5C 250.833,39.5 249.167,39.5 247.5,39.5C 247.719,40.675 247.386,41.675 246.5,42.5C 244.611,43.604 242.945,44.9373 241.5,46.5C 239.955,47.4519 238.288,47.7852 236.5,47.5C 236.5,50.1667 236.5,52.8333 236.5,55.5C 233.833,55.5 231.167,55.5 228.5,55.5C 228.5,58.1667 228.5,60.8333 228.5,63.5C 225.833,63.5 223.167,63.5 220.5,63.5C 220.5,66.1667 220.5,68.8333 220.5,71.5C 218.833,71.5 217.167,71.5 215.5,71.5C 215.5,74.1667 215.5,76.8333 215.5,79.5C 212.833,79.5 210.167,79.5 207.5,79.5C 207.5,82.1667 207.5,84.8333 207.5,87.5C 204.833,87.5 202.167,87.5 199.5,87.5C 199.5,90.1667 199.5,92.8333 199.5,95.5C 196.833,95.5 194.167,95.5 191.5,95.5C 191.5,98.1667 191.5,100.833 191.5,103.5C 189.5,103.5 187.5,103.5 185.5,103.5C 185.5,106.167 185.5,108.833 185.5,111.5C 182.833,111.5 180.167,111.5 177.5,111.5C 177.5,114.167 177.5,116.833 177.5,119.5C 174.833,119.5 172.167,119.5 169.5,119.5C 169.5,122.167 169.5,124.833 169.5,127.5C 168.127,127.343 166.793,127.51 165.5,128C 161.471,132.608 156.971,136.774 152,140.5C 151.517,141.448 151.351,142.448 151.5,143.5C 149.5,143.5 147.5,143.5 145.5,143.5C 145.813,146.247 145.48,148.914 144.5,151.5C 143.817,151.137 143.15,150.804 142.5,150.5C 140.273,148.399 139.94,145.899 141.5,143C 140.854,139.188 140.354,135.354 140,131.5C 139.26,129.681 138.093,128.348 136.5,127.5C 133.397,125.577 130.397,123.41 127.5,121C 122.353,119.999 118.687,121.832 116.5,126.5C 115.833,126.833 115.167,127.167 114.5,127.5C 114.167,127.5 113.833,127.5 113.5,127.5C 112.063,128.725 110.396,129.725 108.5,130.5C 107.167,134.5 105.833,138.5 104.5,142.5C 101.572,143.484 98.5719,143.817 95.5,143.5C 95.5,144.5 95.5,145.5 95.5,146.5C 99.2214,146.809 102.721,147.809 106,149.5C 106.19,153.076 107.357,156.242 109.5,159C 108.207,159.49 106.873,159.657 105.5,159.5C 105.703,157.61 105.037,156.11 103.5,155C 100.264,153.848 96.9311,153.015 93.5,152.5C 92.263,152.556 91.263,153.056 90.5,154C 92.1341,154.494 93.8008,154.66 95.5,154.5C 95.5,155.5 95.5,156.5 95.5,157.5C 94.5,157.5 93.5,157.5 92.5,157.5C 90.0108,157.298 87.6775,157.798 85.5,159C 78.416,166.084 77.7494,173.584 83.5,181.5C 83.5,182.5 83.5,183.5 83.5,184.5C 82.1266,184.343 80.7932,184.51 79.5,185C 81.9913,185.626 81.9913,186.459 79.5,187.5C 80.0522,189.003 80.0522,190.669 79.5,192.5C 74.0949,191.179 68.7616,191.512 63.5,193.5C 64.8333,194.167 66.1667,194.833 67.5,195.5C 62.5331,194.874 58.0331,196.207 54,199.5C 51.9769,206.731 51.4769,214.064 52.5,221.5C 52,223.5 51.5,225.5 51,227.5C 49.9887,228.337 48.8221,228.67 47.5,228.5C 47.6567,229.873 47.49,231.207 47,232.5C 44.8149,234.54 42.3149,235.874 39.5,236.5C 39.6567,237.873 39.49,239.207 39,240.5C 36.8149,242.54 34.3149,243.874 31.5,244.5C 31.6567,245.873 31.49,247.207 31,248.5C 28.8149,250.54 26.3149,251.874 23.5,252.5C 22.7564,256.119 22.423,259.785 22.5,263.5C 20.1667,263.5 17.8333,263.5 15.5,263.5C 15.5,228.5 15.5,193.5 15.5,158.5C 17.9653,156.686 20.632,155.353 23.5,154.5C 23.2865,152.856 23.6198,151.356 24.5,150C 26.5268,148.121 28.8602,146.954 31.5,146.5C 31.2865,144.856 31.6198,143.356 32.5,142C 34.5268,140.121 36.8602,138.954 39.5,138.5C 39.2865,136.856 39.6198,135.356 40.5,134C 42.5268,132.121 44.8602,130.954 47.5,130.5C 47.2865,128.856 47.6198,127.356 48.5,126C 50.5268,124.121 52.8602,122.954 55.5,122.5C 55.2865,120.856 55.6198,119.356 56.5,118C 58.5268,116.121 60.8602,114.954 63.5,114.5C 64.2436,110.881 64.577,107.215 64.5,103.5C 67.1667,103.5 69.8333,103.5 72.5,103.5C 72.5,100.833 72.5,98.1667 72.5,95.5C 75.1667,95.5 77.8333,95.5 80.5,95.5C 80.5,92.8333 80.5,90.1667 80.5,87.5C 82.8333,87.5 85.1667,87.5 87.5,87.5C 87.5,84.8333 87.5,82.1667 87.5,79.5C 90.1667,79.5 92.8333,79.5 95.5,79.5C 95.5,76.8333 95.5,74.1667 95.5,71.5C 98.1667,71.5 100.833,71.5 103.5,71.5C 103.5,68.8333 103.5,66.1667 103.5,63.5C 106.167,63.5 108.833,63.5 111.5,63.5C 111.5,60.8333 111.5,58.1667 111.5,55.5C 114.167,55.5 116.833,55.5 119.5,55.5C 119.5,52.8333 119.5,50.1667 119.5,47.5C 121.167,47.5 122.833,47.5 124.5,47.5C 124.5,44.8333 124.5,42.1667 124.5,39.5C 127.167,39.5 129.833,39.5 132.5,39.5C 132.5,36.8333 132.5,34.1667 132.5,31.5C 136.316,30.0906 139.983,28.424 143.5,26.5C 143.5,25.5 143.5,24.5 143.5,23.5C 145.167,23.5 146.833,23.5 148.5,23.5C 148.5,20.8333 148.5,18.1667 148.5,15.5C 146.801,15.6602 145.134,15.4935 143.5,15C 147.287,14.8404 150.954,14.1737 154.5,13C 166.86,13.0107 179.193,12.844 191.5,12.5C 191.5,11.5 191.5,10.5 191.5,9.5C 165.49,9.24048 139.49,8.57381 113.5,7.5C 108.818,7.63409 104.151,7.96742 99.5,8.5C 91.6596,5.87328 83.8263,5.87328 76,8.5C 74.8333,8.33333 73.6667,8.16667 72.5,8C 74.8977,6.98193 77.231,5.81526 79.5,4.5C 156.83,3.50002 234.164,3.16669 311.5,3.5 Z"/></g>
<g><path style="opacity:1" fill="#e5e0fa" d="M 136.5,127.5 C 137.537,130.186 138.537,132.852 139.5,135.5C 139.401,137.799 138.734,139.799 137.5,141.5C 137.674,139.139 138.007,136.806 138.5,134.5C 137.178,134.33 136.011,134.663 135,135.5C 134.682,133.939 133.849,132.772 132.5,132C 133.451,131.282 133.617,130.449 133,129.5C 131.719,129.619 130.552,129.119 129.5,128C 130.167,127.667 130.833,127.333 131.5,127C 126.734,121.233 121.734,121.066 116.5,126.5C 118.687,121.832 122.353,119.999 127.5,121C 130.397,123.41 133.397,125.577 136.5,127.5 Z"/></g>
<g><path style="opacity:1" fill="#6850ce" d="M 294.5,152.5 C 298.226,152.177 301.893,152.511 305.5,153.5C 305.863,154.183 306.196,154.85 306.5,155.5C 301.865,152.841 297.198,152.841 292.5,155.5C 292.782,154.222 293.449,153.222 294.5,152.5 Z"/></g>
<g><path style="opacity:1" fill="#593dd3" d="M 255.5,132.5 C 255.361,147.313 253.028,161.646 248.5,175.5C 248.701,172.272 248.367,169.105 247.5,166C 247.611,164.278 248.111,164.112 249,165.5C 249.496,163.965 249.33,162.465 248.5,161C 248.889,157.425 250.056,154.925 252,153.5C 252.333,147.167 252.667,140.833 253,134.5C 253.417,133.244 254.25,132.577 255.5,132.5 Z"/></g>
<g><path style="opacity:1" fill="#ede8fb" d="M 306.5,155.5 C 310.294,158.993 311.461,163.326 310,168.5C 308.787,170.925 307.621,173.259 306.5,175.5C 308.176,170.209 307.51,165.209 304.5,160.5C 307.136,158.936 306.969,157.603 304,156.5C 301.169,158.766 298.003,159.1 294.5,157.5C 293.133,158.225 291.8,158.892 290.5,159.5C 290.989,158.005 291.655,156.671 292.5,155.5C 297.198,152.841 301.865,152.841 306.5,155.5 Z"/></g>
<g><path style="opacity:1" fill="#482cd7" d="M 136.5,127.5 C 138.093,128.348 139.26,129.681 140,131.5C 140.354,135.354 140.854,139.188 141.5,143C 139.94,145.899 140.273,148.399 142.5,150.5C 142.092,151.643 141.425,152.643 140.5,153.5C 139.852,151.851 138.852,150.518 137.5,149.5C 136.727,151.813 136.06,154.146 135.5,156.5C 137.897,159.754 138.897,163.42 138.5,167.5C 139.5,167.5 140.5,167.5 141.5,167.5C 141.563,172.203 141.229,176.87 140.5,181.5C 135.175,173.229 131.508,164.229 129.5,154.5C 131.248,151.338 133.248,148.338 135.5,145.5C 136.6,144.395 137.267,143.062 137.5,141.5C 138.734,139.799 139.401,137.799 139.5,135.5C 138.537,132.852 137.537,130.186 136.5,127.5 Z"/></g>
<g><path style="opacity:1" fill="#5937df" d="M 301.5,187.5 C 303.173,183.489 304.84,179.489 306.5,175.5C 307.621,173.259 308.787,170.925 310,168.5C 311.461,163.326 310.294,158.993 306.5,155.5C 308.821,155.771 310.821,155.104 312.5,153.5C 315.29,155.333 314.957,156.333 311.5,156.5C 311.5,157.5 311.5,158.5 311.5,159.5C 313.604,159.201 315.604,159.534 317.5,160.5C 316.306,163.619 314.806,163.952 313,161.5C 313.27,168.555 313.27,175.555 313,182.5C 312.586,182.957 312.086,183.291 311.5,183.5C 310.272,171.606 308.772,171.606 307,183.5C 305.226,184.965 303.392,186.298 301.5,187.5 Z"/></g>
<g><path style="opacity:1" fill="#634ec3" d="M 106.5,168.5 C 107.139,169.097 107.472,169.93 107.5,171C 106.5,174.667 105.5,178.333 104.5,182C 105.033,184.226 105.7,186.393 106.5,188.5C 104.68,186.871 103.347,184.871 102.5,182.5C 104.447,177.995 105.78,173.328 106.5,168.5 Z"/></g>
<g><path style="opacity:1" fill="#472ade" d="M 113.5,127.5 C 108.701,140.116 112.701,148.449 125.5,152.5C 126.007,158.534 126.841,164.534 128,170.5C 132.085,183.33 137.252,195.664 143.5,207.5C 144.146,209.156 144.813,210.823 145.5,212.5C 145.278,214.055 144.611,215.389 143.5,216.5C 145.044,217.622 146.377,217.289 147.5,215.5C 148.852,216.524 150.185,217.524 151.5,218.5C 151.804,221.233 150.637,222.899 148,223.5C 145.526,221.287 142.693,219.954 139.5,219.5C 139.5,218.5 139.5,217.5 139.5,216.5C 137.5,216.5 135.5,216.5 133.5,216.5C 132.859,215.518 132.193,214.518 131.5,213.5C 132.167,212.5 132.833,211.5 133.5,210.5C 133,210.167 132.5,209.833 132,209.5C 130.7,210.707 129.2,211.374 127.5,211.5C 127.36,209.876 128.027,208.71 129.5,208C 128.101,207.405 126.768,207.572 125.5,208.5C 124.5,208.167 123.833,207.5 123.5,206.5C 124.853,205.476 125.52,204.143 125.5,202.5C 123.857,202.48 122.524,203.147 121.5,204.5C 120.583,203.873 119.583,203.539 118.5,203.5C 113.301,199.421 109.301,194.421 106.5,188.5C 105.7,186.393 105.033,184.226 104.5,182C 105.5,178.333 106.5,174.667 107.5,171C 107.472,169.93 107.139,169.097 106.5,168.5C 105.927,165.141 104.26,162.474 101.5,160.5C 98.277,159.814 95.277,158.814 92.5,157.5C 93.5,157.5 94.5,157.5 95.5,157.5C 95.5,156.5 95.5,155.5 95.5,154.5C 93.8008,154.66 92.1341,154.494 90.5,154C 91.263,153.056 92.263,152.556 93.5,152.5C 96.9311,153.015 100.264,153.848 103.5,155C 105.037,156.11 105.703,157.61 105.5,159.5C 106.873,159.657 108.207,159.49 109.5,159C 107.357,156.242 106.19,153.076 106,149.5C 102.721,147.809 99.2214,146.809 95.5,146.5C 95.5,145.5 95.5,144.5 95.5,143.5C 98.5719,143.817 101.572,143.484 104.5,142.5C 105.833,138.5 107.167,134.5 108.5,130.5C 110.396,129.725 112.063,128.725 113.5,127.5 Z"/></g>
<g><path style="opacity:1" fill="#472adf" d="M 83.5,181.5 C 88.2558,184.726 93.5891,186.392 99.5,186.5C 108.476,205.815 121.81,221.481 139.5,233.5C 139.525,236.179 140.858,237.512 143.5,237.5C 143.5,238.5 143.5,239.5 143.5,240.5C 145.429,240.231 147.095,240.731 148.5,242C 142.539,242.301 137.039,240.801 132,237.5C 127.447,240.348 122.614,241.015 117.5,239.5C 117.167,239.5 116.833,239.5 116.5,239.5C 114.964,236.908 112.631,235.908 109.5,236.5C 102.147,233.406 95.3136,229.406 89,224.5C 89.43,218.217 87.93,212.55 84.5,207.5C 84.0107,204.676 82.344,203.343 79.5,203.5C 79.719,202.325 79.3857,201.325 78.5,200.5C 77.3044,200.846 77.3044,201.346 78.5,202C 74.1667,202.667 69.8333,202.667 65.5,202C 66.8882,201.111 66.7215,200.611 65,200.5C 57.2065,202.894 55.0398,207.728 58.5,215C 58.3333,216.5 58.1667,218 58,219.5C 57.6174,220.056 57.1174,220.389 56.5,220.5C 55.1032,219.181 54.4365,217.514 54.5,215.5C 55.0466,212.174 55.5466,208.84 56,205.5C 57.5095,202.275 59.6761,200.442 62.5,200C 68.1339,198.253 73.8005,198.086 79.5,199.5C 79.5,198.5 79.5,197.5 79.5,196.5C 77.5714,196.769 75.9047,196.269 74.5,195C 76.5,194.667 78.5,194.333 80.5,194C 79.944,193.617 79.6107,193.117 79.5,192.5C 80.0522,190.669 80.0522,189.003 79.5,187.5C 81.9913,186.459 81.9913,185.626 79.5,185C 80.7932,184.51 82.1266,184.343 83.5,184.5C 83.5,183.5 83.5,182.5 83.5,181.5 Z"/></g>
<g><path style="opacity:1" fill="#e4d9fe" d="M 316.5,192.5 C 316.833,192.5 317.167,192.5 317.5,192.5C 320.495,192.294 323.162,192.96 325.5,194.5C 322.167,194.5 318.833,194.5 315.5,194.5C 315.833,193.833 316.167,193.167 316.5,192.5 Z"/></g>
<g><path style="opacity:1" fill="#6d51d6" d="M 317.5,192.5 C 318.449,191.848 319.615,191.514 321,191.5C 328.205,190.961 331.705,194.295 331.5,201.5C 330.192,198.536 328.192,196.203 325.5,194.5C 323.162,192.96 320.495,192.294 317.5,192.5 Z"/></g>
<g><path style="opacity:1" fill="#f1f1f7" d="M 268.5,127.5 C 271.104,129.6 273.604,131.933 276,134.5C 276.519,142.846 276.352,151.179 275.5,159.5C 274.343,162.273 273.676,165.273 273.5,168.5C 270.937,179.088 267.603,189.422 263.5,199.5C 261.901,200.799 261.401,202.465 262,204.5C 263.045,203.627 263.878,202.627 264.5,201.5C 269.221,195.779 273.554,189.779 277.5,183.5C 282.347,175.809 286.68,167.809 290.5,159.5C 291.8,158.892 293.133,158.225 294.5,157.5C 298.003,159.1 301.169,158.766 304,156.5C 306.969,157.603 307.136,158.936 304.5,160.5C 307.51,165.209 308.176,170.209 306.5,175.5C 304.84,179.489 303.173,183.489 301.5,187.5C 296.006,196.478 290.006,205.145 283.5,213.5C 280.367,216.469 277.367,219.635 274.5,223C 278.434,222.867 281.767,221.367 284.5,218.5C 294.152,213.355 302.486,206.521 309.5,198C 311.405,196.579 313.405,195.412 315.5,194.5C 318.833,194.5 322.167,194.5 325.5,194.5C 328.192,196.203 330.192,198.536 331.5,201.5C 331.723,206.28 330.056,210.28 326.5,213.5C 323.833,215.5 321.5,217.833 319.5,220.5C 314.142,224.863 308.809,229.197 303.5,233.5C 302.29,233.932 301.29,234.599 300.5,235.5C 293.554,239.309 286.554,243.142 279.5,247C 285.823,246.611 291.823,245.111 297.5,242.5C 305.488,241.501 312.821,238.834 319.5,234.5C 320.5,234.5 321.5,234.5 322.5,234.5C 327.015,232.721 331.682,232.221 336.5,233C 340.632,237.19 341.465,242.024 339,247.5C 334.303,249.583 330.136,252.25 326.5,255.5C 321.685,258.072 316.685,260.406 311.5,262.5C 308.284,262.345 305.617,263.345 303.5,265.5C 297.924,265.871 292.591,266.871 287.5,268.5C 274.851,269.322 262.185,269.655 249.5,269.5C 246.14,269.384 242.807,269.051 239.5,268.5C 235.32,267.269 230.986,266.269 226.5,265.5C 225.5,265.5 224.5,265.5 223.5,265.5C 216.558,263.285 209.725,260.619 203,257.5C 196.644,260.757 190.478,264.09 184.5,267.5C 179.595,269.453 174.595,271.12 169.5,272.5C 164.14,272.026 158.973,270.693 154,268.5C 149.396,268.686 148.896,269.52 152.5,271C 149.279,271.797 146.279,271.297 143.5,269.5C 148.303,267.433 153.303,266.099 158.5,265.5C 161.275,267.607 164.275,267.941 167.5,266.5C 166.624,265.749 165.624,265.249 164.5,265C 166.5,263.667 168.5,262.333 170.5,261C 165.934,259.691 161.267,259.191 156.5,259.5C 154.5,259.5 152.5,259.5 150.5,259.5C 150.5,258.833 150.167,258.5 149.5,258.5C 148.402,257.603 148.402,256.77 149.5,256C 152.093,255.463 154.593,254.63 157,253.5C 159.372,254.767 161.538,254.6 163.5,253C 162.207,252.51 160.873,252.343 159.5,252.5C 159.5,251.5 159.5,250.5 159.5,249.5C 164.08,248.867 168.08,247.2 171.5,244.5C 171.5,243.5 171.5,242.5 171.5,241.5C 172.833,241.5 174.167,241.5 175.5,241.5C 175.5,240.167 175.5,238.833 175.5,237.5C 178.923,236.945 182.089,235.611 185,233.5C 186.879,235.013 189.046,235.679 191.5,235.5C 191.281,236.675 191.614,237.675 192.5,238.5C 197.88,235.936 203.213,236.269 208.5,239.5C 208.833,239.167 209.167,238.833 209.5,238.5C 208.833,237.833 208.167,237.167 207.5,236.5C 208,236.167 208.5,235.833 209,235.5C 210,236.167 211,236.833 212,237.5C 212.5,237.167 213,236.833 213.5,236.5C 212.09,235.431 211.09,234.097 210.5,232.5C 211.167,231.833 211.833,231.167 212.5,230.5C 221.155,224.341 228.321,216.675 234,207.5C 240.714,197.736 245.547,187.069 248.5,175.5C 253.028,161.646 255.361,147.313 255.5,132.5C 257.34,130.832 259.34,129.332 261.5,128C 263.81,127.503 266.143,127.337 268.5,127.5 Z"/></g>
<g><path style="opacity:1" fill="#5939db" d="M 273.5,168.5 C 273.833,168.5 274.167,168.5 274.5,168.5C 274.229,170.821 274.896,172.821 276.5,174.5C 275.5,176.167 274.5,177.833 273.5,179.5C 273.545,182.189 274.879,183.523 277.5,183.5C 273.554,189.779 269.221,195.779 264.5,201.5C 263.662,201.158 263.328,200.492 263.5,199.5C 267.603,189.422 270.937,179.088 273.5,168.5 Z"/></g>
<g><path style="opacity:1" fill="#816dda" d="M 275.5,159.5 C 275.599,162.237 275.265,164.904 274.5,167.5C 274.5,167.833 274.5,168.167 274.5,168.5C 274.167,168.5 273.833,168.5 273.5,168.5C 273.676,165.273 274.343,162.273 275.5,159.5 Z"/></g>
<g><path style="opacity:1" fill="#998fd8" d="M 263.5,199.5 C 263.328,200.492 263.662,201.158 264.5,201.5C 263.878,202.627 263.045,203.627 262,204.5C 261.401,202.465 261.901,200.799 263.5,199.5 Z"/></g>
<g><path style="opacity:1" fill="#5b37e3" d="M 301.5,187.5 C 299.677,192.521 301.177,196.187 306,198.5C 307.049,196.893 308.549,196.227 310.5,196.5C 310.491,194.692 310.991,193.025 312,191.5C 313.356,192.38 314.856,192.714 316.5,192.5C 316.167,193.167 315.833,193.833 315.5,194.5C 313.405,195.412 311.405,196.579 309.5,198C 302.486,206.521 294.152,213.355 284.5,218.5C 283.325,218.719 282.325,218.386 281.5,217.5C 282.63,216.378 283.297,215.044 283.5,213.5C 290.006,205.145 296.006,196.478 301.5,187.5 Z"/></g>
<g><path style="opacity:1" fill="#563cd4" d="M 133.5,216.5 C 127.558,213.222 122.558,208.889 118.5,203.5C 119.583,203.539 120.583,203.873 121.5,204.5C 122.524,203.147 123.857,202.48 125.5,202.5C 125.52,204.143 124.853,205.476 123.5,206.5C 123.833,207.5 124.5,208.167 125.5,208.5C 126.768,207.572 128.101,207.405 129.5,208C 128.027,208.71 127.36,209.876 127.5,211.5C 129.2,211.374 130.7,210.707 132,209.5C 132.5,209.833 133,210.167 133.5,210.5C 132.833,211.5 132.167,212.5 131.5,213.5C 132.193,214.518 132.859,215.518 133.5,216.5 Z"/></g>
<g><path style="opacity:1" fill="#3d22e1" d="M 14.5,215.5 C 13.5914,244.728 13.2581,274.061 13.5,303.5C 12.5,303.5 11.5,303.5 10.5,303.5C 9.93799,274.005 9.27133,244.672 8.5,215.5C 9.45823,170.18 9.79156,124.847 9.5,79.5C 10.5,79.5 11.5,79.5 12.5,79.5C 11.3571,73.4994 11.3571,67.4994 12.5,61.5C 13.086,61.7093 13.586,62.0426 14,62.5C 14.1667,65.3333 14.3333,68.1667 14.5,71C 13.2655,119.131 13.2655,167.298 14.5,215.5 Z"/></g>
<g><path style="opacity:1" fill="#5d41d8" d="M 143.5,207.5 C 146.898,210.627 149.565,214.293 151.5,218.5C 150.185,217.524 148.852,216.524 147.5,215.5C 146.377,217.289 145.044,217.622 143.5,216.5C 144.611,215.389 145.278,214.055 145.5,212.5C 144.813,210.823 144.146,209.156 143.5,207.5 Z"/></g>
<g><path style="opacity:1" fill="#684dcd" d="M 283.5,213.5 C 283.297,215.044 282.63,216.378 281.5,217.5C 282.325,218.386 283.325,218.719 284.5,218.5C 281.767,221.367 278.434,222.867 274.5,223C 277.367,219.635 280.367,216.469 283.5,213.5 Z"/></g>
<g><path style="opacity:1" fill="#4a32cc" d="M 84.5,207.5 C 78.4935,203.647 71.9935,202.647 65,204.5C 63.779,205.272 62.779,206.272 62,207.5C 58.754,216.469 60.5873,224.135 67.5,230.5C 60.9734,230.306 57.3067,226.973 56.5,220.5C 57.1174,220.389 57.6174,220.056 58,219.5C 58.1667,218 58.3333,216.5 58.5,215C 55.0398,207.728 57.2065,202.894 65,200.5C 66.7215,200.611 66.8882,201.111 65.5,202C 69.8333,202.667 74.1667,202.667 78.5,202C 77.3044,201.346 77.3044,200.846 78.5,200.5C 79.3857,201.325 79.719,202.325 79.5,203.5C 82.344,203.343 84.0107,204.676 84.5,207.5 Z"/></g>
<g><path style="opacity:1" fill="#5b3fd1" d="M 175.5,223.5 C 177.857,223.337 180.19,223.503 182.5,224C 181.027,224.71 180.36,225.876 180.5,227.5C 184.614,229.323 188.948,230.99 193.5,232.5C 198.166,231.3 202.833,231.3 207.5,232.5C 207.238,231.022 207.571,229.689 208.5,228.5C 209.524,229.853 210.857,230.52 212.5,230.5C 211.833,231.167 211.167,231.833 210.5,232.5C 198.502,236.515 187.502,234.681 177.5,227C 176.177,226.184 175.511,225.017 175.5,223.5 Z"/></g>
<g><path style="opacity:1" fill="#654acb" d="M 319.5,220.5 C 319.271,222.433 318.438,224.1 317,225.5C 314.095,226.574 311.595,228.241 309.5,230.5C 307.784,232.025 305.784,233.025 303.5,233.5C 308.809,229.197 314.142,224.863 319.5,220.5 Z"/></g>
<g><path style="opacity:1" fill="#613fdf" d="M 330.5,255.5 C 330.369,254.624 330.702,253.957 331.5,253.5C 340.11,250.942 343.61,245.275 342,236.5C 337.824,230.888 332.324,229.055 325.5,231C 324.29,232.039 323.29,233.206 322.5,234.5C 321.5,234.5 320.5,234.5 319.5,234.5C 320.93,232.845 321.764,230.845 322,228.5C 328.076,229.476 334.242,229.81 340.5,229.5C 340.5,228.167 340.5,226.833 340.5,225.5C 341.552,225.351 342.552,225.517 343.5,226C 341.513,228.47 341.013,231.303 342,234.5C 343.815,236.1 344.982,238.1 345.5,240.5C 344.281,243.667 342.781,246.667 341,249.5C 340.349,251.235 340.515,252.902 341.5,254.5C 337.906,254.217 334.239,254.551 330.5,255.5 Z"/></g>
<g><path style="opacity:1" fill="#e3d7fc" d="M 330.5,255.5 C 330.167,255.5 329.833,255.5 329.5,255.5C 328.5,255.5 327.5,255.5 326.5,255.5C 330.136,252.25 334.303,249.583 339,247.5C 341.465,242.024 340.632,237.19 336.5,233C 331.682,232.221 327.015,232.721 322.5,234.5C 323.29,233.206 324.29,232.039 325.5,231C 332.324,229.055 337.824,230.888 342,236.5C 343.61,245.275 340.11,250.942 331.5,253.5C 330.702,253.957 330.369,254.624 330.5,255.5 Z"/></g>
<g><path style="opacity:1" fill="#5236d4" d="M 95.5,236.5 C 93.3254,236.318 91.3254,235.651 89.5,234.5C 86.019,235.163 82.6857,236.163 79.5,237.5C 79.5,236.5 79.5,235.5 79.5,234.5C 80.675,234.719 81.675,234.386 82.5,233.5C 78.6875,232.833 75.0208,232.166 71.5,231.5C 77.3646,231.618 83.0313,231.118 88.5,230C 90.7293,232.4 93.0626,234.567 95.5,236.5 Z"/></g>
<g><path style="opacity:1" fill="#5e3ae5" d="M 309.5,230.5 C 310.335,231.943 311.668,232.943 313.5,233.5C 313.291,234.086 312.957,234.586 312.5,235C 314.847,235.334 317.181,235.167 319.5,234.5C 312.821,238.834 305.488,241.501 297.5,242.5C 296.127,242.657 294.793,242.49 293.5,242C 295.782,239.542 298.116,237.376 300.5,235.5C 301.29,234.599 302.29,233.932 303.5,233.5C 305.784,233.025 307.784,232.025 309.5,230.5 Z"/></g>
<g><path style="opacity:1" fill="#6c50d3" d="M 300.5,235.5 C 298.116,237.376 295.782,239.542 293.5,242C 294.793,242.49 296.127,242.657 297.5,242.5C 291.823,245.111 285.823,246.611 279.5,247C 286.554,243.142 293.554,239.309 300.5,235.5 Z"/></g>
<g><path style="opacity:1" fill="#eeedf8" d="M 92.5,157.5 C 95.277,158.814 98.277,159.814 101.5,160.5C 104.26,162.474 105.927,165.141 106.5,168.5C 105.78,173.328 104.447,177.995 102.5,182.5C 103.347,184.871 104.68,186.871 106.5,188.5C 109.301,194.421 113.301,199.421 118.5,203.5C 122.558,208.889 127.558,213.222 133.5,216.5C 139.658,222.085 146.658,226.418 154.5,229.5C 157.833,231.167 161.167,232.833 164.5,234.5C 163.5,234.5 162.5,234.5 161.5,234.5C 161.5,235.5 161.5,236.5 161.5,237.5C 162.978,237.238 164.311,237.571 165.5,238.5C 164.119,240.691 162.119,242.024 159.5,242.5C 163.586,244.06 167.253,243.393 170.5,240.5C 168.342,238.974 168.675,237.474 171.5,236C 172.784,235.316 173.951,235.483 175,236.5C 174.695,234.557 174.695,232.557 175,230.5C 175.818,234.323 176.984,234.49 178.5,231C 177.899,229.395 176.899,228.062 175.5,227C 171.184,225.85 167.184,224.016 163.5,221.5C 162.833,220.5 162.167,219.5 161.5,218.5C 162.612,217.735 163.279,216.735 163.5,215.5C 167.122,217.787 170.455,220.453 173.5,223.5C 174.167,223.5 174.833,223.5 175.5,223.5C 175.511,225.017 176.177,226.184 177.5,227C 187.502,234.681 198.502,236.515 210.5,232.5C 211.09,234.097 212.09,235.431 213.5,236.5C 213,236.833 212.5,237.167 212,237.5C 211,236.833 210,236.167 209,235.5C 208.5,235.833 208,236.167 207.5,236.5C 208.167,237.167 208.833,237.833 209.5,238.5C 209.167,238.833 208.833,239.167 208.5,239.5C 203.213,236.269 197.88,235.936 192.5,238.5C 191.614,237.675 191.281,236.675 191.5,235.5C 189.046,235.679 186.879,235.013 185,233.5C 182.089,235.611 178.923,236.945 175.5,237.5C 175.5,238.833 175.5,240.167 175.5,241.5C 174.167,241.5 172.833,241.5 171.5,241.5C 171.5,242.5 171.5,243.5 171.5,244.5C 168.08,247.2 164.08,248.867 159.5,249.5C 159.5,250.5 159.5,251.5 159.5,252.5C 160.873,252.343 162.207,252.51 163.5,253C 161.538,254.6 159.372,254.767 157,253.5C 154.593,254.63 152.093,255.463 149.5,256C 148.402,256.77 148.402,257.603 149.5,258.5C 147.565,257.85 145.565,257.517 143.5,257.5C 136.702,256.239 130.035,254.405 123.5,252C 113.731,247.616 104.398,242.449 95.5,236.5C 93.0626,234.567 90.7293,232.4 88.5,230C 83.0313,231.118 77.3646,231.618 71.5,231.5C 70.1667,231.167 68.8333,230.833 67.5,230.5C 60.5873,224.135 58.754,216.469 62,207.5C 62.779,206.272 63.779,205.272 65,204.5C 71.9935,202.647 78.4935,203.647 84.5,207.5C 87.93,212.55 89.43,218.217 89,224.5C 95.3136,229.406 102.147,233.406 109.5,236.5C 111.509,238.065 113.843,239.065 116.5,239.5C 116.833,239.5 117.167,239.5 117.5,239.5C 123.883,242.069 130.55,244.069 137.5,245.5C 143.584,247.177 149.918,247.844 156.5,247.5C 158.857,247.663 161.19,247.497 163.5,247C 155.019,243.262 147.019,238.762 139.5,233.5C 121.81,221.481 108.476,205.815 99.5,186.5C 93.5891,186.392 88.2558,184.726 83.5,181.5C 77.7494,173.584 78.416,166.084 85.5,159C 87.6775,157.798 90.0108,157.298 92.5,157.5 Z"/></g>
<g><path style="opacity:1" fill="#7862d6" d="M 137.5,245.5 C 144.093,245.085 150.426,245.752 156.5,247.5C 149.918,247.844 143.584,247.177 137.5,245.5 Z"/></g>
<g><path style="opacity:1" fill="#4f32db" d="M 139.5,233.5 C 147.019,238.762 155.019,243.262 163.5,247C 161.19,247.497 158.857,247.663 156.5,247.5C 150.426,245.752 144.093,245.085 137.5,245.5C 130.55,244.069 123.883,242.069 117.5,239.5C 122.614,241.015 127.447,240.348 132,237.5C 137.039,240.801 142.539,242.301 148.5,242C 147.095,240.731 145.429,240.231 143.5,240.5C 143.5,239.5 143.5,238.5 143.5,237.5C 140.858,237.512 139.525,236.179 139.5,233.5 Z"/></g>
<g><path style="opacity:1" fill="#6f59c8" d="M 109.5,236.5 C 112.631,235.908 114.964,236.908 116.5,239.5C 113.843,239.065 111.509,238.065 109.5,236.5 Z"/></g>
<g><path style="opacity:1" fill="#f1f2f3" d="M 163.5,215.5 C 163.279,216.735 162.612,217.735 161.5,218.5C 162.167,219.5 162.833,220.5 163.5,221.5C 167.184,224.016 171.184,225.85 175.5,227C 176.899,228.062 177.899,229.395 178.5,231C 176.984,234.49 175.818,234.323 175,230.5C 174.695,232.557 174.695,234.557 175,236.5C 173.951,235.483 172.784,235.316 171.5,236C 168.675,237.474 168.342,238.974 170.5,240.5C 167.253,243.393 163.586,244.06 159.5,242.5C 162.119,242.024 164.119,240.691 165.5,238.5C 164.311,237.571 162.978,237.238 161.5,237.5C 161.5,236.5 161.5,235.5 161.5,234.5C 162.5,234.5 163.5,234.5 164.5,234.5C 165.376,234.631 166.043,234.298 166.5,233.5C 164.147,231.477 161.814,229.477 159.5,227.5C 159.5,227.167 159.5,226.833 159.5,226.5C 164.887,223.961 164.721,223.295 159,224.5C 157.635,223.407 157.301,222.074 158,220.5C 159.084,219.335 159.917,218.002 160.5,216.5C 161.325,215.614 162.325,215.281 163.5,215.5 Z"/></g>
<g><path style="opacity:1" fill="#624dc7" d="M 159.5,227.5 C 161.814,229.477 164.147,231.477 166.5,233.5C 166.043,234.298 165.376,234.631 164.5,234.5C 161.167,232.833 157.833,231.167 154.5,229.5C 156.262,229.357 157.929,229.691 159.5,230.5C 160.087,229.767 160.087,228.767 159.5,227.5 Z"/></g>
<g><path style="opacity:1" fill="#5639d5" d="M 133.5,216.5 C 135.5,216.5 137.5,216.5 139.5,216.5C 139.5,217.5 139.5,218.5 139.5,219.5C 142.693,219.954 145.526,221.287 148,223.5C 150.637,222.899 151.804,221.233 151.5,218.5C 154.167,221.167 156.833,223.833 159.5,226.5C 159.5,226.833 159.5,227.167 159.5,227.5C 160.087,228.767 160.087,229.767 159.5,230.5C 157.929,229.691 156.262,229.357 154.5,229.5C 146.658,226.418 139.658,222.085 133.5,216.5 Z"/></g>
<g><path style="opacity:1" fill="#5e33f2" d="M 396.5,313.5 C 396.5,315.5 396.5,317.5 396.5,319.5C 395.207,320.842 394.374,322.509 394,324.5C 392.173,322.414 392.173,320.414 394,318.5C 394.366,297.485 393.866,276.485 392.5,255.5C 391.749,254.624 391.249,253.624 391,252.5C 388.723,255.699 387.89,259.365 388.5,263.5C 386.833,263.5 385.167,263.5 383.5,263.5C 383.5,266.167 383.5,268.833 383.5,271.5C 380.833,271.5 378.167,271.5 375.5,271.5C 375.5,274.167 375.5,276.833 375.5,279.5C 372.833,279.5 370.167,279.5 367.5,279.5C 367.5,282.167 367.5,284.833 367.5,287.5C 364.833,287.5 362.167,287.5 359.5,287.5C 359.5,290.167 359.5,292.833 359.5,295.5C 356.833,295.5 354.167,295.5 351.5,295.5C 351.5,298.167 351.5,300.833 351.5,303.5C 349.5,303.5 347.5,303.5 345.5,303.5C 345.82,306.898 345.487,310.232 344.5,313.5C 342.477,311.827 340.144,311.16 337.5,311.5C 337.5,314.167 337.5,316.833 337.5,319.5C 336.127,319.343 334.793,319.51 333.5,320C 331.957,321.878 330.124,323.378 328,324.5C 327.517,325.448 327.351,326.448 327.5,327.5C 325.5,327.5 323.5,327.5 321.5,327.5C 321.828,332.875 321.495,338.208 320.5,343.5C 319.833,340.833 319.167,338.167 318.5,335.5C 315.952,337.552 313.619,339.719 311.5,342C 313.541,344.994 313.875,348.161 312.5,351.5C 311.833,349.833 311.167,348.167 310.5,346.5C 309.3,347.531 307.966,348.365 306.5,349C 297.322,359.011 287.988,368.844 278.5,378.5C 276.611,379.604 274.945,380.937 273.5,382.5C 271.955,383.452 270.288,383.785 268.5,383.5C 268.5,385.167 268.5,386.833 268.5,388.5C 246.165,388.741 223.832,389.074 201.5,389.5C 204.218,386.474 207.551,384.474 211.5,383.5C 211.5,380.833 211.5,378.167 211.5,375.5C 214.167,375.5 216.833,375.5 219.5,375.5C 219.5,372.833 219.5,370.167 219.5,367.5C 220.833,367.5 222.167,367.5 223.5,367.5C 223.5,364.833 223.5,362.167 223.5,359.5C 226.167,359.5 228.833,359.5 231.5,359.5C 231.5,356.833 231.5,354.167 231.5,351.5C 234.167,351.5 236.833,351.5 239.5,351.5C 239.5,348.833 239.5,346.167 239.5,343.5C 242.167,343.5 244.833,343.5 247.5,343.5C 247.5,340.833 247.5,338.167 247.5,335.5C 250.167,335.5 252.833,335.5 255.5,335.5C 255.5,332.833 255.5,330.167 255.5,327.5C 258.167,327.5 260.833,327.5 263.5,327.5C 263.5,324.833 263.5,322.167 263.5,319.5C 266.167,319.5 268.833,319.5 271.5,319.5C 271.5,316.833 271.5,314.167 271.5,311.5C 272.833,311.5 274.167,311.5 275.5,311.5C 275.5,308.833 275.5,306.167 275.5,303.5C 279.538,302.312 283.205,300.312 286.5,297.5C 288.139,293.861 290.805,291.195 294.5,289.5C 296.139,285.861 298.805,283.195 302.5,281.5C 304.139,277.861 306.805,275.195 310.5,273.5C 311.386,272.675 311.719,271.675 311.5,270.5C 308.824,271.008 306.157,271.175 303.5,271C 305.291,270.585 306.624,269.585 307.5,268C 309.473,267.505 311.473,267.338 313.5,267.5C 313.5,268.5 313.5,269.5 313.5,270.5C 317.413,268.779 321.246,266.779 325,264.5C 327.256,266.085 329.756,266.752 332.5,266.5C 332.5,265.5 332.5,264.5 332.5,263.5C 330.712,263.785 329.045,263.452 327.5,262.5C 326.91,261.201 325.91,260.368 324.5,260C 326.285,258.837 328.285,258.17 330.5,258C 329.748,257.329 329.414,256.496 329.5,255.5C 329.833,255.5 330.167,255.5 330.5,255.5C 334.239,254.551 337.906,254.217 341.5,254.5C 340.515,252.902 340.349,251.235 341,249.5C 342.781,246.667 344.281,243.667 345.5,240.5C 344.982,238.1 343.815,236.1 342,234.5C 341.013,231.303 341.513,228.47 343.5,226C 342.552,225.517 341.552,225.351 340.5,225.5C 340.5,226.833 340.5,228.167 340.5,229.5C 334.242,229.81 328.076,229.476 322,228.5C 321.764,230.845 320.93,232.845 319.5,234.5C 317.181,235.167 314.847,235.334 312.5,235C 312.957,234.586 313.291,234.086 313.5,233.5C 311.668,232.943 310.335,231.943 309.5,230.5C 311.595,228.241 314.095,226.574 317,225.5C 318.438,224.1 319.271,222.433 319.5,220.5C 321.5,217.833 323.833,215.5 326.5,213.5C 327.5,213.5 328.5,213.5 329.5,213.5C 329.351,214.552 329.517,215.552 330,216.5C 332.571,215.023 333.071,213.023 331.5,210.5C 332.101,206.841 332.767,203.174 333.5,199.5C 334.814,208.741 335.48,208.741 335.5,199.5C 338.167,199.5 340.833,199.5 343.5,199.5C 343.5,196.833 343.5,194.167 343.5,191.5C 346.167,191.5 348.833,191.5 351.5,191.5C 351.5,188.833 351.5,186.167 351.5,183.5C 354.167,183.5 356.833,183.5 359.5,183.5C 359.5,180.833 359.5,178.167 359.5,175.5C 361.833,175.5 364.167,175.5 366.5,175.5C 366.5,172.833 366.5,170.167 366.5,167.5C 369.167,167.5 371.833,167.5 374.5,167.5C 374.423,163.785 374.756,160.119 375.5,156.5C 379.951,155.445 382.951,152.778 384.5,148.5C 385.499,162.818 385.833,177.151 385.5,191.5C 387.167,191.5 388.833,191.5 390.5,191.5C 390.962,171.398 390.296,151.398 388.5,131.5C 389.3,114.175 389.633,96.8421 389.5,79.5C 388.916,76.0172 389.749,73.0172 392,70.5C 392.399,76.1103 393.233,81.6103 394.5,87C 394.043,87.414 393.709,87.914 393.5,88.5C 394.158,163.631 395.158,238.631 396.5,313.5 Z"/></g>
<g><path style="opacity:1" fill="#6637f7" d="M 396.5,319.5 C 396.5,324.833 396.5,330.167 396.5,335.5C 395.25,335.577 394.417,336.244 394,337.5C 393.505,335.527 393.338,333.527 393.5,331.5C 392.167,331.5 390.833,331.5 389.5,331.5C 390.89,338.87 389.223,345.537 384.5,351.5C 383.217,354.372 383.217,357.205 384.5,360C 382.82,360.034 381.32,360.201 380,360.5C 379.178,363.117 378.678,365.784 378.5,368.5C 375.921,368.917 373.754,368.25 372,366.5C 369.289,369.042 366.789,371.709 364.5,374.5C 365.833,375.5 367.167,376.5 368.5,377.5C 364.907,378.946 361.74,380.946 359,383.5C 356.626,383.981 354.126,384.148 351.5,384C 353.421,385.241 353.754,386.741 352.5,388.5C 351.672,387.585 350.672,386.919 349.5,386.5C 345.96,387.387 342.627,388.721 339.5,390.5C 341.284,391.606 343.118,391.606 345,390.5C 346.03,390.836 346.53,391.503 346.5,392.5C 344.442,393.933 342.108,394.6 339.5,394.5C 334.702,395.359 329.869,396.026 325,396.5C 301.846,395.558 278.68,395.224 255.5,395.5C 255.082,394.778 254.416,394.278 253.5,394C 238.17,393.5 222.837,393.333 207.5,393.5C 202.156,393.666 196.823,393.499 191.5,393C 194.146,392.503 196.813,392.336 199.5,392.5C 199.285,390.821 199.952,389.821 201.5,389.5C 223.832,389.074 246.165,388.741 268.5,388.5C 268.5,386.833 268.5,385.167 268.5,383.5C 270.288,383.785 271.955,383.452 273.5,382.5C 274.945,380.937 276.611,379.604 278.5,378.5C 287.988,368.844 297.322,359.011 306.5,349C 307.966,348.365 309.3,347.531 310.5,346.5C 311.167,348.167 311.833,349.833 312.5,351.5C 313.875,348.161 313.541,344.994 311.5,342C 313.619,339.719 315.952,337.552 318.5,335.5C 319.167,338.167 319.833,340.833 320.5,343.5C 321.495,338.208 321.828,332.875 321.5,327.5C 323.5,327.5 325.5,327.5 327.5,327.5C 327.351,326.448 327.517,325.448 328,324.5C 330.124,323.378 331.957,321.878 333.5,320C 334.793,319.51 336.127,319.343 337.5,319.5C 337.5,316.833 337.5,314.167 337.5,311.5C 340.144,311.16 342.477,311.827 344.5,313.5C 345.487,310.232 345.82,306.898 345.5,303.5C 347.5,303.5 349.5,303.5 351.5,303.5C 351.5,300.833 351.5,298.167 351.5,295.5C 354.167,295.5 356.833,295.5 359.5,295.5C 359.5,292.833 359.5,290.167 359.5,287.5C 362.167,287.5 364.833,287.5 367.5,287.5C 367.5,284.833 367.5,282.167 367.5,279.5C 370.167,279.5 372.833,279.5 375.5,279.5C 375.5,276.833 375.5,274.167 375.5,271.5C 378.167,271.5 380.833,271.5 383.5,271.5C 383.5,268.833 383.5,266.167 383.5,263.5C 385.167,263.5 386.833,263.5 388.5,263.5C 387.89,259.365 388.723,255.699 391,252.5C 391.249,253.624 391.749,254.624 392.5,255.5C 393.866,276.485 394.366,297.485 394,318.5C 392.173,320.414 392.173,322.414 394,324.5C 394.374,322.509 395.207,320.842 396.5,319.5 Z"/></g>
<g><path style="opacity:1" fill="#4729e2" d="M 8.5,215.5 C 9.27133,244.672 9.93799,274.005 10.5,303.5C 11.5,303.5 12.5,303.5 13.5,303.5C 13.2581,274.061 13.5914,244.728 14.5,215.5C 12.5103,249.627 12.8436,265.627 15.5,263.5C 17.8333,263.5 20.1667,263.5 22.5,263.5C 22.423,259.785 22.7564,256.119 23.5,252.5C 26.3149,251.874 28.8149,250.54 31,248.5C 31.49,247.207 31.6567,245.873 31.5,244.5C 34.3149,243.874 36.8149,242.54 39,240.5C 39.49,239.207 39.6567,237.873 39.5,236.5C 42.3149,235.874 44.8149,234.54 47,232.5C 47.49,231.207 47.6567,229.873 47.5,228.5C 48.8221,228.67 49.9887,228.337 51,227.5C 51.5,225.5 52,223.5 52.5,221.5C 51.4769,214.064 51.9769,206.731 54,199.5C 58.0331,196.207 62.5331,194.874 67.5,195.5C 66.1667,194.833 64.8333,194.167 63.5,193.5C 68.7616,191.512 74.0949,191.179 79.5,192.5C 79.6107,193.117 79.944,193.617 80.5,194C 78.5,194.333 76.5,194.667 74.5,195C 75.9047,196.269 77.5714,196.769 79.5,196.5C 79.5,197.5 79.5,198.5 79.5,199.5C 73.8005,198.086 68.1339,198.253 62.5,200C 59.6761,200.442 57.5095,202.275 56,205.5C 55.5466,208.84 55.0466,212.174 54.5,215.5C 54.4365,217.514 55.1032,219.181 56.5,220.5C 57.3067,226.973 60.9734,230.306 67.5,230.5C 68.8333,230.833 70.1667,231.167 71.5,231.5C 75.0208,232.166 78.6875,232.833 82.5,233.5C 81.675,234.386 80.675,234.719 79.5,234.5C 79.5,235.5 79.5,236.5 79.5,237.5C 82.6857,236.163 86.019,235.163 89.5,234.5C 91.3254,235.651 93.3254,236.318 95.5,236.5C 104.398,242.449 113.731,247.616 123.5,252C 130.035,254.405 136.702,256.239 143.5,257.5C 145.515,258.924 147.848,259.59 150.5,259.5C 152.5,259.5 154.5,259.5 156.5,259.5C 157.209,260.404 158.209,260.737 159.5,260.5C 159.5,261.167 159.5,261.833 159.5,262.5C 157.208,264.267 154.542,265.267 151.5,265.5C 149.283,263.92 146.616,262.92 143.5,262.5C 144.025,261.808 144.692,261.308 145.5,261C 141.333,259.5 137.167,258 133,256.5C 132.5,257 132,257.5 131.5,258C 118.459,258.468 105.459,259.302 92.5,260.5C 92.1484,257.886 90.6484,256.219 88,255.5C 87.5,255.833 87,256.167 86.5,256.5C 89.3588,259.818 88.6922,260.818 84.5,259.5C 83.5713,260.689 83.238,262.022 83.5,263.5C 81.556,260.304 79.556,256.97 77.5,253.5C 77.5858,252.504 77.2524,251.671 76.5,251C 70.4422,250.261 64.4422,250.594 58.5,252C 56.75,253.754 56.0833,255.921 56.5,258.5C 56.5,261.833 56.5,265.167 56.5,268.5C 55.7717,274.092 58.105,277.092 63.5,277.5C 72.2082,278.657 79.0415,275.657 84,268.5C 85.1385,268.989 86.3052,269.322 87.5,269.5C 97.5878,274.022 108.254,276.689 119.5,277.5C 127.316,278.492 135.316,278.826 143.5,278.5C 144.152,279.725 145.319,280.392 147,280.5C 153.675,281.801 160.342,282.134 167,281.5C 169.77,282.545 172.603,283.212 175.5,283.5C 175.5,284.5 175.5,285.5 175.5,286.5C 172.844,285.842 170.178,285.175 167.5,284.5C 165.657,284.779 163.823,285.113 162,285.5C 154.318,284.632 146.651,283.632 139,282.5C 136.949,282.423 135.116,282.923 133.5,284C 137.167,284.333 140.833,284.667 144.5,285C 144.167,285.333 143.833,285.667 143.5,286C 138.201,285.808 132.867,285.641 127.5,285.5C 127.5,284.5 127.5,283.5 127.5,282.5C 122.125,282.828 116.792,282.495 111.5,281.5C 113.624,280.851 115.624,280.017 117.5,279C 116.5,278.833 115.5,278.667 114.5,278.5C 108.517,279.193 102.517,279.36 96.5,279C 101.64,279.841 101.806,281.008 97,282.5C 92.3541,281.633 91.8541,280.133 95.5,278C 90.0229,276.622 88.6896,278.122 91.5,282.5C 91.1012,284.197 90.6012,285.863 90,287.5C 88.6124,286.446 87.1124,286.28 85.5,287C 87.3008,287.317 87.6341,287.984 86.5,289C 84.4732,290.879 82.1398,292.046 79.5,292.5C 79.5,293.5 79.5,294.5 79.5,295.5C 77.8333,295.5 76.1667,295.5 74.5,295.5C 74.5,298.167 74.5,300.833 74.5,303.5C 70.6837,304.909 67.0171,306.576 63.5,308.5C 63.6567,309.873 63.49,311.207 63,312.5C 60.8149,314.54 58.3149,315.874 55.5,316.5C 55.6567,317.873 55.49,319.207 55,320.5C 52.8149,322.54 50.3149,323.874 47.5,324.5C 47.6567,325.873 47.49,327.207 47,328.5C 44.8149,330.54 42.3149,331.874 39.5,332.5C 39.6567,333.873 39.49,335.207 39,336.5C 36.8149,338.54 34.3149,339.874 31.5,340.5C 31.8076,342.924 31.4742,345.257 30.5,347.5C 26.6187,349.027 25.952,351.193 28.5,354C 28.1667,354.833 27.8333,355.667 27.5,356.5C 26.0256,355.564 25.0256,354.23 24.5,352.5C 23.675,351.614 22.675,351.281 21.5,351.5C 21.3962,354.09 22.0629,356.423 23.5,358.5C 23.0776,360.663 21.7443,361.997 19.5,362.5C 20.3094,364.071 20.6427,365.738 20.5,367.5C 19.4334,364.771 17.4334,363.104 14.5,362.5C 8.62311,354.406 4.62311,345.406 2.5,335.5C 2.5,324.833 2.5,314.167 2.5,303.5C 2.08346,230.138 2.75012,156.805 4.5,83.5C 4.32006,82.4461 3.98672,81.4461 3.5,80.5C 3.83333,80.1667 4.16667,79.8333 4.5,79.5C 5.65601,138.119 6.48935,196.786 7,255.5C 8.4803,242.325 8.9803,228.992 8.5,215.5 Z"/></g>
<g><path style="opacity:1" fill="#5038ca" d="M 77.5,253.5 C 74.1415,251.513 70.4748,251.013 66.5,252C 62.9027,253.952 59.5693,256.119 56.5,258.5C 56.0833,255.921 56.75,253.754 58.5,252C 64.4422,250.594 70.4422,250.261 76.5,251C 77.2524,251.671 77.5858,252.504 77.5,253.5 Z"/></g>
<g><path style="opacity:1" fill="#f0eef7" d="M 77.5,253.5 C 79.556,256.97 81.556,260.304 83.5,263.5C 83.8333,263.5 84.1667,263.5 84.5,263.5C 87.145,265.31 90.145,266.31 93.5,266.5C 93.5,267.5 93.5,268.5 93.5,269.5C 91.5,269.5 89.5,269.5 87.5,269.5C 86.3052,269.322 85.1385,268.989 84,268.5C 79.0415,275.657 72.2082,278.657 63.5,277.5C 60.4426,275.046 58.1093,272.046 56.5,268.5C 56.5,265.167 56.5,261.833 56.5,258.5C 59.5693,256.119 62.9027,253.952 66.5,252C 70.4748,251.013 74.1415,251.513 77.5,253.5 Z"/></g>
<g><path style="opacity:1" fill="#9581dd" d="M 143.5,257.5 C 145.565,257.517 147.565,257.85 149.5,258.5C 150.167,258.5 150.5,258.833 150.5,259.5C 147.848,259.59 145.515,258.924 143.5,257.5 Z"/></g>
<g><path style="opacity:1" fill="#4c2ae7" d="M 151.5,265.5 C 149.784,265.629 148.117,265.962 146.5,266.5C 138.669,266.195 130.835,265.861 123,265.5C 118.083,265.68 113.249,266.347 108.5,267.5C 100.568,265.905 92.5675,264.572 84.5,263.5C 84.1667,263.5 83.8333,263.5 83.5,263.5C 83.238,262.022 83.5713,260.689 84.5,259.5C 88.6922,260.818 89.3588,259.818 86.5,256.5C 87,256.167 87.5,255.833 88,255.5C 90.6484,256.219 92.1484,257.886 92.5,260.5C 105.459,259.302 118.459,258.468 131.5,258C 132,257.5 132.5,257 133,256.5C 137.167,258 141.333,259.5 145.5,261C 144.692,261.308 144.025,261.808 143.5,262.5C 146.616,262.92 149.283,263.92 151.5,265.5 Z"/></g>
<g><path style="opacity:1" fill="#5341b4" d="M 159.5,260.5 C 168.714,260.546 168.714,261.213 159.5,262.5C 159.5,261.833 159.5,261.167 159.5,260.5 Z"/></g>
<g><path style="opacity:1" fill="#5737df" d="M 223.5,265.5 C 219.11,266.546 214.943,266.546 211,265.5C 210.544,264.256 211.044,263.423 212.5,263C 210.645,262.578 208.811,262.078 207,261.5C 204.03,262.022 203.196,263.522 204.5,266C 201.812,266.392 199.145,266.892 196.5,267.5C 195.259,266.963 194.092,266.296 193,265.5C 190.276,266.687 187.443,267.353 184.5,267.5C 190.478,264.09 196.644,260.757 203,257.5C 209.725,260.619 216.558,263.285 223.5,265.5 Z"/></g>
<g><path style="opacity:1" fill="#8269da" d="M 311.5,262.5 C 309.064,263.871 306.397,264.871 303.5,265.5C 305.617,263.345 308.284,262.345 311.5,262.5 Z"/></g>
<g><path style="opacity:1" fill="#542feb" d="M 223.5,265.5 C 224.5,265.5 225.5,265.5 226.5,265.5C 230.355,268.035 234.688,269.035 239.5,268.5C 242.807,269.051 246.14,269.384 249.5,269.5C 249.5,269.833 249.5,270.167 249.5,270.5C 246.167,270.5 242.833,270.5 239.5,270.5C 239.5,273.5 239.5,276.5 239.5,279.5C 236.833,279.5 234.167,279.5 231.5,279.5C 231.5,282.167 231.5,284.833 231.5,287.5C 229.833,287.5 228.167,287.5 226.5,287.5C 227.11,291.635 226.277,295.301 224,298.5C 223.517,297.552 223.351,296.552 223.5,295.5C 221.833,295.5 220.167,295.5 218.5,295.5C 218.5,298.167 218.5,300.833 218.5,303.5C 216.712,303.215 215.045,303.548 213.5,304.5C 212.055,306.063 210.389,307.396 208.5,308.5C 207.614,309.325 207.281,310.325 207.5,311.5C 205.833,311.5 204.167,311.5 202.5,311.5C 202.5,314.167 202.5,316.833 202.5,319.5C 200.712,319.215 199.045,319.548 197.5,320.5C 196.055,322.063 194.389,323.396 192.5,324.5C 191.614,325.325 191.281,326.325 191.5,327.5C 189.833,327.5 188.167,327.5 186.5,327.5C 186.5,330.167 186.5,332.833 186.5,335.5C 185.5,335.5 184.5,335.5 183.5,335.5C 183.649,336.552 183.483,337.552 183,338.5C 172.69,347.563 162.857,357.063 153.5,367C 152.207,367.49 150.873,367.657 149.5,367.5C 149.5,370.167 149.5,372.833 149.5,375.5C 146.833,375.5 144.167,375.5 141.5,375.5C 141.5,378.167 141.5,380.833 141.5,383.5C 138.833,383.5 136.167,383.5 133.5,383.5C 133.5,385.5 133.5,387.5 133.5,389.5C 113.147,389.258 92.814,389.758 72.5,391C 76.6387,392.528 80.972,393.528 85.5,394C 126.349,394.397 167.015,394.23 207.5,393.5C 222.837,393.333 238.17,393.5 253.5,394C 254.416,394.278 255.082,394.778 255.5,395.5C 194.154,395.197 132.821,395.53 71.5,396.5C 68.8333,396.5 66.1667,396.5 63.5,396.5C 56.2747,395.037 49.6081,392.37 43.5,388.5C 41.751,386.484 39.751,384.818 37.5,383.5C 40.8984,383.18 44.2317,383.513 47.5,384.5C 52.2546,387.228 57.2546,389.561 62.5,391.5C 63.3857,390.675 63.719,389.675 63.5,388.5C 67.5094,388.961 71.176,388.128 74.5,386C 70.8333,385.667 67.1667,385.333 63.5,385C 68.8333,384.667 74.1667,384.333 79.5,384C 80.8333,381 80.8333,378 79.5,375C 81.8448,372.798 84.5114,371.298 87.5,370.5C 88.9723,370.728 89.3056,367.061 88.5,359.5C 90.8333,359.5 93.1667,359.5 95.5,359.5C 95.3359,362.187 95.5026,364.854 96,367.5C 96.4994,362.177 96.666,356.844 96.5,351.5C 99.5865,351.543 102.587,351.71 105.5,352C 104.556,349.281 104.223,346.448 104.5,343.5C 107.587,343.543 110.587,343.71 113.5,344C 112.556,341.281 112.223,338.448 112.5,335.5C 114.833,335.5 117.167,335.5 119.5,335.5C 119.5,332.833 119.5,330.167 119.5,327.5C 122.167,327.5 124.833,327.5 127.5,327.5C 127.5,324.833 127.5,322.167 127.5,319.5C 130.167,319.5 132.833,319.5 135.5,319.5C 135.5,316.833 135.5,314.167 135.5,311.5C 137.167,311.5 138.833,311.5 140.5,311.5C 140.5,308.833 140.5,306.167 140.5,303.5C 143.167,303.5 145.833,303.5 148.5,303.5C 148.5,300.833 148.5,298.167 148.5,295.5C 151.167,295.5 153.833,295.5 156.5,295.5C 156.5,292.833 156.5,290.167 156.5,287.5C 163.152,287.187 169.485,286.853 175.5,286.5C 175.5,285.5 175.5,284.5 175.5,283.5C 172.603,283.212 169.77,282.545 167,281.5C 160.342,282.134 153.675,281.801 147,280.5C 145.319,280.392 144.152,279.725 143.5,278.5C 147.514,278.666 151.514,278.499 155.5,278C 157.962,276.784 160.629,276.118 163.5,276C 164.056,275.617 164.389,275.117 164.5,274.5C 166.306,273.976 167.972,273.309 169.5,272.5C 174.595,271.12 179.595,269.453 184.5,267.5C 187.443,267.353 190.276,266.687 193,265.5C 194.092,266.296 195.259,266.963 196.5,267.5C 199.145,266.892 201.812,266.392 204.5,266C 203.196,263.522 204.03,262.022 207,261.5C 208.811,262.078 210.645,262.578 212.5,263C 211.044,263.423 210.544,264.256 211,265.5C 214.943,266.546 219.11,266.546 223.5,265.5 Z"/></g>
<g><path style="opacity:1" fill="#5235d5" d="M 84.5,263.5 C 92.5675,264.572 100.568,265.905 108.5,267.5C 113.249,266.347 118.083,265.68 123,265.5C 130.835,265.861 138.669,266.195 146.5,266.5C 128.947,270.442 111.28,270.442 93.5,266.5C 90.145,266.31 87.145,265.31 84.5,263.5 Z"/></g>
<g><path style="opacity:1" fill="#8066da" d="M 226.5,265.5 C 230.986,266.269 235.32,267.269 239.5,268.5C 234.688,269.035 230.355,268.035 226.5,265.5 Z"/></g>
<g><path style="opacity:1" fill="#eae6fc" d="M 156.5,259.5 C 161.267,259.191 165.934,259.691 170.5,261C 168.5,262.333 166.5,263.667 164.5,265C 165.624,265.249 166.624,265.749 167.5,266.5C 164.275,267.941 161.275,267.607 158.5,265.5C 153.303,266.099 148.303,267.433 143.5,269.5C 146.279,271.297 149.279,271.797 152.5,271C 148.896,269.52 149.396,268.686 154,268.5C 158.973,270.693 164.14,272.026 169.5,272.5C 167.972,273.309 166.306,273.976 164.5,274.5C 160.188,275.248 155.854,275.914 151.5,276.5C 153.717,274.92 156.384,273.92 159.5,273.5C 157.833,273.167 156.167,272.833 154.5,272.5C 148.201,273.494 141.867,274.161 135.5,274.5C 132.045,274.579 128.712,274.079 125.5,273C 131.5,272.667 137.5,272.333 143.5,272C 129.881,270.427 116.214,270.094 102.5,271C 101.5,271.333 100.5,271.667 99.5,272C 102.686,272.399 105.686,273.232 108.5,274.5C 111.067,273.336 113.734,272.67 116.5,272.5C 116.33,273.822 116.663,274.989 117.5,276C 127.828,276.5 138.161,276.666 148.5,276.5C 139.014,277.494 129.348,277.827 119.5,277.5C 108.254,276.689 97.5878,274.022 87.5,269.5C 89.5,269.5 91.5,269.5 93.5,269.5C 93.5,268.5 93.5,267.5 93.5,266.5C 111.28,270.442 128.947,270.442 146.5,266.5C 148.117,265.962 149.784,265.629 151.5,265.5C 154.542,265.267 157.208,264.267 159.5,262.5C 168.714,261.213 168.714,260.546 159.5,260.5C 158.209,260.737 157.209,260.404 156.5,259.5 Z"/></g>
<g><path style="opacity:1" fill="#816ad5" d="M 287.5,268.5 C 286.048,269.302 284.382,269.802 282.5,270C 271.505,270.5 260.505,270.667 249.5,270.5C 249.5,270.167 249.5,269.833 249.5,269.5C 262.185,269.655 274.851,269.322 287.5,268.5 Z"/></g>
<g><path style="opacity:1" fill="#f2f3f3" d="M 151.5,276.5 C 150.5,276.5 149.5,276.5 148.5,276.5C 138.161,276.666 127.828,276.5 117.5,276C 116.663,274.989 116.33,273.822 116.5,272.5C 113.734,272.67 111.067,273.336 108.5,274.5C 105.686,273.232 102.686,272.399 99.5,272C 100.5,271.667 101.5,271.333 102.5,271C 116.214,270.094 129.881,270.427 143.5,272C 137.5,272.333 131.5,272.667 125.5,273C 128.712,274.079 132.045,274.579 135.5,274.5C 141.867,274.161 148.201,273.494 154.5,272.5C 156.167,272.833 157.833,273.167 159.5,273.5C 156.384,273.92 153.717,274.92 151.5,276.5 Z"/></g>
<g><path style="opacity:1" fill="#563ec6" d="M 56.5,268.5 C 58.1093,272.046 60.4426,275.046 63.5,277.5C 58.105,277.092 55.7717,274.092 56.5,268.5 Z"/></g>
<g><path style="opacity:1" fill="#5931ef" d="M 326.5,255.5 C 327.5,255.5 328.5,255.5 329.5,255.5C 329.414,256.496 329.748,257.329 330.5,258C 328.285,258.17 326.285,258.837 324.5,260C 325.91,260.368 326.91,261.201 327.5,262.5C 329.045,263.452 330.712,263.785 332.5,263.5C 332.5,264.5 332.5,265.5 332.5,266.5C 329.756,266.752 327.256,266.085 325,264.5C 321.246,266.779 317.413,268.779 313.5,270.5C 313.5,269.5 313.5,268.5 313.5,267.5C 311.473,267.338 309.473,267.505 307.5,268C 306.624,269.585 305.291,270.585 303.5,271C 306.157,271.175 308.824,271.008 311.5,270.5C 311.719,271.675 311.386,272.675 310.5,273.5C 306.805,275.195 304.139,277.861 302.5,281.5C 298.805,283.195 296.139,285.861 294.5,289.5C 290.805,291.195 288.139,293.861 286.5,297.5C 283.205,300.312 279.538,302.312 275.5,303.5C 275.5,306.167 275.5,308.833 275.5,311.5C 274.167,311.5 272.833,311.5 271.5,311.5C 271.5,314.167 271.5,316.833 271.5,319.5C 268.833,319.5 266.167,319.5 263.5,319.5C 263.5,322.167 263.5,324.833 263.5,327.5C 260.833,327.5 258.167,327.5 255.5,327.5C 255.5,330.167 255.5,332.833 255.5,335.5C 252.833,335.5 250.167,335.5 247.5,335.5C 247.5,338.167 247.5,340.833 247.5,343.5C 244.833,343.5 242.167,343.5 239.5,343.5C 239.5,346.167 239.5,348.833 239.5,351.5C 236.833,351.5 234.167,351.5 231.5,351.5C 231.5,354.167 231.5,356.833 231.5,359.5C 228.833,359.5 226.167,359.5 223.5,359.5C 223.5,362.167 223.5,364.833 223.5,367.5C 222.167,367.5 220.833,367.5 219.5,367.5C 219.5,370.167 219.5,372.833 219.5,375.5C 216.833,375.5 214.167,375.5 211.5,375.5C 211.5,378.167 211.5,380.833 211.5,383.5C 207.551,384.474 204.218,386.474 201.5,389.5C 199.952,389.821 199.285,390.821 199.5,392.5C 196.813,392.336 194.146,392.503 191.5,393C 196.823,393.499 202.156,393.666 207.5,393.5C 167.015,394.23 126.349,394.397 85.5,394C 80.972,393.528 76.6387,392.528 72.5,391C 92.814,389.758 113.147,389.258 133.5,389.5C 133.5,387.5 133.5,385.5 133.5,383.5C 136.167,383.5 138.833,383.5 141.5,383.5C 141.5,380.833 141.5,378.167 141.5,375.5C 144.167,375.5 146.833,375.5 149.5,375.5C 149.5,372.833 149.5,370.167 149.5,367.5C 150.873,367.657 152.207,367.49 153.5,367C 162.857,357.063 172.69,347.563 183,338.5C 183.483,337.552 183.649,336.552 183.5,335.5C 184.5,335.5 185.5,335.5 186.5,335.5C 186.5,332.833 186.5,330.167 186.5,327.5C 188.167,327.5 189.833,327.5 191.5,327.5C 191.281,326.325 191.614,325.325 192.5,324.5C 194.389,323.396 196.055,322.063 197.5,320.5C 199.045,319.548 200.712,319.215 202.5,319.5C 202.5,316.833 202.5,314.167 202.5,311.5C 204.167,311.5 205.833,311.5 207.5,311.5C 207.281,310.325 207.614,309.325 208.5,308.5C 210.389,307.396 212.055,306.063 213.5,304.5C 215.045,303.548 216.712,303.215 218.5,303.5C 218.5,300.833 218.5,298.167 218.5,295.5C 220.167,295.5 221.833,295.5 223.5,295.5C 223.351,296.552 223.517,297.552 224,298.5C 226.277,295.301 227.11,291.635 226.5,287.5C 228.167,287.5 229.833,287.5 231.5,287.5C 231.5,284.833 231.5,282.167 231.5,279.5C 234.167,279.5 236.833,279.5 239.5,279.5C 239.5,276.5 239.5,273.5 239.5,270.5C 242.833,270.5 246.167,270.5 249.5,270.5C 260.505,270.667 271.505,270.5 282.5,270C 284.382,269.802 286.048,269.302 287.5,268.5C 292.591,266.871 297.924,265.871 303.5,265.5C 306.397,264.871 309.064,263.871 311.5,262.5C 316.685,260.406 321.685,258.072 326.5,255.5 Z"/></g>
<g><path style="opacity:1" fill="#765cdc" d="M 164.5,274.5 C 164.389,275.117 164.056,275.617 163.5,276C 160.629,276.118 157.962,276.784 155.5,278C 151.514,278.499 147.514,278.666 143.5,278.5C 135.316,278.826 127.316,278.492 119.5,277.5C 129.348,277.827 139.014,277.494 148.5,276.5C 149.5,276.5 150.5,276.5 151.5,276.5C 155.854,275.914 160.188,275.248 164.5,274.5 Z"/></g>
<g><path style="opacity:1" fill="#412bc8" d="M 1.5,79.5 C 1.16742,154.335 1.50075,229.002 2.5,303.5C 2.5,314.167 2.5,324.833 2.5,335.5C 1.19371,330.384 0.527047,325.051 0.5,319.5C 0.167368,239.332 0.500701,159.332 1.5,79.5 Z"/></g>
<g><path style="opacity:1" fill="#4e2ce8" d="M 175.5,286.5 C 169.485,286.853 163.152,287.187 156.5,287.5C 156.5,290.167 156.5,292.833 156.5,295.5C 153.833,295.5 151.167,295.5 148.5,295.5C 148.5,298.167 148.5,300.833 148.5,303.5C 145.833,303.5 143.167,303.5 140.5,303.5C 140.5,306.167 140.5,308.833 140.5,311.5C 138.833,311.5 137.167,311.5 135.5,311.5C 135.5,314.167 135.5,316.833 135.5,319.5C 132.833,319.5 130.167,319.5 127.5,319.5C 127.5,322.167 127.5,324.833 127.5,327.5C 124.833,327.5 122.167,327.5 119.5,327.5C 119.5,330.167 119.5,332.833 119.5,335.5C 117.167,335.5 114.833,335.5 112.5,335.5C 112.223,338.448 112.556,341.281 113.5,344C 110.587,343.71 107.587,343.543 104.5,343.5C 104.223,346.448 104.556,349.281 105.5,352C 102.587,351.71 99.5865,351.543 96.5,351.5C 96.666,356.844 96.4994,362.177 96,367.5C 95.5026,364.854 95.3359,362.187 95.5,359.5C 93.1667,359.5 90.8333,359.5 88.5,359.5C 89.3056,367.061 88.9723,370.728 87.5,370.5C 84.5114,371.298 81.8448,372.798 79.5,375C 80.8333,378 80.8333,381 79.5,384C 74.1667,384.333 68.8333,384.667 63.5,385C 67.1667,385.333 70.8333,385.667 74.5,386C 71.176,388.128 67.5094,388.961 63.5,388.5C 63.719,389.675 63.3857,390.675 62.5,391.5C 57.2546,389.561 52.2546,387.228 47.5,384.5C 44.2317,383.513 40.8984,383.18 37.5,383.5C 36.5987,382.71 35.9321,381.71 35.5,380.5C 34.4324,379.566 33.099,379.232 31.5,379.5C 32.449,377.263 33.1156,374.929 33.5,372.5C 30.999,373.826 28.3323,374.326 25.5,374C 24.1387,372.416 23.472,370.582 23.5,368.5C 24.552,368.649 25.552,368.483 26.5,368C 24.5273,367.505 22.5273,367.338 20.5,367.5C 20.6427,365.738 20.3094,364.071 19.5,362.5C 21.7443,361.997 23.0776,360.663 23.5,358.5C 22.0629,356.423 21.3962,354.09 21.5,351.5C 22.675,351.281 23.675,351.614 24.5,352.5C 25.0256,354.23 26.0256,355.564 27.5,356.5C 27.8333,355.667 28.1667,354.833 28.5,354C 25.952,351.193 26.6187,349.027 30.5,347.5C 31.4742,345.257 31.8076,342.924 31.5,340.5C 34.3149,339.874 36.8149,338.54 39,336.5C 39.49,335.207 39.6567,333.873 39.5,332.5C 42.3149,331.874 44.8149,330.54 47,328.5C 47.49,327.207 47.6567,325.873 47.5,324.5C 50.3149,323.874 52.8149,322.54 55,320.5C 55.49,319.207 55.6567,317.873 55.5,316.5C 58.3149,315.874 60.8149,314.54 63,312.5C 63.49,311.207 63.6567,309.873 63.5,308.5C 67.0171,306.576 70.6837,304.909 74.5,303.5C 74.5,300.833 74.5,298.167 74.5,295.5C 76.1667,295.5 77.8333,295.5 79.5,295.5C 79.5,294.5 79.5,293.5 79.5,292.5C 82.1398,292.046 84.4732,290.879 86.5,289C 87.6341,287.984 87.3008,287.317 85.5,287C 87.1124,286.28 88.6124,286.446 90,287.5C 90.6012,285.863 91.1012,284.197 91.5,282.5C 88.6896,278.122 90.0229,276.622 95.5,278C 91.8541,280.133 92.3541,281.633 97,282.5C 101.806,281.008 101.64,279.841 96.5,279C 102.517,279.36 108.517,279.193 114.5,278.5C 115.5,278.667 116.5,278.833 117.5,279C 115.624,280.017 113.624,280.851 111.5,281.5C 116.792,282.495 122.125,282.828 127.5,282.5C 127.5,283.5 127.5,284.5 127.5,285.5C 132.867,285.641 138.201,285.808 143.5,286C 143.833,285.667 144.167,285.333 144.5,285C 140.833,284.667 137.167,284.333 133.5,284C 135.116,282.923 136.949,282.423 139,282.5C 146.651,283.632 154.318,284.632 162,285.5C 163.823,285.113 165.657,284.779 167.5,284.5C 170.178,285.175 172.844,285.842 175.5,286.5 Z"/></g>
<g><path style="opacity:1" fill="#e3cefd" d="M 398.5,319.5 C 398.833,319.5 399.167,319.5 399.5,319.5C 399.5,323.167 399.5,326.833 399.5,330.5C 398.833,330.833 398.167,331.167 397.5,331.5C 398.162,327.534 398.495,323.534 398.5,319.5 Z"/></g>
<g><path style="opacity:1" fill="#fdfcfc" d="M 399.5,330.5 C 399.5,353.5 399.5,376.5 399.5,399.5C 376.5,399.5 353.5,399.5 330.5,399.5C 330.833,398.833 331.167,398.167 331.5,397.5C 334.716,397.655 337.383,396.655 339.5,394.5C 342.108,394.6 344.442,393.933 346.5,392.5C 372.395,381.604 389.062,362.604 396.5,335.5C 397.434,334.432 397.768,333.099 397.5,331.5C 398.167,331.167 398.833,330.833 399.5,330.5 Z"/></g>
<g><path style="opacity:1" fill="#fdfcfb" d="M -0.5,319.5 C -0.166667,319.5 0.166667,319.5 0.5,319.5C 0.527047,325.051 1.19371,330.384 2.5,335.5C 4.62311,345.406 8.62311,354.406 14.5,362.5C 19.5187,369.183 25.1854,375.183 31.5,380.5C 34.6997,384.366 38.6997,387.033 43.5,388.5C 49.6081,392.37 56.2747,395.037 63.5,396.5C 67.8511,397.408 72.1844,398.408 76.5,399.5C 50.8333,399.5 25.1667,399.5 -0.5,399.5C -0.5,372.833 -0.5,346.167 -0.5,319.5 Z"/></g>
<g><path style="opacity:1" fill="#6f41ef" d="M 396.5,335.5 C 389.062,362.604 372.395,381.604 346.5,392.5C 346.53,391.503 346.03,390.836 345,390.5C 343.118,391.606 341.284,391.606 339.5,390.5C 342.627,388.721 345.96,387.387 349.5,386.5C 350.672,386.919 351.672,387.585 352.5,388.5C 353.754,386.741 353.421,385.241 351.5,384C 354.126,384.148 356.626,383.981 359,383.5C 361.74,380.946 364.907,378.946 368.5,377.5C 367.167,376.5 365.833,375.5 364.5,374.5C 366.789,371.709 369.289,369.042 372,366.5C 373.754,368.25 375.921,368.917 378.5,368.5C 378.678,365.784 379.178,363.117 380,360.5C 381.32,360.201 382.82,360.034 384.5,360C 383.217,357.205 383.217,354.372 384.5,351.5C 389.223,345.537 390.89,338.87 389.5,331.5C 390.833,331.5 392.167,331.5 393.5,331.5C 393.338,333.527 393.505,335.527 394,337.5C 394.417,336.244 395.25,335.577 396.5,335.5 Z"/></g>
<g><path style="opacity:1" fill="#5536d6" d="M 14.5,362.5 C 17.4334,363.104 19.4334,364.771 20.5,367.5C 22.5273,367.338 24.5273,367.505 26.5,368C 25.552,368.483 24.552,368.649 23.5,368.5C 23.472,370.582 24.1387,372.416 25.5,374C 28.3323,374.326 30.999,373.826 33.5,372.5C 33.1156,374.929 32.449,377.263 31.5,379.5C 33.099,379.232 34.4324,379.566 35.5,380.5C 34.1667,380.5 32.8333,380.5 31.5,380.5C 25.1854,375.183 19.5187,369.183 14.5,362.5 Z"/></g>
<g><path style="opacity:1" fill="#765cd2" d="M 31.5,380.5 C 32.8333,380.5 34.1667,380.5 35.5,380.5C 35.9321,381.71 36.5987,382.71 37.5,383.5C 39.751,384.818 41.751,386.484 43.5,388.5C 38.6997,387.033 34.6997,384.366 31.5,380.5 Z"/></g>
<g><path style="opacity:1" fill="#5d37df" d="M 339.5,394.5 C 337.383,396.655 334.716,397.655 331.5,397.5C 327.534,398.162 323.534,398.495 319.5,398.5C 239.499,398.667 159.499,398.5 79.5,398C 76.6353,397.817 73.9686,397.317 71.5,396.5C 132.821,395.53 194.154,395.197 255.5,395.5C 278.68,395.224 301.846,395.558 325,396.5C 329.869,396.026 334.702,395.359 339.5,394.5 Z"/></g>
<g><path style="opacity:1" fill="#916dfd" d="M 63.5,396.5 C 66.1667,396.5 68.8333,396.5 71.5,396.5C 73.9686,397.317 76.6353,397.817 79.5,398C 159.499,398.5 239.499,398.667 319.5,398.5C 319.5,398.833 319.5,399.167 319.5,399.5C 238.5,399.5 157.5,399.5 76.5,399.5C 72.1844,398.408 67.8511,397.408 63.5,396.5 Z"/></g>
<g><path style="opacity:1" fill="#e2cdfc" d="M 331.5,397.5 C 331.167,398.167 330.833,398.833 330.5,399.5C 326.833,399.5 323.167,399.5 319.5,399.5C 319.5,399.167 319.5,398.833 319.5,398.5C 323.534,398.495 327.534,398.162 331.5,397.5 Z"/></g>
</svg>
