<?xml version="1.0" encoding="UTF-8"?>
<!DOCTYPE svg PUBLIC "-//W3C//DTD SVG 1.1//EN" "http://www.w3.org/Graphics/SVG/1.1/DTD/svg11.dtd">
<svg xmlns="http://www.w3.org/2000/svg" version="1.1" width="400px" height="400px" style="shape-rendering:geometricPrecision; text-rendering:geometricPrecision; image-rendering:optimizeQuality; fill-rule:evenodd; clip-rule:evenodd" xmlns:xlink="http://www.w3.org/1999/xlink">
<g><path style="opacity:1" fill="#fefefe" d="M -0.5,-0.5 C 132.833,-0.5 266.167,-0.5 399.5,-0.5C 399.5,132.833 399.5,266.167 399.5,399.5C 266.167,399.5 132.833,399.5 -0.5,399.5C -0.5,266.167 -0.5,132.833 -0.5,-0.5 Z"/></g>
<g><path style="opacity:1" fill="#08aefb" d="M 239.5,52.5 C 245.015,53.5912 250.348,55.2579 255.5,57.5C 254.746,60.091 253.079,61.9243 250.5,63C 252.134,63.4935 253.801,63.6602 255.5,63.5C 255.281,62.325 255.614,61.325 256.5,60.5C 258.5,61.1667 260.5,61.8333 262.5,62.5C 263.704,65.4147 265.704,67.5814 268.5,69C 270.135,69.5396 271.468,69.0396 272.5,67.5C 276.277,69.4354 279.943,71.602 283.5,74C 277.422,75.5312 277.089,77.6979 282.5,80.5C 284.045,81.4519 285.712,81.7852 287.5,81.5C 287.5,83.1667 287.5,84.8333 287.5,86.5C 284.743,86.6216 282.743,85.4549 281.5,83C 276.762,80.7302 272.095,80.5635 267.5,82.5C 261.816,79.8564 255.816,78.8564 249.5,79.5C 248.508,79.6716 247.842,79.3382 247.5,78.5C 245.333,76.4887 242.666,75.3221 239.5,75C 241.5,74.6667 243.5,74.3333 245.5,74C 244.833,73.6667 244.167,73.3333 243.5,73C 244.938,72.7811 246.271,72.2811 247.5,71.5C 244.911,70.795 242.244,70.795 239.5,71.5C 239.5,69.5 239.5,67.5 239.5,65.5C 250.157,64.3421 250.157,63.5087 239.5,63C 238.8,65.4718 237.8,67.8051 236.5,70C 237.943,72.0777 237.276,72.9111 234.5,72.5C 235.562,63.9539 231.895,60.6206 223.5,62.5C 223.371,69.6753 224.038,70.0086 225.5,63.5C 227.167,63.5 228.833,63.5 230.5,63.5C 230.232,66.1194 230.565,68.6194 231.5,71C 228.895,73.4114 228.895,75.9114 231.5,78.5C 230.268,81.3004 229.601,84.3004 229.5,87.5C 229.764,91.9555 230.598,96.2889 232,100.5C 235.341,102.039 238.841,103.206 242.5,104C 245.057,104.685 246.891,106.185 248,108.5C 248.414,108.043 248.914,107.709 249.5,107.5C 250.85,108.95 252.516,109.617 254.5,109.5C 265.847,115.264 275.347,123.264 283,133.5C 284.777,136.059 286.277,138.726 287.5,141.5C 285.5,142.167 283.5,142.833 281.5,143.5C 281.5,144.5 281.5,145.5 281.5,146.5C 278.68,146.039 276.013,146.039 273.5,146.5C 272.353,146.182 271.519,145.516 271,144.5C 271.348,147.543 271.182,150.543 270.5,153.5C 275.32,154.961 276.653,157.961 274.5,162.5C 262.618,141.622 245.285,127.289 222.5,119.5C 219.808,116.858 216.475,115.858 212.5,116.5C 212.33,115.178 212.663,114.011 213.5,113C 215.5,112.667 217.5,112.333 219.5,112C 218.176,95.8972 218.176,79.7306 219.5,63.5C 220.333,79.4896 220.833,95.4896 221,111.5C 221.175,95.2593 221.675,79.0926 222.5,63C 221.809,61.9326 221.309,60.7659 221,59.5C 220.558,61.6785 219.558,62.3452 218,61.5C 216.918,56.0312 219.252,54.0312 225,55.5C 228.985,55.4325 232.818,56.0992 236.5,57.5C 237.5,57.1667 238.5,56.8333 239.5,56.5C 237.234,55.6858 234.9,55.1858 232.5,55C 235.544,54.6411 235.878,53.9745 233.5,53C 235.473,52.5045 237.473,52.3379 239.5,52.5 Z"/></g>
<g><path style="opacity:1" fill="#22b1f4" d="M 239.5,52.5 C 237.473,52.3379 235.473,52.5045 233.5,53C 235.878,53.9745 235.544,54.6411 232.5,55C 234.9,55.1858 237.234,55.6858 239.5,56.5C 238.5,56.8333 237.5,57.1667 236.5,57.5C 232.818,56.0992 228.985,55.4325 225,55.5C 219.252,54.0312 216.918,56.0312 218,61.5C 219.558,62.3452 220.558,61.6785 221,59.5C 221.309,60.7659 221.809,61.9326 222.5,63C 221.675,79.0926 221.175,95.2593 221,111.5C 220.833,95.4896 220.333,79.4896 219.5,63.5C 218.176,79.7306 218.176,95.8972 219.5,112C 217.5,112.333 215.5,112.667 213.5,113C 212.663,114.011 212.33,115.178 212.5,116.5C 216.475,115.858 219.808,116.858 222.5,119.5C 218.833,118.833 215.167,118.167 211.5,117.5C 210.502,94.3393 210.169,71.006 210.5,47.5C 220.476,48.1161 230.143,49.7828 239.5,52.5 Z"/></g>
<g><path style="opacity:1" fill="#27b1f2" d="M 247.5,78.5 C 243.12,77.7066 238.786,76.7066 234.5,75.5C 234.169,83.5277 234.502,91.5277 235.5,99.5C 242.338,102.083 248.671,105.416 254.5,109.5C 252.516,109.617 250.85,108.95 249.5,107.5C 248.914,107.709 248.414,108.043 248,108.5C 246.891,106.185 245.057,104.685 242.5,104C 238.841,103.206 235.341,102.039 232,100.5C 230.598,96.2889 229.764,91.9555 229.5,87.5C 229.601,84.3004 230.268,81.3004 231.5,78.5C 228.895,75.9114 228.895,73.4114 231.5,71C 230.565,68.6194 230.232,66.1194 230.5,63.5C 228.833,63.5 227.167,63.5 225.5,63.5C 224.038,70.0086 223.371,69.6753 223.5,62.5C 231.895,60.6206 235.562,63.9539 234.5,72.5C 237.276,72.9111 237.943,72.0777 236.5,70C 237.8,67.8051 238.8,65.4718 239.5,63C 250.157,63.5087 250.157,64.3421 239.5,65.5C 239.5,67.5 239.5,69.5 239.5,71.5C 242.244,70.795 244.911,70.795 247.5,71.5C 246.271,72.2811 244.938,72.7811 243.5,73C 244.167,73.3333 244.833,73.6667 245.5,74C 243.5,74.3333 241.5,74.6667 239.5,75C 242.666,75.3221 245.333,76.4887 247.5,78.5 Z"/></g>
<g><path style="opacity:1" fill="#18aff4" d="M 255.5,57.5 C 281.674,67.5786 303.007,83.9119 319.5,106.5C 318.167,106.5 316.833,106.5 315.5,106.5C 315.5,107.5 315.5,108.5 315.5,109.5C 314.5,109.5 313.5,109.5 312.5,109.5C 312.915,107.253 313.582,105.086 314.5,103C 314.331,100.833 313.164,99.6659 311,99.5C 309.756,101.576 307.923,102.576 305.5,102.5C 305.888,100.315 306.888,98.482 308.5,97C 307.293,95.6998 306.626,94.1998 306.5,92.5C 304.339,92.1742 302.506,91.1742 301,89.5C 300.717,91.6019 301.55,93.2685 303.5,94.5C 303,94.8333 302.5,95.1667 302,95.5C 299.192,94.6274 297.025,92.9607 295.5,90.5C 296.833,89.8333 298.167,89.1667 299.5,88.5C 298.754,87.2638 298.421,85.9305 298.5,84.5C 296.712,84.2148 295.045,84.5481 293.5,85.5C 289.081,90.4951 284.247,91.1617 279,87.5C 278.5,88.6667 277.667,89.5 276.5,90C 279.46,93.1149 282.96,93.9483 287,92.5C 291.472,94.9553 290.972,96.6219 285.5,97.5C 285.491,99.3084 285.991,100.975 287,102.5C 293.047,104.256 296.547,108.256 297.5,114.5C 283.719,99.708 267.719,88.0414 249.5,79.5C 255.816,78.8564 261.816,79.8564 267.5,82.5C 272.095,80.5635 276.762,80.7302 281.5,83C 282.743,85.4549 284.743,86.6216 287.5,86.5C 287.5,84.8333 287.5,83.1667 287.5,81.5C 285.712,81.7852 284.045,81.4519 282.5,80.5C 277.089,77.6979 277.422,75.5312 283.5,74C 279.943,71.602 276.277,69.4354 272.5,67.5C 271.468,69.0396 270.135,69.5396 268.5,69C 265.704,67.5814 263.704,65.4147 262.5,62.5C 260.5,61.8333 258.5,61.1667 256.5,60.5C 255.614,61.325 255.281,62.325 255.5,63.5C 253.801,63.6602 252.134,63.4935 250.5,63C 253.079,61.9243 254.746,60.091 255.5,57.5 Z"/></g>
<g><path style="opacity:1" fill="#0daef9" d="M 187.5,47.5 C 187.5,70.8333 187.5,94.1667 187.5,117.5C 175.565,119.143 164.565,123.143 154.5,129.5C 151.951,129.387 149.618,130.054 147.5,131.5C 145.9,128.904 143.567,127.57 140.5,127.5C 140.719,126.325 140.386,125.325 139.5,124.5C 136.757,126.332 133.757,127.332 130.5,127.5C 130.5,126.5 130.5,125.5 130.5,124.5C 134.515,124.724 135.181,123.557 132.5,121C 134.684,118.483 137.184,116.317 140,114.5C 140.483,113.552 140.649,112.552 140.5,111.5C 144.125,110.758 147.792,110.591 151.5,111C 149.114,110.716 148.448,109.716 149.5,108C 155.508,105.913 161.341,103.413 167,100.5C 167.044,96.1924 166.877,91.859 166.5,87.5C 166.641,84.1805 167.307,81.0138 168.5,78C 168.182,75.6249 166.849,74.4583 164.5,74.5C 128.443,85.5731 101.443,107.573 83.5,140.5C 81.9452,135.724 80.1118,131.057 78,126.5C 77.1301,127.108 76.6301,127.941 76.5,129C 77.2865,131.099 77.6199,133.266 77.5,135.5C 74.5794,135.146 72.2461,136.146 70.5,138.5C 67.7238,137.911 65.3904,136.578 63.5,134.5C 61.6466,136.809 59.98,139.142 58.5,141.5C 60.5086,135.65 63.0086,129.983 66,124.5C 67.6091,121.593 69.4424,118.927 71.5,116.5C 72.7079,115.766 74.0413,115.433 75.5,115.5C 75.238,114.022 75.5713,112.689 76.5,111.5C 79.0512,108.755 81.2179,105.755 83,102.5C 85.5635,99.0691 88.7301,96.7358 92.5,95.5C 92.5,94.5 92.5,93.5 92.5,92.5C 93.5,92.5 94.5,92.5 95.5,92.5C 95.5,91.5 95.5,90.5 95.5,89.5C 98.3882,89.7804 99.8882,88.4471 100,85.5C 102.621,83.9806 104.788,84.4806 106.5,87C 107.5,87.6667 108.5,87.6667 109.5,87C 108.624,85.414 107.624,83.914 106.5,82.5C 109.251,81.984 111.584,80.8173 113.5,79C 111.893,77.951 111.227,76.451 111.5,74.5C 134.159,58.3885 159.493,49.3885 187.5,47.5 Z"/></g>
<g><path style="opacity:1" fill="#31afe4" d="M 111.5,74.5 C 111.227,76.451 111.893,77.951 113.5,79C 111.584,80.8173 109.251,81.984 106.5,82.5C 107.624,83.914 108.624,85.414 109.5,87C 108.5,87.6667 107.5,87.6667 106.5,87C 104.788,84.4806 102.621,83.9806 100,85.5C 99.8882,88.4471 98.3882,89.7804 95.5,89.5C 95.5,90.5 95.5,91.5 95.5,92.5C 94.5,92.5 93.5,92.5 92.5,92.5C 92.5,93.5 92.5,94.5 92.5,95.5C 88.7301,96.7358 85.5635,99.0691 83,102.5C 81.2179,105.755 79.0512,108.755 76.5,111.5C 75.5713,112.689 75.238,114.022 75.5,115.5C 74.0413,115.433 72.7079,115.766 71.5,116.5C 81.7202,99.6112 95.0536,85.6112 111.5,74.5 Z"/></g>
<g><path style="opacity:1" fill="#10aef9" d="M 319.5,106.5 C 330.327,119.145 338.327,133.478 343.5,149.5C 341.59,148.025 340.424,146.025 340,143.5C 338.354,144.779 337.187,146.445 336.5,148.5C 335.551,145.874 335.551,143.208 336.5,140.5C 335.127,140.343 333.793,140.51 332.5,141C 330.041,142.693 327.708,144.526 325.5,146.5C 324.646,145.478 323.646,144.645 322.5,144C 323.5,143.667 324.5,143.333 325.5,143C 324.786,141.657 325.12,140.324 326.5,139C 326,138.833 325.5,138.667 325,138.5C 320.362,140.638 318.529,144.304 319.5,149.5C 313.431,137.027 306.098,125.36 297.5,114.5C 296.547,108.256 293.047,104.256 287,102.5C 285.991,100.975 285.491,99.3084 285.5,97.5C 290.972,96.6219 291.472,94.9553 287,92.5C 282.96,93.9483 279.46,93.1149 276.5,90C 277.667,89.5 278.5,88.6667 279,87.5C 284.247,91.1617 289.081,90.4951 293.5,85.5C 295.045,84.5481 296.712,84.2148 298.5,84.5C 298.421,85.9305 298.754,87.2638 299.5,88.5C 298.167,89.1667 296.833,89.8333 295.5,90.5C 297.025,92.9607 299.192,94.6274 302,95.5C 302.5,95.1667 303,94.8333 303.5,94.5C 301.55,93.2685 300.717,91.6019 301,89.5C 302.506,91.1742 304.339,92.1742 306.5,92.5C 306.626,94.1998 307.293,95.6998 308.5,97C 306.888,98.482 305.888,100.315 305.5,102.5C 307.923,102.576 309.756,101.576 311,99.5C 313.164,99.6659 314.331,100.833 314.5,103C 313.582,105.086 312.915,107.253 312.5,109.5C 313.5,109.5 314.5,109.5 315.5,109.5C 315.5,108.5 315.5,107.5 315.5,106.5C 316.833,106.5 318.167,106.5 319.5,106.5 Z"/></g>
<g><path style="opacity:1" fill="#2faee6" d="M 164.5,74.5 C 166.849,74.4583 168.182,75.6249 168.5,78C 167.307,81.0138 166.641,84.1805 166.5,87.5C 166.877,91.859 167.044,96.1924 167,100.5C 161.341,103.413 155.508,105.913 149.5,108C 148.448,109.716 149.114,110.716 151.5,111C 147.792,110.591 144.125,110.758 140.5,111.5C 147.635,105.932 155.635,101.932 164.5,99.5C 164.5,91.1667 164.5,82.8333 164.5,74.5 Z"/></g>
<g><path style="opacity:1" fill="#1eb0f4" d="M 140.5,111.5 C 140.649,112.552 140.483,113.552 140,114.5C 137.184,116.317 134.684,118.483 132.5,121C 135.181,123.557 134.515,124.724 130.5,124.5C 130.5,125.5 130.5,126.5 130.5,127.5C 133.757,127.332 136.757,126.332 139.5,124.5C 140.386,125.325 140.719,126.325 140.5,127.5C 143.567,127.57 145.9,128.904 147.5,131.5C 149.618,130.054 151.951,129.387 154.5,129.5C 150.538,132.488 146.538,135.488 142.5,138.5C 140.516,138.617 138.85,137.95 137.5,136.5C 136.808,137.025 136.308,137.692 136,138.5C 134.577,135.408 132.243,133.408 129,132.5C 128.667,132.833 128.333,133.167 128,133.5C 127.692,132.692 127.192,132.025 126.5,131.5C 125.843,135.903 124.01,136.57 121,133.5C 117.967,136.036 114.8,138.369 111.5,140.5C 118.8,128.534 128.466,118.867 140.5,111.5 Z"/></g>
<g><path style="opacity:1" fill="#0da8f9" d="M 83.5,140.5 C 80.466,147.89 77.466,155.224 74.5,162.5C 74.0525,156.824 73.2192,156.491 72,161.5C 70.3035,159.44 69.1369,157.107 68.5,154.5C 67.3112,153.571 65.9778,153.238 64.5,153.5C 64.7573,159.914 63.5906,160.58 61,155.5C 60.6667,153.5 60.3333,151.5 60,149.5C 59.3292,150.252 58.4959,150.586 57.5,150.5C 57.5,148.167 57.5,145.833 57.5,143.5C 57.3284,142.508 57.6618,141.842 58.5,141.5C 59.98,139.142 61.6466,136.809 63.5,134.5C 65.3904,136.578 67.7238,137.911 70.5,138.5C 72.2461,136.146 74.5794,135.146 77.5,135.5C 77.6199,133.266 77.2865,131.099 76.5,129C 76.6301,127.941 77.1301,127.108 78,126.5C 80.1118,131.057 81.9452,135.724 83.5,140.5 Z"/></g>
<g><path style="opacity:1" fill="#f5fcfa" d="M 164.5,74.5 C 164.5,82.8333 164.5,91.1667 164.5,99.5C 155.635,101.932 147.635,105.932 140.5,111.5C 128.466,118.867 118.8,128.534 111.5,140.5C 111.715,142.179 111.048,143.179 109.5,143.5C 105.793,148.247 103.126,153.581 101.5,159.5C 101.167,159.5 100.833,159.5 100.5,159.5C 99.4815,155.809 99.3148,152.143 100,148.5C 99.6667,148.167 99.3333,147.833 99,147.5C 98,148.833 97,150.167 96,151.5C 94.2276,148.428 93.061,145.095 92.5,141.5C 91.5224,141.977 90.6891,142.643 90,143.5C 89.5006,148.823 89.334,154.156 89.5,159.5C 88.1667,159.5 86.8333,159.5 85.5,159.5C 84.9528,155.858 84.9528,152.358 85.5,149C 85.5463,147.272 85.0463,145.772 84,144.5C 82.1745,151.427 80.6745,158.427 79.5,165.5C 78.1779,165.67 77.0113,165.337 76,164.5C 74.627,166.695 74.2937,169.029 75,171.5C 76.1475,170.542 77.1475,170.875 78,172.5C 78.3333,171.5 78.6667,170.5 79,169.5C 79.3716,176.84 79.2049,184.173 78.5,191.5C 77.5,191.5 76.5,191.5 75.5,191.5C 75.5688,186.146 75.9022,180.813 76.5,175.5C 75.1667,175.5 73.8333,175.5 72.5,175.5C 72.6871,171.087 73.3538,166.754 74.5,162.5C 77.466,155.224 80.466,147.89 83.5,140.5C 101.443,107.573 128.443,85.5731 164.5,74.5 Z"/></g>
<g><path style="opacity:1" fill="#0ca3f8" d="M 343.5,149.5 C 344.508,152.844 345.508,156.177 346.5,159.5C 344.066,158.229 342.566,156.229 342,153.5C 340.681,155.25 340.181,157.25 340.5,159.5C 339.5,159.5 338.5,159.5 337.5,159.5C 337.286,157.856 337.62,156.356 338.5,155C 337.299,154.097 336.465,152.931 336,151.5C 335.818,154.226 335.318,156.893 334.5,159.5C 333.702,157.922 333.202,156.256 333,154.5C 332.107,155.711 331.274,155.711 330.5,154.5C 331.485,152.902 331.651,151.235 331,149.5C 330.137,152.959 328.97,156.293 327.5,159.5C 326.682,156.893 326.182,154.226 326,151.5C 324.39,153.939 323.556,156.606 323.5,159.5C 322.167,157.167 320.833,154.833 319.5,152.5C 319.5,151.5 319.5,150.5 319.5,149.5C 318.529,144.304 320.362,140.638 325,138.5C 325.5,138.667 326,138.833 326.5,139C 325.12,140.324 324.786,141.657 325.5,143C 324.5,143.333 323.5,143.667 322.5,144C 323.646,144.645 324.646,145.478 325.5,146.5C 327.708,144.526 330.041,142.693 332.5,141C 333.793,140.51 335.127,140.343 336.5,140.5C 335.551,143.208 335.551,145.874 336.5,148.5C 337.187,146.445 338.354,144.779 340,143.5C 340.424,146.025 341.59,148.025 343.5,149.5 Z"/></g>
<g><path style="opacity:1" fill="#0ca6fa" d="M 142.5,138.5 C 134.074,147.039 127.408,156.706 122.5,167.5C 123.011,164.307 123.678,161.141 124.5,158C 123.867,154.907 122.034,152.74 119,151.5C 116.437,151.341 113.77,151.675 111,152.5C 110.925,149.553 109.758,148.553 107.5,149.5C 108.63,147.685 109.296,145.685 109.5,143.5C 111.048,143.179 111.715,142.179 111.5,140.5C 114.8,138.369 117.967,136.036 121,133.5C 124.01,136.57 125.843,135.903 126.5,131.5C 127.192,132.025 127.692,132.692 128,133.5C 128.333,133.167 128.667,132.833 129,132.5C 132.243,133.408 134.577,135.408 136,138.5C 136.308,137.692 136.808,137.025 137.5,136.5C 138.85,137.95 140.516,138.617 142.5,138.5 Z"/></g>
<g><path style="opacity:1" fill="#f9fcfb" d="M 247.5,78.5 C 247.842,79.3382 248.508,79.6716 249.5,79.5C 267.719,88.0414 283.719,99.708 297.5,114.5C 306.098,125.36 313.431,137.027 319.5,149.5C 319.5,150.5 319.5,151.5 319.5,152.5C 319.932,157.439 320.099,162.439 320,167.5C 320.333,165.833 320.667,164.167 321,162.5C 323.955,169.871 325.955,177.537 327,185.5C 327.589,199.207 327.089,212.873 325.5,226.5C 324.833,230.833 324.167,235.167 323.5,239.5C 321.175,244.74 318.841,250.074 316.5,255.5C 316.167,255.5 315.833,255.5 315.5,255.5C 312.32,259.701 309.32,264.035 306.5,268.5C 305.757,267.092 304.923,265.759 304,264.5C 303.683,266.301 303.016,266.634 302,265.5C 301.259,262.438 301.425,259.438 302.5,256.5C 301.147,255.476 300.48,254.143 300.5,252.5C 299.5,252.5 298.5,252.5 297.5,252.5C 296.825,256.357 295.658,260.023 294,263.5C 292.159,266.178 289.659,267.845 286.5,268.5C 285.614,267.675 285.281,266.675 285.5,265.5C 286.502,263.989 287.169,262.322 287.5,260.5C 288.397,261.598 289.23,261.598 290,260.5C 291.202,258.323 291.702,255.989 291.5,253.5C 294.069,249.913 295.736,245.913 296.5,241.5C 297.338,241.158 297.672,240.492 297.5,239.5C 300.748,232.972 302.748,225.972 303.5,218.5C 305.019,212.238 305.686,205.738 305.5,199C 305.92,190.841 304.92,183.007 302.5,175.5C 300.156,162.828 295.156,151.495 287.5,141.5C 286.277,138.726 284.777,136.059 283,133.5C 275.347,123.264 265.847,115.264 254.5,109.5C 248.671,105.416 242.338,102.083 235.5,99.5C 234.502,91.5277 234.169,83.5277 234.5,75.5C 238.786,76.7066 243.12,77.7066 247.5,78.5 Z"/></g>
<g><path style="opacity:1" fill="#29a7e0" d="M 57.5,143.5 C 57.5,145.833 57.5,148.167 57.5,150.5C 57.5,152.167 57.5,153.833 57.5,155.5C 56.5,155.5 55.5,155.5 54.5,155.5C 54.8432,157.483 54.1765,158.817 52.5,159.5C 53.3904,153.834 55.057,148.5 57.5,143.5 Z"/></g>
<g><path style="opacity:1" fill="#109ff9" d="M 287.5,141.5 C 295.156,151.495 300.156,162.828 302.5,175.5C 300.673,170.977 298.34,166.644 295.5,162.5C 294.684,164.287 293.684,165.954 292.5,167.5C 291.146,164.933 291.48,162.599 293.5,160.5C 292.066,159.77 290.9,158.77 290,157.5C 289.759,160.289 289.092,162.956 288,165.5C 287.667,164.167 287.333,162.833 287,161.5C 285.136,164.207 282.636,165.041 279.5,164C 279.833,163.667 280.167,163.333 280.5,163C 278.926,162.664 277.592,161.831 276.5,160.5C 275.943,162.718 275.943,165.051 276.5,167.5C 275.069,166.22 274.402,164.553 274.5,162.5C 276.653,157.961 275.32,154.961 270.5,153.5C 271.182,150.543 271.348,147.543 271,144.5C 271.519,145.516 272.353,146.182 273.5,146.5C 276.013,146.039 278.68,146.039 281.5,146.5C 281.5,145.5 281.5,144.5 281.5,143.5C 283.5,142.833 285.5,142.167 287.5,141.5 Z"/></g>
<g><path style="opacity:1" fill="#0f9bf8" d="M 122.5,167.5 C 120.798,172.934 119.131,178.267 117.5,183.5C 118.859,177.115 118.692,170.782 117,164.5C 114.535,162.945 114.035,160.945 115.5,158.5C 111.622,157.512 109.456,159.178 109,163.5C 108.13,162.892 107.63,162.059 107.5,161C 107.616,158.551 107.616,156.051 107.5,153.5C 105.396,155.583 105.062,157.917 106.5,160.5C 105.915,163.503 105.248,166.503 104.5,169.5C 103.833,168.833 103.167,168.167 102.5,167.5C 101.667,168.5 100.833,169.5 100,170.5C 99.6667,169.833 99.3333,169.167 99,168.5C 98.023,170.74 97.523,173.073 97.5,175.5C 96.8333,175.833 96.1667,176.167 95.5,176.5C 96.9642,170.774 98.6309,165.107 100.5,159.5C 100.833,159.5 101.167,159.5 101.5,159.5C 103.959,156.607 105.959,153.274 107.5,149.5C 109.758,148.553 110.925,149.553 111,152.5C 113.77,151.675 116.437,151.341 119,151.5C 122.034,152.74 123.867,154.907 124.5,158C 123.678,161.141 123.011,164.307 122.5,167.5 Z"/></g>
<g><path style="opacity:1" fill="#37a8dd" d="M 109.5,143.5 C 109.296,145.685 108.63,147.685 107.5,149.5C 105.959,153.274 103.959,156.607 101.5,159.5C 103.126,153.581 105.793,148.247 109.5,143.5 Z"/></g>
<g><path style="opacity:1" fill="#f6fcfb" d="M 187.5,47.5 C 188.498,71.3275 188.831,95.3275 188.5,119.5C 192.339,120.05 192.339,121.05 188.5,122.5C 185.553,121.577 182.553,120.911 179.5,120.5C 179.5,121.833 179.5,123.167 179.5,124.5C 178.167,124.5 176.833,124.5 175.5,124.5C 175.215,126.288 175.548,127.955 176.5,129.5C 180.095,128.512 183.762,127.845 187.5,127.5C 195.319,129.141 202.985,128.808 210.5,126.5C 213.389,127.639 216.389,128.306 219.5,128.5C 223.476,127.836 227.476,127.503 231.5,127.5C 231.5,126.5 231.5,125.5 231.5,124.5C 229.046,124.321 226.879,124.987 225,126.5C 223.48,125.493 221.813,124.827 220,124.5C 217.491,125.093 214.991,125.259 212.5,125C 214.026,123.113 216.026,122.113 218.5,122C 214.92,121.248 211.253,120.748 207.5,120.5C 209.332,119.943 210.665,118.943 211.5,117.5C 215.167,118.167 218.833,118.833 222.5,119.5C 245.285,127.289 262.618,141.622 274.5,162.5C 274.402,164.553 275.069,166.22 276.5,167.5C 277.038,169.117 277.371,170.784 277.5,172.5C 275.376,178.378 275.043,184.378 276.5,190.5C 275.311,191.429 273.978,191.762 272.5,191.5C 272.5,196.833 272.5,202.167 272.5,207.5C 271.5,207.5 270.5,207.5 269.5,207.5C 270.398,196.427 268.731,185.761 264.5,175.5C 263.381,183.547 262.048,191.547 260.5,199.5C 260.562,202.613 261.229,205.446 262.5,208C 261.547,209.955 260.213,211.622 258.5,213C 230.887,212.36 203.221,212.36 175.5,213C 174.437,214.188 173.103,214.688 171.5,214.5C 171.343,215.873 171.51,217.207 172,218.5C 173.351,218.446 174.518,218.946 175.5,220C 175.182,222.375 173.849,223.542 171.5,223.5C 169.926,222.016 168.593,220.349 167.5,218.5C 165.572,216.219 164.572,213.553 164.5,210.5C 195.833,210.5 227.167,210.5 258.5,210.5C 258.5,209.5 258.5,208.5 258.5,207.5C 259.833,202.167 259.833,196.833 258.5,191.5C 258.145,186.45 256.812,181.783 254.5,177.5C 250.724,166.619 244.058,157.952 234.5,151.5C 220.12,141.483 204.12,137.983 186.5,141C 178.36,143.087 171.027,146.587 164.5,151.5C 163.833,151.5 163.5,151.833 163.5,152.5C 155.648,157.349 149.981,164.016 146.5,172.5C 145.609,173.261 144.942,174.261 144.5,175.5C 153.658,176.822 162.658,176.822 171.5,175.5C 181.35,165.199 193.35,161.366 207.5,164C 219.474,167.154 227.807,174.321 232.5,185.5C 201.833,186.167 171.167,186.833 140.5,187.5C 139.22,194.962 139.22,202.296 140.5,209.5C 140.802,212.373 141.469,215.039 142.5,217.5C 143.15,219.435 143.483,221.435 143.5,223.5C 141.887,223.056 140.72,222.056 140,220.5C 139.517,221.448 139.351,222.448 139.5,223.5C 137.833,223.5 136.167,223.5 134.5,223.5C 134.5,221.833 134.5,220.167 134.5,218.5C 133.167,218.5 131.833,218.5 130.5,218.5C 129.719,224.195 128.553,224.528 127,219.5C 126.83,221.715 126.163,223.715 125,225.5C 124.667,222.833 124.333,220.167 124,217.5C 122.758,219.859 121.258,221.859 119.5,223.5C 118.626,220.211 117.959,216.877 117.5,213.5C 116.629,205.2 116.295,196.867 116.5,188.5C 117.451,187.081 117.784,185.415 117.5,183.5C 119.131,178.267 120.798,172.934 122.5,167.5C 127.408,156.706 134.074,147.039 142.5,138.5C 146.538,135.488 150.538,132.488 154.5,129.5C 164.565,123.143 175.565,119.143 187.5,117.5C 187.5,94.1667 187.5,70.8333 187.5,47.5 Z"/></g>
<g><path style="opacity:1" fill="#119af7" d="M 247.5,167.5 C 242.335,166.851 237.168,166.518 232,166.5C 231.778,168.878 230.944,171.378 229.5,174C 230.429,175.077 231.096,176.244 231.5,177.5C 231.414,178.496 231.748,179.329 232.5,180C 234.167,180.333 235.833,180.667 237.5,181C 235.403,182.77 234.069,184.937 233.5,187.5C 233.672,186.508 233.338,185.842 232.5,185.5C 227.807,174.321 219.474,167.154 207.5,164C 193.35,161.366 181.35,165.199 171.5,175.5C 171.799,172.358 173.466,170.191 176.5,169C 176.043,168.586 175.709,168.086 175.5,167.5C 177.292,165.653 178.958,163.653 180.5,161.5C 177.299,158.514 175.799,158.847 176,162.5C 172.589,161.707 169.089,161.207 165.5,161C 165,160.5 164.5,160 164,159.5C 161.454,161.641 158.788,163.641 156,165.5C 154.989,164.663 153.822,164.33 152.5,164.5C 152.649,165.552 152.483,166.552 152,167.5C 149.761,168.889 147.928,170.556 146.5,172.5C 149.981,164.016 155.648,157.349 163.5,152.5C 167.169,153.333 170.835,154.999 174.5,157.5C 175.386,156.675 175.719,155.675 175.5,154.5C 178.983,155.084 181.983,154.251 184.5,152C 192.159,151.5 199.826,151.334 207.5,151.5C 207.5,152.833 207.5,154.167 207.5,155.5C 209.167,155.5 210.833,155.5 212.5,155.5C 212.671,153.007 211.671,151.174 209.5,150C 215.012,150.048 220.345,151.382 225.5,154C 227.439,154.908 228.439,156.408 228.5,158.5C 225.519,158.544 225.186,158.877 227.5,159.5C 231.602,157.653 235.102,158.32 238,161.5C 239.3,160.293 240.8,159.626 242.5,159.5C 242.528,161.582 241.861,163.416 240.5,165C 241,165.5 241.5,166 242,166.5C 244.558,163.638 246.391,163.971 247.5,167.5 Z"/></g>
<g><path style="opacity:1" fill="#2ca5e6" d="M 234.5,151.5 C 231.157,150.381 227.823,149.048 224.5,147.5C 223.146,149.184 221.479,149.684 219.5,149C 213.506,142.828 206.173,140.328 197.5,141.5C 194.167,141.667 190.833,141.833 187.5,142C 184.228,143.608 181.228,145.608 178.5,148C 177.101,148.595 175.768,148.428 174.5,147.5C 171.222,149.036 167.889,150.369 164.5,151.5C 171.027,146.587 178.36,143.087 186.5,141C 204.12,137.983 220.12,141.483 234.5,151.5 Z"/></g>
<g><path style="opacity:1" fill="#0ea3fa" d="M 234.5,151.5 C 244.058,157.952 250.724,166.619 254.5,177.5C 251.868,174.508 249.534,171.175 247.5,167.5C 246.391,163.971 244.558,163.638 242,166.5C 241.5,166 241,165.5 240.5,165C 241.861,163.416 242.528,161.582 242.5,159.5C 240.8,159.626 239.3,160.293 238,161.5C 235.102,158.32 231.602,157.653 227.5,159.5C 225.186,158.877 225.519,158.544 228.5,158.5C 228.439,156.408 227.439,154.908 225.5,154C 220.345,151.382 215.012,150.048 209.5,150C 211.671,151.174 212.671,153.007 212.5,155.5C 210.833,155.5 209.167,155.5 207.5,155.5C 207.5,154.167 207.5,152.833 207.5,151.5C 199.826,151.334 192.159,151.5 184.5,152C 181.983,154.251 178.983,155.084 175.5,154.5C 175.719,155.675 175.386,156.675 174.5,157.5C 170.835,154.999 167.169,153.333 163.5,152.5C 163.5,151.833 163.833,151.5 164.5,151.5C 167.889,150.369 171.222,149.036 174.5,147.5C 175.768,148.428 177.101,148.595 178.5,148C 181.228,145.608 184.228,143.608 187.5,142C 190.833,141.833 194.167,141.667 197.5,141.5C 206.173,140.328 213.506,142.828 219.5,149C 221.479,149.684 223.146,149.184 224.5,147.5C 227.823,149.048 231.157,150.381 234.5,151.5 Z"/></g>
<g><path style="opacity:1" fill="#2899f5" d="M 74.5,162.5 C 73.3538,166.754 72.6871,171.087 72.5,175.5C 71.6829,177.969 71.1829,180.635 71,183.5C 70.5002,192.494 70.3336,201.494 70.5,210.5C 69.8334,200.326 69.1667,189.992 68.5,179.5C 67.9262,175.594 66.7595,171.927 65,168.5C 64.6667,168.833 64.3333,169.167 64,169.5C 60.4417,166.223 57.1084,166.223 54,169.5C 52.8403,167.203 51.8403,167.536 51,170.5C 50.8253,174.211 50.3253,177.878 49.5,181.5C 48.8182,182.243 48.1515,182.909 47.5,183.5C 47.8938,175.106 49.5605,167.106 52.5,159.5C 54.1765,158.817 54.8432,157.483 54.5,155.5C 55.5,155.5 56.5,155.5 57.5,155.5C 57.5,153.833 57.5,152.167 57.5,150.5C 58.4959,150.586 59.3292,150.252 60,149.5C 60.3333,151.5 60.6667,153.5 61,155.5C 63.5906,160.58 64.7573,159.914 64.5,153.5C 65.9778,153.238 67.3112,153.571 68.5,154.5C 69.1369,157.107 70.3035,159.44 72,161.5C 73.2192,156.491 74.0525,156.824 74.5,162.5 Z"/></g>
<g><path style="opacity:1" fill="#d7f5fd" d="M 319.5,152.5 C 320.833,154.833 322.167,157.167 323.5,159.5C 324.93,167.654 326.597,175.654 328.5,183.5C 328.5,191.5 328.5,199.5 328.5,207.5C 327.902,212.813 327.569,218.146 327.5,223.5C 326.833,224.5 326.167,225.5 325.5,226.5C 327.089,212.873 327.589,199.207 327,185.5C 325.955,177.537 323.955,169.871 321,162.5C 320.667,164.167 320.333,165.833 320,167.5C 320.099,162.439 319.932,157.439 319.5,152.5 Z"/></g>
<g><path style="opacity:1" fill="#0f97f7" d="M 346.5,159.5 C 347.768,161.905 348.435,164.572 348.5,167.5C 346.955,166.77 346.122,165.437 346,163.5C 345.667,164.5 345.333,165.5 345,166.5C 344.333,167.833 343.667,167.833 343,166.5C 342.667,167.167 342.333,167.833 342,168.5C 341.667,167.167 341.333,165.833 341,164.5C 339.934,166.099 338.434,167.099 336.5,167.5C 335.808,166.975 335.308,166.308 335,165.5C 334.138,167.087 333.471,168.754 333,170.5C 332.667,170.167 332.333,169.833 332,169.5C 331.505,171.473 331.338,173.473 331.5,175.5C 330.5,175.5 329.5,175.5 328.5,175.5C 328.5,178.167 328.5,180.833 328.5,183.5C 326.597,175.654 324.93,167.654 323.5,159.5C 323.556,156.606 324.39,153.939 326,151.5C 326.182,154.226 326.682,156.893 327.5,159.5C 328.97,156.293 330.137,152.959 331,149.5C 331.651,151.235 331.485,152.902 330.5,154.5C 331.274,155.711 332.107,155.711 333,154.5C 333.202,156.256 333.702,157.922 334.5,159.5C 335.318,156.893 335.818,154.226 336,151.5C 336.465,152.931 337.299,154.097 338.5,155C 337.62,156.356 337.286,157.856 337.5,159.5C 338.5,159.5 339.5,159.5 340.5,159.5C 340.181,157.25 340.681,155.25 342,153.5C 342.566,156.229 344.066,158.229 346.5,159.5 Z"/></g>
<g><path style="opacity:1" fill="#168ef5" d="M 302.5,175.5 C 304.92,183.007 305.92,190.841 305.5,199C 305.686,205.738 305.019,212.238 303.5,218.5C 303.423,214.785 303.756,211.119 304.5,207.5C 304.821,201.974 304.488,196.64 303.5,191.5C 302.087,186.199 299.921,181.199 297,176.5C 296.667,177.833 296.333,179.167 296,180.5C 295.667,179.833 295.333,179.167 295,178.5C 291.274,180.354 288.608,179.354 287,175.5C 284.775,184.431 283.441,184.431 283,175.5C 282.727,177.101 282.227,178.601 281.5,180C 282.46,183.73 282.793,187.563 282.5,191.5C 281.62,184.982 279.954,178.648 277.5,172.5C 277.371,170.784 277.038,169.117 276.5,167.5C 275.943,165.051 275.943,162.718 276.5,160.5C 277.592,161.831 278.926,162.664 280.5,163C 280.167,163.333 279.833,163.667 279.5,164C 282.636,165.041 285.136,164.207 287,161.5C 287.333,162.833 287.667,164.167 288,165.5C 289.092,162.956 289.759,160.289 290,157.5C 290.9,158.77 292.066,159.77 293.5,160.5C 291.48,162.599 291.146,164.933 292.5,167.5C 293.684,165.954 294.684,164.287 295.5,162.5C 298.34,166.644 300.673,170.977 302.5,175.5 Z"/></g>
<g><path style="opacity:1" fill="#1f8ff3" d="M 348.5,167.5 C 350.075,173.274 351.075,179.274 351.5,185.5C 350.624,185.631 349.957,185.298 349.5,184.5C 348.764,182.459 347.931,180.459 347,178.5C 345.899,180.394 344.566,181.061 343,180.5C 342.239,177.569 340.406,175.903 337.5,175.5C 337.649,174.448 337.483,173.448 337,172.5C 336.553,178.989 335.553,178.989 334,172.5C 332.851,175.393 332.351,178.393 332.5,181.5C 331.5,181.5 330.5,181.5 329.5,181.5C 329.826,190.349 329.493,199.016 328.5,207.5C 328.5,199.5 328.5,191.5 328.5,183.5C 328.5,180.833 328.5,178.167 328.5,175.5C 329.5,175.5 330.5,175.5 331.5,175.5C 331.338,173.473 331.505,171.473 332,169.5C 332.333,169.833 332.667,170.167 333,170.5C 333.471,168.754 334.138,167.087 335,165.5C 335.308,166.308 335.808,166.975 336.5,167.5C 338.434,167.099 339.934,166.099 341,164.5C 341.333,165.833 341.667,167.167 342,168.5C 342.333,167.833 342.667,167.167 343,166.5C 343.667,167.833 344.333,167.833 345,166.5C 345.333,165.5 345.667,164.5 346,163.5C 346.122,165.437 346.955,166.77 348.5,167.5 Z"/></g>
<g><path style="opacity:1" fill="#0392f9" d="M 171.5,175.5 C 163.167,175.5 154.833,175.5 146.5,175.5C 146.5,174.5 146.5,173.5 146.5,172.5C 147.928,170.556 149.761,168.889 152,167.5C 152.483,166.552 152.649,165.552 152.5,164.5C 153.822,164.33 154.989,164.663 156,165.5C 158.788,163.641 161.454,161.641 164,159.5C 164.5,160 165,160.5 165.5,161C 169.089,161.207 172.589,161.707 176,162.5C 175.799,158.847 177.299,158.514 180.5,161.5C 178.958,163.653 177.292,165.653 175.5,167.5C 175.709,168.086 176.043,168.586 176.5,169C 173.466,170.191 171.799,172.358 171.5,175.5 Z"/></g>
<g><path style="opacity:1" fill="#0791f9" d="M 117.5,183.5 C 117.784,185.415 117.451,187.081 116.5,188.5C 115.323,184.282 114.323,179.949 113.5,175.5C 110.728,175.78 108.228,175.113 106,173.5C 103.544,175.321 100.711,175.988 97.5,175.5C 97.523,173.073 98.023,170.74 99,168.5C 99.3333,169.167 99.6667,169.833 100,170.5C 100.833,169.5 101.667,168.5 102.5,167.5C 103.167,168.167 103.833,168.833 104.5,169.5C 105.248,166.503 105.915,163.503 106.5,160.5C 105.062,157.917 105.396,155.583 107.5,153.5C 107.616,156.051 107.616,158.551 107.5,161C 107.63,162.059 108.13,162.892 109,163.5C 109.456,159.178 111.622,157.512 115.5,158.5C 114.035,160.945 114.535,162.945 117,164.5C 118.692,170.782 118.859,177.115 117.5,183.5 Z"/></g>
<g><path style="opacity:1" fill="#0b8ef7" d="M 247.5,167.5 C 249.534,171.175 251.868,174.508 254.5,177.5C 256.812,181.783 258.145,186.45 258.5,191.5C 258.167,191.5 257.833,191.5 257.5,191.5C 257.263,188.353 256.43,185.353 255,182.5C 251.964,180.964 249.797,178.631 248.5,175.5C 248.193,176.887 248.193,178.554 248.5,180.5C 247.127,180.657 245.793,180.49 244.5,180C 243.687,178.197 242.52,176.697 241,175.5C 237.974,176.872 234.807,177.538 231.5,177.5C 231.096,176.244 230.429,175.077 229.5,174C 230.944,171.378 231.778,168.878 232,166.5C 237.168,166.518 242.335,166.851 247.5,167.5 Z"/></g>
<g><path style="opacity:1" fill="#2c87bb" d="M 146.5,172.5 C 146.5,173.5 146.5,174.5 146.5,175.5C 154.833,175.5 163.167,175.5 171.5,175.5C 162.658,176.822 153.658,176.822 144.5,175.5C 144.942,174.261 145.609,173.261 146.5,172.5 Z"/></g>
<g><path style="opacity:1" fill="#0c83f7" d="M 70.5,210.5 C 70.5,211.833 70.5,213.167 70.5,214.5C 68.6565,212.721 67.9898,210.388 68.5,207.5C 68.9526,201.317 68.4526,195.317 67,189.5C 66,190.833 65,192.167 64,193.5C 59.8222,191.601 55.3222,190.935 50.5,191.5C 50.8337,194.491 49.8337,196.824 47.5,198.5C 47.5,193.5 47.5,188.5 47.5,183.5C 48.1515,182.909 48.8182,182.243 49.5,181.5C 50.3253,177.878 50.8253,174.211 51,170.5C 51.8403,167.536 52.8403,167.203 54,169.5C 57.1084,166.223 60.4417,166.223 64,169.5C 64.3333,169.167 64.6667,168.833 65,168.5C 66.7595,171.927 67.9262,175.594 68.5,179.5C 69.1667,189.992 69.8334,200.326 70.5,210.5 Z"/></g>
<g><path style="opacity:1" fill="#1081f8" d="M 116.5,188.5 C 116.295,196.867 116.629,205.2 117.5,213.5C 116.685,212.571 115.852,211.571 115,210.5C 114.5,204.175 114.334,197.842 114.5,191.5C 107.833,191.5 101.167,191.5 94.5,191.5C 95.0802,187.19 95.4135,182.857 95.5,178.5C 95.5,177.833 95.5,177.167 95.5,176.5C 96.1667,176.167 96.8333,175.833 97.5,175.5C 100.711,175.988 103.544,175.321 106,173.5C 108.228,175.113 110.728,175.78 113.5,175.5C 114.323,179.949 115.323,184.282 116.5,188.5 Z"/></g>
<g><path style="opacity:1" fill="#fcfbfb" d="M 277.5,172.5 C 279.954,178.648 281.62,184.982 282.5,191.5C 282.5,196.833 282.5,202.167 282.5,207.5C 281.129,216.31 278.796,224.976 275.5,233.5C 271.252,240.779 266.919,248.113 262.5,255.5C 258.405,258.09 254.738,261.256 251.5,265C 246.417,268.198 241.417,271.365 236.5,274.5C 232.503,275.603 228.836,277.269 225.5,279.5C 223.139,279.674 220.806,280.007 218.5,280.5C 216.302,279.835 213.969,279.168 211.5,278.5C 212.381,277.029 213.714,276.196 215.5,276C 212.456,275.641 212.122,274.974 214.5,274C 204.947,271.768 195.281,271.101 185.5,272C 187.25,273.319 189.25,273.819 191.5,273.5C 191.5,274.833 191.5,276.167 191.5,277.5C 188.65,277.364 185.817,277.031 183,276.5C 181.319,276.608 180.152,277.275 179.5,278.5C 175.582,277.558 171.582,276.892 167.5,276.5C 163.367,274.933 159.367,273.1 155.5,271C 151.898,267.559 147.898,264.725 143.5,262.5C 143.5,262.167 143.5,261.833 143.5,261.5C 135.306,253.638 128.64,244.638 123.5,234.5C 122.167,230.833 120.833,227.167 119.5,223.5C 121.258,221.859 122.758,219.859 124,217.5C 124.333,220.167 124.667,222.833 125,225.5C 126.163,223.715 126.83,221.715 127,219.5C 128.553,224.528 129.719,224.195 130.5,218.5C 131.833,218.5 133.167,218.5 134.5,218.5C 134.5,220.167 134.5,221.833 134.5,223.5C 136.167,223.5 137.833,223.5 139.5,223.5C 139.351,222.448 139.517,221.448 140,220.5C 140.72,222.056 141.887,223.056 143.5,223.5C 145.341,227.183 147.674,230.516 150.5,233.5C 150.833,234.167 151.167,234.833 151.5,235.5C 154.882,240.882 159.215,245.215 164.5,248.5C 167.835,251.839 171.835,254.172 176.5,255.5C 179.135,257.328 182.135,258.495 185.5,259C 197.726,261.846 209.393,260.679 220.5,255.5C 225.086,254.54 229.086,252.54 232.5,249.5C 237.462,247.536 241.129,244.202 243.5,239.5C 245.587,238.415 246.92,236.749 247.5,234.5C 249.89,232.733 251.557,230.4 252.5,227.5C 253.043,227.44 253.376,227.107 253.5,226.5C 243.675,225.177 234.008,225.177 224.5,226.5C 221.786,229.215 218.786,231.549 215.5,233.5C 214.391,233.557 213.391,233.89 212.5,234.5C 203.492,237.124 194.492,237.124 185.5,234.5C 181.862,232.831 178.528,230.831 175.5,228.5C 174.167,226.833 172.833,225.167 171.5,223.5C 173.849,223.542 175.182,222.375 175.5,220C 174.518,218.946 173.351,218.446 172,218.5C 171.51,217.207 171.343,215.873 171.5,214.5C 173.103,214.688 174.437,214.188 175.5,213C 203.221,212.36 230.887,212.36 258.5,213C 260.213,211.622 261.547,209.955 262.5,208C 261.229,205.446 260.562,202.613 260.5,199.5C 262.048,191.547 263.381,183.547 264.5,175.5C 268.731,185.761 270.398,196.427 269.5,207.5C 270.5,207.5 271.5,207.5 272.5,207.5C 272.5,202.167 272.5,196.833 272.5,191.5C 273.978,191.762 275.311,191.429 276.5,190.5C 275.043,184.378 275.376,178.378 277.5,172.5 Z"/></g>
<g><path style="opacity:1" fill="#057ff7" d="M 303.5,191.5 C 300.675,191.838 298.508,190.838 297,188.5C 296.517,189.448 296.351,190.448 296.5,191.5C 293.5,191.5 290.5,191.5 287.5,191.5C 287.662,189.473 287.495,187.473 287,185.5C 284.823,192.59 283.99,199.923 284.5,207.5C 283.833,207.5 283.167,207.5 282.5,207.5C 282.5,202.167 282.5,196.833 282.5,191.5C 282.793,187.563 282.46,183.73 281.5,180C 282.227,178.601 282.727,177.101 283,175.5C 283.441,184.431 284.775,184.431 287,175.5C 288.608,179.354 291.274,180.354 295,178.5C 295.333,179.167 295.667,179.833 296,180.5C 296.333,179.167 296.667,177.833 297,176.5C 299.921,181.199 302.087,186.199 303.5,191.5 Z"/></g>
<g><path style="opacity:1" fill="#0381fb" d="M 257.5,191.5 C 256.833,191.5 256.167,191.5 255.5,191.5C 253.945,190.367 252.111,189.701 250,189.5C 245.05,192.085 240.05,192.085 235,189.5C 232.879,191.457 230.379,191.957 227.5,191C 226.619,190.292 225.953,189.458 225.5,188.5C 228.385,188.806 231.052,188.473 233.5,187.5C 234.069,184.937 235.403,182.77 237.5,181C 235.833,180.667 234.167,180.333 232.5,180C 231.748,179.329 231.414,178.496 231.5,177.5C 234.807,177.538 237.974,176.872 241,175.5C 242.52,176.697 243.687,178.197 244.5,180C 245.793,180.49 247.127,180.657 248.5,180.5C 248.193,178.554 248.193,176.887 248.5,175.5C 249.797,178.631 251.964,180.964 255,182.5C 256.43,185.353 257.263,188.353 257.5,191.5 Z"/></g>
<g><path style="opacity:1" fill="#177cf3" d="M 351.5,185.5 C 351.5,187.5 351.5,189.5 351.5,191.5C 350.625,189.432 349.459,187.432 348,185.5C 346.872,187.345 346.372,189.345 346.5,191.5C 343.635,191.945 341.135,191.278 339,189.5C 337.599,191.192 335.766,191.859 333.5,191.5C 332.19,196.743 331.524,202.077 331.5,207.5C 329.299,212.486 328.299,217.82 328.5,223.5C 328.167,223.5 327.833,223.5 327.5,223.5C 327.569,218.146 327.902,212.813 328.5,207.5C 329.493,199.016 329.826,190.349 329.5,181.5C 330.5,181.5 331.5,181.5 332.5,181.5C 332.351,178.393 332.851,175.393 334,172.5C 335.553,178.989 336.553,178.989 337,172.5C 337.483,173.448 337.649,174.448 337.5,175.5C 340.406,175.903 342.239,177.569 343,180.5C 344.566,181.061 345.899,180.394 347,178.5C 347.931,180.459 348.764,182.459 349.5,184.5C 349.957,185.298 350.624,185.631 351.5,185.5 Z"/></g>
<g><path style="opacity:1" fill="#b3defe" d="M 232.5,185.5 C 233.338,185.842 233.672,186.508 233.5,187.5C 202.5,187.5 171.5,187.5 140.5,187.5C 171.167,186.833 201.833,186.167 232.5,185.5 Z"/></g>
<g><path style="opacity:1" fill="#2379d0" d="M 140.5,187.5 C 171.5,187.5 202.5,187.5 233.5,187.5C 231.052,188.473 228.385,188.806 225.5,188.5C 198.159,188.167 170.825,188.5 143.5,189.5C 143.167,190.5 142.5,191.167 141.5,191.5C 140.504,197.463 140.171,203.463 140.5,209.5C 139.22,202.296 139.22,194.962 140.5,187.5 Z"/></g>
<g><path style="opacity:1" fill="#0479fc" d="M 225.5,188.5 C 225.953,189.458 226.619,190.292 227.5,191C 230.379,191.957 232.879,191.457 235,189.5C 240.05,192.085 245.05,192.085 250,189.5C 252.111,189.701 253.945,190.367 255.5,191.5C 255.5,192.833 255.5,194.167 255.5,195.5C 217.459,195.513 179.626,195.513 142,195.5C 141.26,196.749 141.427,197.749 142.5,198.5C 142.41,200.696 142.077,202.863 141.5,205C 141.684,206.376 142.351,207.209 143.5,207.5C 142.793,210.786 142.46,214.119 142.5,217.5C 141.469,215.039 140.802,212.373 140.5,209.5C 140.171,203.463 140.504,197.463 141.5,191.5C 142.5,191.167 143.167,190.5 143.5,189.5C 170.825,188.5 198.159,188.167 225.5,188.5 Z"/></g>
<g><path style="opacity:1" fill="#0a71fb" d="M 351.5,191.5 C 351.5,199.5 351.5,207.5 351.5,215.5C 349.018,217.503 348.018,220.169 348.5,223.5C 348.167,223.5 347.833,223.5 347.5,223.5C 351.009,212.356 347.009,207.023 335.5,207.5C 335.167,212.833 334.833,212.833 334.5,207.5C 333.5,207.5 332.5,207.5 331.5,207.5C 331.524,202.077 332.19,196.743 333.5,191.5C 335.766,191.859 337.599,191.192 339,189.5C 341.135,191.278 343.635,191.945 346.5,191.5C 346.372,189.345 346.872,187.345 348,185.5C 349.459,187.432 350.625,189.432 351.5,191.5 Z"/></g>
<g><path style="opacity:1" fill="#1470f9" d="M 68.5,207.5 C 67.5,207.5 66.5,207.5 65.5,207.5C 65.1667,211.5 64.8333,211.5 64.5,207.5C 63.1667,207.5 61.8333,207.5 60.5,207.5C 60.6499,211.161 59.1499,212.161 56,210.5C 55.5172,209.552 55.3505,208.552 55.5,207.5C 53.8333,207.5 52.1667,207.5 50.5,207.5C 49.2388,212.825 49.2388,218.158 50.5,223.5C 50.5,225.5 50.5,227.5 50.5,229.5C 49.0181,226.312 48.0181,222.979 47.5,219.5C 47.5,212.5 47.5,205.5 47.5,198.5C 49.8337,196.824 50.8337,194.491 50.5,191.5C 55.3222,190.935 59.8222,191.601 64,193.5C 65,192.167 66,190.833 67,189.5C 68.4526,195.317 68.9526,201.317 68.5,207.5 Z"/></g>
<g><path style="opacity:1" fill="#0b75fb" d="M 255.5,191.5 C 256.167,191.5 256.833,191.5 257.5,191.5C 257.833,191.5 258.167,191.5 258.5,191.5C 259.833,196.833 259.833,202.167 258.5,207.5C 258.167,207.5 257.833,207.5 257.5,207.5C 257.752,204.68 257.252,202.014 256,199.5C 237.239,200.164 218.405,200.497 199.5,200.5C 180.282,200.488 161.282,199.821 142.5,198.5C 141.427,197.749 141.26,196.749 142,195.5C 179.626,195.513 217.459,195.513 255.5,195.5C 255.5,194.167 255.5,192.833 255.5,191.5 Z"/></g>
<g><path style="opacity:1" fill="#236df6" d="M 94.5,191.5 C 101.167,191.5 107.833,191.5 114.5,191.5C 114.334,197.842 114.5,204.175 115,210.5C 115.852,211.571 116.685,212.571 117.5,213.5C 117.959,216.877 118.626,220.211 119.5,223.5C 120.833,227.167 122.167,230.833 123.5,234.5C 123.167,234.5 122.833,234.5 122.5,234.5C 120.919,230.933 119.585,227.266 118.5,223.5C 117.5,223.5 116.5,223.5 115.5,223.5C 115.307,220.692 114.64,218.025 113.5,215.5C 113.31,211.077 112.643,206.744 111.5,202.5C 106.167,202.5 100.833,202.5 95.5,202.5C 95.7845,204.415 95.4511,206.081 94.5,207.5C 94.5,202.167 94.5,196.833 94.5,191.5 Z"/></g>
<g><path style="opacity:1" fill="#096dfd" d="M 142.5,198.5 C 161.282,199.821 180.282,200.488 199.5,200.5C 218.405,200.497 237.239,200.164 256,199.5C 257.252,202.014 257.752,204.68 257.5,207.5C 256.833,207.5 256.167,207.5 255.5,207.5C 237.179,206.167 218.512,205.5 199.5,205.5C 180.488,205.5 161.821,206.167 143.5,207.5C 142.351,207.209 141.684,206.376 141.5,205C 142.077,202.863 142.41,200.696 142.5,198.5 Z"/></g>
<g><path style="opacity:1" fill="#0870fd" d="M 303.5,191.5 C 304.488,196.64 304.821,201.974 304.5,207.5C 298.369,208.092 292.536,207.425 287,205.5C 286.814,207.9 286.314,210.234 285.5,212.5C 284.548,210.955 284.215,209.288 284.5,207.5C 283.99,199.923 284.823,192.59 287,185.5C 287.495,187.473 287.662,189.473 287.5,191.5C 290.5,191.5 293.5,191.5 296.5,191.5C 296.351,190.448 296.517,189.448 297,188.5C 298.508,190.838 300.675,191.838 303.5,191.5 Z"/></g>
<g><path style="opacity:1" fill="#2166fb" d="M 255.5,207.5 C 255.5,207.833 255.5,208.167 255.5,208.5C 224.527,208.773 193.694,208.439 163,207.5C 162.5,207.833 162,208.167 161.5,208.5C 162.689,211.634 164.022,214.634 165.5,217.5C 164.503,217.47 163.836,217.97 163.5,219C 164.707,220.3 165.374,221.8 165.5,223.5C 164.167,223.5 162.833,223.5 161.5,223.5C 161.093,216.951 160.093,216.951 158.5,223.5C 156.347,220.662 153.68,218.662 150.5,217.5C 150.752,220.244 150.085,222.744 148.5,225C 149.022,225.95 149.689,226.784 150.5,227.5C 149.377,229.482 149.377,231.482 150.5,233.5C 147.674,230.516 145.341,227.183 143.5,223.5C 143.483,221.435 143.15,219.435 142.5,217.5C 142.46,214.119 142.793,210.786 143.5,207.5C 161.821,206.167 180.488,205.5 199.5,205.5C 218.512,205.5 237.179,206.167 255.5,207.5 Z"/></g>
<g><path style="opacity:1" fill="#427acf" d="M 95.5,178.5 C 95.4135,182.857 95.0802,187.19 94.5,191.5C 94.5,196.833 94.5,202.167 94.5,207.5C 95.0802,211.81 95.4135,216.143 95.5,220.5C 94.6981,219.048 94.1981,217.382 94,215.5C 93.3333,204.833 93.3333,194.167 94,183.5C 94.1981,181.618 94.6981,179.952 95.5,178.5 Z"/></g>
<g><path style="opacity:1" fill="#2365f8" d="M 113.5,215.5 C 112.691,213.708 112.191,211.708 112,209.5C 111.517,210.448 111.351,211.448 111.5,212.5C 108.813,212.336 106.146,212.503 103.5,213C 102.25,215.381 100.583,217.381 98.5,219C 98.5892,221.68 99.5892,224.18 101.5,226.5C 100.5,226.5 99.5,226.5 98.5,226.5C 98.5,228.167 98.5,229.833 98.5,231.5C 96.5165,228.201 95.5165,224.534 95.5,220.5C 95.4135,216.143 95.0802,211.81 94.5,207.5C 95.4511,206.081 95.7845,204.415 95.5,202.5C 100.833,202.5 106.167,202.5 111.5,202.5C 112.643,206.744 113.31,211.077 113.5,215.5 Z"/></g>
<g><path style="opacity:1" fill="#2669e1" d="M 255.5,208.5 C 225.167,209.167 194.833,209.833 164.5,210.5C 164.572,213.553 165.572,216.219 167.5,218.5C 166.833,218.167 166.167,217.833 165.5,217.5C 164.022,214.634 162.689,211.634 161.5,208.5C 162,208.167 162.5,207.833 163,207.5C 193.694,208.439 224.527,208.773 255.5,208.5 Z"/></g>
<g><path style="opacity:1" fill="#497dbf" d="M 255.5,207.5 C 256.167,207.5 256.833,207.5 257.5,207.5C 257.833,207.5 258.167,207.5 258.5,207.5C 258.5,208.5 258.5,209.5 258.5,210.5C 227.167,210.5 195.833,210.5 164.5,210.5C 194.833,209.833 225.167,209.167 255.5,208.5C 255.5,208.167 255.5,207.833 255.5,207.5 Z"/></g>
<g><path style="opacity:1" fill="#3760f3" d="M 304.5,207.5 C 303.756,211.119 303.423,214.785 303.5,218.5C 302.748,225.972 300.748,232.972 297.5,239.5C 297.5,238.167 297.5,236.833 297.5,235.5C 298.32,233.86 299.153,232.193 300,230.5C 300.751,225.627 300.584,224.294 299.5,226.5C 298.5,226.5 297.5,226.5 296.5,226.5C 297.312,224.257 297.979,221.924 298.5,219.5C 298.167,218.167 297.833,216.833 297.5,215.5C 294.209,216.382 290.876,217.048 287.5,217.5C 287.657,216.127 287.49,214.793 287,213.5C 286.036,217.796 285.203,222.13 284.5,226.5C 283.281,225.737 282.281,224.737 281.5,223.5C 280.949,225.413 280.782,227.413 281,229.5C 280.586,229.043 280.086,228.709 279.5,228.5C 278.725,230.396 277.725,232.063 276.5,233.5C 276.167,233.5 275.833,233.5 275.5,233.5C 278.796,224.976 281.129,216.31 282.5,207.5C 283.167,207.5 283.833,207.5 284.5,207.5C 284.215,209.288 284.548,210.955 285.5,212.5C 286.314,210.234 286.814,207.9 287,205.5C 292.536,207.425 298.369,208.092 304.5,207.5 Z"/></g>
<g><path style="opacity:1" fill="#2861f7" d="M 331.5,207.5 C 332.5,207.5 333.5,207.5 334.5,207.5C 334.833,212.833 335.167,212.833 335.5,207.5C 347.009,207.023 351.009,212.356 347.5,223.5C 346.834,220.642 346.167,217.642 345.5,214.5C 344.833,214.833 344.167,215.167 343.5,215.5C 342.52,218.086 342.187,220.753 342.5,223.5C 338.5,224.167 336.833,222.5 337.5,218.5C 335.61,218.297 334.11,218.963 333,220.5C 332.507,223.675 331.34,226.341 329.5,228.5C 329.784,226.585 329.451,224.919 328.5,223.5C 328.299,217.82 329.299,212.486 331.5,207.5 Z"/></g>
<g><path style="opacity:1" fill="#3959f8" d="M 113.5,215.5 C 114.64,218.025 115.307,220.692 115.5,223.5C 115.631,224.376 115.298,225.043 114.5,225.5C 112.382,224.054 110.049,223.387 107.5,223.5C 107.785,225.288 107.452,226.955 106.5,228.5C 103.757,221.661 102.424,221.994 102.5,229.5C 101.5,229.5 100.5,229.5 99.5,229.5C 99.9629,232.482 100.296,235.482 100.5,238.5C 99.3882,236.401 98.7215,234.067 98.5,231.5C 98.5,229.833 98.5,228.167 98.5,226.5C 99.5,226.5 100.5,226.5 101.5,226.5C 99.5892,224.18 98.5892,221.68 98.5,219C 100.583,217.381 102.25,215.381 103.5,213C 106.146,212.503 108.813,212.336 111.5,212.5C 111.351,211.448 111.517,210.448 112,209.5C 112.191,211.708 112.691,213.708 113.5,215.5 Z"/></g>
<g><path style="opacity:1" fill="#395cf6" d="M 68.5,207.5 C 67.9898,210.388 68.6565,212.721 70.5,214.5C 71.998,222.832 73.6647,231.165 75.5,239.5C 74.1667,239.5 72.8333,239.5 71.5,239.5C 71.7233,237.658 72.0566,235.825 72.5,234C 71.2058,228.899 70.2058,223.732 69.5,218.5C 68.6247,221.546 67.6247,224.546 66.5,227.5C 65.5713,226.311 65.238,224.978 65.5,223.5C 60.5,223.5 55.5,223.5 50.5,223.5C 49.2388,218.158 49.2388,212.825 50.5,207.5C 52.1667,207.5 53.8333,207.5 55.5,207.5C 55.3505,208.552 55.5172,209.552 56,210.5C 59.1499,212.161 60.6499,211.161 60.5,207.5C 61.8333,207.5 63.1667,207.5 64.5,207.5C 64.8333,211.5 65.1667,211.5 65.5,207.5C 66.5,207.5 67.5,207.5 68.5,207.5 Z"/></g>
<g><path style="opacity:1" fill="#4952f5" d="M 165.5,217.5 C 166.167,217.833 166.833,218.167 167.5,218.5C 167.56,221.341 168.226,224.007 169.5,226.5C 168.167,226.5 166.833,226.5 165.5,226.5C 165.5,227.5 165.5,228.5 165.5,229.5C 161.838,230.363 159.672,229.03 159,225.5C 158.333,227.5 157,228.833 155,229.5C 154.415,231.661 153.582,233.661 152.5,235.5C 152.167,235.5 151.833,235.5 151.5,235.5C 151.167,234.833 150.833,234.167 150.5,233.5C 149.377,231.482 149.377,229.482 150.5,227.5C 149.689,226.784 149.022,225.95 148.5,225C 150.085,222.744 150.752,220.244 150.5,217.5C 153.68,218.662 156.347,220.662 158.5,223.5C 160.093,216.951 161.093,216.951 161.5,223.5C 162.833,223.5 164.167,223.5 165.5,223.5C 165.374,221.8 164.707,220.3 163.5,219C 163.836,217.97 164.503,217.47 165.5,217.5 Z"/></g>
<g><path style="opacity:1" fill="#8780e2" d="M 224.5,226.5 C 234.008,225.177 243.675,225.177 253.5,226.5C 253.376,227.107 253.043,227.44 252.5,227.5C 243.348,226.506 234.015,226.173 224.5,226.5 Z"/></g>
<g><path style="opacity:1" fill="#ebe3fb" d="M 47.5,219.5 C 48.0181,222.979 49.0181,226.312 50.5,229.5C 50.5488,233.078 51.2154,236.411 52.5,239.5C 53.3704,245.001 54.7037,250.334 56.5,255.5C 55.9463,253.111 54.4463,251.445 52,250.5C 49.9809,240.199 48.4809,229.866 47.5,219.5 Z"/></g>
<g><path style="opacity:1" fill="#6160d8" d="M 167.5,218.5 C 168.593,220.349 169.926,222.016 171.5,223.5C 172.833,225.167 174.167,226.833 175.5,228.5C 173.142,228.747 171.142,228.081 169.5,226.5C 168.226,224.007 167.56,221.341 167.5,218.5 Z"/></g>
<g><path style="opacity:1" fill="#4e51f5" d="M 297.5,235.5 C 296.518,233.594 295.518,231.594 294.5,229.5C 293.749,230.376 293.249,231.376 293,232.5C 292.692,231.692 292.192,231.025 291.5,230.5C 290.174,231.99 288.674,233.324 287,234.5C 286.947,231.755 285.78,229.755 283.5,228.5C 282.206,230.962 280.706,233.295 279,235.5C 278.292,234.619 277.458,233.953 276.5,233.5C 277.725,232.063 278.725,230.396 279.5,228.5C 280.086,228.709 280.586,229.043 281,229.5C 280.782,227.413 280.949,225.413 281.5,223.5C 282.281,224.737 283.281,225.737 284.5,226.5C 285.203,222.13 286.036,217.796 287,213.5C 287.49,214.793 287.657,216.127 287.5,217.5C 290.876,217.048 294.209,216.382 297.5,215.5C 297.833,216.833 298.167,218.167 298.5,219.5C 297.979,221.924 297.312,224.257 296.5,226.5C 297.5,226.5 298.5,226.5 299.5,226.5C 300.584,224.294 300.751,225.627 300,230.5C 299.153,232.193 298.32,233.86 297.5,235.5 Z"/></g>
<g><path style="opacity:1" fill="#4852f7" d="M 347.5,223.5 C 347.833,223.5 348.167,223.5 348.5,223.5C 348.6,226.108 347.933,228.442 346.5,230.5C 342.735,228.828 339.235,229.161 336,231.5C 335.517,230.552 335.351,229.552 335.5,228.5C 333.309,229.291 331.309,229.291 329.5,228.5C 331.34,226.341 332.507,223.675 333,220.5C 334.11,218.963 335.61,218.297 337.5,218.5C 336.833,222.5 338.5,224.167 342.5,223.5C 342.187,220.753 342.52,218.086 343.5,215.5C 344.167,215.167 344.833,214.833 345.5,214.5C 346.167,217.642 346.834,220.642 347.5,223.5 Z"/></g>
<g><path style="opacity:1" fill="#554df6" d="M 115.5,223.5 C 116.5,223.5 117.5,223.5 118.5,223.5C 119.585,227.266 120.919,230.933 122.5,234.5C 121.504,234.414 120.671,234.748 120,235.5C 119.51,234.207 119.343,232.873 119.5,231.5C 117.173,231.247 115.173,231.914 113.5,233.5C 112.532,232.511 111.365,231.844 110,231.5C 108.463,232.114 107.13,232.114 106,231.5C 105.667,232.167 105.333,232.833 105,233.5C 104.8,231.68 103.966,230.347 102.5,229.5C 102.424,221.994 103.757,221.661 106.5,228.5C 107.452,226.955 107.785,225.288 107.5,223.5C 110.049,223.387 112.382,224.054 114.5,225.5C 115.298,225.043 115.631,224.376 115.5,223.5 Z"/></g>
<g><path style="opacity:1" fill="#5c51e8" d="M 224.5,226.5 C 234.015,226.173 243.348,226.506 252.5,227.5C 251.557,230.4 249.89,232.733 247.5,234.5C 247.5,233.167 247.5,231.833 247.5,230.5C 244.881,230.232 242.381,230.565 240,231.5C 237.782,230.528 235.449,229.861 233,229.5C 229.188,230.146 225.354,230.646 221.5,231C 220.022,233.039 218.022,233.872 215.5,233.5C 218.786,231.549 221.786,229.215 224.5,226.5 Z"/></g>
<g><path style="opacity:1" fill="#6760d5" d="M 351.5,215.5 C 350.478,223.761 348.811,231.761 346.5,239.5C 346.5,236.5 346.5,233.5 346.5,230.5C 347.933,228.442 348.6,226.108 348.5,223.5C 348.018,220.169 349.018,217.503 351.5,215.5 Z"/></g>
<g><path style="opacity:1" fill="#6549f2" d="M 71.5,239.5 C 70.9841,237.282 69.9841,235.282 68.5,233.5C 67.542,235.624 66.3754,237.624 65,239.5C 64.6667,238.833 64.3333,238.167 64,237.5C 62.2932,238.944 60.4599,240.277 58.5,241.5C 57.4763,240.147 56.143,239.48 54.5,239.5C 53.8333,239.5 53.1667,239.5 52.5,239.5C 51.2154,236.411 50.5488,233.078 50.5,229.5C 50.5,227.5 50.5,225.5 50.5,223.5C 55.5,223.5 60.5,223.5 65.5,223.5C 65.238,224.978 65.5713,226.311 66.5,227.5C 67.6247,224.546 68.6247,221.546 69.5,218.5C 70.2058,223.732 71.2058,228.899 72.5,234C 72.0566,235.825 71.7233,237.658 71.5,239.5 Z"/></g>
<g><path style="opacity:1" fill="#6e47f0" d="M 169.5,226.5 C 171.142,228.081 173.142,228.747 175.5,228.5C 178.528,230.831 181.862,232.831 185.5,234.5C 186.1,235.9 187.1,236.9 188.5,237.5C 184.396,239.378 180.062,239.878 175.5,239C 178.267,238.331 178.767,237.164 177,235.5C 175.726,236.535 174.56,237.702 173.5,239C 169.367,238.906 165.701,239.74 162.5,241.5C 162.53,242.497 162.03,243.164 161,243.5C 159.012,242.012 157.179,240.346 155.5,238.5C 156.853,237.476 157.52,236.143 157.5,234.5C 155.784,234.629 154.117,234.962 152.5,235.5C 153.582,233.661 154.415,231.661 155,229.5C 157,228.833 158.333,227.5 159,225.5C 159.672,229.03 161.838,230.363 165.5,229.5C 165.5,228.5 165.5,227.5 165.5,226.5C 166.833,226.5 168.167,226.5 169.5,226.5 Z"/></g>
<g><path style="opacity:1" fill="#6b46f0" d="M 327.5,223.5 C 327.833,223.5 328.167,223.5 328.5,223.5C 329.451,224.919 329.784,226.585 329.5,228.5C 331.309,229.291 333.309,229.291 335.5,228.5C 335.351,229.552 335.517,230.552 336,231.5C 339.235,229.161 342.735,228.828 346.5,230.5C 346.5,233.5 346.5,236.5 346.5,239.5C 341.5,239.5 336.5,239.5 331.5,239.5C 331.852,236.927 331.352,234.594 330,232.5C 329.148,233.571 328.315,234.571 327.5,235.5C 327.5,231.5 327.5,227.5 327.5,223.5 Z"/></g>
<g><path style="opacity:1" fill="#7244f2" d="M 297.5,235.5 C 297.5,236.833 297.5,238.167 297.5,239.5C 297.672,240.492 297.338,241.158 296.5,241.5C 295.069,241.881 294.236,242.881 294,244.5C 292.559,243.13 290.892,242.13 289,241.5C 288.667,239.833 288.333,238.167 288,236.5C 287.517,237.448 287.351,238.448 287.5,239.5C 284.167,239.5 280.833,239.5 277.5,239.5C 276.85,237.565 276.517,235.565 276.5,233.5C 277.458,233.953 278.292,234.619 279,235.5C 280.706,233.295 282.206,230.962 283.5,228.5C 285.78,229.755 286.947,231.755 287,234.5C 288.674,233.324 290.174,231.99 291.5,230.5C 292.192,231.025 292.692,231.692 293,232.5C 293.249,231.376 293.749,230.376 294.5,229.5C 295.518,231.594 296.518,233.594 297.5,235.5 Z"/></g>
<g><path style="opacity:1" fill="#7743f0" d="M 102.5,229.5 C 103.966,230.347 104.8,231.68 105,233.5C 105.333,232.833 105.667,232.167 106,231.5C 107.13,232.114 108.463,232.114 110,231.5C 111.365,231.844 112.532,232.511 113.5,233.5C 115.173,231.914 117.173,231.247 119.5,231.5C 119.343,232.873 119.51,234.207 120,235.5C 120.671,234.748 121.504,234.414 122.5,234.5C 122.833,234.5 123.167,234.5 123.5,234.5C 123.286,236.144 123.62,237.644 124.5,239C 123.033,240.098 122.199,241.598 122,243.5C 118.108,243.829 114.608,244.829 111.5,246.5C 109.941,244.75 107.941,243.75 105.5,243.5C 104.5,243.5 103.5,243.5 102.5,243.5C 101.833,241.833 101.167,240.167 100.5,238.5C 100.296,235.482 99.9629,232.482 99.5,229.5C 100.5,229.5 101.5,229.5 102.5,229.5 Z"/></g>
<g><path style="opacity:1" fill="#814dd9" d="M 162.5,241.5 C 163.675,241.281 164.675,241.614 165.5,242.5C 163.286,244.238 162.953,246.238 164.5,248.5C 159.215,245.215 154.882,240.882 151.5,235.5C 151.833,235.5 152.167,235.5 152.5,235.5C 154.117,234.962 155.784,234.629 157.5,234.5C 157.52,236.143 156.853,237.476 155.5,238.5C 157.179,240.346 159.012,242.012 161,243.5C 162.03,243.164 162.53,242.497 162.5,241.5 Z"/></g>
<g><path style="opacity:1" fill="#7051da" d="M 327.5,223.5 C 327.5,227.5 327.5,231.5 327.5,235.5C 326.467,237.085 325.134,238.419 323.5,239.5C 324.167,235.167 324.833,230.833 325.5,226.5C 326.167,225.5 326.833,224.5 327.5,223.5 Z"/></g>
<g><path style="opacity:1" fill="#8055d0" d="M 185.5,234.5 C 194.492,237.124 203.492,237.124 212.5,234.5C 211.89,235.391 211.557,236.391 211.5,237.5C 203.826,238.793 196.159,238.793 188.5,237.5C 187.1,236.9 186.1,235.9 185.5,234.5 Z"/></g>
<g><path style="opacity:1" fill="#7145ef" d="M 247.5,234.5 C 246.92,236.749 245.587,238.415 243.5,239.5C 242.265,239.721 241.265,240.388 240.5,241.5C 235.103,239.303 229.603,238.969 224,240.5C 219.901,239.177 215.734,238.177 211.5,237.5C 211.557,236.391 211.89,235.391 212.5,234.5C 213.391,233.89 214.391,233.557 215.5,233.5C 218.022,233.872 220.022,233.039 221.5,231C 225.354,230.646 229.188,230.146 233,229.5C 235.449,229.861 237.782,230.528 240,231.5C 242.381,230.565 244.881,230.232 247.5,230.5C 247.5,231.833 247.5,233.167 247.5,234.5 Z"/></g>
<g><path style="opacity:1" fill="#8b3cee" d="M 71.5,239.5 C 72.8333,239.5 74.1667,239.5 75.5,239.5C 75.8333,242.167 76.1667,244.833 76.5,247.5C 75.8485,248.091 75.1818,248.757 74.5,249.5C 73.452,248.617 72.2853,247.95 71,247.5C 68.7903,249.111 66.2903,249.778 63.5,249.5C 63.6621,247.473 63.4955,245.473 63,243.5C 62.3333,248.833 61.6667,248.833 61,243.5C 60.0186,246.655 58.6852,246.988 57,244.5C 56.586,244.957 56.086,245.291 55.5,245.5C 54.5344,243.604 54.2011,241.604 54.5,239.5C 56.143,239.48 57.4763,240.147 58.5,241.5C 60.4599,240.277 62.2932,238.944 64,237.5C 64.3333,238.167 64.6667,238.833 65,239.5C 66.3754,237.624 67.542,235.624 68.5,233.5C 69.9841,235.282 70.9841,237.282 71.5,239.5 Z"/></g>
<g><path style="opacity:1" fill="#8b4adb" d="M 275.5,233.5 C 275.833,233.5 276.167,233.5 276.5,233.5C 276.517,235.565 276.85,237.565 277.5,239.5C 275.579,242.248 273.079,244.581 270,246.5C 267.517,249.139 265.684,252.139 264.5,255.5C 263.833,255.5 263.167,255.5 262.5,255.5C 266.919,248.113 271.252,240.779 275.5,233.5 Z"/></g>
<g><path style="opacity:1" fill="#8e3fe9" d="M 346.5,239.5 C 345.405,245.913 343.405,251.913 340.5,257.5C 340.795,255.265 340.461,253.265 339.5,251.5C 340.347,249.971 341.014,248.304 341.5,246.5C 341.167,245.5 340.833,244.5 340.5,243.5C 338.683,245.416 337.516,247.749 337,250.5C 336.018,246.376 333.352,244.376 329,244.5C 327.159,245.562 325.326,246.562 323.5,247.5C 323.5,244.833 323.5,242.167 323.5,239.5C 325.134,238.419 326.467,237.085 327.5,235.5C 328.315,234.571 329.148,233.571 330,232.5C 331.352,234.594 331.852,236.927 331.5,239.5C 336.5,239.5 341.5,239.5 346.5,239.5 Z"/></g>
<g><path style="opacity:1" fill="#9339ee" d="M 188.5,237.5 C 196.159,238.793 203.826,238.793 211.5,237.5C 215.734,238.177 219.901,239.177 224,240.5C 229.603,238.969 235.103,239.303 240.5,241.5C 241.265,240.388 242.265,239.721 243.5,239.5C 241.129,244.202 237.462,247.536 232.5,249.5C 230.334,249.421 228.334,248.754 226.5,247.5C 225.833,247.667 225.167,247.833 224.5,248C 225.711,248.893 225.711,249.726 224.5,250.5C 220.777,249.256 216.944,248.589 213,248.5C 202.937,249.7 192.937,249.7 183,248.5C 180.056,249.257 177.056,249.923 174,250.5C 173.241,249.354 172.574,248.354 172,247.5C 169.751,249.809 167.251,250.143 164.5,248.5C 162.953,246.238 163.286,244.238 165.5,242.5C 164.675,241.614 163.675,241.281 162.5,241.5C 165.701,239.74 169.367,238.906 173.5,239C 174.56,237.702 175.726,236.535 177,235.5C 178.767,237.164 178.267,238.331 175.5,239C 180.062,239.878 184.396,239.378 188.5,237.5 Z"/></g>
<g><path style="opacity:1" fill="#9a51d4" d="M 323.5,239.5 C 323.5,242.167 323.5,244.833 323.5,247.5C 322.833,247.5 322.5,247.833 322.5,248.5C 320.498,250.914 318.498,253.248 316.5,255.5C 318.841,250.074 321.175,244.74 323.5,239.5 Z"/></g>
<g><path style="opacity:1" fill="#9b3ee2" d="M 123.5,234.5 C 128.64,244.638 135.306,253.638 143.5,261.5C 140.191,260.758 137.357,259.091 135,256.5C 133.644,257.38 132.144,257.714 130.5,257.5C 130.5,256.5 130.5,255.5 130.5,254.5C 130.918,253.778 131.584,253.278 132.5,253C 131.128,251.758 130.128,250.258 129.5,248.5C 123.81,247.211 118.143,247.211 112.5,248.5C 111.702,248.043 111.369,247.376 111.5,246.5C 114.608,244.829 118.108,243.829 122,243.5C 122.199,241.598 123.033,240.098 124.5,239C 123.62,237.644 123.286,236.144 123.5,234.5 Z"/></g>
<g><path style="opacity:1" fill="#993ae9" d="M 296.5,241.5 C 295.736,245.913 294.069,249.913 291.5,253.5C 290.833,254.167 290.167,254.833 289.5,255.5C 289.167,253.5 288.833,251.5 288.5,249.5C 282.158,249.334 275.825,249.5 269.5,250C 267.561,251.432 266.228,253.265 265.5,255.5C 265.167,255.5 264.833,255.5 264.5,255.5C 265.684,252.139 267.517,249.139 270,246.5C 273.079,244.581 275.579,242.248 277.5,239.5C 280.833,239.5 284.167,239.5 287.5,239.5C 287.351,238.448 287.517,237.448 288,236.5C 288.333,238.167 288.667,239.833 289,241.5C 290.892,242.13 292.559,243.13 294,244.5C 294.236,242.881 295.069,241.881 296.5,241.5 Z"/></g>
<g><path style="opacity:1" fill="#b22eea" d="M 289.5,255.5 C 287.824,256.183 287.157,257.517 287.5,259.5C 285.61,259.297 284.11,259.963 283,261.5C 280.92,259.027 278.754,259.027 276.5,261.5C 274.578,259.418 272.245,258.084 269.5,257.5C 268.329,256.655 266.995,255.989 265.5,255.5C 266.228,253.265 267.561,251.432 269.5,250C 275.825,249.5 282.158,249.334 288.5,249.5C 288.833,251.5 289.167,253.5 289.5,255.5 Z"/></g>
<g><path style="opacity:1" fill="#a632ed" d="M 339.5,251.5 C 334.963,255.411 329.629,256.411 323.5,254.5C 322.652,252.591 322.318,250.591 322.5,248.5C 322.5,247.833 322.833,247.5 323.5,247.5C 325.326,246.562 327.159,245.562 329,244.5C 333.352,244.376 336.018,246.376 337,250.5C 337.516,247.749 338.683,245.416 340.5,243.5C 340.833,244.5 341.167,245.5 341.5,246.5C 341.014,248.304 340.347,249.971 339.5,251.5 Z"/></g>
<g><path style="opacity:1" fill="#aa31eb" d="M 105.5,243.5 C 107.941,243.75 109.941,244.75 111.5,246.5C 111.369,247.376 111.702,248.043 112.5,248.5C 118.143,247.211 123.81,247.211 129.5,248.5C 130.128,250.258 131.128,251.758 132.5,253C 131.584,253.278 130.918,253.778 130.5,254.5C 128.851,255.473 127.184,256.473 125.5,257.5C 123.028,256.008 120.361,255.342 117.5,255.5C 115.5,255.5 113.5,255.5 111.5,255.5C 109.463,251.495 107.463,247.495 105.5,243.5 Z"/></g>
<g><path style="opacity:1" fill="#ad31e9" d="M 232.5,249.5 C 229.086,252.54 225.086,254.54 220.5,255.5C 213.389,257.42 206.056,258.42 198.5,258.5C 191.296,257.209 183.962,256.209 176.5,255.5C 171.835,254.172 167.835,251.839 164.5,248.5C 167.251,250.143 169.751,249.809 172,247.5C 172.574,248.354 173.241,249.354 174,250.5C 177.056,249.923 180.056,249.257 183,248.5C 192.937,249.7 202.937,249.7 213,248.5C 216.944,248.589 220.777,249.256 224.5,250.5C 225.711,249.726 225.711,248.893 224.5,248C 225.167,247.833 225.833,247.667 226.5,247.5C 228.334,248.754 230.334,249.421 232.5,249.5 Z"/></g>
<g><path style="opacity:1" fill="#af31ea" d="M 52.5,239.5 C 53.1667,239.5 53.8333,239.5 54.5,239.5C 54.2011,241.604 54.5344,243.604 55.5,245.5C 56.086,245.291 56.586,244.957 57,244.5C 58.6852,246.988 60.0186,246.655 61,243.5C 61.6667,248.833 62.3333,248.833 63,243.5C 63.4955,245.473 63.6621,247.473 63.5,249.5C 66.2903,249.778 68.7903,249.111 71,247.5C 72.2853,247.95 73.452,248.617 74.5,249.5C 75.1818,248.757 75.8485,248.091 76.5,247.5C 77.8553,250.211 79.1886,252.877 80.5,255.5C 80.6567,256.873 80.49,258.207 80,259.5C 79.4806,258.484 78.6473,257.818 77.5,257.5C 72.5436,258.394 67.5436,258.727 62.5,258.5C 62.7852,256.712 62.4519,255.045 61.5,253.5C 60.7348,254.612 59.7348,255.279 58.5,255.5C 58.1667,255.5 57.8333,255.5 57.5,255.5C 57.1667,255.5 56.8333,255.5 56.5,255.5C 54.7037,250.334 53.3704,245.001 52.5,239.5 Z"/></g>
<g><path style="opacity:1" fill="#a556c8" d="M 75.5,239.5 C 78.2948,246.54 81.2948,253.54 84.5,260.5C 82.4658,259.409 81.1324,257.743 80.5,255.5C 79.1886,252.877 77.8553,250.211 76.5,247.5C 76.1667,244.833 75.8333,242.167 75.5,239.5 Z"/></g>
<g><path style="opacity:1" fill="#fcf9fb" d="M 315.5,255.5 C 313.833,259.5 312.167,263.5 310.5,267.5C 297.717,287.282 281.051,302.949 260.5,314.5C 258.566,315.11 256.899,316.11 255.5,317.5C 253.302,317.12 251.635,317.787 250.5,319.5C 246.976,320.965 243.309,321.965 239.5,322.5C 238.167,322.5 236.833,322.5 235.5,322.5C 235.334,316.158 235.5,309.825 236,303.5C 237.167,302.333 238.333,301.167 239.5,300C 244.352,299.08 248.352,296.913 251.5,293.5C 254.128,291.874 256.461,289.874 258.5,287.5C 259.167,287.5 259.833,287.5 260.5,287.5C 267.465,281.87 274.132,275.87 280.5,269.5C 282.775,268.889 284.441,267.555 285.5,265.5C 285.281,266.675 285.614,267.675 286.5,268.5C 289.659,267.845 292.159,266.178 294,263.5C 295.658,260.023 296.825,256.357 297.5,252.5C 298.5,252.5 299.5,252.5 300.5,252.5C 300.48,254.143 301.147,255.476 302.5,256.5C 301.425,259.438 301.259,262.438 302,265.5C 303.016,266.634 303.683,266.301 304,264.5C 304.923,265.759 305.757,267.092 306.5,268.5C 309.32,264.035 312.32,259.701 315.5,255.5 Z"/></g>
<g><path style="opacity:1" fill="#be3cda" d="M 262.5,255.5 C 263.167,255.5 263.833,255.5 264.5,255.5C 264.833,255.5 265.167,255.5 265.5,255.5C 266.995,255.989 268.329,256.655 269.5,257.5C 267.631,259.576 265.464,259.909 263,258.5C 258.077,261.917 253.577,265.917 249.5,270.5C 248.264,271.246 246.93,271.579 245.5,271.5C 245.8,274.244 244.633,275.911 242,276.5C 240.2,275.622 238.367,274.955 236.5,274.5C 241.417,271.365 246.417,268.198 251.5,265C 254.738,261.256 258.405,258.09 262.5,255.5 Z"/></g>
<g><path style="opacity:1" fill="#b439dd" d="M 102.5,243.5 C 103.5,243.5 104.5,243.5 105.5,243.5C 107.463,247.495 109.463,251.495 111.5,255.5C 113.5,255.5 115.5,255.5 117.5,255.5C 117.414,256.496 117.748,257.329 118.5,258C 120.134,258.494 121.801,258.66 123.5,258.5C 123.719,259.675 123.386,260.675 122.5,261.5C 121.15,260.05 119.484,259.383 117.5,259.5C 117.368,262.57 117.701,265.57 118.5,268.5C 111.933,261.051 106.6,252.718 102.5,243.5 Z"/></g>
<g><path style="opacity:1" fill="#b351d1" d="M 176.5,255.5 C 183.962,256.209 191.296,257.209 198.5,258.5C 206.056,258.42 213.389,257.42 220.5,255.5C 209.393,260.679 197.726,261.846 185.5,259C 182.135,258.495 179.135,257.328 176.5,255.5 Z"/></g>
<g><path style="opacity:1" fill="#f1cef3" d="M 291.5,253.5 C 291.702,255.989 291.202,258.323 290,260.5C 289.23,261.598 288.397,261.598 287.5,260.5C 287.5,260.167 287.5,259.833 287.5,259.5C 287.157,257.517 287.824,256.183 289.5,255.5C 290.167,254.833 290.833,254.167 291.5,253.5 Z"/></g>
<g><path style="opacity:1" fill="#bc2fe4" d="M 322.5,248.5 C 322.318,250.591 322.652,252.591 323.5,254.5C 329.629,256.411 334.963,255.411 339.5,251.5C 340.461,253.265 340.795,255.265 340.5,257.5C 340.34,259.153 339.674,260.486 338.5,261.5C 338.167,261.5 337.833,261.5 337.5,261.5C 337.719,260.325 337.386,259.325 336.5,258.5C 331.777,260.184 327.111,261.851 322.5,263.5C 320.42,263.314 318.92,262.314 318,260.5C 317.503,263.146 317.336,265.813 317.5,268.5C 316.5,268.5 315.5,268.5 314.5,268.5C 314.719,267.325 314.386,266.325 313.5,265.5C 312.735,266.612 311.735,267.279 310.5,267.5C 312.167,263.5 313.833,259.5 315.5,255.5C 315.833,255.5 316.167,255.5 316.5,255.5C 318.498,253.248 320.498,250.914 322.5,248.5 Z"/></g>
<g><path style="opacity:1" fill="#b04cc9" d="M 57.5,255.5 C 57.8333,255.5 58.1667,255.5 58.5,255.5C 60.1667,259.5 61.8333,263.5 63.5,267.5C 60.4598,264.086 58.4598,260.086 57.5,255.5 Z"/></g>
<g><path style="opacity:1" fill="#fad4fc" d="M 287.5,260.5 C 287.169,262.322 286.502,263.989 285.5,265.5C 284.441,267.555 282.775,268.889 280.5,269.5C 280.833,268.833 281.167,268.167 281.5,267.5C 283.263,264.98 285.263,262.647 287.5,260.5 Z"/></g>
<g><path style="opacity:1" fill="#d123e9" d="M 337.5,261.5 C 336.596,262.209 336.263,263.209 336.5,264.5C 334.856,264.286 333.356,264.62 332,265.5C 331.184,269.176 330.518,272.843 330,276.5C 328.984,275.366 328.317,275.699 328,277.5C 327.517,276.552 327.351,275.552 327.5,274.5C 326.178,274.33 325.011,274.663 324,275.5C 322.54,279.516 322.04,283.516 322.5,287.5C 321.751,285.988 320.584,284.988 319,284.5C 317.029,285.969 315.196,287.636 313.5,289.5C 312.311,290.429 310.978,290.762 309.5,290.5C 309.5,289.5 309.5,288.5 309.5,287.5C 308.167,287.5 306.833,287.5 305.5,287.5C 305.5,288.833 305.5,290.167 305.5,291.5C 306.5,291.5 307.5,291.5 308.5,291.5C 308.514,294.627 307.514,297.293 305.5,299.5C 306.612,301.631 308.112,301.631 310,299.5C 310.49,300.793 310.657,302.127 310.5,303.5C 307.775,304.713 305.441,306.546 303.5,309C 302.552,309.483 301.552,309.649 300.5,309.5C 300.5,308.167 300.5,306.833 300.5,305.5C 305.833,304.833 305.833,304.167 300.5,303.5C 300.5,302.5 300.5,301.5 300.5,300.5C 301.5,300.5 302.5,300.5 303.5,300.5C 302.771,297.02 301.771,293.686 300.5,290.5C 299.5,290.5 298.5,290.5 297.5,290.5C 299.455,287.682 301.288,284.682 303,281.5C 303.49,282.793 303.657,284.127 303.5,285.5C 305.527,285.662 307.527,285.495 309.5,285C 310.337,283.989 310.67,282.822 310.5,281.5C 309.167,281.5 307.833,281.5 306.5,281.5C 308.675,277.195 310.009,272.528 310.5,267.5C 311.735,267.279 312.735,266.612 313.5,265.5C 314.386,266.325 314.719,267.325 314.5,268.5C 315.5,268.5 316.5,268.5 317.5,268.5C 317.336,265.813 317.503,263.146 318,260.5C 318.92,262.314 320.42,263.314 322.5,263.5C 327.111,261.851 331.777,260.184 336.5,258.5C 337.386,259.325 337.719,260.325 337.5,261.5 Z"/></g>
<g><path style="opacity:1" fill="#bb42ca" d="M 281.5,267.5 C 281.167,268.167 280.833,268.833 280.5,269.5C 274.132,275.87 267.465,281.87 260.5,287.5C 260.316,284.679 261.649,283.012 264.5,282.5C 269.072,277.444 273.739,272.611 278.5,268C 279.448,267.517 280.448,267.351 281.5,267.5 Z"/></g>
<g><path style="opacity:1" fill="#cf25e6" d="M 269.5,257.5 C 272.245,258.084 274.578,259.418 276.5,261.5C 278.754,259.027 280.92,259.027 283,261.5C 284.11,259.963 285.61,259.297 287.5,259.5C 287.5,259.833 287.5,260.167 287.5,260.5C 285.263,262.647 283.263,264.98 281.5,267.5C 280.448,267.351 279.448,267.517 278.5,268C 273.739,272.611 269.072,277.444 264.5,282.5C 261.649,283.012 260.316,284.679 260.5,287.5C 259.833,287.5 259.167,287.5 258.5,287.5C 253.653,287.544 248.987,288.377 244.5,290C 245.5,290.833 246.5,291.667 247.5,292.5C 247.376,293.107 247.043,293.44 246.5,293.5C 244.167,292.833 241.833,292.167 239.5,291.5C 239.5,290.167 239.5,288.833 239.5,287.5C 242.833,287.5 246.167,287.5 249.5,287.5C 249.5,286.5 249.5,285.5 249.5,284.5C 244.585,284.816 239.752,284.816 235,284.5C 233.174,285.01 233.007,285.844 234.5,287C 232.956,288.187 231.289,288.52 229.5,288C 230.167,287.667 230.833,287.333 231.5,287C 230.207,286.51 228.873,286.343 227.5,286.5C 227.703,284.362 228.703,282.695 230.5,281.5C 229.975,280.808 229.308,280.308 228.5,280C 231.483,278.365 234.149,276.532 236.5,274.5C 238.367,274.955 240.2,275.622 242,276.5C 244.633,275.911 245.8,274.244 245.5,271.5C 246.93,271.579 248.264,271.246 249.5,270.5C 253.577,265.917 258.077,261.917 263,258.5C 265.464,259.909 267.631,259.576 269.5,257.5 Z"/></g>
<g><path style="opacity:1" fill="#c536d6" d="M 143.5,262.5 C 147.898,264.725 151.898,267.559 155.5,271C 159.367,273.1 163.367,274.933 167.5,276.5C 172.628,279.097 177.961,281.097 183.5,282.5C 178.823,282.165 174.156,281.665 169.5,281C 166.932,277.964 164.099,277.797 161,280.5C 155.502,279.339 152.502,276.005 152,270.5C 150.004,268.173 147.504,266.673 144.5,266C 143.663,264.989 143.33,263.822 143.5,262.5 Z"/></g>
<g><path style="opacity:1" fill="#f6caf9" d="M 167.5,276.5 C 171.582,276.892 175.582,277.558 179.5,278.5C 182.023,279.254 184.689,279.92 187.5,280.5C 188.5,304.157 188.833,327.824 188.5,351.5C 188.167,351.5 187.833,351.5 187.5,351.5C 187.5,328.5 187.5,305.5 187.5,282.5C 186.5,282.5 185.5,282.5 184.5,282.5C 184.167,282.5 183.833,282.5 183.5,282.5C 177.961,281.097 172.628,279.097 167.5,276.5 Z"/></g>
<g><path style="opacity:1" fill="#fbfafb" d="M 100.5,159.5 C 98.6309,165.107 96.9642,170.774 95.5,176.5C 95.5,177.167 95.5,177.833 95.5,178.5C 94.6981,179.952 94.1981,181.618 94,183.5C 93.3333,194.167 93.3333,204.833 94,215.5C 94.1981,217.382 94.6981,219.048 95.5,220.5C 95.5165,224.534 96.5165,228.201 98.5,231.5C 98.7215,234.067 99.3882,236.401 100.5,238.5C 101.167,240.167 101.833,241.833 102.5,243.5C 106.6,252.718 111.933,261.051 118.5,268.5C 125.389,277.449 133.722,284.783 143.5,290.5C 147.347,293.593 151.68,295.926 156.5,297.5C 157.5,298.167 158.5,298.833 159.5,299.5C 160.287,301.104 161.62,301.771 163.5,301.5C 163.83,307.868 163.496,314.202 162.5,320.5C 161.554,320.987 160.554,321.32 159.5,321.5C 156.673,320.068 153.673,319.401 150.5,319.5C 149.833,319.5 149.167,319.5 148.5,319.5C 141.315,316.075 134.315,312.409 127.5,308.5C 115.876,299.544 105.21,289.544 95.5,278.5C 92.3321,272.158 88.6654,266.158 84.5,260.5C 81.2948,253.54 78.2948,246.54 75.5,239.5C 73.6647,231.165 71.998,222.832 70.5,214.5C 70.5,213.167 70.5,211.833 70.5,210.5C 70.3336,201.494 70.5002,192.494 71,183.5C 71.1829,180.635 71.6829,177.969 72.5,175.5C 73.8333,175.5 75.1667,175.5 76.5,175.5C 75.9022,180.813 75.5688,186.146 75.5,191.5C 76.5,191.5 77.5,191.5 78.5,191.5C 79.2049,184.173 79.3716,176.84 79,169.5C 78.6667,170.5 78.3333,171.5 78,172.5C 77.1475,170.875 76.1475,170.542 75,171.5C 74.2937,169.029 74.627,166.695 76,164.5C 77.0113,165.337 78.1779,165.67 79.5,165.5C 80.6745,158.427 82.1745,151.427 84,144.5C 85.0463,145.772 85.5463,147.272 85.5,149C 84.9528,152.358 84.9528,155.858 85.5,159.5C 86.8333,159.5 88.1667,159.5 89.5,159.5C 89.334,154.156 89.5006,148.823 90,143.5C 90.6891,142.643 91.5224,141.977 92.5,141.5C 93.061,145.095 94.2276,148.428 96,151.5C 97,150.167 98,148.833 99,147.5C 99.3333,147.833 99.6667,148.167 100,148.5C 99.3148,152.143 99.4815,155.809 100.5,159.5 Z"/></g>
<g><path style="opacity:1" fill="#f9dffa" d="M 210.5,282.5 C 210.169,305.673 210.502,328.673 211.5,351.5C 214.167,351.5 216.833,351.5 219.5,351.5C 216.528,355.686 213.361,356.02 210,352.5C 209.17,328.996 209.337,305.663 210.5,282.5 Z"/></g>
<g><path style="opacity:1" fill="#cf77db" d="M 225.5,279.5 C 221.89,281.574 217.89,282.741 213.5,283C 212.773,284.399 212.273,285.899 212,287.5C 211.5,308.831 211.333,330.164 211.5,351.5C 210.502,328.673 210.169,305.673 210.5,282.5C 213.167,281.833 215.833,281.167 218.5,280.5C 220.806,280.007 223.139,279.674 225.5,279.5 Z"/></g>
<g><path style="opacity:1" fill="#cb4ada" d="M 258.5,287.5 C 256.461,289.874 254.128,291.874 251.5,293.5C 246.188,295.821 240.855,298.155 235.5,300.5C 234.502,308.472 234.169,316.472 234.5,324.5C 233.175,320.555 232.508,316.222 232.5,311.5C 232.667,307.167 232.833,302.833 233,298.5C 235.574,296.998 238.407,295.998 241.5,295.5C 240.975,294.808 240.308,294.308 239.5,294C 241.995,294.412 244.329,294.245 246.5,293.5C 247.043,293.44 247.376,293.107 247.5,292.5C 246.5,291.667 245.5,290.833 244.5,290C 248.987,288.377 253.653,287.544 258.5,287.5 Z"/></g>
<g><path style="opacity:1" fill="#c833da" d="M 310.5,267.5 C 310.009,272.528 308.675,277.195 306.5,281.5C 307.833,281.5 309.167,281.5 310.5,281.5C 310.67,282.822 310.337,283.989 309.5,285C 307.527,285.495 305.527,285.662 303.5,285.5C 303.657,284.127 303.49,282.793 303,281.5C 301.288,284.682 299.455,287.682 297.5,290.5C 298.5,290.5 299.5,290.5 300.5,290.5C 301.771,293.686 302.771,297.02 303.5,300.5C 302.5,300.5 301.5,300.5 300.5,300.5C 300.5,301.5 300.5,302.5 300.5,303.5C 305.833,304.167 305.833,304.833 300.5,305.5C 300.5,306.833 300.5,308.167 300.5,309.5C 301.552,309.649 302.552,309.483 303.5,309C 305.441,306.546 307.775,304.713 310.5,303.5C 306.188,309.812 300.855,315.145 294.5,319.5C 295.88,316.321 297.546,313.321 299.5,310.5C 299.333,309.833 299.167,309.167 299,308.5C 297.506,309.747 296.006,309.747 294.5,308.5C 295.305,306.528 296.639,305.028 298.5,304C 297.552,303.517 296.552,303.351 295.5,303.5C 295.5,302.5 295.5,301.5 295.5,300.5C 296.833,300.5 298.167,300.5 299.5,300.5C 299.5,298.833 299.5,297.167 299.5,295.5C 298.5,295.5 297.5,295.5 296.5,295.5C 296.5,294.5 296.5,293.5 296.5,292.5C 295.167,292.5 293.833,292.5 292.5,292.5C 292.247,294.827 292.914,296.827 294.5,298.5C 294,298.833 293.5,299.167 293,299.5C 288.602,296.634 285.102,297.467 282.5,302C 283.504,303.798 284.004,305.632 284,307.5C 281.936,306.409 279.769,306.242 277.5,307C 274.911,308.197 272.244,309.197 269.5,310C 267.323,313.089 264.323,314.589 260.5,314.5C 281.051,302.949 297.717,287.282 310.5,267.5 Z"/></g>
<g><path style="opacity:1" fill="#bd34cb" d="M 184.5,282.5 C 185.5,282.5 186.5,282.5 187.5,282.5C 187.5,305.5 187.5,328.5 187.5,351.5C 187.167,351.5 186.833,351.5 186.5,351.5C 187.14,328.27 186.474,305.27 184.5,282.5 Z"/></g>
<g><path style="opacity:1" fill="#cb30de" d="M 337.5,261.5 C 337.833,261.5 338.167,261.5 338.5,261.5C 332.631,277.932 323.298,291.932 310.5,303.5C 310.657,302.127 310.49,300.793 310,299.5C 308.112,301.631 306.612,301.631 305.5,299.5C 307.514,297.293 308.514,294.627 308.5,291.5C 307.5,291.5 306.5,291.5 305.5,291.5C 305.5,290.167 305.5,288.833 305.5,287.5C 306.833,287.5 308.167,287.5 309.5,287.5C 309.5,288.5 309.5,289.5 309.5,290.5C 310.978,290.762 312.311,290.429 313.5,289.5C 315.196,287.636 317.029,285.969 319,284.5C 320.584,284.988 321.751,285.988 322.5,287.5C 322.04,283.516 322.54,279.516 324,275.5C 325.011,274.663 326.178,274.33 327.5,274.5C 327.351,275.552 327.517,276.552 328,277.5C 328.317,275.699 328.984,275.366 330,276.5C 330.518,272.843 331.184,269.176 332,265.5C 333.356,264.62 334.856,264.286 336.5,264.5C 336.263,263.209 336.596,262.209 337.5,261.5 Z"/></g>
<g><path style="opacity:1" fill="#c542d4" d="M 93.5,309.5 C 98.3593,311.36 102.359,314.36 105.5,318.5C 108.167,319.5 110.833,320.5 113.5,321.5C 116.337,325.998 120.337,328.998 125.5,330.5C 126.442,330.392 127.275,330.059 128,329.5C 132.895,334.899 138.728,338.899 145.5,341.5C 148.024,340.134 149.691,340.967 150.5,344C 152.723,344.566 154.723,345.4 156.5,346.5C 135.733,340.617 117.066,330.784 100.5,317C 97.9614,314.63 95.6281,312.13 93.5,309.5 Z"/></g>
<g><path style="opacity:1" fill="#ce27e4" d="M 236.5,274.5 C 234.149,276.532 231.483,278.365 228.5,280C 229.308,280.308 229.975,280.808 230.5,281.5C 228.703,282.695 227.703,284.362 227.5,286.5C 228.873,286.343 230.207,286.51 231.5,287C 230.833,287.333 230.167,287.667 229.5,288C 231.289,288.52 232.956,288.187 234.5,287C 233.007,285.844 233.174,285.01 235,284.5C 239.752,284.816 244.585,284.816 249.5,284.5C 249.5,285.5 249.5,286.5 249.5,287.5C 246.167,287.5 242.833,287.5 239.5,287.5C 239.5,288.833 239.5,290.167 239.5,291.5C 241.833,292.167 244.167,292.833 246.5,293.5C 244.329,294.245 241.995,294.412 239.5,294C 240.308,294.308 240.975,294.808 241.5,295.5C 238.407,295.998 235.574,296.998 233,298.5C 232.833,302.833 232.667,307.167 232.5,311.5C 232.508,316.222 233.175,320.555 234.5,324.5C 236.553,324.598 238.22,323.931 239.5,322.5C 243.309,321.965 246.976,320.965 250.5,319.5C 252.781,319.923 254.448,319.256 255.5,317.5C 256.899,316.11 258.566,315.11 260.5,314.5C 264.323,314.589 267.323,313.089 269.5,310C 272.244,309.197 274.911,308.197 277.5,307C 279.769,306.242 281.936,306.409 284,307.5C 284.004,305.632 283.504,303.798 282.5,302C 285.102,297.467 288.602,296.634 293,299.5C 293.5,299.167 294,298.833 294.5,298.5C 292.914,296.827 292.247,294.827 292.5,292.5C 293.833,292.5 295.167,292.5 296.5,292.5C 296.5,293.5 296.5,294.5 296.5,295.5C 297.5,295.5 298.5,295.5 299.5,295.5C 299.5,297.167 299.5,298.833 299.5,300.5C 298.167,300.5 296.833,300.5 295.5,300.5C 295.5,301.5 295.5,302.5 295.5,303.5C 296.552,303.351 297.552,303.517 298.5,304C 296.639,305.028 295.305,306.528 294.5,308.5C 296.006,309.747 297.506,309.747 299,308.5C 299.167,309.167 299.333,309.833 299.5,310.5C 297.546,313.321 295.88,316.321 294.5,319.5C 277.321,333.346 257.988,343.012 236.5,348.5C 232.015,349.34 227.681,350.34 223.5,351.5C 222.167,351.5 220.833,351.5 219.5,351.5C 216.833,351.5 214.167,351.5 211.5,351.5C 211.333,330.164 211.5,308.831 212,287.5C 212.273,285.899 212.773,284.399 213.5,283C 217.89,282.741 221.89,281.574 225.5,279.5C 228.836,277.269 232.503,275.603 236.5,274.5 Z"/></g>
<g><path style="opacity:1" fill="#b15db8" d="M 255.5,317.5 C 254.448,319.256 252.781,319.923 250.5,319.5C 251.635,317.787 253.302,317.12 255.5,317.5 Z"/></g>
<g><path style="opacity:1" fill="#fee6fe" d="M 251.5,293.5 C 248.352,296.913 244.352,299.08 239.5,300C 238.333,301.167 237.167,302.333 236,303.5C 235.5,309.825 235.334,316.158 235.5,322.5C 236.833,322.5 238.167,322.5 239.5,322.5C 238.22,323.931 236.553,324.598 234.5,324.5C 234.169,316.472 234.502,308.472 235.5,300.5C 240.855,298.155 246.188,295.821 251.5,293.5 Z"/></g>
<g><path style="opacity:1" fill="#ce26e5" d="M 80.5,255.5 C 81.1324,257.743 82.4658,259.409 84.5,260.5C 84.6785,263.216 85.1785,265.883 86,268.5C 88.3281,270.65 89.6614,273.317 90,276.5C 91.762,278.262 93.5953,278.928 95.5,278.5C 96.7496,281.006 97.4162,283.673 97.5,286.5C 98.8333,286.5 100.167,286.5 101.5,286.5C 101.753,288.827 101.086,290.827 99.5,292.5C 103.76,293.309 107.76,294.643 111.5,296.5C 111.421,297.93 111.754,299.264 112.5,300.5C 114.274,301.187 115.941,302.02 117.5,303C 114.53,305.105 113.363,307.938 114,311.5C 116.153,315.693 119.32,318.193 123.5,319C 124.167,318 124.833,317 125.5,316C 123.452,314.319 121.285,312.819 119,311.5C 118.51,310.207 118.343,308.873 118.5,307.5C 121.482,307.963 124.482,308.296 127.5,308.5C 134.315,312.409 141.315,316.075 148.5,319.5C 150.64,322.341 153.64,323.674 157.5,323.5C 158.967,323.894 160.467,324.227 162,324.5C 163.376,324.316 164.209,323.649 164.5,322.5C 165.492,314.684 165.826,306.684 165.5,298.5C 162.482,298.296 159.482,297.963 156.5,297.5C 151.68,295.926 147.347,293.593 143.5,290.5C 143.5,289.5 143.5,288.5 143.5,287.5C 142.5,287.5 141.5,287.5 140.5,287.5C 140.662,285.473 140.495,283.473 140,281.5C 136.503,283.162 134.003,282.162 132.5,278.5C 132.818,277.353 133.484,276.519 134.5,276C 133.5,275.667 132.5,275.333 131.5,275C 137.09,272.236 136.756,271.069 130.5,271.5C 130.5,273.167 130.5,274.833 130.5,276.5C 129.07,276.579 127.736,276.246 126.5,275.5C 125.025,273.191 123.358,271.024 121.5,269C 120.552,268.517 119.552,268.351 118.5,268.5C 117.701,265.57 117.368,262.57 117.5,259.5C 119.484,259.383 121.15,260.05 122.5,261.5C 123.386,260.675 123.719,259.675 123.5,258.5C 121.801,258.66 120.134,258.494 118.5,258C 117.748,257.329 117.414,256.496 117.5,255.5C 120.361,255.342 123.028,256.008 125.5,257.5C 127.184,256.473 128.851,255.473 130.5,254.5C 130.5,255.5 130.5,256.5 130.5,257.5C 132.144,257.714 133.644,257.38 135,256.5C 137.357,259.091 140.191,260.758 143.5,261.5C 143.5,261.833 143.5,262.167 143.5,262.5C 143.33,263.822 143.663,264.989 144.5,266C 147.504,266.673 150.004,268.173 152,270.5C 152.502,276.005 155.502,279.339 161,280.5C 164.099,277.797 166.932,277.964 169.5,281C 174.156,281.665 178.823,282.165 183.5,282.5C 183.833,282.5 184.167,282.5 184.5,282.5C 186.474,305.27 187.14,328.27 186.5,351.5C 180.484,351.407 174.484,351.074 168.5,350.5C 164.374,349.285 160.374,347.952 156.5,346.5C 154.723,345.4 152.723,344.566 150.5,344C 149.691,340.967 148.024,340.134 145.5,341.5C 138.728,338.899 132.895,334.899 128,329.5C 127.275,330.059 126.442,330.392 125.5,330.5C 120.337,328.998 116.337,325.998 113.5,321.5C 110.833,320.5 108.167,319.5 105.5,318.5C 102.359,314.36 98.3593,311.36 93.5,309.5C 79.9007,297.927 69.9007,283.927 63.5,267.5C 61.8333,263.5 60.1667,259.5 58.5,255.5C 59.7348,255.279 60.7348,254.612 61.5,253.5C 62.4519,255.045 62.7852,256.712 62.5,258.5C 67.5436,258.727 72.5436,258.394 77.5,257.5C 78.6473,257.818 79.4806,258.484 80,259.5C 80.49,258.207 80.6567,256.873 80.5,255.5 Z"/></g>
<g><path style="opacity:1" fill="#c155cb" d="M 148.5,319.5 C 149.167,319.5 149.833,319.5 150.5,319.5C 152.964,320.567 155.297,321.9 157.5,323.5C 153.64,323.674 150.64,322.341 148.5,319.5 Z"/></g>
<g><path style="opacity:1" fill="#c05dca" d="M 156.5,297.5 C 159.482,297.963 162.482,298.296 165.5,298.5C 165.826,306.684 165.492,314.684 164.5,322.5C 164.831,315.137 164.497,307.803 163.5,300.5C 162.264,299.754 160.93,299.421 159.5,299.5C 158.5,298.833 157.5,298.167 156.5,297.5 Z"/></g>
<g><path style="opacity:1" fill="#fdd8fd" d="M 159.5,299.5 C 160.93,299.421 162.264,299.754 163.5,300.5C 164.497,307.803 164.831,315.137 164.5,322.5C 164.209,323.649 163.376,324.316 162,324.5C 160.467,324.227 158.967,323.894 157.5,323.5C 155.297,321.9 152.964,320.567 150.5,319.5C 153.673,319.401 156.673,320.068 159.5,321.5C 160.554,321.32 161.554,320.987 162.5,320.5C 163.496,314.202 163.83,307.868 163.5,301.5C 161.62,301.771 160.287,301.104 159.5,299.5 Z"/></g>
<g><path style="opacity:1" fill="#c931dc" d="M 95.5,278.5 C 105.21,289.544 115.876,299.544 127.5,308.5C 124.482,308.296 121.482,307.963 118.5,307.5C 118.343,308.873 118.51,310.207 119,311.5C 121.285,312.819 123.452,314.319 125.5,316C 124.833,317 124.167,318 123.5,319C 119.32,318.193 116.153,315.693 114,311.5C 113.363,307.938 114.53,305.105 117.5,303C 115.941,302.02 114.274,301.187 112.5,300.5C 111.754,299.264 111.421,297.93 111.5,296.5C 107.76,294.643 103.76,293.309 99.5,292.5C 101.086,290.827 101.753,288.827 101.5,286.5C 100.167,286.5 98.8333,286.5 97.5,286.5C 97.4162,283.673 96.7496,281.006 95.5,278.5 Z"/></g>
<g><path style="opacity:1" fill="#c53dd6" d="M 118.5,268.5 C 119.552,268.351 120.552,268.517 121.5,269C 123.358,271.024 125.025,273.191 126.5,275.5C 127.736,276.246 129.07,276.579 130.5,276.5C 130.5,274.833 130.5,273.167 130.5,271.5C 136.756,271.069 137.09,272.236 131.5,275C 132.5,275.333 133.5,275.667 134.5,276C 133.484,276.519 132.818,277.353 132.5,278.5C 134.003,282.162 136.503,283.162 140,281.5C 140.495,283.473 140.662,285.473 140.5,287.5C 141.5,287.5 142.5,287.5 143.5,287.5C 143.5,288.5 143.5,289.5 143.5,290.5C 133.722,284.783 125.389,277.449 118.5,268.5 Z"/></g>
<g><path style="opacity:1" fill="#c241d1" d="M 84.5,260.5 C 88.6654,266.158 92.3321,272.158 95.5,278.5C 93.5953,278.928 91.762,278.262 90,276.5C 89.6614,273.317 88.3281,270.65 86,268.5C 85.1785,265.883 84.6785,263.216 84.5,260.5 Z"/></g>
<g><path style="opacity:1" fill="#fdd0fd" d="M 236.5,348.5 C 232.645,351.035 228.312,352.035 223.5,351.5C 227.681,350.34 232.015,349.34 236.5,348.5 Z"/></g>
<g><path style="opacity:1" fill="#f7e6f7" d="M 168.5,350.5 C 174.484,351.074 180.484,351.407 186.5,351.5C 186.833,351.5 187.167,351.5 187.5,351.5C 187.833,351.5 188.167,351.5 188.5,351.5C 188.783,352.216 189.116,353.049 189.5,354C 187.649,354.837 185.816,355.671 184,356.5C 178.863,354.181 173.696,352.181 168.5,350.5 Z"/></g>
</svg>
