<?xml version="1.0" encoding="UTF-8"?>
<!DOCTYPE svg PUBLIC "-//W3C//DTD SVG 1.1//EN" "http://www.w3.org/Graphics/SVG/1.1/DTD/svg11.dtd">
<svg xmlns="http://www.w3.org/2000/svg" version="1.1" width="640px" height="640px" style="shape-rendering:geometricPrecision; text-rendering:geometricPrecision; image-rendering:optimizeQuality; fill-rule:evenodd; clip-rule:evenodd" xmlns:xlink="http://www.w3.org/1999/xlink">
<g><path style="opacity:1" fill="#000000" d="M -0.5,-0.5 C 212.833,-0.5 426.167,-0.5 639.5,-0.5C 639.5,212.833 639.5,426.167 639.5,639.5C 426.167,639.5 212.833,639.5 -0.5,639.5C -0.5,426.167 -0.5,212.833 -0.5,-0.5 Z"/></g>
<g><path style="opacity:1" fill="#fc7313" d="M 428.5,144.5 C 429.051,147.807 429.384,151.14 429.5,154.5C 428.883,154.611 428.383,154.944 428,155.5C 425.756,151.277 424.59,151.611 424.5,156.5C 422.833,156.5 421.167,156.5 419.5,156.5C 419.719,157.675 419.386,158.675 418.5,159.5C 418.044,154.65 416.044,153.65 412.5,156.5C 413.025,157.192 413.692,157.692 414.5,158C 408.104,158.628 401.77,159.628 395.5,161C 394.958,163.255 393.791,165.088 392,166.5C 389.281,165.556 386.448,165.223 383.5,165.5C 383.5,166.5 383.5,167.5 383.5,168.5C 381.738,168.643 380.071,168.309 378.5,167.5C 377.692,167.808 377.025,168.308 376.5,169C 377.711,169.893 377.711,170.726 376.5,171.5C 373.497,172.303 370.33,172.303 367,171.5C 366.517,172.448 366.351,173.448 366.5,174.5C 364.473,174.338 362.473,174.505 360.5,175C 361.706,176.018 361.373,176.518 359.5,176.5C 355.952,175.526 353.452,176.859 352,180.5C 350.751,178.008 349.584,178.175 348.5,181C 341.525,182.089 334.858,183.423 328.5,185C 329.672,185.419 330.672,186.085 331.5,187C 329.888,187.72 328.388,187.554 327,186.5C 324.558,192.153 321.225,192.82 317,188.5C 314.909,189.256 313.076,190.423 311.5,192C 309.833,192.333 308.167,192.667 306.5,193C 307.993,194.156 307.826,194.99 306,195.5C 304.902,194.616 304.402,193.616 304.5,192.5C 303.614,193.325 303.281,194.325 303.5,195.5C 301.076,195.192 298.743,195.526 296.5,196.5C 296.709,197.086 297.043,197.586 297.5,198C 294.654,198.354 291.82,199.52 289,201.5C 288.228,201.355 287.561,201.022 287,200.5C 283.97,203.466 280.47,204.3 276.5,203C 277.5,203.833 278.5,204.667 279.5,205.5C 273.171,206.666 266.838,207.833 260.5,209C 261.308,209.308 261.975,209.808 262.5,210.5C 259.527,211.158 256.694,212.158 254,213.5C 251.722,212.38 250.222,213.213 249.5,216C 248.256,216.456 247.423,215.956 247,214.5C 244.805,216.93 242.138,218.597 239,219.5C 238.581,218.328 237.915,217.328 237,216.5C 232.857,216.078 230.024,218.078 228.5,222.5C 227.571,221.311 227.238,219.978 227.5,218.5C 228.573,217.749 228.74,216.749 228,215.5C 226.348,214.783 224.848,214.45 223.5,214.5C 224.816,213.193 225.816,211.693 226.5,210C 227.938,209.781 229.271,209.281 230.5,208.5C 229.975,207.808 229.308,207.308 228.5,207C 229.252,206.329 229.586,205.496 229.5,204.5C 231.129,203.375 232.629,202.041 234,200.5C 234.249,201.624 234.749,202.624 235.5,203.5C 235.833,203.333 236.167,203.167 236.5,203C 235.316,201.855 235.316,200.688 236.5,199.5C 238.384,199.712 239.717,200.712 240.5,202.5C 238.5,203.833 236.5,205.167 234.5,206.5C 236.527,207.693 238.027,209.36 239,211.5C 239.219,210.062 239.719,208.729 240.5,207.5C 243.52,205.477 245.854,202.81 247.5,199.5C 249.111,200.32 249.778,201.654 249.5,203.5C 248.5,203.5 247.5,203.5 246.5,203.5C 246.332,206.684 247.666,207.184 250.5,205C 251.126,204.25 251.626,203.416 252,202.5C 254.672,206.701 255.839,206.367 255.5,201.5C 260.757,202.479 265.09,200.979 268.5,197C 271.089,195.803 273.756,194.803 276.5,194C 275.328,193.581 274.328,192.915 273.5,192C 276.833,191.667 280.167,191.333 283.5,191C 288.261,188.413 293.261,186.413 298.5,185C 306.747,183.938 314.747,181.938 322.5,179C 323.833,178.333 324.833,177.333 325.5,176C 321.5,175.667 317.5,175.333 313.5,175C 315.218,174.654 316.885,174.154 318.5,173.5C 323.446,174.614 328.446,174.781 333.5,174C 335.64,173.027 337.307,171.527 338.5,169.5C 339.216,170.311 340.05,170.978 341,171.5C 349.604,170.112 357.77,167.445 365.5,163.5C 366.192,162.975 366.692,162.308 367,161.5C 367.388,162.428 368.055,163.095 369,163.5C 370.81,161.353 372.643,159.187 374.5,157C 376.134,156.506 377.801,156.34 379.5,156.5C 379.5,157.5 379.5,158.5 379.5,159.5C 380.833,159.5 382.167,159.5 383.5,159.5C 383.5,157.833 383.5,156.167 383.5,154.5C 388.147,154.214 392.647,153.214 397,151.5C 399.078,152.943 399.911,152.276 399.5,149.5C 404.599,148.294 409.599,147.294 414.5,146.5C 415.624,148.369 416.457,150.369 417,152.5C 417.198,149.298 418.031,146.298 419.5,143.5C 419.974,145.862 420.308,148.195 420.5,150.5C 421.833,148.167 423.167,145.833 424.5,143.5C 425.1,145.576 425.433,147.576 425.5,149.5C 426.696,147.855 427.696,146.189 428.5,144.5 Z"/></g>
<g><path style="opacity:1" fill="#e26c22" d="M 429.5,154.5 C 429.384,151.14 429.051,147.807 428.5,144.5C 431.385,141.854 432.719,138.521 432.5,134.5C 433.222,134.082 433.722,133.416 434,132.5C 434.826,121.326 434.659,110.326 433.5,99.5C 433.461,98.2438 433.961,97.2438 435,96.5C 435.667,108.833 435.667,121.167 435,133.5C 433.828,140.82 431.995,147.82 429.5,154.5 Z"/></g>
<g><path style="opacity:1" fill="#fc7915" d="M 429.5,154.5 C 429.116,159.183 427.782,163.516 425.5,167.5C 423.738,167.357 422.071,167.691 420.5,168.5C 419.148,167.482 418.148,166.149 417.5,164.5C 417.167,165.167 416.833,165.833 416.5,166.5C 419.194,170.002 418.861,173.002 415.5,175.5C 415.813,172.753 415.48,170.086 414.5,167.5C 408.509,170.553 402.175,172.72 395.5,174C 393.651,175.093 391.984,176.426 390.5,178C 386.892,178.026 383.558,178.859 380.5,180.5C 379.833,180.167 379.167,179.833 378.5,179.5C 375.173,181.166 371.839,182.833 368.5,184.5C 367.808,183.975 367.308,183.308 367,182.5C 360.608,189.212 352.941,191.879 344,190.5C 342.025,191.478 340.358,192.811 339,194.5C 332.095,196.203 325.595,198.87 319.5,202.5C 313.721,203.144 308.054,204.311 302.5,206C 299.462,206.724 296.962,208.224 295,210.5C 292.554,209.464 290.72,210.298 289.5,213C 283.924,215.206 278.258,216.206 272.5,216C 267.441,220.06 261.775,221.56 255.5,220.5C 255.5,221.833 255.5,223.167 255.5,224.5C 253.076,224.192 250.743,224.526 248.5,225.5C 248.709,226.086 249.043,226.586 249.5,227C 246.308,227.197 243.308,228.03 240.5,229.5C 239.808,228.975 239.308,228.308 239,227.5C 238.626,228.416 238.126,229.25 237.5,230C 233.45,230.794 229.45,231.794 225.5,233C 223.901,234.786 223.067,236.953 223,239.5C 223.366,234.018 221.866,229.185 218.5,225C 219.144,222.202 220.644,220.035 223,218.5C 223.807,222.449 224.307,222.449 224.5,218.5C 225.5,218.5 226.5,218.5 227.5,218.5C 227.238,219.978 227.571,221.311 228.5,222.5C 230.024,218.078 232.857,216.078 237,216.5C 237.915,217.328 238.581,218.328 239,219.5C 242.138,218.597 244.805,216.93 247,214.5C 247.423,215.956 248.256,216.456 249.5,216C 250.222,213.213 251.722,212.38 254,213.5C 256.694,212.158 259.527,211.158 262.5,210.5C 261.975,209.808 261.308,209.308 260.5,209C 266.838,207.833 273.171,206.666 279.5,205.5C 278.5,204.667 277.5,203.833 276.5,203C 280.47,204.3 283.97,203.466 287,200.5C 287.561,201.022 288.228,201.355 289,201.5C 291.82,199.52 294.654,198.354 297.5,198C 297.043,197.586 296.709,197.086 296.5,196.5C 298.743,195.526 301.076,195.192 303.5,195.5C 303.281,194.325 303.614,193.325 304.5,192.5C 304.402,193.616 304.902,194.616 306,195.5C 307.826,194.99 307.993,194.156 306.5,193C 308.167,192.667 309.833,192.333 311.5,192C 313.076,190.423 314.909,189.256 317,188.5C 321.225,192.82 324.558,192.153 327,186.5C 328.388,187.554 329.888,187.72 331.5,187C 330.672,186.085 329.672,185.419 328.5,185C 334.858,183.423 341.525,182.089 348.5,181C 349.584,178.175 350.751,178.008 352,180.5C 353.452,176.859 355.952,175.526 359.5,176.5C 361.373,176.518 361.706,176.018 360.5,175C 362.473,174.505 364.473,174.338 366.5,174.5C 366.351,173.448 366.517,172.448 367,171.5C 370.33,172.303 373.497,172.303 376.5,171.5C 377.711,170.726 377.711,169.893 376.5,169C 377.025,168.308 377.692,167.808 378.5,167.5C 380.071,168.309 381.738,168.643 383.5,168.5C 383.5,167.5 383.5,166.5 383.5,165.5C 386.448,165.223 389.281,165.556 392,166.5C 393.791,165.088 394.958,163.255 395.5,161C 401.77,159.628 408.104,158.628 414.5,158C 413.692,157.692 413.025,157.192 412.5,156.5C 416.044,153.65 418.044,154.65 418.5,159.5C 419.386,158.675 419.719,157.675 419.5,156.5C 421.167,156.5 422.833,156.5 424.5,156.5C 424.59,151.611 425.756,151.277 428,155.5C 428.383,154.944 428.883,154.611 429.5,154.5 Z"/></g>
<g><path style="opacity:1" fill="#ea6419" d="M 331.5,154.5 C 330.909,155.151 330.243,155.818 329.5,156.5C 331.353,157.76 333.186,157.76 335,156.5C 335.456,157.744 334.956,158.577 333.5,159C 328.806,159.564 324.14,159.397 319.5,158.5C 319.5,160.167 319.5,161.833 319.5,163.5C 316.174,163.646 313.007,162.979 310,161.5C 307.201,161.632 305.201,162.965 304,165.5C 303.481,164.484 302.647,163.818 301.5,163.5C 296.948,164.986 292.281,165.652 287.5,165.5C 302.02,161.592 316.686,157.925 331.5,154.5 Z"/></g>
<g><path style="opacity:1" fill="#fc7f18" d="M 415.5,175.5 C 415.631,176.376 415.298,177.043 414.5,177.5C 410.589,174.733 409.922,175.233 412.5,179C 410.536,180.794 409.036,180.294 408,177.5C 405.603,182.607 402.437,187.274 398.5,191.5C 397.571,192.689 397.238,194.022 397.5,195.5C 394.552,195.777 391.719,195.444 389,194.5C 388.25,195.126 387.416,195.626 386.5,196C 388.645,196.743 388.811,197.576 387,198.5C 384.824,197.484 383.657,195.818 383.5,193.5C 373.838,196.268 364.172,199.101 354.5,202C 349.697,206.876 344.03,208.876 337.5,208C 333.373,209.599 329.706,211.933 326.5,215C 320.049,216.158 313.716,217.825 307.5,220C 306.386,221.57 305.053,222.903 303.5,224C 297.845,223.802 292.179,223.802 286.5,224C 297.885,224.392 298.219,225.892 287.5,228.5C 285.481,227.52 283.647,226.186 282,224.5C 277.495,226.565 277.828,228.231 283,229.5C 283.617,230.449 283.451,231.282 282.5,232C 280.384,231.718 278.217,231.218 276,230.5C 271.025,232.212 266.192,234.212 261.5,236.5C 260.914,236.291 260.414,235.957 260,235.5C 257.38,237.467 254.546,239.134 251.5,240.5C 252.641,241.425 252.641,242.259 251.5,243C 249.337,244.48 247.337,244.48 245.5,243C 247.872,241.529 247.872,240.363 245.5,239.5C 241.942,240.107 239.275,241.94 237.5,245C 233.182,245.656 229.016,246.823 225,248.5C 223.11,248.785 221.777,249.785 221,251.5C 220,250.5 219,249.5 218,248.5C 217.77,252.483 216.437,253.149 214,250.5C 214.212,256.39 212.879,256.724 210,251.5C 209.023,252.774 208.189,252.774 207.5,251.5C 207.5,250.167 207.5,248.833 207.5,247.5C 211.437,231.306 218.77,216.973 229.5,204.5C 229.586,205.496 229.252,206.329 228.5,207C 229.308,207.308 229.975,207.808 230.5,208.5C 229.271,209.281 227.938,209.781 226.5,210C 225.816,211.693 224.816,213.193 223.5,214.5C 224.848,214.45 226.348,214.783 228,215.5C 228.74,216.749 228.573,217.749 227.5,218.5C 226.5,218.5 225.5,218.5 224.5,218.5C 224.307,222.449 223.807,222.449 223,218.5C 220.644,220.035 219.144,222.202 218.5,225C 221.866,229.185 223.366,234.018 223,239.5C 223.067,236.953 223.901,234.786 225.5,233C 229.45,231.794 233.45,230.794 237.5,230C 238.126,229.25 238.626,228.416 239,227.5C 239.308,228.308 239.808,228.975 240.5,229.5C 243.308,228.03 246.308,227.197 249.5,227C 249.043,226.586 248.709,226.086 248.5,225.5C 250.743,224.526 253.076,224.192 255.5,224.5C 255.5,223.167 255.5,221.833 255.5,220.5C 261.775,221.56 267.441,220.06 272.5,216C 278.258,216.206 283.924,215.206 289.5,213C 290.72,210.298 292.554,209.464 295,210.5C 296.962,208.224 299.462,206.724 302.5,206C 308.054,204.311 313.721,203.144 319.5,202.5C 325.595,198.87 332.095,196.203 339,194.5C 340.358,192.811 342.025,191.478 344,190.5C 352.941,191.879 360.608,189.212 367,182.5C 367.308,183.308 367.808,183.975 368.5,184.5C 371.839,182.833 375.173,181.166 378.5,179.5C 379.167,179.833 379.833,180.167 380.5,180.5C 383.558,178.859 386.892,178.026 390.5,178C 391.984,176.426 393.651,175.093 395.5,174C 402.175,172.72 408.509,170.553 414.5,167.5C 415.48,170.086 415.813,172.753 415.5,175.5 Z"/></g>
<g><path style="opacity:1" fill="#bc5824" d="M 287.5,165.5 C 282.366,167.543 277.033,169.21 271.5,170.5C 276.376,167.654 281.709,165.987 287.5,165.5 Z"/></g>
<g><path style="opacity:1" fill="#fc6e13" d="M 432.5,134.5 C 432.719,138.521 431.385,141.854 428.5,144.5C 427.696,146.189 426.696,147.855 425.5,149.5C 425.433,147.576 425.1,145.576 424.5,143.5C 423.167,145.833 421.833,148.167 420.5,150.5C 420.308,148.195 419.974,145.862 419.5,143.5C 418.031,146.298 417.198,149.298 417,152.5C 416.457,150.369 415.624,148.369 414.5,146.5C 409.599,147.294 404.599,148.294 399.5,149.5C 399.911,152.276 399.078,152.943 397,151.5C 392.647,153.214 388.147,154.214 383.5,154.5C 383.5,156.167 383.5,157.833 383.5,159.5C 382.167,159.5 380.833,159.5 379.5,159.5C 379.5,158.5 379.5,157.5 379.5,156.5C 377.801,156.34 376.134,156.506 374.5,157C 372.643,159.187 370.81,161.353 369,163.5C 368.055,163.095 367.388,162.428 367,161.5C 366.692,162.308 366.192,162.975 365.5,163.5C 357.77,167.445 349.604,170.112 341,171.5C 340.05,170.978 339.216,170.311 338.5,169.5C 337.307,171.527 335.64,173.027 333.5,174C 328.446,174.781 323.446,174.614 318.5,173.5C 316.885,174.154 315.218,174.654 313.5,175C 317.5,175.333 321.5,175.667 325.5,176C 324.833,177.333 323.833,178.333 322.5,179C 314.747,181.938 306.747,183.938 298.5,185C 293.261,186.413 288.261,188.413 283.5,191C 280.167,191.333 276.833,191.667 273.5,192C 274.328,192.915 275.328,193.581 276.5,194C 273.756,194.803 271.089,195.803 268.5,197C 265.09,200.979 260.757,202.479 255.5,201.5C 255.839,206.367 254.672,206.701 252,202.5C 251.626,203.416 251.126,204.25 250.5,205C 247.666,207.184 246.332,206.684 246.5,203.5C 247.5,203.5 248.5,203.5 249.5,203.5C 249.778,201.654 249.111,200.32 247.5,199.5C 245.854,202.81 243.52,205.477 240.5,207.5C 239.719,208.729 239.219,210.062 239,211.5C 238.027,209.36 236.527,207.693 234.5,206.5C 236.5,205.167 238.5,203.833 240.5,202.5C 239.717,200.712 238.384,199.712 236.5,199.5C 236.657,197.182 237.824,195.516 240,194.5C 241.892,197.39 242.725,197.056 242.5,193.5C 245.109,193.17 246.776,191.67 247.5,189C 250,187.167 252.5,185.333 255,183.5C 254.671,185.805 253.505,187.805 251.5,189.5C 251.709,190.086 252.043,190.586 252.5,191C 251.376,191.249 250.376,191.749 249.5,192.5C 250,192.833 250.5,193.167 251,193.5C 253.811,192.093 256.478,190.426 259,188.5C 260.811,189.424 260.645,190.257 258.5,191C 261.833,191.667 265.167,191.667 268.5,191C 267.376,190.751 266.376,190.251 265.5,189.5C 266.624,188.086 267.624,186.586 268.5,185C 275.209,183.143 281.543,180.476 287.5,177C 292.079,176.882 295.745,176.048 298.5,174.5C 301.958,173.774 303.625,175.107 303.5,178.5C 306.516,178.159 309.182,176.993 311.5,175C 308.854,174.503 306.187,174.336 303.5,174.5C 303.5,173.167 303.5,171.833 303.5,170.5C 308.017,171.341 311.683,170.008 314.5,166.5C 315.167,166.833 315.833,167.167 316.5,167.5C 320.845,166.063 325.179,164.563 329.5,163C 327.405,162.444 327.238,161.944 329,161.5C 330.956,161.661 332.956,161.994 335,162.5C 335.483,161.552 335.649,160.552 335.5,159.5C 339.247,159.801 342.747,159.134 346,157.5C 347.667,158.167 349.333,158.833 351,159.5C 354.491,158.589 357.991,158.422 361.5,159C 359.316,158.133 357.149,157.299 355,156.5C 353.674,156.755 352.674,157.422 352,158.5C 349.028,157.004 349.362,155.671 353,154.5C 353.483,153.552 353.649,152.552 353.5,151.5C 358.632,152.754 363.132,151.421 367,147.5C 367.667,150.167 368.333,150.167 369,147.5C 369.333,147.833 369.667,148.167 370,148.5C 370.239,146.239 370.406,144.239 370.5,142.5C 373.205,143.568 374.705,145.568 375,148.5C 375.359,145.456 376.026,145.122 377,147.5C 378.011,146.663 379.178,146.33 380.5,146.5C 380.03,149.346 380.863,151.679 383,153.5C 383.483,152.552 383.649,151.552 383.5,150.5C 385.857,150.663 388.19,150.497 390.5,150C 389.692,149.692 389.025,149.192 388.5,148.5C 392.123,147.82 395.623,146.82 399,145.5C 400.087,147.932 400.587,147.598 400.5,144.5C 406.362,145.805 408.862,143.472 408,137.5C 409.356,136.62 410.856,136.286 412.5,136.5C 412.354,134.058 413.187,133.391 415,134.5C 419.274,132.378 423.608,130.378 428,128.5C 428.792,131.106 430.292,133.106 432.5,134.5 Z"/></g>
<g><path style="opacity:1" fill="#f96813" d="M 433.5,99.5 C 434.659,110.326 434.826,121.326 434,132.5C 433.722,133.416 433.222,134.082 432.5,134.5C 430.292,133.106 428.792,131.106 428,128.5C 423.608,130.378 419.274,132.378 415,134.5C 413.187,133.391 412.354,134.058 412.5,136.5C 410.856,136.286 409.356,136.62 408,137.5C 408.862,143.472 406.362,145.805 400.5,144.5C 400.587,147.598 400.087,147.932 399,145.5C 395.623,146.82 392.123,147.82 388.5,148.5C 389.025,149.192 389.692,149.692 390.5,150C 388.19,150.497 385.857,150.663 383.5,150.5C 383.649,151.552 383.483,152.552 383,153.5C 380.863,151.679 380.03,149.346 380.5,146.5C 379.178,146.33 378.011,146.663 377,147.5C 376.026,145.122 375.359,145.456 375,148.5C 374.705,145.568 373.205,143.568 370.5,142.5C 370.406,144.239 370.239,146.239 370,148.5C 369.667,148.167 369.333,147.833 369,147.5C 368.333,150.167 367.667,150.167 367,147.5C 363.132,151.421 358.632,152.754 353.5,151.5C 353.649,152.552 353.483,153.552 353,154.5C 349.362,155.671 349.028,157.004 352,158.5C 352.674,157.422 353.674,156.755 355,156.5C 357.149,157.299 359.316,158.133 361.5,159C 357.991,158.422 354.491,158.589 351,159.5C 349.333,158.833 347.667,158.167 346,157.5C 342.747,159.134 339.247,159.801 335.5,159.5C 335.649,160.552 335.483,161.552 335,162.5C 332.956,161.994 330.956,161.661 329,161.5C 327.238,161.944 327.405,162.444 329.5,163C 325.179,164.563 320.845,166.063 316.5,167.5C 315.833,167.167 315.167,166.833 314.5,166.5C 311.683,170.008 308.017,171.341 303.5,170.5C 303.5,171.833 303.5,173.167 303.5,174.5C 306.187,174.336 308.854,174.503 311.5,175C 309.182,176.993 306.516,178.159 303.5,178.5C 303.625,175.107 301.958,173.774 298.5,174.5C 295.745,176.048 292.079,176.882 287.5,177C 281.543,180.476 275.209,183.143 268.5,185C 267.624,186.586 266.624,188.086 265.5,189.5C 266.376,190.251 267.376,190.751 268.5,191C 265.167,191.667 261.833,191.667 258.5,191C 260.645,190.257 260.811,189.424 259,188.5C 256.478,190.426 253.811,192.093 251,193.5C 250.5,193.167 250,192.833 249.5,192.5C 250.376,191.749 251.376,191.249 252.5,191C 252.043,190.586 251.709,190.086 251.5,189.5C 253.505,187.805 254.671,185.805 255,183.5C 252.5,185.333 250,187.167 247.5,189C 246.776,191.67 245.109,193.17 242.5,193.5C 242.725,197.056 241.892,197.39 240,194.5C 237.824,195.516 236.657,197.182 236.5,199.5C 235.316,200.688 235.316,201.855 236.5,203C 236.167,203.167 235.833,203.333 235.5,203.5C 234.749,202.624 234.249,201.624 234,200.5C 232.629,202.041 231.129,203.375 229.5,204.5C 240.197,189.142 254.197,177.808 271.5,170.5C 277.033,169.21 282.366,167.543 287.5,165.5C 292.281,165.652 296.948,164.986 301.5,163.5C 302.647,163.818 303.481,164.484 304,165.5C 305.201,162.965 307.201,161.632 310,161.5C 313.007,162.979 316.174,163.646 319.5,163.5C 319.5,161.833 319.5,160.167 319.5,158.5C 324.14,159.397 328.806,159.564 333.5,159C 334.956,158.577 335.456,157.744 335,156.5C 333.186,157.76 331.353,157.76 329.5,156.5C 330.243,155.818 330.909,155.151 331.5,154.5C 356.486,147.419 380.486,137.585 403.5,125C 415.185,118.481 425.185,109.981 433.5,99.5 Z"/></g>
<g><path style="opacity:1" fill="#fb871b" d="M 425.5,167.5 C 416.964,186.029 403.964,200.362 386.5,210.5C 384.856,210.714 383.356,210.38 382,209.5C 381.044,210.579 380.211,211.745 379.5,213C 375.479,213.789 372.313,214.956 370,216.5C 367.637,215.045 365.137,214.545 362.5,215C 361.833,216.667 361.167,218.333 360.5,220C 357.289,221.153 353.956,221.82 350.5,222C 349.944,222.383 349.611,222.883 349.5,223.5C 344.761,225.149 339.761,226.149 334.5,226.5C 331.171,226.215 328.171,226.882 325.5,228.5C 290.219,233.482 258.885,247.149 231.5,269.5C 229.856,269.714 228.356,269.38 227,268.5C 224.636,270.363 222.136,272.029 219.5,273.5C 218.476,272.147 217.143,271.48 215.5,271.5C 215.723,274.114 214.556,275.781 212,276.5C 211.506,278.134 211.34,279.801 211.5,281.5C 216.496,281.07 217.33,282.403 214,285.5C 212.833,284.333 211.667,283.167 210.5,282C 209.175,282.148 208.008,281.982 207,281.5C 206.934,275.163 206.934,268.83 207,262.5C 206.667,263.833 206.333,265.167 206,266.5C 205.617,265.944 205.117,265.611 204.5,265.5C 205.667,260.747 206.667,256.081 207.5,251.5C 208.189,252.774 209.023,252.774 210,251.5C 212.879,256.724 214.212,256.39 214,250.5C 216.437,253.149 217.77,252.483 218,248.5C 219,249.5 220,250.5 221,251.5C 221.777,249.785 223.11,248.785 225,248.5C 229.016,246.823 233.182,245.656 237.5,245C 239.275,241.94 241.942,240.107 245.5,239.5C 247.872,240.363 247.872,241.529 245.5,243C 247.337,244.48 249.337,244.48 251.5,243C 252.641,242.259 252.641,241.425 251.5,240.5C 254.546,239.134 257.38,237.467 260,235.5C 260.414,235.957 260.914,236.291 261.5,236.5C 266.192,234.212 271.025,232.212 276,230.5C 278.217,231.218 280.384,231.718 282.5,232C 283.451,231.282 283.617,230.449 283,229.5C 277.828,228.231 277.495,226.565 282,224.5C 283.647,226.186 285.481,227.52 287.5,228.5C 298.219,225.892 297.885,224.392 286.5,224C 292.179,223.802 297.845,223.802 303.5,224C 305.053,222.903 306.386,221.57 307.5,220C 313.716,217.825 320.049,216.158 326.5,215C 329.706,211.933 333.373,209.599 337.5,208C 344.03,208.876 349.697,206.876 354.5,202C 364.172,199.101 373.838,196.268 383.5,193.5C 383.657,195.818 384.824,197.484 387,198.5C 388.811,197.576 388.645,196.743 386.5,196C 387.416,195.626 388.25,195.126 389,194.5C 391.719,195.444 394.552,195.777 397.5,195.5C 397.238,194.022 397.571,192.689 398.5,191.5C 402.437,187.274 405.603,182.607 408,177.5C 409.036,180.294 410.536,180.794 412.5,179C 409.922,175.233 410.589,174.733 414.5,177.5C 415.298,177.043 415.631,176.376 415.5,175.5C 418.861,173.002 419.194,170.002 416.5,166.5C 416.833,165.833 417.167,165.167 417.5,164.5C 418.148,166.149 419.148,167.482 420.5,168.5C 422.071,167.691 423.738,167.357 425.5,167.5 Z"/></g>
<g><path style="opacity:1" fill="#d56425" d="M 433.5,202.5 C 435.468,210.433 436.135,218.766 435.5,227.5C 435.344,235.08 434.344,242.414 432.5,249.5C 432.5,248.167 432.5,246.833 432.5,245.5C 433.912,237.074 434.579,228.574 434.5,220C 434.494,214.784 433.827,209.951 432.5,205.5C 432.557,204.391 432.89,203.391 433.5,202.5 Z"/></g>
<g><path style="opacity:1" fill="#541e08" d="M 433.5,202.5 C 434.209,201.596 435.209,201.263 436.5,201.5C 436.826,210.349 436.493,219.016 435.5,227.5C 436.135,218.766 435.468,210.433 433.5,202.5 Z"/></g>
<g><path style="opacity:1" fill="#e18326" d="M 386.5,210.5 C 374.964,217.013 362.63,221.346 349.5,223.5C 349.611,222.883 349.944,222.383 350.5,222C 353.956,221.82 357.289,221.153 360.5,220C 361.167,218.333 361.833,216.667 362.5,215C 365.137,214.545 367.637,215.045 370,216.5C 372.313,214.956 375.479,213.789 379.5,213C 380.211,211.745 381.044,210.579 382,209.5C 383.356,210.38 384.856,210.714 386.5,210.5 Z"/></g>
<g><path style="opacity:1" fill="#703910" d="M 334.5,226.5 C 331.727,227.657 328.727,228.324 325.5,228.5C 328.171,226.882 331.171,226.215 334.5,226.5 Z"/></g>
<g><path style="opacity:1" fill="#fc7313" d="M 432.5,245.5 C 432.5,246.833 432.5,248.167 432.5,249.5C 431.952,251.626 431.285,253.626 430.5,255.5C 429.778,255.082 429.278,254.416 429,253.5C 429.011,258.1 428.011,262.433 426,266.5C 426.289,262.793 426.122,259.126 425.5,255.5C 424.833,257.167 424.167,258.833 423.5,260.5C 422.316,258.954 421.316,257.287 420.5,255.5C 419.306,257.516 419.306,259.516 420.5,261.5C 417.355,260.923 415.855,258.923 416,255.5C 415.879,257.727 415.046,259.56 413.5,261C 413.833,261.333 414.167,261.667 414.5,262C 409.761,262.854 405.094,264.02 400.5,265.5C 401.321,268.328 400.321,268.994 397.5,267.5C 395.541,267.875 393.707,268.541 392,269.5C 391.667,268.833 391.333,268.167 391,267.5C 390.375,270.706 388.709,271.706 386,270.5C 380.043,274.275 373.709,275.942 367,275.5C 366.085,277.98 364.585,278.647 362.5,277.5C 361.155,278.347 360.155,279.513 359.5,281C 353.843,282.494 348.51,284.66 343.5,287.5C 343.649,286.448 343.483,285.448 343,284.5C 342.606,288.279 340.773,289.279 337.5,287.5C 333.312,291.717 328.145,293.717 322,293.5C 319.84,295.759 317.84,295.759 316,293.5C 314.302,295.266 312.969,297.266 312,299.5C 311.667,298.833 311.333,298.167 311,297.5C 307.105,299.483 303.105,300.149 299,299.5C 297.26,300.716 296.26,302.382 296,304.5C 292.937,303.181 290.27,303.847 288,306.5C 287.586,306.043 287.086,305.709 286.5,305.5C 285.174,306.99 283.674,308.324 282,309.5C 277.649,309.504 273.316,309.504 269,309.5C 266.638,310.363 265.138,312.03 264.5,314.5C 263.808,313.975 263.308,313.308 263,312.5C 261.881,313.552 261.381,314.719 261.5,316C 259.965,316.496 258.465,316.33 257,315.5C 253.923,318.806 250.089,320.306 245.5,320C 242.675,321.804 239.675,323.304 236.5,324.5C 235.833,323.833 235.167,323.167 234.5,322.5C 234.678,323.956 233.844,325.289 232,326.5C 231.086,322.815 230.419,323.148 230,327.5C 229.333,326.833 228.667,326.167 228,325.5C 226.098,326.206 224.265,327.206 222.5,328.5C 222.279,327.265 221.612,326.265 220.5,325.5C 221.242,323.65 222.242,322.984 223.5,323.5C 222.754,322.264 222.421,320.93 222.5,319.5C 223.34,317.147 224.674,315.147 226.5,313.5C 228.758,313.775 229.092,314.775 227.5,316.5C 228.829,319.695 230.495,320.028 232.5,317.5C 234.123,318.491 235.123,317.824 235.5,315.5C 236.325,314.614 237.325,314.281 238.5,314.5C 238.5,313.5 238.5,312.5 238.5,311.5C 244.88,310.621 250.547,308.121 255.5,304C 257.809,303.244 259.809,303.744 261.5,305.5C 263.089,304.022 264.756,302.522 266.5,301C 268.807,300.221 270.807,300.721 272.5,302.5C 273.506,302.062 273.506,301.396 272.5,300.5C 274.833,299.833 277.167,299.167 279.5,298.5C 282.521,293.318 286.854,291.484 292.5,293C 294.521,292.599 295.855,291.432 296.5,289.5C 301.426,288.259 306.426,287.426 311.5,287C 313.939,285.268 316.273,283.435 318.5,281.5C 319.607,282.022 320.774,282.355 322,282.5C 325.857,281.27 329.691,279.936 333.5,278.5C 334.086,278.709 334.586,279.043 335,279.5C 337.673,277.618 340.34,275.951 343,274.5C 343.414,274.957 343.914,275.291 344.5,275.5C 349.119,273.905 353.786,272.405 358.5,271C 365.675,264.918 374.009,261.918 383.5,262C 384.667,261.5 385.5,260.667 386,259.5C 386.414,259.957 386.914,260.291 387.5,260.5C 389.22,259.066 391.22,258.233 393.5,258C 393.978,254.001 395.978,252.835 399.5,254.5C 400.244,253.009 400.91,251.509 401.5,250C 404.832,249.329 405.999,250.496 405,253.5C 409.435,251.69 413.769,249.69 418,247.5C 419.559,248.029 421.059,248.696 422.5,249.5C 423.938,246.177 425.771,245.844 428,248.5C 428.333,247.167 428.667,245.833 429,244.5C 429.628,247.954 430.795,248.287 432.5,245.5 Z"/></g>
<g><path style="opacity:1" fill="#d36121" d="M 373.5,244.5 C 372.308,246.878 370.641,248.878 368.5,250.5C 367.833,249.833 367.167,249.167 366.5,248.5C 362.058,250.459 357.391,251.792 352.5,252.5C 359.362,249.573 366.362,246.906 373.5,244.5 Z"/></g>
<g><path style="opacity:1" fill="#c87328" d="M 207.5,247.5 C 207.5,248.833 207.5,250.167 207.5,251.5C 206.667,256.081 205.667,260.747 204.5,265.5C 204.5,266.833 203.833,267.5 202.5,267.5C 203.566,260.568 205.233,253.902 207.5,247.5 Z"/></g>
<g><path style="opacity:1" fill="#fc7915" d="M 420.5,261.5 C 421.993,262.312 422.66,263.645 422.5,265.5C 422.378,267.791 421.545,269.791 420,271.5C 419.929,261.563 418.762,261.23 416.5,270.5C 413.997,273.759 410.664,275.259 406.5,275C 405.667,275.833 404.833,276.667 404,277.5C 402.097,277.306 400.263,277.306 398.5,277.5C 392.259,281.362 385.593,283.362 378.5,283.5C 375.813,286.689 372.313,288.356 368,288.5C 366.831,289.009 365.998,289.842 365.5,291C 353.377,292.843 342.043,296.843 331.5,303C 329.888,303.72 328.388,303.554 327,302.5C 321.774,305.114 316.44,307.447 311,309.5C 308.667,309.5 306.333,309.5 304,309.5C 302.513,310.253 302.346,311.086 303.5,312C 297.718,312.802 292.552,314.969 288,318.5C 287.086,317.346 286.253,317.513 285.5,319C 281.167,319.333 276.833,319.667 272.5,320C 268.5,322.667 264.5,325.333 260.5,328C 257.881,328.151 255.547,328.985 253.5,330.5C 252.522,330.023 251.689,329.357 251,328.5C 247.795,331.192 244.295,333.526 240.5,335.5C 239.833,334.5 239.167,333.5 238.5,332.5C 235.035,334.403 231.702,336.57 228.5,339C 226.153,339.334 223.819,339.167 221.5,338.5C 221.562,335.256 221.896,331.923 222.5,328.5C 224.265,327.206 226.098,326.206 228,325.5C 228.667,326.167 229.333,326.833 230,327.5C 230.419,323.148 231.086,322.815 232,326.5C 233.844,325.289 234.678,323.956 234.5,322.5C 235.167,323.167 235.833,323.833 236.5,324.5C 239.675,323.304 242.675,321.804 245.5,320C 250.089,320.306 253.923,318.806 257,315.5C 258.465,316.33 259.965,316.496 261.5,316C 261.381,314.719 261.881,313.552 263,312.5C 263.308,313.308 263.808,313.975 264.5,314.5C 265.138,312.03 266.638,310.363 269,309.5C 273.316,309.504 277.649,309.504 282,309.5C 283.674,308.324 285.174,306.99 286.5,305.5C 287.086,305.709 287.586,306.043 288,306.5C 290.27,303.847 292.937,303.181 296,304.5C 296.26,302.382 297.26,300.716 299,299.5C 303.105,300.149 307.105,299.483 311,297.5C 311.333,298.167 311.667,298.833 312,299.5C 312.969,297.266 314.302,295.266 316,293.5C 317.84,295.759 319.84,295.759 322,293.5C 328.145,293.717 333.312,291.717 337.5,287.5C 340.773,289.279 342.606,288.279 343,284.5C 343.483,285.448 343.649,286.448 343.5,287.5C 348.51,284.66 353.843,282.494 359.5,281C 360.155,279.513 361.155,278.347 362.5,277.5C 364.585,278.647 366.085,277.98 367,275.5C 373.709,275.942 380.043,274.275 386,270.5C 388.709,271.706 390.375,270.706 391,267.5C 391.333,268.167 391.667,268.833 392,269.5C 393.707,268.541 395.541,267.875 397.5,267.5C 400.321,268.994 401.321,268.328 400.5,265.5C 405.094,264.02 409.761,262.854 414.5,262C 414.167,261.667 413.833,261.333 413.5,261C 415.046,259.56 415.879,257.727 416,255.5C 415.855,258.923 417.355,260.923 420.5,261.5 Z"/></g>
<g><path style="opacity:1" fill="#aa501c" d="M 337.5,257.5 C 330.883,260.498 323.883,262.498 316.5,263.5C 323.256,261.007 330.256,259.007 337.5,257.5 Z"/></g>
<g><path style="opacity:1" fill="#fa6b12" d="M 432.5,205.5 C 433.827,209.951 434.494,214.784 434.5,220C 434.579,228.574 433.912,237.074 432.5,245.5C 430.795,248.287 429.628,247.954 429,244.5C 428.667,245.833 428.333,247.167 428,248.5C 425.771,245.844 423.938,246.177 422.5,249.5C 421.059,248.696 419.559,248.029 418,247.5C 413.769,249.69 409.435,251.69 405,253.5C 405.999,250.496 404.832,249.329 401.5,250C 400.91,251.509 400.244,253.009 399.5,254.5C 395.978,252.835 393.978,254.001 393.5,258C 391.22,258.233 389.22,259.066 387.5,260.5C 386.914,260.291 386.414,259.957 386,259.5C 385.5,260.667 384.667,261.5 383.5,262C 374.009,261.918 365.675,264.918 358.5,271C 353.786,272.405 349.119,273.905 344.5,275.5C 343.914,275.291 343.414,274.957 343,274.5C 340.34,275.951 337.673,277.618 335,279.5C 334.586,279.043 334.086,278.709 333.5,278.5C 329.691,279.936 325.857,281.27 322,282.5C 320.774,282.355 319.607,282.022 318.5,281.5C 316.273,283.435 313.939,285.268 311.5,287C 306.426,287.426 301.426,288.259 296.5,289.5C 295.855,291.432 294.521,292.599 292.5,293C 286.854,291.484 282.521,293.318 279.5,298.5C 277.167,299.167 274.833,299.833 272.5,300.5C 273.506,301.396 273.506,302.062 272.5,302.5C 270.807,300.721 268.807,300.221 266.5,301C 264.756,302.522 263.089,304.022 261.5,305.5C 259.809,303.744 257.809,303.244 255.5,304C 250.547,308.121 244.88,310.621 238.5,311.5C 238.5,312.5 238.5,313.5 238.5,314.5C 237.325,314.281 236.325,314.614 235.5,315.5C 235.123,317.824 234.123,318.491 232.5,317.5C 230.495,320.028 228.829,319.695 227.5,316.5C 229.092,314.775 228.758,313.775 226.5,313.5C 235.314,299.853 246.647,288.687 260.5,280C 275.212,272.04 290.879,267.207 307.5,265.5C 310.152,265.59 312.485,264.924 314.5,263.5C 315.167,263.5 315.833,263.5 316.5,263.5C 323.883,262.498 330.883,260.498 337.5,257.5C 342.348,255.587 347.348,253.92 352.5,252.5C 357.391,251.792 362.058,250.459 366.5,248.5C 367.167,249.167 367.833,249.833 368.5,250.5C 370.641,248.878 372.308,246.878 373.5,244.5C 388.043,238.228 402.043,230.895 415.5,222.5C 421.521,217.146 427.188,211.479 432.5,205.5 Z"/></g>
<g><path style="opacity:1" fill="#8d3914" d="M 314.5,263.5 C 312.485,264.924 310.152,265.59 307.5,265.5C 309.515,264.076 311.848,263.41 314.5,263.5 Z"/></g>
<g><path style="opacity:1" fill="#fc7f18" d="M 430.5,255.5 C 429.462,264.035 426.462,271.702 421.5,278.5C 421.217,277.711 420.717,277.044 420,276.5C 419,279.167 418,281.833 417,284.5C 416.667,283.833 416.333,283.167 416,282.5C 413.045,285.826 410.045,289.159 407,292.5C 405.685,290.684 404.185,289.017 402.5,287.5C 399.02,290.146 395.686,292.979 392.5,296C 387.79,296.375 383.123,297.042 378.5,298C 372.892,302.075 366.559,304.242 359.5,304.5C 357.65,306.572 355.317,307.905 352.5,308.5C 351.614,309.325 351.281,310.325 351.5,311.5C 345.831,310.172 340.831,311.505 336.5,315.5C 335.707,315.069 334.873,314.735 334,314.5C 329.264,316.148 324.43,317.481 319.5,318.5C 320.729,319.281 322.062,319.781 323.5,320C 320.447,320.179 317.447,320.679 314.5,321.5C 316.113,323.088 318.113,324.088 320.5,324.5C 321.833,325.167 321.833,325.833 320.5,326.5C 316.578,325.765 312.744,324.765 309,323.5C 302.345,325.294 295.845,327.461 289.5,330C 290.167,330.333 290.833,330.667 291.5,331C 289.586,332.12 287.752,332.286 286,331.5C 283.865,332.127 281.698,332.627 279.5,333C 278.123,335.308 276.123,336.808 273.5,337.5C 271.809,335.744 269.809,335.244 267.5,336C 268.759,336.923 270.092,337.757 271.5,338.5C 269.029,340.071 266.363,341.071 263.5,341.5C 263.5,340.167 263.5,338.833 263.5,337.5C 261.492,339.314 258.826,340.648 255.5,341.5C 255.5,342.5 255.5,343.5 255.5,344.5C 256.822,344.67 257.989,344.337 259,343.5C 259.833,344.333 260.667,345.167 261.5,346C 256.473,345.88 251.64,345.713 247,345.5C 244.443,347.314 241.776,347.648 239,346.5C 234.501,350.112 229.334,351.945 223.5,352C 217.974,356.66 212.641,357.16 207.5,353.5C 207.5,353.167 207.5,352.833 207.5,352.5C 207.5,352.167 207.5,351.833 207.5,351.5C 208.75,351.423 209.583,350.756 210,349.5C 210.696,346.522 211.196,343.522 211.5,340.5C 213.896,332.703 217.563,325.703 222.5,319.5C 222.421,320.93 222.754,322.264 223.5,323.5C 222.242,322.984 221.242,323.65 220.5,325.5C 221.612,326.265 222.279,327.265 222.5,328.5C 221.896,331.923 221.562,335.256 221.5,338.5C 223.819,339.167 226.153,339.334 228.5,339C 231.702,336.57 235.035,334.403 238.5,332.5C 239.167,333.5 239.833,334.5 240.5,335.5C 244.295,333.526 247.795,331.192 251,328.5C 251.689,329.357 252.522,330.023 253.5,330.5C 255.547,328.985 257.881,328.151 260.5,328C 264.5,325.333 268.5,322.667 272.5,320C 276.833,319.667 281.167,319.333 285.5,319C 286.253,317.513 287.086,317.346 288,318.5C 292.552,314.969 297.718,312.802 303.5,312C 302.346,311.086 302.513,310.253 304,309.5C 306.333,309.5 308.667,309.5 311,309.5C 316.44,307.447 321.774,305.114 327,302.5C 328.388,303.554 329.888,303.72 331.5,303C 342.043,296.843 353.377,292.843 365.5,291C 365.998,289.842 366.831,289.009 368,288.5C 372.313,288.356 375.813,286.689 378.5,283.5C 385.593,283.362 392.259,281.362 398.5,277.5C 400.263,277.306 402.097,277.306 404,277.5C 404.833,276.667 405.667,275.833 406.5,275C 410.664,275.259 413.997,273.759 416.5,270.5C 418.762,261.23 419.929,261.563 420,271.5C 421.545,269.791 422.378,267.791 422.5,265.5C 422.66,263.645 421.993,262.312 420.5,261.5C 419.306,259.516 419.306,257.516 420.5,255.5C 421.316,257.287 422.316,258.954 423.5,260.5C 424.167,258.833 424.833,257.167 425.5,255.5C 426.122,259.126 426.289,262.793 426,266.5C 428.011,262.433 429.011,258.1 429,253.5C 429.278,254.416 429.778,255.082 430.5,255.5 Z"/></g>
<g><path style="opacity:1" fill="#f8931f" d="M 231.5,269.5 C 219,280.856 210.333,294.522 205.5,310.5C 203.836,311.949 203.002,313.949 203,316.5C 202.667,315.167 202.333,313.833 202,312.5C 201.5,300.505 201.333,288.505 201.5,276.5C 201.704,273.482 202.037,270.482 202.5,267.5C 203.833,267.5 204.5,266.833 204.5,265.5C 205.117,265.611 205.617,265.944 206,266.5C 206.333,265.167 206.667,263.833 207,262.5C 206.934,268.83 206.934,275.163 207,281.5C 208.008,281.982 209.175,282.148 210.5,282C 211.667,283.167 212.833,284.333 214,285.5C 217.33,282.403 216.496,281.07 211.5,281.5C 211.34,279.801 211.506,278.134 212,276.5C 214.556,275.781 215.723,274.114 215.5,271.5C 217.143,271.48 218.476,272.147 219.5,273.5C 222.136,272.029 224.636,270.363 227,268.5C 228.356,269.38 229.856,269.714 231.5,269.5 Z"/></g>
<g><path style="opacity:1" fill="#d08d31" d="M 201.5,276.5 C 201.333,288.505 201.5,300.505 202,312.5C 202.333,313.833 202.667,315.167 203,316.5C 203.002,313.949 203.836,311.949 205.5,310.5C 204.755,316.322 203.588,321.988 202,327.5C 201.667,325.5 201.333,323.5 201,321.5C 200.172,306.328 200.339,291.328 201.5,276.5 Z"/></g>
<g><path style="opacity:1" fill="#cc7f2f" d="M 343.5,329.5 C 339.764,330.989 335.764,331.656 331.5,331.5C 331.611,330.883 331.944,330.383 332.5,330C 336.152,329.501 339.818,329.335 343.5,329.5 Z"/></g>
<g><path style="opacity:1" fill="#5a2912" d="M 321.5,333.5 C 319.485,334.924 317.152,335.59 314.5,335.5C 316.515,334.076 318.848,333.41 321.5,333.5 Z"/></g>
<g><path style="opacity:1" fill="#fa871b" d="M 421.5,278.5 C 414.602,292.908 404.269,304.408 390.5,313C 376.109,321.965 360.442,327.465 343.5,329.5C 339.818,329.335 336.152,329.501 332.5,330C 331.944,330.383 331.611,330.883 331.5,331.5C 328.239,332.378 324.906,333.044 321.5,333.5C 318.848,333.41 316.515,334.076 314.5,335.5C 298.619,338.905 283.286,343.905 268.5,350.5C 267.833,350.5 267.5,350.833 267.5,351.5C 265.146,351.838 262.813,352.338 260.5,353C 247.141,361.195 234.808,370.695 223.5,381.5C 224.366,379.856 224.866,378.189 225,376.5C 223.649,378.019 222.149,379.352 220.5,380.5C 217.784,378.699 214.784,378.533 211.5,380C 209.986,381.439 209.653,382.939 210.5,384.5C 209.758,385.287 208.925,385.953 208,386.5C 207.667,381.833 207.333,377.167 207,372.5C 206.197,375.244 205.197,377.911 204,380.5C 204.457,373.537 204.957,366.537 205.5,359.5C 206.738,357.786 207.405,355.786 207.5,353.5C 212.641,357.16 217.974,356.66 223.5,352C 229.334,351.945 234.501,350.112 239,346.5C 241.776,347.648 244.443,347.314 247,345.5C 251.64,345.713 256.473,345.88 261.5,346C 260.667,345.167 259.833,344.333 259,343.5C 257.989,344.337 256.822,344.67 255.5,344.5C 255.5,343.5 255.5,342.5 255.5,341.5C 258.826,340.648 261.492,339.314 263.5,337.5C 263.5,338.833 263.5,340.167 263.5,341.5C 266.363,341.071 269.029,340.071 271.5,338.5C 270.092,337.757 268.759,336.923 267.5,336C 269.809,335.244 271.809,335.744 273.5,337.5C 276.123,336.808 278.123,335.308 279.5,333C 281.698,332.627 283.865,332.127 286,331.5C 287.752,332.286 289.586,332.12 291.5,331C 290.833,330.667 290.167,330.333 289.5,330C 295.845,327.461 302.345,325.294 309,323.5C 312.744,324.765 316.578,325.765 320.5,326.5C 321.833,325.833 321.833,325.167 320.5,324.5C 318.113,324.088 316.113,323.088 314.5,321.5C 317.447,320.679 320.447,320.179 323.5,320C 322.062,319.781 320.729,319.281 319.5,318.5C 324.43,317.481 329.264,316.148 334,314.5C 334.873,314.735 335.707,315.069 336.5,315.5C 340.831,311.505 345.831,310.172 351.5,311.5C 351.281,310.325 351.614,309.325 352.5,308.5C 355.317,307.905 357.65,306.572 359.5,304.5C 366.559,304.242 372.892,302.075 378.5,298C 383.123,297.042 387.79,296.375 392.5,296C 395.686,292.979 399.02,290.146 402.5,287.5C 404.185,289.017 405.685,290.684 407,292.5C 410.045,289.159 413.045,285.826 416,282.5C 416.333,283.167 416.667,283.833 417,284.5C 418,281.833 419,279.167 420,276.5C 420.717,277.044 421.217,277.711 421.5,278.5 Z"/></g>
<g><path style="opacity:1" fill="#be672a" d="M 211.5,340.5 C 211.196,343.522 210.696,346.522 210,349.5C 209.583,350.756 208.75,351.423 207.5,351.5C 208.459,347.617 209.792,343.95 211.5,340.5 Z"/></g>
<g><path style="opacity:1" fill="#a05c27" d="M 207.5,352.5 C 207.5,352.833 207.5,353.167 207.5,353.5C 207.405,355.786 206.738,357.786 205.5,359.5C 205.41,356.848 206.076,354.515 207.5,352.5 Z"/></g>
<g><path style="opacity:1" fill="#fc6410" d="M 267.5,351.5 C 267.5,356.833 267.5,362.167 267.5,367.5C 267.5,367.833 267.5,368.167 267.5,368.5C 266.883,368.389 266.383,368.056 266,367.5C 265.759,364.711 265.092,362.044 264,359.5C 263.667,364.833 263.333,370.167 263,375.5C 262,374.5 261,373.5 260,372.5C 259.213,376.179 258.379,379.846 257.5,383.5C 256.179,371.573 255.512,371.573 255.5,383.5C 253.801,383.34 252.134,383.506 250.5,384C 247.76,388.746 244.26,392.912 240,396.5C 239.517,397.448 239.351,398.448 239.5,399.5C 238.448,399.351 237.448,399.517 236.5,400C 233.787,403.34 231.12,406.674 228.5,410C 226.975,411.009 225.308,411.509 223.5,411.5C 223.657,410.127 223.49,408.793 223,407.5C 220.25,416.059 215.417,423.059 208.5,428.5C 207.713,427.758 207.047,426.925 206.5,426C 207.099,419.056 208.099,412.223 209.5,405.5C 213.157,396.844 217.824,388.844 223.5,381.5C 234.808,370.695 247.141,361.195 260.5,353C 262.813,352.338 265.146,351.838 267.5,351.5 Z"/></g>
<g><path style="opacity:1" fill="#af5c2b" d="M 268.5,350.5 C 269.585,368.663 269.585,386.663 268.5,404.5C 268.829,391.989 268.495,379.655 267.5,367.5C 267.5,362.167 267.5,356.833 267.5,351.5C 267.5,350.833 267.833,350.5 268.5,350.5 Z"/></g>
<g><path style="opacity:1" fill="#ef9023" d="M 205.5,359.5 C 204.957,366.537 204.457,373.537 204,380.5C 205.197,377.911 206.197,375.244 207,372.5C 207.333,377.167 207.667,381.833 208,386.5C 208.925,385.953 209.758,385.287 210.5,384.5C 209.653,382.939 209.986,381.439 211.5,380C 214.784,378.533 217.784,378.699 220.5,380.5C 222.149,379.352 223.649,378.019 225,376.5C 224.866,378.189 224.366,379.856 223.5,381.5C 217.824,388.844 213.157,396.844 209.5,405.5C 204.549,415.107 202.549,425.44 203.5,436.5C 203.5,445.5 203.5,454.5 203.5,463.5C 203.5,474.167 203.5,484.833 203.5,495.5C 203.5,509.5 203.5,523.5 203.5,537.5C 203.5,538.5 203.5,539.5 203.5,540.5C 202.502,504.337 202.168,468.004 202.5,431.5C 202.332,425.966 201.665,420.633 200.5,415.5C 200.322,402.141 200.822,388.808 202,375.5C 202.847,369.963 204.013,364.63 205.5,359.5 Z"/></g>
<g><path style="opacity:1" fill="#fc6d12" d="M 267.5,368.5 C 267.5,373.5 267.5,378.5 267.5,383.5C 265.208,383.756 263.041,383.423 261,382.5C 260.64,384.608 259.973,386.608 259,388.5C 258.667,387.833 258.333,387.167 258,386.5C 253.905,389.922 250.572,393.922 248,398.5C 238.487,404.672 231.154,412.672 226,422.5C 225.333,423.167 224.667,423.833 224,424.5C 223.107,423.289 222.274,423.289 221.5,424.5C 219.226,426.713 217.726,429.379 217,432.5C 213.618,435.047 210.784,438.047 208.5,441.5C 207.692,439.577 207.192,437.577 207,435.5C 206.333,436.833 205.667,438.167 205,439.5C 204.768,438.263 204.268,437.263 203.5,436.5C 202.549,425.44 204.549,415.107 209.5,405.5C 208.099,412.223 207.099,419.056 206.5,426C 207.047,426.925 207.713,427.758 208.5,428.5C 215.417,423.059 220.25,416.059 223,407.5C 223.49,408.793 223.657,410.127 223.5,411.5C 225.308,411.509 226.975,411.009 228.5,410C 231.12,406.674 233.787,403.34 236.5,400C 237.448,399.517 238.448,399.351 239.5,399.5C 239.351,398.448 239.517,397.448 240,396.5C 244.26,392.912 247.76,388.746 250.5,384C 252.134,383.506 253.801,383.34 255.5,383.5C 255.512,371.573 256.179,371.573 257.5,383.5C 258.379,379.846 259.213,376.179 260,372.5C 261,373.5 262,374.5 263,375.5C 263.333,370.167 263.667,364.833 264,359.5C 265.092,362.044 265.759,364.711 266,367.5C 266.383,368.056 266.883,368.389 267.5,368.5 Z"/></g>
<g><path style="opacity:1" fill="#fd7715" d="M 267.5,383.5 C 267.92,390.284 267.42,396.95 266,403.5C 265.667,402.167 265.333,400.833 265,399.5C 264.121,405.852 262.621,405.852 260.5,399.5C 258.785,404.738 257.285,410.071 256,415.5C 255.667,413.833 255.333,412.167 255,410.5C 250.384,415.405 245.551,420.072 240.5,424.5C 239.015,426.852 237.682,429.186 236.5,431.5C 235.167,431.5 233.833,431.5 232.5,431.5C 232.649,432.552 232.483,433.552 232,434.5C 228.958,437.933 225.458,440.766 221.5,443C 221.957,443.414 222.291,443.914 222.5,444.5C 219.478,446.688 216.978,449.355 215,452.5C 213.416,453.861 211.582,454.528 209.5,454.5C 209.628,456.655 209.128,458.655 208,460.5C 207.667,456.167 207.333,451.833 207,447.5C 206.9,453.747 206.067,459.747 204.5,465.5C 204.672,464.508 204.338,463.842 203.5,463.5C 203.5,454.5 203.5,445.5 203.5,436.5C 204.268,437.263 204.768,438.263 205,439.5C 205.667,438.167 206.333,436.833 207,435.5C 207.192,437.577 207.692,439.577 208.5,441.5C 210.784,438.047 213.618,435.047 217,432.5C 217.726,429.379 219.226,426.713 221.5,424.5C 222.274,423.289 223.107,423.289 224,424.5C 224.667,423.833 225.333,423.167 226,422.5C 231.154,412.672 238.487,404.672 248,398.5C 250.572,393.922 253.905,389.922 258,386.5C 258.333,387.167 258.667,387.833 259,388.5C 259.973,386.608 260.64,384.608 261,382.5C 263.041,383.423 265.208,383.756 267.5,383.5 Z"/></g>
<g><path style="opacity:1" fill="#a1702a" d="M 200.5,415.5 C 201.665,420.633 202.332,425.966 202.5,431.5C 202.167,431.5 201.833,431.5 201.5,431.5C 200.806,426.195 200.472,420.862 200.5,415.5 Z"/></g>
<g><path style="opacity:1" fill="#fc8319" d="M 267.5,367.5 C 268.495,379.655 268.829,391.989 268.5,404.5C 268.5,406.5 268.5,408.5 268.5,410.5C 267.857,415.797 266.857,421.131 265.5,426.5C 264.5,426.5 263.5,426.5 262.5,426.5C 262.856,429.564 262.023,432.231 260,434.5C 258.771,422.907 257.438,423.24 256,435.5C 254.886,431.544 254.053,431.544 253.5,435.5C 250.618,435.608 248.285,436.774 246.5,439C 244.647,441.571 242.981,444.238 241.5,447C 240.207,447.49 238.873,447.657 237.5,447.5C 237.657,448.873 237.49,450.207 237,451.5C 230.951,457.381 225.117,463.381 219.5,469.5C 218.264,470.246 216.93,470.579 215.5,470.5C 215.617,472.484 214.95,474.15 213.5,475.5C 211.191,476.975 209.024,478.642 207,480.5C 206.586,480.043 206.086,479.709 205.5,479.5C 204.507,474.88 204.173,470.214 204.5,465.5C 206.067,459.747 206.9,453.747 207,447.5C 207.333,451.833 207.667,456.167 208,460.5C 209.128,458.655 209.628,456.655 209.5,454.5C 211.582,454.528 213.416,453.861 215,452.5C 216.978,449.355 219.478,446.688 222.5,444.5C 222.291,443.914 221.957,443.414 221.5,443C 225.458,440.766 228.958,437.933 232,434.5C 232.483,433.552 232.649,432.552 232.5,431.5C 233.833,431.5 235.167,431.5 236.5,431.5C 237.682,429.186 239.015,426.852 240.5,424.5C 245.551,420.072 250.384,415.405 255,410.5C 255.333,412.167 255.667,413.833 256,415.5C 257.285,410.071 258.785,404.738 260.5,399.5C 262.621,405.852 264.121,405.852 265,399.5C 265.333,400.833 265.667,402.167 266,403.5C 267.42,396.95 267.92,390.284 267.5,383.5C 267.5,378.5 267.5,373.5 267.5,368.5C 267.5,368.167 267.5,367.833 267.5,367.5 Z"/></g>
<g><path style="opacity:1" fill="#d1802c" d="M 268.5,410.5 C 268.375,423.838 266.708,436.838 263.5,449.5C 263.5,447.833 263.5,446.167 263.5,444.5C 264.674,438.601 265.341,432.601 265.5,426.5C 266.857,421.131 267.857,415.797 268.5,410.5 Z"/></g>
<g><path style="opacity:1" fill="#fd901c" d="M 265.5,426.5 C 265.341,432.601 264.674,438.601 263.5,444.5C 261.976,445.174 260.642,446.174 259.5,447.5C 258.147,446.315 256.98,444.981 256,443.5C 255.316,445.479 255.816,447.146 257.5,448.5C 256.626,450.747 256.292,453.08 256.5,455.5C 253.901,455.549 251.734,456.549 250,458.5C 249.282,457.549 248.449,457.383 247.5,458C 240.768,466.904 233.101,475.07 224.5,482.5C 223.833,484.167 223.167,485.833 222.5,487.5C 219.216,489.117 216.549,491.45 214.5,494.5C 213.264,495.246 211.93,495.579 210.5,495.5C 209.951,497.901 209.118,500.235 208,502.5C 207.667,499.5 207.333,496.5 207,493.5C 206.612,497.219 205.945,500.886 205,504.5C 204.819,501.305 204.319,498.305 203.5,495.5C 203.5,484.833 203.5,474.167 203.5,463.5C 204.338,463.842 204.672,464.508 204.5,465.5C 204.173,470.214 204.507,474.88 205.5,479.5C 206.086,479.709 206.586,480.043 207,480.5C 209.024,478.642 211.191,476.975 213.5,475.5C 214.95,474.15 215.617,472.484 215.5,470.5C 216.93,470.579 218.264,470.246 219.5,469.5C 225.117,463.381 230.951,457.381 237,451.5C 237.49,450.207 237.657,448.873 237.5,447.5C 238.873,447.657 240.207,447.49 241.5,447C 242.981,444.238 244.647,441.571 246.5,439C 248.285,436.774 250.618,435.608 253.5,435.5C 254.053,431.544 254.886,431.544 256,435.5C 257.438,423.24 258.771,422.907 260,434.5C 262.023,432.231 262.856,429.564 262.5,426.5C 263.5,426.5 264.5,426.5 265.5,426.5 Z"/></g>
<g><path style="opacity:1" fill="#1e0500" d="M 201.5,431.5 C 201.833,431.5 202.167,431.5 202.5,431.5C 202.168,468.004 202.502,504.337 203.5,540.5C 204.833,540.167 206.167,539.833 207.5,539.5C 205.814,542.005 203.481,542.838 200.5,542C 201.496,505.239 201.83,468.406 201.5,431.5 Z"/></g>
<g><path style="opacity:1" fill="#fba523" d="M 259.5,467.5 C 256.895,477.358 253.228,486.691 248.5,495.5C 247.25,495.423 246.417,494.756 246,493.5C 245,496.5 244,499.5 243,502.5C 242.952,499.671 241.952,497.337 240,495.5C 239.505,497.473 239.338,499.473 239.5,501.5C 232.267,504.066 227.267,509.066 224.5,516.5C 220.444,518.388 217.61,521.388 216,525.5C 215.667,524.833 215.333,524.167 215,523.5C 213.96,526.04 212.126,527.707 209.5,528.5C 210.025,529.192 210.692,529.692 211.5,530C 209.899,530.273 208.399,530.773 207,531.5C 206.601,531.272 206.435,530.938 206.5,530.5C 206.335,526.818 206.501,523.152 207,519.5C 207.333,520.167 207.667,520.833 208,521.5C 208.939,518.06 211.105,515.727 214.5,514.5C 215.386,513.675 215.719,512.675 215.5,511.5C 216.5,511.5 217.5,511.5 218.5,511.5C 218.22,508.612 219.553,507.112 222.5,507C 224.29,504.509 226.457,502.342 229,500.5C 231.5,497.505 233.5,494.172 235,490.5C 235.414,490.957 235.914,491.291 236.5,491.5C 237.167,490.5 237.833,489.5 238.5,488.5C 239.192,489.025 239.692,489.692 240,490.5C 241.174,486.954 241.84,483.287 242,479.5C 243.113,480.711 244.28,480.711 245.5,479.5C 246.814,480.313 247.981,481.313 249,482.5C 249.507,481.004 249.007,479.837 247.5,479C 249.837,476.493 252.17,473.993 254.5,471.5C 255.251,472.376 255.751,473.376 256,474.5C 256,471.833 256,469.167 256,466.5C 256.953,468.373 258.12,468.706 259.5,467.5 Z"/></g>
<g><path style="opacity:1" fill="#fd9b1f" d="M 263.5,444.5 C 263.5,446.167 263.5,447.833 263.5,449.5C 262.381,455.551 261.047,461.551 259.5,467.5C 258.12,468.706 256.953,468.373 256,466.5C 256,469.167 256,471.833 256,474.5C 255.751,473.376 255.251,472.376 254.5,471.5C 252.17,473.993 249.837,476.493 247.5,479C 249.007,479.837 249.507,481.004 249,482.5C 247.981,481.313 246.814,480.313 245.5,479.5C 244.28,480.711 243.113,480.711 242,479.5C 241.84,483.287 241.174,486.954 240,490.5C 239.692,489.692 239.192,489.025 238.5,488.5C 237.833,489.5 237.167,490.5 236.5,491.5C 235.914,491.291 235.414,490.957 235,490.5C 233.5,494.172 231.5,497.505 229,500.5C 226.457,502.342 224.29,504.509 222.5,507C 219.553,507.112 218.22,508.612 218.5,511.5C 217.5,511.5 216.5,511.5 215.5,511.5C 215.719,512.675 215.386,513.675 214.5,514.5C 211.105,515.727 208.939,518.06 208,521.5C 207.667,520.833 207.333,520.167 207,519.5C 206.501,523.152 206.335,526.818 206.5,530.5C 204.98,532.588 203.98,534.922 203.5,537.5C 203.5,523.5 203.5,509.5 203.5,495.5C 204.319,498.305 204.819,501.305 205,504.5C 205.945,500.886 206.612,497.219 207,493.5C 207.333,496.5 207.667,499.5 208,502.5C 209.118,500.235 209.951,497.901 210.5,495.5C 211.93,495.579 213.264,495.246 214.5,494.5C 216.549,491.45 219.216,489.117 222.5,487.5C 223.167,485.833 223.833,484.167 224.5,482.5C 233.101,475.07 240.768,466.904 247.5,458C 248.449,457.383 249.282,457.549 250,458.5C 251.734,456.549 253.901,455.549 256.5,455.5C 256.292,453.08 256.626,450.747 257.5,448.5C 255.816,447.146 255.316,445.479 256,443.5C 256.98,444.981 258.147,446.315 259.5,447.5C 260.642,446.174 261.976,445.174 263.5,444.5 Z"/></g>
<g><path style="opacity:1" fill="#f7ab27" d="M 248.5,495.5 C 239.657,514.676 225.99,529.343 207.5,539.5C 206.167,539.833 204.833,540.167 203.5,540.5C 203.5,539.5 203.5,538.5 203.5,537.5C 203.98,534.922 204.98,532.588 206.5,530.5C 206.435,530.938 206.601,531.272 207,531.5C 208.399,530.773 209.899,530.273 211.5,530C 210.692,529.692 210.025,529.192 209.5,528.5C 212.126,527.707 213.96,526.04 215,523.5C 215.333,524.167 215.667,524.833 216,525.5C 217.61,521.388 220.444,518.388 224.5,516.5C 227.267,509.066 232.267,504.066 239.5,501.5C 239.338,499.473 239.505,497.473 240,495.5C 241.952,497.337 242.952,499.671 243,502.5C 244,499.5 245,496.5 246,493.5C 246.417,494.756 247.25,495.423 248.5,495.5 Z"/></g>
</svg>
