<?xml version="1.0" encoding="UTF-8"?>
<!DOCTYPE svg PUBLIC "-//W3C//DTD SVG 1.1//EN" "http://www.w3.org/Graphics/SVG/1.1/DTD/svg11.dtd">
<svg xmlns="http://www.w3.org/2000/svg" version="1.1" width="400px" height="400px" style="shape-rendering:geometricPrecision; text-rendering:geometricPrecision; image-rendering:optimizeQuality; fill-rule:evenodd; clip-rule:evenodd" xmlns:xlink="http://www.w3.org/1999/xlink">
<g><path style="opacity:1" fill="#e5e5e5" d="M -0.5,-0.5 C 98.1667,-0.5 196.833,-0.5 295.5,-0.5C 294.355,11.4242 294.189,23.4242 295,35.5C 305.752,36.487 316.585,36.8203 327.5,36.5C 327.666,46.1724 327.5,55.8391 327,65.5C 326.5,66 326,66.5 325.5,67C 315.256,67.1794 305.09,67.6794 295,68.5C 294.333,80.1667 294.333,91.8333 295,103.5C 306.47,104.825 317.97,104.825 329.5,103.5C 330.332,92.8489 330.832,82.1822 331,71.5C 331.5,71 332,70.5 332.5,70C 341.5,69.3333 350.5,69.3333 359.5,70C 360.333,70.8333 361.167,71.6667 362,72.5C 362.333,91.5 362.667,110.5 363,129.5C 363.5,130 364,130.5 364.5,131C 376.162,131.5 387.829,131.667 399.5,131.5C 399.5,207.167 399.5,282.833 399.5,358.5C 386.229,357.187 372.896,357.187 359.5,358.5C 358.167,371.5 358.167,384.5 359.5,397.5C 372.817,398.499 386.15,398.833 399.5,398.5C 399.5,398.833 399.5,399.167 399.5,399.5C 301.833,399.5 204.167,399.5 106.5,399.5C 106.987,398.527 107.487,397.527 108,396.5C 108.333,385.167 108.667,373.833 109,362.5C 109.75,361.874 110.584,361.374 111.5,361C 122.5,360.667 133.5,360.333 144.5,360C 145.322,348.91 145.822,337.743 146,326.5C 146.903,325.299 148.069,324.465 149.5,324C 169.5,323.333 189.5,323.333 209.5,324C 210,324.5 210.5,325 211,325.5C 212.617,335.734 212.95,346.067 212,356.5C 211,357.167 210,357.833 209,358.5C 197.895,357.18 186.728,357.18 175.5,358.5C 174.174,371.696 174.174,384.863 175.5,398C 188.167,398.667 200.833,398.667 213.5,398C 214.177,386.53 214.843,375.03 215.5,363.5C 216.025,362.808 216.692,362.308 217.5,362C 227.744,361.181 237.91,361.348 248,362.5C 248.187,374.213 248.687,385.879 249.5,397.5C 262.154,398.666 274.82,398.833 287.5,398C 288,397.5 288.5,397 289,396.5C 289.833,384.153 289.666,371.82 288.5,359.5C 277.546,358.688 266.546,358.188 255.5,358C 253.475,356.806 253.141,355.306 254.5,353.5C 253.694,344.548 253.194,335.548 253,326.5C 252.749,324.567 252.249,322.734 251.5,321C 239.5,320.667 227.5,320.333 215.5,320C 214.833,319.667 214.167,319.333 213.5,319C 215.651,317.226 217.984,315.726 220.5,314.5C 216.924,314.598 213.257,314.264 209.5,313.5C 234.798,298.848 260.131,284.182 285.5,269.5C 285.833,269.5 286.167,269.5 286.5,269.5C 287.833,259.5 289.167,249.5 290.5,239.5C 297.688,243.839 305.021,248.006 312.5,252C 314.352,252.773 315.686,252.273 316.5,250.5C 323.005,247.083 329.338,243.416 335.5,239.5C 338.14,238.18 340.807,236.847 343.5,235.5C 344.832,223.686 345.499,211.519 345.5,199C 345.5,186.662 345.167,174.495 344.5,162.5C 295.989,134.99 247.489,107.324 199,79.5C 151.425,107.367 103.592,134.867 55.5,162C 54.7476,162.671 54.4142,163.504 54.5,164.5C 54.5,166.833 54.5,169.167 54.5,171.5C 54.167,193.51 54.5003,215.51 55.5,237.5C 84.888,254.19 114.221,270.857 143.5,287.5C 145.167,288.833 146.833,290.167 148.5,291.5C 145.848,292.152 144.181,293.819 143.5,296.5C 144.091,300.135 144.424,303.802 144.5,307.5C 144.717,311.701 144.05,315.701 142.5,319.5C 131.547,320.644 120.547,320.811 109.5,320C 108.678,308.576 108.178,297.076 108,285.5C 107.626,284.584 107.126,283.75 106.5,283C 84.5939,282.828 62.7606,282.328 41,281.5C 40.7755,268.801 40.2755,256.135 39.5,243.5C 26.8289,243.333 14.1623,243.5 1.5,244C 0.955796,244.717 0.28913,245.217 -0.5,245.5C -0.5,163.5 -0.5,81.5 -0.5,-0.5 Z"/></g>
<g><path style="opacity:1" fill="#f2f2f2" d="M 295.5,-0.5 C 306.833,-0.5 318.167,-0.5 329.5,-0.5C 330.31,10.0905 330.81,20.7572 331,31.5C 341.757,32.3214 352.59,32.8214 363.5,33C 364.249,34.7337 364.749,36.567 365,38.5C 365.18,48.0774 365.68,57.5774 366.5,67C 377.495,67.4998 388.495,67.6665 399.5,67.5C 399.5,88.8333 399.5,110.167 399.5,131.5C 387.829,131.667 376.162,131.5 364.5,131C 364,130.5 363.5,130 363,129.5C 362.667,110.5 362.333,91.5 362,72.5C 361.167,71.6667 360.333,70.8333 359.5,70C 350.5,69.3333 341.5,69.3333 332.5,70C 332,70.5 331.5,71 331,71.5C 330.832,82.1822 330.332,92.8489 329.5,103.5C 317.97,104.825 306.47,104.825 295,103.5C 294.333,91.8333 294.333,80.1667 295,68.5C 305.09,67.6794 315.256,67.1794 325.5,67C 326,66.5 326.5,66 327,65.5C 327.5,55.8391 327.666,46.1724 327.5,36.5C 316.585,36.8203 305.752,36.487 295,35.5C 294.189,23.4242 294.355,11.4242 295.5,-0.5 Z"/></g>
<g><path style="opacity:1" fill="#e6e6e6" d="M 329.5,-0.5 C 352.833,-0.5 376.167,-0.5 399.5,-0.5C 399.5,22.1667 399.5,44.8333 399.5,67.5C 388.495,67.6665 377.495,67.4998 366.5,67C 365.68,57.5774 365.18,48.0774 365,38.5C 364.749,36.567 364.249,34.7337 363.5,33C 352.59,32.8214 341.757,32.3214 331,31.5C 330.81,20.7572 330.31,10.0905 329.5,-0.5 Z"/></g>
<g><path style="opacity:1" fill="#f1d6b9" d="M 319.5,175.5 C 317.255,176.635 314.922,177.135 312.5,177C 284.428,161.215 256.595,145.048 229,128.5C 228.235,128.57 227.735,128.903 227.5,129.5C 200.692,144.738 174.026,160.238 147.5,176C 157.438,182.219 167.605,188.053 178,193.5C 194.967,184.27 211.8,174.936 228.5,165.5C 246.949,174.891 264.949,185.057 282.5,196C 254.866,212.153 227.199,228.32 199.5,244.5C 196.805,242.822 194.139,241.156 191.5,239.5C 147.262,214.599 103.262,189.265 59.5,163.5C 105.807,135.675 152.474,108.342 199.5,81.5C 245.801,108.32 292.134,135.153 338.5,162C 339.833,162.667 339.833,163.333 338.5,164C 331.77,167.357 325.437,171.19 319.5,175.5 Z"/></g>
<g><path style="opacity:1" fill="#231c17" d="M 344.5,162.5 C 344.5,163.167 344.5,163.833 344.5,164.5C 343.833,164.5 343.167,164.5 342.5,164.5C 340.067,164.273 338.401,165.273 337.5,167.5C 333.748,167.94 330.748,169.607 328.5,172.5C 326.326,172.75 324.659,173.75 323.5,175.5C 322.167,175.5 320.833,175.5 319.5,175.5C 325.437,171.19 331.77,167.357 338.5,164C 339.833,163.333 339.833,162.667 338.5,162C 292.134,135.153 245.801,108.32 199.5,81.5C 152.474,108.342 105.807,135.675 59.5,163.5C 57.7085,163.366 56.0418,163.699 54.5,164.5C 54.4142,163.504 54.7476,162.671 55.5,162C 103.592,134.867 151.425,107.367 199,79.5C 247.489,107.324 295.989,134.99 344.5,162.5 Z"/></g>
<g><path style="opacity:1" fill="#230d0e" d="M 319.5,175.5 C 318.674,177.264 317.341,178.598 315.5,179.5C 314.502,202.661 314.169,225.994 314.5,249.5C 315.791,249.737 316.791,249.404 317.5,248.5C 321.968,246.097 326.301,243.43 330.5,240.5C 332.042,239.699 333.708,239.366 335.5,239.5C 329.338,243.416 323.005,247.083 316.5,250.5C 314.585,250.784 312.919,250.451 311.5,249.5C 312.832,238.186 313.499,226.52 313.5,214.5C 313.5,202.662 313.167,190.995 312.5,179.5C 287,164.762 261.666,150.095 236.5,135.5C 234.396,134.088 232.063,133.088 229.5,132.5C 229.5,142.167 229.5,151.833 229.5,161.5C 228.833,161.833 228.167,162.167 227.5,162.5C 228.141,152.111 227.474,142.111 225.5,132.5C 226.167,131.5 226.833,130.5 227.5,129.5C 227.735,128.903 228.235,128.57 229,128.5C 256.595,145.048 284.428,161.215 312.5,177C 314.922,177.135 317.255,176.635 319.5,175.5 Z"/></g>
<g><path style="opacity:1" fill="#ad4232" d="M 225.5,132.5 C 227.474,142.111 228.141,152.111 227.5,162.5C 227.5,163.167 227.167,163.5 226.5,163.5C 226.5,153.833 226.5,144.167 226.5,134.5C 225.5,134.5 224.5,134.5 223.5,134.5C 223.5,133.167 224.167,132.5 225.5,132.5 Z"/></g>
<g><path style="opacity:1" fill="#611d3d" d="M 236.5,135.5 C 234.533,135.261 232.699,135.594 231,136.5C 230.5,145.16 230.334,153.827 230.5,162.5C 229.833,162.5 229.5,162.167 229.5,161.5C 229.5,151.833 229.5,142.167 229.5,132.5C 232.063,133.088 234.396,134.088 236.5,135.5 Z"/></g>
<g><path style="opacity:1" fill="#d03328" d="M 223.5,134.5 C 224.5,134.5 225.5,134.5 226.5,134.5C 226.5,144.167 226.5,153.833 226.5,163.5C 213.126,171.362 199.459,179.029 185.5,186.5C 181.7,188.143 177.7,188.81 173.5,188.5C 169.495,187.502 166.161,185.502 163.5,182.5C 162.015,179.917 159.682,178.584 156.5,178.5C 156.5,176.833 156.5,175.167 156.5,173.5C 159.789,170.18 163.789,167.847 168.5,166.5C 172.211,164.687 176.211,163.52 180.5,163C 181.333,160.022 183,157.855 185.5,156.5C 196.436,149.692 207.436,142.858 218.5,136C 220.154,135.392 221.821,134.892 223.5,134.5 Z"/></g>
<g><path style="opacity:1" fill="#b33530" d="M 185.5,156.5 C 183,157.855 181.333,160.022 180.5,163C 176.211,163.52 172.211,164.687 168.5,166.5C 173.665,162.414 179.332,159.08 185.5,156.5 Z"/></g>
<g><path style="opacity:1" fill="#8d2550" d="M 236.5,135.5 C 261.666,150.095 287,164.762 312.5,179.5C 312.667,201.503 312.5,223.503 312,245.5C 310.644,246.38 309.144,246.714 307.5,246.5C 300.889,243.061 294.389,239.395 288,235.5C 287.833,222.154 287.333,208.821 286.5,195.5C 285.583,194.873 284.583,194.539 283.5,194.5C 267.162,183.693 250.162,173.86 232.5,165C 231.619,164.292 230.953,163.458 230.5,162.5C 230.334,153.827 230.5,145.16 231,136.5C 232.699,135.594 234.533,135.261 236.5,135.5 Z"/></g>
<g><path style="opacity:1" fill="#8e2550" d="M 60.5,166.5 C 81.686,178.926 103.019,191.093 124.5,203C 126.439,203.908 127.439,205.408 127.5,207.5C 129.199,207.34 130.866,207.506 132.5,208C 151.974,219.644 171.641,230.811 191.5,241.5C 193.223,243.218 195.223,244.551 197.5,245.5C 197.667,268.836 197.5,292.169 197,315.5C 196.329,314.748 195.496,314.414 194.5,314.5C 180.33,307.503 166.663,299.67 153.5,291C 150.204,289.489 146.871,288.323 143.5,287.5C 139.459,282.962 134.459,279.629 128.5,277.5C 127.614,276.675 127.281,275.675 127.5,274.5C 125.801,274.66 124.134,274.494 122.5,274C 101.269,261.462 79.9355,248.962 58.5,236.5C 57.5203,213.212 57.187,189.878 57.5,166.5C 58.5,166.5 59.5,166.5 60.5,166.5 Z"/></g>
<g><path style="opacity:1" fill="#d33327" d="M 330.5,240.5 C 326.833,241.833 323.167,243.167 319.5,244.5C 319.66,242.801 319.494,241.134 319,239.5C 318.814,241.9 318.314,244.234 317.5,246.5C 316.334,224.508 316.167,202.508 317,180.5C 318.403,178.802 320.236,178.302 322.5,179C 323.337,177.989 323.67,176.822 323.5,175.5C 324.659,173.75 326.326,172.75 328.5,172.5C 332.564,171.671 336.564,170.671 340.5,169.5C 340.833,190.511 340.5,211.511 339.5,232.5C 338.719,233.737 337.719,234.737 336.5,235.5C 332.844,234.799 330.844,236.466 330.5,240.5 Z"/></g>
<g><path style="opacity:1" fill="#240200" d="M 342.5,164.5 C 343.167,164.5 343.833,164.5 344.5,164.5C 344.5,165.5 344.5,166.5 344.5,167.5C 343.833,189.167 343.167,210.833 342.5,232.5C 342.5,209.833 342.5,187.167 342.5,164.5 Z"/></g>
<g><path style="opacity:1" fill="#18120e" d="M 344.5,167.5 C 344.822,190.242 344.489,212.908 343.5,235.5C 340.807,236.847 338.14,238.18 335.5,239.5C 336.95,237.077 338.95,235.077 341.5,233.5C 342.167,233.5 342.5,233.167 342.5,232.5C 343.167,210.833 343.833,189.167 344.5,167.5 Z"/></g>
<g><path style="opacity:1" fill="#b1b0b3" d="M 344.5,162.5 C 345.167,174.495 345.5,186.662 345.5,199C 345.499,211.519 344.832,223.686 343.5,235.5C 344.489,212.908 344.822,190.242 344.5,167.5C 344.5,166.5 344.5,165.5 344.5,164.5C 344.5,163.833 344.5,163.167 344.5,162.5 Z"/></g>
<g><path style="opacity:1" fill="#261410" d="M 227.5,129.5 C 226.833,130.5 226.167,131.5 225.5,132.5C 224.167,132.5 223.5,133.167 223.5,134.5C 221.821,134.892 220.154,135.392 218.5,136C 207.436,142.858 196.436,149.692 185.5,156.5C 179.332,159.08 173.665,162.414 168.5,166.5C 163.789,167.847 159.789,170.18 156.5,173.5C 154.745,174.072 153.078,174.906 151.5,176C 155.263,178.64 159.263,180.807 163.5,182.5C 166.161,185.502 169.495,187.502 173.5,188.5C 174.507,189.828 175.84,190.828 177.5,191.5C 180.529,190.324 183.196,188.657 185.5,186.5C 199.459,179.029 213.126,171.362 226.5,163.5C 227.167,163.5 227.5,163.167 227.5,162.5C 228.167,162.167 228.833,161.833 229.5,161.5C 229.5,162.167 229.833,162.5 230.5,162.5C 230.953,163.458 231.619,164.292 232.5,165C 250.162,173.86 267.162,183.693 283.5,194.5C 283.5,195.5 283.5,196.5 283.5,197.5C 282.5,197.833 281.833,198.5 281.5,199.5C 278.802,199.845 276.802,201.178 275.5,203.5C 272.454,203.725 270.121,205.058 268.5,207.5C 265.669,208.079 263.336,209.412 261.5,211.5C 254.019,214.556 247.352,218.556 241.5,223.5C 240.508,223.328 239.842,223.662 239.5,224.5C 236.246,224.794 233.579,226.127 231.5,228.5C 227.886,230.307 224.22,232.14 220.5,234C 219.619,234.708 218.953,235.542 218.5,236.5C 217.508,236.328 216.842,236.662 216.5,237.5C 211.868,238.814 207.868,241.147 204.5,244.5C 203.391,244.557 202.391,244.89 201.5,245.5C 200.833,245.5 200.5,245.833 200.5,246.5C 199.833,246.5 199.167,246.5 198.5,246.5C 198.5,245.833 198.167,245.5 197.5,245.5C 195.223,244.551 193.223,243.218 191.5,241.5C 191.5,240.833 191.5,240.167 191.5,239.5C 194.139,241.156 196.805,242.822 199.5,244.5C 227.199,228.32 254.866,212.153 282.5,196C 264.949,185.057 246.949,174.891 228.5,165.5C 211.8,174.936 194.967,184.27 178,193.5C 167.605,188.053 157.438,182.219 147.5,176C 174.026,160.238 200.692,144.738 227.5,129.5 Z"/></g>
<g><path style="opacity:1" fill="#a5322d" d="M 156.5,173.5 C 156.5,175.167 156.5,176.833 156.5,178.5C 159.682,178.584 162.015,179.917 163.5,182.5C 159.263,180.807 155.263,178.64 151.5,176C 153.078,174.906 154.745,174.072 156.5,173.5 Z"/></g>
<g><path style="opacity:1" fill="#b9362f" d="M 341.5,233.5 C 338.95,235.077 336.95,237.077 335.5,239.5C 333.708,239.366 332.042,239.699 330.5,240.5C 330.844,236.466 332.844,234.799 336.5,235.5C 337.719,234.737 338.719,233.737 339.5,232.5C 340.5,211.511 340.833,190.511 340.5,169.5C 336.564,170.671 332.564,171.671 328.5,172.5C 330.748,169.607 333.748,167.94 337.5,167.5C 339.017,167.489 340.184,166.823 341,165.5C 341.5,188.164 341.667,210.831 341.5,233.5 Z"/></g>
<g><path style="opacity:1" fill="#8e3631" d="M 342.5,164.5 C 342.5,187.167 342.5,209.833 342.5,232.5C 342.5,233.167 342.167,233.5 341.5,233.5C 341.667,210.831 341.5,188.164 341,165.5C 340.184,166.823 339.017,167.489 337.5,167.5C 338.401,165.273 340.067,164.273 342.5,164.5 Z"/></g>
<g><path style="opacity:1" fill="#98332e" d="M 185.5,186.5 C 183.196,188.657 180.529,190.324 177.5,191.5C 175.84,190.828 174.507,189.828 173.5,188.5C 177.7,188.81 181.7,188.143 185.5,186.5 Z"/></g>
<g><path style="opacity:1" fill="#241011" d="M 59.5,163.5 C 103.262,189.265 147.262,214.599 191.5,239.5C 191.5,240.167 191.5,240.833 191.5,241.5C 171.641,230.811 151.974,219.644 132.5,208C 130.866,207.506 129.199,207.34 127.5,207.5C 127.439,205.408 126.439,203.908 124.5,203C 103.019,191.093 81.686,178.926 60.5,166.5C 59.713,164.896 58.3797,164.229 56.5,164.5C 56.5,187.5 56.5,210.5 56.5,233.5C 55.8333,212.833 55.1667,192.167 54.5,171.5C 54.5,169.167 54.5,166.833 54.5,164.5C 56.0418,163.699 57.7085,163.366 59.5,163.5 Z"/></g>
<g><path style="opacity:1" fill="#541531" d="M 312.5,179.5 C 313.167,190.995 313.5,202.662 313.5,214.5C 313.499,226.52 312.832,238.186 311.5,249.5C 310.167,248.5 308.833,247.5 307.5,246.5C 309.144,246.714 310.644,246.38 312,245.5C 312.5,223.503 312.667,201.503 312.5,179.5 Z"/></g>
<g><path style="opacity:1" fill="#420c05" d="M 315.5,179.5 C 314.844,202.858 315.51,225.858 317.5,248.5C 316.791,249.404 315.791,249.737 314.5,249.5C 314.169,225.994 314.502,202.661 315.5,179.5 Z"/></g>
<g><path style="opacity:1" fill="#ac3c33" d="M 319.5,175.5 C 320.833,175.5 322.167,175.5 323.5,175.5C 323.67,176.822 323.337,177.989 322.5,179C 320.236,178.302 318.403,178.802 317,180.5C 316.167,202.508 316.334,224.508 317.5,246.5C 318.314,244.234 318.814,241.9 319,239.5C 319.494,241.134 319.66,242.801 319.5,244.5C 323.167,243.167 326.833,241.833 330.5,240.5C 326.301,243.43 321.968,246.097 317.5,248.5C 315.51,225.858 314.844,202.858 315.5,179.5C 317.341,178.598 318.674,177.264 319.5,175.5 Z"/></g>
<g><path style="opacity:1" fill="#5a2138" d="M 60.5,166.5 C 59.5,166.5 58.5,166.5 57.5,166.5C 57.187,189.878 57.5203,213.212 58.5,236.5C 57.0937,236.027 56.427,235.027 56.5,233.5C 56.5,210.5 56.5,187.5 56.5,164.5C 58.3797,164.229 59.713,164.896 60.5,166.5 Z"/></g>
<g><path style="opacity:1" fill="#7e302f" d="M 275.5,203.5 C 273.57,205.45 271.237,206.783 268.5,207.5C 270.121,205.058 272.454,203.725 275.5,203.5 Z"/></g>
<g><path style="opacity:1" fill="#d33427" d="M 284.5,267.5 C 280.826,268.982 277.493,271.148 274.5,274C 271.936,275.396 269.269,276.563 266.5,277.5C 262.388,278.722 258.721,280.722 255.5,283.5C 252.5,284.167 249.5,284.833 246.5,285.5C 246.567,286.959 246.234,288.292 245.5,289.5C 242.849,290.49 240.183,291.49 237.5,292.5C 235.541,292.125 233.707,291.459 232,290.5C 231.691,292.391 232.525,293.725 234.5,294.5C 233.133,295.84 231.8,297.173 230.5,298.5C 227.315,300.278 223.982,301.944 220.5,303.5C 215.657,305.418 211.323,308.084 207.5,311.5C 205.833,311.5 204.167,311.5 202.5,311.5C 202.83,292.659 202.497,273.993 201.5,255.5C 201.5,252.167 201.5,248.833 201.5,245.5C 202.391,244.89 203.391,244.557 204.5,244.5C 208.263,244.143 211.93,243.31 215.5,242C 214.419,240.289 214.752,238.789 216.5,237.5C 216.842,236.662 217.508,236.328 218.5,236.5C 223.647,234.924 227.98,232.257 231.5,228.5C 234.802,228.088 237.469,226.755 239.5,224.5C 239.842,223.662 240.508,223.328 241.5,223.5C 246.427,221.468 251.094,218.968 255.5,216C 257.167,215.667 258.833,215.333 260.5,215C 261.337,213.989 261.67,212.822 261.5,211.5C 264.857,211.784 267.191,210.451 268.5,207.5C 271.237,206.783 273.57,205.45 275.5,203.5C 278.257,201.914 281.257,200.914 284.5,200.5C 284.5,222.833 284.5,245.167 284.5,267.5 Z"/></g>
<g><path style="opacity:1" fill="#a02f2a" d="M 285.5,266.5 C 285.5,266.833 285.5,267.167 285.5,267.5C 285.167,267.5 284.833,267.5 284.5,267.5C 284.5,245.167 284.5,222.833 284.5,200.5C 281.257,200.914 278.257,201.914 275.5,203.5C 276.802,201.178 278.802,199.845 281.5,199.5C 282.583,199.461 283.583,199.127 284.5,198.5C 285.5,221.157 285.833,243.824 285.5,266.5 Z"/></g>
<g><path style="opacity:1" fill="#ad3833" d="M 268.5,207.5 C 267.191,210.451 264.857,211.784 261.5,211.5C 263.336,209.412 265.669,208.079 268.5,207.5 Z"/></g>
<g><path style="opacity:1" fill="#a4322b" d="M 261.5,211.5 C 261.67,212.822 261.337,213.989 260.5,215C 258.833,215.333 257.167,215.667 255.5,216C 251.094,218.968 246.427,221.468 241.5,223.5C 247.352,218.556 254.019,214.556 261.5,211.5 Z"/></g>
<g><path style="opacity:1" fill="#992d2b" d="M 239.5,224.5 C 237.469,226.755 234.802,228.088 231.5,228.5C 233.579,226.127 236.246,224.794 239.5,224.5 Z"/></g>
<g><path style="opacity:1" fill="#882726" d="M 231.5,228.5 C 227.98,232.257 223.647,234.924 218.5,236.5C 218.953,235.542 219.619,234.708 220.5,234C 224.22,232.14 227.886,230.307 231.5,228.5 Z"/></g>
<g><path style="opacity:1" fill="#3d0707" d="M 283.5,197.5 C 284.5,197.5 285.5,197.5 286.5,197.5C 286.831,220.673 286.498,243.673 285.5,266.5C 285.833,243.824 285.5,221.157 284.5,198.5C 283.583,199.127 282.583,199.461 281.5,199.5C 281.833,198.5 282.5,197.833 283.5,197.5 Z"/></g>
<g><path style="opacity:1" fill="#b63532" d="M 216.5,237.5 C 214.752,238.789 214.419,240.289 215.5,242C 211.93,243.31 208.263,244.143 204.5,244.5C 207.868,241.147 211.868,238.814 216.5,237.5 Z"/></g>
<g><path style="opacity:1" fill="#f2f2f2" d="M 148.5,291.5 C 165.048,300.781 181.715,310.114 198.5,319.5C 199.518,318.807 200.518,318.141 201.5,317.5C 202.167,317.167 202.833,316.833 203.5,316.5C 205.517,315.471 207.517,314.471 209.5,313.5C 213.257,314.264 216.924,314.598 220.5,314.5C 217.984,315.726 215.651,317.226 213.5,319C 214.167,319.333 214.833,319.667 215.5,320C 227.5,320.333 239.5,320.667 251.5,321C 252.249,322.734 252.749,324.567 253,326.5C 253.194,335.548 253.694,344.548 254.5,353.5C 253.141,355.306 253.475,356.806 255.5,358C 266.546,358.188 277.546,358.688 288.5,359.5C 289.666,371.82 289.833,384.153 289,396.5C 288.5,397 288,397.5 287.5,398C 274.82,398.833 262.154,398.666 249.5,397.5C 248.687,385.879 248.187,374.213 248,362.5C 237.91,361.348 227.744,361.181 217.5,362C 216.692,362.308 216.025,362.808 215.5,363.5C 214.843,375.03 214.177,386.53 213.5,398C 200.833,398.667 188.167,398.667 175.5,398C 174.174,384.863 174.174,371.696 175.5,358.5C 186.728,357.18 197.895,357.18 209,358.5C 210,357.833 211,357.167 212,356.5C 212.95,346.067 212.617,335.734 211,325.5C 210.5,325 210,324.5 209.5,324C 189.5,323.333 169.5,323.333 149.5,324C 148.069,324.465 146.903,325.299 146,326.5C 145.822,337.743 145.322,348.91 144.5,360C 133.5,360.333 122.5,360.667 111.5,361C 110.584,361.374 109.75,361.874 109,362.5C 108.667,373.833 108.333,385.167 108,396.5C 107.487,397.527 106.987,398.527 106.5,399.5C 94.1667,399.5 81.8333,399.5 69.5,399.5C 69.2172,398.711 68.7172,398.044 68,397.5C 67.1674,384.82 67.334,372.154 68.5,359.5C 80.1207,358.687 91.7874,358.187 103.5,358C 104,357.5 104.5,357 105,356.5C 105.667,346.5 105.667,336.5 105,326.5C 104.308,325.975 103.808,325.308 103.5,324.5C 83.1749,323.334 62.8415,323.167 42.5,324C 41.8742,324.75 41.3742,325.584 41,326.5C 40.6667,337.5 40.3333,348.5 40,359.5C 39.6924,360.308 39.1924,360.975 38.5,361.5C 26.546,362.646 14.546,362.812 2.5,362C 1.47344,361.487 0.473444,360.987 -0.5,360.5C -0.5,348.167 -0.5,335.833 -0.5,323.5C 0.28913,323.217 0.955796,322.717 1.5,322C 12.848,321.832 24.1813,321.332 35.5,320.5C 36.7863,315.008 37.453,309.341 37.5,303.5C 37.1667,298.167 36.8333,292.833 36.5,287.5C 35.354,286.855 34.354,286.022 33.5,285C 22.8333,284.667 12.1667,284.333 1.5,284C 0.955796,283.283 0.28913,282.783 -0.5,282.5C -0.5,270.167 -0.5,257.833 -0.5,245.5C 0.28913,245.217 0.955796,244.717 1.5,244C 14.1623,243.5 26.8289,243.333 39.5,243.5C 40.2755,256.135 40.7755,268.801 41,281.5C 62.7606,282.328 84.5939,282.828 106.5,283C 107.126,283.75 107.626,284.584 108,285.5C 108.178,297.076 108.678,308.576 109.5,320C 120.547,320.811 131.547,320.644 142.5,319.5C 144.05,315.701 144.717,311.701 144.5,307.5C 144.424,303.802 144.091,300.135 143.5,296.5C 144.181,293.819 145.848,292.152 148.5,291.5 Z"/></g>
<g><path style="opacity:1" fill="#1a1215" d="M 283.5,194.5 C 284.583,194.539 285.583,194.873 286.5,195.5C 287.333,208.821 287.833,222.154 288,235.5C 294.389,239.395 300.889,243.061 307.5,246.5C 308.833,247.5 310.167,248.5 311.5,249.5C 312.919,250.451 314.585,250.784 316.5,250.5C 315.686,252.273 314.352,252.773 312.5,252C 305.021,248.006 297.688,243.839 290.5,239.5C 289.791,238.596 288.791,238.263 287.5,238.5C 287.808,248.915 287.475,259.249 286.5,269.5C 286.167,269.5 285.833,269.5 285.5,269.5C 285.5,268.833 285.5,268.167 285.5,267.5C 285.5,267.167 285.5,266.833 285.5,266.5C 286.498,243.673 286.831,220.673 286.5,197.5C 285.5,197.5 284.5,197.5 283.5,197.5C 283.5,196.5 283.5,195.5 283.5,194.5 Z"/></g>
<g><path style="opacity:1" fill="#672946" d="M 197.5,245.5 C 198.167,245.5 198.5,245.833 198.5,246.5C 198.5,269.833 198.5,293.167 198.5,316.5C 196.62,316.771 195.287,316.104 194.5,314.5C 195.496,314.414 196.329,314.748 197,315.5C 197.5,292.169 197.667,268.836 197.5,245.5 Z"/></g>
<g><path style="opacity:1" fill="#2c0005" d="M 198.5,246.5 C 199.167,246.5 199.833,246.5 200.5,246.5C 200.5,269.5 200.5,292.5 200.5,315.5C 201.5,315.5 202.5,315.5 203.5,315.5C 203.5,315.833 203.5,316.167 203.5,316.5C 202.833,316.833 202.167,317.167 201.5,317.5C 200.791,316.596 199.791,316.263 198.5,316.5C 198.5,293.167 198.5,269.833 198.5,246.5 Z"/></g>
<g><path style="opacity:1" fill="#7d2622" d="M 201.5,245.5 C 201.5,248.833 201.5,252.167 201.5,255.5C 201.5,274.833 201.5,294.167 201.5,313.5C 202.5,313.5 203.5,313.5 204.5,313.5C 204.167,314.167 203.833,314.833 203.5,315.5C 202.5,315.5 201.5,315.5 200.5,315.5C 200.5,292.5 200.5,269.5 200.5,246.5C 200.5,245.833 200.833,245.5 201.5,245.5 Z"/></g>
<g><path style="opacity:1" fill="#ba3a31" d="M 201.5,255.5 C 202.497,273.993 202.83,292.659 202.5,311.5C 204.167,311.5 205.833,311.5 207.5,311.5C 206.71,312.401 205.71,313.068 204.5,313.5C 203.5,313.5 202.5,313.5 201.5,313.5C 201.5,294.167 201.5,274.833 201.5,255.5 Z"/></g>
<g><path style="opacity:1" fill="#a9a9a9" d="M 290.5,239.5 C 289.167,249.5 287.833,259.5 286.5,269.5C 287.475,259.249 287.808,248.915 287.5,238.5C 288.791,238.263 289.791,238.596 290.5,239.5 Z"/></g>
<g><path style="opacity:1" fill="#221519" d="M 54.5,171.5 C 55.1667,192.167 55.8333,212.833 56.5,233.5C 56.427,235.027 57.0937,236.027 58.5,236.5C 79.9355,248.962 101.269,261.462 122.5,274C 124.134,274.494 125.801,274.66 127.5,274.5C 127.281,275.675 127.614,276.675 128.5,277.5C 134.459,279.629 139.459,282.962 143.5,287.5C 114.221,270.857 84.888,254.19 55.5,237.5C 54.5003,215.51 54.167,193.51 54.5,171.5 Z"/></g>
<g><path style="opacity:1" fill="#9a332d" d="M 266.5,277.5 C 263.279,280.278 259.612,282.278 255.5,283.5C 258.721,280.722 262.388,278.722 266.5,277.5 Z"/></g>
<g><path style="opacity:1" fill="#e6e6e6" d="M -0.5,282.5 C 0.28913,282.783 0.955796,283.283 1.5,284C 12.1667,284.333 22.8333,284.667 33.5,285C 34.354,286.022 35.354,286.855 36.5,287.5C 36.8333,292.833 37.1667,298.167 37.5,303.5C 37.453,309.341 36.7863,315.008 35.5,320.5C 24.1813,321.332 12.848,321.832 1.5,322C 0.955796,322.717 0.28913,323.217 -0.5,323.5C -0.5,309.833 -0.5,296.167 -0.5,282.5 Z"/></g>
<g><path style="opacity:1" fill="#a92f2b" d="M 255.5,283.5 C 255.063,285.074 254.063,286.241 252.5,287C 249.94,287.384 247.606,288.217 245.5,289.5C 246.234,288.292 246.567,286.959 246.5,285.5C 249.5,284.833 252.5,284.167 255.5,283.5 Z"/></g>
<g><path style="opacity:1" fill="#af322b" d="M 245.5,289.5 C 240.486,292.356 235.486,295.356 230.5,298.5C 231.8,297.173 233.133,295.84 234.5,294.5C 232.525,293.725 231.691,292.391 232,290.5C 233.707,291.459 235.541,292.125 237.5,292.5C 240.183,291.49 242.849,290.49 245.5,289.5 Z"/></g>
<g><path style="opacity:1" fill="#261411" d="M 284.5,267.5 C 284.833,267.5 285.167,267.5 285.5,267.5C 285.5,268.167 285.5,268.833 285.5,269.5C 260.131,284.182 234.798,298.848 209.5,313.5C 207.517,314.471 205.517,315.471 203.5,316.5C 203.5,316.167 203.5,315.833 203.5,315.5C 203.833,314.833 204.167,314.167 204.5,313.5C 205.71,313.068 206.71,312.401 207.5,311.5C 212.299,309.6 216.632,306.933 220.5,303.5C 223.982,301.944 227.315,300.278 230.5,298.5C 235.486,295.356 240.486,292.356 245.5,289.5C 247.606,288.217 249.94,287.384 252.5,287C 254.063,286.241 255.063,285.074 255.5,283.5C 259.612,282.278 263.279,280.278 266.5,277.5C 269.269,276.563 271.936,275.396 274.5,274C 277.493,271.148 280.826,268.982 284.5,267.5 Z"/></g>
<g><path style="opacity:1" fill="#9e312c" d="M 220.5,303.5 C 216.632,306.933 212.299,309.6 207.5,311.5C 211.323,308.084 215.657,305.418 220.5,303.5 Z"/></g>
<g><path style="opacity:1" fill="#23171b" d="M 143.5,287.5 C 146.871,288.323 150.204,289.489 153.5,291C 166.663,299.67 180.33,307.503 194.5,314.5C 195.287,316.104 196.62,316.771 198.5,316.5C 199.791,316.263 200.791,316.596 201.5,317.5C 200.518,318.141 199.518,318.807 198.5,319.5C 181.715,310.114 165.048,300.781 148.5,291.5C 146.833,290.167 145.167,288.833 143.5,287.5 Z"/></g>
<g><path style="opacity:1" fill="#f2f2f2" d="M 319.5,312.5 C 332.833,312.5 346.167,312.5 359.5,312.5C 359.5,326.167 359.5,339.833 359.5,353.5C 346.167,353.5 332.833,353.5 319.5,353.5C 319.5,339.833 319.5,326.167 319.5,312.5 Z"/></g>
<g><path style="opacity:1" fill="#e6e6e6" d="M 69.5,399.5 C 46.1667,399.5 22.8333,399.5 -0.5,399.5C -0.5,386.5 -0.5,373.5 -0.5,360.5C 0.473444,360.987 1.47344,361.487 2.5,362C 14.546,362.812 26.546,362.646 38.5,361.5C 39.1924,360.975 39.6924,360.308 40,359.5C 40.3333,348.5 40.6667,337.5 41,326.5C 41.3742,325.584 41.8742,324.75 42.5,324C 62.8415,323.167 83.1749,323.334 103.5,324.5C 103.808,325.308 104.308,325.975 105,326.5C 105.667,336.5 105.667,346.5 105,356.5C 104.5,357 104,357.5 103.5,358C 91.7874,358.187 80.1207,358.687 68.5,359.5C 67.334,372.154 67.1674,384.82 68,397.5C 68.7172,398.044 69.2172,398.711 69.5,399.5 Z"/></g>
<g><path style="opacity:1" fill="#f2f2f2" d="M 399.5,358.5 C 399.5,371.833 399.5,385.167 399.5,398.5C 386.15,398.833 372.817,398.499 359.5,397.5C 358.167,384.5 358.167,371.5 359.5,358.5C 372.896,357.187 386.229,357.187 399.5,358.5 Z"/></g>
</svg>
