<?xml version="1.0" standalone="no"?>
<!DOCTYPE svg PUBLIC "-//W3C//DTD SVG 20010904//EN"
 "http://www.w3.org/TR/2001/REC-SVG-20010904/DTD/svg10.dtd">
<svg version="1.0" xmlns="http://www.w3.org/2000/svg"
 width="400.000000pt" height="400.000000pt" viewBox="0 0 400.000000 400.000000"
 preserveAspectRatio="xMidYMid meet">

<g transform="translate(0.000000,400.000000) scale(0.100000,-0.100000)"
fill="#000000" stroke="none">
<path d="M0 2000 l0 -2000 2000 0 2000 0 0 2000 0 2000 -2000 0 -2000 0 0
-2000z m2012 738 c112 -38 155 -69 328 -243 85 -85 162 -155 172 -155 9 0 112
97 229 215 l213 215 235 0 236 0 -320 -320 c-176 -177 -344 -337 -374 -357
-79 -53 -160 -76 -248 -70 -119 7 -162 34 -358 228 -115 114 -184 174 -215
188 -43 20 -64 21 -496 21 l-451 0 -34 -23 c-105 -70 -78 -217 48 -255 70 -21
343 -33 502 -21 242 17 492 -17 634 -86 59 -29 157 -109 157 -128 0 -7 -48
-61 -108 -120 l-107 -107 -29 36 c-16 20 -54 48 -85 63 l-56 26 -445 6 c-490
7 -528 11 -650 71 -76 37 -167 123 -198 188 -11 25 -27 84 -33 132 -31 215 52
399 214 473 117 54 123 54 662 52 l500 -2 77 -27z m689 -816 c56 -28 114 -82
405 -373 l339 -339 -230 0 -230 0 -223 223 -223 222 -172 -175 c-184 -187
-236 -224 -352 -255 -88 -23 -960 -22 -1073 1 -143 29 -237 90 -308 199 -46
73 -64 143 -64 252 l0 93 150 0 150 0 0 -72 c0 -87 19 -125 76 -154 36 -18 69
-19 489 -22 322 -2 461 0 490 9 31 9 77 48 210 179 228 225 274 252 421 248
68 -3 90 -8 145 -36z"/>
</g>
</svg>
