<?xml version="1.0" encoding="UTF-8"?>
<!DOCTYPE svg PUBLIC "-//W3C//DTD SVG 1.1//EN" "http://www.w3.org/Graphics/SVG/1.1/DTD/svg11.dtd">
<svg xmlns="http://www.w3.org/2000/svg" version="1.1" width="400px" height="400px" style="shape-rendering:geometricPrecision; text-rendering:geometricPrecision; image-rendering:optimizeQuality; fill-rule:evenodd; clip-rule:evenodd" xmlns:xlink="http://www.w3.org/1999/xlink">
<g><path style="opacity:1" fill="#f2574a" d="M -0.5,-0.5 C 132.833,-0.5 266.167,-0.5 399.5,-0.5C 399.5,132.833 399.5,266.167 399.5,399.5C 266.167,399.5 132.833,399.5 -0.5,399.5C -0.5,266.167 -0.5,132.833 -0.5,-0.5 Z"/></g>
<g><path style="opacity:1" fill="#e37c72" d="M 194.5,69.5 C 160.123,69.1803 125.79,69.5136 91.5,70.5C 91.6107,69.8826 91.944,69.3826 92.5,69C 126.669,68.1691 160.669,68.3358 194.5,69.5 Z"/></g>
<g><path style="opacity:1" fill="#fedad1" d="M 194.5,69.5 C 195.167,69.5 195.5,69.8333 195.5,70.5C 196.314,83.0915 196.814,95.7582 197,108.5C 197.287,114.154 198.454,119.488 200.5,124.5C 201.374,127.789 202.041,131.123 202.5,134.5C 201.732,133.737 201.232,132.737 201,131.5C 200.667,131.833 200.333,132.167 200,132.5C 199.364,128.005 198.364,123.672 197,119.5C 196.103,103.105 195.103,86.7715 194,70.5C 161.314,70.3545 128.48,70.5212 95.5,71C 93.3225,72.2022 90.9892,72.7022 88.5,72.5C 89.1667,71.8333 89.8333,71.1667 90.5,70.5C 90.8333,70.5 91.1667,70.5 91.5,70.5C 125.79,69.5136 160.123,69.1803 194.5,69.5 Z"/></g>
<g><path style="opacity:1" fill="#fdfcfb" d="M 250.5,69.5 C 253.795,71.1473 257.128,72.8139 260.5,74.5C 261.793,76.2959 263.293,77.9625 265,79.5C 269.328,88.3279 273.162,97.3279 276.5,106.5C 276.5,107.167 276.5,107.833 276.5,108.5C 278.027,114.922 279.36,121.255 280.5,127.5C 280.5,138.167 280.5,148.833 280.5,159.5C 279.461,165.578 276.794,170.912 272.5,175.5C 265.726,178.324 259.059,178.158 252.5,175C 242.058,163.6 234.058,150.766 228.5,136.5C 226.827,131.724 225.16,127.057 223.5,122.5C 223.309,118.738 222.642,115.071 221.5,111.5C 220.762,100.85 220.428,90.183 220.5,79.5C 219.923,75.9202 220.923,72.9202 223.5,70.5C 232.475,69.5018 241.475,69.1685 250.5,69.5 Z"/></g>
<g><path style="opacity:1" fill="#dc7770" d="M 250.5,69.5 C 252.167,69.5 253.833,69.5 255.5,69.5C 256.209,70.404 257.209,70.7373 258.5,70.5C 259.167,71.8333 259.833,73.1667 260.5,74.5C 257.128,72.8139 253.795,71.1473 250.5,69.5 Z"/></g>
<g><path style="opacity:1" fill="#e86153" d="M 328.5,90.5 C 326.23,85.904 323.23,81.904 319.5,78.5C 312.102,71.5887 303.435,68.922 293.5,70.5C 290.715,71.0835 289.049,72.7502 288.5,75.5C 289.352,70.1433 292.519,66.81 298,65.5C 301.51,67.6392 305.344,69.3059 309.5,70.5C 310.986,70.1029 312.486,69.7695 314,69.5C 315.8,70.3784 317.633,71.045 319.5,71.5C 319.34,73.1992 319.506,74.8659 320,76.5C 321,75.1667 322,75.1667 323,76.5C 323.494,78.1341 323.66,79.8008 323.5,81.5C 324.5,81.5 325.5,81.5 326.5,81.5C 326.119,83.9418 326.786,84.6085 328.5,83.5C 328.833,84 329.167,84.5 329.5,85C 328.767,86.7659 328.433,88.5992 328.5,90.5 Z"/></g>
<g><path style="opacity:1" fill="#fefdfd" d="M 202.5,134.5 C 205.763,140.905 208.263,147.572 210,154.5C 212.112,157.727 213.945,161.06 215.5,164.5C 215.755,166.967 216.755,168.967 218.5,170.5C 223.856,177.518 229.19,184.518 234.5,191.5C 234.833,191.5 235.167,191.5 235.5,191.5C 239.84,196.839 244.173,202.172 248.5,207.5C 249.968,212.714 250.635,218.047 250.5,223.5C 249.264,225.649 248.264,227.982 247.5,230.5C 244.5,232.833 241.833,235.5 239.5,238.5C 236.833,240.833 234.167,243.167 231.5,245.5C 223.778,248.845 215.778,249.845 207.5,248.5C 204.269,246.78 201.436,244.447 199,241.5C 194.97,235.321 190.804,229.321 186.5,223.5C 184.984,220.467 182.984,217.8 180.5,215.5C 172.157,203.491 161.824,193.491 149.5,185.5C 143.644,180.216 137.31,175.383 130.5,171C 127.438,169.795 124.438,168.628 121.5,167.5C 109.289,160.641 96.2888,155.308 82.5,151.5C 76.9957,147.324 72.9957,141.991 70.5,135.5C 69.9517,119.731 70.6183,104.065 72.5,88.5C 75.4287,80.9045 80.762,75.5712 88.5,72.5C 90.9892,72.7022 93.3225,72.2022 95.5,71C 128.48,70.5212 161.314,70.3545 194,70.5C 195.103,86.7715 196.103,103.105 197,119.5C 198.364,123.672 199.364,128.005 200,132.5C 200.333,132.167 200.667,131.833 201,131.5C 201.232,132.737 201.732,133.737 202.5,134.5 Z"/></g>
<g><path style="opacity:1" fill="#fcfcfb" d="M 319.5,78.5 C 320.15,80.4352 320.483,82.4352 320.5,84.5C 321.822,84.33 322.989,84.6634 324,85.5C 324.951,89.0266 326.284,92.3599 328,95.5C 328.5,130.498 328.667,165.498 328.5,200.5C 326.902,206.43 323.235,210.43 317.5,212.5C 312.626,212.642 307.959,211.976 303.5,210.5C 301.084,208.092 299.084,205.426 297.5,202.5C 297.5,201.833 297.5,201.167 297.5,200.5C 297.337,195.453 297.671,190.453 298.5,185.5C 299.319,183.228 299.985,180.894 300.5,178.5C 301.728,172.307 302.728,165.974 303.5,159.5C 304.268,158.737 304.768,157.737 305,156.5C 305.667,147.5 305.667,138.5 305,129.5C 304.722,128.584 304.222,127.918 303.5,127.5C 303.5,125.5 303.5,123.5 303.5,121.5C 302.621,115.281 301.287,109.281 299.5,103.5C 298.616,98.946 297.283,94.6127 295.5,90.5C 294.133,85.5645 292.466,80.7311 290.5,76C 290.863,73.8077 291.863,71.9744 293.5,70.5C 303.435,68.922 312.102,71.5887 319.5,78.5 Z"/></g>
<g><path style="opacity:1" fill="#dc786f" d="M 293.5,70.5 C 291.863,71.9744 290.863,73.8077 290.5,76C 292.466,80.7311 294.133,85.5645 295.5,90.5C 292.378,85.9194 290.044,80.9194 288.5,75.5C 289.049,72.7502 290.715,71.0835 293.5,70.5 Z"/></g>
<g><path style="opacity:1" fill="#e66252" d="M 90.5,70.5 C 89.8333,71.1667 89.1667,71.8333 88.5,72.5C 80.762,75.5712 75.4287,80.9045 72.5,88.5C 71.8333,89.1667 71.1667,89.8333 70.5,90.5C 70.5668,88.5992 70.2335,86.7659 69.5,85C 70.4235,83.1886 71.2569,83.3553 72,85.5C 72.3333,83.5 72.6667,81.5 73,79.5C 73.414,79.9574 73.914,80.2907 74.5,80.5C 74.8333,76.8333 76.8333,74.8333 80.5,74.5C 80.1667,73.8333 79.8333,73.1667 79.5,72.5C 81.3039,71.2839 82.9706,70.2839 84.5,69.5C 86.4086,70.3482 88.4086,70.6816 90.5,70.5 Z"/></g>
<g><path style="opacity:1" fill="#ea5e53" d="M 258.5,70.5 C 265.086,72.6723 268.586,77.339 269,84.5C 270.494,80.6959 271.328,81.0293 271.5,85.5C 273.103,85.3118 274.437,85.8118 275.5,87C 274.782,89.4607 274.115,91.9607 273.5,94.5C 275.69,98.21 276.69,102.21 276.5,106.5C 273.162,97.3279 269.328,88.3279 265,79.5C 263.293,77.9625 261.793,76.2959 260.5,74.5C 259.833,73.1667 259.167,71.8333 258.5,70.5 Z"/></g>
<g><path style="opacity:1" fill="#fddcd1" d="M 319.5,78.5 C 323.23,81.904 326.23,85.904 328.5,90.5C 328.5,90.8333 328.5,91.1667 328.5,91.5C 329.493,127.427 329.826,163.427 329.5,199.5C 329.5,199.833 329.5,200.167 329.5,200.5C 329.167,200.5 328.833,200.5 328.5,200.5C 328.667,165.498 328.5,130.498 328,95.5C 326.284,92.3599 324.951,89.0266 324,85.5C 322.989,84.6634 321.822,84.33 320.5,84.5C 320.483,82.4352 320.15,80.4352 319.5,78.5 Z"/></g>
<g><path style="opacity:1" fill="#e07872" d="M 295.5,90.5 C 297.283,94.6127 298.616,98.946 299.5,103.5C 296.793,99.6932 295.46,95.3599 295.5,90.5 Z"/></g>
<g><path style="opacity:1" fill="#e47b72" d="M 328.5,91.5 C 329.833,109.154 330.5,127.154 330.5,145.5C 330.5,163.67 330.167,181.67 329.5,199.5C 329.826,163.427 329.493,127.427 328.5,91.5 Z"/></g>
<g><path style="opacity:1" fill="#fcd6cb" d="M 72.5,88.5 C 70.6183,104.065 69.9517,119.731 70.5,135.5C 69.1776,120.931 69.1776,106.265 70.5,91.5C 70.5,91.1667 70.5,90.8333 70.5,90.5C 71.1667,89.8333 71.8333,89.1667 72.5,88.5 Z"/></g>
<g><path style="opacity:1" fill="#e9938a" d="M 220.5,79.5 C 220.428,90.183 220.762,100.85 221.5,111.5C 219.986,105.405 219.32,99.072 219.5,92.5C 219.501,87.9866 219.834,83.6533 220.5,79.5 Z"/></g>
<g><path style="opacity:1" fill="#ea6860" d="M 276.5,108.5 C 277.67,110.279 279.336,111.279 281.5,111.5C 281.02,116.822 280.687,122.155 280.5,127.5C 279.36,121.255 278.027,114.922 276.5,108.5 Z"/></g>
<g><path style="opacity:1" fill="#e37773" d="M 299.5,103.5 C 301.287,109.281 302.621,115.281 303.5,121.5C 302.307,121.03 301.64,120.03 301.5,118.5C 300.75,113.501 300.084,108.501 299.5,103.5 Z"/></g>
<g><path style="opacity:1" fill="#e0756e" d="M 195.5,70.5 C 197.388,72.9878 198.055,75.9878 197.5,79.5C 197.088,94.6488 198.088,109.649 200.5,124.5C 198.454,119.488 197.287,114.154 197,108.5C 196.814,95.7582 196.314,83.0915 195.5,70.5 Z"/></g>
<g><path style="opacity:1" fill="#e3695e" d="M 223.5,122.5 C 225.16,127.057 226.827,131.724 228.5,136.5C 227.21,135.942 226.377,134.942 226,133.5C 225.581,134.672 224.915,135.672 224,136.5C 224.824,131.832 224.657,127.165 223.5,122.5 Z"/></g>
<g><path style="opacity:1" fill="#e06d60" d="M 70.5,91.5 C 69.1776,106.265 69.1776,120.931 70.5,135.5C 72.9957,141.991 76.9957,147.324 82.5,151.5C 79.8728,150.908 77.2062,150.575 74.5,150.5C 73.1154,147.341 72.1154,144.008 71.5,140.5C 70.5,140.5 69.5,140.5 68.5,140.5C 67.8482,123.799 68.5149,107.466 70.5,91.5 Z"/></g>
<g><path style="opacity:1" fill="#e68575" d="M 303.5,127.5 C 304.222,127.918 304.722,128.584 305,129.5C 305.667,138.5 305.667,147.5 305,156.5C 304.768,157.737 304.268,158.737 303.5,159.5C 303.5,148.833 303.5,138.167 303.5,127.5 Z"/></g>
<g><path style="opacity:1" fill="#fac1bf" d="M 215.5,164.5 C 217.245,166.033 218.245,168.033 218.5,170.5C 216.755,168.967 215.755,166.967 215.5,164.5 Z"/></g>
<g><path style="opacity:1" fill="#e95f4f" d="M 121.5,167.5 C 124.438,168.628 127.438,169.795 130.5,171C 137.31,175.383 143.644,180.216 149.5,185.5C 145.585,184.209 141.919,182.376 138.5,180C 135.975,179.104 133.808,179.604 132,181.5C 131.187,179.564 130.687,177.564 130.5,175.5C 129.5,175.5 128.5,175.5 127.5,175.5C 127.5,174.167 127.5,172.833 127.5,171.5C 125.226,171.715 123.059,172.382 121,173.5C 120.167,173.333 119.333,173.167 118.5,173C 119.563,171.812 120.897,171.312 122.5,171.5C 122.567,170.041 122.234,168.708 121.5,167.5 Z"/></g>
<g><path style="opacity:1" fill="#d9786b" d="M 95.5,180.5 C 91.8183,180.335 88.1516,180.501 84.5,181C 81.2889,182.561 78.2889,184.395 75.5,186.5C 75.33,185.178 75.6634,184.011 76.5,183C 78.6314,182.457 80.6314,181.624 82.5,180.5C 86.9838,179.189 91.3171,179.189 95.5,180.5 Z"/></g>
<g><path style="opacity:1" fill="#ee5c4f" d="M 127.5,197.5 C 122.473,195.317 117.807,192.483 113.5,189C 109.578,187.202 105.578,185.702 101.5,184.5C 99.751,182.744 97.751,181.411 95.5,180.5C 104.748,179.182 113.748,179.849 122.5,182.5C 123.277,186.278 124.944,189.611 127.5,192.5C 126.624,193.251 125.624,193.751 124.5,194C 126.426,194.422 127.426,195.589 127.5,197.5 Z"/></g>
<g><path style="opacity:1" fill="#ef5b4c" d="M 255.5,69.5 C 253.833,69.5 252.167,69.5 250.5,69.5C 241.475,69.1685 232.475,69.5018 223.5,70.5C 220.923,72.9202 219.923,75.9202 220.5,79.5C 219.834,83.6533 219.501,87.9866 219.5,92.5C 219.32,99.072 219.986,105.405 221.5,111.5C 222.642,115.071 223.309,118.738 223.5,122.5C 224.657,127.165 224.824,131.832 224,136.5C 224.915,135.672 225.581,134.672 226,133.5C 226.377,134.942 227.21,135.942 228.5,136.5C 234.058,150.766 242.058,163.6 252.5,175C 259.059,178.158 265.726,178.324 272.5,175.5C 275.642,175.201 277.809,173.534 279,170.5C 280.237,166.94 280.737,163.273 280.5,159.5C 280.5,148.833 280.5,138.167 280.5,127.5C 282.314,137.786 283.148,148.453 283,159.5C 284.553,163.299 285.886,163.299 287,159.5C 287.333,148.833 287.667,138.167 288,127.5C 288.333,138.5 288.667,149.5 289,160.5C 290.087,162.932 290.587,162.598 290.5,159.5C 292.167,159.5 293.833,159.5 295.5,159.5C 295.431,162.084 294.265,164.084 292,165.5C 291.172,169.871 291.339,174.205 292.5,178.5C 294.513,175.46 295.847,172.127 296.5,168.5C 297.958,171.849 299.292,175.182 300.5,178.5C 299.985,180.894 299.319,183.228 298.5,185.5C 296.558,190.056 295.892,195.056 296.5,200.5C 295.833,195.319 295.167,189.985 294.5,184.5C 293.443,186.003 292.776,187.67 292.5,189.5C 294.185,194.515 295.185,199.682 295.5,205C 295.167,205.833 294.833,206.667 294.5,207.5C 292.833,201.5 291.167,195.5 289.5,189.5C 289.972,187.693 290.306,185.86 290.5,184C 288.981,179.369 288.148,174.536 288,169.5C 287.5,171 287,172.5 286.5,174C 288.636,180.179 288.969,182.679 287.5,181.5C 282.167,181.5 276.833,181.5 271.5,181.5C 271.5,180.5 271.5,179.5 271.5,178.5C 269.897,178.312 268.563,178.812 267.5,180C 268.833,181 270.167,182 271.5,183C 266.136,183.829 260.802,183.663 255.5,182.5C 252.461,180.46 250.127,177.793 248.5,174.5C 247.707,174.931 246.873,175.265 246,175.5C 244.7,174.293 243.2,173.626 241.5,173.5C 242.162,177.466 242.495,181.466 242.5,185.5C 241.5,185.5 240.5,185.5 239.5,185.5C 240.335,177.431 239.001,176.765 235.5,183.5C 236.383,184.548 237.05,185.715 237.5,187C 235.9,188.123 234.9,189.623 234.5,191.5C 229.19,184.518 223.856,177.518 218.5,170.5C 218.245,168.033 217.245,166.033 215.5,164.5C 213.945,161.06 212.112,157.727 210,154.5C 208.263,147.572 205.763,140.905 202.5,134.5C 202.041,131.123 201.374,127.789 200.5,124.5C 198.088,109.649 197.088,94.6488 197.5,79.5C 199.308,87.1659 200.808,95.1659 202,103.5C 202.497,100.854 202.664,98.1873 202.5,95.5C 203.5,95.5 204.5,95.5 205.5,95.5C 205.731,99.992 205.064,104.325 203.5,108.5C 205.823,116.74 206.156,125.074 204.5,133.5C 204.833,134.5 205.167,135.5 205.5,136.5C 206.932,133.673 207.599,130.673 207.5,127.5C 209.857,127.663 212.19,127.497 214.5,127C 215.184,125.307 216.184,123.807 217.5,122.5C 215.045,121.09 214.045,118.923 214.5,116C 218.826,100.408 219.66,84.5747 217,68.5C 216.167,67.6667 215.333,66.8333 214.5,66C 215.955,63.9838 217.955,63.1505 220.5,63.5C 220.5,64.8333 220.5,66.1667 220.5,67.5C 229.839,67.3335 239.173,67.5002 248.5,68C 251.036,68.1862 253.369,68.6862 255.5,69.5 Z"/></g>
<g><path style="opacity:1" fill="#e37069" d="M 280.5,159.5 C 280.737,163.273 280.237,166.94 279,170.5C 277.809,173.534 275.642,175.201 272.5,175.5C 276.794,170.912 279.461,165.578 280.5,159.5 Z"/></g>
<g><path style="opacity:1" fill="#fde9e1" d="M 95.5,180.5 C 97.751,181.411 99.751,182.744 101.5,184.5C 97.7732,183.316 93.9399,182.649 90,182.5C 86.2812,182.481 82.7812,183.148 79.5,184.5C 77.8226,187.701 76.3226,191.035 75,194.5C 73.9887,195.337 72.8221,195.67 71.5,195.5C 69.8959,210.226 70.2292,224.893 72.5,239.5C 74.2622,242.888 75.9289,246.221 77.5,249.5C 75.4727,248.139 73.806,246.473 72.5,244.5C 72.205,242.577 71.3717,240.91 70,239.5C 69.5001,225.504 69.3334,211.504 69.5,197.5C 70.7397,193.474 72.7397,189.808 75.5,186.5C 78.2889,184.395 81.2889,182.561 84.5,181C 88.1516,180.501 91.8183,180.335 95.5,180.5 Z"/></g>
<g><path style="opacity:1" fill="#fdfdfc" d="M 101.5,184.5 C 105.578,185.702 109.578,187.202 113.5,189C 117.807,192.483 122.473,195.317 127.5,197.5C 131.095,200.649 134.762,203.816 138.5,207C 140.078,208.094 141.745,208.928 143.5,209.5C 148.415,214.917 153.581,220.251 159,225.5C 162.363,230.35 165.863,235.017 169.5,239.5C 178.365,251.443 177.032,262.109 165.5,271.5C 152.844,272.79 140.178,272.79 127.5,271.5C 117.734,269.136 108.067,266.136 98.5,262.5C 91.03,258.931 84.03,254.598 77.5,249.5C 75.9289,246.221 74.2622,242.888 72.5,239.5C 70.2292,224.893 69.8959,210.226 71.5,195.5C 72.8221,195.67 73.9887,195.337 75,194.5C 76.3226,191.035 77.8226,187.701 79.5,184.5C 82.7812,183.148 86.2812,182.481 90,182.5C 93.9399,182.649 97.7732,183.316 101.5,184.5 Z"/></g>
<g><path style="opacity:1" fill="#e86353" d="M 249.5,207.5 C 249.167,207.5 248.833,207.5 248.5,207.5C 244.173,202.172 239.84,196.839 235.5,191.5C 236.735,191.279 237.735,190.612 238.5,189.5C 238.533,190.989 239.033,192.322 240,193.5C 240.333,193.167 240.667,192.833 241,192.5C 243.228,194.113 245.728,194.78 248.5,194.5C 248.778,197.29 248.111,199.79 246.5,202C 248.112,203.482 249.112,205.315 249.5,207.5 Z"/></g>
<g><path style="opacity:1" fill="#f08683" d="M 298.5,185.5 C 297.671,190.453 297.337,195.453 297.5,200.5C 297.167,200.5 296.833,200.5 296.5,200.5C 295.892,195.056 296.558,190.056 298.5,185.5 Z"/></g>
<g><path style="opacity:1" fill="#e76557" d="M 143.5,209.5 C 141.745,208.928 140.078,208.094 138.5,207C 134.762,203.816 131.095,200.649 127.5,197.5C 129.558,196.067 131.892,195.4 134.5,195.5C 134.215,197.288 134.548,198.955 135.5,200.5C 136.736,199.754 138.07,199.421 139.5,199.5C 139.67,200.822 139.337,201.989 138.5,203C 140.107,202.981 141.774,202.815 143.5,202.5C 143.52,204.143 142.853,205.476 141.5,206.5C 142.612,207.265 143.279,208.265 143.5,209.5 Z"/></g>
<g><path style="opacity:1" fill="#dd6e66" d="M 297.5,202.5 C 299.084,205.426 301.084,208.092 303.5,210.5C 304.5,211.167 305.5,211.833 306.5,212.5C 300.342,212.261 297.342,208.928 297.5,202.5 Z"/></g>
<g><path style="opacity:1" fill="#e4776f" d="M 69.5,197.5 C 69.3334,211.504 69.5001,225.504 70,239.5C 71.3717,240.91 72.205,242.577 72.5,244.5C 70.9826,244.489 69.8159,243.823 69,242.5C 68.1723,227.328 68.3389,212.328 69.5,197.5 Z"/></g>
<g><path style="opacity:1" fill="#ee5b4d" d="M 149.5,185.5 C 161.824,193.491 172.157,203.491 180.5,215.5C 178.139,213.126 175.473,212.293 172.5,213C 170.826,211.494 169.826,209.661 169.5,207.5C 167.4,207.523 165.567,206.856 164,205.5C 163.5,205.833 163,206.167 162.5,206.5C 163.244,209.443 163.744,212.443 164,215.5C 166.924,216.734 169.591,218.401 172,220.5C 172.718,224.177 173.051,227.843 173,231.5C 170.481,226.001 168.314,226.168 166.5,232C 167.899,232.595 169.232,232.428 170.5,231.5C 170.833,232.333 171.167,233.167 171.5,234C 170.622,235.8 169.955,237.633 169.5,239.5C 165.863,235.017 162.363,230.35 159,225.5C 153.581,220.251 148.415,214.917 143.5,209.5C 144.675,209.719 145.675,209.386 146.5,208.5C 149.531,201.113 153.531,200.78 158.5,207.5C 160.749,206.011 161.582,204.011 161,201.5C 159.94,198.334 157.773,196.334 154.5,195.5C 153.571,194.311 153.238,192.978 153.5,191.5C 148.78,191.775 148.446,190.941 152.5,189C 150.944,188.28 149.944,187.113 149.5,185.5 Z"/></g>
<g><path style="opacity:1" fill="#e47167" d="M 328.5,200.5 C 328.833,200.5 329.167,200.5 329.5,200.5C 328.75,210.749 323.25,215.416 313,214.5C 310.39,214.467 308.223,213.8 306.5,212.5C 310.301,213.715 313.967,213.715 317.5,212.5C 323.235,210.43 326.902,206.43 328.5,200.5 Z"/></g>
<g><path style="opacity:1" fill="#fcd2c8" d="M 303.5,210.5 C 307.959,211.976 312.626,212.642 317.5,212.5C 313.967,213.715 310.301,213.715 306.5,212.5C 305.5,211.833 304.5,211.167 303.5,210.5 Z"/></g>
<g><path style="opacity:1" fill="#dd9182" d="M 248.5,207.5 C 248.833,207.5 249.167,207.5 249.5,207.5C 250.852,210.835 251.519,214.335 251.5,218C 251.494,220.033 251.161,221.866 250.5,223.5C 250.635,218.047 249.968,212.714 248.5,207.5 Z"/></g>
<g><path style="opacity:1" fill="#f3574a" d="M 180.5,215.5 C 182.984,217.8 184.984,220.467 186.5,223.5C 186.081,226.325 187.081,228.491 189.5,230C 188.754,232.093 188.421,234.093 188.5,236C 190.577,236.192 192.577,236.692 194.5,237.5C 194.167,238.5 193.5,239.167 192.5,239.5C 190.19,237.588 187.523,236.588 184.5,236.5C 184.5,237.5 184.5,238.5 184.5,239.5C 182.5,239.5 180.5,239.5 178.5,239.5C 178.5,238.5 178.5,237.5 178.5,236.5C 177.07,236.579 175.736,236.246 174.5,235.5C 172.889,236.32 172.222,237.654 172.5,239.5C 171.5,239.5 170.5,239.5 169.5,239.5C 169.955,237.633 170.622,235.8 171.5,234C 171.167,233.167 170.833,232.333 170.5,231.5C 169.232,232.428 167.899,232.595 166.5,232C 168.314,226.168 170.481,226.001 173,231.5C 173.051,227.843 172.718,224.177 172,220.5C 169.591,218.401 166.924,216.734 164,215.5C 163.744,212.443 163.244,209.443 162.5,206.5C 163,206.167 163.5,205.833 164,205.5C 165.567,206.856 167.4,207.523 169.5,207.5C 169.826,209.661 170.826,211.494 172.5,213C 175.473,212.293 178.139,213.126 180.5,215.5 Z"/></g>
<g><path style="opacity:1" fill="#e56762" d="M 303.5,235.5 C 298.874,234.627 294.208,233.96 289.5,233.5C 284.23,233.977 279.23,235.31 274.5,237.5C 274.5,236.5 274.5,235.5 274.5,234.5C 279.138,233.15 283.972,232.484 289,232.5C 294.224,232.2 299.057,233.2 303.5,235.5 Z"/></g>
<g><path style="opacity:1" fill="#eb827c" d="M 247.5,230.5 C 245.833,234.167 243.167,236.833 239.5,238.5C 241.833,235.5 244.5,232.833 247.5,230.5 Z"/></g>
<g><path style="opacity:1" fill="#fdfdfd" d="M 303.5,235.5 C 311.373,237.647 318.373,241.647 324.5,247.5C 325.847,250.193 327.18,252.86 328.5,255.5C 328.667,271.503 328.5,287.503 328,303.5C 326.06,306.928 324.894,310.594 324.5,314.5C 322.167,318.833 318.833,322.167 314.5,324.5C 310.594,324.894 306.928,326.06 303.5,328C 282.169,328.5 260.836,328.667 239.5,328.5C 238.5,328.5 237.5,328.5 236.5,328.5C 230.58,325.415 225.746,321.082 222,315.5C 220.641,311.595 219.808,307.595 219.5,303.5C 219.449,296.816 220.949,290.483 224,284.5C 225.978,285.816 227.478,285.316 228.5,283C 227.572,282.612 226.905,281.945 226.5,281C 227.555,279.493 228.555,277.993 229.5,276.5C 238.745,270.258 247.412,263.258 255.5,255.5C 259.5,252.167 263.167,248.5 266.5,244.5C 268.5,243.167 270.167,241.5 271.5,239.5C 272.5,238.833 273.5,238.167 274.5,237.5C 279.23,235.31 284.23,233.977 289.5,233.5C 294.208,233.96 298.874,234.627 303.5,235.5 Z"/></g>
<g><path style="opacity:1" fill="#e6675c" d="M 303.5,235.5 C 307.182,235.335 310.848,235.501 314.5,236C 317.067,238.314 319.733,240.481 322.5,242.5C 323.562,244.022 324.229,245.688 324.5,247.5C 318.373,241.647 311.373,237.647 303.5,235.5 Z"/></g>
<g><path style="opacity:1" fill="#d88277" d="M 271.5,239.5 C 270.167,241.5 268.5,243.167 266.5,244.5C 267.167,241.833 268.833,240.167 271.5,239.5 Z"/></g>
<g><path style="opacity:1" fill="#fee6d7" d="M 231.5,245.5 C 229.636,247.014 227.636,248.347 225.5,249.5C 220.897,250.383 216.23,250.717 211.5,250.5C 210.005,250.011 208.671,249.345 207.5,248.5C 215.778,249.845 223.778,248.845 231.5,245.5 Z"/></g>
<g><path style="opacity:1" fill="#dd8e7a" d="M 225.5,249.5 C 225.389,250.117 225.056,250.617 224.5,251C 219.98,251.814 215.646,251.647 211.5,250.5C 216.23,250.717 220.897,250.383 225.5,249.5 Z"/></g>
<g><path style="opacity:1" fill="#e96055" d="M 255.5,255.5 C 247.412,263.258 238.745,270.258 229.5,276.5C 227.938,276.733 226.605,277.4 225.5,278.5C 225.5,277.5 225.5,276.5 225.5,275.5C 227.942,275.646 228.609,274.813 227.5,273C 229.256,272.798 230.922,272.298 232.5,271.5C 233.03,267.299 235.363,265.299 239.5,265.5C 239.5,263.833 239.5,262.167 239.5,260.5C 243.582,260.879 247.249,259.879 250.5,257.5C 250.291,256.914 249.957,256.414 249.5,256C 251.473,255.505 253.473,255.338 255.5,255.5 Z"/></g>
<g><path style="opacity:1" fill="#e56558" d="M 98.5,262.5 C 108.067,266.136 117.734,269.136 127.5,271.5C 118.35,271.152 109.35,269.819 100.5,267.5C 101.376,266.749 102.376,266.249 103.5,266C 101.404,265.263 99.7373,264.097 98.5,262.5 Z"/></g>
<g><path style="opacity:1" fill="#fddbd0" d="M 328.5,255.5 C 328.833,255.5 329.167,255.5 329.5,255.5C 329.667,271.837 329.5,288.17 329,304.5C 328.209,305.745 327.709,307.078 327.5,308.5C 326.87,310.75 325.87,312.75 324.5,314.5C 324.894,310.594 326.06,306.928 328,303.5C 328.5,287.503 328.667,271.503 328.5,255.5 Z"/></g>
<g><path style="opacity:1" fill="#e37970" d="M 329.5,255.5 C 330.827,272.671 330.827,290.005 329.5,307.5C 328.817,307.863 328.15,308.196 327.5,308.5C 327.709,307.078 328.209,305.745 329,304.5C 329.5,288.17 329.667,271.837 329.5,255.5 Z"/></g>
<g><path style="opacity:1" fill="#e66f67" d="M 127.5,271.5 C 140.178,272.79 152.844,272.79 165.5,271.5C 165.182,273.818 163.848,275.152 161.5,275.5C 150.86,274.712 140.194,274.212 129.5,274C 128.244,273.583 127.577,272.75 127.5,271.5 Z"/></g>
<g><path style="opacity:1" fill="#e36962" d="M 223.5,280.5 C 223.416,283.682 222.083,286.015 219.5,287.5C 219.674,285.139 220.007,282.806 220.5,280.5C 221.5,280.5 222.5,280.5 223.5,280.5 Z"/></g>
<g><path style="opacity:1" fill="#e86257" d="M 127.5,294.5 C 124.098,294.658 120.764,294.324 117.5,293.5C 115.898,291.926 113.898,291.259 111.5,291.5C 102.315,288.912 93.1487,286.245 84,283.5C 81.4088,283.565 78.9088,284.065 76.5,285C 75.5291,286.481 74.1958,287.315 72.5,287.5C 72.8588,285.629 73.8588,284.129 75.5,283C 83.0238,282.749 90.5238,282.249 98,281.5C 101.882,282.216 103.715,284.549 103.5,288.5C 105.547,288.489 107.547,288.156 109.5,287.5C 112.028,288.169 112.028,289.002 109.5,290C 115.911,290.879 121.911,292.379 127.5,294.5 Z"/></g>
<g><path style="opacity:1" fill="#fdfcfb" d="M 111.5,291.5 C 113.102,293.074 115.102,293.741 117.5,293.5C 120.764,294.324 124.098,294.658 127.5,294.5C 128.952,295.302 130.618,295.802 132.5,296C 146.176,296.671 159.842,296.505 173.5,295.5C 187.62,294.87 194.953,301.537 195.5,315.5C 193.909,322.09 189.909,326.423 183.5,328.5C 154.165,328.667 124.831,328.5 95.5,328C 91.686,326.067 87.686,324.567 83.5,323.5C 77.841,319.86 73.841,314.86 71.5,308.5C 68.6719,301.412 69.0053,294.412 72.5,287.5C 74.1958,287.315 75.5291,286.481 76.5,285C 78.9088,284.065 81.4088,283.565 84,283.5C 93.1487,286.245 102.315,288.912 111.5,291.5 Z"/></g>
<g><path style="opacity:1" fill="#fce6dd" d="M 229.5,276.5 C 228.555,277.993 227.555,279.493 226.5,281C 226.905,281.945 227.572,282.612 228.5,283C 227.478,285.316 225.978,285.816 224,284.5C 220.949,290.483 219.449,296.816 219.5,303.5C 219.167,303.5 218.833,303.5 218.5,303.5C 218.569,298.146 218.902,292.813 219.5,287.5C 222.083,286.015 223.416,283.682 223.5,280.5C 224.5,280.167 225.167,279.5 225.5,278.5C 226.605,277.4 227.938,276.733 229.5,276.5 Z"/></g>
<g><path style="opacity:1" fill="#eca597" d="M 111.5,291.5 C 113.898,291.259 115.898,291.926 117.5,293.5C 115.102,293.741 113.102,293.074 111.5,291.5 Z"/></g>
<g><path style="opacity:1" fill="#e5665d" d="M 195.5,315.5 C 194.953,301.537 187.62,294.87 173.5,295.5C 159.842,296.505 146.176,296.671 132.5,296C 130.618,295.802 128.952,295.302 127.5,294.5C 147.18,295.04 166.846,295.373 186.5,295.5C 188.056,294.453 189.723,293.786 191.5,293.5C 191.67,294.822 191.337,295.989 190.5,297C 194.019,296.853 196.019,298.52 196.5,302C 196.527,306.608 196.194,311.108 195.5,315.5 Z"/></g>
<g><path style="opacity:1" fill="#d96c64" d="M 219.5,287.5 C 218.902,292.813 218.569,298.146 218.5,303.5C 217.837,301.527 217.504,299.361 217.5,297C 217.328,293.523 217.994,290.356 219.5,287.5 Z"/></g>
<g><path style="opacity:1" fill="#df776a" d="M 72.5,287.5 C 69.0053,294.412 68.6719,301.412 71.5,308.5C 70.5416,308.047 69.7083,307.381 69,306.5C 68.3333,301.833 68.3333,297.167 69,292.5C 69.5494,290.24 70.716,288.574 72.5,287.5 Z"/></g>
<g><path style="opacity:1" fill="#fedcd1" d="M 83.5,324.5 C 83.5,324.167 83.5,323.833 83.5,323.5C 87.686,324.567 91.686,326.067 95.5,328C 124.831,328.5 154.165,328.667 183.5,328.5C 183.158,329.338 182.492,329.672 181.5,329.5C 152.165,329.667 122.831,329.5 93.5,329C 90.0628,327.782 86.7295,326.282 83.5,324.5 Z"/></g>
<g><path style="opacity:1" fill="#fcdbd0" d="M 314.5,324.5 C 310.961,326.351 307.294,328.018 303.5,329.5C 281.993,329.831 260.66,329.497 239.5,328.5C 260.836,328.667 282.169,328.5 303.5,328C 306.928,326.06 310.594,324.894 314.5,324.5 Z"/></g>
<g><path style="opacity:1" fill="#e27a70" d="M 83.5,324.5 C 86.7295,326.282 90.0628,327.782 93.5,329C 122.831,329.5 152.165,329.667 181.5,329.5C 152.003,330.664 122.336,330.831 92.5,330C 89.9938,328.701 87.3272,327.701 84.5,327C 83.7476,326.329 83.4142,325.496 83.5,324.5 Z"/></g>
<g><path style="opacity:1" fill="#e37b72" d="M 236.5,328.5 C 237.5,328.5 238.5,328.5 239.5,328.5C 260.66,329.497 281.993,329.831 303.5,329.5C 282.004,330.663 260.337,330.829 238.5,330C 237.584,329.722 236.918,329.222 236.5,328.5 Z"/></g>
</svg>
