<?xml version="1.0" encoding="UTF-8"?>
<!DOCTYPE svg PUBLIC "-//W3C//DTD SVG 1.1//EN" "http://www.w3.org/Graphics/SVG/1.1/DTD/svg11.dtd">
<svg xmlns="http://www.w3.org/2000/svg" version="1.1" width="320px" height="320px" style="shape-rendering:geometricPrecision; text-rendering:geometricPrecision; image-rendering:optimizeQuality; fill-rule:evenodd; clip-rule:evenodd" xmlns:xlink="http://www.w3.org/1999/xlink">
<g><path style="opacity:0.993" fill="#000000" d="M 141.5,-0.5 C 153.5,-0.5 165.5,-0.5 177.5,-0.5C 245.031,10.2025 290.197,47.8692 313,112.5C 315.764,122.17 317.931,131.837 319.5,141.5C 319.5,153.5 319.5,165.5 319.5,177.5C 308.798,245.031 271.131,290.197 206.5,313C 196.83,315.764 187.163,317.931 177.5,319.5C 165.5,319.5 153.5,319.5 141.5,319.5C 73.9694,308.798 28.8028,271.131 6,206.5C 3.23573,196.83 1.06906,187.163 -0.5,177.5C -0.5,165.5 -0.5,153.5 -0.5,141.5C 10.2025,73.9694 47.8692,28.8028 112.5,6C 122.17,3.23573 131.837,1.06906 141.5,-0.5 Z"/></g>
<g><path style="opacity:1" fill="#fafafa" d="M 105.5,272.5 C 111.833,271.833 118.167,271.167 124.5,270.5C 171.638,263.842 204.805,238.842 224,195.5C 242.97,136.418 227.804,88.2512 178.5,51C 170.959,46.7299 163.293,42.7299 155.5,39C 202.13,44.9256 235.297,69.4256 255,112.5C 273.383,166.214 261.883,212.381 220.5,251C 185.843,277.461 147.51,284.627 105.5,272.5 Z"/></g>
<g><path style="opacity:1" fill="#fdfdfd" d="M 96.5,100.5 C 124.484,97.5661 143.984,108.899 155,134.5C 160.351,156.615 154.517,175.115 137.5,190C 124.795,198.742 110.795,201.742 95.5,199C 67.447,189.076 54.947,169.243 58,139.5C 63.6951,119.306 76.5284,106.306 96.5,100.5 Z"/></g>
<g><path style="opacity:1" fill="#a6a6a6" d="M 124.5,270.5 C 118.167,271.167 111.833,271.833 105.5,272.5C 104.711,272.217 104.044,271.717 103.5,271C 110.492,270.5 117.492,270.334 124.5,270.5 Z"/></g>
</svg>
