<?xml version="1.0" encoding="UTF-8"?>
<!DOCTYPE svg PUBLIC "-//W3C//DTD SVG 1.1//EN" "http://www.w3.org/Graphics/SVG/1.1/DTD/svg11.dtd">
<svg xmlns="http://www.w3.org/2000/svg" version="1.1" width="400px" height="400px" style="shape-rendering:geometricPrecision; text-rendering:geometricPrecision; image-rendering:optimizeQuality; fill-rule:evenodd; clip-rule:evenodd" xmlns:xlink="http://www.w3.org/1999/xlink">
<g><path style="opacity:1" fill="#000000" d="M -0.5,-0.5 C 132.5,-0.5 265.5,-0.5 398.5,-0.5C 398.5,132.5 398.5,265.5 398.5,398.5C 265.5,398.5 132.5,398.5 -0.5,398.5C -0.5,265.5 -0.5,132.5 -0.5,-0.5 Z"/></g>
<g><path style="opacity:1" fill="#3993b3" d="M 264.5,61.5 C 265.85,62.6499 265.684,63.3166 264,63.5C 255.855,62.4527 247.688,62.4527 239.5,63.5C 239.5,64.8333 239.5,66.1667 239.5,67.5C 239.167,68.5 238.5,69.1667 237.5,69.5C 236.866,68.0532 235.699,67.3866 234,67.5C 232.061,67.9543 230.228,68.621 228.5,69.5C 232.608,65.2542 237.608,62.4209 243.5,61C 250.58,60.2055 257.58,60.3722 264.5,61.5 Z"/></g>
<g><path style="opacity:1" fill="#3299ce" d="M 209.5,111.5 C 209.5,110.167 209.5,108.833 209.5,107.5C 210.496,107.586 211.329,107.252 212,106.5C 212.785,118.865 212.451,131.198 211,143.5C 209.957,132.857 209.457,122.191 209.5,111.5 Z"/></g>
<g><path style="opacity:1" fill="#0c263a" d="M 208.5,140.5 C 209.201,147.037 209.868,153.703 210.5,160.5C 188.19,160.746 165.857,160.746 143.5,160.5C 164.683,159.422 186.017,159.256 207.5,160C 208.478,153.59 208.811,147.09 208.5,140.5 Z"/></g>
<g><path style="opacity:1" fill="#355e7a" d="M 274.5,185.5 C 266.684,186.492 258.684,186.826 250.5,186.5C 250.5,190.167 250.5,193.833 250.5,197.5C 249.517,193.702 249.183,189.702 249.5,185.5C 257.833,185.5 266.167,185.5 274.5,185.5 Z"/></g>
<g><path style="opacity:1" fill="#0b131d" d="M 310.5,178.5 C 308.41,180.39 306.077,182.057 303.5,183.5C 301.608,182.187 299.941,182.354 298.5,184C 301.845,185.006 304.845,186.506 307.5,188.5C 306.833,188.833 306.167,189.167 305.5,189.5C 296.768,185.627 287.768,184.793 278.5,187C 282.5,187.833 286.5,188.667 290.5,189.5C 288,189.833 285.5,190.167 283,190.5C 272.66,188.283 262.16,187.283 251.5,187.5C 251.83,207.007 251.497,226.341 250.5,245.5C 250.5,229.5 250.5,213.5 250.5,197.5C 250.5,193.833 250.5,190.167 250.5,186.5C 258.684,186.826 266.684,186.492 274.5,185.5C 286.914,185.217 298.914,182.884 310.5,178.5 Z"/></g>
<g><path style="opacity:1" fill="#060914" d="M 82.5,177.5 C 79.5375,180.964 76.3709,184.297 73,187.5C 71.2138,190.736 69.7138,194.07 68.5,197.5C 67.3995,199.277 66.5662,201.277 66,203.5C 65.5003,210.826 65.3337,218.159 65.5,225.5C 64.5863,216.854 64.2529,208.187 64.5,199.5C 64.8868,197.726 65.5535,196.059 66.5,194.5C 63.6696,192.342 63.0029,189.676 64.5,186.5C 65.4519,188.045 65.7852,189.712 65.5,191.5C 66.8221,191.67 67.9887,191.337 69,190.5C 71.7249,186.038 74.8916,181.872 78.5,178C 77.376,177.751 76.376,177.251 75.5,176.5C 76.1667,176.167 76.8333,175.833 77.5,175.5C 79.0564,176.547 80.7231,177.214 82.5,177.5 Z"/></g>
<g><path style="opacity:1" fill="#2f7191" d="M 68.5,197.5 C 66.7274,206.697 66.0607,216.03 66.5,225.5C 66.1667,225.5 65.8333,225.5 65.5,225.5C 65.3337,218.159 65.5003,210.826 66,203.5C 66.5662,201.277 67.3995,199.277 68.5,197.5 Z"/></g>
<g><path style="opacity:1" fill="#080d15" d="M 250.5,247.5 C 250.823,255.09 250.157,262.59 248.5,270C 248.667,271.5 248.833,273 249,274.5C 249.249,273.376 249.749,272.376 250.5,271.5C 251.552,273.542 252.219,275.708 252.5,278C 251.076,282.348 249.243,286.514 247,290.5C 246.529,288.754 245.862,287.087 245,285.5C 244.216,288.76 244.383,291.927 245.5,295C 243.206,297.216 241.872,296.716 241.5,293.5C 245.994,278.33 248.994,262.997 250.5,247.5 Z"/></g>
<g><path style="opacity:1" fill="#3497c3" d="M 264.5,61.5 C 285.775,67.225 302.608,79.225 315,97.5C 324.102,110.131 330.102,124.131 333,139.5C 334.713,158.102 327.213,171.102 310.5,178.5C 298.914,182.884 286.914,185.217 274.5,185.5C 266.167,185.5 257.833,185.5 249.5,185.5C 249.183,189.702 249.517,193.702 250.5,197.5C 250.5,213.5 250.5,229.5 250.5,245.5C 250.5,246.167 250.5,246.833 250.5,247.5C 248.994,262.997 245.994,278.33 241.5,293.5C 232.362,322.453 212.362,337.453 181.5,338.5C 162.691,336.967 145.357,331.133 129.5,321C 95.3314,297.823 74.3314,265.99 66.5,225.5C 66.0607,216.03 66.7274,206.697 68.5,197.5C 69.7138,194.07 71.2138,190.736 73,187.5C 76.3709,184.297 79.5375,180.964 82.5,177.5C 101.075,166.102 121.408,160.435 143.5,160.5C 165.857,160.746 188.19,160.746 210.5,160.5C 209.868,153.703 209.201,147.037 208.5,140.5C 208.173,130.652 208.506,120.986 209.5,111.5C 209.457,122.191 209.957,132.857 211,143.5C 212.451,131.198 212.785,118.865 212,106.5C 211.329,107.252 210.496,107.586 209.5,107.5C 211.08,92.3401 217.413,79.6734 228.5,69.5C 230.228,68.621 232.061,67.9543 234,67.5C 235.699,67.3866 236.866,68.0532 237.5,69.5C 225.583,77.6324 218.417,88.9657 216,103.5C 214.045,124.835 214.211,146.168 216.5,167.5C 215.167,167.5 213.833,167.5 212.5,167.5C 203.825,167.344 195.158,167.011 186.5,166.5C 172.016,165.246 157.682,165.246 143.5,166.5C 138.13,166.392 132.797,166.725 127.5,167.5C 108.993,169.094 92.9933,176.094 79.5,188.5C 69.962,203.505 68.1287,219.505 74,236.5C 86.0795,275.588 110.246,304.755 146.5,324C 165.691,333.531 185.357,334.865 205.5,328C 217.579,322.739 226.412,314.239 232,302.5C 242.051,275.442 246.551,247.442 245.5,218.5C 245.615,205.773 244.949,193.106 243.5,180.5C 258.232,180.854 272.899,180.187 287.5,178.5C 292.052,177.943 296.385,176.943 300.5,175.5C 311.034,173.157 319.201,167.49 325,158.5C 326.31,154.93 327.143,151.263 327.5,147.5C 327.938,141.129 326.938,135.129 324.5,129.5C 317.443,107.943 304.777,90.4429 286.5,77C 276.085,69.9729 264.585,66.1396 252,65.5C 247.812,66.1148 243.645,66.7815 239.5,67.5C 239.5,66.1667 239.5,64.8333 239.5,63.5C 247.688,62.4527 255.855,62.4527 264,63.5C 265.684,63.3166 265.85,62.6499 264.5,61.5 Z"/></g>
<g><path style="opacity:1" fill="#62cff0" d="M 300.5,175.5 C 296.385,176.943 292.052,177.943 287.5,178.5C 283.777,177.206 283.777,176.039 287.5,175C 274.178,174.112 260.845,173.445 247.5,173C 242.408,171.33 242.408,170.497 247.5,170.5C 250.167,170.5 252.833,170.5 255.5,170.5C 270.037,171.294 284.704,172.294 299.5,173.5C 299.5,171.833 299.5,170.167 299.5,168.5C 300.833,168.5 302.167,168.5 303.5,168.5C 303.33,169.822 303.663,170.989 304.5,172C 302.999,173.252 301.332,174.252 299.5,175C 299.728,175.399 300.062,175.565 300.5,175.5 Z"/></g>
<g><path style="opacity:1" fill="#64cbfa" d="M 143.5,166.5 C 149.631,167.83 156.131,168.497 163,168.5C 169.5,168.333 176,168.167 182.5,168C 184.058,167.79 185.391,167.29 186.5,166.5C 195.158,167.011 203.825,167.344 212.5,167.5C 209.402,168.821 205.902,169.488 202,169.5C 180.158,171.953 158.324,171.953 136.5,169.5C 133.777,169.551 131.11,169.884 128.5,170.5C 127.614,169.675 127.281,168.675 127.5,167.5C 132.797,166.725 138.13,166.392 143.5,166.5 Z"/></g>
<g><path style="opacity:1" fill="#61ceef" d="M 186.5,166.5 C 185.391,167.29 184.058,167.79 182.5,168C 176,168.167 169.5,168.333 163,168.5C 156.131,168.497 149.631,167.83 143.5,166.5C 157.682,165.246 172.016,165.246 186.5,166.5 Z"/></g>
<g><path style="opacity:1" fill="#63cdf0" d="M 324.5,129.5 C 326.938,135.129 327.938,141.129 327.5,147.5C 325.726,148.881 324.226,148.548 323,146.5C 321.413,150.756 321.246,155.089 322.5,159.5C 321.5,159.5 320.5,159.5 319.5,159.5C 319.777,156.552 319.444,153.719 318.5,151C 319.317,143.246 319.817,135.412 320,127.5C 321.21,132.804 321.71,138.137 321.5,143.5C 324.197,139.286 325.197,134.62 324.5,129.5 Z"/></g>
<g><path style="opacity:1" fill="#63ccf4" d="M 324.5,129.5 C 325.197,134.62 324.197,139.286 321.5,143.5C 321.71,138.137 321.21,132.804 320,127.5C 319.817,135.412 319.317,143.246 318.5,151C 319.444,153.719 319.777,156.552 319.5,159.5C 320.5,159.5 321.5,159.5 322.5,159.5C 321.246,155.089 321.413,150.756 323,146.5C 324.226,148.548 325.726,148.881 327.5,147.5C 327.143,151.263 326.31,154.93 325,158.5C 319.201,167.49 311.034,173.157 300.5,175.5C 300.062,175.565 299.728,175.399 299.5,175C 301.332,174.252 302.999,173.252 304.5,172C 303.663,170.989 303.33,169.822 303.5,168.5C 302.167,168.5 300.833,168.5 299.5,168.5C 299.5,170.167 299.5,171.833 299.5,173.5C 284.704,172.294 270.037,171.294 255.5,170.5C 262.224,170.756 268.891,170.423 275.5,169.5C 314.838,165.166 325.671,145.166 308,109.5C 306.021,105.7 303.521,102.366 300.5,99.5C 297.167,94.1667 292.833,89.8333 287.5,86.5C 287.158,85.6618 286.492,85.3284 285.5,85.5C 276.209,77.8422 265.543,74.8422 253.5,76.5C 251.856,76.8102 250.856,77.8102 250.5,79.5C 245.725,88.5032 242.891,98.1698 242,108.5C 241.404,128.84 241.571,149.174 242.5,169.5C 244.415,169.216 246.081,169.549 247.5,170.5C 242.408,170.497 242.408,171.33 247.5,173C 260.845,173.445 274.178,174.112 287.5,175C 283.777,176.039 283.777,177.206 287.5,178.5C 272.899,180.187 258.232,180.854 243.5,180.5C 244.949,193.106 245.615,205.773 245.5,218.5C 246.551,247.442 242.051,275.442 232,302.5C 226.412,314.239 217.579,322.739 205.5,328C 185.357,334.865 165.691,333.531 146.5,324C 110.246,304.755 86.0795,275.588 74,236.5C 68.1287,219.505 69.962,203.505 79.5,188.5C 92.9933,176.094 108.993,169.094 127.5,167.5C 127.281,168.675 127.614,169.675 128.5,170.5C 131.11,169.884 133.777,169.551 136.5,169.5C 158.324,171.953 180.158,171.953 202,169.5C 205.902,169.488 209.402,168.821 212.5,167.5C 213.833,167.5 215.167,167.5 216.5,167.5C 214.211,146.168 214.045,124.835 216,103.5C 218.417,88.9657 225.583,77.6324 237.5,69.5C 238.5,69.1667 239.167,68.5 239.5,67.5C 243.645,66.7815 247.812,66.1148 252,65.5C 264.585,66.1396 276.085,69.9729 286.5,77C 304.777,90.4429 317.443,107.943 324.5,129.5 Z"/></g>
<g><path style="opacity:1" fill="#3694b9" d="M 139.5,177.5 C 137.852,178.927 135.852,179.76 133.5,180C 155.563,180.813 177.563,180.48 199.5,179C 200.337,180.011 200.67,181.178 200.5,182.5C 204.39,182.728 208.224,182.394 212,181.5C 213.285,181.95 214.452,182.617 215.5,183.5C 216.149,185.624 216.983,187.624 218,189.5C 218.333,188.833 218.667,188.167 219,187.5C 219.015,195.155 218.848,202.822 218.5,210.5C 216.922,203.543 215.589,196.543 214.5,189.5C 215.265,184.094 212.931,182.094 207.5,183.5C 184.889,181.539 162.222,181.039 139.5,182C 129.95,183.221 120.617,185.387 111.5,188.5C 111.577,187.25 112.244,186.417 113.5,186C 116.365,185.163 119.198,184.33 122,183.5C 122.167,183.167 122.333,182.833 122.5,182.5C 120.604,181.534 118.604,181.201 116.5,181.5C 118.877,180.113 121.543,179.279 124.5,179C 129.496,178.389 134.496,177.889 139.5,177.5 Z"/></g>
<g><path style="opacity:1" fill="#3399c3" d="M 289.5,95.5 C 291.672,96.8011 294.005,97.8011 296.5,98.5C 296.351,99.552 296.517,100.552 297,101.5C 299.316,103.47 301.149,105.804 302.5,108.5C 302.833,107.833 303.167,107.167 303.5,106.5C 302.023,104.361 301.023,102.028 300.5,99.5C 303.521,102.366 306.021,105.7 308,109.5C 325.671,145.166 314.838,165.166 275.5,169.5C 276.058,168.21 277.058,167.377 278.5,167C 282.541,166.827 286.541,166.327 290.5,165.5C 290.167,164.5 289.5,163.833 288.5,163.5C 284.235,164.439 279.902,164.772 275.5,164.5C 275.5,164.167 275.5,163.833 275.5,163.5C 309.918,160.842 319.251,144.009 303.5,113C 299.664,106.49 294.997,100.656 289.5,95.5 Z"/></g>
<g><path style="opacity:1" fill="#091824" d="M 250.5,95.5 C 250.924,99.7032 250.424,103.703 249,107.5C 248.5,126.164 248.333,144.83 248.5,163.5C 257.5,163.5 266.5,163.5 275.5,163.5C 275.5,163.833 275.5,164.167 275.5,164.5C 266.167,164.5 256.833,164.5 247.5,164.5C 246.55,146.842 246.384,129.175 247,111.5C 247.743,105.942 248.909,100.608 250.5,95.5 Z"/></g>
<g><path style="opacity:1" fill="#3398c5" d="M 250.5,79.5 C 251.5,79.5 252.5,79.5 253.5,79.5C 253.041,82.8774 252.374,86.2107 251.5,89.5C 251.483,91.5648 251.15,93.5648 250.5,95.5C 248.909,100.608 247.743,105.942 247,111.5C 246.384,129.175 246.55,146.842 247.5,164.5C 256.833,164.5 266.167,164.5 275.5,164.5C 279.902,164.772 284.235,164.439 288.5,163.5C 289.5,163.833 290.167,164.5 290.5,165.5C 286.541,166.327 282.541,166.827 278.5,167C 277.058,167.377 276.058,168.21 275.5,169.5C 268.891,170.423 262.224,170.756 255.5,170.5C 252.833,170.5 250.167,170.5 247.5,170.5C 246.081,169.549 244.415,169.216 242.5,169.5C 241.571,149.174 241.404,128.84 242,108.5C 242.891,98.1698 245.725,88.5032 250.5,79.5 Z"/></g>
<g><path style="opacity:1" fill="#3397c8" d="M 287.5,86.5 C 292.833,89.8333 297.167,94.1667 300.5,99.5C 301.023,102.028 302.023,104.361 303.5,106.5C 303.167,107.167 302.833,107.833 302.5,108.5C 301.149,105.804 299.316,103.47 297,101.5C 296.517,100.552 296.351,99.552 296.5,98.5C 294.005,97.8011 291.672,96.8011 289.5,95.5C 287.142,93.4707 284.808,91.4707 282.5,89.5C 285.034,89.7409 286.7,88.7409 287.5,86.5 Z"/></g>
<g><path style="opacity:1" fill="#020203" d="M 273.5,84.5 C 274.391,85.1098 275.391,85.4431 276.5,85.5C 278.118,87.316 280.118,88.6493 282.5,89.5C 284.808,91.4707 287.142,93.4707 289.5,95.5C 294.997,100.656 299.664,106.49 303.5,113C 319.251,144.009 309.918,160.842 275.5,163.5C 266.5,163.5 257.5,163.5 248.5,163.5C 248.333,144.83 248.5,126.164 249,107.5C 250.424,103.703 250.924,99.7032 250.5,95.5C 251.15,93.5648 251.483,91.5648 251.5,89.5C 252.914,87.1327 254.248,84.6327 255.5,82C 261.799,80.9497 267.799,81.7831 273.5,84.5 Z"/></g>
<g><path style="opacity:1" fill="#2f9db9" d="M 276.5,85.5 C 279.5,85.5 282.5,85.5 285.5,85.5C 286.492,85.3284 287.158,85.6618 287.5,86.5C 286.7,88.7409 285.034,89.7409 282.5,89.5C 280.118,88.6493 278.118,87.316 276.5,85.5 Z"/></g>
<g><path style="opacity:1" fill="#3199c9" d="M 285.5,85.5 C 282.5,85.5 279.5,85.5 276.5,85.5C 275.391,85.4431 274.391,85.1098 273.5,84.5C 273.279,83.2652 272.612,82.2652 271.5,81.5C 266.248,80.1939 260.914,79.3605 255.5,79C 256.833,78.6667 258.167,78.3333 259.5,78C 257.292,77.8091 255.292,77.3091 253.5,76.5C 265.543,74.8422 276.209,77.8422 285.5,85.5 Z"/></g>
<g><path style="opacity:1" fill="#3598ba" d="M 253.5,76.5 C 255.292,77.3091 257.292,77.8091 259.5,78C 258.167,78.3333 256.833,78.6667 255.5,79C 260.914,79.3605 266.248,80.1939 271.5,81.5C 272.612,82.2652 273.279,83.2652 273.5,84.5C 267.799,81.7831 261.799,80.9497 255.5,82C 254.248,84.6327 252.914,87.1327 251.5,89.5C 252.374,86.2107 253.041,82.8774 253.5,79.5C 252.5,79.5 251.5,79.5 250.5,79.5C 250.856,77.8102 251.856,76.8102 253.5,76.5 Z"/></g>
<g><path style="opacity:1" fill="#3398c4" d="M 116.5,181.5 C 118.604,181.201 120.604,181.534 122.5,182.5C 122.333,182.833 122.167,183.167 122,183.5C 119.198,184.33 116.365,185.163 113.5,186C 112.244,186.417 111.577,187.25 111.5,188.5C 105.468,191.18 100.134,194.847 95.5,199.5C 93.336,201.822 91.6693,204.489 90.5,207.5C 88.036,212.419 87.036,217.752 87.5,223.5C 87.5355,228.88 88.0355,234.214 89,239.5C 89.0995,241.653 89.9328,243.319 91.5,244.5C 101.564,274.617 120.898,296.617 149.5,310.5C 151.936,311.871 154.603,312.871 157.5,313.5C 165.926,316.071 174.593,317.071 183.5,316.5C 186.373,316.198 189.039,315.531 191.5,314.5C 198.368,312.23 204.035,308.23 208.5,302.5C 210.5,301.167 212.167,299.5 213.5,297.5C 220.876,284.602 223.876,270.602 222.5,255.5C 222.416,248.807 222.083,242.141 221.5,235.5C 221.149,231.316 220.482,227.316 219.5,223.5C 219.073,219.176 218.739,214.842 218.5,210.5C 218.848,202.822 219.015,195.155 219,187.5C 218.667,188.167 218.333,188.833 218,189.5C 216.983,187.624 216.149,185.624 215.5,183.5C 214.452,182.617 213.285,181.95 212,181.5C 208.224,182.394 204.39,182.728 200.5,182.5C 200.67,181.178 200.337,180.011 199.5,179C 177.563,180.48 155.563,180.813 133.5,180C 135.852,179.76 137.852,178.927 139.5,177.5C 163.866,176.039 188.366,176.372 213,178.5C 215.302,178.6 217.302,179.267 219,180.5C 223.519,206.342 226.686,232.342 228.5,258.5C 230.372,282.625 221.705,301.791 202.5,316C 185.041,324.305 167.374,324.639 149.5,317C 113.769,299.929 91.2689,272.095 82,233.5C 78.3222,205.808 89.8222,188.474 116.5,181.5 Z"/></g>
<g><path style="opacity:1" fill="#10222a" d="M 219.5,223.5 C 220.482,227.316 221.149,231.316 221.5,235.5C 219.577,231.971 218.911,227.971 219.5,223.5 Z"/></g>
<g><path style="opacity:1" fill="#070d13" d="M 90.5,207.5 C 90.3433,208.873 90.51,210.207 91,211.5C 92.0177,210.294 92.5177,210.627 92.5,212.5C 93.0456,222.029 92.3789,231.529 90.5,241C 90.9891,242.138 91.3225,243.305 91.5,244.5C 89.9328,243.319 89.0995,241.653 89,239.5C 88.0355,234.214 87.5355,228.88 87.5,223.5C 87.036,217.752 88.036,212.419 90.5,207.5 Z"/></g>
<g><path style="opacity:1" fill="#0b1b36" d="M 95.5,199.5 C 95.0198,202.005 94.0198,204.338 92.5,206.5C 92.0431,207.298 91.3764,207.631 90.5,207.5C 91.6693,204.489 93.336,201.822 95.5,199.5 Z"/></g>
<g><path style="opacity:1" fill="#0b2433" d="M 207.5,183.5 C 212.931,182.094 215.265,184.094 214.5,189.5C 212.744,188.448 212.077,186.781 212.5,184.5C 210.585,184.784 208.919,184.451 207.5,183.5 Z"/></g>
<g><path style="opacity:1" fill="#010102" d="M 207.5,183.5 C 208.919,184.451 210.585,184.784 212.5,184.5C 212.077,186.781 212.744,188.448 214.5,189.5C 215.589,196.543 216.922,203.543 218.5,210.5C 218.739,214.842 219.073,219.176 219.5,223.5C 218.911,227.971 219.577,231.971 221.5,235.5C 222.083,242.141 222.416,248.807 222.5,255.5C 223.876,270.602 220.876,284.602 213.5,297.5C 210.833,298.167 209.167,299.833 208.5,302.5C 204.035,308.23 198.368,312.23 191.5,314.5C 188.447,314.111 185.78,314.777 183.5,316.5C 174.593,317.071 165.926,316.071 157.5,313.5C 155.383,311.345 152.716,310.345 149.5,310.5C 120.898,296.617 101.564,274.617 91.5,244.5C 91.3225,243.305 90.9891,242.138 90.5,241C 92.3789,231.529 93.0456,222.029 92.5,212.5C 92.5177,210.627 92.0177,210.294 91,211.5C 90.51,210.207 90.3433,208.873 90.5,207.5C 91.3764,207.631 92.0431,207.298 92.5,206.5C 94.0198,204.338 95.0198,202.005 95.5,199.5C 100.134,194.847 105.468,191.18 111.5,188.5C 120.617,185.387 129.95,183.221 139.5,182C 162.222,181.039 184.889,181.539 207.5,183.5 Z"/></g>
<g><path style="opacity:1" fill="#04172e" d="M 213.5,297.5 C 212.167,299.5 210.5,301.167 208.5,302.5C 209.167,299.833 210.833,298.167 213.5,297.5 Z"/></g>
<g><path style="opacity:1" fill="#082334" d="M 149.5,310.5 C 152.716,310.345 155.383,311.345 157.5,313.5C 154.603,312.871 151.936,311.871 149.5,310.5 Z"/></g>
<g><path style="opacity:1" fill="#05263d" d="M 191.5,314.5 C 189.039,315.531 186.373,316.198 183.5,316.5C 185.78,314.777 188.447,314.111 191.5,314.5 Z"/></g>
<g><path style="opacity:1" fill="#303030" d="M 398.5,-0.5 C 398.833,-0.5 399.167,-0.5 399.5,-0.5C 399.5,132.833 399.5,266.167 399.5,399.5C 266.167,399.5 132.833,399.5 -0.5,399.5C -0.5,399.167 -0.5,398.833 -0.5,398.5C 132.5,398.5 265.5,398.5 398.5,398.5C 398.5,265.5 398.5,132.5 398.5,-0.5 Z"/></g>
</svg>
