<?xml version="1.0" encoding="UTF-8"?>
<!DOCTYPE svg PUBLIC "-//W3C//DTD SVG 1.1//EN" "http://www.w3.org/Graphics/SVG/1.1/DTD/svg11.dtd">
<svg xmlns="http://www.w3.org/2000/svg" version="1.1" width="400px" height="400px" style="shape-rendering:geometricPrecision; text-rendering:geometricPrecision; image-rendering:optimizeQuality; fill-rule:evenodd; clip-rule:evenodd" xmlns:xlink="http://www.w3.org/1999/xlink">
<g><path style="opacity:0.96" fill="#dd4700" d="M 99.5,83.5 C 123.359,80.1923 133.859,90.5256 131,114.5C 135.511,125.988 144.011,131.488 156.5,131C 167.853,134.366 174.186,142.032 175.5,154C 175.095,165.157 169.762,172.824 159.5,177C 138.855,177.312 128.689,187.812 129,208.5C 123.028,222.069 112.861,226.902 98.5,223C 86.5189,216.541 82.0189,206.707 85,193.5C 89.9661,181.257 99.1328,175.424 112.5,176C 127.343,170.145 132.177,159.645 127,144.5C 123.935,137.773 118.769,133.606 111.5,132C 92.8203,134.643 83.487,126.643 83.5,108C 82.8419,99.9002 85.1752,92.9002 90.5,87C 93.4588,85.3957 96.4588,84.2291 99.5,83.5 Z"/></g>
<g><path style="opacity:0.969" fill="#f3c227" d="M 190.5,83.5 C 200.223,82.2367 209.223,84.07 217.5,89C 219.102,90.9347 220.269,93.1013 221,95.5C 220.78,103.468 222.114,111.135 225,118.5C 233.495,129.134 243.995,131.634 256.5,126C 260.784,122.712 263.95,118.545 266,113.5C 266.242,107.116 266.908,100.782 268,94.5C 271.286,88.2122 276.453,84.7122 283.5,84C 310.978,80.4947 321.144,92.328 314,119.5C 312.167,124 309,127.167 304.5,129C 297.885,130.108 291.218,130.775 284.5,131C 277.819,133.013 272.986,137.18 270,143.5C 269.173,149.95 267.84,156.283 266,162.5C 256.672,175.633 244.839,178.467 230.5,171C 222.412,164.086 218.579,155.253 219,144.5C 216.406,137.572 211.573,133.072 204.5,131C 177.515,132.902 167.682,120.735 175,94.5C 178.406,88.2249 183.572,84.5582 190.5,83.5 Z"/></g>
<g><path style="opacity:0.958" fill="#679fee" d="M 288.5,173.5 C 308.712,174.95 317.212,185.616 314,205.5C 311.5,213.333 306.333,218.5 298.5,221C 287.851,220.424 279.351,224.258 273,232.5C 267.679,243.38 269.179,253.213 277.5,262C 279.888,263.861 282.554,265.194 285.5,266C 302.972,265.881 312.972,274.381 315.5,291.5C 311.479,311.725 299.812,318.558 280.5,312C 274.389,308.551 270.556,303.385 269,296.5C 269.595,287.353 266.762,279.519 260.5,273C 257.874,270.854 254.874,269.521 251.5,269C 245.419,268.862 239.419,268.196 233.5,267C 225.034,262.065 221.701,254.731 223.5,245C 221.449,233.768 225.449,225.768 235.5,221C 256.93,223.221 268.097,213.721 269,192.5C 272.121,182.544 278.621,176.21 288.5,173.5 Z"/></g>
<g><path style="opacity:0.978" fill="#b4a8f2" d="M 192.5,175.5 C 218.18,173.451 228.013,185.118 222,210.5C 220.622,215.208 217.788,218.708 213.5,221C 183.662,228.824 171.495,217.657 177,187.5C 180.06,180.589 185.226,176.589 192.5,175.5 Z"/></g>
<g><path style="opacity:0.97" fill="#007c0c" d="M 142.5,223.5 C 150.174,223.334 157.841,223.5 165.5,224C 170.91,225.743 174.744,229.243 177,234.5C 175.347,259.846 187.18,271.346 212.5,269C 222.716,273.257 226.716,280.924 224.5,292C 226.061,309.106 218.228,316.939 201,315.5C 181.351,315.839 173.017,306.173 176,286.5C 170.145,271.657 159.645,266.823 144.5,272C 137.773,275.065 133.606,280.231 132,287.5C 130.335,309.514 118.835,318.014 97.5,313C 84.5434,305.132 81.0434,294.299 87,280.5C 90.4487,274.389 95.6153,270.556 102.5,269C 111.647,269.595 119.481,266.762 126,260.5C 128.146,257.874 129.479,254.874 130,251.5C 130.182,245.103 130.848,238.77 132,232.5C 134.468,228.199 137.968,225.199 142.5,223.5 Z"/></g>
</svg>
