<?xml version="1.0" encoding="UTF-8"?>
<!DOCTYPE svg PUBLIC "-//W3C//DTD SVG 1.1//EN" "http://www.w3.org/Graphics/SVG/1.1/DTD/svg11.dtd">
<svg xmlns="http://www.w3.org/2000/svg" version="1.1" width="381px" height="381px" style="shape-rendering:geometricPrecision; text-rendering:geometricPrecision; image-rendering:optimizeQuality; fill-rule:evenodd; clip-rule:evenodd" xmlns:xlink="http://www.w3.org/1999/xlink">
<g><path style="opacity:0.999" fill="#1f9c9b" d="M 170.5,-0.5 C 183.5,-0.5 196.5,-0.5 209.5,-0.5C 255.799,5.06648 295.299,24.3998 328,57.5C 331.073,61.0613 333.906,64.728 336.5,68.5C 334.202,69.3103 331.868,70.1436 329.5,71C 330.056,71.3826 330.389,71.8826 330.5,72.5C 327.092,75.1385 323.592,75.1385 320,72.5C 313.214,72.9802 306.381,72.9802 299.5,72.5C 299.33,73.8221 299.663,74.9887 300.5,76C 302.5,76.3333 304.5,76.6667 306.5,77C 302.833,77.3333 299.167,77.6667 295.5,78C 295,78.5 294.5,79 294,79.5C 292.151,77.9527 290.651,76.1193 289.5,74C 287.152,73.6541 285.319,72.4875 284,70.5C 283.25,71.1258 282.416,71.6258 281.5,72C 275.472,72.1697 269.472,72.6697 263.5,73.5C 268.467,74.329 273.467,74.829 278.5,75C 279.641,75.7412 279.641,76.5745 278.5,77.5C 279.689,78.4287 281.022,78.762 282.5,78.5C 282.5,77.1667 282.5,75.8333 282.5,74.5C 283.833,74.5 285.167,74.5 286.5,74.5C 286.662,76.5273 286.495,78.5273 286,80.5C 274.895,79.9944 264.729,78.661 255.5,76.5C 252.5,76.8333 249.5,77.1667 246.5,77.5C 248.826,78.1447 250.493,79.478 251.5,81.5C 250.833,81.5 250.5,81.8333 250.5,82.5C 249.168,114.569 249.168,146.736 250.5,179C 247.925,180.09 244.925,180.923 241.5,181.5C 243.145,160.464 242.811,139.464 240.5,118.5C 239.686,116.234 239.186,113.9 239,111.5C 238.617,112.056 238.117,112.389 237.5,112.5C 235.755,107.221 233.089,102.555 229.5,98.5C 223.31,91.5642 215.643,86.8975 206.5,84.5C 181.97,75.0976 158.303,77.0976 135.5,90.5C 130.184,90.7429 125.684,92.7429 122,96.5C 120.779,95.7282 119.779,94.7282 119,93.5C 117.884,96.6939 117.717,99.8605 118.5,103C 117.007,105.496 115.507,107.996 114,110.5C 113,108.5 112,106.5 111,104.5C 110.077,105.759 109.243,107.092 108.5,108.5C 107.571,107.45 106.905,107.45 106.5,108.5C 105.51,102.69 105.177,96.69 105.5,90.5C 106.449,87.128 106.449,83.7947 105.5,80.5C 100.565,80.0412 95.5645,80.0412 90.5,80.5C 90.1285,71.8144 89.4618,63.1478 88.5,54.5C 86.1988,55.9559 83.8655,56.2892 81.5,55.5C 79.352,58.3704 76.6853,59.037 73.5,57.5C 72.3044,57.8457 72.3044,58.3457 73.5,59C 70.3156,59.7542 67.6489,61.2542 65.5,63.5C 65.5,63.8333 65.5,64.1667 65.5,64.5C 60.7769,65.6298 56.1103,66.9632 51.5,68.5C 50.71,69.6085 50.21,70.9419 50,72.5C 45.9699,68.9811 46.8032,65.9811 52.5,63.5C 52.8333,62.6667 53.1667,61.8333 53.5,61C 53.3158,59.6244 52.6491,58.7911 51.5,58.5C 84.0385,24.7312 123.705,5.0645 170.5,-0.5 Z"/></g>
<g><path style="opacity:1" fill="#3e9796" d="M 105.5,90.5 C 105.167,90.5 104.833,90.5 104.5,90.5C 104.5,89.1667 104.5,87.8333 104.5,86.5C 104.5,84.8333 104.5,83.1667 104.5,81.5C 99.1667,81.5 93.8333,81.5 88.5,81.5C 88.8312,73.1401 88.4979,64.8068 87.5,56.5C 86.8933,56.6236 86.56,56.9569 86.5,57.5C 79.5061,59.4977 72.5061,61.4977 65.5,63.5C 67.6489,61.2542 70.3156,59.7542 73.5,59C 72.3044,58.3457 72.3044,57.8457 73.5,57.5C 76.6853,59.037 79.352,58.3704 81.5,55.5C 83.8655,56.2892 86.1988,55.9559 88.5,54.5C 89.4618,63.1478 90.1285,71.8144 90.5,80.5C 95.5645,80.0412 100.565,80.0412 105.5,80.5C 106.449,83.7947 106.449,87.128 105.5,90.5 Z"/></g>
<g><path style="opacity:1" fill="#eafcfc" d="M 86.5,57.5 C 87.1667,65.5 87.8333,73.5 88.5,81.5C 88.5,81.8333 88.5,82.1667 88.5,82.5C 86.7001,76.2416 85.8667,69.575 86,62.5C 84.1921,60.4418 82.0254,60.1084 79.5,61.5C 79.719,62.675 79.3857,63.675 78.5,64.5C 74.2031,63.5373 69.8698,63.5373 65.5,64.5C 65.5,64.1667 65.5,63.8333 65.5,63.5C 72.5061,61.4977 79.5061,59.4977 86.5,57.5 Z"/></g>
<g><path style="opacity:1" fill="#fcfefe" d="M 88.5,82.5 C 93.5,82.5 98.5,82.5 103.5,82.5C 103.232,84.099 103.566,85.4324 104.5,86.5C 104.5,87.8333 104.5,89.1667 104.5,90.5C 104.726,97.8761 104.392,105.209 103.5,112.5C 98.3054,112.179 93.3054,112.513 88.5,113.5C 87.3407,124.659 87.1741,135.992 88,147.5C 88.3826,148.056 88.8826,148.389 89.5,148.5C 92.2964,151.018 94.9631,151.018 97.5,148.5C 99.8903,147.109 101.557,145.109 102.5,142.5C 103.764,140.73 105.264,139.063 107,137.5C 107.333,137.833 107.667,138.167 108,138.5C 108.5,137.5 109,136.5 109.5,135.5C 108.585,134.672 107.919,133.672 107.5,132.5C 108.868,127.413 110.202,122.413 111.5,117.5C 112.847,116.829 114.014,116.829 115,117.5C 116.255,113.03 118.255,109.03 121,105.5C 121.667,106.833 122.333,106.833 123,105.5C 123.883,102.898 125.383,100.731 127.5,99C 132.969,95.6966 138.302,92.1966 143.5,88.5C 150.177,85.3349 157.177,83.0016 164.5,81.5C 167.71,81.9752 170.876,82.6419 174,83.5C 177.514,82.205 181.014,82.205 184.5,83.5C 184.833,82.8333 185.167,82.1667 185.5,81.5C 192.371,83.213 199.371,84.213 206.5,84.5C 215.643,86.8975 223.31,91.5642 229.5,98.5C 231.75,103.4 233.917,108.4 236,113.5C 236.5,136.498 236.667,159.498 236.5,182.5C 226.161,182.666 215.828,182.5 205.5,182C 204.671,180.184 203.837,178.351 203,176.5C 201.989,175.663 200.822,175.33 199.5,175.5C 199.5,176.5 199.5,177.5 199.5,178.5C 192.796,180.749 185.796,182.082 178.5,182.5C 174.833,182.988 171.833,181.822 169.5,179C 167.19,178.503 164.857,178.337 162.5,178.5C 161.612,176.191 159.946,174.524 157.5,173.5C 156.964,169.392 154.798,166.725 151,165.5C 148.802,158.02 147.968,150.354 148.5,142.5C 148.5,142.167 148.5,141.833 148.5,141.5C 151.569,137.705 154.403,133.705 157,129.5C 159.532,128.994 161.698,127.827 163.5,126C 166.361,125.46 169.028,124.46 171.5,123C 179.176,123.643 186.842,123.476 194.5,122.5C 201.452,124.395 202.119,123.395 196.5,119.5C 196.5,118.167 196.5,116.833 196.5,115.5C 184.49,114.59 172.49,114.59 160.5,115.5C 159.048,116.94 158.048,118.606 157.5,120.5C 146.927,127.295 140.593,136.962 138.5,149.5C 130.335,176.158 112.335,188.325 84.5,186C 74.8524,184.183 67.1857,179.35 61.5,171.5C 60.5596,168.286 59.0596,165.286 57,162.5C 56.1657,159.331 55.3324,156.164 54.5,153C 54.1721,139.626 54.5055,126.126 55.5,112.5C 54.1667,112.5 52.8333,112.5 51.5,112.5C 49.3926,111.532 47.0593,111.198 44.5,111.5C 44.5,101.833 44.5,92.1667 44.5,82.5C 47.0593,82.8016 49.3926,82.4682 51.5,81.5C 52.4682,79.3926 52.8016,77.0593 52.5,74.5C 53.5,74.5 54.5,74.5 55.5,74.5C 55.5,73.1667 55.5,71.8333 55.5,70.5C 57.9892,70.7022 60.3225,70.2022 62.5,69C 63.8333,68.3333 63.8333,67.6667 62.5,67C 63.5707,66.1482 64.5707,65.3149 65.5,64.5C 69.8698,63.5373 74.2031,63.5373 78.5,64.5C 79.3857,63.675 79.719,62.675 79.5,61.5C 82.0254,60.1084 84.1921,60.4418 86,62.5C 85.8667,69.575 86.7001,76.2416 88.5,82.5 Z"/></g>
<g><path style="opacity:1" fill="#c8f8fa" d="M 86.5,57.5 C 86.56,56.9569 86.8933,56.6236 87.5,56.5C 88.4979,64.8068 88.8312,73.1401 88.5,81.5C 87.8333,73.5 87.1667,65.5 86.5,57.5 Z"/></g>
<g><path style="opacity:1" fill="#e0f5f6" d="M 65.5,64.5 C 64.5707,65.3149 63.5707,66.1482 62.5,67C 63.8333,67.6667 63.8333,68.3333 62.5,69C 60.3225,70.2022 57.9892,70.7022 55.5,70.5C 55.5,71.8333 55.5,73.1667 55.5,74.5C 54.5,74.5 53.5,74.5 52.5,74.5C 52.8016,77.0593 52.4682,79.3926 51.5,81.5C 51.5,77.1667 51.5,72.8333 51.5,68.5C 56.1103,66.9632 60.7769,65.6298 65.5,64.5 Z"/></g>
<g><path style="opacity:1" fill="#299a9a" d="M 330.5,72.5 C 336.712,72.4343 340.379,75.4343 341.5,81.5C 340.068,84.3273 339.401,87.3273 339.5,90.5C 340.978,90.238 342.311,90.5713 343.5,91.5C 342.132,93.637 341.132,95.9703 340.5,98.5C 337.705,96.4852 337.039,93.9852 338.5,91C 338.167,90.8333 337.833,90.6667 337.5,90.5C 337.167,91.5 336.833,92.5 336.5,93.5C 337.902,97.6993 338.735,102.033 339,106.5C 339.219,105.062 339.719,103.729 340.5,102.5C 341.33,108.138 341.83,113.804 342,119.5C 342.667,118.167 343.333,118.167 344,119.5C 344.833,140.508 344.666,161.508 343.5,182.5C 342.14,183.18 340.807,183.847 339.5,184.5C 339.667,161.831 339.5,139.164 339,116.5C 338.817,113.635 338.317,110.969 337.5,108.5C 337.766,99.9527 335.099,92.6193 329.5,86.5C 328.327,84.4959 326.66,82.9959 324.5,82C 318.388,79.586 312.054,78.9193 305.5,80C 301.965,80.6633 298.965,82.1633 296.5,84.5C 293.527,86.1468 290.86,88.1468 288.5,90.5C 287.523,87.7131 287.19,84.7131 287.5,81.5C 275.5,81.5 263.5,81.5 251.5,81.5C 250.493,79.478 248.826,78.1447 246.5,77.5C 249.5,77.1667 252.5,76.8333 255.5,76.5C 264.729,78.661 274.895,79.9944 286,80.5C 286.495,78.5273 286.662,76.5273 286.5,74.5C 285.167,74.5 283.833,74.5 282.5,74.5C 282.5,75.8333 282.5,77.1667 282.5,78.5C 281.022,78.762 279.689,78.4287 278.5,77.5C 279.641,76.5745 279.641,75.7412 278.5,75C 273.467,74.829 268.467,74.329 263.5,73.5C 269.472,72.6697 275.472,72.1697 281.5,72C 282.416,71.6258 283.25,71.1258 284,70.5C 285.319,72.4875 287.152,73.6541 289.5,74C 290.651,76.1193 292.151,77.9527 294,79.5C 294.5,79 295,78.5 295.5,78C 299.167,77.6667 302.833,77.3333 306.5,77C 304.5,76.6667 302.5,76.3333 300.5,76C 299.663,74.9887 299.33,73.8221 299.5,72.5C 306.381,72.9802 313.214,72.9802 320,72.5C 323.592,75.1385 327.092,75.1385 330.5,72.5 Z"/></g>
<g><path style="opacity:1" fill="#e7fcfb" d="M 329.5,86.5 C 325.231,86.0761 320.898,85.9095 316.5,86C 318.623,84.8063 320.957,84.1397 323.5,84C 319.929,80.9571 316.262,80.7904 312.5,83.5C 309.775,81.5714 306.775,81.0714 303.5,82C 301.559,83.9028 299.226,84.7361 296.5,84.5C 298.965,82.1633 301.965,80.6633 305.5,80C 312.054,78.9193 318.388,79.586 324.5,82C 326.66,82.9959 328.327,84.4959 329.5,86.5 Z"/></g>
<g><path style="opacity:1" fill="#a8e7e6" d="M 88.5,82.5 C 88.5,82.1667 88.5,81.8333 88.5,81.5C 93.8333,81.5 99.1667,81.5 104.5,81.5C 104.5,83.1667 104.5,84.8333 104.5,86.5C 103.566,85.4324 103.232,84.099 103.5,82.5C 98.5,82.5 93.5,82.5 88.5,82.5 Z"/></g>
<g><path style="opacity:1" fill="#89c5c6" d="M 250.5,82.5 C 250.5,81.8333 250.833,81.5 251.5,81.5C 263.5,81.5 275.5,81.5 287.5,81.5C 287.19,84.7131 287.523,87.7131 288.5,90.5C 288.5,90.8333 288.5,91.1667 288.5,91.5C 286.612,89.0122 285.945,86.0122 286.5,82.5C 275.167,82.5 263.833,82.5 252.5,82.5C 251.833,82.5 251.167,82.5 250.5,82.5 Z"/></g>
<g><path style="opacity:0.999" fill="#209c9b" d="M 51.5,58.5 C 52.6491,58.7911 53.3158,59.6244 53.5,61C 53.1667,61.8333 52.8333,62.6667 52.5,63.5C 46.8032,65.9811 45.9699,68.9811 50,72.5C 50.21,70.9419 50.71,69.6085 51.5,68.5C 51.5,72.8333 51.5,77.1667 51.5,81.5C 48.8333,81.5 46.1667,81.5 43.5,81.5C 43.5,92.1667 43.5,102.833 43.5,113.5C 45.7603,126.334 46.0936,139.334 44.5,152.5C 44.859,154.994 45.859,157.161 47.5,159C 46.8574,163.568 47.8574,163.568 50.5,159C 49.8266,156.141 48.9932,153.308 48,150.5C 47.5002,139.839 47.3335,129.172 47.5,118.5C 48.5,118.5 49.5,118.5 50.5,118.5C 50.3335,130.838 50.5001,143.171 51,155.5C 51.4988,160.854 53.4988,165.52 57,169.5C 57.6708,170.252 58.5041,170.586 59.5,170.5C 60.1667,170.833 60.8333,171.167 61.5,171.5C 67.1857,179.35 74.8524,184.183 84.5,186C 112.335,188.325 130.335,176.158 138.5,149.5C 140.067,148.319 140.901,146.653 141,144.5C 139.673,155.606 142.506,165.439 149.5,174C 151.866,174.44 154.199,174.94 156.5,175.5C 158.216,177.025 160.216,178.025 162.5,178.5C 167.544,182.454 173.377,184.12 180,183.5C 187.1,183.737 193.6,182.07 199.5,178.5C 200.15,178.196 200.817,177.863 201.5,177.5C 202.466,179.396 202.799,181.396 202.5,183.5C 202.5,183.833 202.5,184.167 202.5,184.5C 201.325,184.281 200.325,184.614 199.5,185.5C 203.057,186.342 206.557,187.342 210,188.5C 218.238,186.256 226.571,185.923 235,187.5C 237.693,187.64 239.86,186.64 241.5,184.5C 245.453,188.293 249.119,192.293 252.5,196.5C 253.922,197.777 254.922,197.443 255.5,195.5C 258.785,196.95 261.285,199.283 263,202.5C 263.5,209.826 263.666,217.159 263.5,224.5C 260.713,225.477 257.713,225.81 254.5,225.5C 253.448,225.649 252.448,225.483 251.5,225C 252.833,224.333 252.833,223.667 251.5,223C 249.144,222.845 246.811,222.845 244.5,223C 243.833,222 243.167,221 242.5,220C 237.467,219.837 232.467,220.337 227.5,221.5C 227.167,222.167 226.833,222.833 226.5,223.5C 229.202,225.347 232.202,226.513 235.5,227C 234.944,227.383 234.611,227.883 234.5,228.5C 222.296,223.736 209.63,222.236 196.5,224C 191.745,225.185 187.412,227.018 183.5,229.5C 181.02,230.242 178.687,231.242 176.5,232.5C 175.504,232.586 174.671,232.252 174,231.5C 173.74,233.618 172.74,235.284 171,236.5C 170.667,235.833 170.333,235.167 170,234.5C 168.43,239.459 166.263,244.125 163.5,248.5C 163.756,249.689 164.089,250.856 164.5,252C 163.761,256.127 163.261,260.294 163,264.5C 162,265.5 161,266.5 160,267.5C 158.756,264.362 158.089,261.028 158,257.5C 157.667,259.167 157.333,260.833 157,262.5C 156.501,257.177 156.334,251.844 156.5,246.5C 157.065,242.67 157.898,239.004 159,235.5C 153.052,231.276 146.552,228.276 139.5,226.5C 137.723,225.4 135.723,224.566 133.5,224C 124.833,223.333 116.167,223.333 107.5,224C 103.882,225.212 100.548,226.712 97.5,228.5C 90.2669,231.734 84.6003,236.734 80.5,243.5C 80.5,243.833 80.5,244.167 80.5,244.5C 78.8714,246.858 77.7048,249.524 77,252.5C 76.2599,258.218 76.4265,263.885 77.5,269.5C 77.4673,273.406 78.8006,276.74 81.5,279.5C 79.8163,282.612 79.1497,285.946 79.5,289.5C 80.8333,289.5 82.1667,289.5 83.5,289.5C 83.6495,290.552 83.4828,291.552 83,292.5C 81.8525,291.542 80.8525,291.875 80,293.5C 79.6667,292.833 79.3333,292.167 79,291.5C 77.6667,292.833 76.3333,294.167 75,295.5C 74.4434,299.175 73.1101,302.508 71,305.5C 70.3333,308.5 70.3333,311.5 71,314.5C 71.3333,314.167 71.6667,313.833 72,313.5C 72.7083,314.381 73.5416,315.047 74.5,315.5C 73.6993,317.042 73.366,318.708 73.5,320.5C 72.6981,319.048 72.1981,317.382 72,315.5C 71.8333,316.833 71.6667,318.167 71.5,319.5C 72.2743,322.331 73.2743,324.997 74.5,327.5C 73.5,327.5 72.5,327.5 71.5,327.5C 71.5,329.167 71.5,330.833 71.5,332.5C 69.4884,331.986 67.4884,331.82 65.5,332C 67.8633,332.589 68.8633,334.089 68.5,336.5C 37.7174,311.661 16.8841,279.994 6,241.5C 3.35785,230.787 1.19119,220.121 -0.5,209.5C -0.5,196.5 -0.5,183.5 -0.5,170.5C 4.97622,127.554 22.3095,90.2202 51.5,58.5 Z"/></g>
<g><path style="opacity:1" fill="#fdfefe" d="M 329.5,86.5 C 331.169,90.5223 332.836,94.5223 334.5,98.5C 335.723,105.449 336.556,112.449 337,119.5C 337.5,140.164 337.667,160.831 337.5,181.5C 328.681,182.048 320.014,182.715 311.5,183.5C 310.167,183.5 308.833,183.5 307.5,183.5C 307.5,183.167 307.5,182.833 307.5,182.5C 306.791,181.596 305.791,181.263 304.5,181.5C 304.911,158.802 304.411,136.135 303,113.5C 301.513,112.747 301.346,111.914 302.5,111C 300.351,110.421 298.185,109.921 296,109.5C 294.301,109.387 293.134,110.053 292.5,111.5C 288.618,112.211 286.118,114.544 285,118.5C 284.253,130.625 284.42,142.459 285.5,154C 284.065,156.842 282.065,159.008 279.5,160.5C 278.167,160.5 276.833,160.5 275.5,160.5C 273.627,163.566 271.461,166.566 269,169.5C 268.517,170.448 268.351,171.448 268.5,172.5C 268.167,173.167 267.833,173.833 267.5,174.5C 262.537,175.496 257.537,175.663 252.5,175C 251.556,172.281 251.223,169.448 251.5,166.5C 252.332,139.67 252.832,112.67 253,85.5C 258.086,84.1941 263.42,83.5274 269,83.5C 274.167,83.6667 279.333,83.8333 284.5,84C 282.423,84.1922 280.423,84.6922 278.5,85.5C 279.671,88.8552 281.338,89.1885 283.5,86.5C 283.833,87.1667 284.167,87.8333 284.5,88.5C 283.246,90.3337 282.579,92.3337 282.5,94.5C 285.313,94.9754 287.313,93.9754 288.5,91.5C 288.5,91.1667 288.5,90.8333 288.5,90.5C 290.86,88.1468 293.527,86.1468 296.5,84.5C 299.226,84.7361 301.559,83.9028 303.5,82C 306.775,81.0714 309.775,81.5714 312.5,83.5C 316.262,80.7904 319.929,80.9571 323.5,84C 320.957,84.1397 318.623,84.8063 316.5,86C 320.898,85.9095 325.231,86.0761 329.5,86.5 Z"/></g>
<g><path style="opacity:1" fill="#d6fefe" d="M 250.5,82.5 C 251.167,82.5 251.833,82.5 252.5,82.5C 251.509,110.426 251.176,138.426 251.5,166.5C 251.223,169.448 251.556,172.281 252.5,175C 257.537,175.663 262.537,175.496 267.5,174.5C 267.389,175.117 267.056,175.617 266.5,176C 261.177,176.499 255.844,176.666 250.5,176.5C 250.5,145.167 250.5,113.833 250.5,82.5 Z"/></g>
<g><path style="opacity:0.997" fill="#209c9c" d="M 336.5,68.5 C 353.923,89.0017 366.423,112.335 374,138.5C 376.642,149.213 378.809,159.879 380.5,170.5C 380.5,183.5 380.5,196.5 380.5,209.5C 367.799,292.726 321.466,347.559 241.5,374C 230.787,376.642 220.121,378.809 209.5,380.5C 196.5,380.5 183.5,380.5 170.5,380.5C 141.265,376.699 113.932,367.199 88.5,352C 81.3617,347.352 74.6951,342.185 68.5,336.5C 68.8633,334.089 67.8633,332.589 65.5,332C 67.4884,331.82 69.4884,331.986 71.5,332.5C 71.5,330.833 71.5,329.167 71.5,327.5C 72.5,327.5 73.5,327.5 74.5,327.5C 73.2743,324.997 72.2743,322.331 71.5,319.5C 71.6667,318.167 71.8333,316.833 72,315.5C 72.1981,317.382 72.6981,319.048 73.5,320.5C 76.1268,322.601 79.1268,323.934 82.5,324.5C 85.5485,326.288 88.8818,327.788 92.5,329C 107.457,332.797 122.123,331.963 136.5,326.5C 146.382,323.005 152.882,316.338 156,306.5C 156.49,307.793 156.657,309.127 156.5,310.5C 157.5,310.5 158.5,310.5 159.5,310.5C 159.343,309.127 159.51,307.793 160,306.5C 161.365,307.593 161.699,308.926 161,310.5C 159.421,312.041 157.587,313.208 155.5,314C 156.989,315.468 158.323,316.968 159.5,318.5C 160.574,319.885 161.907,321.051 163.5,322C 167.188,324.345 171.188,325.845 175.5,326.5C 176.78,327.931 178.447,328.598 180.5,328.5C 189.345,331.491 198.345,332.158 207.5,330.5C 211.841,330.342 215.841,329.342 219.5,327.5C 224.014,326.445 228.014,324.445 231.5,321.5C 232.496,321.414 233.329,321.748 234,322.5C 234.813,324.436 235.313,326.436 235.5,328.5C 237.167,328.5 238.833,328.5 240.5,328.5C 247.167,328.5 253.833,328.5 260.5,328.5C 261.675,328.281 262.675,328.614 263.5,329.5C 258.5,330.167 253.5,330.833 248.5,331.5C 255.197,332.776 261.864,332.609 268.5,331C 269.859,329.796 270.859,328.296 271.5,326.5C 272.293,326.069 273.127,325.735 274,325.5C 277.276,327.227 280.776,327.894 284.5,327.5C 284.316,324.679 285.649,323.012 288.5,322.5C 290.895,318.793 293.228,315.126 295.5,311.5C 295.473,309.296 294.473,308.462 292.5,309C 289.589,314.251 286.256,319.251 282.5,324C 276.302,324.782 276.135,323.616 282,320.5C 282.49,319.207 282.657,317.873 282.5,316.5C 287.046,312.079 290.046,306.746 291.5,300.5C 292.268,299.737 292.768,298.737 293,297.5C 293.5,273.836 293.667,250.169 293.5,226.5C 284.167,225.833 274.833,225.167 265.5,224.5C 266.5,223.167 267.5,221.833 268.5,220.5C 272.5,216.167 276.5,211.833 280.5,207.5C 288.5,207.5 296.5,207.5 304.5,207.5C 304.771,205.62 304.104,204.287 302.5,203.5C 301.833,203.167 301.167,202.833 300.5,202.5C 298.473,199.806 296.139,197.473 293.5,195.5C 295.598,196.963 297.598,196.796 299.5,195C 297.103,193.282 294.436,192.115 291.5,191.5C 290.478,190.646 289.645,189.646 289,188.5C 288.922,181.503 289.256,174.503 290,167.5C 291,166.167 292,166.167 293,167.5C 293.348,173.839 293.182,180.173 292.5,186.5C 294.6,186.523 296.433,185.856 298,184.5C 299.221,185.272 300.221,186.272 301,187.5C 301.333,186.833 301.667,186.167 302,185.5C 303.473,187.007 305.307,187.674 307.5,187.5C 315.665,186.187 323.832,186.187 332,187.5C 334.042,187.385 336.042,187.051 338,186.5C 339.03,186.164 339.53,185.497 339.5,184.5C 340.807,183.847 342.14,183.18 343.5,182.5C 344.666,161.508 344.833,140.508 344,119.5C 343.333,118.167 342.667,118.167 342,119.5C 341.83,113.804 341.33,108.138 340.5,102.5C 339.719,103.729 339.219,105.062 339,106.5C 338.735,102.033 337.902,97.6993 336.5,93.5C 336.833,92.5 337.167,91.5 337.5,90.5C 337.833,90.6667 338.167,90.8333 338.5,91C 337.039,93.9852 337.705,96.4852 340.5,98.5C 341.132,95.9703 342.132,93.637 343.5,91.5C 342.311,90.5713 340.978,90.238 339.5,90.5C 339.401,87.3273 340.068,84.3273 341.5,81.5C 340.379,75.4343 336.712,72.4343 330.5,72.5C 330.389,71.8826 330.056,71.3826 329.5,71C 331.868,70.1436 334.202,69.3103 336.5,68.5 Z"/></g>
<g><path style="opacity:1" fill="#effefe" d="M 252.5,82.5 C 263.833,82.5 275.167,82.5 286.5,82.5C 285.945,86.0122 286.612,89.0122 288.5,91.5C 287.313,93.9754 285.313,94.9754 282.5,94.5C 282.579,92.3337 283.246,90.3337 284.5,88.5C 284.167,87.8333 283.833,87.1667 283.5,86.5C 281.338,89.1885 279.671,88.8552 278.5,85.5C 280.423,84.6922 282.423,84.1922 284.5,84C 279.333,83.8333 274.167,83.6667 269,83.5C 263.42,83.5274 258.086,84.1941 253,85.5C 252.832,112.67 252.332,139.67 251.5,166.5C 251.176,138.426 251.509,110.426 252.5,82.5 Z"/></g>
<g><path style="opacity:1" fill="#e4fafa" d="M 206.5,84.5 C 199.371,84.213 192.371,83.213 185.5,81.5C 185.167,82.1667 184.833,82.8333 184.5,83.5C 181.014,82.205 177.514,82.205 174,83.5C 170.876,82.6419 167.71,81.9752 164.5,81.5C 157.177,83.0016 150.177,85.3349 143.5,88.5C 138.302,92.1966 132.969,95.6966 127.5,99C 125.383,100.731 123.883,102.898 123,105.5C 122.333,106.833 121.667,106.833 121,105.5C 118.255,109.03 116.255,113.03 115,117.5C 114.014,116.829 112.847,116.829 111.5,117.5C 117.365,106.633 125.365,97.6332 135.5,90.5C 158.303,77.0976 181.97,75.0976 206.5,84.5 Z"/></g>
<g><path style="opacity:1" fill="#cef8fa" d="M 51.5,81.5 C 49.3926,82.4682 47.0593,82.8016 44.5,82.5C 44.5,92.1667 44.5,101.833 44.5,111.5C 47.0593,111.198 49.3926,111.532 51.5,112.5C 51.5,112.833 51.5,113.167 51.5,113.5C 48.8333,113.5 46.1667,113.5 43.5,113.5C 43.5,102.833 43.5,92.1667 43.5,81.5C 46.1667,81.5 48.8333,81.5 51.5,81.5 Z"/></g>
<g><path style="opacity:1" fill="#d1fafa" d="M 104.5,90.5 C 104.833,90.5 105.167,90.5 105.5,90.5C 105.177,96.69 105.51,102.69 106.5,108.5C 106.5,110.167 106.5,111.833 106.5,113.5C 100.5,113.5 94.5,113.5 88.5,113.5C 93.3054,112.513 98.3054,112.179 103.5,112.5C 104.392,105.209 104.726,97.8761 104.5,90.5 Z"/></g>
<g><path style="opacity:1" fill="#e4fbfb" d="M 196.5,119.5 C 183.242,113.939 170.242,114.273 157.5,120.5C 158.048,118.606 159.048,116.94 160.5,115.5C 172.49,114.59 184.49,114.59 196.5,115.5C 196.5,116.833 196.5,118.167 196.5,119.5 Z"/></g>
<g><path style="opacity:1" fill="#2a9899" d="M 43.5,113.5 C 46.1667,113.5 48.8333,113.5 51.5,113.5C 51.3334,126.837 51.5001,140.171 52,153.5C 53.9968,159.484 56.4968,165.151 59.5,170.5C 58.5041,170.586 57.6708,170.252 57,169.5C 53.4988,165.52 51.4988,160.854 51,155.5C 50.5001,143.171 50.3335,130.838 50.5,118.5C 49.5,118.5 48.5,118.5 47.5,118.5C 47.3335,129.172 47.5002,139.839 48,150.5C 48.9932,153.308 49.8266,156.141 50.5,159C 47.8574,163.568 46.8574,163.568 47.5,159C 45.859,157.161 44.859,154.994 44.5,152.5C 46.0936,139.334 45.7603,126.334 43.5,113.5 Z"/></g>
<g><path style="opacity:1" fill="#dff5f5" d="M 51.5,112.5 C 52.8333,112.5 54.1667,112.5 55.5,112.5C 54.5055,126.126 54.1721,139.626 54.5,153C 55.3324,156.164 56.1657,159.331 57,162.5C 59.0596,165.286 60.5596,168.286 61.5,171.5C 60.8333,171.167 60.1667,170.833 59.5,170.5C 56.4968,165.151 53.9968,159.484 52,153.5C 51.5001,140.171 51.3334,126.837 51.5,113.5C 51.5,113.167 51.5,112.833 51.5,112.5 Z"/></g>
<g><path style="opacity:1" fill="#def5f6" d="M 292.5,111.5 C 290.525,112.646 289.025,114.313 288,116.5C 287.5,130.829 287.333,145.163 287.5,159.5C 284.763,159.401 282.096,159.735 279.5,160.5C 282.065,159.008 284.065,156.842 285.5,154C 284.42,142.459 284.253,130.625 285,118.5C 286.118,114.544 288.618,112.211 292.5,111.5 Z"/></g>
<g><path style="opacity:1" fill="#389997" d="M 135.5,90.5 C 125.365,97.6332 117.365,106.633 111.5,117.5C 106.738,125.112 103.738,133.445 102.5,142.5C 101.557,145.109 99.8903,147.109 97.5,148.5C 94.9631,151.018 92.2964,151.018 89.5,148.5C 88.542,136.884 88.2087,125.217 88.5,113.5C 94.5,113.5 100.5,113.5 106.5,113.5C 106.5,111.833 106.5,110.167 106.5,108.5C 106.905,107.45 107.571,107.45 108.5,108.5C 109.243,107.092 110.077,105.759 111,104.5C 112,106.5 113,108.5 114,110.5C 115.507,107.996 117.007,105.496 118.5,103C 117.717,99.8605 117.884,96.6939 119,93.5C 119.779,94.7282 120.779,95.7282 122,96.5C 125.684,92.7429 130.184,90.7429 135.5,90.5 Z"/></g>
<g><path style="opacity:1" fill="#229b9a" d="M 97.5,148.5 C 95.54,147.862 93.7067,147.862 92,148.5C 89.8684,137.287 89.0351,125.953 89.5,114.5C 94.1667,114.5 98.8333,114.5 103.5,114.5C 105.114,126.613 103.114,137.946 97.5,148.5 Z"/></g>
<g><path style="opacity:1" fill="#edfdfd" d="M 307.5,182.5 C 306.167,182.5 304.833,182.5 303.5,182.5C 303.83,162.326 303.497,142.326 302.5,122.5C 301.691,120.972 301.024,119.306 300.5,117.5C 299.873,112.881 297.206,110.881 292.5,111.5C 293.134,110.053 294.301,109.387 296,109.5C 298.185,109.921 300.351,110.421 302.5,111C 301.346,111.914 301.513,112.747 303,113.5C 304.411,136.135 304.911,158.802 304.5,181.5C 305.791,181.263 306.791,181.596 307.5,182.5 Z"/></g>
<g><path style="opacity:1" fill="#e0fafa" d="M 194.5,122.5 C 186.842,123.476 179.176,123.643 171.5,123C 169.028,124.46 166.361,125.46 163.5,126C 161.698,127.827 159.532,128.994 157,129.5C 154.403,133.705 151.569,137.705 148.5,141.5C 151.422,130.749 158.422,124.249 169.5,122C 178.01,121.177 186.344,121.343 194.5,122.5 Z"/></g>
<g><path style="opacity:1" fill="#edfefe" d="M 329.5,86.5 C 335.099,92.6193 337.766,99.9527 337.5,108.5C 338.574,133.155 338.741,157.821 338,182.5C 329.251,183.484 320.418,183.817 311.5,183.5C 320.014,182.715 328.681,182.048 337.5,181.5C 337.667,160.831 337.5,140.164 337,119.5C 336.556,112.449 335.723,105.449 334.5,98.5C 332.836,94.5223 331.169,90.5223 329.5,86.5 Z"/></g>
<g><path style="opacity:1" fill="#bcebed" d="M 337.5,108.5 C 338.317,110.969 338.817,113.635 339,116.5C 339.5,139.164 339.667,161.831 339.5,184.5C 326.989,184.829 314.655,184.495 302.5,183.5C 304.167,183.5 305.833,183.5 307.5,183.5C 308.833,183.5 310.167,183.5 311.5,183.5C 320.418,183.817 329.251,183.484 338,182.5C 338.741,157.821 338.574,133.155 337.5,108.5 Z"/></g>
<g><path style="opacity:1" fill="#dafffe" d="M 302.5,122.5 C 303.497,142.326 303.83,162.326 303.5,182.5C 304.833,182.5 306.167,182.5 307.5,182.5C 307.5,182.833 307.5,183.167 307.5,183.5C 305.833,183.5 304.167,183.5 302.5,183.5C 302.5,163.167 302.5,142.833 302.5,122.5 Z"/></g>
<g><path style="opacity:1" fill="#e2f8f7" d="M 111.5,117.5 C 110.202,122.413 108.868,127.413 107.5,132.5C 107.919,133.672 108.585,134.672 109.5,135.5C 109,136.5 108.5,137.5 108,138.5C 107.667,138.167 107.333,137.833 107,137.5C 105.264,139.063 103.764,140.73 102.5,142.5C 103.738,133.445 106.738,125.112 111.5,117.5 Z"/></g>
<g><path style="opacity:1" fill="#ccf5f6" d="M 88.5,113.5 C 88.2087,125.217 88.542,136.884 89.5,148.5C 88.8826,148.389 88.3826,148.056 88,147.5C 87.1741,135.992 87.3407,124.659 88.5,113.5 Z"/></g>
<g><path style="opacity:1" fill="#e2fbfb" d="M 187.5,140.5 C 183.033,145.7 182.367,151.367 185.5,157.5C 184.504,157.586 183.671,157.252 183,156.5C 182.172,151.798 182.338,147.131 183.5,142.5C 184.524,141.147 185.857,140.48 187.5,140.5 Z"/></g>
<g><path style="opacity:1" fill="#369b9a" d="M 196.5,119.5 C 202.119,123.395 201.452,124.395 194.5,122.5C 186.344,121.343 178.01,121.177 169.5,122C 158.422,124.249 151.422,130.749 148.5,141.5C 148.5,141.833 148.5,142.167 148.5,142.5C 145.369,154.798 148.036,165.798 156.5,175.5C 154.199,174.94 151.866,174.44 149.5,174C 142.506,165.439 139.673,155.606 141,144.5C 140.901,146.653 140.067,148.319 138.5,149.5C 140.593,136.962 146.927,127.295 157.5,120.5C 170.242,114.273 183.242,113.939 196.5,119.5 Z"/></g>
<g><path style="opacity:1" fill="#2a9a98" d="M 187.5,140.5 C 190.833,140.5 194.167,140.5 197.5,140.5C 202.758,144.708 203.925,150.042 201,156.5C 199.855,157.636 198.688,158.636 197.5,159.5C 193.3,159.81 189.3,159.143 185.5,157.5C 182.367,151.367 183.033,145.7 187.5,140.5 Z"/></g>
<g><path style="opacity:1" fill="#def8f9" d="M 197.5,140.5 C 199.144,140.286 200.644,140.62 202,141.5C 203.563,146.718 203.896,152.051 203,157.5C 201.556,159.155 199.722,159.822 197.5,159.5C 198.688,158.636 199.855,157.636 201,156.5C 203.925,150.042 202.758,144.708 197.5,140.5 Z"/></g>
<g><path style="opacity:1" fill="#249b9d" d="M 292.5,111.5 C 297.206,110.881 299.873,112.881 300.5,117.5C 298.807,116.525 297.307,115.192 296,113.5C 295.5,114.667 294.667,115.5 293.5,116C 294.973,116.71 295.64,117.876 295.5,119.5C 294.5,119.5 293.5,119.5 292.5,119.5C 292.334,129.506 292.5,139.506 293,149.5C 293.414,149.957 293.914,150.291 294.5,150.5C 295.167,145.167 295.833,139.833 296.5,134.5C 297.086,134.291 297.586,133.957 298,133.5C 298.667,150.167 298.667,166.833 298,183.5C 295.901,181.513 294.734,179.013 294.5,176C 295.562,172.211 295.729,168.377 295,164.5C 292.49,163.891 290.49,162.558 289,160.5C 288.035,162.26 286.868,162.594 285.5,161.5C 286.243,160.818 286.909,160.151 287.5,159.5C 287.333,145.163 287.5,130.829 288,116.5C 289.025,114.313 290.525,112.646 292.5,111.5 Z"/></g>
<g><path style="opacity:1" fill="#e4fbfb" d="M 148.5,142.5 C 147.968,150.354 148.802,158.02 151,165.5C 154.798,166.725 156.964,169.392 157.5,173.5C 159.946,174.524 161.612,176.191 162.5,178.5C 160.216,178.025 158.216,177.025 156.5,175.5C 148.036,165.798 145.369,154.798 148.5,142.5 Z"/></g>
<g><path style="opacity:1" fill="#309a97" d="M 250.5,82.5 C 250.5,113.833 250.5,145.167 250.5,176.5C 255.844,176.666 261.177,176.499 266.5,176C 267.056,175.617 267.389,175.117 267.5,174.5C 267.833,173.833 268.167,173.167 268.5,172.5C 272.157,168.541 275.824,164.541 279.5,160.5C 282.096,159.735 284.763,159.401 287.5,159.5C 286.909,160.151 286.243,160.818 285.5,161.5C 286.868,162.594 288.035,162.26 289,160.5C 290.49,162.558 292.49,163.891 295,164.5C 295.729,168.377 295.562,172.211 294.5,176C 294.734,179.013 295.901,181.513 298,183.5C 298.667,166.833 298.667,150.167 298,133.5C 297.586,133.957 297.086,134.291 296.5,134.5C 295.833,139.833 295.167,145.167 294.5,150.5C 293.914,150.291 293.414,149.957 293,149.5C 292.5,139.506 292.334,129.506 292.5,119.5C 293.5,119.5 294.5,119.5 295.5,119.5C 295.64,117.876 294.973,116.71 293.5,116C 294.667,115.5 295.5,114.667 296,113.5C 297.307,115.192 298.807,116.525 300.5,117.5C 301.024,119.306 301.691,120.972 302.5,122.5C 302.5,142.833 302.5,163.167 302.5,183.5C 314.655,184.495 326.989,184.829 339.5,184.5C 339.53,185.497 339.03,186.164 338,186.5C 336.042,187.051 334.042,187.385 332,187.5C 323.832,186.187 315.665,186.187 307.5,187.5C 305.307,187.674 303.473,187.007 302,185.5C 301.667,186.167 301.333,186.833 301,187.5C 300.221,186.272 299.221,185.272 298,184.5C 296.433,185.856 294.6,186.523 292.5,186.5C 293.182,180.173 293.348,173.839 293,167.5C 292,166.167 291,166.167 290,167.5C 289.256,174.503 288.922,181.503 289,188.5C 289.645,189.646 290.478,190.646 291.5,191.5C 294.436,192.115 297.103,193.282 299.5,195C 297.598,196.796 295.598,196.963 293.5,195.5C 291.454,193.721 289.287,192.054 287,190.5C 286.667,182.833 286.333,175.167 286,167.5C 285.586,167.043 285.086,166.709 284.5,166.5C 279.344,171.825 274.344,177.325 269.5,183C 261.323,183.171 253.323,183.671 245.5,184.5C 244.957,184.56 244.624,184.893 244.5,185.5C 246.979,188.565 249.979,190.898 253.5,192.5C 254.167,193.5 254.833,194.5 255.5,195.5C 254.922,197.443 253.922,197.777 252.5,196.5C 249.119,192.293 245.453,188.293 241.5,184.5C 239.86,186.64 237.693,187.64 235,187.5C 226.571,185.923 218.238,186.256 210,188.5C 206.557,187.342 203.057,186.342 199.5,185.5C 200.325,184.614 201.325,184.281 202.5,184.5C 214.5,184.5 226.5,184.5 238.5,184.5C 238.831,161.327 238.498,138.327 237.5,115.5C 237.5,114.5 237.5,113.5 237.5,112.5C 238.117,112.389 238.617,112.056 239,111.5C 239.186,113.9 239.686,116.234 240.5,118.5C 242.811,139.464 243.145,160.464 241.5,181.5C 244.925,180.923 247.925,180.09 250.5,179C 249.168,146.736 249.168,114.569 250.5,82.5 Z"/></g>
<g><path style="opacity:1" fill="#dcfbfb" d="M 279.5,160.5 C 275.824,164.541 272.157,168.541 268.5,172.5C 268.351,171.448 268.517,170.448 269,169.5C 271.461,166.566 273.627,163.566 275.5,160.5C 276.833,160.5 278.167,160.5 279.5,160.5 Z"/></g>
<g><path style="opacity:1" fill="#f9fdfc" d="M 300.5,202.5 C 301.167,202.833 301.833,203.167 302.5,203.5C 302.5,204.5 302.5,205.5 302.5,206.5C 294.981,206.175 287.648,206.508 280.5,207.5C 276.5,211.833 272.5,216.167 268.5,220.5C 267.178,220.33 266.011,220.663 265,221.5C 264.897,213.756 264.231,206.089 263,198.5C 261.559,197.13 259.892,196.13 258,195.5C 257.517,194.552 257.351,193.552 257.5,192.5C 256.167,192.5 254.833,192.5 253.5,192.5C 249.979,190.898 246.979,188.565 244.5,185.5C 244.624,184.893 244.957,184.56 245.5,184.5C 254.085,184.183 262.585,184.517 271,185.5C 273.716,178.953 278.216,174.286 284.5,171.5C 284.666,175.846 284.499,180.179 284,184.5C 283.308,185.025 282.808,185.692 282.5,186.5C 285.861,191.861 290.194,196.194 295.5,199.5C 296.386,200.325 296.719,201.325 296.5,202.5C 297.833,202.5 299.167,202.5 300.5,202.5 Z"/></g>
<g><path style="opacity:1" fill="#d9f9f9" d="M 162.5,178.5 C 164.857,178.337 167.19,178.503 169.5,179C 171.833,181.822 174.833,182.988 178.5,182.5C 185.796,182.082 192.796,180.749 199.5,178.5C 193.6,182.07 187.1,183.737 180,183.5C 173.377,184.12 167.544,182.454 162.5,178.5 Z"/></g>
<g><path style="opacity:1" fill="#e6fdfd" d="M 229.5,98.5 C 233.089,102.555 235.755,107.221 237.5,112.5C 237.5,113.5 237.5,114.5 237.5,115.5C 237.5,138.167 237.5,160.833 237.5,183.5C 225.833,183.5 214.167,183.5 202.5,183.5C 202.799,181.396 202.466,179.396 201.5,177.5C 200.817,177.863 200.15,178.196 199.5,178.5C 199.5,177.5 199.5,176.5 199.5,175.5C 200.822,175.33 201.989,175.663 203,176.5C 203.837,178.351 204.671,180.184 205.5,182C 215.828,182.5 226.161,182.666 236.5,182.5C 236.667,159.498 236.5,136.498 236,113.5C 233.917,108.4 231.75,103.4 229.5,98.5 Z"/></g>
<g><path style="opacity:1" fill="#9ad2d1" d="M 237.5,115.5 C 238.498,138.327 238.831,161.327 238.5,184.5C 226.5,184.5 214.5,184.5 202.5,184.5C 202.5,184.167 202.5,183.833 202.5,183.5C 214.167,183.5 225.833,183.5 237.5,183.5C 237.5,160.833 237.5,138.167 237.5,115.5 Z"/></g>
<g><path style="opacity:1" fill="#d6f8f7" d="M 293.5,195.5 C 296.139,197.473 298.473,199.806 300.5,202.5C 299.167,202.5 297.833,202.5 296.5,202.5C 296.719,201.325 296.386,200.325 295.5,199.5C 290.194,196.194 285.861,191.861 282.5,186.5C 282.808,185.692 283.308,185.025 284,184.5C 284.499,180.179 284.666,175.846 284.5,171.5C 278.216,174.286 273.716,178.953 271,185.5C 262.585,184.517 254.085,184.183 245.5,184.5C 253.323,183.671 261.323,183.171 269.5,183C 274.344,177.325 279.344,171.825 284.5,166.5C 285.086,166.709 285.586,167.043 286,167.5C 286.333,175.167 286.667,182.833 287,190.5C 289.287,192.054 291.454,193.721 293.5,195.5 Z"/></g>
<g><path style="opacity:1" fill="#e5fcfc" d="M 253.5,192.5 C 254.833,192.5 256.167,192.5 257.5,192.5C 257.351,193.552 257.517,194.552 258,195.5C 259.892,196.13 261.559,197.13 263,198.5C 264.231,206.089 264.897,213.756 265,221.5C 266.011,220.663 267.178,220.33 268.5,220.5C 267.5,221.833 266.5,223.167 265.5,224.5C 264.833,224.5 264.167,224.5 263.5,224.5C 263.666,217.159 263.5,209.826 263,202.5C 261.285,199.283 258.785,196.95 255.5,195.5C 254.833,194.5 254.167,193.5 253.5,192.5 Z"/></g>
<g><path style="opacity:1" fill="#caf7f9" d="M 302.5,203.5 C 304.104,204.287 304.771,205.62 304.5,207.5C 296.5,207.5 288.5,207.5 280.5,207.5C 287.648,206.508 294.981,206.175 302.5,206.5C 302.5,205.5 302.5,204.5 302.5,203.5 Z"/></g>
<g><path style="opacity:1" fill="#fcfefd" d="M 140.5,228.5 C 141.873,228.343 143.207,228.51 144.5,229C 148.059,230.98 151.726,232.813 155.5,234.5C 155.833,235.333 156.167,236.167 156.5,237C 153.636,246.288 151.97,255.788 151.5,265.5C 149.199,264.675 146.865,264.008 144.5,263.5C 136.194,258.598 127.361,254.931 118,252.5C 113.234,252.56 111.401,254.727 112.5,259C 114.154,259.608 115.821,260.108 117.5,260.5C 120.013,262.854 121.346,265.521 121.5,268.5C 122.711,267.726 122.711,266.893 121.5,266C 125.819,265.924 130.152,266.091 134.5,266.5C 135.391,267.11 136.391,267.443 137.5,267.5C 137.369,268.239 137.536,268.906 138,269.5C 141.048,271.096 143.548,273.263 145.5,276C 147.025,277.009 148.692,277.509 150.5,277.5C 151.529,279.517 152.529,281.517 153.5,283.5C 153.987,287.309 154.321,291.142 154.5,295C 154.516,300.028 153.85,304.862 152.5,309.5C 150.942,313.389 148.609,316.722 145.5,319.5C 142.995,319.98 140.662,320.98 138.5,322.5C 136.117,321.538 135.117,322.538 135.5,325.5C 119.485,330.717 103.485,330.717 87.5,325.5C 87.8515,322.927 87.3515,320.594 86,318.5C 83.5183,319.624 83.0183,321.29 84.5,323.5C 84.0431,324.298 83.3764,324.631 82.5,324.5C 79.1268,323.934 76.1268,322.601 73.5,320.5C 73.366,318.708 73.6993,317.042 74.5,315.5C 74.9887,314.005 75.6554,312.671 76.5,311.5C 77.7079,310.766 79.0413,310.433 80.5,310.5C 80.0617,307.107 80.8951,304.107 83,301.5C 83.6667,305.5 84.3333,305.5 85,301.5C 85.498,298.518 85.6646,295.518 85.5,292.5C 86.8333,292.5 88.1667,292.5 89.5,292.5C 96.254,295.983 103.421,298.316 111,299.5C 113.925,299.477 116.759,298.977 119.5,298C 120.791,296.708 120.791,295.542 119.5,294.5C 118.948,292.669 118.948,291.003 119.5,289.5C 116.215,288.676 112.882,288.176 109.5,288C 102.316,285.2 94.9824,282.7 87.5,280.5C 88.6613,278.776 88.4947,277.11 87,275.5C 86.1072,276.711 85.2739,276.711 84.5,275.5C 86.2047,270.125 85.3713,269.458 82,273.5C 80.5879,272.314 79.4212,270.981 78.5,269.5C 78.1526,261.066 78.8192,252.732 80.5,244.5C 80.5,244.167 80.5,243.833 80.5,243.5C 82.3841,243.288 83.7174,242.288 84.5,240.5C 85.3333,241.5 86.1667,242.5 87,243.5C 87.1922,241.423 87.6922,239.423 88.5,237.5C 91.892,234.775 94.892,231.775 97.5,228.5C 104.732,225.819 112.232,224.486 120,224.5C 123.684,224.37 127.184,224.87 130.5,226C 126.461,227.386 122.461,227.886 118.5,227.5C 124.618,228.029 130.618,229.029 136.5,230.5C 137.167,230.333 137.833,230.167 138.5,230C 134.785,226.005 135.452,225.505 140.5,228.5 Z"/></g>
<g><path style="opacity:1" fill="#fcfdfd" d="M 240.5,237.5 C 240.737,238.791 240.404,239.791 239.5,240.5C 235.966,246.261 232.966,252.428 230.5,259C 227.075,257.705 223.408,256.872 219.5,256.5C 215.377,255.021 211.21,253.688 207,252.5C 202.412,252.248 200.078,254.248 200,258.5C 207.862,261.065 215.695,263.732 223.5,266.5C 224.478,269.971 226.812,271.805 230.5,272C 232,273.5 233.5,275 235,276.5C 235.495,278.473 235.662,280.473 235.5,282.5C 237.981,282.323 239.814,283.323 241,285.5C 243.091,293.237 242.925,300.903 240.5,308.5C 239.047,313.082 236.38,316.749 232.5,319.5C 226.739,320.001 222.406,322.668 219.5,327.5C 215.841,329.342 211.841,330.342 207.5,330.5C 198.411,330.77 189.411,330.103 180.5,328.5C 178.447,328.598 176.78,327.931 175.5,326.5C 171.291,324.387 167.124,322.054 163,319.5C 164.016,315.938 164.849,312.271 165.5,308.5C 165.5,307.833 165.5,307.167 165.5,306.5C 166.232,305.192 167.066,303.858 168,302.5C 168.171,297.467 168.671,292.467 169.5,287.5C 170.527,288.791 171.527,288.791 172.5,287.5C 176.538,290.512 180.538,293.512 184.5,296.5C 186.493,298.163 188.826,299.33 191.5,300C 195.019,300.377 198.519,300.877 202,301.5C 203.876,301.475 205.376,300.809 206.5,299.5C 207.942,298.18 208.608,296.514 208.5,294.5C 208.047,293.542 207.381,292.708 206.5,292C 197.83,289.899 189.164,287.732 180.5,285.5C 178.973,285.573 177.973,284.906 177.5,283.5C 173.503,279.319 170.003,274.652 167,269.5C 166.516,261.842 166.682,254.175 167.5,246.5C 169.492,241.182 172.492,236.516 176.5,232.5C 178.687,231.242 181.02,230.242 183.5,229.5C 188.793,228.345 194.127,227.178 199.5,226C 205.167,225.333 210.833,225.333 216.5,226C 215.098,227.342 215.431,228.176 217.5,228.5C 221.046,226.088 224.712,225.921 228.5,228C 226.5,228.333 224.5,228.667 222.5,229C 222.833,229.333 223.167,229.667 223.5,230C 226.763,230.064 229.763,230.898 232.5,232.5C 237.135,230.66 238.135,231.493 235.5,235C 235.509,236.404 236.009,237.57 237,238.5C 237.615,236.884 238.615,235.551 240,234.5C 240.483,235.448 240.649,236.448 240.5,237.5 Z"/></g>
<g><path style="opacity:1" fill="#5dafab" d="M 263.5,224.5 C 264.167,224.5 264.833,224.5 265.5,224.5C 274.833,225.167 284.167,225.833 293.5,226.5C 280.5,226.5 267.5,226.5 254.5,226.5C 254.5,226.167 254.5,225.833 254.5,225.5C 257.713,225.81 260.713,225.477 263.5,224.5 Z"/></g>
<g><path style="opacity:1" fill="#edfcfa" d="M 139.5,226.5 C 139.833,227.167 140.167,227.833 140.5,228.5C 135.452,225.505 134.785,226.005 138.5,230C 137.833,230.167 137.167,230.333 136.5,230.5C 130.618,229.029 124.618,228.029 118.5,227.5C 122.461,227.886 126.461,227.386 130.5,226C 127.184,224.87 123.684,224.37 120,224.5C 112.232,224.486 104.732,225.819 97.5,228.5C 100.548,226.712 103.882,225.212 107.5,224C 116.167,223.333 124.833,223.333 133.5,224C 135.723,224.566 137.723,225.4 139.5,226.5 Z"/></g>
<g><path style="opacity:1" fill="#fcfefd" d="M 256.5,227.5 C 268.167,227.5 279.833,227.5 291.5,227.5C 292.823,251.827 292.823,276.16 291.5,300.5C 290.046,306.746 287.046,312.079 282.5,316.5C 276.529,322.784 269.196,326.451 260.5,327.5C 255.167,327.5 249.833,327.5 244.5,327.5C 244.5,326.5 244.5,325.5 244.5,324.5C 246.701,323.261 248.868,321.928 251,320.5C 253.054,314.542 254.72,308.542 256,302.5C 256.5,277.502 256.667,252.502 256.5,227.5 Z"/></g>
<g><path style="opacity:1" fill="#2b9c9b" d="M 254.5,225.5 C 254.5,225.833 254.5,226.167 254.5,226.5C 254.5,251.167 254.5,275.833 254.5,300.5C 253.3,309.445 249.967,317.445 244.5,324.5C 242.659,325.402 241.326,326.736 240.5,328.5C 238.833,328.5 237.167,328.5 235.5,328.5C 235.313,326.436 234.813,324.436 234,322.5C 233.329,321.748 232.496,321.414 231.5,321.5C 231.833,320.833 232.167,320.167 232.5,319.5C 236.38,316.749 239.047,313.082 240.5,308.5C 247.776,289.338 242.109,275.338 223.5,266.5C 215.695,263.732 207.862,261.065 200,258.5C 200.078,254.248 202.412,252.248 207,252.5C 211.21,253.688 215.377,255.021 219.5,256.5C 222.436,258.308 225.436,260.141 228.5,262C 229.635,262.749 230.635,262.583 231.5,261.5C 234.464,254.579 237.131,247.579 239.5,240.5C 240.404,239.791 240.737,238.791 240.5,237.5C 242.099,236.201 242.599,234.535 242,232.5C 239.552,231.027 237.052,229.693 234.5,228.5C 234.611,227.883 234.944,227.383 235.5,227C 232.202,226.513 229.202,225.347 226.5,223.5C 226.833,222.833 227.167,222.167 227.5,221.5C 232.467,220.337 237.467,219.837 242.5,220C 243.167,221 243.833,222 244.5,223C 246.811,222.845 249.144,222.845 251.5,223C 252.833,223.667 252.833,224.333 251.5,225C 252.448,225.483 253.448,225.649 254.5,225.5 Z"/></g>
<g><path style="opacity:1" fill="#edfefd" d="M 256.5,227.5 C 256.667,252.502 256.5,277.502 256,302.5C 254.72,308.542 253.054,314.542 251,320.5C 248.868,321.928 246.701,323.261 244.5,324.5C 249.967,317.445 253.3,309.445 254.5,300.5C 255.167,276.167 255.833,251.833 256.5,227.5 Z"/></g>
<g><path style="opacity:1" fill="#ebfcfb" d="M 234.5,228.5 C 237.052,229.693 239.552,231.027 242,232.5C 242.599,234.535 242.099,236.201 240.5,237.5C 240.649,236.448 240.483,235.448 240,234.5C 238.615,235.551 237.615,236.884 237,238.5C 236.009,237.57 235.509,236.404 235.5,235C 238.135,231.493 237.135,230.66 232.5,232.5C 229.763,230.898 226.763,230.064 223.5,230C 223.167,229.667 222.833,229.333 222.5,229C 224.5,228.667 226.5,228.333 228.5,228C 224.712,225.921 221.046,226.088 217.5,228.5C 215.431,228.176 215.098,227.342 216.5,226C 210.833,225.333 205.167,225.333 199.5,226C 194.127,227.178 188.793,228.345 183.5,229.5C 187.412,227.018 191.745,225.185 196.5,224C 209.63,222.236 222.296,223.736 234.5,228.5 Z"/></g>
<g><path style="opacity:1" fill="#e0fdfd" d="M 254.5,226.5 C 267.5,226.5 280.5,226.5 293.5,226.5C 293.667,250.169 293.5,273.836 293,297.5C 292.768,298.737 292.268,299.737 291.5,300.5C 292.823,276.16 292.823,251.827 291.5,227.5C 279.833,227.5 268.167,227.5 256.5,227.5C 255.833,251.833 255.167,276.167 254.5,300.5C 254.5,275.833 254.5,251.167 254.5,226.5 Z"/></g>
<g><path style="opacity:1" fill="#e5fafa" d="M 97.5,228.5 C 94.892,231.775 91.892,234.775 88.5,237.5C 87.6922,239.423 87.1922,241.423 87,243.5C 86.1667,242.5 85.3333,241.5 84.5,240.5C 83.7174,242.288 82.3841,243.288 80.5,243.5C 84.6003,236.734 90.2669,231.734 97.5,228.5 Z"/></g>
<g><path style="opacity:1" fill="#d8f8f8" d="M 139.5,226.5 C 146.552,228.276 153.052,231.276 159,235.5C 157.898,239.004 157.065,242.67 156.5,246.5C 152.897,253.704 152.563,261.204 155.5,269C 155.167,269.5 154.833,270 154.5,270.5C 151.1,268.144 147.767,265.811 144.5,263.5C 146.865,264.008 149.199,264.675 151.5,265.5C 151.97,255.788 153.636,246.288 156.5,237C 156.167,236.167 155.833,235.333 155.5,234.5C 151.726,232.813 148.059,230.98 144.5,229C 143.207,228.51 141.873,228.343 140.5,228.5C 140.167,227.833 139.833,227.167 139.5,226.5 Z"/></g>
<g><path style="opacity:1" fill="#e5fdfc" d="M 167.5,246.5 C 166.682,254.175 166.516,261.842 167,269.5C 170.003,274.652 173.503,279.319 177.5,283.5C 168.638,278.284 164.305,270.451 164.5,260C 164.728,256.131 165.228,252.298 166,248.5C 166.278,247.584 166.778,246.918 167.5,246.5 Z"/></g>
<g><path style="opacity:1" fill="#defcfc" d="M 80.5,244.5 C 78.8192,252.732 78.1526,261.066 78.5,269.5C 78.1667,269.5 77.8333,269.5 77.5,269.5C 76.4265,263.885 76.2599,258.218 77,252.5C 77.7048,249.524 78.8714,246.858 80.5,244.5 Z"/></g>
<g><path style="opacity:1" fill="#e0f9f9" d="M 239.5,240.5 C 237.131,247.579 234.464,254.579 231.5,261.5C 230.635,262.583 229.635,262.749 228.5,262C 225.436,260.141 222.436,258.308 219.5,256.5C 223.408,256.872 227.075,257.705 230.5,259C 232.966,252.428 235.966,246.261 239.5,240.5 Z"/></g>
<g><path style="opacity:1" fill="#e7fbfa" d="M 117.5,260.5 C 123.614,261.51 129.28,263.51 134.5,266.5C 130.152,266.091 125.819,265.924 121.5,266C 122.711,266.893 122.711,267.726 121.5,268.5C 121.346,265.521 120.013,262.854 117.5,260.5 Z"/></g>
<g><path style="opacity:1" fill="#dbf9f6" d="M 137.5,267.5 C 142.428,270.099 146.761,273.432 150.5,277.5C 148.692,277.509 147.025,277.009 145.5,276C 143.548,273.263 141.048,271.096 138,269.5C 137.536,268.906 137.369,268.239 137.5,267.5 Z"/></g>
<g><path style="opacity:1" fill="#dffcfc" d="M 223.5,266.5 C 242.109,275.338 247.776,289.338 240.5,308.5C 242.925,300.903 243.091,293.237 241,285.5C 239.814,283.323 237.981,282.323 235.5,282.5C 235.662,280.473 235.495,278.473 235,276.5C 233.5,275 232,273.5 230.5,272C 226.812,271.805 224.478,269.971 223.5,266.5 Z"/></g>
<g><path style="opacity:1" fill="#2f9b99" d="M 176.5,232.5 C 172.492,236.516 169.492,241.182 167.5,246.5C 166.778,246.918 166.278,247.584 166,248.5C 165.228,252.298 164.728,256.131 164.5,260C 164.305,270.451 168.638,278.284 177.5,283.5C 177.973,284.906 178.973,285.573 180.5,285.5C 189.357,289.673 198.69,292.673 208.5,294.5C 208.608,296.514 207.942,298.18 206.5,299.5C 202.154,299.666 197.821,299.499 193.5,299C 190.688,297.451 187.688,296.618 184.5,296.5C 180.538,293.512 176.538,290.512 172.5,287.5C 169.835,284.665 167.335,281.665 165,278.5C 165.652,283.462 166.485,288.462 167.5,293.5C 166.831,297.843 166.164,302.177 165.5,306.5C 165.5,307.167 165.5,307.833 165.5,308.5C 163.513,311.801 161.513,315.134 159.5,318.5C 158.323,316.968 156.989,315.468 155.5,314C 157.587,313.208 159.421,312.041 161,310.5C 161.699,308.926 161.365,307.593 160,306.5C 159.51,307.793 159.343,309.127 159.5,310.5C 158.5,310.5 157.5,310.5 156.5,310.5C 156.657,309.127 156.49,307.793 156,306.5C 152.882,316.338 146.382,323.005 136.5,326.5C 139.681,324.408 142.681,322.075 145.5,319.5C 148.609,316.722 150.942,313.389 152.5,309.5C 154.924,305.09 155.924,300.257 155.5,295C 155.714,290.867 155.048,287.034 153.5,283.5C 152.529,281.517 151.529,279.517 150.5,277.5C 146.761,273.432 142.428,270.099 137.5,267.5C 136.391,267.443 135.391,267.11 134.5,266.5C 129.28,263.51 123.614,261.51 117.5,260.5C 115.821,260.108 114.154,259.608 112.5,259C 111.401,254.727 113.234,252.56 118,252.5C 127.361,254.931 136.194,258.598 144.5,263.5C 147.767,265.811 151.1,268.144 154.5,270.5C 154.833,270 155.167,269.5 155.5,269C 152.563,261.204 152.897,253.704 156.5,246.5C 156.334,251.844 156.501,257.177 157,262.5C 157.333,260.833 157.667,259.167 158,257.5C 158.089,261.028 158.756,264.362 160,267.5C 161,266.5 162,265.5 163,264.5C 163.261,260.294 163.761,256.127 164.5,252C 164.089,250.856 163.756,249.689 163.5,248.5C 166.263,244.125 168.43,239.459 170,234.5C 170.333,235.167 170.667,235.833 171,236.5C 172.74,235.284 173.74,233.618 174,231.5C 174.671,232.252 175.504,232.586 176.5,232.5 Z"/></g>
<g><path style="opacity:1" fill="#eff9fa" d="M 78.5,269.5 C 79.4212,270.981 80.5879,272.314 82,273.5C 85.3713,269.458 86.2047,270.125 84.5,275.5C 85.2739,276.711 86.1072,276.711 87,275.5C 88.4947,277.11 88.6613,278.776 87.5,280.5C 94.9824,282.7 102.316,285.2 109.5,288C 112.882,288.176 116.215,288.676 119.5,289.5C 118.948,291.003 118.948,292.669 119.5,294.5C 108.278,292.195 97.6112,288.362 87.5,283C 82.8495,279.514 79.8495,275.014 78.5,269.5 Z"/></g>
<g><path style="opacity:1" fill="#d8f8f8" d="M 172.5,287.5 C 171.527,288.791 170.527,288.791 169.5,287.5C 168.671,292.467 168.171,297.467 168,302.5C 167.066,303.858 166.232,305.192 165.5,306.5C 166.164,302.177 166.831,297.843 167.5,293.5C 166.485,288.462 165.652,283.462 165,278.5C 167.335,281.665 169.835,284.665 172.5,287.5 Z"/></g>
<g><path style="opacity:1" fill="#dbfafa" d="M 180.5,285.5 C 189.164,287.732 197.83,289.899 206.5,292C 207.381,292.708 208.047,293.542 208.5,294.5C 198.69,292.673 189.357,289.673 180.5,285.5 Z"/></g>
<g><path style="opacity:1" fill="#d5f7f6" d="M 184.5,296.5 C 187.688,296.618 190.688,297.451 193.5,299C 197.821,299.499 202.154,299.666 206.5,299.5C 205.376,300.809 203.876,301.475 202,301.5C 198.519,300.877 195.019,300.377 191.5,300C 188.826,299.33 186.493,298.163 184.5,296.5 Z"/></g>
<g><path style="opacity:1" fill="#cef1f3" d="M 153.5,283.5 C 155.048,287.034 155.714,290.867 155.5,295C 155.924,300.257 154.924,305.09 152.5,309.5C 153.85,304.862 154.516,300.028 154.5,295C 154.321,291.142 153.987,287.309 153.5,283.5 Z"/></g>
<g><path style="opacity:1" fill="#2d9b9b" d="M 77.5,269.5 C 77.8333,269.5 78.1667,269.5 78.5,269.5C 79.8495,275.014 82.8495,279.514 87.5,283C 97.6112,288.362 108.278,292.195 119.5,294.5C 120.791,295.542 120.791,296.708 119.5,298C 116.759,298.977 113.925,299.477 111,299.5C 103.421,298.316 96.254,295.983 89.5,292.5C 88.8702,290.065 87.5369,289.398 85.5,290.5C 82.2122,297.405 79.2122,304.405 76.5,311.5C 75.6554,312.671 74.9887,314.005 74.5,315.5C 73.5416,315.047 72.7083,314.381 72,313.5C 71.6667,313.833 71.3333,314.167 71,314.5C 70.3333,311.5 70.3333,308.5 71,305.5C 73.1101,302.508 74.4434,299.175 75,295.5C 76.3333,294.167 77.6667,292.833 79,291.5C 79.3333,292.167 79.6667,292.833 80,293.5C 80.8525,291.875 81.8525,291.542 83,292.5C 83.4828,291.552 83.6495,290.552 83.5,289.5C 82.1667,289.5 80.8333,289.5 79.5,289.5C 79.1497,285.946 79.8163,282.612 81.5,279.5C 78.8006,276.74 77.4673,273.406 77.5,269.5 Z"/></g>
<g><path style="opacity:1" fill="#e6fbfb" d="M 89.5,292.5 C 88.1667,292.5 86.8333,292.5 85.5,292.5C 85.6646,295.518 85.498,298.518 85,301.5C 84.3333,305.5 83.6667,305.5 83,301.5C 80.8951,304.107 80.0617,307.107 80.5,310.5C 79.0413,310.433 77.7079,310.766 76.5,311.5C 79.2122,304.405 82.2122,297.405 85.5,290.5C 87.5369,289.398 88.8702,290.065 89.5,292.5 Z"/></g>
<g><path style="opacity:1" fill="#cff6f5" d="M 165.5,308.5 C 164.849,312.271 164.016,315.938 163,319.5C 167.124,322.054 171.291,324.387 175.5,326.5C 171.188,325.845 167.188,324.345 163.5,322C 161.907,321.051 160.574,319.885 159.5,318.5C 161.513,315.134 163.513,311.801 165.5,308.5 Z"/></g>
<g><path style="opacity:1" fill="#e0fbfb" d="M 232.5,319.5 C 232.167,320.167 231.833,320.833 231.5,321.5C 228.014,324.445 224.014,326.445 219.5,327.5C 222.406,322.668 226.739,320.001 232.5,319.5 Z"/></g>
<g><path style="opacity:1" fill="#d3fbfb" d="M 244.5,324.5 C 244.5,325.5 244.5,326.5 244.5,327.5C 249.833,327.5 255.167,327.5 260.5,327.5C 260.5,327.833 260.5,328.167 260.5,328.5C 253.833,328.5 247.167,328.5 240.5,328.5C 241.326,326.736 242.659,325.402 244.5,324.5 Z"/></g>
<g><path style="opacity:1" fill="#d2f9f9" d="M 180.5,328.5 C 189.411,330.103 198.411,330.77 207.5,330.5C 198.345,332.158 189.345,331.491 180.5,328.5 Z"/></g>
<g><path style="opacity:1" fill="#e4fbfb" d="M 145.5,319.5 C 142.681,322.075 139.681,324.408 136.5,326.5C 122.123,331.963 107.457,332.797 92.5,329C 88.8818,327.788 85.5485,326.288 82.5,324.5C 83.3764,324.631 84.0431,324.298 84.5,323.5C 83.0183,321.29 83.5183,319.624 86,318.5C 87.3515,320.594 87.8515,322.927 87.5,325.5C 103.485,330.717 119.485,330.717 135.5,325.5C 135.117,322.538 136.117,321.538 138.5,322.5C 140.662,320.98 142.995,319.98 145.5,319.5 Z"/></g>
<g><path style="opacity:1" fill="#2b9a9c" d="M 260.5,328.5 C 260.5,328.167 260.5,327.833 260.5,327.5C 269.196,326.451 276.529,322.784 282.5,316.5C 282.657,317.873 282.49,319.207 282,320.5C 276.135,323.616 276.302,324.782 282.5,324C 286.256,319.251 289.589,314.251 292.5,309C 294.473,308.462 295.473,309.296 295.5,311.5C 293.228,315.126 290.895,318.793 288.5,322.5C 285.649,323.012 284.316,324.679 284.5,327.5C 280.776,327.894 277.276,327.227 274,325.5C 273.127,325.735 272.293,326.069 271.5,326.5C 270.859,328.296 269.859,329.796 268.5,331C 261.864,332.609 255.197,332.776 248.5,331.5C 253.5,330.833 258.5,330.167 263.5,329.5C 262.675,328.614 261.675,328.281 260.5,328.5 Z"/></g>
</svg>
