<?xml version="1.0" encoding="UTF-8"?>
<!DOCTYPE svg PUBLIC "-//W3C//DTD SVG 1.1//EN" "http://www.w3.org/Graphics/SVG/1.1/DTD/svg11.dtd">
<svg xmlns="http://www.w3.org/2000/svg" version="1.1" width="1080px" height="1080px" style="shape-rendering:geometricPrecision; text-rendering:geometricPrecision; image-rendering:optimizeQuality; fill-rule:evenodd; clip-rule:evenodd" xmlns:xlink="http://www.w3.org/1999/xlink">
<g><path style="opacity:1" fill="#000000" d="M -0.5,-0.5 C 359.5,-0.5 719.5,-0.5 1079.5,-0.5C 1079.5,359.5 1079.5,719.5 1079.5,1079.5C 719.5,1079.5 359.5,1079.5 -0.5,1079.5C -0.5,719.5 -0.5,359.5 -0.5,-0.5 Z"/></g>
<g><path style="opacity:1" fill="#fdfdfd" d="M 419.5,249.5 C 417.031,250.317 414.365,250.817 411.5,251C 414.568,250.952 416.902,252.119 418.5,254.5C 417.675,255.386 416.675,255.719 415.5,255.5C 415.5,295.833 415.5,336.167 415.5,376.5C 395.167,376.5 374.833,376.5 354.5,376.5C 354.5,334.167 354.5,291.833 354.5,249.5C 376.167,249.5 397.833,249.5 419.5,249.5 Z"/></g>
<g><path style="opacity:1" fill="#919191" d="M 444.5,249.5 C 444.5,249.167 444.5,248.833 444.5,248.5C 471.167,248.5 497.833,248.5 524.5,248.5C 530.645,249.49 536.978,249.823 543.5,249.5C 547.647,250.325 551.981,250.825 556.5,251C 555.371,270.817 555.204,290.984 556,311.5C 557.33,312.582 558.83,313.249 560.5,313.5C 551.833,321.5 543.5,329.833 535.5,338.5C 534.542,338.047 533.708,337.381 533,336.5C 532.811,307.985 532.311,279.819 531.5,252C 532.167,251.667 532.833,251.333 533.5,251C 523.518,250.084 513.518,249.584 503.5,249.5C 500.833,249.5 498.167,249.5 495.5,249.5C 490.833,249.5 486.167,249.5 481.5,249.5C 475.5,249.5 469.5,249.5 463.5,249.5C 457.167,249.5 450.833,249.5 444.5,249.5 Z"/></g>
<g><path style="opacity:1" fill="#828282" d="M 543.5,249.5 C 551.5,249.5 559.5,249.5 567.5,249.5C 572.316,250.326 577.316,250.826 582.5,251C 580.833,251.333 579.167,251.667 577.5,252C 578.672,252.419 579.672,253.085 580.5,254C 579.174,266.137 579.174,278.303 580.5,290.5C 578.588,292.542 578.421,294.542 580,296.5C 580.928,293.965 582.762,292.965 585.5,293.5C 577.256,300.163 568.922,306.83 560.5,313.5C 558.83,313.249 557.33,312.582 556,311.5C 555.204,290.984 555.371,270.817 556.5,251C 551.981,250.825 547.647,250.325 543.5,249.5 Z"/></g>
<g><path style="opacity:1" fill="#6d6d6d" d="M 567.5,249.5 C 580.833,249.5 594.167,249.5 607.5,249.5C 606.411,251.117 604.744,251.95 602.5,252C 603.308,252.308 603.975,252.808 604.5,253.5C 603.695,262.119 603.195,270.785 603,279.5C 601.992,279.982 600.825,280.148 599.5,280C 600.263,280.944 601.263,281.444 602.5,281.5C 604.135,280.954 605.801,280.62 607.5,280.5C 599.905,284.301 592.572,288.634 585.5,293.5C 582.762,292.965 580.928,293.965 580,296.5C 578.421,294.542 578.588,292.542 580.5,290.5C 579.174,278.303 579.174,266.137 580.5,254C 579.672,253.085 578.672,252.419 577.5,252C 579.167,251.667 580.833,251.333 582.5,251C 577.316,250.826 572.316,250.326 567.5,249.5 Z"/></g>
<g><path style="opacity:1" fill="#4f4f4f" d="M 615.5,249.5 C 624.9,249.114 634.234,249.614 643.5,251C 642.833,251.333 642.167,251.667 641.5,252C 641.833,253 642.167,254 642.5,255C 641.5,255.833 640.5,256.667 639.5,257.5C 642.028,258.517 642.028,259.684 639.5,261C 641.224,261.448 641.891,262.282 641.5,263.5C 642.281,262.271 642.781,260.938 643,259.5C 644.487,260.253 644.654,261.086 643.5,262C 644.094,262.464 644.761,262.631 645.5,262.5C 637.669,266.006 629.669,269.34 621.5,272.5C 620.504,272.586 619.671,272.252 619,271.5C 618.191,265.251 618.358,259.084 619.5,253C 616.833,252.333 616.833,251.667 619.5,251C 617.942,250.79 616.609,250.29 615.5,249.5 Z"/></g>
<g><path style="opacity:1" fill="#3a3a3a" d="M 524.5,248.5 C 571.167,248.5 617.833,248.5 664.5,248.5C 665.107,251.401 666.441,253.734 668.5,255.5C 660.979,257.969 653.313,260.302 645.5,262.5C 644.761,262.631 644.094,262.464 643.5,262C 644.654,261.086 644.487,260.253 643,259.5C 642.781,260.938 642.281,262.271 641.5,263.5C 641.891,262.282 641.224,261.448 639.5,261C 642.028,259.684 642.028,258.517 639.5,257.5C 640.5,256.667 641.5,255.833 642.5,255C 642.167,254 641.833,253 641.5,252C 642.167,251.667 642.833,251.333 643.5,251C 634.234,249.614 624.9,249.114 615.5,249.5C 612.833,249.5 610.167,249.5 607.5,249.5C 594.167,249.5 580.833,249.5 567.5,249.5C 559.5,249.5 551.5,249.5 543.5,249.5C 536.978,249.823 530.645,249.49 524.5,248.5 Z"/></g>
<g><path style="opacity:1" fill="#fdfdfd" d="M 709.5,249.5 C 711.167,249.5 712.833,249.5 714.5,249.5C 719.5,249.5 724.5,249.5 729.5,249.5C 729.5,291.833 729.5,334.167 729.5,376.5C 719.519,376.621 709.852,377.954 700.5,380.5C 700.167,380.5 699.833,380.5 699.5,380.5C 694.378,380.61 689.712,381.944 685.5,384.5C 652.456,397.681 629.123,420.681 615.5,453.5C 612.382,459.042 610.382,465.042 609.5,471.5C 608.207,472.842 607.374,474.509 607,476.5C 606.17,481.808 605.67,487.141 605.5,492.5C 604.527,494.948 604.194,497.615 604.5,500.5C 562.5,500.5 520.5,500.5 478.5,500.5C 478.5,492.833 478.5,485.167 478.5,477.5C 478.5,476.833 478.5,476.167 478.5,475.5C 480.322,468.749 481.322,461.749 481.5,454.5C 481.5,454.167 481.5,453.833 481.5,453.5C 482.913,450.781 483.58,447.781 483.5,444.5C 484.738,440.671 485.738,436.671 486.5,432.5C 487.117,432.389 487.617,432.056 488,431.5C 489.15,427.888 489.983,424.222 490.5,420.5C 494.681,406.756 500.348,393.756 507.5,381.5C 508.338,381.158 508.672,380.492 508.5,379.5C 509.338,379.158 509.672,378.492 509.5,377.5C 511.203,373.767 513.203,370.1 515.5,366.5C 522.261,357.098 528.928,347.765 535.5,338.5C 543.5,329.833 551.833,321.5 560.5,313.5C 568.922,306.83 577.256,300.163 585.5,293.5C 592.572,288.634 599.905,284.301 607.5,280.5C 612.135,277.847 616.801,275.181 621.5,272.5C 629.669,269.34 637.669,266.006 645.5,262.5C 653.313,260.302 660.979,257.969 668.5,255.5C 670.806,255.007 673.139,254.674 675.5,254.5C 687.093,253.698 698.426,252.031 709.5,249.5 Z"/></g>
<g><path style="opacity:1" fill="#585858" d="M 714.5,249.5 C 714.5,249.167 714.5,248.833 714.5,248.5C 719.833,248.5 725.167,248.5 730.5,248.5C 730.832,291.337 730.499,334.003 729.5,376.5C 729.5,334.167 729.5,291.833 729.5,249.5C 724.5,249.5 719.5,249.5 714.5,249.5 Z"/></g>
<g><path style="opacity:1" fill="#d9d9d9" d="M 439.5,249.5 C 441.167,249.5 442.833,249.5 444.5,249.5C 450.833,249.5 457.167,249.5 463.5,249.5C 461.708,250.309 459.708,250.809 457.5,251C 459.167,251.333 460.833,251.667 462.5,252C 461.366,253.016 461.699,253.683 463.5,254C 462.173,274.116 461.506,294.45 461.5,315C 461.511,335.717 462.178,356.217 463.5,376.5C 458.167,376.5 452.833,376.5 447.5,376.5C 448.153,335.348 447.487,294.348 445.5,253.5C 446.025,252.808 446.692,252.308 447.5,252C 444.635,251.817 441.969,251.317 439.5,250.5C 439.5,250.167 439.5,249.833 439.5,249.5 Z"/></g>
<g><path style="opacity:1" fill="#b4b4b4" d="M 495.5,249.5 C 498.167,249.5 500.833,249.5 503.5,249.5C 505.969,250.317 508.635,250.817 511.5,251C 506.604,251.543 506.604,252.876 511.5,255C 510.161,292.765 508.827,330.599 507.5,368.5C 508.98,369.113 510.313,369.446 511.5,369.5C 508.875,371.081 507.542,373.415 507.5,376.5C 502.167,376.5 496.833,376.5 491.5,376.5C 492.828,336 494.161,295.5 495.5,255C 490.167,254.333 490.167,253.667 495.5,253C 493.5,252.667 491.5,252.333 489.5,252C 492.051,251.998 494.051,251.164 495.5,249.5 Z"/></g>
<g><path style="opacity:1" fill="#a6a6a6" d="M 503.5,249.5 C 513.518,249.584 523.518,250.084 533.5,251C 532.833,251.333 532.167,251.667 531.5,252C 532.311,279.819 532.811,307.985 533,336.5C 533.708,337.381 534.542,338.047 535.5,338.5C 528.928,347.765 522.261,357.098 515.5,366.5C 513.203,370.1 511.203,373.767 509.5,377.5C 509.158,376.662 508.492,376.328 507.5,376.5C 507.542,373.415 508.875,371.081 511.5,369.5C 510.313,369.446 508.98,369.113 507.5,368.5C 508.827,330.599 510.161,292.765 511.5,255C 506.604,252.876 506.604,251.543 511.5,251C 508.635,250.817 505.969,250.317 503.5,249.5 Z"/></g>
<g><path style="opacity:1" fill="#5f5f5f" d="M 607.5,249.5 C 610.167,249.5 612.833,249.5 615.5,249.5C 616.609,250.29 617.942,250.79 619.5,251C 616.833,251.667 616.833,252.333 619.5,253C 618.358,259.084 618.191,265.251 619,271.5C 619.671,272.252 620.504,272.586 621.5,272.5C 616.801,275.181 612.135,277.847 607.5,280.5C 605.801,280.62 604.135,280.954 602.5,281.5C 601.263,281.444 600.263,280.944 599.5,280C 600.825,280.148 601.992,279.982 603,279.5C 603.195,270.785 603.695,262.119 604.5,253.5C 603.975,252.808 603.308,252.308 602.5,252C 604.744,251.95 606.411,251.117 607.5,249.5 Z"/></g>
<g><path style="opacity:1" fill="#282828" d="M 664.5,248.5 C 681.309,248.918 697.975,248.918 714.5,248.5C 714.5,248.833 714.5,249.167 714.5,249.5C 712.833,249.5 711.167,249.5 709.5,249.5C 697.881,250.106 686.547,251.772 675.5,254.5C 673.139,254.674 670.806,255.007 668.5,255.5C 666.441,253.734 665.107,251.401 664.5,248.5 Z"/></g>
<g><path style="opacity:1" fill="#f2f2f2" d="M 419.5,249.5 C 426.167,249.5 432.833,249.5 439.5,249.5C 439.5,249.833 439.5,250.167 439.5,250.5C 436.813,250.336 434.146,250.503 431.5,251C 432.641,251.741 432.641,252.575 431.5,253.5C 432.025,254.192 432.692,254.692 433.5,255C 431.509,295.28 430.842,335.78 431.5,376.5C 426.167,376.5 420.833,376.5 415.5,376.5C 415.5,336.167 415.5,295.833 415.5,255.5C 416.675,255.719 417.675,255.386 418.5,254.5C 416.902,252.119 414.568,250.952 411.5,251C 414.365,250.817 417.031,250.317 419.5,249.5 Z"/></g>
<g><path style="opacity:1" fill="#e5e5e5" d="M 439.5,250.5 C 441.969,251.317 444.635,251.817 447.5,252C 446.692,252.308 446.025,252.808 445.5,253.5C 447.487,294.348 448.153,335.348 447.5,376.5C 442.833,376.5 438.167,376.5 433.5,376.5C 432.833,376.5 432.167,376.5 431.5,376.5C 430.842,335.78 431.509,295.28 433.5,255C 432.692,254.692 432.025,254.192 431.5,253.5C 432.641,252.575 432.641,251.741 431.5,251C 434.146,250.503 436.813,250.336 439.5,250.5 Z"/></g>
<g><path style="opacity:1" fill="#cdcdcd" d="M 463.5,249.5 C 469.5,249.5 475.5,249.5 481.5,249.5C 481.611,250.117 481.944,250.617 482.5,251C 479.167,251.333 475.833,251.667 472.5,252C 475.553,252.179 478.553,252.679 481.5,253.5C 480.758,254.287 479.925,254.953 479,255.5C 478.833,259.5 478.667,263.5 478.5,267.5C 479.281,303.911 479.614,340.244 479.5,376.5C 474.167,376.5 468.833,376.5 463.5,376.5C 462.178,356.217 461.511,335.717 461.5,315C 461.506,294.45 462.173,274.116 463.5,254C 461.699,253.683 461.366,253.016 462.5,252C 460.833,251.667 459.167,251.333 457.5,251C 459.708,250.809 461.708,250.309 463.5,249.5 Z"/></g>
<g><path style="opacity:1" fill="#c0c0c0" d="M 481.5,249.5 C 486.167,249.5 490.833,249.5 495.5,249.5C 494.051,251.164 492.051,251.998 489.5,252C 491.5,252.333 493.5,252.667 495.5,253C 490.167,253.667 490.167,254.333 495.5,255C 494.161,295.5 492.828,336 491.5,376.5C 487.5,376.5 483.5,376.5 479.5,376.5C 479.614,340.244 479.281,303.911 478.5,267.5C 478.667,263.5 478.833,259.5 479,255.5C 479.925,254.953 480.758,254.287 481.5,253.5C 478.553,252.679 475.553,252.179 472.5,252C 475.833,251.667 479.167,251.333 482.5,251C 481.944,250.617 481.611,250.117 481.5,249.5 Z"/></g>
<g><path style="opacity:1" fill="#bebebe" d="M 709.5,249.5 C 698.426,252.031 687.093,253.698 675.5,254.5C 686.547,251.772 697.881,250.106 709.5,249.5 Z"/></g>
<g><path style="opacity:1" fill="#9f9f9f" d="M 444.5,248.5 C 444.5,248.833 444.5,249.167 444.5,249.5C 442.833,249.5 441.167,249.5 439.5,249.5C 432.833,249.5 426.167,249.5 419.5,249.5C 397.833,249.5 376.167,249.5 354.5,249.5C 354.5,291.833 354.5,334.167 354.5,376.5C 374.833,376.5 395.167,376.5 415.5,376.5C 420.833,376.5 426.167,376.5 431.5,376.5C 432.167,376.5 432.833,376.5 433.5,376.5C 433.5,376.833 433.5,377.167 433.5,377.5C 407.167,377.5 380.833,377.5 354.5,377.5C 353.501,334.67 353.168,291.67 353.5,248.5C 383.833,248.5 414.167,248.5 444.5,248.5 Z"/></g>
<g><path style="opacity:1" fill="#6d6d6d" d="M 433.5,377.5 C 433.5,377.167 433.5,376.833 433.5,376.5C 438.167,376.5 442.833,376.5 447.5,376.5C 452.833,376.5 458.167,376.5 463.5,376.5C 468.833,376.5 474.167,376.5 479.5,376.5C 483.5,376.5 487.5,376.5 491.5,376.5C 496.833,376.5 502.167,376.5 507.5,376.5C 508.492,376.328 509.158,376.662 509.5,377.5C 509.672,378.492 509.338,379.158 508.5,379.5C 483.856,377.509 458.856,376.843 433.5,377.5 Z"/></g>
<g><path style="opacity:1" fill="#171717" d="M 354.5,377.5 C 380.833,377.5 407.167,377.5 433.5,377.5C 458.856,376.843 483.856,377.509 508.5,379.5C 508.672,380.492 508.338,381.158 507.5,381.5C 507.5,380.5 507.5,379.5 507.5,378.5C 456.331,378.832 405.331,378.499 354.5,377.5 Z"/></g>
<g><path style="opacity:1" fill="#434343" d="M 729.5,376.5 C 720.04,378.306 710.373,379.639 700.5,380.5C 709.852,377.954 719.519,376.621 729.5,376.5 Z"/></g>
<g><path style="opacity:1" fill="#bababa" d="M 699.5,380.5 C 695.022,382.123 690.355,383.456 685.5,384.5C 689.712,381.944 694.378,380.61 699.5,380.5 Z"/></g>
<g><path style="opacity:1" fill="#878787" d="M 490.5,420.5 C 489.983,424.222 489.15,427.888 488,431.5C 487.617,432.056 487.117,432.389 486.5,432.5C 487.262,428.215 488.595,424.215 490.5,420.5 Z"/></g>
<g><path style="opacity:1" fill="#565656" d="M 483.5,444.5 C 483.58,447.781 482.913,450.781 481.5,453.5C 481.42,450.219 482.087,447.219 483.5,444.5 Z"/></g>
<g><path style="opacity:1" fill="#858585" d="M 481.5,454.5 C 481.322,461.749 480.322,468.749 478.5,475.5C 478.678,468.251 479.678,461.251 481.5,454.5 Z"/></g>
<g><path style="opacity:1" fill="#3e3e3e" d="M 615.5,453.5 C 615.238,454.978 615.571,456.311 616.5,457.5C 622.641,459.406 628.307,462.073 633.5,465.5C 627.558,465.212 627.225,466.045 632.5,468C 629.349,467.988 626.682,468.988 624.5,471C 626.158,471.725 626.658,472.892 626,474.5C 623.542,480.813 620.376,486.813 616.5,492.5C 615.901,496.544 614.567,500.211 612.5,503.5C 610.408,503.561 608.908,504.561 608,506.5C 608.293,510.568 606.959,513.902 604,516.5C 603.64,518.608 602.973,520.608 602,522.5C 592.026,540.284 582.192,558.117 572.5,576C 573.252,576.671 573.586,577.504 573.5,578.5C 571.181,578.008 569.181,577.008 567.5,575.5C 566.77,573.955 565.437,573.122 563.5,573C 565.988,571.315 565.655,569.981 562.5,569C 563.448,568.517 564.448,568.351 565.5,568.5C 569.618,557.361 573.118,546.028 576,534.5C 578.366,530.313 580.366,525.98 582,521.5C 583.043,518.243 583.543,514.91 583.5,511.5C 584.5,511.5 585.5,511.5 586.5,511.5C 586.28,507.696 587.28,504.363 589.5,501.5C 594.833,501.5 600.167,501.5 605.5,501.5C 606.09,491.529 607.424,481.529 609.5,471.5C 610.382,465.042 612.382,459.042 615.5,453.5 Z"/></g>
<g><path style="opacity:1" fill="#4b4b4b" d="M 633.5,465.5 C 640.506,469 647.173,473 653.5,477.5C 652.761,477.369 652.094,477.536 651.5,478C 652.696,478.654 652.696,479.154 651.5,479.5C 650.28,478.289 649.113,478.289 648,479.5C 643.343,487.494 638.676,495.494 634,503.5C 630.263,505.298 628.263,508.298 628,512.5C 623.546,516.541 619.546,520.875 616,525.5C 615.544,526.744 616.044,527.577 617.5,528C 610.081,535.824 603.915,544.657 599,554.5C 592.478,562.139 586.311,569.973 580.5,578C 583.279,578.149 583.779,578.983 582,580.5C 580.951,579.483 579.784,579.316 578.5,580C 579.71,581.039 580.71,582.206 581.5,583.5C 578.825,581.83 576.159,580.164 573.5,578.5C 573.586,577.504 573.252,576.671 572.5,576C 582.192,558.117 592.026,540.284 602,522.5C 602.973,520.608 603.64,518.608 604,516.5C 606.959,513.902 608.293,510.568 608,506.5C 608.908,504.561 610.408,503.561 612.5,503.5C 614.567,500.211 615.901,496.544 616.5,492.5C 620.376,486.813 623.542,480.813 626,474.5C 626.658,472.892 626.158,471.725 624.5,471C 626.682,468.988 629.349,467.988 632.5,468C 627.225,466.045 627.558,465.212 633.5,465.5 Z"/></g>
<g><path style="opacity:1" fill="#8f8f8f" d="M 609.5,471.5 C 607.424,481.529 606.09,491.529 605.5,501.5C 605.5,498.5 605.5,495.5 605.5,492.5C 605.67,487.141 606.17,481.808 607,476.5C 607.374,474.509 608.207,472.842 609.5,471.5 Z"/></g>
<g><path style="opacity:1" fill="#585858" d="M 653.5,477.5 C 660.469,482.141 666.803,487.474 672.5,493.5C 670.5,494.626 668.5,494.793 666.5,494C 666.833,494.333 667.167,494.667 667.5,495C 664.667,495.167 663.167,496.667 663,499.5C 661.226,501.94 658.892,503.606 656,504.5C 655.503,506.81 655.337,509.143 655.5,511.5C 652.438,512.666 649.438,514.166 646.5,516C 645.283,517.648 644.45,519.481 644,521.5C 641.621,523.513 639.121,525.346 636.5,527C 637.5,527.333 638.5,527.667 639.5,528C 633.68,532.794 629.513,538.628 627,545.5C 624.899,546.924 622.733,548.258 620.5,549.5C 619.902,550.795 619.402,552.128 619,553.5C 613.469,556.965 609.635,561.632 607.5,567.5C 606.022,567.238 604.689,567.571 603.5,568.5C 602.833,569.833 601.833,570.833 600.5,571.5C 596.471,577.513 592.137,583.179 587.5,588.5C 585.46,586.823 583.46,585.156 581.5,583.5C 580.71,582.206 579.71,581.039 578.5,580C 579.784,579.316 580.951,579.483 582,580.5C 583.779,578.983 583.279,578.149 580.5,578C 586.311,569.973 592.478,562.139 599,554.5C 603.915,544.657 610.081,535.824 617.5,528C 616.044,527.577 615.544,526.744 616,525.5C 619.546,520.875 623.546,516.541 628,512.5C 628.263,508.298 630.263,505.298 634,503.5C 638.676,495.494 643.343,487.494 648,479.5C 649.113,478.289 650.28,478.289 651.5,479.5C 652.696,479.154 652.696,478.654 651.5,478C 652.094,477.536 652.761,477.369 653.5,477.5 Z"/></g>
<g><path style="opacity:1" fill="#606060" d="M 672.5,493.5 C 675.432,494.8 677.766,496.8 679.5,499.5C 678.226,500.189 678.226,501.023 679.5,502C 671.391,508.685 663.724,515.852 656.5,523.5C 655.508,527.826 652.841,530.492 648.5,531.5C 645.816,536.35 641.983,540.017 637,542.5C 636.151,545.521 635.317,548.521 634.5,551.5C 633.127,551.343 631.793,551.51 630.5,552C 617.891,564.945 605.058,577.445 592,589.5C 591.805,590.819 591.972,592.153 592.5,593.5C 590.473,592.139 588.806,590.473 587.5,588.5C 592.137,583.179 596.471,577.513 600.5,571.5C 601.833,570.833 602.833,569.833 603.5,568.5C 604.689,567.571 606.022,567.238 607.5,567.5C 609.635,561.632 613.469,556.965 619,553.5C 619.402,552.128 619.902,550.795 620.5,549.5C 622.733,548.258 624.899,546.924 627,545.5C 629.513,538.628 633.68,532.794 639.5,528C 638.5,527.667 637.5,527.333 636.5,527C 639.121,525.346 641.621,523.513 644,521.5C 644.45,519.481 645.283,517.648 646.5,516C 649.438,514.166 652.438,512.666 655.5,511.5C 655.337,509.143 655.503,506.81 656,504.5C 658.892,503.606 661.226,501.94 663,499.5C 663.167,496.667 664.667,495.167 667.5,495C 667.167,494.667 666.833,494.333 666.5,494C 668.5,494.793 670.5,494.626 672.5,493.5 Z"/></g>
<g><path style="opacity:1" fill="#d8d8d8" d="M 478.5,477.5 C 478.5,485.167 478.5,492.833 478.5,500.5C 520.5,500.5 562.5,500.5 604.5,500.5C 604.194,497.615 604.527,494.948 605.5,492.5C 605.5,495.5 605.5,498.5 605.5,501.5C 600.167,501.5 594.833,501.5 589.5,501.5C 584.833,501.5 580.167,501.5 575.5,501.5C 572.833,501.5 570.167,501.5 567.5,501.5C 562.167,501.5 556.833,501.5 551.5,501.5C 526.833,501.5 502.167,501.5 477.5,501.5C 477.174,493.316 477.508,485.316 478.5,477.5 Z"/></g>
<g><path style="opacity:1" fill="#101010" d="M 551.5,501.5 C 556.833,501.5 562.167,501.5 567.5,501.5C 566.791,502.404 565.791,502.737 564.5,502.5C 563.317,515.301 561.484,527.967 559,540.5C 556.546,550.373 554.379,560.206 552.5,570C 553.416,570.278 554.082,570.778 554.5,571.5C 550.781,571.998 547.447,571.164 544.5,569C 546.459,547.144 547.792,524.977 548.5,502.5C 549.791,502.737 550.791,502.404 551.5,501.5 Z"/></g>
<g><path style="opacity:1" fill="#202020" d="M 567.5,501.5 C 570.167,501.5 572.833,501.5 575.5,501.5C 576.263,502.268 577.263,502.768 578.5,503C 577.584,503.374 576.75,503.874 576,504.5C 575.667,507.167 575.333,509.833 575,512.5C 572.667,520.149 570.333,527.815 568,535.5C 567.503,538.146 567.336,540.813 567.5,543.5C 566.5,543.5 565.5,543.5 564.5,543.5C 562.611,553.329 560.944,562.996 559.5,572.5C 557.784,572.371 556.117,572.038 554.5,571.5C 554.082,570.778 553.416,570.278 552.5,570C 554.379,560.206 556.546,550.373 559,540.5C 561.484,527.967 563.317,515.301 564.5,502.5C 565.791,502.737 566.791,502.404 567.5,501.5 Z"/></g>
<g><path style="opacity:1" fill="#2c2c2c" d="M 575.5,501.5 C 580.167,501.5 584.833,501.5 589.5,501.5C 587.28,504.363 586.28,507.696 586.5,511.5C 585.5,511.5 584.5,511.5 583.5,511.5C 583.543,514.91 583.043,518.243 582,521.5C 580.366,525.98 578.366,530.313 576,534.5C 573.118,546.028 569.618,557.361 565.5,568.5C 564.448,568.351 563.448,568.517 562.5,569C 565.655,569.981 565.988,571.315 563.5,573C 565.437,573.122 566.77,573.955 567.5,575.5C 564.594,575.043 561.928,574.043 559.5,572.5C 560.944,562.996 562.611,553.329 564.5,543.5C 565.5,543.5 566.5,543.5 567.5,543.5C 567.336,540.813 567.503,538.146 568,535.5C 570.333,527.815 572.667,520.149 575,512.5C 575.333,509.833 575.667,507.167 576,504.5C 576.75,503.874 577.584,503.374 578.5,503C 577.263,502.768 576.263,502.268 575.5,501.5 Z"/></g>
<g><path style="opacity:1" fill="#666666" d="M 679.5,499.5 C 683.847,502.848 687.514,506.848 690.5,511.5C 689.504,511.414 688.671,511.748 688,512.5C 688.899,516.359 687.399,519.026 683.5,520.5C 681.32,522.261 679.654,524.427 678.5,527C 675.063,529.925 671.396,532.425 667.5,534.5C 666.311,535.429 664.978,535.762 663.5,535.5C 663.762,536.978 663.429,538.311 662.5,539.5C 661.167,540.167 660.167,541.167 659.5,542.5C 658.311,543.429 656.978,543.762 655.5,543.5C 655.5,544.5 655.5,545.5 655.5,546.5C 652.833,547.167 650.167,547.833 647.5,548.5C 647.5,550.5 647.5,552.5 647.5,554.5C 642.86,554.756 639.527,556.923 637.5,561C 635.5,562 633.5,563 631.5,564C 626.767,568.935 621.434,572.768 615.5,575.5C 615.762,576.978 615.429,578.311 614.5,579.5C 608.702,583.904 602.702,588.071 596.5,592C 596.957,592.414 597.291,592.914 597.5,593.5C 596.388,594.265 595.721,595.265 595.5,596.5C 594.167,595.833 593.167,594.833 592.5,593.5C 591.972,592.153 591.805,590.819 592,589.5C 605.058,577.445 617.891,564.945 630.5,552C 631.793,551.51 633.127,551.343 634.5,551.5C 635.317,548.521 636.151,545.521 637,542.5C 641.983,540.017 645.816,536.35 648.5,531.5C 652.841,530.492 655.508,527.826 656.5,523.5C 663.724,515.852 671.391,508.685 679.5,502C 678.226,501.023 678.226,500.189 679.5,499.5 Z"/></g>
<g><path style="opacity:1" fill="#717171" d="M 690.5,511.5 C 701.408,522.977 710.075,535.977 716.5,550.5C 715.167,550.5 713.833,550.5 712.5,550.5C 712.642,546.777 711.309,545.944 708.5,548C 705.855,551.164 706.855,552.331 711.5,551.5C 711.5,552.5 711.5,553.5 711.5,554.5C 708.833,554.5 706.167,554.5 703.5,554.5C 703.5,555.5 703.5,556.5 703.5,557.5C 700.102,557.18 696.768,557.513 693.5,558.5C 694.853,559.524 695.52,560.857 695.5,562.5C 692.833,562.5 690.167,562.5 687.5,562.5C 687.5,563.5 687.5,564.5 687.5,565.5C 684.102,565.18 680.768,565.513 677.5,566.5C 678.853,567.524 679.52,568.857 679.5,570.5C 676.833,570.5 674.167,570.5 671.5,570.5C 671.5,571.5 671.5,572.5 671.5,573.5C 668.102,573.18 664.768,573.513 661.5,574.5C 662.853,575.524 663.52,576.857 663.5,578.5C 660.482,578.335 657.482,578.502 654.5,579C 652.5,579.667 651.167,581 650.5,583C 649.552,583.483 648.552,583.649 647.5,583.5C 647.5,584.5 647.5,585.5 647.5,586.5C 644.482,586.335 641.482,586.502 638.5,587C 636.5,587.667 635.167,589 634.5,591C 633.552,591.483 632.552,591.649 631.5,591.5C 631.5,592.5 631.5,593.5 631.5,594.5C 626.437,594.013 622.103,595.513 618.5,599C 616.833,599.333 615.167,599.667 613.5,600C 612,602.833 609.833,605 607,606.5C 606.252,604.668 605.252,603.001 604,601.5C 605.219,606.034 605.719,610.7 605.5,615.5C 602.983,608.801 599.649,602.468 595.5,596.5C 595.721,595.265 596.388,594.265 597.5,593.5C 597.291,592.914 596.957,592.414 596.5,592C 602.702,588.071 608.702,583.904 614.5,579.5C 615.429,578.311 615.762,576.978 615.5,575.5C 621.434,572.768 626.767,568.935 631.5,564C 633.5,563 635.5,562 637.5,561C 639.527,556.923 642.86,554.756 647.5,554.5C 647.5,552.5 647.5,550.5 647.5,548.5C 650.167,547.833 652.833,547.167 655.5,546.5C 655.5,545.5 655.5,544.5 655.5,543.5C 656.978,543.762 658.311,543.429 659.5,542.5C 660.167,541.167 661.167,540.167 662.5,539.5C 663.429,538.311 663.762,536.978 663.5,535.5C 664.978,535.762 666.311,535.429 667.5,534.5C 671.396,532.425 675.063,529.925 678.5,527C 679.654,524.427 681.32,522.261 683.5,520.5C 687.399,519.026 688.899,516.359 688,512.5C 688.671,511.748 689.504,511.414 690.5,511.5 Z"/></g>
<g><path style="opacity:1" fill="#797979" d="M 716.5,550.5 C 722.837,562.165 727.504,574.498 730.5,587.5C 729.883,587.611 729.383,587.944 729,588.5C 728.667,586.833 728.333,585.167 728,583.5C 727.517,584.448 727.351,585.448 727.5,586.5C 724.833,586.5 722.167,586.5 719.5,586.5C 719.5,585.5 719.5,584.5 719.5,583.5C 716.833,583.5 714.167,583.5 711.5,583.5C 711.5,587.167 711.5,590.833 711.5,594.5C 708.15,594.335 704.817,594.502 701.5,595C 699.978,597.305 697.978,598.805 695.5,599.5C 695.5,600.5 695.5,601.5 695.5,602.5C 684.833,603.167 674.167,603.833 663.5,604.5C 663.5,605.5 663.5,606.5 663.5,607.5C 660.833,607.5 658.167,607.5 655.5,607.5C 655.5,608.5 655.5,609.5 655.5,610.5C 650.167,611.167 644.833,611.833 639.5,612.5C 639.5,613.5 639.5,614.5 639.5,615.5C 634.167,615.5 628.833,615.5 623.5,615.5C 623.5,616.5 623.5,617.5 623.5,618.5C 620.833,618.5 618.167,618.5 615.5,618.5C 615.66,620.199 615.494,621.866 615,623.5C 614.505,621.527 614.338,619.527 614.5,617.5C 613.325,617.281 612.325,617.614 611.5,618.5C 612.485,620.098 612.651,621.765 612,623.5C 611.417,621.998 610.584,620.665 609.5,619.5C 609.24,620.905 608.907,622.238 608.5,623.5C 608.167,623.5 607.833,623.5 607.5,623.5C 607.416,620.673 606.75,618.006 605.5,615.5C 605.719,610.7 605.219,606.034 604,601.5C 605.252,603.001 606.252,604.668 607,606.5C 609.833,605 612,602.833 613.5,600C 615.167,599.667 616.833,599.333 618.5,599C 622.103,595.513 626.437,594.013 631.5,594.5C 631.5,593.5 631.5,592.5 631.5,591.5C 632.552,591.649 633.552,591.483 634.5,591C 635.167,589 636.5,587.667 638.5,587C 641.482,586.502 644.482,586.335 647.5,586.5C 647.5,585.5 647.5,584.5 647.5,583.5C 648.552,583.649 649.552,583.483 650.5,583C 651.167,581 652.5,579.667 654.5,579C 657.482,578.502 660.482,578.335 663.5,578.5C 663.52,576.857 662.853,575.524 661.5,574.5C 664.768,573.513 668.102,573.18 671.5,573.5C 671.5,572.5 671.5,571.5 671.5,570.5C 674.167,570.5 676.833,570.5 679.5,570.5C 679.52,568.857 678.853,567.524 677.5,566.5C 680.768,565.513 684.102,565.18 687.5,565.5C 687.5,564.5 687.5,563.5 687.5,562.5C 690.167,562.5 692.833,562.5 695.5,562.5C 695.52,560.857 694.853,559.524 693.5,558.5C 696.768,557.513 700.102,557.18 703.5,557.5C 703.5,556.5 703.5,555.5 703.5,554.5C 706.167,554.5 708.833,554.5 711.5,554.5C 711.5,553.5 711.5,552.5 711.5,551.5C 706.855,552.331 705.855,551.164 708.5,548C 711.309,545.944 712.642,546.777 712.5,550.5C 713.833,550.5 715.167,550.5 716.5,550.5 Z"/></g>
<g><path style="opacity:1" fill="#7e7e7e" d="M 730.5,587.5 C 735.434,603.036 737.767,619.036 737.5,635.5C 736.883,635.389 736.383,635.056 736,634.5C 730.803,636.42 725.303,637.087 719.5,636.5C 719.5,637.5 719.5,638.5 719.5,639.5C 700.821,639.833 682.155,639.5 663.5,638.5C 647.107,638.147 630.941,637.147 615,635.5C 615.988,637.92 615.655,640.253 614,642.5C 612.798,640.447 612.464,638.447 613,636.5C 611.641,637.365 610.474,638.365 609.5,639.5C 609.528,634.138 609.194,628.805 608.5,623.5C 608.907,622.238 609.24,620.905 609.5,619.5C 610.584,620.665 611.417,621.998 612,623.5C 612.651,621.765 612.485,620.098 611.5,618.5C 612.325,617.614 613.325,617.281 614.5,617.5C 614.338,619.527 614.505,621.527 615,623.5C 615.494,621.866 615.66,620.199 615.5,618.5C 618.167,618.5 620.833,618.5 623.5,618.5C 623.5,617.5 623.5,616.5 623.5,615.5C 628.833,615.5 634.167,615.5 639.5,615.5C 639.5,614.5 639.5,613.5 639.5,612.5C 644.833,611.833 650.167,611.167 655.5,610.5C 655.5,609.5 655.5,608.5 655.5,607.5C 658.167,607.5 660.833,607.5 663.5,607.5C 663.5,606.5 663.5,605.5 663.5,604.5C 674.167,603.833 684.833,603.167 695.5,602.5C 695.5,601.5 695.5,600.5 695.5,599.5C 697.978,598.805 699.978,597.305 701.5,595C 704.817,594.502 708.15,594.335 711.5,594.5C 711.5,590.833 711.5,587.167 711.5,583.5C 714.167,583.5 716.833,583.5 719.5,583.5C 719.5,584.5 719.5,585.5 719.5,586.5C 722.167,586.5 724.833,586.5 727.5,586.5C 727.351,585.448 727.517,584.448 728,583.5C 728.333,585.167 728.667,586.833 729,588.5C 729.383,587.944 729.883,587.611 730.5,587.5 Z"/></g>
<g><path style="opacity:1" fill="#858585" d="M 737.5,635.5 C 737.666,642.175 737.5,648.842 737,655.5C 736.884,660.434 736.051,665.1 734.5,669.5C 734.436,665.78 733.936,662.114 733,658.5C 731.853,660.731 730.853,663.065 730,665.5C 729.598,664.128 729.098,662.795 728.5,661.5C 722.872,660.505 717.206,660.171 711.5,660.5C 711.5,659.5 711.5,658.5 711.5,657.5C 695.5,656.833 679.5,656.167 663.5,655.5C 663.5,654.5 663.5,653.5 663.5,652.5C 656.733,652.821 650.066,652.154 643.5,650.5C 639.593,651.811 635.593,652.478 631.5,652.5C 631.5,653.5 631.5,654.5 631.5,655.5C 623.52,656.497 615.52,657.497 607.5,658.5C 606.965,660.261 605.965,661.594 604.5,662.5C 605.508,659.156 606.508,655.823 607.5,652.5C 608.268,651.737 608.768,650.737 609,649.5C 609.498,646.183 609.665,642.85 609.5,639.5C 610.474,638.365 611.641,637.365 613,636.5C 612.464,638.447 612.798,640.447 614,642.5C 615.655,640.253 615.988,637.92 615,635.5C 630.941,637.147 647.107,638.147 663.5,638.5C 682.155,639.5 700.821,639.833 719.5,639.5C 719.5,638.5 719.5,637.5 719.5,636.5C 725.303,637.087 730.803,636.42 736,634.5C 736.383,635.056 736.883,635.389 737.5,635.5 Z"/></g>
<g><path style="opacity:1" fill="#696969" d="M 345.5,638.5 C 387.998,637.335 430.665,637.169 473.5,638C 474.435,640.381 474.768,642.881 474.5,645.5C 473.833,643.5 473.167,641.5 472.5,639.5C 430.337,638.501 388.003,638.168 345.5,638.5 Z"/></g>
<g><path style="opacity:1" fill="#cecece" d="M 345.5,638.5 C 388.003,638.168 430.337,638.501 472.5,639.5C 430.5,639.5 388.5,639.5 346.5,639.5C 346.5,645.5 346.5,651.5 346.5,657.5C 345.51,651.355 345.177,645.022 345.5,638.5 Z"/></g>
<g><path style="opacity:1" fill="#2c2c2c" d="M 607.5,623.5 C 607.833,623.5 608.167,623.5 608.5,623.5C 609.194,628.805 609.528,634.138 609.5,639.5C 609.665,642.85 609.498,646.183 609,649.5C 608.768,650.737 608.268,651.737 607.5,652.5C 608.447,642.851 608.447,633.184 607.5,623.5 Z"/></g>
<g><path style="opacity:1" fill="#fcfcfc" d="M 472.5,639.5 C 473.167,641.5 473.833,643.5 474.5,645.5C 475.234,654.028 477.567,662.028 481.5,669.5C 481.579,670.93 481.246,672.264 480.5,673.5C 481.263,674.719 482.263,675.719 483.5,676.5C 477.955,680.551 472.288,684.384 466.5,688C 461.442,696.063 455.275,703.23 448,709.5C 447.751,708.376 447.251,707.376 446.5,706.5C 446.167,706.667 445.833,706.833 445.5,707C 443.487,709.379 441.654,711.879 440,714.5C 439.517,715.448 439.351,716.448 439.5,717.5C 433.091,717.053 428.091,719.553 424.5,725C 413.504,725.967 413.171,726.8 423.5,727.5C 423.5,728.5 423.5,729.5 423.5,730.5C 420.833,730.5 418.167,730.5 415.5,730.5C 415.5,731.5 415.5,732.5 415.5,733.5C 412.753,733.187 410.086,733.52 407.5,734.5C 408.376,735.251 409.376,735.751 410.5,736C 408.393,737.264 407.393,739.097 407.5,741.5C 402.167,742.167 396.833,742.833 391.5,743.5C 391.5,745.5 391.5,747.5 391.5,749.5C 388.552,749.777 385.719,749.444 383,748.5C 382.722,749.416 382.222,750.082 381.5,750.5C 380.5,749.833 379.5,749.167 378.5,748.5C 370.254,734.674 363.087,720.34 357,705.5C 351.916,689.833 348.416,673.833 346.5,657.5C 346.5,651.5 346.5,645.5 346.5,639.5C 388.5,639.5 430.5,639.5 472.5,639.5 Z"/></g>
<g><path style="opacity:1" fill="#8e8e8e" d="M 734.5,669.5 C 732.441,683.454 729.108,697.121 724.5,710.5C 724.043,711.298 723.376,711.631 722.5,711.5C 722.26,708.421 722.593,705.421 723.5,702.5C 723,701.5 722.5,700.5 722,699.5C 721.64,701.608 720.973,703.608 720,705.5C 714.593,704.527 709.093,704.193 703.5,704.5C 703.5,702.833 703.5,701.167 703.5,699.5C 700.833,699.5 698.167,699.5 695.5,699.5C 695.5,698.5 695.5,697.5 695.5,696.5C 692.833,696.5 690.167,696.5 687.5,696.5C 687.5,694.833 687.5,693.167 687.5,691.5C 684.15,691.665 680.817,691.498 677.5,691C 676.643,690.311 675.977,689.478 675.5,688.5C 667.376,689.414 660.876,686.747 656,680.5C 655.751,681.624 655.251,682.624 654.5,683.5C 654.167,683.333 653.833,683.167 653.5,683C 652.353,680.512 650.686,678.512 648.5,677C 644.162,676.537 639.829,676.037 635.5,675.5C 626.227,677.143 617.06,676.81 608,674.5C 607.228,674.645 606.561,674.978 606,675.5C 605.727,673.899 605.227,672.399 604.5,671C 605.308,670.692 605.975,670.192 606.5,669.5C 605.139,669.212 603.806,668.879 602.5,668.5C 602.971,666.421 603.637,664.421 604.5,662.5C 605.965,661.594 606.965,660.261 607.5,658.5C 615.52,657.497 623.52,656.497 631.5,655.5C 631.5,654.5 631.5,653.5 631.5,652.5C 635.593,652.478 639.593,651.811 643.5,650.5C 650.066,652.154 656.733,652.821 663.5,652.5C 663.5,653.5 663.5,654.5 663.5,655.5C 679.5,656.167 695.5,656.833 711.5,657.5C 711.5,658.5 711.5,659.5 711.5,660.5C 717.206,660.171 722.872,660.505 728.5,661.5C 729.098,662.795 729.598,664.128 730,665.5C 730.853,663.065 731.853,660.731 733,658.5C 733.936,662.114 734.436,665.78 734.5,669.5 Z"/></g>
<g><path style="opacity:1" fill="#989898" d="M 602.5,668.5 C 603.806,668.879 605.139,669.212 606.5,669.5C 605.975,670.192 605.308,670.692 604.5,671C 605.227,672.399 605.727,673.899 606,675.5C 606.561,674.978 607.228,674.645 608,674.5C 617.06,676.81 626.227,677.143 635.5,675.5C 639.829,676.037 644.162,676.537 648.5,677C 650.686,678.512 652.353,680.512 653.5,683C 653.833,683.167 654.167,683.333 654.5,683.5C 655.251,682.624 655.751,681.624 656,680.5C 660.876,686.747 667.376,689.414 675.5,688.5C 675.977,689.478 676.643,690.311 677.5,691C 680.817,691.498 684.15,691.665 687.5,691.5C 687.5,693.167 687.5,694.833 687.5,696.5C 690.167,696.5 692.833,696.5 695.5,696.5C 695.5,697.5 695.5,698.5 695.5,699.5C 698.167,699.5 700.833,699.5 703.5,699.5C 703.5,701.167 703.5,702.833 703.5,704.5C 709.093,704.193 714.593,704.527 720,705.5C 720.973,703.608 721.64,701.608 722,699.5C 722.5,700.5 723,701.5 723.5,702.5C 722.593,705.421 722.26,708.421 722.5,711.5C 721.107,716.18 719.607,720.846 718,725.5C 714.283,732.2 710.116,738.533 705.5,744.5C 704.847,743.193 704.18,741.86 703.5,740.5C 707.963,737.955 708.296,735.122 704.5,732C 701.518,731.502 698.518,731.335 695.5,731.5C 695.5,730.5 695.5,729.5 695.5,728.5C 692.813,728.664 690.146,728.497 687.5,728C 685,725.5 682.5,723 680,720.5C 679.751,721.624 679.251,722.624 678.5,723.5C 678.167,723.333 677.833,723.167 677.5,723C 676.076,720.899 674.742,718.733 673.5,716.5C 666.963,713.608 661.129,709.608 656,704.5C 655.751,705.624 655.251,706.624 654.5,707.5C 654.167,707.333 653.833,707.167 653.5,707C 652.202,704.094 650.368,701.594 648,699.5C 647.667,700.833 647.333,702.167 647,703.5C 642.398,698.473 637.232,694.306 631.5,691C 626.136,690.829 620.802,690.329 615.5,689.5C 610.417,685.606 604.917,682.272 599,679.5C 597.122,680.053 595.622,681.053 594.5,682.5C 593.609,683.11 592.609,683.443 591.5,683.5C 595.585,678.757 599.251,673.757 602.5,668.5 Z"/></g>
<g><path style="opacity:1" fill="#f6f6f6" d="M 481.5,669.5 C 483.485,672.798 485.485,676.131 487.5,679.5C 488.171,680.847 488.171,682.014 487.5,683C 488.253,684.487 489.086,684.654 490,683.5C 490.563,684.725 490.23,685.725 489,686.5C 488.163,684.993 486.996,684.493 485.5,685C 481.191,690.391 476.691,695.557 472,700.5C 472.403,708.105 468.903,712.938 461.5,715C 459.335,718.147 457.168,721.314 455,724.5C 452.087,727.087 448.92,729.254 445.5,731C 443.513,732.319 442.346,734.152 442,736.5C 438,737.833 435.333,740.5 434,744.5C 430,745.833 427.333,748.5 426,752.5C 423.427,753.806 421.094,755.473 419,757.5C 418.689,758.742 419.189,759.742 420.5,760.5C 419.036,764.107 417.036,764.774 414.5,762.5C 410.893,763.964 410.226,765.964 412.5,768.5C 408.229,774.841 406.063,774.508 406,767.5C 405,774.167 404,774.167 403,767.5C 400.949,769.809 401.116,771.976 403.5,774C 403.167,774.167 402.833,774.333 402.5,774.5C 401.08,772.78 399.747,770.946 398.5,769C 397.552,768.517 396.552,768.351 395.5,768.5C 390.793,763.795 386.46,758.795 382.5,753.5C 382.443,752.391 382.11,751.391 381.5,750.5C 382.222,750.082 382.722,749.416 383,748.5C 385.719,749.444 388.552,749.777 391.5,749.5C 391.5,747.5 391.5,745.5 391.5,743.5C 396.833,742.833 402.167,742.167 407.5,741.5C 407.393,739.097 408.393,737.264 410.5,736C 409.376,735.751 408.376,735.251 407.5,734.5C 410.086,733.52 412.753,733.187 415.5,733.5C 415.5,732.5 415.5,731.5 415.5,730.5C 418.167,730.5 420.833,730.5 423.5,730.5C 423.5,729.5 423.5,728.5 423.5,727.5C 413.171,726.8 413.504,725.967 424.5,725C 428.091,719.553 433.091,717.053 439.5,717.5C 439.351,716.448 439.517,715.448 440,714.5C 441.654,711.879 443.487,709.379 445.5,707C 445.833,706.833 446.167,706.667 446.5,706.5C 447.251,707.376 447.751,708.376 448,709.5C 455.275,703.23 461.442,696.063 466.5,688C 472.288,684.384 477.955,680.551 483.5,676.5C 482.263,675.719 481.263,674.719 480.5,673.5C 481.246,672.264 481.579,670.93 481.5,669.5 Z"/></g>
<g><path style="opacity:1" fill="#9f9f9f" d="M 705.5,744.5 C 704.406,746.359 703.573,748.359 703,750.5C 699.149,754.906 695.316,759.239 691.5,763.5C 691.291,762.078 690.791,760.745 690,759.5C 689.667,759.833 689.333,760.167 689,760.5C 688.667,757.5 688.333,754.5 688,751.5C 687.667,753.833 687.333,756.167 687,758.5C 681.626,753.461 676.626,748.128 672,742.5C 671.667,744.167 671.333,745.833 671,747.5C 668.239,746.501 666.906,744.501 667,741.5C 665.068,739.962 662.901,738.795 660.5,738C 660.105,735.219 658.772,733.053 656.5,731.5C 655.749,732.376 655.249,733.376 655,734.5C 648.167,727.667 641.333,720.833 634.5,714C 629.648,711.588 624.982,708.921 620.5,706C 619.833,704.667 619.167,703.333 618.5,702C 614.861,700.675 611.194,699.508 607.5,698.5C 607.762,697.022 607.429,695.689 606.5,694.5C 602.655,693.08 599.322,690.913 596.5,688C 597.167,687.667 597.833,687.333 598.5,687C 597.301,685.306 595.968,683.806 594.5,682.5C 595.622,681.053 597.122,680.053 599,679.5C 604.917,682.272 610.417,685.606 615.5,689.5C 620.802,690.329 626.136,690.829 631.5,691C 637.232,694.306 642.398,698.473 647,703.5C 647.333,702.167 647.667,700.833 648,699.5C 650.368,701.594 652.202,704.094 653.5,707C 653.833,707.167 654.167,707.333 654.5,707.5C 655.251,706.624 655.751,705.624 656,704.5C 661.129,709.608 666.963,713.608 673.5,716.5C 674.742,718.733 676.076,720.899 677.5,723C 677.833,723.167 678.167,723.333 678.5,723.5C 679.251,722.624 679.751,721.624 680,720.5C 682.5,723 685,725.5 687.5,728C 690.146,728.497 692.813,728.664 695.5,728.5C 695.5,729.5 695.5,730.5 695.5,731.5C 698.518,731.335 701.518,731.502 704.5,732C 708.296,735.122 707.963,737.955 703.5,740.5C 704.18,741.86 704.847,743.193 705.5,744.5 Z"/></g>
<g><path style="opacity:1" fill="#a5a5a5" d="M 594.5,682.5 C 595.968,683.806 597.301,685.306 598.5,687C 597.833,687.333 597.167,687.667 596.5,688C 599.322,690.913 602.655,693.08 606.5,694.5C 607.429,695.689 607.762,697.022 607.5,698.5C 611.194,699.508 614.861,700.675 618.5,702C 619.167,703.333 619.833,704.667 620.5,706C 624.982,708.921 629.648,711.588 634.5,714C 641.333,720.833 648.167,727.667 655,734.5C 655.249,733.376 655.749,732.376 656.5,731.5C 658.772,733.053 660.105,735.219 660.5,738C 662.901,738.795 665.068,739.962 667,741.5C 666.906,744.501 668.239,746.501 671,747.5C 671.333,745.833 671.667,744.167 672,742.5C 676.626,748.128 681.626,753.461 687,758.5C 687.333,756.167 687.667,753.833 688,751.5C 688.333,754.5 688.667,757.5 689,760.5C 689.333,760.167 689.667,759.833 690,759.5C 690.791,760.745 691.291,762.078 691.5,763.5C 687.545,768.627 683.378,773.627 679,778.5C 677.242,780.765 675.075,782.432 672.5,783.5C 669.896,781.4 667.396,779.067 665,776.5C 664.517,775.552 664.351,774.552 664.5,773.5C 660.167,772.5 657.5,769.833 656.5,765.5C 653.213,764.736 650.546,762.903 648.5,760C 652.082,759.405 652.416,758.071 649.5,756C 648.258,755.689 647.258,756.189 646.5,757.5C 644.35,755.851 642.35,754.018 640.5,752C 644.082,751.405 644.416,750.071 641.5,748C 640.258,747.689 639.258,748.189 638.5,749.5C 636.35,747.851 634.35,746.018 632.5,744C 633.624,743.751 634.624,743.251 635.5,742.5C 634.528,740.364 632.861,739.197 630.5,739C 628.513,737.681 627.346,735.848 627,733.5C 623,732.167 620.333,729.5 619,725.5C 616.427,724.194 614.094,722.527 612,720.5C 609.171,717.44 607.337,713.773 606.5,709.5C 600.149,702.984 593.983,696.317 588,689.5C 587.329,690.252 586.496,690.586 585.5,690.5C 587.5,688.167 589.5,685.833 591.5,683.5C 592.609,683.443 593.609,683.11 594.5,682.5 Z"/></g>
<g><path style="opacity:1" fill="#ededed" d="M 487.5,679.5 C 490.805,683.141 494.138,686.808 497.5,690.5C 498.991,691.913 499.658,693.413 499.5,695C 498.551,695.617 497.718,695.451 497,694.5C 496.258,698.09 494.425,700.923 491.5,703C 492.167,703.333 492.833,703.667 493.5,704C 491.932,706.304 490.765,708.804 490,711.5C 489.333,716.833 488.667,722.167 488,727.5C 484.201,732.766 481.201,738.432 479,744.5C 475.143,747.349 472.477,751.015 471,755.5C 468.744,758.159 466.577,760.826 464.5,763.5C 463.268,768.248 460.601,772.081 456.5,775C 457.624,775.249 458.624,775.749 459.5,776.5C 459.333,776.833 459.167,777.167 459,777.5C 456.138,778.796 453.638,780.629 451.5,783C 452.833,783.333 454.167,783.667 455.5,784C 451.48,787.011 448.647,790.844 447,795.5C 445.833,796.667 444.667,797.833 443.5,799C 444.5,799.833 445.5,800.667 446.5,801.5C 446,801.833 445.5,802.167 445,802.5C 443.413,801.33 441.747,800.33 440,799.5C 439.632,800.91 438.799,801.91 437.5,802.5C 436.304,802.154 436.304,801.654 437.5,801C 435.527,800.505 433.527,800.338 431.5,800.5C 423.42,795.259 415.754,789.426 408.5,783C 403.589,778.594 399.255,773.76 395.5,768.5C 396.552,768.351 397.552,768.517 398.5,769C 399.747,770.946 401.08,772.78 402.5,774.5C 402.833,774.333 403.167,774.167 403.5,774C 401.116,771.976 400.949,769.809 403,767.5C 404,774.167 405,774.167 406,767.5C 406.063,774.508 408.229,774.841 412.5,768.5C 410.226,765.964 410.893,763.964 414.5,762.5C 417.036,764.774 419.036,764.107 420.5,760.5C 419.189,759.742 418.689,758.742 419,757.5C 421.094,755.473 423.427,753.806 426,752.5C 427.333,748.5 430,745.833 434,744.5C 435.333,740.5 438,737.833 442,736.5C 442.346,734.152 443.513,732.319 445.5,731C 448.92,729.254 452.087,727.087 455,724.5C 457.168,721.314 459.335,718.147 461.5,715C 468.903,712.938 472.403,708.105 472,700.5C 476.691,695.557 481.191,690.391 485.5,685C 486.996,684.493 488.163,684.993 489,686.5C 490.23,685.725 490.563,684.725 490,683.5C 489.086,684.654 488.253,684.487 487.5,683C 488.171,682.014 488.171,680.847 487.5,679.5 Z"/></g>
<g><path style="opacity:1" fill="#aaaaaa" d="M 672.5,783.5 C 664.383,791.615 655.383,798.615 645.5,804.5C 645.119,803.069 644.119,802.236 642.5,802C 643.833,801.333 645.167,800.667 646.5,800C 644.679,797.544 644.012,794.711 644.5,791.5C 643.5,791.5 642.5,791.5 641.5,791.5C 640.833,780.833 640.167,780.833 639.5,791.5C 638.5,791.5 637.5,791.5 636.5,791.5C 636.5,788.833 636.5,786.167 636.5,783.5C 635.5,783.5 634.5,783.5 633.5,783.5C 633.5,780.833 633.5,778.167 633.5,775.5C 631.833,775.5 630.167,775.5 628.5,775.5C 628.5,772.833 628.5,770.167 628.5,767.5C 624.662,767.221 621.496,765.554 619,762.5C 616.651,760.256 617.151,759.089 620.5,759C 619.013,756.78 617.346,754.78 615.5,753C 615.905,752.055 616.572,751.388 617.5,751C 615.246,749.623 613.08,748.123 611,746.5C 608.455,741.691 605.788,737.024 603,732.5C 600.444,731.781 599.277,730.114 599.5,727.5C 598.5,727.5 597.5,727.5 596.5,727.5C 596.143,722.067 595.143,716.734 593.5,711.5C 591.464,707.956 589.631,704.289 588,700.5C 584.983,698.591 582.15,696.591 579.5,694.5C 581.223,692.782 583.223,691.449 585.5,690.5C 586.496,690.586 587.329,690.252 588,689.5C 593.983,696.317 600.149,702.984 606.5,709.5C 607.337,713.773 609.171,717.44 612,720.5C 614.094,722.527 616.427,724.194 619,725.5C 620.333,729.5 623,732.167 627,733.5C 627.346,735.848 628.513,737.681 630.5,739C 632.861,739.197 634.528,740.364 635.5,742.5C 634.624,743.251 633.624,743.751 632.5,744C 634.35,746.018 636.35,747.851 638.5,749.5C 639.258,748.189 640.258,747.689 641.5,748C 644.416,750.071 644.082,751.405 640.5,752C 642.35,754.018 644.35,755.851 646.5,757.5C 647.258,756.189 648.258,755.689 649.5,756C 652.416,758.071 652.082,759.405 648.5,760C 650.546,762.903 653.213,764.736 656.5,765.5C 657.5,769.833 660.167,772.5 664.5,773.5C 664.351,774.552 664.517,775.552 665,776.5C 667.396,779.067 669.896,781.4 672.5,783.5 Z"/></g>
<g><path style="opacity:1" fill="#e2e2e2" d="M 497.5,690.5 C 499.772,691.441 501.772,692.774 503.5,694.5C 504.174,696.024 505.174,697.358 506.5,698.5C 504.615,699.197 504.282,700.197 505.5,701.5C 501.606,706.481 499.272,712.147 498.5,718.5C 498.822,721.976 499.822,725.142 501.5,728C 499.362,731.185 498.028,734.685 497.5,738.5C 496.372,739.262 495.205,739.929 494,740.5C 493.257,743.82 492.09,746.987 490.5,750C 490.833,751 491.167,752 491.5,753C 489.839,756.482 488.339,759.982 487,763.5C 484.744,766.159 482.577,768.826 480.5,771.5C 480.469,774.277 479.969,776.944 479,779.5C 476.744,782.159 474.577,784.826 472.5,787.5C 471.509,791.445 471.176,795.445 471.5,799.5C 470.167,799.5 468.833,799.5 467.5,799.5C 467.5,802.167 467.5,804.833 467.5,807.5C 466.5,807.5 465.5,807.5 464.5,807.5C 464.813,810.247 464.48,812.914 463.5,815.5C 462.264,816.246 460.93,816.579 459.5,816.5C 449.409,812.391 440.076,807.057 431.5,800.5C 433.527,800.338 435.527,800.505 437.5,801C 436.304,801.654 436.304,802.154 437.5,802.5C 438.799,801.91 439.632,800.91 440,799.5C 441.747,800.33 443.413,801.33 445,802.5C 445.5,802.167 446,801.833 446.5,801.5C 445.5,800.667 444.5,799.833 443.5,799C 444.667,797.833 445.833,796.667 447,795.5C 448.647,790.844 451.48,787.011 455.5,784C 454.167,783.667 452.833,783.333 451.5,783C 453.638,780.629 456.138,778.796 459,777.5C 459.167,777.167 459.333,776.833 459.5,776.5C 458.624,775.749 457.624,775.249 456.5,775C 460.601,772.081 463.268,768.248 464.5,763.5C 466.577,760.826 468.744,758.159 471,755.5C 472.477,751.015 475.143,747.349 479,744.5C 481.201,738.432 484.201,732.766 488,727.5C 488.667,722.167 489.333,716.833 490,711.5C 490.765,708.804 491.932,706.304 493.5,704C 492.833,703.667 492.167,703.333 491.5,703C 494.425,700.923 496.258,698.09 497,694.5C 497.718,695.451 498.551,695.617 499.5,695C 499.658,693.413 498.991,691.913 497.5,690.5 Z"/></g>
<g><path style="opacity:1" fill="#b1b1b1" d="M 579.5,694.5 C 582.15,696.591 584.983,698.591 588,700.5C 589.631,704.289 591.464,707.956 593.5,711.5C 595.143,716.734 596.143,722.067 596.5,727.5C 597.5,727.5 598.5,727.5 599.5,727.5C 599.277,730.114 600.444,731.781 603,732.5C 605.788,737.024 608.455,741.691 611,746.5C 613.08,748.123 615.246,749.623 617.5,751C 616.572,751.388 615.905,752.055 615.5,753C 617.346,754.78 619.013,756.78 620.5,759C 617.151,759.089 616.651,760.256 619,762.5C 621.496,765.554 624.662,767.221 628.5,767.5C 628.5,770.167 628.5,772.833 628.5,775.5C 630.167,775.5 631.833,775.5 633.5,775.5C 633.5,778.167 633.5,780.833 633.5,783.5C 634.5,783.5 635.5,783.5 636.5,783.5C 636.5,786.167 636.5,788.833 636.5,791.5C 637.5,791.5 638.5,791.5 639.5,791.5C 640.167,780.833 640.833,780.833 641.5,791.5C 642.5,791.5 643.5,791.5 644.5,791.5C 644.012,794.711 644.679,797.544 646.5,800C 645.167,800.667 643.833,801.333 642.5,802C 644.119,802.236 645.119,803.069 645.5,804.5C 632.687,811.906 619.354,818.24 605.5,823.5C 605.953,822.542 606.619,821.708 607.5,821C 607.167,820.667 606.833,820.333 606.5,820C 609.789,819.118 613.123,818.452 616.5,818C 613.456,817.641 613.122,816.974 615.5,816C 614.552,815.517 613.552,815.351 612.5,815.5C 612.5,810.167 612.5,804.833 612.5,799.5C 611.5,799.5 610.5,799.5 609.5,799.5C 609.5,796.833 609.5,794.167 609.5,791.5C 607.833,791.5 606.167,791.5 604.5,791.5C 604.5,788.833 604.5,786.167 604.5,783.5C 603.5,783.5 602.5,783.5 601.5,783.5C 601.5,780.833 601.5,778.167 601.5,775.5C 599.833,775.5 598.167,775.5 596.5,775.5C 596.5,772.833 596.5,770.167 596.5,767.5C 595.5,767.5 594.5,767.5 593.5,767.5C 592.736,761.508 591.903,755.508 591,749.5C 589.488,748.743 588.154,747.743 587,746.5C 584.922,742.75 582.756,739.083 580.5,735.5C 578.676,729.885 579.676,724.885 583.5,720.5C 582.244,714.376 580.411,708.376 578,702.5C 577.162,701.001 576.329,700.668 575.5,701.5C 572.871,700.286 570.204,700.286 567.5,701.5C 571.136,698.677 575.136,696.344 579.5,694.5 Z"/></g>
<g><path style="opacity:1" fill="#bebebe" d="M 575.5,701.5 C 574.469,702.249 573.302,702.915 572,703.5C 571.593,709.243 572.093,714.91 573.5,720.5C 571.639,725.673 569.639,730.673 567.5,735.5C 568.5,735.5 569.5,735.5 570.5,735.5C 571.167,740.833 571.833,746.167 572.5,751.5C 573.5,751.5 574.5,751.5 575.5,751.5C 575.5,756.833 575.5,762.167 575.5,767.5C 576.5,767.5 577.5,767.5 578.5,767.5C 579.167,772.833 579.833,778.167 580.5,783.5C 581.5,783.5 582.5,783.5 583.5,783.5C 583.5,786.167 583.5,788.833 583.5,791.5C 584.5,791.5 585.5,791.5 586.5,791.5C 587.824,799.432 588.491,807.432 588.5,815.5C 590.5,815.5 592.5,815.5 594.5,815.5C 594.223,818.448 594.556,821.281 595.5,824C 593.598,825.651 591.598,825.984 589.5,825C 590.993,826.156 590.826,826.99 589,827.5C 588.055,827.095 587.388,826.428 587,825.5C 586.59,826.901 586.09,828.234 585.5,829.5C 581.96,829.753 578.627,830.419 575.5,831.5C 572.794,831.575 570.127,831.908 567.5,832.5C 569.309,829.861 571.642,827.694 574.5,826C 572.775,826.409 571.108,826.242 569.5,825.5C 571.423,824.692 573.423,824.192 575.5,824C 573.866,823.506 572.199,823.34 570.5,823.5C 570.5,820.833 570.5,818.167 570.5,815.5C 569.5,815.5 568.5,815.5 567.5,815.5C 566.833,804.833 566.167,794.167 565.5,783.5C 564.5,783.5 563.5,783.5 562.5,783.5C 562.499,775.483 562.166,767.483 561.5,759.5C 560.167,759.5 558.833,759.5 557.5,759.5C 557.471,751.056 556.471,742.89 554.5,735C 556.449,730.494 558.949,726.327 562,722.5C 562.091,720.204 561.924,717.87 561.5,715.5C 561.55,713.077 562.55,711.244 564.5,710C 562.913,709.138 561.246,708.471 559.5,708C 561.059,707.02 562.726,706.187 564.5,705.5C 564.167,705.167 563.833,704.833 563.5,704.5C 561.591,705.348 559.591,705.682 557.5,705.5C 557.833,704.833 558.167,704.167 558.5,703.5C 561.5,702.833 564.5,702.167 567.5,701.5C 570.204,700.286 572.871,700.286 575.5,701.5 Z"/></g>
<g><path style="opacity:1" fill="#b8b8b8" d="M 605.5,823.5 C 598.909,825.697 592.242,827.697 585.5,829.5C 586.09,828.234 586.59,826.901 587,825.5C 587.388,826.428 588.055,827.095 589,827.5C 590.826,826.99 590.993,826.156 589.5,825C 591.598,825.984 593.598,825.651 595.5,824C 594.556,821.281 594.223,818.448 594.5,815.5C 592.5,815.5 590.5,815.5 588.5,815.5C 588.491,807.432 587.824,799.432 586.5,791.5C 585.5,791.5 584.5,791.5 583.5,791.5C 583.5,788.833 583.5,786.167 583.5,783.5C 582.5,783.5 581.5,783.5 580.5,783.5C 579.833,778.167 579.167,772.833 578.5,767.5C 577.5,767.5 576.5,767.5 575.5,767.5C 575.5,762.167 575.5,756.833 575.5,751.5C 574.5,751.5 573.5,751.5 572.5,751.5C 571.833,746.167 571.167,740.833 570.5,735.5C 569.5,735.5 568.5,735.5 567.5,735.5C 569.639,730.673 571.639,725.673 573.5,720.5C 572.093,714.91 571.593,709.243 572,703.5C 573.302,702.915 574.469,702.249 575.5,701.5C 576.329,700.668 577.162,701.001 578,702.5C 580.411,708.376 582.244,714.376 583.5,720.5C 579.676,724.885 578.676,729.885 580.5,735.5C 582.756,739.083 584.922,742.75 587,746.5C 588.154,747.743 589.488,748.743 591,749.5C 591.903,755.508 592.736,761.508 593.5,767.5C 594.5,767.5 595.5,767.5 596.5,767.5C 596.5,770.167 596.5,772.833 596.5,775.5C 598.167,775.5 599.833,775.5 601.5,775.5C 601.5,778.167 601.5,780.833 601.5,783.5C 602.5,783.5 603.5,783.5 604.5,783.5C 604.5,786.167 604.5,788.833 604.5,791.5C 606.167,791.5 607.833,791.5 609.5,791.5C 609.5,794.167 609.5,796.833 609.5,799.5C 610.5,799.5 611.5,799.5 612.5,799.5C 612.5,804.833 612.5,810.167 612.5,815.5C 613.552,815.351 614.552,815.517 615.5,816C 613.122,816.974 613.456,817.641 616.5,818C 613.123,818.452 609.789,819.118 606.5,820C 606.833,820.333 607.167,820.667 607.5,821C 606.619,821.708 605.953,822.542 605.5,823.5 Z"/></g>
<g><path style="opacity:1" fill="#d9d9d9" d="M 503.5,694.5 C 508.125,697.902 513.125,700.569 518.5,702.5C 516.556,710.715 515.723,719.048 516,727.5C 519.382,731.906 520.382,736.906 519,742.5C 518.586,742.957 518.086,743.291 517.5,743.5C 516.502,751.476 515.835,759.476 515.5,767.5C 514.167,767.5 512.833,767.5 511.5,767.5C 510.834,775.483 510.501,783.483 510.5,791.5C 509.5,791.5 508.5,791.5 507.5,791.5C 507.5,796.833 507.5,802.167 507.5,807.5C 506.167,807.5 504.833,807.5 503.5,807.5C 503.001,813.541 502.668,819.374 502.5,825C 503.328,825.915 504.328,826.581 505.5,827C 503.77,828.852 502.604,828.686 502,826.5C 500.103,828.016 497.936,828.683 495.5,828.5C 495.167,828.5 494.833,828.5 494.5,828.5C 492.492,826.732 490.326,825.066 488,823.5C 486.667,824.167 485.333,824.833 484,825.5C 481.699,824.133 479.199,823.466 476.5,823.5C 470.666,821.411 464.999,819.078 459.5,816.5C 460.93,816.579 462.264,816.246 463.5,815.5C 464.48,812.914 464.813,810.247 464.5,807.5C 465.5,807.5 466.5,807.5 467.5,807.5C 467.5,804.833 467.5,802.167 467.5,799.5C 468.833,799.5 470.167,799.5 471.5,799.5C 471.176,795.445 471.509,791.445 472.5,787.5C 474.577,784.826 476.744,782.159 479,779.5C 479.969,776.944 480.469,774.277 480.5,771.5C 482.577,768.826 484.744,766.159 487,763.5C 488.339,759.982 489.839,756.482 491.5,753C 491.167,752 490.833,751 490.5,750C 492.09,746.987 493.257,743.82 494,740.5C 495.205,739.929 496.372,739.262 497.5,738.5C 498.028,734.685 499.362,731.185 501.5,728C 499.822,725.142 498.822,721.976 498.5,718.5C 499.272,712.147 501.606,706.481 505.5,701.5C 504.282,700.197 504.615,699.197 506.5,698.5C 505.174,697.358 504.174,696.024 503.5,694.5 Z"/></g>
<g><path style="opacity:1" fill="#cccccc" d="M 518.5,702.5 C 522.397,703.055 526.063,704.055 529.5,705.5C 532.287,706.477 535.287,706.81 538.5,706.5C 543.205,708.38 548.205,709.547 553.5,710C 551.63,710.975 549.63,711.475 547.5,711.5C 544.162,727.46 543.496,743.46 545.5,759.5C 545.164,767.55 544.497,775.55 543.5,783.5C 544.5,783.5 545.5,783.5 546.5,783.5C 546.5,799.833 546.5,816.167 546.5,832.5C 542.217,833.589 533.884,833.922 521.5,833.5C 512.623,832.324 503.956,830.657 495.5,828.5C 497.936,828.683 500.103,828.016 502,826.5C 502.604,828.686 503.77,828.852 505.5,827C 504.328,826.581 503.328,825.915 502.5,825C 502.668,819.374 503.001,813.541 503.5,807.5C 504.833,807.5 506.167,807.5 507.5,807.5C 507.5,802.167 507.5,796.833 507.5,791.5C 508.5,791.5 509.5,791.5 510.5,791.5C 510.501,783.483 510.834,775.483 511.5,767.5C 512.833,767.5 514.167,767.5 515.5,767.5C 515.835,759.476 516.502,751.476 517.5,743.5C 518.086,743.291 518.586,742.957 519,742.5C 520.382,736.906 519.382,731.906 516,727.5C 515.723,719.048 516.556,710.715 518.5,702.5 Z"/></g>
<g><path style="opacity:1" fill="#787878" d="M 558.5,703.5 C 558.167,704.167 557.833,704.833 557.5,705.5C 551.203,706.32 544.869,706.653 538.5,706.5C 535.287,706.81 532.287,706.477 529.5,705.5C 539.279,705.95 548.946,705.284 558.5,703.5 Z"/></g>
<g><path style="opacity:1" fill="#c2c2c2" d="M 567.5,832.5 C 564.615,832.194 561.948,832.527 559.5,833.5C 546.833,834.833 534.167,834.833 521.5,833.5C 533.884,833.922 542.217,833.589 546.5,832.5C 546.5,816.167 546.5,799.833 546.5,783.5C 545.5,783.5 544.5,783.5 543.5,783.5C 544.497,775.55 545.164,767.55 545.5,759.5C 543.496,743.46 544.162,727.46 547.5,711.5C 549.63,711.475 551.63,710.975 553.5,710C 548.205,709.547 543.205,708.38 538.5,706.5C 544.869,706.653 551.203,706.32 557.5,705.5C 559.591,705.682 561.591,705.348 563.5,704.5C 563.833,704.833 564.167,705.167 564.5,705.5C 562.726,706.187 561.059,707.02 559.5,708C 561.246,708.471 562.913,709.138 564.5,710C 562.55,711.244 561.55,713.077 561.5,715.5C 561.924,717.87 562.091,720.204 562,722.5C 558.949,726.327 556.449,730.494 554.5,735C 556.471,742.89 557.471,751.056 557.5,759.5C 558.833,759.5 560.167,759.5 561.5,759.5C 562.166,767.483 562.499,775.483 562.5,783.5C 563.5,783.5 564.5,783.5 565.5,783.5C 566.167,794.167 566.833,804.833 567.5,815.5C 568.5,815.5 569.5,815.5 570.5,815.5C 570.5,818.167 570.5,820.833 570.5,823.5C 572.199,823.34 573.866,823.506 575.5,824C 573.423,824.192 571.423,824.692 569.5,825.5C 571.108,826.242 572.775,826.409 574.5,826C 571.642,827.694 569.309,829.861 567.5,832.5 Z"/></g>
<g><path style="opacity:1" fill="#4a4a4a" d="M 378.5,748.5 C 379.5,749.167 380.5,749.833 381.5,750.5C 382.11,751.391 382.443,752.391 382.5,753.5C 380.413,752.415 379.08,750.749 378.5,748.5 Z"/></g>
<g><path style="opacity:1" fill="#a8a8a8" d="M 476.5,823.5 C 479.199,823.466 481.699,824.133 484,825.5C 485.333,824.833 486.667,824.167 488,823.5C 490.326,825.066 492.492,826.732 494.5,828.5C 488.142,827.747 482.142,826.08 476.5,823.5 Z"/></g>
<g><path style="opacity:1" fill="#3d3d3d" d="M 575.5,831.5 C 570.447,833.26 565.114,833.927 559.5,833.5C 561.948,832.527 564.615,832.194 567.5,832.5C 570.127,831.908 572.794,831.575 575.5,831.5 Z"/></g>
</svg>
