<?xml version="1.0" encoding="UTF-8"?>
<!DOCTYPE svg PUBLIC "-//W3C//DTD SVG 1.1//EN" "http://www.w3.org/Graphics/SVG/1.1/DTD/svg11.dtd">
<svg xmlns="http://www.w3.org/2000/svg" version="1.1" width="400px" height="400px" style="shape-rendering:geometricPrecision; text-rendering:geometricPrecision; image-rendering:optimizeQuality; fill-rule:evenodd; clip-rule:evenodd" xmlns:xlink="http://www.w3.org/1999/xlink">
<g><path style="opacity:1" fill="#234147" d="M -0.5,-0.5 C 31.1667,-0.5 62.8333,-0.5 94.5,-0.5C 94.5,7.5 94.5,15.5 94.5,23.5C 93.5,23.5 92.5,23.5 91.5,23.5C 91.5,28.8333 91.5,34.1667 91.5,39.5C 90.1667,39.5 88.8333,39.5 87.5,39.5C 87.5,44.8333 87.5,50.1667 87.5,55.5C 84.4893,55.8273 81.9893,57.1606 80,59.5C 79.5172,58.552 79.3505,57.552 79.5,56.5C 76.8333,56.5 74.1667,56.5 71.5,56.5C 71.5,58.8333 71.5,61.1667 71.5,63.5C 68.8333,63.5 66.1667,63.5 63.5,63.5C 63.5,64.8333 63.5,66.1667 63.5,67.5C 60.8333,67.5 58.1667,67.5 55.5,67.5C 55.5,68.8333 55.5,70.1667 55.5,71.5C 52.8333,71.5 50.1667,71.5 47.5,71.5C 47.5,73.1667 47.5,74.8333 47.5,76.5C 44.8333,76.5 42.1667,76.5 39.5,76.5C 39.5,77.5 39.5,78.5 39.5,79.5C 36.8333,79.5 34.1667,79.5 31.5,79.5C 31.5,78.5 31.5,77.5 31.5,76.5C 28.8333,76.5 26.1667,76.5 23.5,76.5C 23.5,74.8333 23.5,73.1667 23.5,71.5C 18.1667,71.5 12.8333,71.5 7.5,71.5C 7.64945,72.552 7.48278,73.552 7,74.5C 5.49407,72.8258 3.66073,71.8258 1.5,71.5C 2.03562,68.3019 1.36895,65.6353 -0.5,63.5C -0.5,42.1667 -0.5,20.8333 -0.5,-0.5 Z"/></g>
<g><path style="opacity:1" fill="#223b45" d="M 94.5,-0.5 C 108.167,-0.5 121.833,-0.5 135.5,-0.5C 135.5,4.83333 135.5,10.1667 135.5,15.5C 134.5,15.5 133.5,15.5 132.5,15.5C 132.5,23.5 132.5,31.5 132.5,39.5C 133.5,39.5 134.5,39.5 135.5,39.5C 135.5,42.1667 135.5,44.8333 135.5,47.5C 131.833,47.5 128.167,47.5 124.5,47.5C 124.193,53.0934 124.527,58.5934 125.5,64C 123.957,65.8783 122.124,67.3783 120,68.5C 119.517,69.448 119.351,70.448 119.5,71.5C 118.5,71.5 117.5,71.5 116.5,71.5C 116.5,76.8333 116.5,82.1667 116.5,87.5C 115.5,87.5 114.5,87.5 113.5,87.5C 112.833,98.1667 112.167,98.1667 111.5,87.5C 108.833,87.5 106.167,87.5 103.5,87.5C 103.719,88.675 103.386,89.675 102.5,90.5C 98.1771,92.4824 95.8437,95.8157 95.5,100.5C 92.8333,100.5 90.1667,100.5 87.5,100.5C 87.5,102.5 87.5,104.5 87.5,106.5C 84.8333,106.5 82.1667,106.5 79.5,106.5C 79.5,105.5 79.5,104.5 79.5,103.5C 74.1667,103.5 68.8333,103.5 63.5,103.5C 63.5,104.833 63.5,106.167 63.5,107.5C 50.1667,107.5 36.8333,107.5 23.5,107.5C 23.5,106.5 23.5,105.5 23.5,104.5C 18.1667,104.5 12.8333,104.5 7.5,104.5C 7.5,103.5 7.5,102.5 7.5,101.5C 4.83333,101.5 2.16667,101.5 -0.5,101.5C -0.5,88.8333 -0.5,76.1667 -0.5,63.5C 1.36895,65.6353 2.03562,68.3019 1.5,71.5C 3.66073,71.8258 5.49407,72.8258 7,74.5C 7.48278,73.552 7.64945,72.552 7.5,71.5C 12.8333,71.5 18.1667,71.5 23.5,71.5C 23.5,73.1667 23.5,74.8333 23.5,76.5C 26.1667,76.5 28.8333,76.5 31.5,76.5C 31.5,77.5 31.5,78.5 31.5,79.5C 34.1667,79.5 36.8333,79.5 39.5,79.5C 39.5,78.5 39.5,77.5 39.5,76.5C 42.1667,76.5 44.8333,76.5 47.5,76.5C 47.5,74.8333 47.5,73.1667 47.5,71.5C 50.1667,71.5 52.8333,71.5 55.5,71.5C 55.5,70.1667 55.5,68.8333 55.5,67.5C 58.1667,67.5 60.8333,67.5 63.5,67.5C 63.5,66.1667 63.5,64.8333 63.5,63.5C 66.1667,63.5 68.8333,63.5 71.5,63.5C 71.5,61.1667 71.5,58.8333 71.5,56.5C 74.1667,56.5 76.8333,56.5 79.5,56.5C 79.3505,57.552 79.5172,58.552 80,59.5C 81.9893,57.1606 84.4893,55.8273 87.5,55.5C 87.5,50.1667 87.5,44.8333 87.5,39.5C 88.8333,39.5 90.1667,39.5 91.5,39.5C 91.5,34.1667 91.5,28.8333 91.5,23.5C 92.5,23.5 93.5,23.5 94.5,23.5C 94.5,15.5 94.5,7.5 94.5,-0.5 Z"/></g>
<g><path style="opacity:1" fill="#213442" d="M 135.5,-0.5 C 146.167,-0.5 156.833,-0.5 167.5,-0.5C 167.179,5.02621 167.512,10.3595 168.5,15.5C 168.501,23.5173 168.834,31.5173 169.5,39.5C 170.5,39.5 171.5,39.5 172.5,39.5C 172.5,42.1667 172.5,44.8333 172.5,47.5C 173.5,47.5 174.5,47.5 175.5,47.5C 175.5,50.1667 175.5,52.8333 175.5,55.5C 174.5,55.5 173.5,55.5 172.5,55.5C 172.5,58.1667 172.5,60.8333 172.5,63.5C 170.5,63.5 168.5,63.5 166.5,63.5C 164.167,63.5 161.833,63.5 159.5,63.5C 159.5,68.8333 159.5,74.1667 159.5,79.5C 155.167,79.5 150.833,79.5 146.5,79.5C 146.5,68.8333 146.5,58.1667 146.5,47.5C 144.167,47.5 141.833,47.5 139.5,47.5C 139.5,42.1667 139.5,36.8333 139.5,31.5C 140.833,31.5 142.167,31.5 143.5,31.5C 143.5,28.8333 143.5,26.1667 143.5,23.5C 142.167,23.5 140.833,23.5 139.5,23.5C 139.5,20.8333 139.5,18.1667 139.5,15.5C 138.167,15.5 136.833,15.5 135.5,15.5C 135.5,10.1667 135.5,4.83333 135.5,-0.5 Z"/></g>
<g><path style="opacity:1" fill="#1e2e3d" d="M 167.5,-0.5 C 176.167,-0.5 184.833,-0.5 193.5,-0.5C 193.5,2.16667 193.5,4.83333 193.5,7.5C 194.5,7.5 195.5,7.5 196.5,7.5C 196.5,10.1667 196.5,12.8333 196.5,15.5C 197.5,15.5 198.5,15.5 199.5,15.5C 200.167,20.8333 200.833,26.1667 201.5,31.5C 202.5,31.5 203.5,31.5 204.5,31.5C 204.5,34.1667 204.5,36.8333 204.5,39.5C 205.5,39.5 206.5,39.5 207.5,39.5C 207.5,42.1667 207.5,44.8333 207.5,47.5C 202.5,47.5 197.5,47.5 192.5,47.5C 192.813,44.7531 192.48,42.0865 191.5,39.5C 190.29,42.659 190.29,45.8256 191.5,49C 191.167,49.5 190.833,50 190.5,50.5C 189.614,49.675 189.281,48.675 189.5,47.5C 187.5,47.5 185.5,47.5 183.5,47.5C 183.167,36.8333 182.833,36.8333 182.5,47.5C 181.5,47.5 180.5,47.5 179.5,47.5C 179.5,44.8333 179.5,42.1667 179.5,39.5C 178.167,39.5 176.833,39.5 175.5,39.5C 175.5,36.8333 175.5,34.1667 175.5,31.5C 174.167,31.5 172.833,31.5 171.5,31.5C 171.5,26.1667 171.5,20.8333 171.5,15.5C 170.5,15.5 169.5,15.5 168.5,15.5C 167.512,10.3595 167.179,5.02621 167.5,-0.5 Z"/></g>
<g><path style="opacity:1" fill="#1c2639" d="M 193.5,-0.5 C 213.167,-0.5 232.833,-0.5 252.5,-0.5C 252.75,0.922058 253.583,1.92206 255,2.5C 255.494,4.13414 255.66,5.80081 255.5,7.5C 257.167,7.5 258.833,7.5 260.5,7.5C 260.5,10.1667 260.5,12.8333 260.5,15.5C 258.833,15.5 257.167,15.5 255.5,15.5C 255.5,18.1667 255.5,20.8333 255.5,23.5C 257.833,23.5 260.167,23.5 262.5,23.5C 263.036,26.6981 262.369,29.3647 260.5,31.5C 253.5,31.5 246.5,31.5 239.5,31.5C 239.5,28.8333 239.5,26.1667 239.5,23.5C 238.167,23.5 236.833,23.5 235.5,23.5C 235.5,20.8333 235.5,18.1667 235.5,15.5C 231.5,15.5 227.5,15.5 223.5,15.5C 223.188,18.8884 224.521,21.3884 227.5,23C 226.556,25.7191 226.223,28.5525 226.5,31.5C 227.833,31.5 229.167,31.5 230.5,31.5C 230.423,35.2148 230.756,38.8815 231.5,42.5C 234.676,43.3405 237.342,45.0071 239.5,47.5C 237.167,47.5 234.833,47.5 232.5,47.5C 232.49,52.9151 231.823,58.2484 230.5,63.5C 229.52,60.9135 229.187,58.2469 229.5,55.5C 228.5,55.5 227.5,55.5 226.5,55.5C 226.813,52.7531 226.48,50.0865 225.5,47.5C 224.171,68.7919 223.504,68.7919 223.5,47.5C 221.5,47.5 219.5,47.5 217.5,47.5C 216.833,52.8333 216.167,58.1667 215.5,63.5C 214.5,63.5 213.5,63.5 212.5,63.5C 212.167,42.1667 211.833,42.1667 211.5,63.5C 210.167,63.5 208.833,63.5 207.5,63.5C 207.5,58.1667 207.5,52.8333 207.5,47.5C 207.5,44.8333 207.5,42.1667 207.5,39.5C 206.5,39.5 205.5,39.5 204.5,39.5C 204.5,36.8333 204.5,34.1667 204.5,31.5C 203.5,31.5 202.5,31.5 201.5,31.5C 200.833,26.1667 200.167,20.8333 199.5,15.5C 198.5,15.5 197.5,15.5 196.5,15.5C 196.5,12.8333 196.5,10.1667 196.5,7.5C 195.5,7.5 194.5,7.5 193.5,7.5C 193.5,4.83333 193.5,2.16667 193.5,-0.5 Z"/></g>
<g><path style="opacity:1" fill="#16152e" d="M 287.5,-0.5 C 303.5,-0.5 319.5,-0.5 335.5,-0.5C 335.5,3.16667 335.5,6.83333 335.5,10.5C 339.017,12.424 342.684,14.0906 346.5,15.5C 346.335,18.5184 346.502,21.5184 347,24.5C 347.7,26.032 348.866,27.032 350.5,27.5C 351.466,29.396 351.799,31.396 351.5,33.5C 358.092,32.6404 363.592,34.6404 368,39.5C 368.497,42.146 368.664,44.8127 368.5,47.5C 372.099,48.1032 374.432,50.1032 375.5,53.5C 378.247,53.1866 380.914,53.52 383.5,54.5C 381.604,55.4656 379.604,55.7989 377.5,55.5C 377.504,57.8421 378.337,59.8421 380,61.5C 382.552,58.8059 383.719,59.4726 383.5,63.5C 381.5,63.5 379.5,63.5 377.5,63.5C 377.509,61.6916 377.009,60.0249 376,58.5C 375.667,59.1667 375.333,59.8333 375,60.5C 372.876,59.3783 371.043,57.8783 369.5,56C 370.938,55.7811 372.271,55.2811 373.5,54.5C 372.055,52.9373 370.389,51.604 368.5,50.5C 367.719,51.7287 367.219,53.062 367,54.5C 364.906,52.031 364.406,49.3644 365.5,46.5C 364.395,45.1076 363.061,43.941 361.5,43C 359.495,43.5025 357.328,44.0025 355,44.5C 352.109,44.7404 349.609,43.9071 347.5,42C 344.183,41.5017 340.85,41.335 337.5,41.5C 337.5,40.1667 337.5,38.8333 337.5,37.5C 334.167,37.5 330.833,37.5 327.5,37.5C 327.5,36.5 327.5,35.5 327.5,34.5C 324.833,34.5 322.167,34.5 319.5,34.5C 319.5,37.5 319.5,40.5 319.5,43.5C 316.818,42.0445 314.151,40.7112 311.5,39.5C 311.5,38.1667 311.5,36.8333 311.5,35.5C 310.5,35.5 309.5,35.5 308.5,35.5C 307.201,31.6295 306.534,27.6295 306.5,23.5C 305.5,23.5 304.5,23.5 303.5,23.5C 304.093,20.4041 303.093,18.0708 300.5,16.5C 297.232,15.513 293.898,15.1796 290.5,15.5C 290.5,12.8333 290.5,10.1667 290.5,7.5C 289.5,7.5 288.5,7.5 287.5,7.5C 286.629,4.72842 286.629,2.06176 287.5,-0.5 Z"/></g>
<g><path style="opacity:1" fill="#1a1b35" d="M 252.5,-0.5 C 264.167,-0.5 275.833,-0.5 287.5,-0.5C 286.629,2.06176 286.629,4.72842 287.5,7.5C 288.5,7.5 289.5,7.5 290.5,7.5C 290.5,10.1667 290.5,12.8333 290.5,15.5C 293.898,15.1796 297.232,15.513 300.5,16.5C 303.093,18.0708 304.093,20.4041 303.5,23.5C 304.5,23.5 305.5,23.5 306.5,23.5C 306.534,27.6295 307.201,31.6295 308.5,35.5C 309.5,35.5 310.5,35.5 311.5,35.5C 311.5,36.8333 311.5,38.1667 311.5,39.5C 314.151,40.7112 316.818,42.0445 319.5,43.5C 318.732,47.8297 320.065,51.163 323.5,53.5C 324.641,54.4255 324.641,55.2588 323.5,56C 325.605,59.401 327.272,59.2343 328.5,55.5C 329.41,57.6549 330.577,59.6549 332,61.5C 332.689,60.6433 333.522,59.9767 334.5,59.5C 337.237,61.1022 340.237,61.9355 343.5,62C 344.167,62.3333 344.833,62.6667 345.5,63C 344.027,63.7096 343.36,64.8762 343.5,66.5C 346.167,66.5 348.833,66.5 351.5,66.5C 351.5,68.1667 351.5,69.8333 351.5,71.5C 352.791,71.2627 353.791,71.596 354.5,72.5C 353.5,72.5 352.5,72.5 351.5,72.5C 351.42,76.9595 349.754,77.1262 346.5,73C 342.848,72.5014 339.182,72.3347 335.5,72.5C 335.5,70.5 335.5,68.5 335.5,66.5C 330.167,66.5 324.833,66.5 319.5,66.5C 319.5,65.5 319.5,64.5 319.5,63.5C 316.833,63.5 314.167,63.5 311.5,63.5C 311.5,62.5 311.5,61.5 311.5,60.5C 308.15,60.665 304.817,60.4983 301.5,60C 299.939,59.059 298.605,57.8924 297.5,56.5C 295.955,55.5481 294.288,55.2148 292.5,55.5C 292.5,52.8333 292.5,50.1667 292.5,47.5C 285.833,47.5 279.167,47.5 272.5,47.5C 272.664,44.8127 272.497,42.146 272,39.5C 271.506,41.1341 271.34,42.8008 271.5,44.5C 267.983,42.576 264.316,40.9094 260.5,39.5C 260.5,36.8333 260.5,34.1667 260.5,31.5C 262.369,29.3647 263.036,26.6981 262.5,23.5C 260.167,23.5 257.833,23.5 255.5,23.5C 255.5,20.8333 255.5,18.1667 255.5,15.5C 257.167,15.5 258.833,15.5 260.5,15.5C 260.5,12.8333 260.5,10.1667 260.5,7.5C 258.833,7.5 257.167,7.5 255.5,7.5C 255.66,5.80081 255.494,4.13414 255,2.5C 253.583,1.92206 252.75,0.922058 252.5,-0.5 Z"/></g>
<g><path style="opacity:1" fill="#130f2b" d="M 335.5,-0.5 C 356.833,-0.5 378.167,-0.5 399.5,-0.5C 399.5,23.5 399.5,47.5 399.5,71.5C 398.527,69.0521 398.194,66.3854 398.5,63.5C 393.463,64.5369 388.463,64.5369 383.5,63.5C 383.719,59.4726 382.552,58.8059 380,61.5C 378.337,59.8421 377.504,57.8421 377.5,55.5C 379.604,55.7989 381.604,55.4656 383.5,54.5C 380.914,53.52 378.247,53.1866 375.5,53.5C 374.432,50.1032 372.099,48.1032 368.5,47.5C 368.664,44.8127 368.497,42.146 368,39.5C 363.592,34.6404 358.092,32.6404 351.5,33.5C 351.799,31.396 351.466,29.396 350.5,27.5C 348.866,27.032 347.7,26.032 347,24.5C 346.502,21.5184 346.335,18.5184 346.5,15.5C 342.684,14.0906 339.017,12.424 335.5,10.5C 335.5,6.83333 335.5,3.16667 335.5,-0.5 Z"/></g>
<g><path style="opacity:1" fill="#223445" d="M 135.5,15.5 C 136.833,15.5 138.167,15.5 139.5,15.5C 139.5,18.1667 139.5,20.8333 139.5,23.5C 140.833,23.5 142.167,23.5 143.5,23.5C 143.5,26.1667 143.5,28.8333 143.5,31.5C 142.167,31.5 140.833,31.5 139.5,31.5C 139.5,36.8333 139.5,42.1667 139.5,47.5C 141.833,47.5 144.167,47.5 146.5,47.5C 146.5,58.1667 146.5,68.8333 146.5,79.5C 150.833,79.5 155.167,79.5 159.5,79.5C 159.5,74.1667 159.5,68.8333 159.5,63.5C 161.833,63.5 164.167,63.5 166.5,63.5C 166.179,69.0262 166.512,74.3595 167.5,79.5C 167.167,84.8333 166.833,90.1667 166.5,95.5C 163.833,95.5 161.167,95.5 158.5,95.5C 158.5,100.833 158.5,106.167 158.5,111.5C 156.5,111.5 154.5,111.5 152.5,111.5C 152.5,116.833 152.5,122.167 152.5,127.5C 154.604,127.201 156.604,127.534 158.5,128.5C 156,128.833 153.5,129.167 151,129.5C 144.867,128.414 138.7,127.748 132.5,127.5C 132.227,129.451 132.893,130.951 134.5,132C 133.299,132.903 132.465,134.069 132,135.5C 131.517,134.552 131.351,133.552 131.5,132.5C 130.167,132.5 128.833,132.5 127.5,132.5C 127.5,136.167 127.5,139.833 127.5,143.5C 124.833,143.5 122.167,143.5 119.5,143.5C 119.5,140.833 119.5,138.167 119.5,135.5C 116.833,135.5 114.167,135.5 111.5,135.5C 111.5,138.167 111.5,140.833 111.5,143.5C 112.833,143.5 114.167,143.5 115.5,143.5C 115.5,148.833 115.5,154.167 115.5,159.5C 114.167,159.5 112.833,159.5 111.5,159.5C 111.5,156.5 111.5,153.5 111.5,150.5C 105.974,150.179 100.64,150.512 95.5,151.5C 92.8333,151.5 90.1667,151.5 87.5,151.5C 87.5,150.5 87.5,149.5 87.5,148.5C 84.8333,148.5 82.1667,148.5 79.5,148.5C 79.5,149.5 79.5,150.5 79.5,151.5C 76.8333,151.5 74.1667,151.5 71.5,151.5C 71.6495,150.448 71.4828,149.448 71,148.5C 68.6004,146.585 66.1004,144.919 63.5,143.5C 58.1667,143.5 52.8333,143.5 47.5,143.5C 47.5,140.167 47.5,136.833 47.5,133.5C 52.8333,133.5 58.1667,133.5 63.5,133.5C 63.5,131.167 63.5,128.833 63.5,126.5C 74.1667,126.833 84.8333,127.167 95.5,127.5C 95.5,125.833 95.5,124.167 95.5,122.5C 92.2123,122.073 89.2123,122.74 86.5,124.5C 79.6231,121.116 79.9564,119.449 87.5,119.5C 87.5,118.5 87.5,117.5 87.5,116.5C 84.8333,116.5 82.1667,116.5 79.5,116.5C 79.5,115.167 79.5,113.833 79.5,112.5C 67.5792,113.593 62.2458,113.26 63.5,111.5C 63.5,110.167 63.5,108.833 63.5,107.5C 63.5,106.167 63.5,104.833 63.5,103.5C 68.8333,103.5 74.1667,103.5 79.5,103.5C 79.5,104.5 79.5,105.5 79.5,106.5C 82.1667,106.5 84.8333,106.5 87.5,106.5C 87.5,104.5 87.5,102.5 87.5,100.5C 90.1667,100.5 92.8333,100.5 95.5,100.5C 95.8437,95.8157 98.1771,92.4824 102.5,90.5C 103.386,89.675 103.719,88.675 103.5,87.5C 106.167,87.5 108.833,87.5 111.5,87.5C 112.167,98.1667 112.833,98.1667 113.5,87.5C 114.5,87.5 115.5,87.5 116.5,87.5C 116.5,82.1667 116.5,76.8333 116.5,71.5C 117.5,71.5 118.5,71.5 119.5,71.5C 119.351,70.448 119.517,69.448 120,68.5C 122.124,67.3783 123.957,65.8783 125.5,64C 124.527,58.5934 124.193,53.0934 124.5,47.5C 128.167,47.5 131.833,47.5 135.5,47.5C 135.5,44.8333 135.5,42.1667 135.5,39.5C 134.5,39.5 133.5,39.5 132.5,39.5C 132.5,31.5 132.5,23.5 132.5,15.5C 133.5,15.5 134.5,15.5 135.5,15.5 Z"/></g>
<g><path style="opacity:1" fill="#212e42" d="M 168.5,15.5 C 169.5,15.5 170.5,15.5 171.5,15.5C 171.5,20.8333 171.5,26.1667 171.5,31.5C 172.833,31.5 174.167,31.5 175.5,31.5C 175.5,34.1667 175.5,36.8333 175.5,39.5C 176.833,39.5 178.167,39.5 179.5,39.5C 179.5,42.1667 179.5,44.8333 179.5,47.5C 180.5,47.5 181.5,47.5 182.5,47.5C 182.833,36.8333 183.167,36.8333 183.5,47.5C 185.5,47.5 187.5,47.5 189.5,47.5C 189.281,48.675 189.614,49.675 190.5,50.5C 190.833,50 191.167,49.5 191.5,49C 190.29,45.8256 190.29,42.659 191.5,39.5C 192.48,42.0865 192.813,44.7531 192.5,47.5C 197.5,47.5 202.5,47.5 207.5,47.5C 207.5,52.8333 207.5,58.1667 207.5,63.5C 207.199,72.3121 207.199,81.3121 207.5,90.5C 207.5,92.1667 207.5,93.8333 207.5,95.5C 202.167,95.5 196.833,95.5 191.5,95.5C 191.5,92.8333 191.5,90.1667 191.5,87.5C 190.167,87.5 188.833,87.5 187.5,87.5C 187.5,84.8333 187.5,82.1667 187.5,79.5C 180.833,79.5 174.167,79.5 167.5,79.5C 166.512,74.3595 166.179,69.0262 166.5,63.5C 168.5,63.5 170.5,63.5 172.5,63.5C 172.5,60.8333 172.5,58.1667 172.5,55.5C 173.5,55.5 174.5,55.5 175.5,55.5C 175.5,52.8333 175.5,50.1667 175.5,47.5C 174.5,47.5 173.5,47.5 172.5,47.5C 172.5,44.8333 172.5,42.1667 172.5,39.5C 171.5,39.5 170.5,39.5 169.5,39.5C 168.834,31.5173 168.501,23.5173 168.5,15.5 Z"/></g>
<g><path style="opacity:1" fill="#1d223b" d="M 260.5,31.5 C 260.5,34.1667 260.5,36.8333 260.5,39.5C 264.316,40.9094 267.983,42.576 271.5,44.5C 271.34,42.8008 271.506,41.1341 272,39.5C 272.497,42.146 272.664,44.8127 272.5,47.5C 272.5,50.1667 272.5,52.8333 272.5,55.5C 273.833,55.5 275.167,55.5 276.5,55.5C 276.5,58.1667 276.5,60.8333 276.5,63.5C 277.5,63.5 278.5,63.5 279.5,63.5C 279.351,62.448 279.517,61.448 280,60.5C 281.506,62.1742 283.339,63.1742 285.5,63.5C 285.5,66.1667 285.5,68.8333 285.5,71.5C 283.5,71.5 281.5,71.5 279.5,71.5C 279.5,70.1667 279.5,68.8333 279.5,67.5C 276.482,67.6646 273.482,67.498 270.5,67C 268.76,65.3055 266.76,64.1389 264.5,63.5C 265.23,69.7527 264.896,72.4194 263.5,71.5C 261.833,71.5 260.167,71.5 258.5,71.5C 258.5,74.1667 258.5,76.8333 258.5,79.5C 257.5,79.5 256.5,79.5 255.5,79.5C 255.5,78.5 255.5,77.5 255.5,76.5C 251.983,74.576 248.316,72.9094 244.5,71.5C 244.5,68.8333 244.5,66.1667 244.5,63.5C 243.167,63.5 241.833,63.5 240.5,63.5C 240.167,58.1667 239.833,52.8333 239.5,47.5C 237.342,45.0071 234.676,43.3405 231.5,42.5C 230.756,38.8815 230.423,35.2148 230.5,31.5C 229.167,31.5 227.833,31.5 226.5,31.5C 226.223,28.5525 226.556,25.7191 227.5,23C 224.521,21.3884 223.188,18.8884 223.5,15.5C 227.5,15.5 231.5,15.5 235.5,15.5C 235.5,18.1667 235.5,20.8333 235.5,23.5C 236.833,23.5 238.167,23.5 239.5,23.5C 239.5,26.1667 239.5,28.8333 239.5,31.5C 246.5,31.5 253.5,31.5 260.5,31.5 Z"/></g>
<g><path style="opacity:1" fill="#1a1534" d="M 383.5,63.5 C 388.463,64.5369 393.463,64.5369 398.5,63.5C 398.194,66.3854 398.527,69.0521 399.5,71.5C 399.5,82.1667 399.5,92.8333 399.5,103.5C 398.448,103.649 397.448,103.483 396.5,103C 395.636,101.303 394.303,100.137 392.5,99.5C 391.571,98.3112 391.238,96.9778 391.5,95.5C 388.833,95.5 386.167,95.5 383.5,95.5C 383.5,94.5 383.5,93.5 383.5,92.5C 380.511,91.7016 377.845,90.2016 375.5,88C 376.167,87.6667 376.833,87.3333 377.5,87C 375.19,86.5034 372.857,86.3367 370.5,86.5C 366.044,85.003 361.378,83.8363 356.5,83C 355.5,82 354.5,81 353.5,80C 354.435,77.6194 354.768,75.1194 354.5,72.5C 353.791,71.596 352.791,71.2627 351.5,71.5C 351.5,69.8333 351.5,68.1667 351.5,66.5C 348.833,66.5 346.167,66.5 343.5,66.5C 343.36,64.8762 344.027,63.7096 345.5,63C 344.833,62.6667 344.167,62.3333 343.5,62C 340.237,61.9355 337.237,61.1022 334.5,59.5C 333.522,59.9767 332.689,60.6433 332,61.5C 330.577,59.6549 329.41,57.6549 328.5,55.5C 327.272,59.2343 325.605,59.401 323.5,56C 324.641,55.2588 324.641,54.4255 323.5,53.5C 320.065,51.163 318.732,47.8297 319.5,43.5C 319.5,40.5 319.5,37.5 319.5,34.5C 322.167,34.5 324.833,34.5 327.5,34.5C 327.5,35.5 327.5,36.5 327.5,37.5C 330.833,37.5 334.167,37.5 337.5,37.5C 337.5,38.8333 337.5,40.1667 337.5,41.5C 340.85,41.335 344.183,41.5017 347.5,42C 349.609,43.9071 352.109,44.7404 355,44.5C 357.328,44.0025 359.495,43.5025 361.5,43C 363.061,43.941 364.395,45.1076 365.5,46.5C 364.406,49.3644 364.906,52.031 367,54.5C 367.219,53.062 367.719,51.7287 368.5,50.5C 370.389,51.604 372.055,52.9373 373.5,54.5C 372.271,55.2811 370.938,55.7811 369.5,56C 371.043,57.8783 372.876,59.3783 375,60.5C 375.333,59.8333 375.667,59.1667 376,58.5C 377.009,60.0249 377.509,61.6916 377.5,63.5C 379.5,63.5 381.5,63.5 383.5,63.5 Z"/></g>
<g><path style="opacity:1" fill="#212841" d="M 239.5,47.5 C 239.833,52.8333 240.167,58.1667 240.5,63.5C 241.833,63.5 243.167,63.5 244.5,63.5C 244.5,66.1667 244.5,68.8333 244.5,71.5C 248.316,72.9094 251.983,74.576 255.5,76.5C 255.5,77.5 255.5,78.5 255.5,79.5C 244.815,78.6447 243.981,80.6447 253,85.5C 254.076,89.1024 254.91,92.769 255.5,96.5C 258.235,98.5207 260.901,100.521 263.5,102.5C 259.382,102.435 255.382,101.769 251.5,100.5C 249.076,101.021 246.743,101.688 244.5,102.5C 244.5,100.167 244.5,97.8333 244.5,95.5C 235.167,95.5 225.833,95.5 216.5,95.5C 216.664,92.8127 216.497,90.146 216,87.5C 215.517,88.448 215.351,89.448 215.5,90.5C 212.833,90.5 210.167,90.5 207.5,90.5C 207.199,81.3121 207.199,72.3121 207.5,63.5C 208.833,63.5 210.167,63.5 211.5,63.5C 211.833,42.1667 212.167,42.1667 212.5,63.5C 213.5,63.5 214.5,63.5 215.5,63.5C 216.167,58.1667 216.833,52.8333 217.5,47.5C 219.5,47.5 221.5,47.5 223.5,47.5C 223.504,68.7919 224.171,68.7919 225.5,47.5C 226.48,50.0865 226.813,52.7531 226.5,55.5C 227.5,55.5 228.5,55.5 229.5,55.5C 229.187,58.2469 229.52,60.9135 230.5,63.5C 231.823,58.2484 232.49,52.9151 232.5,47.5C 234.833,47.5 237.167,47.5 239.5,47.5 Z"/></g>
<g><path style="opacity:1" fill="#1e1b3a" d="M 272.5,47.5 C 279.167,47.5 285.833,47.5 292.5,47.5C 292.5,50.1667 292.5,52.8333 292.5,55.5C 294.288,55.2148 295.955,55.5481 297.5,56.5C 298.605,57.8924 299.939,59.059 301.5,60C 304.817,60.4983 308.15,60.665 311.5,60.5C 311.5,61.5 311.5,62.5 311.5,63.5C 314.167,63.5 316.833,63.5 319.5,63.5C 319.5,64.5 319.5,65.5 319.5,66.5C 324.833,66.5 330.167,66.5 335.5,66.5C 335.5,68.5 335.5,70.5 335.5,72.5C 339.182,72.3347 342.848,72.5014 346.5,73C 349.754,77.1262 351.42,76.9595 351.5,72.5C 352.5,72.5 353.5,72.5 354.5,72.5C 354.768,75.1194 354.435,77.6194 353.5,80C 354.5,81 355.5,82 356.5,83C 361.378,83.8363 366.044,85.003 370.5,86.5C 368.516,86.3832 366.85,87.0499 365.5,88.5C 367.669,92.2901 368.002,96.2901 366.5,100.5C 363.059,99.3929 361.059,97.0596 360.5,93.5C 357.437,91.9748 354.77,89.9748 352.5,87.5C 351.614,88.325 351.281,89.325 351.5,90.5C 348.833,90.5 346.167,90.5 343.5,90.5C 343.5,88.5 343.5,86.5 343.5,84.5C 340.289,84.012 337.456,84.6787 335,86.5C 330.07,83.3242 325.237,79.9908 320.5,76.5C 319.548,74.9547 319.215,73.288 319.5,71.5C 318.5,71.5 317.5,71.5 316.5,71.5C 316.5,72.8333 316.5,74.1667 316.5,75.5C 314.5,75.5 312.5,75.5 310.5,75.5C 310.5,78.5 310.5,81.5 310.5,84.5C 305.243,85.479 300.91,83.979 297.5,80C 295.527,79.5045 293.527,79.3379 291.5,79.5C 290.167,79.5 288.833,79.5 287.5,79.5C 288.036,76.3019 287.369,73.6353 285.5,71.5C 285.5,68.8333 285.5,66.1667 285.5,63.5C 283.339,63.1742 281.506,62.1742 280,60.5C 279.517,61.448 279.351,62.448 279.5,63.5C 278.5,63.5 277.5,63.5 276.5,63.5C 276.5,60.8333 276.5,58.1667 276.5,55.5C 275.167,55.5 273.833,55.5 272.5,55.5C 272.5,52.8333 272.5,50.1667 272.5,47.5 Z"/></g>
<g><path style="opacity:1" fill="#222241" d="M 285.5,71.5 C 287.369,73.6353 288.036,76.3019 287.5,79.5C 288.833,79.5 290.167,79.5 291.5,79.5C 291.414,80.4959 291.748,81.3292 292.5,82C 295.21,83.0152 297.543,84.5152 299.5,86.5C 298.271,87.2811 296.938,87.7811 295.5,88C 298.146,88.4974 300.813,88.6641 303.5,88.5C 303.5,89.5 303.5,90.5 303.5,91.5C 305.833,91.5 308.167,91.5 310.5,91.5C 310.5,92.8333 310.5,94.1667 310.5,95.5C 308.712,95.2148 307.045,95.5481 305.5,96.5C 306.945,98.0627 308.611,99.396 310.5,100.5C 311.386,101.325 311.719,102.325 311.5,103.5C 314.167,103.5 316.833,103.5 319.5,103.5C 319.336,100.813 319.503,98.146 320,95.5C 319.092,101.512 321.259,105.845 326.5,108.5C 327.086,108.291 327.586,107.957 328,107.5C 328.49,108.793 328.657,110.127 328.5,111.5C 330.833,111.5 333.167,111.5 335.5,111.5C 335.5,113.167 335.5,114.833 335.5,116.5C 335.5,117.5 335.5,118.5 335.5,119.5C 331.407,119.478 327.407,118.811 323.5,117.5C 319.916,118.716 316.249,119.383 312.5,119.5C 312.5,116.833 312.5,114.167 312.5,111.5C 304.167,111.5 295.833,111.5 287.5,111.5C 287.799,113.604 287.466,115.604 286.5,117.5C 284.5,116.167 282.5,114.833 280.5,113.5C 278.795,115.555 277.128,115.222 275.5,112.5C 276.833,111.833 278.167,111.167 279.5,110.5C 277.113,108.311 274.447,106.644 271.5,105.5C 269.031,104.683 266.365,104.183 263.5,104C 274.146,103.171 274.146,102.671 263.5,102.5C 260.901,100.521 258.235,98.5207 255.5,96.5C 254.91,92.769 254.076,89.1024 253,85.5C 243.981,80.6447 244.815,78.6447 255.5,79.5C 256.5,79.5 257.5,79.5 258.5,79.5C 258.5,76.8333 258.5,74.1667 258.5,71.5C 260.167,71.5 261.833,71.5 263.5,71.5C 264.896,72.4194 265.23,69.7527 264.5,63.5C 266.76,64.1389 268.76,65.3055 270.5,67C 273.482,67.498 276.482,67.6646 279.5,67.5C 279.5,68.8333 279.5,70.1667 279.5,71.5C 281.5,71.5 283.5,71.5 285.5,71.5 Z"/></g>
<g><path style="opacity:1" fill="#221b3f" d="M 370.5,86.5 C 372.857,86.3367 375.19,86.5034 377.5,87C 376.833,87.3333 376.167,87.6667 375.5,88C 377.845,90.2016 380.511,91.7016 383.5,92.5C 383.5,93.5 383.5,94.5 383.5,95.5C 386.167,95.5 388.833,95.5 391.5,95.5C 391.238,96.9778 391.571,98.3112 392.5,99.5C 394.303,100.137 395.636,101.303 396.5,103C 397.448,103.483 398.448,103.649 399.5,103.5C 399.5,117.5 399.5,131.5 399.5,145.5C 394.391,143.724 389.058,143.057 383.5,143.5C 383.5,140.167 383.5,136.833 383.5,133.5C 376.825,133.666 370.158,133.5 363.5,133C 359.805,130.316 355.805,128.483 351.5,127.5C 351.5,128.833 351.5,130.167 351.5,131.5C 348.938,130.765 346.772,129.431 345,127.5C 342.888,128.386 340.722,128.386 338.5,127.5C 338.223,124.552 338.556,121.719 339.5,119C 338.529,117.519 337.196,116.685 335.5,116.5C 335.5,114.833 335.5,113.167 335.5,111.5C 333.167,111.5 330.833,111.5 328.5,111.5C 328.657,110.127 328.49,108.793 328,107.5C 327.586,107.957 327.086,108.291 326.5,108.5C 321.259,105.845 319.092,101.512 320,95.5C 319.503,98.146 319.336,100.813 319.5,103.5C 316.833,103.5 314.167,103.5 311.5,103.5C 311.719,102.325 311.386,101.325 310.5,100.5C 308.611,99.396 306.945,98.0627 305.5,96.5C 307.045,95.5481 308.712,95.2148 310.5,95.5C 310.5,94.1667 310.5,92.8333 310.5,91.5C 308.167,91.5 305.833,91.5 303.5,91.5C 303.5,90.5 303.5,89.5 303.5,88.5C 300.813,88.6641 298.146,88.4974 295.5,88C 296.938,87.7811 298.271,87.2811 299.5,86.5C 297.543,84.5152 295.21,83.0152 292.5,82C 291.748,81.3292 291.414,80.4959 291.5,79.5C 293.527,79.3379 295.527,79.5045 297.5,80C 300.91,83.979 305.243,85.479 310.5,84.5C 310.5,81.5 310.5,78.5 310.5,75.5C 312.5,75.5 314.5,75.5 316.5,75.5C 316.5,74.1667 316.5,72.8333 316.5,71.5C 317.5,71.5 318.5,71.5 319.5,71.5C 319.215,73.288 319.548,74.9547 320.5,76.5C 325.237,79.9908 330.07,83.3242 335,86.5C 337.456,84.6787 340.289,84.012 343.5,84.5C 343.5,86.5 343.5,88.5 343.5,90.5C 346.167,90.5 348.833,90.5 351.5,90.5C 351.281,89.325 351.614,88.325 352.5,87.5C 354.77,89.9748 357.437,91.9748 360.5,93.5C 361.059,97.0596 363.059,99.3929 366.5,100.5C 368.002,96.2901 367.669,92.2901 365.5,88.5C 366.85,87.0499 368.516,86.3832 370.5,86.5 Z"/></g>
<g><path style="opacity:1" fill="#1e3441" d="M -0.5,101.5 C 2.16667,101.5 4.83333,101.5 7.5,101.5C 7.5,102.5 7.5,103.5 7.5,104.5C 12.8333,104.5 18.1667,104.5 23.5,104.5C 23.5,105.5 23.5,106.5 23.5,107.5C 36.8333,107.5 50.1667,107.5 63.5,107.5C 63.5,108.833 63.5,110.167 63.5,111.5C 62.2458,113.26 67.5792,113.593 79.5,112.5C 79.5,113.833 79.5,115.167 79.5,116.5C 82.1667,116.5 84.8333,116.5 87.5,116.5C 87.5,117.5 87.5,118.5 87.5,119.5C 79.9564,119.449 79.6231,121.116 86.5,124.5C 89.2123,122.74 92.2123,122.073 95.5,122.5C 95.5,124.167 95.5,125.833 95.5,127.5C 84.8333,127.167 74.1667,126.833 63.5,126.5C 63.5,128.833 63.5,131.167 63.5,133.5C 58.1667,133.5 52.8333,133.5 47.5,133.5C 47.5,136.833 47.5,140.167 47.5,143.5C 52.8333,143.5 58.1667,143.5 63.5,143.5C 63.5,146.167 63.5,148.833 63.5,151.5C 60.8333,151.5 58.1667,151.5 55.5,151.5C 55.5,149.167 55.5,146.833 55.5,144.5C 47.4827,144.499 39.4827,144.166 31.5,143.5C 31.5,142.167 31.5,140.833 31.5,139.5C 26.1667,138.833 20.8333,138.167 15.5,137.5C 15.5,139.5 15.5,141.5 15.5,143.5C 12.8333,143.5 10.1667,143.5 7.5,143.5C 7.5,141.833 7.5,140.167 7.5,138.5C 4.83333,138.5 2.16667,138.5 -0.5,138.5C -0.5,126.167 -0.5,113.833 -0.5,101.5 Z"/></g>
<g><path style="opacity:1" fill="#272247" d="M 271.5,105.5 C 274.447,106.644 277.113,108.311 279.5,110.5C 278.167,111.167 276.833,111.833 275.5,112.5C 277.128,115.222 278.795,115.555 280.5,113.5C 282.5,114.833 284.5,116.167 286.5,117.5C 287.466,115.604 287.799,113.604 287.5,111.5C 295.833,111.5 304.167,111.5 312.5,111.5C 312.5,114.167 312.5,116.833 312.5,119.5C 316.249,119.383 319.916,118.716 323.5,117.5C 327.407,118.811 331.407,119.478 335.5,119.5C 335.5,118.5 335.5,117.5 335.5,116.5C 337.196,116.685 338.529,117.519 339.5,119C 338.556,121.719 338.223,124.552 338.5,127.5C 340.722,128.386 342.888,128.386 345,127.5C 346.772,129.431 348.938,130.765 351.5,131.5C 351.36,133.124 352.027,134.29 353.5,135C 352.167,136 350.833,137 349.5,138C 353.619,138.143 357.619,138.81 361.5,140C 358.183,140.498 354.85,140.665 351.5,140.5C 351.5,141.5 351.5,142.5 351.5,143.5C 355.514,143.334 359.514,143.501 363.5,144C 367.57,146.692 371.57,149.358 375.5,152C 370.177,152.499 364.844,152.666 359.5,152.5C 359.5,150.833 359.5,149.167 359.5,147.5C 354.167,147.5 348.833,147.5 343.5,147.5C 343.5,146.5 343.5,145.5 343.5,144.5C 335.517,143.834 327.517,143.501 319.5,143.5C 319.5,141.5 319.5,139.5 319.5,137.5C 311.5,137.5 303.5,137.5 295.5,137.5C 292.206,134.929 288.539,132.596 284.5,130.5C 283.575,129.643 282.908,128.643 282.5,127.5C 284.167,127.5 285.833,127.5 287.5,127.5C 287.739,125.533 287.406,123.699 286.5,122C 284.449,120.577 282.449,119.077 280.5,117.5C 279.742,118.811 278.742,119.311 277.5,119C 275.957,117.122 274.124,115.622 272,114.5C 271.46,112.865 271.96,111.532 273.5,110.5C 271.995,109.158 271.328,107.492 271.5,105.5 Z"/></g>
<g><path style="opacity:1" fill="#262847" d="M 263.5,102.5 C 274.146,102.671 274.146,103.171 263.5,104C 266.365,104.183 269.031,104.683 271.5,105.5C 271.328,107.492 271.995,109.158 273.5,110.5C 271.96,111.532 271.46,112.865 272,114.5C 274.124,115.622 275.957,117.122 277.5,119C 278.742,119.311 279.742,118.811 280.5,117.5C 282.449,119.077 284.449,120.577 286.5,122C 287.406,123.699 287.739,125.533 287.5,127.5C 285.833,127.5 284.167,127.5 282.5,127.5C 278.833,127.5 275.167,127.5 271.5,127.5C 271.5,130.167 271.5,132.833 271.5,135.5C 267.167,135.5 262.833,135.5 258.5,135.5C 258.5,132.833 258.5,130.167 258.5,127.5C 257.5,127.5 256.5,127.5 255.5,127.5C 255.66,129.199 255.494,130.866 255,132.5C 252.876,131.378 251.043,129.878 249.5,128C 246.183,127.502 242.85,127.335 239.5,127.5C 239.813,130.247 239.48,132.914 238.5,135.5C 233.739,133.63 228.739,132.963 223.5,133.5C 221.742,133.123 220.075,132.456 218.5,131.5C 218.06,130.302 217.727,129.135 217.5,128C 214.167,127.667 210.833,127.333 207.5,127C 212.823,126.501 218.156,126.334 223.5,126.5C 223.5,123.833 223.5,121.167 223.5,118.5C 218.167,118.5 212.833,118.5 207.5,118.5C 207.5,113.5 207.5,108.5 207.5,103.5C 208.5,103.5 209.5,103.5 210.5,103.5C 210.5,100.833 210.5,98.1667 210.5,95.5C 209.5,95.5 208.5,95.5 207.5,95.5C 207.5,93.8333 207.5,92.1667 207.5,90.5C 210.167,90.5 212.833,90.5 215.5,90.5C 215.351,89.448 215.517,88.448 216,87.5C 216.497,90.146 216.664,92.8127 216.5,95.5C 225.833,95.5 235.167,95.5 244.5,95.5C 244.5,97.8333 244.5,100.167 244.5,102.5C 246.743,101.688 249.076,101.021 251.5,100.5C 255.382,101.769 259.382,102.435 263.5,102.5 Z"/></g>
<g><path style="opacity:1" fill="#282e4b" d="M 207.5,118.5 C 212.833,118.5 218.167,118.5 223.5,118.5C 223.5,121.167 223.5,123.833 223.5,126.5C 218.156,126.334 212.823,126.501 207.5,127C 210.833,127.333 214.167,127.667 217.5,128C 217.727,129.135 218.06,130.302 218.5,131.5C 220.075,132.456 221.742,133.123 223.5,133.5C 223.5,135.833 223.5,138.167 223.5,140.5C 221.005,141.199 218.672,142.199 216.5,143.5C 216.468,156.6 216.801,169.6 217.5,182.5C 230.961,183.15 244.295,183.816 257.5,184.5C 243.167,184.5 228.833,184.5 214.5,184.5C 214.829,169.324 214.496,154.324 213.5,139.5C 212.228,138.566 210.728,137.899 209,137.5C 192.535,138.478 176.035,138.812 159.5,138.5C 159.5,137.5 159.5,136.5 159.5,135.5C 170.218,135.161 180.885,134.161 191.5,132.5C 180.833,131.167 170.167,129.833 159.5,128.5C 167.813,127.668 176.147,127.168 184.5,127C 186.303,124.897 188.636,124.064 191.5,124.5C 191.5,120.167 191.5,115.833 191.5,111.5C 195.5,111.5 199.5,111.5 203.5,111.5C 203.5,114.167 203.5,116.833 203.5,119.5C 205.099,119.768 206.432,119.434 207.5,118.5 Z"/></g>
<g><path style="opacity:1" fill="#2a2a4f" d="M 282.5,127.5 C 282.908,128.643 283.575,129.643 284.5,130.5C 288.539,132.596 292.206,134.929 295.5,137.5C 284.833,137.833 284.833,138.167 295.5,138.5C 295.5,139.5 295.5,140.5 295.5,141.5C 298.167,141.5 300.833,141.5 303.5,141.5C 303.5,143.833 303.5,146.167 303.5,148.5C 298.167,147.833 292.833,147.167 287.5,146.5C 287.5,145.5 287.5,144.5 287.5,143.5C 282.691,142.78 278.691,144.113 275.5,147.5C 273.803,146.636 272.637,145.303 272,143.5C 271.501,148.823 271.334,154.156 271.5,159.5C 260.833,159.5 250.167,159.5 239.5,159.5C 239.5,162.167 239.5,164.833 239.5,167.5C 242.167,167.5 244.833,167.5 247.5,167.5C 247.974,171.157 249.307,171.324 251.5,168C 252.793,167.51 254.127,167.343 255.5,167.5C 255.336,170.187 255.503,172.854 256,175.5C 257.969,178.199 259.136,181.199 259.5,184.5C 258.833,184.5 258.167,184.5 257.5,184.5C 244.295,183.816 230.961,183.15 217.5,182.5C 216.801,169.6 216.468,156.6 216.5,143.5C 218.672,142.199 221.005,141.199 223.5,140.5C 223.5,138.167 223.5,135.833 223.5,133.5C 228.739,132.963 233.739,133.63 238.5,135.5C 239.48,132.914 239.813,130.247 239.5,127.5C 242.85,127.335 246.183,127.502 249.5,128C 251.043,129.878 252.876,131.378 255,132.5C 255.494,130.866 255.66,129.199 255.5,127.5C 256.5,127.5 257.5,127.5 258.5,127.5C 258.5,130.167 258.5,132.833 258.5,135.5C 262.833,135.5 267.167,135.5 271.5,135.5C 271.5,132.833 271.5,130.167 271.5,127.5C 275.167,127.5 278.833,127.5 282.5,127.5 Z"/></g>
<g><path style="opacity:1" fill="#232f46" d="M 167.5,79.5 C 174.167,79.5 180.833,79.5 187.5,79.5C 187.5,82.1667 187.5,84.8333 187.5,87.5C 188.833,87.5 190.167,87.5 191.5,87.5C 191.5,90.1667 191.5,92.8333 191.5,95.5C 196.833,95.5 202.167,95.5 207.5,95.5C 208.5,95.5 209.5,95.5 210.5,95.5C 210.5,98.1667 210.5,100.833 210.5,103.5C 209.5,103.5 208.5,103.5 207.5,103.5C 207.5,108.5 207.5,113.5 207.5,118.5C 206.432,119.434 205.099,119.768 203.5,119.5C 203.5,116.833 203.5,114.167 203.5,111.5C 199.5,111.5 195.5,111.5 191.5,111.5C 191.5,115.833 191.5,120.167 191.5,124.5C 188.636,124.064 186.303,124.897 184.5,127C 176.147,127.168 167.813,127.668 159.5,128.5C 170.167,129.833 180.833,131.167 191.5,132.5C 180.885,134.161 170.218,135.161 159.5,135.5C 159.5,136.5 159.5,137.5 159.5,138.5C 176.035,138.812 192.535,138.478 209,137.5C 210.728,137.899 212.228,138.566 213.5,139.5C 188.833,139.5 164.167,139.5 139.5,139.5C 139.5,149.5 139.5,159.5 139.5,169.5C 154.5,169.5 169.5,169.5 184.5,169.5C 184.5,184.5 184.5,199.5 184.5,214.5C 183.376,201.678 182.709,188.678 182.5,175.5C 181.167,175.5 179.833,175.5 178.5,175.5C 177.5,175.5 176.5,175.5 175.5,175.5C 175.5,174.5 175.5,173.5 175.5,172.5C 167.452,172.494 159.452,171.828 151.5,170.5C 148.445,170.544 145.445,170.877 142.5,171.5C 139.667,169.29 137.334,169.457 135.5,172C 136.336,173.243 136.003,174.41 134.5,175.5C 133.534,177.396 133.201,179.396 133.5,181.5C 131.5,181.5 129.5,181.5 127.5,181.5C 127.5,184.833 127.5,188.167 127.5,191.5C 125.5,191.5 123.5,191.5 121.5,191.5C 121.5,189.5 121.5,187.5 121.5,185.5C 118.167,185.5 114.833,185.5 111.5,185.5C 111.5,189.5 111.5,193.5 111.5,197.5C 109.833,197.5 108.167,197.5 106.5,197.5C 106.5,195.5 106.5,193.5 106.5,191.5C 102.833,191.5 99.1667,191.5 95.5,191.5C 95.5,188.833 95.5,186.167 95.5,183.5C 87.5682,182.176 79.5682,181.509 71.5,181.5C 71.5,179.5 71.5,177.5 71.5,175.5C 74.1667,175.5 76.8333,175.5 79.5,175.5C 79.5,173.167 79.5,170.833 79.5,168.5C 84.8333,168.5 90.1667,168.5 95.5,168.5C 95.5,165.833 95.5,163.167 95.5,160.5C 74.1667,160.167 74.1667,159.833 95.5,159.5C 95.5,156.833 95.5,154.167 95.5,151.5C 100.64,150.512 105.974,150.179 111.5,150.5C 111.5,153.5 111.5,156.5 111.5,159.5C 112.833,159.5 114.167,159.5 115.5,159.5C 115.5,154.167 115.5,148.833 115.5,143.5C 114.167,143.5 112.833,143.5 111.5,143.5C 111.5,140.833 111.5,138.167 111.5,135.5C 114.167,135.5 116.833,135.5 119.5,135.5C 119.5,138.167 119.5,140.833 119.5,143.5C 122.167,143.5 124.833,143.5 127.5,143.5C 127.5,139.833 127.5,136.167 127.5,132.5C 128.833,132.5 130.167,132.5 131.5,132.5C 131.351,133.552 131.517,134.552 132,135.5C 132.465,134.069 133.299,132.903 134.5,132C 132.893,130.951 132.227,129.451 132.5,127.5C 138.7,127.748 144.867,128.414 151,129.5C 153.5,129.167 156,128.833 158.5,128.5C 156.604,127.534 154.604,127.201 152.5,127.5C 152.5,122.167 152.5,116.833 152.5,111.5C 154.5,111.5 156.5,111.5 158.5,111.5C 158.5,106.167 158.5,100.833 158.5,95.5C 161.167,95.5 163.833,95.5 166.5,95.5C 166.833,90.1667 167.167,84.8333 167.5,79.5 Z"/></g>
<g><path style="opacity:1" fill="#1d2e3f" d="M 63.5,143.5 C 66.1004,144.919 68.6004,146.585 71,148.5C 71.4828,149.448 71.6495,150.448 71.5,151.5C 74.1667,151.5 76.8333,151.5 79.5,151.5C 79.5,150.5 79.5,149.5 79.5,148.5C 82.1667,148.5 84.8333,148.5 87.5,148.5C 87.5,149.5 87.5,150.5 87.5,151.5C 90.1667,151.5 92.8333,151.5 95.5,151.5C 95.5,154.167 95.5,156.833 95.5,159.5C 74.1667,159.833 74.1667,160.167 95.5,160.5C 95.5,163.167 95.5,165.833 95.5,168.5C 90.1667,168.5 84.8333,168.5 79.5,168.5C 79.5,170.833 79.5,173.167 79.5,175.5C 76.8333,175.5 74.1667,175.5 71.5,175.5C 68.8333,175.5 66.1667,175.5 63.5,175.5C 63.5,177.5 63.5,179.5 63.5,181.5C 60.8127,181.664 58.146,181.497 55.5,181C 52.9348,178.92 50.2682,177.087 47.5,175.5C 42.1951,174.806 36.8617,174.472 31.5,174.5C 31.5,173.5 31.5,172.5 31.5,171.5C 27.6924,171.837 24.0257,171.337 20.5,170C 20.208,166.955 18.708,164.788 16,163.5C 15.6924,164.308 15.1924,164.975 14.5,165.5C 10.3777,161.276 5.37773,159.609 -0.5,160.5C -0.5,153.167 -0.5,145.833 -0.5,138.5C 2.16667,138.5 4.83333,138.5 7.5,138.5C 7.5,140.167 7.5,141.833 7.5,143.5C 10.1667,143.5 12.8333,143.5 15.5,143.5C 15.5,141.5 15.5,139.5 15.5,137.5C 20.8333,138.167 26.1667,138.833 31.5,139.5C 31.5,140.833 31.5,142.167 31.5,143.5C 39.4827,144.166 47.4827,144.499 55.5,144.5C 55.5,146.833 55.5,149.167 55.5,151.5C 58.1667,151.5 60.8333,151.5 63.5,151.5C 63.5,148.833 63.5,146.167 63.5,143.5 Z"/></g>
<g><path style="opacity:1" fill="#2a214c" d="M 399.5,145.5 C 399.5,159.5 399.5,173.5 399.5,187.5C 391.151,184.932 382.485,183.766 373.5,184C 369.166,181.833 365.166,179.166 361.5,176C 363.5,175.667 365.5,175.333 367.5,175C 364.766,174.79 362.266,173.956 360,172.5C 357.478,174.662 354.645,174.995 351.5,173.5C 349.192,171.529 346.858,169.529 344.5,167.5C 343.833,168.167 343.167,168.833 342.5,169.5C 337.774,167.446 332.774,166.446 327.5,166.5C 324.833,166.5 322.167,166.5 319.5,166.5C 320.229,161.192 318.229,157.359 313.5,155C 310.183,154.502 306.85,154.335 303.5,154.5C 303.5,153.5 303.5,152.5 303.5,151.5C 307.297,150.911 307.297,149.911 303.5,148.5C 303.5,146.167 303.5,143.833 303.5,141.5C 300.833,141.5 298.167,141.5 295.5,141.5C 295.5,140.5 295.5,139.5 295.5,138.5C 284.833,138.167 284.833,137.833 295.5,137.5C 303.5,137.5 311.5,137.5 319.5,137.5C 319.5,139.5 319.5,141.5 319.5,143.5C 327.517,143.501 335.517,143.834 343.5,144.5C 343.5,145.5 343.5,146.5 343.5,147.5C 348.833,147.5 354.167,147.5 359.5,147.5C 359.5,149.167 359.5,150.833 359.5,152.5C 364.844,152.666 370.177,152.499 375.5,152C 371.57,149.358 367.57,146.692 363.5,144C 359.514,143.501 355.514,143.334 351.5,143.5C 351.5,142.5 351.5,141.5 351.5,140.5C 354.85,140.665 358.183,140.498 361.5,140C 357.619,138.81 353.619,138.143 349.5,138C 350.833,137 352.167,136 353.5,135C 352.027,134.29 351.36,133.124 351.5,131.5C 351.5,130.167 351.5,128.833 351.5,127.5C 355.805,128.483 359.805,130.316 363.5,133C 370.158,133.5 376.825,133.666 383.5,133.5C 383.5,136.833 383.5,140.167 383.5,143.5C 389.058,143.057 394.391,143.724 399.5,145.5 Z"/></g>
<g><path style="opacity:1" fill="#2f2954" d="M 303.5,148.5 C 307.297,149.911 307.297,150.911 303.5,151.5C 303.5,152.5 303.5,153.5 303.5,154.5C 306.85,154.335 310.183,154.502 313.5,155C 318.229,157.359 320.229,161.192 319.5,166.5C 322.167,166.5 324.833,166.5 327.5,166.5C 332.871,167.528 337.871,169.861 342.5,173.5C 343.192,172.975 343.692,172.308 344,171.5C 346.369,173.857 348.536,176.357 350.5,179C 366.895,180.734 367.228,182.401 351.5,184C 356.823,184.499 362.156,184.666 367.5,184.5C 367.5,185.5 367.5,186.5 367.5,187.5C 353.468,187.791 339.468,187.291 325.5,186C 323.606,184.899 322.939,183.566 323.5,182C 311.505,181.5 299.505,181.333 287.5,181.5C 287.5,182.5 287.5,183.5 287.5,184.5C 282.167,184.5 276.833,184.5 271.5,184.5C 271.5,186.833 271.5,189.167 271.5,191.5C 270.512,196.64 270.179,201.974 270.5,207.5C 269.833,218.008 269.167,228.674 268.5,239.5C 267.501,223.514 267.167,207.514 267.5,191.5C 266.5,191.5 265.5,191.5 264.5,191.5C 264.723,212.86 264.723,234.193 264.5,255.5C 263.167,239.526 262.167,223.526 261.5,207.5C 260.404,225.19 260.238,242.856 261,260.5C 253.937,260.742 246.77,260.742 239.5,260.5C 228.654,260.828 217.987,260.494 207.5,259.5C 224.833,259.5 242.167,259.5 259.5,259.5C 259.5,234.5 259.5,209.5 259.5,184.5C 259.136,181.199 257.969,178.199 256,175.5C 255.503,172.854 255.336,170.187 255.5,167.5C 254.127,167.343 252.793,167.51 251.5,168C 249.307,171.324 247.974,171.157 247.5,167.5C 244.833,167.5 242.167,167.5 239.5,167.5C 239.5,164.833 239.5,162.167 239.5,159.5C 250.167,159.5 260.833,159.5 271.5,159.5C 271.334,154.156 271.501,148.823 272,143.5C 272.637,145.303 273.803,146.636 275.5,147.5C 278.691,144.113 282.691,142.78 287.5,143.5C 287.5,144.5 287.5,145.5 287.5,146.5C 292.833,147.167 298.167,147.833 303.5,148.5 Z"/></g>
<g><path style="opacity:1" fill="#1a273a" d="M -0.5,160.5 C 5.37773,159.609 10.3777,161.276 14.5,165.5C 15.1924,164.975 15.6924,164.308 16,163.5C 18.708,164.788 20.208,166.955 20.5,170C 24.0257,171.337 27.6924,171.837 31.5,171.5C 31.5,172.5 31.5,173.5 31.5,174.5C 36.8617,174.472 42.1951,174.806 47.5,175.5C 47.5222,179.593 48.1888,183.593 49.5,187.5C 48.9789,189.924 48.3123,192.257 47.5,194.5C 50.1667,194.5 52.8333,194.5 55.5,194.5C 55.5,196.167 55.5,197.833 55.5,199.5C 60.9456,199.532 63.6123,202.199 63.5,207.5C 58.1667,207.5 52.8333,207.5 47.5,207.5C 47.5,209.167 47.5,210.833 47.5,212.5C 44.4212,212.26 41.4212,212.593 38.5,213.5C 38.1667,212.5 37.8333,211.5 37.5,210.5C 38.2043,208.465 38.871,206.465 39.5,204.5C 34.1667,203.833 28.8333,203.167 23.5,202.5C 23.5,201.5 23.5,200.5 23.5,199.5C 20.8333,199.5 18.1667,199.5 15.5,199.5C 15.5,200.833 15.5,202.167 15.5,203.5C 18.1667,203.5 20.8333,203.5 23.5,203.5C 23.5,204.5 23.5,205.5 23.5,206.5C 26.1873,206.336 28.854,206.503 31.5,207C 27.8484,207.499 24.1817,207.665 20.5,207.5C 20.5,209.5 20.5,211.5 20.5,213.5C 14.8236,213.334 9.15688,213.501 3.5,214C 2.9394,215.566 3.60607,216.899 5.5,218C 8.71114,219.153 12.0445,219.82 15.5,220C 11.8484,220.499 8.18174,220.665 4.5,220.5C 2.83333,219.833 1.16667,219.167 -0.5,218.5C -0.5,199.167 -0.5,179.833 -0.5,160.5 Z"/></g>
<g><path style="opacity:1" fill="#282d4e" d="M 178.5,175.5 C 178.167,186.167 177.833,196.833 177.5,207.5C 171.833,207.5 166.167,207.5 160.5,207.5C 160.5,210.5 160.5,213.5 160.5,216.5C 159.512,211.36 159.179,206.026 159.5,200.5C 155.64,201.353 152.973,203.687 151.5,207.5C 150.505,212.792 150.172,218.125 150.5,223.5C 149.167,223.5 147.833,223.5 146.5,223.5C 146.5,218.167 146.5,212.833 146.5,207.5C 144.833,207.5 143.167,207.5 141.5,207.5C 141.187,204.753 141.52,202.086 142.5,199.5C 143.736,198.754 145.07,198.421 146.5,198.5C 146.5,196.167 146.5,193.833 146.5,191.5C 142.167,191.5 137.833,191.5 133.5,191.5C 133.5,188.167 133.5,184.833 133.5,181.5C 133.201,179.396 133.534,177.396 134.5,175.5C 136.003,174.41 136.336,173.243 135.5,172C 137.334,169.457 139.667,169.29 142.5,171.5C 145.445,170.877 148.445,170.544 151.5,170.5C 159.452,171.828 167.452,172.494 175.5,172.5C 175.5,173.5 175.5,174.5 175.5,175.5C 176.5,175.5 177.5,175.5 178.5,175.5 Z"/></g>
<g><path style="opacity:1" fill="#1e2940" d="M 47.5,175.5 C 50.2682,177.087 52.9348,178.92 55.5,181C 58.146,181.497 60.8127,181.664 63.5,181.5C 63.5,179.5 63.5,177.5 63.5,175.5C 66.1667,175.5 68.8333,175.5 71.5,175.5C 71.5,177.5 71.5,179.5 71.5,181.5C 79.5682,181.509 87.5682,182.176 95.5,183.5C 95.5,186.167 95.5,188.833 95.5,191.5C 95.5,192.833 95.5,194.167 95.5,195.5C 91.1539,195.334 86.8206,195.501 82.5,196C 85.0352,196.928 86.0352,198.762 85.5,201.5C 83.5,201.5 81.5,201.5 79.5,201.5C 79.5,203.5 79.5,205.5 79.5,207.5C 78.5,207.5 77.5,207.5 76.5,207.5C 75.9645,212.312 76.9645,216.645 79.5,220.5C 79.719,221.675 79.3857,222.675 78.5,223.5C 77.5896,221.345 76.4229,219.345 75,217.5C 74.3109,218.357 73.4776,219.023 72.5,219.5C 71.7702,218.066 70.7702,216.9 69.5,216C 70.4438,213.281 70.7771,210.448 70.5,207.5C 68.5,207.5 66.5,207.5 64.5,207.5C 64.1667,207.5 63.8333,207.5 63.5,207.5C 63.6123,202.199 60.9456,199.532 55.5,199.5C 55.5,197.833 55.5,196.167 55.5,194.5C 52.8333,194.5 50.1667,194.5 47.5,194.5C 48.3123,192.257 48.9789,189.924 49.5,187.5C 48.1888,183.593 47.5222,179.593 47.5,175.5 Z"/></g>
<g><path style="opacity:1" fill="#322759" d="M 327.5,166.5 C 332.774,166.446 337.774,167.446 342.5,169.5C 343.167,168.833 343.833,168.167 344.5,167.5C 346.858,169.529 349.192,171.529 351.5,173.5C 354.645,174.995 357.478,174.662 360,172.5C 362.266,173.956 364.766,174.79 367.5,175C 365.5,175.333 363.5,175.667 361.5,176C 365.166,179.166 369.166,181.833 373.5,184C 382.485,183.766 391.151,184.932 399.5,187.5C 399.5,206.5 399.5,225.5 399.5,244.5C 397.095,243.602 395.095,242.102 393.5,240C 391.527,239.505 389.527,239.338 387.5,239.5C 387.665,236.15 387.498,232.817 387,229.5C 384.054,226.457 382.888,227.124 383.5,231.5C 382.167,231.5 380.833,231.5 379.5,231.5C 379.073,228.212 379.74,225.212 381.5,222.5C 381.291,221.914 380.957,221.414 380.5,221C 377.833,220.667 375.167,220.333 372.5,220C 368.463,217.32 364.463,214.654 360.5,212C 357.167,211.667 353.833,211.333 350.5,211C 349.09,210.632 348.09,209.799 347.5,208.5C 340.866,207.503 334.2,207.17 327.5,207.5C 327.5,206.167 327.5,204.833 327.5,203.5C 314.167,203.5 300.833,203.5 287.5,203.5C 287.5,202.167 287.5,200.833 287.5,199.5C 282.167,200.167 276.833,200.833 271.5,201.5C 271.5,198.167 271.5,194.833 271.5,191.5C 271.5,189.167 271.5,186.833 271.5,184.5C 276.833,184.5 282.167,184.5 287.5,184.5C 287.5,183.5 287.5,182.5 287.5,181.5C 299.505,181.333 311.505,181.5 323.5,182C 322.939,183.566 323.606,184.899 325.5,186C 339.468,187.291 353.468,187.791 367.5,187.5C 367.5,186.5 367.5,185.5 367.5,184.5C 362.156,184.666 356.823,184.499 351.5,184C 367.228,182.401 366.895,180.734 350.5,179C 348.536,176.357 346.369,173.857 344,171.5C 343.692,172.308 343.192,172.975 342.5,173.5C 337.871,169.861 332.871,167.528 327.5,166.5 Z"/></g>
<g><path style="opacity:1" fill="#232846" d="M 133.5,181.5 C 133.5,184.833 133.5,188.167 133.5,191.5C 137.833,191.5 142.167,191.5 146.5,191.5C 146.5,193.833 146.5,196.167 146.5,198.5C 145.07,198.421 143.736,198.754 142.5,199.5C 141.52,202.086 141.187,204.753 141.5,207.5C 135.5,207.5 129.5,207.5 123.5,207.5C 123.5,212.833 123.5,218.167 123.5,223.5C 122.5,223.5 121.5,223.5 120.5,223.5C 120.167,228.833 119.833,234.167 119.5,239.5C 116.833,239.5 114.167,239.5 111.5,239.5C 111.5,242.167 111.5,244.833 111.5,247.5C 110.167,247.5 108.833,247.5 107.5,247.5C 107.5,245.833 107.5,244.167 107.5,242.5C 104.482,242.665 101.482,242.498 98.5,242C 97.7476,241.329 97.4142,240.496 97.5,239.5C 99.5,239.5 101.5,239.5 103.5,239.5C 103.5,236.833 103.5,234.167 103.5,231.5C 102.167,231.5 100.833,231.5 99.5,231.5C 99.5,228.833 99.5,226.167 99.5,223.5C 98.1667,223.5 96.8333,223.5 95.5,223.5C 95.5,226.167 95.5,228.833 95.5,231.5C 93.5,231.5 91.5,231.5 89.5,231.5C 89.5,226.5 89.5,221.5 89.5,216.5C 86.1667,216.5 82.8333,216.5 79.5,216.5C 79.5,217.833 79.5,219.167 79.5,220.5C 76.9645,216.645 75.9645,212.312 76.5,207.5C 77.5,207.5 78.5,207.5 79.5,207.5C 79.5,205.5 79.5,203.5 79.5,201.5C 81.5,201.5 83.5,201.5 85.5,201.5C 86.0352,198.762 85.0352,196.928 82.5,196C 86.8206,195.501 91.1539,195.334 95.5,195.5C 95.5,194.167 95.5,192.833 95.5,191.5C 99.1667,191.5 102.833,191.5 106.5,191.5C 106.5,193.5 106.5,195.5 106.5,197.5C 108.167,197.5 109.833,197.5 111.5,197.5C 111.5,193.5 111.5,189.5 111.5,185.5C 114.833,185.5 118.167,185.5 121.5,185.5C 121.5,187.5 121.5,189.5 121.5,191.5C 123.5,191.5 125.5,191.5 127.5,191.5C 127.5,188.167 127.5,184.833 127.5,181.5C 129.5,181.5 131.5,181.5 133.5,181.5 Z"/></g>
<g><path style="opacity:1" fill="#f5f5f6" d="M 213.5,139.5 C 214.496,154.324 214.829,169.324 214.5,184.5C 228.833,184.5 243.167,184.5 257.5,184.5C 258.167,184.5 258.833,184.5 259.5,184.5C 259.5,209.5 259.5,234.5 259.5,259.5C 242.167,259.5 224.833,259.5 207.5,259.5C 207.5,249.5 207.5,239.5 207.5,229.5C 214.833,229.5 222.167,229.5 229.5,229.5C 229.5,225.5 229.5,221.5 229.5,217.5C 229.5,216.5 229.5,215.5 229.5,214.5C 215.01,213.504 200.343,213.171 185.5,213.5C 185.829,198.657 185.496,183.99 184.5,169.5C 169.5,169.5 154.5,169.5 139.5,169.5C 139.5,159.5 139.5,149.5 139.5,139.5C 164.167,139.5 188.833,139.5 213.5,139.5 Z"/></g>
<g><path style="opacity:1" fill="#50516b" d="M 192.5,169.5 C 192.5,174.167 192.5,178.833 192.5,183.5C 197.167,183.5 201.833,183.5 206.5,183.5C 206.5,178.833 206.5,174.167 206.5,169.5C 207.487,174.305 207.821,179.305 207.5,184.5C 202.167,184.5 196.833,184.5 191.5,184.5C 191.179,179.305 191.513,174.305 192.5,169.5 Z"/></g>
<g><path style="opacity:1" fill="#2b2e4e" d="M 192.5,169.5 C 197.167,169.5 201.833,169.5 206.5,169.5C 206.5,174.167 206.5,178.833 206.5,183.5C 201.833,183.5 197.167,183.5 192.5,183.5C 192.5,178.833 192.5,174.167 192.5,169.5 Z"/></g>
<g><path style="opacity:1" fill="#787b91" d="M 192.5,146.5 C 192.5,151.5 192.5,156.5 192.5,161.5C 197.167,161.5 201.833,161.5 206.5,161.5C 206.5,156.5 206.5,151.5 206.5,146.5C 207.488,151.64 207.821,156.974 207.5,162.5C 202.167,162.5 196.833,162.5 191.5,162.5C 191.179,156.974 191.512,151.64 192.5,146.5 Z"/></g>
<g><path style="opacity:1" fill="#292f4a" d="M 169.5,146.5 C 174.5,146.5 179.5,146.5 184.5,146.5C 184.5,151.5 184.5,156.5 184.5,161.5C 179.5,161.5 174.5,161.5 169.5,161.5C 169.5,156.5 169.5,151.5 169.5,146.5 Z"/></g>
<g><path style="opacity:1" fill="#273149" d="M 146.5,146.5 C 151.5,146.5 156.5,146.5 161.5,146.5C 161.5,151.5 161.5,156.5 161.5,161.5C 156.5,161.5 151.5,161.5 146.5,161.5C 146.5,156.5 146.5,151.5 146.5,146.5 Z"/></g>
<g><path style="opacity:1" fill="#2a2e4b" d="M 192.5,146.5 C 197.167,146.5 201.833,146.5 206.5,146.5C 206.5,151.5 206.5,156.5 206.5,161.5C 201.833,161.5 197.167,161.5 192.5,161.5C 192.5,156.5 192.5,151.5 192.5,146.5 Z"/></g>
<g><path style="opacity:1" fill="#656483" d="M 191.5,191.5 C 196.833,191.5 202.167,191.5 207.5,191.5C 207.5,196.833 207.5,202.167 207.5,207.5C 202.167,207.5 196.833,207.5 191.5,207.5C 191.5,202.167 191.5,196.833 191.5,191.5 Z"/></g>
<g><path style="opacity:1" fill="#2f2d52" d="M 192.5,192.5 C 197.167,192.5 201.833,192.5 206.5,192.5C 206.5,197.167 206.5,201.833 206.5,206.5C 201.833,206.5 197.167,206.5 192.5,206.5C 192.5,201.833 192.5,197.167 192.5,192.5 Z"/></g>
<g><path style="opacity:1" fill="#312e56" d="M 229.5,192.5 C 229.5,197.167 229.5,201.833 229.5,206.5C 224.833,206.5 220.167,206.5 215.5,206.5C 215.5,201.833 215.5,197.167 215.5,192.5C 220.167,192.5 224.833,192.5 229.5,192.5 Z"/></g>
<g><path style="opacity:1" fill="#545270" d="M 229.5,192.5 C 224.833,192.5 220.167,192.5 215.5,192.5C 215.5,197.167 215.5,201.833 215.5,206.5C 220.167,206.5 224.833,206.5 229.5,206.5C 224.695,207.487 219.695,207.821 214.5,207.5C 214.5,202.167 214.5,196.833 214.5,191.5C 219.695,191.179 224.695,191.513 229.5,192.5 Z"/></g>
<g><path style="opacity:1" fill="#1a223a" d="M 63.5,207.5 C 63.8333,207.5 64.1667,207.5 64.5,207.5C 64.7771,210.448 64.4438,213.281 63.5,216C 65.8448,218.202 68.5114,219.702 71.5,220.5C 71.5,221.5 71.5,222.5 71.5,223.5C 66.5,223.5 61.5,223.5 56.5,223.5C 56.2623,226.408 57.2623,228.742 59.5,230.5C 58.675,231.386 57.675,231.719 56.5,231.5C 56.5,234.167 56.5,236.833 56.5,239.5C 58.8333,239.5 61.1667,239.5 63.5,239.5C 63.5,244.833 63.5,250.167 63.5,255.5C 61.8333,255.5 60.1667,255.5 58.5,255.5C 58.5,252.833 58.5,250.167 58.5,247.5C 55.8333,248.833 53.1667,248.833 50.5,247.5C 50.5,244.833 50.5,242.167 50.5,239.5C 49.5,239.5 48.5,239.5 47.5,239.5C 47.5,241.833 47.5,244.167 47.5,246.5C 46.5,246.5 45.5,246.5 44.5,246.5C 44.5,244.167 44.5,241.833 44.5,239.5C 40.0018,237.838 35.8351,235.505 32,232.5C 31.51,233.793 31.3433,235.127 31.5,236.5C 28.9066,235.246 26.5732,233.58 24.5,231.5C 23.8333,232.167 23.1667,232.833 22.5,233.5C 19.7877,231.74 16.7877,231.073 13.5,231.5C 13.5,228.833 13.5,226.167 13.5,223.5C 10.7531,223.813 8.08645,223.48 5.5,222.5C 5.13727,221.817 4.80393,221.15 4.5,220.5C 8.18174,220.665 11.8484,220.499 15.5,220C 12.0445,219.82 8.71114,219.153 5.5,218C 3.60607,216.899 2.9394,215.566 3.5,214C 9.15688,213.501 14.8236,213.334 20.5,213.5C 20.5,211.5 20.5,209.5 20.5,207.5C 24.1817,207.665 27.8484,207.499 31.5,207C 28.854,206.503 26.1873,206.336 23.5,206.5C 23.5,205.5 23.5,204.5 23.5,203.5C 20.8333,203.5 18.1667,203.5 15.5,203.5C 15.5,202.167 15.5,200.833 15.5,199.5C 18.1667,199.5 20.8333,199.5 23.5,199.5C 23.5,200.5 23.5,201.5 23.5,202.5C 28.8333,203.167 34.1667,203.833 39.5,204.5C 38.871,206.465 38.2043,208.465 37.5,210.5C 37.8333,211.5 38.1667,212.5 38.5,213.5C 41.4212,212.593 44.4212,212.26 47.5,212.5C 47.5,210.833 47.5,209.167 47.5,207.5C 52.8333,207.5 58.1667,207.5 63.5,207.5 Z"/></g>
<g><path style="opacity:1" fill="#362d60" d="M 271.5,191.5 C 271.5,194.833 271.5,198.167 271.5,201.5C 276.833,200.833 282.167,200.167 287.5,199.5C 287.5,200.833 287.5,202.167 287.5,203.5C 300.833,203.5 314.167,203.5 327.5,203.5C 327.5,204.833 327.5,206.167 327.5,207.5C 329.635,209.369 332.302,210.036 335.5,209.5C 337.83,212.404 339.496,215.404 340.5,218.5C 342.426,219.061 344.426,219.227 346.5,219C 347.984,220.574 349.651,221.907 351.5,223C 335.503,223.5 319.503,223.667 303.5,223.5C 303.5,224.833 303.5,226.167 303.5,227.5C 298.167,227.5 292.833,227.5 287.5,227.5C 287.5,226.167 287.5,224.833 287.5,223.5C 282.167,223.5 276.833,223.5 271.5,223.5C 271.821,217.974 271.488,212.64 270.5,207.5C 270.179,201.974 270.512,196.64 271.5,191.5 Z"/></g>
<g><path style="opacity:1" fill="#64617f" d="M 236.5,191.5 C 241.833,191.5 247.167,191.5 252.5,191.5C 252.5,196.833 252.5,202.167 252.5,207.5C 247.167,207.5 241.833,207.5 236.5,207.5C 236.5,202.167 236.5,196.833 236.5,191.5 Z"/></g>
<g><path style="opacity:1" fill="#332d59" d="M 237.5,192.5 C 242.167,192.5 246.833,192.5 251.5,192.5C 251.5,197.167 251.5,201.833 251.5,206.5C 246.833,206.5 242.167,206.5 237.5,206.5C 237.5,201.833 237.5,197.167 237.5,192.5 Z"/></g>
<g><path style="opacity:1" fill="#27284c" d="M 160.5,216.5 C 159.457,224.175 159.457,231.842 160.5,239.5C 161.36,241.931 163.027,243.264 165.5,243.5C 165.5,245.167 165.5,246.833 165.5,248.5C 164.883,248.389 164.383,248.056 164,247.5C 163.3,249.032 162.134,250.032 160.5,250.5C 157.682,249.217 154.848,249.217 152,250.5C 150.743,250.85 150.409,251.517 151,252.5C 152.205,253.071 153.372,253.738 154.5,254.5C 153.5,254.833 152.5,255.167 151.5,255.5C 148.933,254.336 146.266,253.67 143.5,253.5C 143.908,259.535 144.574,265.535 145.5,271.5C 143.711,276.407 142.878,281.74 143,287.5C 142.501,282.177 142.334,276.844 142.5,271.5C 141.167,271.5 139.833,271.5 138.5,271.5C 138.5,269.5 138.5,267.5 138.5,265.5C 135.068,265.243 131.734,264.576 128.5,263.5C 128.664,266.187 128.497,268.854 128,271.5C 127.501,266.177 127.334,260.844 127.5,255.5C 123.5,255.5 119.5,255.5 115.5,255.5C 115.5,260.833 115.5,266.167 115.5,271.5C 114.167,271.5 112.833,271.5 111.5,271.5C 111.5,276.833 111.5,282.167 111.5,287.5C 112.5,287.5 113.5,287.5 114.5,287.5C 114.5,290.167 114.5,292.833 114.5,295.5C 115.833,295.5 117.167,295.5 118.5,295.5C 118.5,298.167 118.5,300.833 118.5,303.5C 116.5,303.5 114.5,303.5 112.5,303.5C 112.5,300.833 112.5,298.167 112.5,295.5C 111.167,295.5 109.833,295.5 108.5,295.5C 108.5,292.833 108.5,290.167 108.5,287.5C 106.833,287.5 105.167,287.5 103.5,287.5C 103.5,279.5 103.5,271.5 103.5,263.5C 101.833,263.5 100.167,263.5 98.5,263.5C 98.1934,257.907 98.5268,252.407 99.5,247C 96.5211,245.388 95.1878,242.888 95.5,239.5C 96.1667,239.5 96.8333,239.5 97.5,239.5C 97.4142,240.496 97.7476,241.329 98.5,242C 101.482,242.498 104.482,242.665 107.5,242.5C 107.5,244.167 107.5,245.833 107.5,247.5C 108.833,247.5 110.167,247.5 111.5,247.5C 111.5,244.833 111.5,242.167 111.5,239.5C 114.167,239.5 116.833,239.5 119.5,239.5C 119.833,234.167 120.167,228.833 120.5,223.5C 121.5,223.5 122.5,223.5 123.5,223.5C 123.5,218.167 123.5,212.833 123.5,207.5C 129.5,207.5 135.5,207.5 141.5,207.5C 143.167,207.5 144.833,207.5 146.5,207.5C 146.5,212.833 146.5,218.167 146.5,223.5C 147.833,223.5 149.167,223.5 150.5,223.5C 150.172,218.125 150.505,212.792 151.5,207.5C 152.973,203.687 155.64,201.353 159.5,200.5C 159.179,206.026 159.512,211.36 160.5,216.5 Z"/></g>
<g><path style="opacity:1" fill="#1e2240" d="M 64.5,207.5 C 66.5,207.5 68.5,207.5 70.5,207.5C 70.7771,210.448 70.4438,213.281 69.5,216C 70.7702,216.9 71.7702,218.066 72.5,219.5C 73.4776,219.023 74.3109,218.357 75,217.5C 76.4229,219.345 77.5896,221.345 78.5,223.5C 79.3857,222.675 79.719,221.675 79.5,220.5C 79.5,219.167 79.5,217.833 79.5,216.5C 82.8333,216.5 86.1667,216.5 89.5,216.5C 89.5,221.5 89.5,226.5 89.5,231.5C 91.5,231.5 93.5,231.5 95.5,231.5C 95.5,228.833 95.5,226.167 95.5,223.5C 96.8333,223.5 98.1667,223.5 99.5,223.5C 99.5,226.167 99.5,228.833 99.5,231.5C 100.833,231.5 102.167,231.5 103.5,231.5C 103.5,234.167 103.5,236.833 103.5,239.5C 101.5,239.5 99.5,239.5 97.5,239.5C 96.8333,239.5 96.1667,239.5 95.5,239.5C 91.8333,239.5 88.1667,239.5 84.5,239.5C 84.7771,242.448 84.4438,245.281 83.5,248C 85.6926,251.324 87.026,251.157 87.5,247.5C 89.1667,247.5 90.8333,247.5 92.5,247.5C 92.5,250.167 92.5,252.833 92.5,255.5C 88.1667,255.5 83.8333,255.5 79.5,255.5C 79.5,257.833 79.5,260.167 79.5,262.5C 82.1873,262.336 84.854,262.503 87.5,263C 86.2068,263.49 84.8734,263.657 83.5,263.5C 83.5,266.167 83.5,268.833 83.5,271.5C 85.5,271.5 87.5,271.5 89.5,271.5C 89.5,273.5 89.5,275.5 89.5,277.5C 86.8333,277.5 84.1667,277.5 81.5,277.5C 81.5,275.5 81.5,273.5 81.5,271.5C 79.8333,271.5 78.1667,271.5 76.5,271.5C 78.7411,265.497 77.2411,261.163 72,258.5C 71.6924,259.308 71.1924,259.975 70.5,260.5C 68.4902,258.829 66.1569,258.162 63.5,258.5C 63.5,257.5 63.5,256.5 63.5,255.5C 63.5,250.167 63.5,244.833 63.5,239.5C 61.1667,239.5 58.8333,239.5 56.5,239.5C 56.5,236.833 56.5,234.167 56.5,231.5C 57.675,231.719 58.675,231.386 59.5,230.5C 57.2623,228.742 56.2623,226.408 56.5,223.5C 61.5,223.5 66.5,223.5 71.5,223.5C 71.5,222.5 71.5,221.5 71.5,220.5C 68.5114,219.702 65.8448,218.202 63.5,216C 64.4438,213.281 64.7771,210.448 64.5,207.5 Z"/></g>
<g><path style="opacity:1" fill="#2f2e54" d="M 178.5,175.5 C 179.833,175.5 181.167,175.5 182.5,175.5C 182.709,188.678 183.376,201.678 184.5,214.5C 199.5,214.5 214.5,214.5 229.5,214.5C 229.5,215.5 229.5,216.5 229.5,217.5C 216.913,216.52 204.246,216.187 191.5,216.5C 191.5,218.833 191.5,221.167 191.5,223.5C 193.167,223.5 194.833,223.5 196.5,223.5C 196.817,227.172 195.151,228.838 191.5,228.5C 191.5,232.167 191.5,235.833 191.5,239.5C 195.007,238.994 198.174,239.66 201,241.5C 202.016,244.626 201.183,246.959 198.5,248.5C 198.5,246.167 198.5,243.833 198.5,241.5C 195.941,241.198 193.607,241.532 191.5,242.5C 190.5,242.5 189.5,242.5 188.5,242.5C 188.346,244.97 187.346,246.97 185.5,248.5C 185.5,246.167 185.5,243.833 185.5,241.5C 183.167,241.5 180.833,241.5 178.5,241.5C 178.5,243.833 178.5,246.167 178.5,248.5C 180.5,248.5 182.5,248.5 184.5,248.5C 184.5,248.833 184.5,249.167 184.5,249.5C 182.641,249.461 181.308,250.294 180.5,252C 188.657,255.045 188.324,256.045 179.5,255C 178.236,252.992 176.403,251.825 174,251.5C 171.764,252.761 169.93,253.761 168.5,254.5C 166.621,254.607 166.288,254.107 167.5,253C 166.418,251.67 165.751,250.17 165.5,248.5C 168.167,248.5 170.833,248.5 173.5,248.5C 173.802,245.941 173.468,243.607 172.5,241.5C 170.5,241.5 168.5,241.5 166.5,241.5C 165.662,241.842 165.328,242.508 165.5,243.5C 163.027,243.264 161.36,241.931 160.5,239.5C 159.457,231.842 159.457,224.175 160.5,216.5C 160.5,213.5 160.5,210.5 160.5,207.5C 166.167,207.5 171.833,207.5 177.5,207.5C 177.833,196.833 178.167,186.167 178.5,175.5 Z"/></g>
<g><path style="opacity:1" fill="#372a60" d="M 327.5,207.5 C 334.2,207.17 340.866,207.503 347.5,208.5C 348.09,209.799 349.09,210.632 350.5,211C 353.833,211.333 357.167,211.667 360.5,212C 364.463,214.654 368.463,217.32 372.5,220C 375.167,220.333 377.833,220.667 380.5,221C 380.957,221.414 381.291,221.914 381.5,222.5C 379.74,225.212 379.073,228.212 379.5,231.5C 380.833,231.5 382.167,231.5 383.5,231.5C 382.888,227.124 384.054,226.457 387,229.5C 387.498,232.817 387.665,236.15 387.5,239.5C 389.527,239.338 391.527,239.505 393.5,240C 395.095,242.102 397.095,243.602 399.5,244.5C 399.5,264.167 399.5,283.833 399.5,303.5C 397.833,303.5 396.167,303.5 394.5,303.5C 394.5,306.167 394.5,308.833 394.5,311.5C 393.5,311.5 392.5,311.5 391.5,311.5C 391.806,308.615 391.473,305.948 390.5,303.5C 389.833,292.833 389.167,282.167 388.5,271.5C 387.167,271.5 385.833,271.5 384.5,271.5C 384.821,265.974 384.488,260.64 383.5,255.5C 381.342,253.007 378.676,251.34 375.5,250.5C 375.5,249.5 375.5,248.5 375.5,247.5C 367.517,246.834 359.517,246.501 351.5,246.5C 351.5,244.167 351.5,241.833 351.5,239.5C 346.167,239.5 340.833,239.5 335.5,239.5C 335.5,238.167 335.5,236.833 335.5,235.5C 330.167,235.5 324.833,235.5 319.5,235.5C 319.5,234.167 319.5,232.833 319.5,231.5C 330.167,231.167 330.167,230.833 319.5,230.5C 319.5,229.5 319.5,228.5 319.5,227.5C 314.167,227.5 308.833,227.5 303.5,227.5C 303.5,226.167 303.5,224.833 303.5,223.5C 319.503,223.667 335.503,223.5 351.5,223C 349.651,221.907 347.984,220.574 346.5,219C 344.426,219.227 342.426,219.061 340.5,218.5C 339.496,215.404 337.83,212.404 335.5,209.5C 332.302,210.036 329.635,209.369 327.5,207.5 Z"/></g>
<g><path style="opacity:1" fill="#c3c2d1" d="M 184.5,169.5 C 185.496,183.99 185.829,198.657 185.5,213.5C 200.343,213.171 215.01,213.504 229.5,214.5C 214.5,214.5 199.5,214.5 184.5,214.5C 184.5,199.5 184.5,184.5 184.5,169.5 Z"/></g>
<g><path style="opacity:1" fill="#362f5c" d="M 229.5,217.5 C 229.5,221.5 229.5,225.5 229.5,229.5C 222.167,229.5 214.833,229.5 207.5,229.5C 207.5,239.5 207.5,249.5 207.5,259.5C 206.673,254.349 206.173,249.016 206,243.5C 205.311,242.643 204.478,241.977 203.5,241.5C 202.52,244.086 202.187,246.753 202.5,249.5C 198.949,250.61 195.449,250.61 192,249.5C 191.195,254.529 189.695,254.696 187.5,250C 186.552,249.517 185.552,249.351 184.5,249.5C 184.5,249.167 184.5,248.833 184.5,248.5C 184.833,248.5 185.167,248.5 185.5,248.5C 187.346,246.97 188.346,244.97 188.5,242.5C 189.5,242.5 190.5,242.5 191.5,242.5C 191.5,244.5 191.5,246.5 191.5,248.5C 193.833,248.5 196.167,248.5 198.5,248.5C 201.183,246.959 202.016,244.626 201,241.5C 198.174,239.66 195.007,238.994 191.5,239.5C 191.5,235.833 191.5,232.167 191.5,228.5C 195.151,228.838 196.817,227.172 196.5,223.5C 194.833,223.5 193.167,223.5 191.5,223.5C 191.5,221.167 191.5,218.833 191.5,216.5C 204.246,216.187 216.913,216.52 229.5,217.5 Z"/></g>
<g><path style="opacity:1" fill="#38315b" d="M 252.5,214.5 C 252.5,219.5 252.5,224.5 252.5,229.5C 247.5,229.5 242.5,229.5 237.5,229.5C 237.5,224.5 237.5,219.5 237.5,214.5C 242.5,214.5 247.5,214.5 252.5,214.5 Z"/></g>
<g><path style="opacity:1" fill="#d1cfdf" d="M 252.5,214.5 C 253.488,219.64 253.821,224.974 253.5,230.5C 247.974,230.821 242.64,230.488 237.5,229.5C 242.5,229.5 247.5,229.5 252.5,229.5C 252.5,224.5 252.5,219.5 252.5,214.5 Z"/></g>
<g><path style="opacity:1" fill="#161b34" d="M -0.5,218.5 C 1.16667,219.167 2.83333,219.833 4.5,220.5C 4.80393,221.15 5.13727,221.817 5.5,222.5C 8.08645,223.48 10.7531,223.813 13.5,223.5C 13.5,226.167 13.5,228.833 13.5,231.5C 16.7877,231.073 19.7877,231.74 22.5,233.5C 23.1667,232.833 23.8333,232.167 24.5,231.5C 26.5732,233.58 28.9066,235.246 31.5,236.5C 33.7535,238.534 36.4202,239.534 39.5,239.5C 39.4778,243.593 38.8112,247.593 37.5,251.5C 37.8333,252.833 38.1667,254.167 38.5,255.5C 39.1667,253.833 39.8333,252.167 40.5,250.5C 44.6312,251.63 46.2979,254.297 45.5,258.5C 43.5,258.5 41.5,258.5 39.5,258.5C 39.5,260.167 39.5,261.833 39.5,263.5C 40.4194,264.896 37.7527,265.23 31.5,264.5C 31.423,267.509 32.7563,269.676 35.5,271C 34.2068,271.49 32.8734,271.657 31.5,271.5C 31.5,272.5 31.5,273.5 31.5,274.5C 34.4886,275.298 37.1552,276.798 39.5,279C 37.8333,279.333 36.1667,279.667 34.5,280C 36.3968,283.289 39.0635,284.289 42.5,283C 43.9842,284.574 45.6508,285.907 47.5,287C 47.2716,287.399 46.9382,287.565 46.5,287.5C 44.8333,287.5 43.1667,287.5 41.5,287.5C 40.0473,287.071 38.3806,286.904 36.5,287C 33.7198,284.436 30.7198,282.103 27.5,280C 29.3213,277.544 29.988,274.711 29.5,271.5C 24.8333,271.5 20.1667,271.5 15.5,271.5C 15.5,269.833 15.5,268.167 15.5,266.5C 12.8127,266.664 10.146,266.497 7.5,266C 6.09971,264.562 4.43304,263.729 2.5,263.5C 2.5,260.833 2.5,258.167 2.5,255.5C 1.5,255.5 0.5,255.5 -0.5,255.5C -0.5,243.167 -0.5,230.833 -0.5,218.5 Z"/></g>
<g><path style="opacity:1" fill="#3a2d67" d="M 270.5,207.5 C 271.488,212.64 271.821,217.974 271.5,223.5C 276.833,223.5 282.167,223.5 287.5,223.5C 287.5,224.833 287.5,226.167 287.5,227.5C 292.833,227.5 298.167,227.5 303.5,227.5C 308.833,227.5 314.167,227.5 319.5,227.5C 319.5,228.5 319.5,229.5 319.5,230.5C 330.167,230.833 330.167,231.167 319.5,231.5C 319.5,232.833 319.5,234.167 319.5,235.5C 324.833,235.5 330.167,235.5 335.5,235.5C 335.5,236.833 335.5,238.167 335.5,239.5C 340.833,239.5 346.167,239.5 351.5,239.5C 351.5,241.833 351.5,244.167 351.5,246.5C 359.517,246.501 367.517,246.834 375.5,247.5C 375.5,248.5 375.5,249.5 375.5,250.5C 378.676,251.34 381.342,253.007 383.5,255.5C 383.5,260.833 383.5,266.167 383.5,271.5C 381.833,271.5 380.167,271.5 378.5,271.5C 378.5,287.5 378.5,303.5 378.5,319.5C 374.833,319.5 371.167,319.5 367.5,319.5C 367.5,316.833 367.5,314.167 367.5,311.5C 366.167,311.5 364.833,311.5 363.5,311.5C 363.5,316.833 363.5,322.167 363.5,327.5C 362.167,327.5 360.833,327.5 359.5,327.5C 359.5,332.833 359.5,338.167 359.5,343.5C 356.833,343.5 354.167,343.5 351.5,343.5C 351.5,342.167 351.5,340.833 351.5,339.5C 351.5,332.833 351.5,326.167 351.5,319.5C 354.167,319.5 356.833,319.5 359.5,319.5C 359.5,316.833 359.5,314.167 359.5,311.5C 358.5,311.5 357.5,311.5 356.5,311.5C 356.5,306.167 356.5,300.833 356.5,295.5C 355.5,295.5 354.5,295.5 353.5,295.5C 353.5,292.833 353.5,290.167 353.5,287.5C 351.833,287.5 350.167,287.5 348.5,287.5C 348.5,282.167 348.5,276.833 348.5,271.5C 342.73,271.741 337.063,271.074 331.5,269.5C 327.916,270.716 324.249,271.383 320.5,271.5C 320.664,268.813 320.497,266.146 320,263.5C 319.517,264.448 319.351,265.448 319.5,266.5C 308.833,266.5 298.167,266.5 287.5,266.5C 287.5,268.167 287.5,269.833 287.5,271.5C 285.833,271.5 284.167,271.5 282.5,271.5C 282.5,274.167 282.5,276.833 282.5,279.5C 279.019,280.491 275.853,282.158 273,284.5C 269.895,283.633 266.728,283.299 263.5,283.5C 263.167,278.167 262.833,278.167 262.5,283.5C 260.167,283.5 257.833,283.5 255.5,283.5C 255.5,284.833 255.5,286.167 255.5,287.5C 257.833,287.5 260.167,287.5 262.5,287.5C 262.833,292.833 263.167,298.167 263.5,303.5C 256.5,303.5 249.5,303.5 242.5,303.5C 242.5,306.167 242.5,308.833 242.5,311.5C 244.167,311.5 245.833,311.5 247.5,311.5C 247.5,313.167 247.5,314.833 247.5,316.5C 250.167,316.5 252.833,316.5 255.5,316.5C 254.047,319.986 253.381,323.653 253.5,327.5C 257.833,327.5 262.167,327.5 266.5,327.5C 266.5,330.167 266.5,332.833 266.5,335.5C 267.5,335.5 268.5,335.5 269.5,335.5C 270.167,346.167 270.833,346.167 271.5,335.5C 272.5,335.5 273.5,335.5 274.5,335.5C 274.5,338.167 274.5,340.833 274.5,343.5C 278.833,343.5 283.167,343.5 287.5,343.5C 287.5,346.167 287.5,348.833 287.5,351.5C 282.167,351.5 276.833,351.5 271.5,351.5C 268.833,351.5 266.167,351.5 263.5,351.5C 263.5,348.833 263.5,346.167 263.5,343.5C 259.5,343.5 255.5,343.5 251.5,343.5C 251.5,340.833 251.5,338.167 251.5,335.5C 250.167,335.5 248.833,335.5 247.5,335.5C 247.5,331.5 247.5,327.5 247.5,323.5C 244.833,323.5 242.167,323.5 239.5,323.5C 239.5,324.833 239.5,326.167 239.5,327.5C 237.5,327.5 235.5,327.5 233.5,327.5C 233.5,324.833 233.5,322.167 233.5,319.5C 231.833,319.5 230.167,319.5 228.5,319.5C 228.5,316.833 228.5,314.167 228.5,311.5C 229.5,311.5 230.5,311.5 231.5,311.5C 231.5,308.833 231.5,306.167 231.5,303.5C 228.833,303.5 226.167,303.5 223.5,303.5C 223.5,308.833 223.5,314.167 223.5,319.5C 223.5,322.167 223.5,324.833 223.5,327.5C 222.512,322.36 222.179,317.026 222.5,311.5C 219.413,311.543 216.413,311.71 213.5,312C 214.444,309.281 214.777,306.448 214.5,303.5C 214.5,298.167 214.5,292.833 214.5,287.5C 217.5,287.5 220.5,287.5 223.5,287.5C 223.5,282.167 223.5,276.833 223.5,271.5C 218.156,271.666 212.823,271.499 207.5,271C 250.095,269.357 250.095,267.691 207.5,266C 215.5,265.5 223.5,265 231.5,264.5C 239.488,265.166 247.488,265.499 255.5,265.5C 255.5,264.5 255.5,263.5 255.5,262.5C 249.729,263.113 244.396,262.446 239.5,260.5C 246.77,260.742 253.937,260.742 261,260.5C 260.238,242.856 260.404,225.19 261.5,207.5C 262.167,223.526 263.167,239.526 264.5,255.5C 264.723,234.193 264.723,212.86 264.5,191.5C 265.5,191.5 266.5,191.5 267.5,191.5C 267.167,207.514 267.501,223.514 268.5,239.5C 269.167,228.674 269.833,218.008 270.5,207.5 Z"/></g>
<g><path style="opacity:1" fill="#1c1d3c" d="M 63.5,255.5 C 63.5,256.5 63.5,257.5 63.5,258.5C 66.1569,258.162 68.4902,258.829 70.5,260.5C 71.1924,259.975 71.6924,259.308 72,258.5C 77.2411,261.163 78.7411,265.497 76.5,271.5C 78.1667,271.5 79.8333,271.5 81.5,271.5C 81.5,273.5 81.5,275.5 81.5,277.5C 84.1667,277.5 86.8333,277.5 89.5,277.5C 89.5,275.5 89.5,273.5 89.5,271.5C 87.5,271.5 85.5,271.5 83.5,271.5C 83.5,268.833 83.5,266.167 83.5,263.5C 84.8734,263.657 86.2068,263.49 87.5,263C 84.854,262.503 82.1873,262.336 79.5,262.5C 79.5,260.167 79.5,257.833 79.5,255.5C 83.8333,255.5 88.1667,255.5 92.5,255.5C 92.5,252.833 92.5,250.167 92.5,247.5C 90.8333,247.5 89.1667,247.5 87.5,247.5C 87.026,251.157 85.6926,251.324 83.5,248C 84.4438,245.281 84.7771,242.448 84.5,239.5C 88.1667,239.5 91.8333,239.5 95.5,239.5C 95.1878,242.888 96.5211,245.388 99.5,247C 98.5268,252.407 98.1934,257.907 98.5,263.5C 100.167,263.5 101.833,263.5 103.5,263.5C 103.5,271.5 103.5,279.5 103.5,287.5C 100.833,287.5 98.1667,287.5 95.5,287.5C 95.7989,289.604 95.4656,291.604 94.5,293.5C 92.5,292.167 90.5,290.833 88.5,289.5C 87.5713,290.689 87.238,292.022 87.5,293.5C 84.8333,293.5 82.1667,293.5 79.5,293.5C 79.7733,295.451 79.1066,296.951 77.5,298C 78.8333,298.667 80.1667,299.333 81.5,300C 79.5445,308.901 78.8778,318.068 79.5,327.5C 79.7852,329.288 79.4519,330.955 78.5,332.5C 72.7928,330.052 70.4595,325.718 71.5,319.5C 70.5,319.5 69.5,319.5 68.5,319.5C 68.5,316.833 68.5,314.167 68.5,311.5C 66.8333,311.5 65.1667,311.5 63.5,311.5C 63.5,308.833 63.5,306.167 63.5,303.5C 62.1667,303.5 60.8333,303.5 59.5,303.5C 58.2673,300.427 56.7673,300.094 55,302.5C 52.8149,300.46 50.3149,299.126 47.5,298.5C 46.7564,294.881 46.423,291.215 46.5,287.5C 46.9382,287.565 47.2716,287.399 47.5,287C 45.6508,285.907 43.9842,284.574 42.5,283C 39.0635,284.289 36.3968,283.289 34.5,280C 36.1667,279.667 37.8333,279.333 39.5,279C 37.1552,276.798 34.4886,275.298 31.5,274.5C 31.5,273.5 31.5,272.5 31.5,271.5C 32.8734,271.657 34.2068,271.49 35.5,271C 32.7563,269.676 31.423,267.509 31.5,264.5C 37.7527,265.23 40.4194,264.896 39.5,263.5C 39.5,261.833 39.5,260.167 39.5,258.5C 41.5,258.5 43.5,258.5 45.5,258.5C 46.2979,254.297 44.6312,251.63 40.5,250.5C 39.8333,252.167 39.1667,253.833 38.5,255.5C 38.1667,254.167 37.8333,252.833 37.5,251.5C 38.8112,247.593 39.4778,243.593 39.5,239.5C 36.4202,239.534 33.7535,238.534 31.5,236.5C 31.3433,235.127 31.51,233.793 32,232.5C 35.8351,235.505 40.0018,237.838 44.5,239.5C 44.5,241.833 44.5,244.167 44.5,246.5C 45.5,246.5 46.5,246.5 47.5,246.5C 47.5,244.167 47.5,241.833 47.5,239.5C 48.5,239.5 49.5,239.5 50.5,239.5C 50.5,242.167 50.5,244.833 50.5,247.5C 53.1667,248.833 55.8333,248.833 58.5,247.5C 58.5,250.167 58.5,252.833 58.5,255.5C 60.1667,255.5 61.8333,255.5 63.5,255.5 Z"/></g>
<g><path style="opacity:1" fill="#39325d" d="M 214.5,237.5 C 219.5,237.5 224.5,237.5 229.5,237.5C 229.5,242.5 229.5,247.5 229.5,252.5C 224.5,252.5 219.5,252.5 214.5,252.5C 214.5,247.5 214.5,242.5 214.5,237.5 Z"/></g>
<g><path style="opacity:1" fill="#9894ae" d="M 252.5,237.5 C 247.5,237.5 242.5,237.5 237.5,237.5C 237.5,242.5 237.5,247.5 237.5,252.5C 236.512,247.36 236.179,242.026 236.5,236.5C 242.026,236.179 247.36,236.512 252.5,237.5 Z"/></g>
<g><path style="opacity:1" fill="#393160" d="M 252.5,237.5 C 252.5,242.5 252.5,247.5 252.5,252.5C 247.5,252.5 242.5,252.5 237.5,252.5C 237.5,247.5 237.5,242.5 237.5,237.5C 242.5,237.5 247.5,237.5 252.5,237.5 Z"/></g>
<g><path style="opacity:1" fill="#e8e8f5" d="M 153.5,241.5 C 155.833,241.5 158.167,241.5 160.5,241.5C 160.5,243.833 160.5,246.167 160.5,248.5C 158.167,248.5 155.833,248.5 153.5,248.5C 153.5,246.167 153.5,243.833 153.5,241.5 Z"/></g>
<g><path style="opacity:1" fill="#eeecf7" d="M 198.5,248.5 C 196.167,248.5 193.833,248.5 191.5,248.5C 191.5,246.5 191.5,244.5 191.5,242.5C 193.607,241.532 195.941,241.198 198.5,241.5C 198.5,243.833 198.5,246.167 198.5,248.5 Z"/></g>
<g><path style="opacity:1" fill="#f0f0f4" d="M 185.5,248.5 C 185.167,248.5 184.833,248.5 184.5,248.5C 182.5,248.5 180.5,248.5 178.5,248.5C 178.5,246.167 178.5,243.833 178.5,241.5C 180.833,241.5 183.167,241.5 185.5,241.5C 185.5,243.833 185.5,246.167 185.5,248.5 Z"/></g>
<g><path style="opacity:1" fill="#b0aec3" d="M 166.5,241.5 C 166.5,243.5 166.5,245.5 166.5,247.5C 168.5,247.5 170.5,247.5 172.5,247.5C 172.5,245.5 172.5,243.5 172.5,241.5C 173.468,243.607 173.802,245.941 173.5,248.5C 170.833,248.5 168.167,248.5 165.5,248.5C 165.5,246.833 165.5,245.167 165.5,243.5C 165.328,242.508 165.662,241.842 166.5,241.5 Z"/></g>
<g><path style="opacity:1" fill="#fafbfd" d="M 166.5,241.5 C 168.5,241.5 170.5,241.5 172.5,241.5C 172.5,243.5 172.5,245.5 172.5,247.5C 170.5,247.5 168.5,247.5 166.5,247.5C 166.5,245.5 166.5,243.5 166.5,241.5 Z"/></g>
<g><path style="opacity:1" fill="#2d2754" d="M 165.5,248.5 C 165.751,250.17 166.418,251.67 167.5,253C 166.288,254.107 166.621,254.607 168.5,254.5C 167.264,260.057 166.597,265.723 166.5,271.5C 167.833,271.5 169.167,271.5 170.5,271.5C 170.5,276.833 170.5,282.167 170.5,287.5C 167.833,287.5 165.167,287.5 162.5,287.5C 162.821,293.026 162.488,298.36 161.5,303.5C 157.5,303.5 153.5,303.5 149.5,303.5C 149.167,298.167 148.833,292.833 148.5,287.5C 147.5,287.5 146.5,287.5 145.5,287.5C 145.5,282.167 145.5,276.833 145.5,271.5C 144.574,265.535 143.908,259.535 143.5,253.5C 146.266,253.67 148.933,254.336 151.5,255.5C 152.5,255.167 153.5,254.833 154.5,254.5C 153.372,253.738 152.205,253.071 151,252.5C 150.409,251.517 150.743,250.85 152,250.5C 154.848,249.217 157.682,249.217 160.5,250.5C 162.134,250.032 163.3,249.032 164,247.5C 164.383,248.056 164.883,248.389 165.5,248.5 Z"/></g>
<g><path style="opacity:1" fill="#32295b" d="M 207.5,259.5 C 217.987,260.494 228.654,260.828 239.5,260.5C 244.396,262.446 249.729,263.113 255.5,262.5C 255.5,263.5 255.5,264.5 255.5,265.5C 247.488,265.499 239.488,265.166 231.5,264.5C 223.5,265 215.5,265.5 207.5,266C 250.095,267.691 250.095,269.357 207.5,271C 212.823,271.499 218.156,271.666 223.5,271.5C 223.5,276.833 223.5,282.167 223.5,287.5C 220.5,287.5 217.5,287.5 214.5,287.5C 214.5,292.833 214.5,298.167 214.5,303.5C 212.167,303.5 209.833,303.5 207.5,303.5C 207.5,298.167 207.5,292.833 207.5,287.5C 201.5,287.5 195.5,287.5 189.5,287.5C 189.5,282.167 189.5,276.833 189.5,271.5C 188.167,271.5 186.833,271.5 185.5,271.5C 185.509,279.568 186.176,287.568 187.5,295.5C 186.167,295.5 184.833,295.5 183.5,295.5C 183.5,298.167 183.5,300.833 183.5,303.5C 186.167,303.5 188.833,303.5 191.5,303.5C 191.5,306.167 191.5,308.833 191.5,311.5C 192.833,311.5 194.167,311.5 195.5,311.5C 194.176,319.432 193.509,327.432 193.5,335.5C 194.5,335.5 195.5,335.5 196.5,335.5C 197.931,344.428 198.597,353.428 198.5,362.5C 196.947,360.615 194.947,359.615 192.5,359.5C 192.5,354.167 192.5,348.833 192.5,343.5C 189.833,343.5 187.167,343.5 184.5,343.5C 184.5,340.833 184.5,338.167 184.5,335.5C 180.889,335.044 177.556,335.711 174.5,337.5C 173.673,333.541 173.173,329.541 173,325.5C 171.414,324.624 169.914,323.624 168.5,322.5C 167.702,324.078 167.202,325.744 167,327.5C 166.232,321.627 166.399,315.794 167.5,310C 165.363,308.027 163.363,305.861 161.5,303.5C 162.488,298.36 162.821,293.026 162.5,287.5C 165.167,287.5 167.833,287.5 170.5,287.5C 170.5,282.167 170.5,276.833 170.5,271.5C 169.167,271.5 167.833,271.5 166.5,271.5C 166.597,265.723 167.264,260.057 168.5,254.5C 169.93,253.761 171.764,252.761 174,251.5C 176.403,251.825 178.236,252.992 179.5,255C 188.324,256.045 188.657,255.045 180.5,252C 181.308,250.294 182.641,249.461 184.5,249.5C 185.552,249.351 186.552,249.517 187.5,250C 189.695,254.696 191.195,254.529 192,249.5C 195.449,250.61 198.949,250.61 202.5,249.5C 202.187,246.753 202.52,244.086 203.5,241.5C 204.478,241.977 205.311,242.643 206,243.5C 206.173,249.016 206.673,254.349 207.5,259.5 Z"/></g>
<g><path style="opacity:1" fill="#28224d" d="M 145.5,271.5 C 145.5,276.833 145.5,282.167 145.5,287.5C 146.5,287.5 147.5,287.5 148.5,287.5C 148.833,292.833 149.167,298.167 149.5,303.5C 147.833,303.5 146.167,303.5 144.5,303.5C 144.66,306.884 144.327,310.217 143.5,313.5C 144.856,315.27 146.356,316.936 148,318.5C 148.758,326.897 149.925,335.231 151.5,343.5C 151.478,346.59 150.812,349.257 149.5,351.5C 147.78,353.658 146.947,356.325 147,359.5C 145.912,353.647 144.745,347.814 143.5,342C 140.384,338.678 136.717,336.511 132.5,335.5C 132.5,330.167 132.5,324.833 132.5,319.5C 130.833,319.5 129.167,319.5 127.5,319.5C 127.5,316.833 127.5,314.167 127.5,311.5C 124.833,311.5 122.167,311.5 119.5,311.5C 119.806,308.615 119.473,305.948 118.5,303.5C 118.5,300.833 118.5,298.167 118.5,295.5C 117.167,295.5 115.833,295.5 114.5,295.5C 114.5,292.833 114.5,290.167 114.5,287.5C 113.5,287.5 112.5,287.5 111.5,287.5C 111.5,282.167 111.5,276.833 111.5,271.5C 112.833,271.5 114.167,271.5 115.5,271.5C 115.5,266.167 115.5,260.833 115.5,255.5C 119.5,255.5 123.5,255.5 127.5,255.5C 127.334,260.844 127.501,266.177 128,271.5C 128.497,268.854 128.664,266.187 128.5,263.5C 131.734,264.576 135.068,265.243 138.5,265.5C 138.5,267.5 138.5,269.5 138.5,271.5C 139.833,271.5 141.167,271.5 142.5,271.5C 142.334,276.844 142.501,282.177 143,287.5C 142.878,281.74 143.711,276.407 145.5,271.5 Z"/></g>
<g><path style="opacity:1" fill="#392a67" d="M 383.5,255.5 C 384.488,260.64 384.821,265.974 384.5,271.5C 385.833,271.5 387.167,271.5 388.5,271.5C 389.167,282.167 389.833,292.833 390.5,303.5C 390.5,311.5 390.5,319.5 390.5,327.5C 389.167,327.5 387.833,327.5 386.5,327.5C 386.5,332.833 386.5,338.167 386.5,343.5C 385.167,343.5 383.833,343.5 382.5,343.5C 382.5,346.167 382.5,348.833 382.5,351.5C 377.944,352.267 375.611,354.934 375.5,359.5C 373.833,359.5 372.167,359.5 370.5,359.5C 370.5,362.167 370.5,364.833 370.5,367.5C 366.684,368.909 363.017,370.576 359.5,372.5C 359.5,373.5 359.5,374.5 359.5,375.5C 356.813,375.336 354.146,375.503 351.5,376C 349.079,378.094 346.412,379.76 343.5,381C 334.086,381.062 324.752,381.896 315.5,383.5C 304.833,380.833 294.167,380.833 283.5,383.5C 279.563,382.349 275.563,381.516 271.5,381C 266.344,377.997 261.344,374.83 256.5,371.5C 255.232,372.428 253.899,372.595 252.5,372C 251.016,370.426 249.349,369.093 247.5,368C 249.167,367.667 250.833,367.333 252.5,367C 250.603,363.711 247.937,362.711 244.5,364C 243.271,362.471 241.771,361.304 240,360.5C 239.833,359 239.667,357.5 239.5,356C 239.629,354.019 240.296,352.353 241.5,351C 239.808,349.599 239.141,347.766 239.5,345.5C 231.489,346.845 228.489,343.512 230.5,335.5C 229.167,335.5 227.833,335.5 226.5,335.5C 226.5,330.167 226.5,324.833 226.5,319.5C 225.5,319.5 224.5,319.5 223.5,319.5C 223.5,314.167 223.5,308.833 223.5,303.5C 226.167,303.5 228.833,303.5 231.5,303.5C 231.5,306.167 231.5,308.833 231.5,311.5C 230.5,311.5 229.5,311.5 228.5,311.5C 228.5,314.167 228.5,316.833 228.5,319.5C 230.167,319.5 231.833,319.5 233.5,319.5C 233.5,322.167 233.5,324.833 233.5,327.5C 235.5,327.5 237.5,327.5 239.5,327.5C 239.5,326.167 239.5,324.833 239.5,323.5C 242.167,323.5 244.833,323.5 247.5,323.5C 247.5,327.5 247.5,331.5 247.5,335.5C 248.833,335.5 250.167,335.5 251.5,335.5C 251.5,338.167 251.5,340.833 251.5,343.5C 255.5,343.5 259.5,343.5 263.5,343.5C 263.5,346.167 263.5,348.833 263.5,351.5C 266.167,351.5 268.833,351.5 271.5,351.5C 271.5,352.833 271.5,354.167 271.5,355.5C 274.167,355.5 276.833,355.5 279.5,355.5C 279.5,356.833 279.5,358.167 279.5,359.5C 290.167,359.5 300.833,359.5 311.5,359.5C 311.237,364.188 312.57,364.521 315.5,360.5C 322.134,359.503 328.8,359.17 335.5,359.5C 335.5,356.833 335.5,354.167 335.5,351.5C 338.167,351.5 340.833,351.5 343.5,351.5C 343.5,347.5 343.5,343.5 343.5,339.5C 346.167,339.5 348.833,339.5 351.5,339.5C 351.5,340.833 351.5,342.167 351.5,343.5C 354.167,343.5 356.833,343.5 359.5,343.5C 359.5,338.167 359.5,332.833 359.5,327.5C 360.833,327.5 362.167,327.5 363.5,327.5C 363.5,322.167 363.5,316.833 363.5,311.5C 364.833,311.5 366.167,311.5 367.5,311.5C 367.5,314.167 367.5,316.833 367.5,319.5C 371.167,319.5 374.833,319.5 378.5,319.5C 378.5,303.5 378.5,287.5 378.5,271.5C 380.167,271.5 381.833,271.5 383.5,271.5C 383.5,266.167 383.5,260.833 383.5,255.5 Z"/></g>
<g><path style="opacity:1" fill="#3d2e6c" d="M 351.5,339.5 C 348.833,339.5 346.167,339.5 343.5,339.5C 343.5,343.5 343.5,347.5 343.5,351.5C 340.833,351.5 338.167,351.5 335.5,351.5C 335.5,354.167 335.5,356.833 335.5,359.5C 328.8,359.17 322.134,359.503 315.5,360.5C 312.57,364.521 311.237,364.188 311.5,359.5C 300.833,359.5 290.167,359.5 279.5,359.5C 279.5,358.167 279.5,356.833 279.5,355.5C 276.833,355.5 274.167,355.5 271.5,355.5C 271.5,354.167 271.5,352.833 271.5,351.5C 276.833,351.5 282.167,351.5 287.5,351.5C 287.5,348.833 287.5,346.167 287.5,343.5C 283.167,343.5 278.833,343.5 274.5,343.5C 274.5,340.833 274.5,338.167 274.5,335.5C 273.5,335.5 272.5,335.5 271.5,335.5C 270.833,346.167 270.167,346.167 269.5,335.5C 268.5,335.5 267.5,335.5 266.5,335.5C 266.5,332.833 266.5,330.167 266.5,327.5C 262.167,327.5 257.833,327.5 253.5,327.5C 253.381,323.653 254.047,319.986 255.5,316.5C 252.833,316.5 250.167,316.5 247.5,316.5C 247.5,314.833 247.5,313.167 247.5,311.5C 245.833,311.5 244.167,311.5 242.5,311.5C 242.5,308.833 242.5,306.167 242.5,303.5C 249.5,303.5 256.5,303.5 263.5,303.5C 263.167,298.167 262.833,292.833 262.5,287.5C 260.167,287.5 257.833,287.5 255.5,287.5C 255.5,286.167 255.5,284.833 255.5,283.5C 257.833,283.5 260.167,283.5 262.5,283.5C 262.833,278.167 263.167,278.167 263.5,283.5C 266.728,283.299 269.895,283.633 273,284.5C 275.853,282.158 279.019,280.491 282.5,279.5C 282.5,276.833 282.5,274.167 282.5,271.5C 284.167,271.5 285.833,271.5 287.5,271.5C 287.5,269.833 287.5,268.167 287.5,266.5C 298.167,266.5 308.833,266.5 319.5,266.5C 319.351,265.448 319.517,264.448 320,263.5C 320.497,266.146 320.664,268.813 320.5,271.5C 324.249,271.383 327.916,270.716 331.5,269.5C 337.063,271.074 342.73,271.741 348.5,271.5C 348.5,276.833 348.5,282.167 348.5,287.5C 350.167,287.5 351.833,287.5 353.5,287.5C 353.5,290.167 353.5,292.833 353.5,295.5C 354.5,295.5 355.5,295.5 356.5,295.5C 356.5,300.833 356.5,306.167 356.5,311.5C 357.5,311.5 358.5,311.5 359.5,311.5C 359.5,314.167 359.5,316.833 359.5,319.5C 356.833,319.5 354.167,319.5 351.5,319.5C 351.5,326.167 351.5,332.833 351.5,339.5 Z"/></g>
<g><path style="opacity:1" fill="#161532" d="M -0.5,255.5 C 0.5,255.5 1.5,255.5 2.5,255.5C 2.5,258.167 2.5,260.833 2.5,263.5C 4.43304,263.729 6.09971,264.562 7.5,266C 10.146,266.497 12.8127,266.664 15.5,266.5C 15.5,268.167 15.5,269.833 15.5,271.5C 20.1667,271.5 24.8333,271.5 29.5,271.5C 29.988,274.711 29.3213,277.544 27.5,280C 30.7198,282.103 33.7198,284.436 36.5,287C 38.3806,286.904 40.0473,287.071 41.5,287.5C 40.5269,289.948 40.1936,292.615 40.5,295.5C 41.8333,295.5 43.1667,295.5 44.5,295.5C 44.7771,298.448 44.4438,301.281 43.5,304C 45.7458,305.257 47.0791,307.09 47.5,309.5C 43.4454,309.176 39.4454,309.509 35.5,310.5C 37.1045,312.179 37.7711,314.179 37.5,316.5C 36.5,316.5 35.5,316.5 34.5,316.5C 34.5,317.5 34.5,318.5 34.5,319.5C 37.5,319.5 40.5,319.5 43.5,319.5C 43.335,322.85 43.5017,326.183 44,329.5C 46.9101,330.45 48.0768,332.45 47.5,335.5C 42.2434,336.479 37.9101,334.979 34.5,331C 33.552,330.517 32.552,330.351 31.5,330.5C 30.7564,326.881 30.423,323.215 30.5,319.5C 29.1667,319.5 27.8333,319.5 26.5,319.5C 26.5,322.167 26.5,324.833 26.5,327.5C 25.2521,326.666 24.5854,325.333 24.5,323.5C 24.5507,321.9 24.8841,320.4 25.5,319C 24.0267,318.29 23.3601,317.124 23.5,315.5C 20.8127,315.664 18.146,315.497 15.5,315C 13.4732,313.121 11.1398,311.954 8.5,311.5C 8.5,308.833 8.5,306.167 8.5,303.5C 5.5,303.5 2.5,303.5 -0.5,303.5C -0.5,287.5 -0.5,271.5 -0.5,255.5 Z"/></g>
<g><path style="opacity:1" fill="#342860" d="M 214.5,303.5 C 214.777,306.448 214.444,309.281 213.5,312C 216.413,311.71 219.413,311.543 222.5,311.5C 222.179,317.026 222.512,322.36 223.5,327.5C 223.5,335.5 223.5,343.5 223.5,351.5C 224.5,351.5 225.5,351.5 226.5,351.5C 224.177,361.848 228.51,366.181 239.5,364.5C 239.5,367.167 239.5,369.833 239.5,372.5C 242.909,372.249 246.242,372.583 249.5,373.5C 249.722,376.617 251.555,378.95 255,380.5C 255.5,386.825 255.666,393.158 255.5,399.5C 240.833,399.5 226.167,399.5 211.5,399.5C 211.5,396.833 211.5,394.167 211.5,391.5C 212.873,391.657 214.207,391.49 215.5,391C 212.574,390.782 209.74,390.282 207,389.5C 206.667,385.833 206.333,382.167 206,378.5C 205.167,377.667 204.333,376.833 203.5,376C 204.444,373.281 204.777,370.448 204.5,367.5C 201.024,367.506 199.024,365.84 198.5,362.5C 198.597,353.428 197.931,344.428 196.5,335.5C 195.5,335.5 194.5,335.5 193.5,335.5C 193.509,327.432 194.176,319.432 195.5,311.5C 194.167,311.5 192.833,311.5 191.5,311.5C 191.5,308.833 191.5,306.167 191.5,303.5C 188.833,303.5 186.167,303.5 183.5,303.5C 183.5,300.833 183.5,298.167 183.5,295.5C 184.833,295.5 186.167,295.5 187.5,295.5C 186.176,287.568 185.509,279.568 185.5,271.5C 186.833,271.5 188.167,271.5 189.5,271.5C 189.5,276.833 189.5,282.167 189.5,287.5C 195.5,287.5 201.5,287.5 207.5,287.5C 207.5,292.833 207.5,298.167 207.5,303.5C 209.833,303.5 212.167,303.5 214.5,303.5 Z"/></g>
<g><path style="opacity:1" fill="#221a44" d="M 103.5,287.5 C 105.167,287.5 106.833,287.5 108.5,287.5C 108.5,290.167 108.5,292.833 108.5,295.5C 109.833,295.5 111.167,295.5 112.5,295.5C 112.5,298.167 112.5,300.833 112.5,303.5C 114.5,303.5 116.5,303.5 118.5,303.5C 119.473,305.948 119.806,308.615 119.5,311.5C 122.167,311.5 124.833,311.5 127.5,311.5C 127.5,314.167 127.5,316.833 127.5,319.5C 126.5,319.5 125.5,319.5 124.5,319.5C 124.5,322.167 124.5,324.833 124.5,327.5C 125.5,327.5 126.5,327.5 127.5,327.5C 127.5,330.167 127.5,332.833 127.5,335.5C 128.5,335.5 129.5,335.5 130.5,335.5C 130.335,339.182 130.501,342.848 131,346.5C 133.119,347.651 134.953,349.151 136.5,351C 135.552,351.483 134.552,351.649 133.5,351.5C 133.5,356.833 133.5,362.167 133.5,367.5C 131.5,367.5 129.5,367.5 127.5,367.5C 127.335,370.518 127.502,373.518 128,376.5C 129.743,378.321 131.243,380.321 132.5,382.5C 130.152,383.86 129.985,385.527 132,387.5C 133,388.833 134,390.167 135,391.5C 135.308,390.692 135.808,390.025 136.5,389.5C 137.281,390.729 137.781,392.062 138,393.5C 140.914,395.178 143.414,397.178 145.5,399.5C 133.167,399.5 120.833,399.5 108.5,399.5C 108.5,396.167 106.833,394.5 103.5,394.5C 102.617,385.533 102.284,376.533 102.5,367.5C 100.167,367.5 97.8333,367.5 95.5,367.5C 95.5,364.833 95.5,362.167 95.5,359.5C 94.1667,359.5 92.8333,359.5 91.5,359.5C 91.5,356.833 91.5,354.167 91.5,351.5C 89.8333,351.5 88.1667,351.5 86.5,351.5C 86.5,346.167 86.5,340.833 86.5,335.5C 85.5,335.5 84.5,335.5 83.5,335.5C 83.5,332.833 83.5,330.167 83.5,327.5C 82.1667,327.5 80.8333,327.5 79.5,327.5C 78.8778,318.068 79.5445,308.901 81.5,300C 80.1667,299.333 78.8333,298.667 77.5,298C 79.1066,296.951 79.7733,295.451 79.5,293.5C 82.1667,293.5 84.8333,293.5 87.5,293.5C 87.238,292.022 87.5713,290.689 88.5,289.5C 90.5,290.833 92.5,292.167 94.5,293.5C 95.4656,291.604 95.7989,289.604 95.5,287.5C 98.1667,287.5 100.833,287.5 103.5,287.5 Z"/></g>
<g><path style="opacity:1" fill="#130e2d" d="M -0.5,303.5 C 2.5,303.5 5.5,303.5 8.5,303.5C 8.5,306.167 8.5,308.833 8.5,311.5C 11.1398,311.954 13.4732,313.121 15.5,315C 18.146,315.497 20.8127,315.664 23.5,315.5C 23.3601,317.124 24.0267,318.29 25.5,319C 24.8841,320.4 24.5507,321.9 24.5,323.5C 24.5854,325.333 25.2521,326.666 26.5,327.5C 26.5,330.167 26.5,332.833 26.5,335.5C 28.1667,335.5 29.8333,335.5 31.5,335.5C 31.5,340.833 31.5,346.167 31.5,351.5C 32.5,351.5 33.5,351.5 34.5,351.5C 34.5,354.167 34.5,356.833 34.5,359.5C 35.5,359.5 36.5,359.5 37.5,359.5C 37.5,362.167 37.5,364.833 37.5,367.5C 39.1667,367.5 40.8333,367.5 42.5,367.5C 42.7771,370.448 42.4438,373.281 41.5,376C 42.6853,377.353 44.0186,378.52 45.5,379.5C 46.4967,386.134 46.83,392.8 46.5,399.5C 30.8333,399.5 15.1667,399.5 -0.5,399.5C -0.5,367.5 -0.5,335.5 -0.5,303.5 Z"/></g>
<g><path style="opacity:1" fill="#1c153b" d="M 59.5,303.5 C 60.8333,303.5 62.1667,303.5 63.5,303.5C 63.5,306.167 63.5,308.833 63.5,311.5C 65.1667,311.5 66.8333,311.5 68.5,311.5C 68.5,314.167 68.5,316.833 68.5,319.5C 69.5,319.5 70.5,319.5 71.5,319.5C 70.4595,325.718 72.7928,330.052 78.5,332.5C 79.4519,330.955 79.7852,329.288 79.5,327.5C 80.8333,327.5 82.1667,327.5 83.5,327.5C 83.5,330.167 83.5,332.833 83.5,335.5C 84.5,335.5 85.5,335.5 86.5,335.5C 86.5,340.833 86.5,346.167 86.5,351.5C 88.1667,351.5 89.8333,351.5 91.5,351.5C 91.5,354.167 91.5,356.833 91.5,359.5C 92.8333,359.5 94.1667,359.5 95.5,359.5C 95.5,362.167 95.5,364.833 95.5,367.5C 97.8333,367.5 100.167,367.5 102.5,367.5C 102.284,376.533 102.617,385.533 103.5,394.5C 106.833,394.5 108.5,396.167 108.5,399.5C 100.167,399.5 91.8333,399.5 83.5,399.5C 83.2381,397.436 82.0714,396.103 80,395.5C 76.5567,383.732 74.7234,371.732 74.5,359.5C 73.5,359.5 72.5,359.5 71.5,359.5C 71.6495,358.448 71.4828,357.448 71,356.5C 65.7589,353.837 64.2589,349.503 66.5,343.5C 64.8333,343.5 63.1667,343.5 61.5,343.5C 61.5,340.833 61.5,338.167 61.5,335.5C 60.5,335.5 59.5,335.5 58.5,335.5C 57.8333,330.167 57.1667,324.833 56.5,319.5C 58.8333,319.5 61.1667,319.5 63.5,319.5C 63.762,318.022 63.4287,316.689 62.5,315.5C 60.8662,315.032 59.6995,314.032 59,312.5C 58.1955,309.304 58.3622,306.304 59.5,303.5 Z"/></g>
<g><path style="opacity:1" fill="#2d2256" d="M 149.5,303.5 C 153.5,303.5 157.5,303.5 161.5,303.5C 163.363,305.861 165.363,308.027 167.5,310C 166.399,315.794 166.232,321.627 167,327.5C 167.202,325.744 167.702,324.078 168.5,322.5C 169.914,323.624 171.414,324.624 173,325.5C 173.173,329.541 173.673,333.541 174.5,337.5C 177.556,335.711 180.889,335.044 184.5,335.5C 184.5,338.167 184.5,340.833 184.5,343.5C 187.167,343.5 189.833,343.5 192.5,343.5C 192.5,348.833 192.5,354.167 192.5,359.5C 194.947,359.615 196.947,360.615 198.5,362.5C 199.024,365.84 201.024,367.506 204.5,367.5C 204.777,370.448 204.444,373.281 203.5,376C 204.333,376.833 205.167,377.667 206,378.5C 206.333,382.167 206.667,385.833 207,389.5C 209.74,390.282 212.574,390.782 215.5,391C 214.207,391.49 212.873,391.657 211.5,391.5C 211.5,394.167 211.5,396.833 211.5,399.5C 196.5,399.5 181.5,399.5 166.5,399.5C 166.5,394.167 166.5,388.833 166.5,383.5C 164.167,383.5 161.833,383.5 159.5,383.5C 159.5,378.167 159.5,372.833 159.5,367.5C 157.5,367.5 155.5,367.5 153.5,367.5C 151.222,362.493 149.888,357.159 149.5,351.5C 150.812,349.257 151.478,346.59 151.5,343.5C 149.925,335.231 148.758,326.897 148,318.5C 146.356,316.936 144.856,315.27 143.5,313.5C 144.327,310.217 144.66,306.884 144.5,303.5C 146.167,303.5 147.833,303.5 149.5,303.5 Z"/></g>
<g><path style="opacity:1" fill="#362763" d="M 390.5,303.5 C 391.473,305.948 391.806,308.615 391.5,311.5C 392.5,311.5 393.5,311.5 394.5,311.5C 394.5,308.833 394.5,306.167 394.5,303.5C 396.167,303.5 397.833,303.5 399.5,303.5C 399.5,335.5 399.5,367.5 399.5,399.5C 351.5,399.5 303.5,399.5 255.5,399.5C 255.666,393.158 255.5,386.825 255,380.5C 251.555,378.95 249.722,376.617 249.5,373.5C 246.242,372.583 242.909,372.249 239.5,372.5C 239.5,369.833 239.5,367.167 239.5,364.5C 228.51,366.181 224.177,361.848 226.5,351.5C 225.5,351.5 224.5,351.5 223.5,351.5C 223.5,343.5 223.5,335.5 223.5,327.5C 223.5,324.833 223.5,322.167 223.5,319.5C 224.5,319.5 225.5,319.5 226.5,319.5C 226.5,324.833 226.5,330.167 226.5,335.5C 227.833,335.5 229.167,335.5 230.5,335.5C 228.489,343.512 231.489,346.845 239.5,345.5C 239.141,347.766 239.808,349.599 241.5,351C 240.296,352.353 239.629,354.019 239.5,356C 239.667,357.5 239.833,359 240,360.5C 241.771,361.304 243.271,362.471 244.5,364C 247.937,362.711 250.603,363.711 252.5,367C 250.833,367.333 249.167,367.667 247.5,368C 249.349,369.093 251.016,370.426 252.5,372C 253.899,372.595 255.232,372.428 256.5,371.5C 261.344,374.83 266.344,377.997 271.5,381C 275.563,381.516 279.563,382.349 283.5,383.5C 294.167,380.833 304.833,380.833 315.5,383.5C 324.752,381.896 334.086,381.062 343.5,381C 346.412,379.76 349.079,378.094 351.5,376C 354.146,375.503 356.813,375.336 359.5,375.5C 359.5,374.5 359.5,373.5 359.5,372.5C 363.017,370.576 366.684,368.909 370.5,367.5C 370.5,364.833 370.5,362.167 370.5,359.5C 372.167,359.5 373.833,359.5 375.5,359.5C 375.611,354.934 377.944,352.267 382.5,351.5C 382.5,348.833 382.5,346.167 382.5,343.5C 383.833,343.5 385.167,343.5 386.5,343.5C 386.5,338.167 386.5,332.833 386.5,327.5C 387.833,327.5 389.167,327.5 390.5,327.5C 390.5,319.5 390.5,311.5 390.5,303.5 Z"/></g>
<g><path style="opacity:1" fill="#181134" d="M 41.5,287.5 C 43.1667,287.5 44.8333,287.5 46.5,287.5C 46.423,291.215 46.7564,294.881 47.5,298.5C 50.3149,299.126 52.8149,300.46 55,302.5C 56.7673,300.094 58.2673,300.427 59.5,303.5C 58.3622,306.304 58.1955,309.304 59,312.5C 59.6995,314.032 60.8662,315.032 62.5,315.5C 63.4287,316.689 63.762,318.022 63.5,319.5C 61.1667,319.5 58.8333,319.5 56.5,319.5C 57.1667,324.833 57.8333,330.167 58.5,335.5C 59.5,335.5 60.5,335.5 61.5,335.5C 61.5,338.167 61.5,340.833 61.5,343.5C 63.1667,343.5 64.8333,343.5 66.5,343.5C 64.2589,349.503 65.7589,353.837 71,356.5C 71.4828,357.448 71.6495,358.448 71.5,359.5C 72.5,359.5 73.5,359.5 74.5,359.5C 74.7234,371.732 76.5567,383.732 80,395.5C 82.0714,396.103 83.2381,397.436 83.5,399.5C 71.1667,399.5 58.8333,399.5 46.5,399.5C 46.83,392.8 46.4967,386.134 45.5,379.5C 44.0186,378.52 42.6853,377.353 41.5,376C 42.4438,373.281 42.7771,370.448 42.5,367.5C 40.8333,367.5 39.1667,367.5 37.5,367.5C 37.5,364.833 37.5,362.167 37.5,359.5C 36.5,359.5 35.5,359.5 34.5,359.5C 34.5,356.833 34.5,354.167 34.5,351.5C 33.5,351.5 32.5,351.5 31.5,351.5C 31.5,346.167 31.5,340.833 31.5,335.5C 29.8333,335.5 28.1667,335.5 26.5,335.5C 26.5,332.833 26.5,330.167 26.5,327.5C 26.5,324.833 26.5,322.167 26.5,319.5C 27.8333,319.5 29.1667,319.5 30.5,319.5C 30.423,323.215 30.7564,326.881 31.5,330.5C 32.552,330.351 33.552,330.517 34.5,331C 37.9101,334.979 42.2434,336.479 47.5,335.5C 48.0768,332.45 46.9101,330.45 44,329.5C 43.5017,326.183 43.335,322.85 43.5,319.5C 40.5,319.5 37.5,319.5 34.5,319.5C 34.5,318.5 34.5,317.5 34.5,316.5C 35.5,316.5 36.5,316.5 37.5,316.5C 37.7711,314.179 37.1045,312.179 35.5,310.5C 39.4454,309.509 43.4454,309.176 47.5,309.5C 47.0791,307.09 45.7458,305.257 43.5,304C 44.4438,301.281 44.7771,298.448 44.5,295.5C 43.1667,295.5 41.8333,295.5 40.5,295.5C 40.1936,292.615 40.5269,289.948 41.5,287.5 Z"/></g>
<g><path style="opacity:1" fill="#271d4c" d="M 127.5,319.5 C 129.167,319.5 130.833,319.5 132.5,319.5C 132.5,324.833 132.5,330.167 132.5,335.5C 136.717,336.511 140.384,338.678 143.5,342C 144.745,347.814 145.912,353.647 147,359.5C 146.947,356.325 147.78,353.658 149.5,351.5C 149.888,357.159 151.222,362.493 153.5,367.5C 155.5,367.5 157.5,367.5 159.5,367.5C 159.5,372.833 159.5,378.167 159.5,383.5C 161.833,383.5 164.167,383.5 166.5,383.5C 166.5,388.833 166.5,394.167 166.5,399.5C 159.5,399.5 152.5,399.5 145.5,399.5C 143.414,397.178 140.914,395.178 138,393.5C 137.781,392.062 137.281,390.729 136.5,389.5C 135.808,390.025 135.308,390.692 135,391.5C 134,390.167 133,388.833 132,387.5C 129.985,385.527 130.152,383.86 132.5,382.5C 131.243,380.321 129.743,378.321 128,376.5C 127.502,373.518 127.335,370.518 127.5,367.5C 129.5,367.5 131.5,367.5 133.5,367.5C 133.5,362.167 133.5,356.833 133.5,351.5C 134.552,351.649 135.552,351.483 136.5,351C 134.953,349.151 133.119,347.651 131,346.5C 130.501,342.848 130.335,339.182 130.5,335.5C 129.5,335.5 128.5,335.5 127.5,335.5C 127.5,332.833 127.5,330.167 127.5,327.5C 126.5,327.5 125.5,327.5 124.5,327.5C 124.5,324.833 124.5,322.167 124.5,319.5C 125.5,319.5 126.5,319.5 127.5,319.5 Z"/></g>
</svg>
