<?xml version="1.0" encoding="UTF-8"?>
<!DOCTYPE svg PUBLIC "-//W3C//DTD SVG 1.1//EN" "http://www.w3.org/Graphics/SVG/1.1/DTD/svg11.dtd">
<svg xmlns="http://www.w3.org/2000/svg" version="1.1" width="368px" height="368px" style="shape-rendering:geometricPrecision; text-rendering:geometricPrecision; image-rendering:optimizeQuality; fill-rule:evenodd; clip-rule:evenodd" xmlns:xlink="http://www.w3.org/1999/xlink">
<g><path style="opacity:0.994" fill="#000000" d="M 164.5,-0.5 C 177.167,-0.5 189.833,-0.5 202.5,-0.5C 267.719,8.55964 316.219,41.893 348,99.5C 358.09,120.216 364.59,141.883 367.5,164.5C 367.5,177.167 367.5,189.833 367.5,202.5C 358.44,267.719 325.107,316.219 267.5,348C 246.784,358.09 225.117,364.59 202.5,367.5C 189.833,367.5 177.167,367.5 164.5,367.5C 99.2806,358.44 50.7806,325.107 19,267.5C 8.90998,246.784 2.40998,225.117 -0.5,202.5C -0.5,189.833 -0.5,177.167 -0.5,164.5C 8.55964,99.2806 41.893,50.7806 99.5,19C 120.216,8.90998 141.883,2.40998 164.5,-0.5 Z"/></g>
<g><path style="opacity:1" fill="#f9fafb" d="M 97.5,115.5 C 126.875,115.041 156.209,115.541 185.5,117C 192.49,118.662 198.824,121.662 204.5,126C 212.709,134.543 221.209,142.71 230,150.5C 231.49,149.683 232.99,148.85 234.5,148C 244.415,137.083 254.748,126.416 265.5,116C 278.5,115.333 291.5,115.333 304.5,116C 286.833,133.667 269.167,151.333 251.5,169C 239.127,177.753 226.127,178.753 212.5,172C 201.833,162 191.167,152 180.5,142C 166.705,140.89 152.872,140.39 139,140.5C 127.167,140.667 115.333,140.833 103.5,141C 94.933,144.96 92.7663,151.127 97,159.5C 99.0795,161.123 101.246,162.623 103.5,164C 126.801,165.259 150.135,165.926 173.5,166C 183.694,167.399 193.361,170.399 202.5,175C 205.841,177.035 208.507,179.701 210.5,183C 204.984,189.682 198.984,195.848 192.5,201.5C 191.289,199.578 189.956,197.745 188.5,196C 183.881,193.337 178.881,191.67 173.5,191C 150.833,190.667 128.167,190.333 105.5,190C 74.4286,184.392 63.262,166.225 72,135.5C 77.7143,125.286 86.2143,118.619 97.5,115.5 Z"/></g>
<g><path style="opacity:1" fill="#f9f9fa" d="M 227.5,181.5 C 236.114,181.455 244.114,183.622 251.5,188C 269.833,206.333 288.167,224.667 306.5,243C 293.833,243.667 281.167,243.667 268.5,243C 256.599,230.931 244.599,219.098 232.5,207.5C 223.014,216.486 213.681,225.652 204.5,235C 198.783,239.022 192.45,241.689 185.5,243C 172.167,243.167 158.833,243.333 145.5,243.5C 130.129,243.617 114.796,243.117 99.5,242C 83.5472,237.969 74.0472,227.802 71,211.5C 70.5008,206.845 70.3342,202.179 70.5,197.5C 78.8333,197.5 87.1667,197.5 95.5,197.5C 92.4971,208.683 96.4971,215.516 107.5,218C 131.5,218.667 155.5,218.667 179.5,218C 181.949,217.275 184.283,216.275 186.5,215C 195.5,206 204.5,197 213.5,188C 217.877,184.975 222.544,182.808 227.5,181.5 Z"/></g>
</svg>
