<?xml version="1.0" encoding="UTF-8"?>
<!DOCTYPE svg PUBLIC "-//W3C//DTD SVG 1.1//EN" "http://www.w3.org/Graphics/SVG/1.1/DTD/svg11.dtd">
<svg xmlns="http://www.w3.org/2000/svg" version="1.1" width="288px" height="288px" style="shape-rendering:geometricPrecision; text-rendering:geometricPrecision; image-rendering:optimizeQuality; fill-rule:evenodd; clip-rule:evenodd" xmlns:xlink="http://www.w3.org/1999/xlink">
<g><path style="opacity:0.929" fill="#ecc6fd" d="M 131.5,-0.5 C 143.167,-0.5 154.833,-0.5 166.5,-0.5C 208.211,4.89467 239.878,25.5613 261.5,61.5C 249.83,55.3342 238.496,48.6676 227.5,41.5C 229.857,41.6633 232.19,41.4966 234.5,41C 233.956,40.2828 233.289,39.7828 232.5,39.5C 224.145,32.994 215.478,26.994 206.5,21.5C 206.631,20.6236 206.298,19.9569 205.5,19.5C 202.469,18.6335 199.803,17.1335 197.5,15C 194.832,14.433 192.166,13.933 189.5,13.5C 189.719,12.325 189.386,11.325 188.5,10.5C 186.205,9.56815 183.871,8.73482 181.5,8C 169.241,6.06882 156.907,4.56882 144.5,3.5C 131.525,3.50524 119.192,5.83857 107.5,10.5C 99.8208,12.8929 92.1541,15.3929 84.5,18C 83.7476,18.6708 83.4142,19.5041 83.5,20.5C 82.5084,20.3284 81.8417,20.6618 81.5,21.5C 77.5967,22.7599 73.93,24.4265 70.5,26.5C 68.4418,27.9331 66.1085,28.5997 63.5,28.5C 83.3445,12.2452 106.011,2.57849 131.5,-0.5 Z"/></g>
<g><path style="opacity:1" fill="#869efd" d="M 160.5,7.5 C 138.93,5.32023 118.263,8.32023 98.5,16.5C 97.1667,16.5 95.8333,16.5 94.5,16.5C 100.749,13.873 107.082,11.5397 113.5,9.5C 129.179,6.39646 144.845,5.72979 160.5,7.5 Z"/></g>
<g><path style="opacity:1" fill="#d1bafc" d="M 206.5,21.5 C 203.352,20.4242 200.352,19.0909 197.5,17.5C 196.5,17.5 195.5,17.5 194.5,17.5C 193.942,16.2101 192.942,15.3768 191.5,15C 186.659,12.9094 181.659,11.4094 176.5,10.5C 171.449,8.6556 166.116,7.6556 160.5,7.5C 144.845,5.72979 129.179,6.39646 113.5,9.5C 111.435,9.51715 109.435,9.85048 107.5,10.5C 119.192,5.83857 131.525,3.50524 144.5,3.5C 156.907,4.56882 169.241,6.06882 181.5,8C 183.871,8.73482 186.205,9.56815 188.5,10.5C 189.386,11.325 189.719,12.325 189.5,13.5C 192.166,13.933 194.832,14.433 197.5,15C 199.803,17.1335 202.469,18.6335 205.5,19.5C 206.298,19.9569 206.631,20.6236 206.5,21.5 Z"/></g>
<g><path style="opacity:1" fill="#4e88fc" d="M 160.5,7.5 C 166.116,7.6556 171.449,8.6556 176.5,10.5C 178.48,12.4514 180.813,13.9514 183.5,15C 185.518,15.5046 187.518,16.0046 189.5,16.5C 190.688,17.3636 191.855,18.3636 193,19.5C 195.278,26.7632 198.111,34.0965 201.5,41.5C 199.302,41.1201 197.635,41.7868 196.5,43.5C 192.501,44.4997 188.501,45.4997 184.5,46.5C 181.824,47.0081 179.157,47.1747 176.5,47C 176.167,46 175.833,45 175.5,44C 174.451,43.5078 173.451,43.6744 172.5,44.5C 171.808,43.9747 171.308,43.3081 171,42.5C 169.334,43.3402 169.167,42.8402 170.5,41C 168.277,38.7773 165.611,37.444 162.5,37C 163.34,35.3335 162.84,35.1669 161,36.5C 160.319,32.8408 158.319,31.5075 155,32.5C 150.721,29.6422 146.388,26.9755 142,24.5C 139.853,25.4757 137.686,25.309 135.5,24C 136.696,23.3457 136.696,22.8457 135.5,22.5C 132.731,23.296 130.064,23.6294 127.5,23.5C 123.855,21.628 120.021,21.628 116,23.5C 114.278,23.3893 114.112,22.8893 115.5,22C 112.874,22.148 110.374,21.9813 108,21.5C 106.635,21.8443 105.468,22.5109 104.5,23.5C 100.997,22.7647 97.3308,22.7647 93.5,23.5C 92.2054,22.9017 90.8721,22.4017 89.5,22C 91.8813,20.2344 94.548,19.0678 97.5,18.5C 98.2975,18.0431 98.6309,17.3764 98.5,16.5C 118.263,8.32023 138.93,5.32023 160.5,7.5 Z"/></g>
<g><path style="opacity:1" fill="#b3b3fd" d="M 113.5,9.5 C 107.082,11.5397 100.749,13.873 94.5,16.5C 90.7251,17.555 87.0584,18.8883 83.5,20.5C 83.4142,19.5041 83.7476,18.6708 84.5,18C 92.1541,15.3929 99.8208,12.8929 107.5,10.5C 109.435,9.85048 111.435,9.51715 113.5,9.5 Z"/></g>
<g><path style="opacity:1" fill="#7294f8" d="M 176.5,10.5 C 181.659,11.4094 186.659,12.9094 191.5,15C 192.942,15.3768 193.942,16.2101 194.5,17.5C 192.883,16.962 191.216,16.6287 189.5,16.5C 187.518,16.0046 185.518,15.5046 183.5,15C 180.813,13.9514 178.48,12.4514 176.5,10.5 Z"/></g>
<g><path style="opacity:1" fill="#4881ef" d="M 189.5,16.5 C 191.216,16.6287 192.883,16.962 194.5,17.5C 195.5,17.5 196.5,17.5 197.5,17.5C 199.64,20.0613 201.973,22.3946 204.5,24.5C 206.833,29.8333 209.167,35.1667 211.5,40.5C 206.766,41.288 202.1,42.288 197.5,43.5C 197.167,43.5 196.833,43.5 196.5,43.5C 197.635,41.7868 199.302,41.1201 201.5,41.5C 198.111,34.0965 195.278,26.7632 193,19.5C 191.855,18.3636 190.688,17.3636 189.5,16.5 Z"/></g>
<g><path style="opacity:1" fill="#4d8cfc" d="M 94.5,16.5 C 95.8333,16.5 97.1667,16.5 98.5,16.5C 98.6309,17.3764 98.2975,18.0431 97.5,18.5C 94.548,19.0678 91.8813,20.2344 89.5,22C 90.8721,22.4017 92.2054,22.9017 93.5,23.5C 97.3308,22.7647 100.997,22.7647 104.5,23.5C 105.468,22.5109 106.635,21.8443 108,21.5C 110.374,21.9813 112.874,22.148 115.5,22C 114.112,22.8893 114.278,23.3893 116,23.5C 120.021,21.628 123.855,21.628 127.5,23.5C 130.064,23.6294 132.731,23.296 135.5,22.5C 136.696,22.8457 136.696,23.3457 135.5,24C 137.686,25.309 139.853,25.4757 142,24.5C 146.388,26.9755 150.721,29.6422 155,32.5C 158.319,31.5075 160.319,32.8408 161,36.5C 162.84,35.1669 163.34,35.3335 162.5,37C 165.611,37.444 168.277,38.7773 170.5,41C 169.167,42.8402 169.334,43.3402 171,42.5C 171.308,43.3081 171.808,43.9747 172.5,44.5C 173.451,43.6744 174.451,43.5078 175.5,44C 175.833,45 176.167,46 176.5,47C 179.157,47.1747 181.824,47.0081 184.5,46.5C 183.329,47.3446 181.995,48.0113 180.5,48.5C 176.958,49.3927 173.624,50.726 170.5,52.5C 162.305,47.4807 153.971,42.6473 145.5,38C 132.525,33.1679 119.525,30.6679 106.5,30.5C 92.1309,31.6349 78.4642,34.6349 65.5,39.5C 65.1667,39.3333 64.8333,39.1667 64.5,39C 65.6647,37.0083 66.998,35.175 68.5,33.5C 70.1667,31.5 71.8333,29.5 73.5,27.5C 76.205,25.4884 78.8717,23.4884 81.5,21.5C 81.8417,20.6618 82.5084,20.3284 83.5,20.5C 87.0584,18.8883 90.7251,17.555 94.5,16.5 Z"/></g>
<g><path style="opacity:1" fill="#8dc7fd" d="M 81.5,21.5 C 78.8717,23.4884 76.205,25.4884 73.5,27.5C 70.5178,29.4742 67.5178,31.4742 64.5,33.5C 64.6716,32.5084 64.3382,31.8417 63.5,31.5C 66.1026,30.2561 68.436,28.5895 70.5,26.5C 73.93,24.4265 77.5967,22.7599 81.5,21.5 Z"/></g>
<g><path style="opacity:1" fill="#bfd0fd" d="M 70.5,26.5 C 68.436,28.5895 66.1026,30.2561 63.5,31.5C 61.3852,33.8907 58.7186,35.2241 55.5,35.5C 57.5491,32.4503 60.2157,30.117 63.5,28.5C 66.1085,28.5997 68.4418,27.9331 70.5,26.5 Z"/></g>
<g><path style="opacity:1" fill="#6283e0" d="M 197.5,17.5 C 200.352,19.0909 203.352,20.4242 206.5,21.5C 215.478,26.994 224.145,32.994 232.5,39.5C 231.791,40.404 230.791,40.7373 229.5,40.5C 229.586,39.5041 229.252,38.6708 228.5,38C 221.969,35.1223 216.303,31.1223 211.5,26C 209.134,25.5604 206.801,25.0604 204.5,24.5C 201.973,22.3946 199.64,20.0613 197.5,17.5 Z"/></g>
<g><path style="opacity:1" fill="#4792fc" d="M 170.5,52.5 C 170.5,52.8333 170.5,53.1667 170.5,53.5C 169.167,53.8333 167.833,54.1667 166.5,54.5C 155.887,48.8957 145.054,43.5623 134,38.5C 107.798,33.051 81.9646,36.3843 56.5,48.5C 55.7084,47.3002 55.7084,45.9669 56.5,44.5C 59.2707,39.4552 63.2707,35.7886 68.5,33.5C 66.998,35.175 65.6647,37.0083 64.5,39C 64.8333,39.1667 65.1667,39.3333 65.5,39.5C 78.4642,34.6349 92.1309,31.6349 106.5,30.5C 119.525,30.6679 132.525,33.1679 145.5,38C 153.971,42.6473 162.305,47.4807 170.5,52.5 Z"/></g>
<g><path style="opacity:1" fill="#3b74db" d="M 204.5,24.5 C 206.801,25.0604 209.134,25.5604 211.5,26C 216.303,31.1223 221.969,35.1223 228.5,38C 229.252,38.6708 229.586,39.5041 229.5,40.5C 223.5,40.5 217.5,40.5 211.5,40.5C 209.167,35.1667 206.833,29.8333 204.5,24.5 Z"/></g>
<g><path style="opacity:1" fill="#7ad7fe" d="M 63.5,31.5 C 64.3382,31.8417 64.6716,32.5084 64.5,33.5C 63.4206,35.543 61.754,36.8763 59.5,37.5C 59.2648,36.9033 58.7648,36.5699 58,36.5C 56.1208,38.0128 53.9541,38.6795 51.5,38.5C 52.4363,37.0256 53.7697,36.0256 55.5,35.5C 58.7186,35.2241 61.3852,33.8907 63.5,31.5 Z"/></g>
<g><path style="opacity:1" fill="#4298fb" d="M 166.5,54.5 C 165.035,55.7368 163.368,56.7368 161.5,57.5C 138.05,41.7088 112.883,36.7088 86,42.5C 73.7109,45.9753 61.7109,50.3087 50,55.5C 49.5,55.1667 49,54.8333 48.5,54.5C 50.297,53.3049 51.297,51.6382 51.5,49.5C 52.8333,47.5 54.5,45.8333 56.5,44.5C 55.7084,45.9669 55.7084,47.3002 56.5,48.5C 81.9646,36.3843 107.798,33.051 134,38.5C 145.054,43.5623 155.887,48.8957 166.5,54.5 Z"/></g>
<g><path style="opacity:1" fill="#3e9ffb" d="M 161.5,57.5 C 160.833,58.1667 160.167,58.8333 159.5,59.5C 159.167,59.5 158.833,59.5 158.5,59.5C 134.76,43.7845 109.927,39.7845 84,47.5C 83.6667,47.1667 83.3333,46.8333 83,46.5C 70.5385,51.0457 58.0385,55.7123 45.5,60.5C 44.7084,59.3002 44.7084,57.9669 45.5,56.5C 45.5,55.8333 45.5,55.1667 45.5,54.5C 47.5,52.8333 49.5,51.1667 51.5,49.5C 51.297,51.6382 50.297,53.3049 48.5,54.5C 49,54.8333 49.5,55.1667 50,55.5C 61.7109,50.3087 73.7109,45.9753 86,42.5C 112.883,36.7088 138.05,41.7088 161.5,57.5 Z"/></g>
<g><path style="opacity:0.981" fill="#ddc4fc" d="M 227.5,41.5 C 238.496,48.6676 249.83,55.3342 261.5,61.5C 264,64.4937 266,67.827 267.5,71.5C 265.352,71.3894 265.019,72.056 266.5,73.5C 265.311,74.4287 263.978,74.762 262.5,74.5C 262.167,74.5 261.833,74.5 261.5,74.5C 260.331,71.4887 258.664,68.822 256.5,66.5C 254.679,62.5147 251.679,59.6814 247.5,58C 240.546,54.6259 233.212,52.7926 225.5,52.5C 219.97,49.394 214.303,46.2273 208.5,43C 214.715,41.5845 221.048,41.0845 227.5,41.5 Z"/></g>
<g><path style="opacity:0.96" fill="#5be4fd" d="M 59.5,37.5 C 57.7806,39.5441 56.1139,41.5441 54.5,43.5C 53.7611,43.369 53.0944,43.5357 52.5,44C 43.476,52.3504 35.976,61.8504 30,72.5C 29.51,73.7932 29.3433,75.1266 29.5,76.5C 29.1667,76.5 28.8333,76.5 28.5,76.5C 27.6618,76.8417 27.3284,77.5084 27.5,78.5C 25.9512,81.4622 24.6179,84.6289 23.5,88C 23.5699,88.7648 23.9033,89.2648 24.5,89.5C 24.6068,91.3786 24.1068,91.7119 23,90.5C 20.2452,92.0095 19.0785,94.3429 19.5,97.5C 17.1663,99.1757 16.1663,101.509 16.5,104.5C 15.6295,107.112 14.9628,109.779 14.5,112.5C 7.64565,131.821 4.97899,151.821 6.5,172.5C 5.83333,172.167 5.16667,171.833 4.5,171.5C 3.63067,167.156 2.63067,162.823 1.5,158.5C 1.25284,157.287 0.586173,156.62 -0.5,156.5C -0.5,150.5 -0.5,144.5 -0.5,138.5C 5.75387,99.3231 23.0872,65.9898 51.5,38.5C 53.9541,38.6795 56.1208,38.0128 58,36.5C 58.7648,36.5699 59.2648,36.9033 59.5,37.5 Z"/></g>
<g><path style="opacity:1" fill="#3ba5fa" d="M 158.5,59.5 C 157.71,60.4013 156.71,61.0679 155.5,61.5C 134.633,47.9479 112.8,43.9479 90,49.5C 89.6667,49.1667 89.3333,48.8333 89,48.5C 73.8992,53.589 58.7326,58.589 43.5,63.5C 42.8333,63.3333 42.1667,63.1667 41.5,63C 42.5822,61.6703 43.2488,60.1703 43.5,58.5C 43.8333,57.5 44.5,56.8333 45.5,56.5C 44.7084,57.9669 44.7084,59.3002 45.5,60.5C 58.0385,55.7123 70.5385,51.0457 83,46.5C 83.3333,46.8333 83.6667,47.1667 84,47.5C 109.927,39.7845 134.76,43.7845 158.5,59.5 Z"/></g>
<g><path style="opacity:1" fill="#bfc1fb" d="M 232.5,39.5 C 233.289,39.7828 233.956,40.2828 234.5,41C 232.19,41.4966 229.857,41.6633 227.5,41.5C 221.048,41.0845 214.715,41.5845 208.5,43C 214.303,46.2273 219.97,49.394 225.5,52.5C 219.455,52.3032 213.455,52.6365 207.5,53.5C 202.667,51.6712 198.334,49.0045 194.5,45.5C 195.602,44.8243 196.602,44.1577 197.5,43.5C 202.1,42.288 206.766,41.288 211.5,40.5C 217.5,40.5 223.5,40.5 229.5,40.5C 230.791,40.7373 231.791,40.404 232.5,39.5 Z"/></g>
<g><path style="opacity:1" fill="#4faefd" d="M 73.5,27.5 C 71.8333,29.5 70.1667,31.5 68.5,33.5C 63.2707,35.7886 59.2707,39.4552 56.5,44.5C 54.5,45.8333 52.8333,47.5 51.5,49.5C 49.5,51.1667 47.5,52.8333 45.5,54.5C 48.0985,50.562 51.0985,46.8953 54.5,43.5C 56.1139,41.5441 57.7806,39.5441 59.5,37.5C 61.754,36.8763 63.4206,35.543 64.5,33.5C 67.5178,31.4742 70.5178,29.4742 73.5,27.5 Z"/></g>
<g><path style="opacity:1" fill="#37abfa" d="M 155.5,61.5 C 154.71,62.4013 153.71,63.0679 152.5,63.5C 145.346,60.0938 138.012,56.9272 130.5,54C 115.657,49.9509 100.823,50.1176 86,54.5C 85.6667,54.1667 85.3333,53.8333 85,53.5C 70.728,59.868 55.8946,64.5347 40.5,67.5C 39.7942,65.2343 39.9609,62.9009 41,60.5C 41.7083,59.6195 42.5416,58.9528 43.5,58.5C 43.2488,60.1703 42.5822,61.6703 41.5,63C 42.1667,63.1667 42.8333,63.3333 43.5,63.5C 58.7326,58.589 73.8992,53.589 89,48.5C 89.3333,48.8333 89.6667,49.1667 90,49.5C 112.8,43.9479 134.633,47.9479 155.5,61.5 Z"/></g>
<g><path style="opacity:1" fill="#a3c0fb" d="M 196.5,43.5 C 196.833,43.5 197.167,43.5 197.5,43.5C 196.602,44.1577 195.602,44.8243 194.5,45.5C 198.334,49.0045 202.667,51.6712 207.5,53.5C 202.882,54.5898 198.215,55.9231 193.5,57.5C 188.821,54.7907 184.487,51.7907 180.5,48.5C 181.995,48.0113 183.329,47.3446 184.5,46.5C 188.501,45.4997 192.501,44.4997 196.5,43.5 Z"/></g>
<g><path style="opacity:1" fill="#35b1f9" d="M 152.5,63.5 C 152.027,64.9063 151.027,65.573 149.5,65.5C 147.302,64.9856 145.302,63.9856 143.5,62.5C 142.914,62.7093 142.414,63.0426 142,63.5C 139.667,61.8333 137.333,60.1667 135,58.5C 134.667,58.8333 134.333,59.1667 134,59.5C 121.864,54.2973 109.031,53.2973 95.5,56.5C 94.7065,56.0688 93.8732,55.7355 93,55.5C 90.2577,56.8453 87.591,57.8453 85,58.5C 84.6667,58.1667 84.3333,57.8333 84,57.5C 82.806,59.5254 81.306,59.8587 79.5,58.5C 73.8685,60.8849 68.2019,63.3849 62.5,66C 60.8876,66.7203 59.3876,66.5536 58,65.5C 51.4078,70.2508 44.2411,71.5841 36.5,69.5C 37.4408,67.9505 38.1075,66.2838 38.5,64.5C 39.2426,60.085 41.5759,56.7516 45.5,54.5C 45.5,55.1667 45.5,55.8333 45.5,56.5C 44.5,56.8333 43.8333,57.5 43.5,58.5C 42.5416,58.9528 41.7083,59.6195 41,60.5C 39.9609,62.9009 39.7942,65.2343 40.5,67.5C 55.8946,64.5347 70.728,59.868 85,53.5C 85.3333,53.8333 85.6667,54.1667 86,54.5C 100.823,50.1176 115.657,49.9509 130.5,54C 138.012,56.9272 145.346,60.0938 152.5,63.5 Z"/></g>
<g><path style="opacity:1" fill="#8cbefa" d="M 180.5,48.5 C 184.487,51.7907 188.821,54.7907 193.5,57.5C 190.899,58.8007 188.232,60.134 185.5,61.5C 184.609,62.1098 183.609,62.4431 182.5,62.5C 178.035,59.9541 174.035,56.9541 170.5,53.5C 170.5,53.1667 170.5,52.8333 170.5,52.5C 173.624,50.726 176.958,49.3927 180.5,48.5 Z"/></g>
<g><path style="opacity:1" fill="#32b5f9" d="M 149.5,65.5 C 148.415,67.5869 146.749,68.9202 144.5,69.5C 144.649,68.448 144.483,67.448 144,66.5C 143.667,66.8333 143.333,67.1667 143,67.5C 138.841,65.4213 134.841,63.0879 131,60.5C 129,60.5 127,60.5 125,60.5C 124.667,59.8333 124.333,59.1667 124,58.5C 120.847,59.3016 117.847,59.635 115,59.5C 114.333,58.8333 113.667,58.1667 113,57.5C 109.667,58.8333 106.333,58.8333 103,57.5C 102.692,58.3081 102.192,58.9747 101.5,59.5C 99.0428,59.4492 96.5428,59.1158 94,58.5C 92.2382,58.9444 92.4049,59.4444 94.5,60C 82.2577,61.749 70.591,65.749 59.5,72C 57.3039,73.6993 55.3039,75.5327 53.5,77.5C 48.7231,74.4688 43.3897,72.9688 37.5,73C 35.5049,72.0764 35.1716,70.9097 36.5,69.5C 44.2411,71.5841 51.4078,70.2508 58,65.5C 59.3876,66.5536 60.8876,66.7203 62.5,66C 68.2019,63.3849 73.8685,60.8849 79.5,58.5C 81.306,59.8587 82.806,59.5254 84,57.5C 84.3333,57.8333 84.6667,58.1667 85,58.5C 87.591,57.8453 90.2577,56.8453 93,55.5C 93.8732,55.7355 94.7065,56.0688 95.5,56.5C 109.031,53.2973 121.864,54.2973 134,59.5C 134.333,59.1667 134.667,58.8333 135,58.5C 137.333,60.1667 139.667,61.8333 142,63.5C 142.414,63.0426 142.914,62.7093 143.5,62.5C 145.302,63.9856 147.302,64.9856 149.5,65.5 Z"/></g>
<g><path style="opacity:0.998" fill="#2cbaf9" d="M 144.5,69.5 C 143.609,70.2613 142.942,71.2613 142.5,72.5C 143.34,74.2608 144.34,75.9275 145.5,77.5C 148.233,78.0463 151.233,78.713 154.5,79.5C 154.5,80.5 154.5,81.5 154.5,82.5C 126.87,106.406 107.204,135.739 95.5,170.5C 91.7328,170.032 88.5661,168.366 86,165.5C 85.2825,166.451 84.4491,166.617 83.5,166C 84.5171,164.951 84.6838,163.784 84,162.5C 83.3333,163.833 82.6667,163.833 82,162.5C 78.7155,167.736 76.5489,173.403 75.5,179.5C 74.5392,182.426 73.8726,185.426 73.5,188.5C 71.9102,188.372 70.5769,187.705 69.5,186.5C 57.3185,171.713 50.9851,155.38 50.5,137.5C 49.8847,134.961 49.2181,132.461 48.5,130C 51.1667,128 51.1667,126 48.5,124C 49.0496,121.786 49.0496,119.452 48.5,117C 48.879,114.908 49.5457,112.908 50.5,111C 49.693,107.913 49.3597,104.913 49.5,102C 50.7974,94.2496 52.4641,86.583 54.5,79C 53.944,78.6174 53.6107,78.1174 53.5,77.5C 55.3039,75.5327 57.3039,73.6993 59.5,72C 70.591,65.749 82.2577,61.749 94.5,60C 92.4049,59.4444 92.2382,58.9444 94,58.5C 96.5428,59.1158 99.0428,59.4492 101.5,59.5C 102.192,58.9747 102.692,58.3081 103,57.5C 106.333,58.8333 109.667,58.8333 113,57.5C 113.667,58.1667 114.333,58.8333 115,59.5C 117.847,59.635 120.847,59.3016 124,58.5C 124.333,59.1667 124.667,59.8333 125,60.5C 127,60.5 129,60.5 131,60.5C 134.841,63.0879 138.841,65.4213 143,67.5C 143.333,67.1667 143.667,66.8333 144,66.5C 144.483,67.448 144.649,68.448 144.5,69.5 Z"/></g>
<g><path style="opacity:1" fill="#174e86" d="M 225.5,52.5 C 233.212,52.7926 240.546,54.6259 247.5,58C 251.679,59.6814 254.679,62.5147 256.5,66.5C 256.649,67.552 256.483,68.552 256,69.5C 255.667,69.1667 255.333,68.8333 255,68.5C 254.044,69.8941 252.711,70.5607 251,70.5C 232.959,69.584 215.626,69.584 199,70.5C 193.054,69.7283 188.554,66.7283 185.5,61.5C 188.232,60.134 190.899,58.8007 193.5,57.5C 198.215,55.9231 202.882,54.5898 207.5,53.5C 213.455,52.6365 219.455,52.3032 225.5,52.5 Z"/></g>
<g><path style="opacity:0.969" fill="#73befa" d="M 170.5,53.5 C 174.035,56.9541 178.035,59.9541 182.5,62.5C 182.5,63.1667 182.167,63.5 181.5,63.5C 179.205,64.4746 177.205,65.8079 175.5,67.5C 174.5,68.1667 173.5,68.8333 172.5,69.5C 168.401,65.9402 164.067,62.6069 159.5,59.5C 160.167,58.8333 160.833,58.1667 161.5,57.5C 163.368,56.7368 165.035,55.7368 166.5,54.5C 167.833,54.1667 169.167,53.8333 170.5,53.5 Z"/></g>
<g><path style="opacity:1" fill="#185590" d="M 185.5,61.5 C 188.554,66.7283 193.054,69.7283 199,70.5C 215.626,69.584 232.959,69.584 251,70.5C 252.711,70.5607 254.044,69.8941 255,68.5C 255.333,68.8333 255.667,69.1667 256,69.5C 256.483,68.552 256.649,67.552 256.5,66.5C 258.664,68.822 260.331,71.4887 261.5,74.5C 259.334,82.1864 254.168,86.1864 246,86.5C 243.502,87.1212 241.168,86.4545 239,84.5C 238.667,85.1667 238.333,85.8333 238,86.5C 226.036,86.6939 213.536,86.1939 200.5,85C 198.833,84.6667 197.167,84.3333 195.5,84C 193.46,81.6955 191.126,79.8622 188.5,78.5C 188.771,76.6203 188.104,75.287 186.5,74.5C 185.027,70.7492 183.36,67.0825 181.5,63.5C 182.167,63.5 182.5,63.1667 182.5,62.5C 183.609,62.4431 184.609,62.1098 185.5,61.5 Z"/></g>
<g><path style="opacity:1" fill="#36c0f8" d="M 38.5,64.5 C 38.1075,66.2838 37.4408,67.9505 36.5,69.5C 35.1716,70.9097 35.5049,72.0764 37.5,73C 43.3897,72.9688 48.7231,74.4688 53.5,77.5C 53.6107,78.1174 53.944,78.6174 54.5,79C 52.4641,86.583 50.7974,94.2496 49.5,102C 49.3597,104.913 49.693,107.913 50.5,111C 49.5457,112.908 48.879,114.908 48.5,117C 49.0496,119.452 49.0496,121.786 48.5,124C 51.1667,126 51.1667,128 48.5,130C 49.2181,132.461 49.8847,134.961 50.5,137.5C 50.9851,155.38 57.3185,171.713 69.5,186.5C 70.5769,187.705 71.9102,188.372 73.5,188.5C 72.962,190.117 72.6287,191.784 72.5,193.5C 70.7446,192.928 69.0779,192.094 67.5,191C 62.67,185.513 58.67,179.513 55.5,173C 54.1646,171.326 52.8312,169.659 51.5,168C 51.9574,167.586 52.2907,167.086 52.5,166.5C 47.089,151.87 44.4223,136.703 44.5,121C 44.7186,107.551 46.052,94.5506 48.5,82C 44.4584,77.6464 39.4584,75.4797 33.5,75.5C 33.6287,73.7839 33.962,72.1172 34.5,70.5C 34.3469,67.4647 35.6803,65.4647 38.5,64.5 Z"/></g>
<g><path style="opacity:1" fill="#4abcfa" d="M 158.5,59.5 C 158.833,59.5 159.167,59.5 159.5,59.5C 164.067,62.6069 168.401,65.9402 172.5,69.5C 166.5,73.8333 160.5,78.1667 154.5,82.5C 154.5,81.5 154.5,80.5 154.5,79.5C 151.233,78.713 148.233,78.0463 145.5,77.5C 144.34,75.9275 143.34,74.2608 142.5,72.5C 142.942,71.2613 143.609,70.2613 144.5,69.5C 146.749,68.9202 148.415,67.5869 149.5,65.5C 151.027,65.573 152.027,64.9063 152.5,63.5C 153.71,63.0679 154.71,62.4013 155.5,61.5C 156.71,61.0679 157.71,60.4013 158.5,59.5 Z"/></g>
<g><path style="opacity:1" fill="#1a5a99" d="M 261.5,74.5 C 261.833,74.5 262.167,74.5 262.5,74.5C 262.833,75.8333 263.167,77.1667 263.5,78.5C 261.451,85.7304 256.951,91.0637 250,94.5C 248.732,94.3842 247.398,94.0509 246,93.5C 245.612,94.428 244.945,95.0946 244,95.5C 233.272,94.7205 222.605,94.7205 212,95.5C 209,94.8333 206,94.1667 203,93.5C 199.807,93.7705 196.807,92.7705 194,90.5C 192.636,86.2198 190.802,82.2198 188.5,78.5C 191.126,79.8622 193.46,81.6955 195.5,84C 197.167,84.3333 198.833,84.6667 200.5,85C 213.536,86.1939 226.036,86.6939 238,86.5C 238.333,85.8333 238.667,85.1667 239,84.5C 241.168,86.4545 243.502,87.1212 246,86.5C 254.168,86.1864 259.334,82.1864 261.5,74.5 Z"/></g>
<g><path style="opacity:0.958" fill="#cdc2fc" d="M 267.5,71.5 C 271.207,76.2474 273.874,81.5807 275.5,87.5C 275.189,88.4778 274.522,89.1445 273.5,89.5C 272.274,88.6371 270.94,88.6371 269.5,89.5C 269.5,88.8333 269.167,88.5 268.5,88.5C 268.598,86.4471 267.931,84.7804 266.5,83.5C 265.737,81.6316 264.737,79.9649 263.5,78.5C 263.167,77.1667 262.833,75.8333 262.5,74.5C 263.978,74.762 265.311,74.4287 266.5,73.5C 265.019,72.056 265.352,71.3894 267.5,71.5 Z"/></g>
<g><path style="opacity:1" fill="#3dc5f8" d="M 34.5,70.5 C 33.962,72.1172 33.6287,73.7839 33.5,75.5C 39.4584,75.4797 44.4584,77.6464 48.5,82C 46.052,94.5506 44.7186,107.551 44.5,121C 44.4223,136.703 47.089,151.87 52.5,166.5C 52.2907,167.086 51.9574,167.586 51.5,168C 52.8312,169.659 54.1646,171.326 55.5,173C 58.67,179.513 62.67,185.513 67.5,191C 69.0779,192.094 70.7446,192.928 72.5,193.5C 72.7373,194.791 72.404,195.791 71.5,196.5C 59.7638,188.39 51.9305,177.39 48,163.5C 41.75,139.441 40.5833,115.608 44.5,92C 44.415,83.6701 40.2483,78.8368 32,77.5C 30.9126,74.3861 31.746,72.0528 34.5,70.5 Z"/></g>
<g><path style="opacity:1" fill="#1d60a3" d="M 186.5,74.5 C 188.104,75.287 188.771,76.6203 188.5,78.5C 190.802,82.2198 192.636,86.2198 194,90.5C 196.807,92.7705 199.807,93.7705 203,93.5C 206,94.1667 209,94.8333 212,95.5C 222.605,94.7205 233.272,94.7205 244,95.5C 244.945,95.0946 245.612,94.428 246,93.5C 247.398,94.0509 248.732,94.3842 250,94.5C 256.951,91.0637 261.451,85.7304 263.5,78.5C 264.737,79.9649 265.737,81.6316 266.5,83.5C 266.851,85.8695 267.018,88.2028 267,90.5C 262.667,94.3366 258.834,98.67 255.5,103.5C 251.933,106.7 247.767,108.7 243,109.5C 229.321,110.141 215.154,110.141 200.5,109.5C 197.886,107.567 195.886,105.234 194.5,102.5C 193.659,97.2613 192.326,92.2613 190.5,87.5C 190.167,87.5 189.833,87.5 189.5,87.5C 188.373,83.1965 187.373,78.8631 186.5,74.5 Z"/></g>
<g><path style="opacity:1" fill="#4fd2f8" d="M 28.5,76.5 C 28.8333,76.5 29.1667,76.5 29.5,76.5C 29.3398,78.1992 29.5065,79.8659 30,81.5C 32.8362,81.8349 35.6696,83.0015 38.5,85C 38.1667,85.3333 37.8333,85.6667 37.5,86C 38.4303,87.1939 39.0969,88.5272 39.5,90C 34.9732,113.49 35.8065,136.99 42,160.5C 45.849,173.205 52.0156,184.539 60.5,194.5C 54.8259,189.31 49.9926,183.31 46,176.5C 35.803,149.954 32.6363,122.454 36.5,94C 36.2029,88.2017 33.2029,84.7017 27.5,83.5C 28.3742,81.2534 28.7076,78.9201 28.5,76.5 Z"/></g>
<g><path style="opacity:1" fill="#54d7f8" d="M 28.5,76.5 C 28.7076,78.9201 28.3742,81.2534 27.5,83.5C 33.2029,84.7017 36.2029,88.2017 36.5,94C 32.6363,122.454 35.803,149.954 46,176.5C 49.9926,183.31 54.8259,189.31 60.5,194.5C 63.8089,197.136 67.1423,199.803 70.5,202.5C 70.5,203.833 70.5,205.167 70.5,206.5C 69.448,206.649 68.448,206.483 67.5,206C 44.8512,186.103 33.3512,160.936 33,130.5C 33.0332,117.501 33.0332,104.501 33,91.5C 30.7664,89.3002 28.2664,87.4669 25.5,86C 26.5541,83.6178 27.2208,81.1178 27.5,78.5C 27.3284,77.5084 27.6618,76.8417 28.5,76.5 Z"/></g>
<g><path style="opacity:0.938" fill="#2777c7" d="M 181.5,63.5 C 183.36,67.0825 185.027,70.7492 186.5,74.5C 187.373,78.8631 188.373,83.1965 189.5,87.5C 193.172,108.05 193.172,128.717 189.5,149.5C 187.563,152.118 186.063,155.118 185,158.5C 184.26,159.749 184.427,160.749 185.5,161.5C 185.5,161.833 185.5,162.167 185.5,162.5C 183.716,162.107 182.05,161.441 180.5,160.5C 186.117,141.564 188.284,122.23 187,102.5C 185.85,89.8834 182.016,78.2167 175.5,67.5C 177.205,65.8079 179.205,64.4746 181.5,63.5 Z"/></g>
<g><path style="opacity:1" fill="#5cdcf8" d="M 27.5,78.5 C 27.2208,81.1178 26.5541,83.6178 25.5,86C 28.2664,87.4669 30.7664,89.3002 33,91.5C 33.0332,104.501 33.0332,117.501 33,130.5C 33.3512,160.936 44.8512,186.103 67.5,206C 68.448,206.483 69.448,206.649 70.5,206.5C 70.5,208.167 70.5,209.833 70.5,211.5C 69.596,210.791 69.2627,209.791 69.5,208.5C 55.3313,199.226 45.1646,186.559 39,170.5C 35.8852,161.04 33.5519,151.374 32,141.5C 30.8143,125.821 30.1476,110.154 30,94.5C 28.6208,92.2853 26.7875,90.6187 24.5,89.5C 23.9033,89.2648 23.5699,88.7648 23.5,88C 24.6179,84.6289 25.9512,81.4622 27.5,78.5 Z"/></g>
<g><path style="opacity:1" fill="#47cdf8" d="M 54.5,43.5 C 51.0985,46.8953 48.0985,50.562 45.5,54.5C 41.5759,56.7516 39.2426,60.085 38.5,64.5C 35.6803,65.4647 34.3469,67.4647 34.5,70.5C 31.746,72.0528 30.9126,74.3861 32,77.5C 40.2483,78.8368 44.415,83.6701 44.5,92C 40.5833,115.608 41.75,139.441 48,163.5C 51.9305,177.39 59.7638,188.39 71.5,196.5C 71.5,198.167 71.5,199.833 71.5,201.5C 71.5,202.167 71.1667,202.5 70.5,202.5C 67.1423,199.803 63.8089,197.136 60.5,194.5C 52.0156,184.539 45.849,173.205 42,160.5C 35.8065,136.99 34.9732,113.49 39.5,90C 39.0969,88.5272 38.4303,87.1939 37.5,86C 37.8333,85.6667 38.1667,85.3333 38.5,85C 35.6696,83.0015 32.8362,81.8349 30,81.5C 29.5065,79.8659 29.3398,78.1992 29.5,76.5C 29.3433,75.1266 29.51,73.7932 30,72.5C 35.976,61.8504 43.476,52.3504 52.5,44C 53.0944,43.5357 53.7611,43.369 54.5,43.5 Z"/></g>
<g><path style="opacity:1" fill="#2169b1" d="M 190.5,87.5 C 192.326,92.2613 193.659,97.2613 194.5,102.5C 194.03,108.468 195.864,113.468 200,117.5C 213.604,117.89 227.77,117.89 242.5,117.5C 255.528,111.802 264.194,102.135 268.5,88.5C 269.167,88.5 269.5,88.8333 269.5,89.5C 269.5,89.8333 269.5,90.1667 269.5,90.5C 269.395,94.3189 268.562,97.9855 267,101.5C 263.462,105.557 260.295,109.89 257.5,114.5C 256.675,115.386 255.675,115.719 254.5,115.5C 253.828,118.35 252.161,120.517 249.5,122C 244.607,124.679 239.44,126.513 234,127.5C 224.611,127.003 214.111,126.503 202.5,126C 200.5,125.333 198.5,124.667 196.5,124C 194.707,111.829 192.707,99.6624 190.5,87.5 Z"/></g>
<g><path style="opacity:1" fill="#236eb9" d="M 189.5,87.5 C 189.833,87.5 190.167,87.5 190.5,87.5C 192.707,99.6624 194.707,111.829 196.5,124C 198.5,124.667 200.5,125.333 202.5,126C 214.111,126.503 224.611,127.003 234,127.5C 239.44,126.513 244.607,124.679 249.5,122C 252.161,120.517 253.828,118.35 254.5,115.5C 255.675,115.719 256.675,115.386 257.5,114.5C 260.295,109.89 263.462,105.557 267,101.5C 268.562,97.9855 269.395,94.3189 269.5,90.5C 270.738,92.2143 271.405,94.2143 271.5,96.5C 265.058,114.066 253.891,126.733 238,134.5C 230.501,134.389 222.501,134.056 214,133.5C 212.686,134.313 211.519,135.313 210.5,136.5C 208.523,135.812 206.523,136.145 204.5,137.5C 207.236,139.024 209.236,141.191 210.5,144C 222.295,150.065 233.961,156.398 245.5,163C 256.203,169.08 260.369,178.247 258,190.5C 253.387,207.851 247.554,224.518 240.5,240.5C 239.5,240.5 238.5,240.5 237.5,240.5C 237.5,240.167 237.5,239.833 237.5,239.5C 238.5,239.5 239.5,239.5 240.5,239.5C 245.666,222.836 250.833,206.17 256,189.5C 257.381,180.467 254.548,173.134 247.5,167.5C 231.556,159.01 215.223,151.176 198.5,144C 196.421,143.192 194.421,143.359 192.5,144.5C 191.304,146.145 190.304,147.811 189.5,149.5C 193.172,128.717 193.172,108.05 189.5,87.5 Z"/></g>
<g><path style="opacity:1" fill="#6deaf7" d="M 69.5,217.5 C 66.7282,217.241 64.3949,216.241 62.5,214.5C 62.5,213.5 62.5,212.5 62.5,211.5C 61.448,211.649 60.448,211.483 59.5,211C 40.5632,193.296 29.3965,171.463 26,145.5C 24.9171,130.221 24.0838,115.221 23.5,100.5C 22.448,100.351 21.448,100.517 20.5,101C 19.6159,102.72 18.2825,103.886 16.5,104.5C 16.1663,101.509 17.1663,99.1757 19.5,97.5C 23.4273,94.4243 25.9273,95.4243 27,100.5C 25.7492,123.64 28.0825,146.307 34,168.5C 40.1656,184.16 49.3323,197.827 61.5,209.5C 63.0701,209.694 64.5701,209.694 66,209.5C 67.9927,211.818 69.1594,214.484 69.5,217.5 Z"/></g>
<g><path style="opacity:1" fill="#63e2f8" d="M 24.5,89.5 C 26.7875,90.6187 28.6208,92.2853 30,94.5C 30.1476,110.154 30.8143,125.821 32,141.5C 33.5519,151.374 35.8852,161.04 39,170.5C 45.1646,186.559 55.3313,199.226 69.5,208.5C 69.2627,209.791 69.596,210.791 70.5,211.5C 70.5,213.167 70.5,214.833 70.5,216.5C 70.5,217.167 70.5,217.833 70.5,218.5C 69.8333,218.5 69.5,218.167 69.5,217.5C 69.1594,214.484 67.9927,211.818 66,209.5C 64.5701,209.694 63.0701,209.694 61.5,209.5C 49.3323,197.827 40.1656,184.16 34,168.5C 28.0825,146.307 25.7492,123.64 27,100.5C 25.9273,95.4243 23.4273,94.4243 19.5,97.5C 19.0785,94.3429 20.2452,92.0095 23,90.5C 24.1068,91.7119 24.6068,91.3786 24.5,89.5 Z"/></g>
<g><path style="opacity:1" fill="#2572c0" d="M 271.5,96.5 C 272.458,98.3024 273.125,100.302 273.5,102.5C 269.094,119.784 259.761,133.951 245.5,145C 245.833,145.333 246.167,145.667 246.5,146C 244.968,146.7 243.968,147.866 243.5,149.5C 244.641,150.425 244.641,151.259 243.5,152C 250.349,158.185 256.516,165.018 262,172.5C 264.172,181.261 263.839,189.927 261,198.5C 256.337,212.489 251.67,226.489 247,240.5C 245.644,241.38 244.144,241.714 242.5,241.5C 241.508,241.672 240.842,241.338 240.5,240.5C 247.554,224.518 253.387,207.851 258,190.5C 260.369,178.247 256.203,169.08 245.5,163C 233.961,156.398 222.295,150.065 210.5,144C 209.236,141.191 207.236,139.024 204.5,137.5C 206.523,136.145 208.523,135.812 210.5,136.5C 211.519,135.313 212.686,134.313 214,133.5C 222.501,134.056 230.501,134.389 238,134.5C 253.891,126.733 265.058,114.066 271.5,96.5 Z"/></g>
<g><path style="opacity:0.945" fill="#b6c0fd" d="M 275.5,87.5 C 278.935,94.1283 281.602,101.128 283.5,108.5C 280.938,109.371 278.272,109.371 275.5,108.5C 275.405,106.214 274.738,104.214 273.5,102.5C 273.125,100.302 272.458,98.3024 271.5,96.5C 271.405,94.2143 270.738,92.2143 269.5,90.5C 269.5,90.1667 269.5,89.8333 269.5,89.5C 270.94,88.6371 272.274,88.6371 273.5,89.5C 274.522,89.1445 275.189,88.4778 275.5,87.5 Z"/></g>
<g><path style="opacity:1" fill="#1f65aa" d="M 266.5,83.5 C 267.931,84.7804 268.598,86.4471 268.5,88.5C 264.194,102.135 255.528,111.802 242.5,117.5C 227.77,117.89 213.604,117.89 200,117.5C 195.864,113.468 194.03,108.468 194.5,102.5C 195.886,105.234 197.886,107.567 200.5,109.5C 215.154,110.141 229.321,110.141 243,109.5C 247.767,108.7 251.933,106.7 255.5,103.5C 258.834,98.67 262.667,94.3366 267,90.5C 267.018,88.2028 266.851,85.8695 266.5,83.5 Z"/></g>
<g><path style="opacity:1" fill="#77f2f7" d="M 62.5,214.5 C 60.8583,212.919 58.8583,212.253 56.5,212.5C 55.3684,211.646 54.035,211.646 52.5,212.5C 31.9715,189.802 20.6381,162.969 18.5,132C 18.3051,124.457 18.6385,116.791 19.5,109C 18.552,108.517 17.552,108.351 16.5,108.5C 16.7709,110.38 16.1042,111.713 14.5,112.5C 14.9628,109.779 15.6295,107.112 16.5,104.5C 18.2825,103.886 19.6159,102.72 20.5,101C 21.448,100.517 22.448,100.351 23.5,100.5C 24.0838,115.221 24.9171,130.221 26,145.5C 29.3965,171.463 40.5632,193.296 59.5,211C 60.448,211.483 61.448,211.649 62.5,211.5C 62.5,212.5 62.5,213.5 62.5,214.5 Z"/></g>
<g><path style="opacity:1" fill="#2879cb" d="M 273.5,102.5 C 274.738,104.214 275.405,106.214 275.5,108.5C 275.5,108.833 275.5,109.167 275.5,109.5C 275.649,112.607 275.149,115.607 274,118.5C 267.526,129.3 260.693,139.8 253.5,150C 254.114,151.537 254.114,152.87 253.5,154C 257.699,158.899 261.532,164.066 265,169.5C 268.259,176.945 268.759,184.445 266.5,192C 266.833,192.333 267.167,192.667 267.5,193C 261.254,209.233 255.588,226.066 250.5,243.5C 249.5,243.5 248.5,243.5 247.5,243.5C 245.597,243.204 243.93,242.537 242.5,241.5C 244.144,241.714 245.644,241.38 247,240.5C 251.67,226.489 256.337,212.489 261,198.5C 263.839,189.927 264.172,181.261 262,172.5C 256.516,165.018 250.349,158.185 243.5,152C 244.641,151.259 244.641,150.425 243.5,149.5C 243.968,147.866 244.968,146.7 246.5,146C 246.167,145.667 245.833,145.333 245.5,145C 259.761,133.951 269.094,119.784 273.5,102.5 Z"/></g>
<g><path style="opacity:1" fill="#7ef8f7" d="M 52.5,212.5 C 50.3078,214.517 47.6412,215.684 44.5,216C 43.033,218.728 41.033,219.561 38.5,218.5C 39.9869,217.196 41.6536,216.03 43.5,215C 41.4746,213.806 41.1413,212.306 42.5,210.5C 33.7252,199.57 26.8919,187.57 22,174.5C 17.2717,159.237 14.2717,143.57 13,127.5C 8.03013,143.096 6.19679,159.096 7.5,175.5C 6.59603,174.791 6.26269,173.791 6.5,172.5C 4.97899,151.821 7.64565,131.821 14.5,112.5C 16.1042,111.713 16.7709,110.38 16.5,108.5C 17.552,108.351 18.552,108.517 19.5,109C 18.6385,116.791 18.3051,124.457 18.5,132C 20.6381,162.969 31.9715,189.802 52.5,212.5 Z"/></g>
<g><path style="opacity:1" fill="#2b7ed3" d="M 275.5,109.5 C 277.117,114.933 278.117,120.6 278.5,126.5C 279.875,167.454 272.708,206.787 257,244.5C 253.888,245.573 250.721,245.573 247.5,244.5C 247.5,244.167 247.5,243.833 247.5,243.5C 248.5,243.5 249.5,243.5 250.5,243.5C 255.588,226.066 261.254,209.233 267.5,193C 267.167,192.667 266.833,192.333 266.5,192C 268.759,184.445 268.259,176.945 265,169.5C 261.532,164.066 257.699,158.899 253.5,154C 254.114,152.87 254.114,151.537 253.5,150C 260.693,139.8 267.526,129.3 274,118.5C 275.149,115.607 275.649,112.607 275.5,109.5 Z"/></g>
<g><path style="opacity:0.949" fill="#9ebdfd" d="M 275.5,109.5 C 275.5,109.167 275.5,108.833 275.5,108.5C 278.272,109.371 280.938,109.371 283.5,108.5C 284.824,114.778 285.824,121.112 286.5,127.5C 283.518,129.077 280.851,128.744 278.5,126.5C 278.117,120.6 277.117,114.933 275.5,109.5 Z"/></g>
<g><path style="opacity:1" fill="#87fdf7" d="M 38.5,218.5 C 35.6865,220.07 32.6865,221.403 29.5,222.5C 25.9791,217.563 22.9791,212.229 20.5,206.5C 19.2263,204.549 17.5596,203.215 15.5,202.5C 14.5324,199.9 13.1991,197.566 11.5,195.5C 10.1638,188.83 8.8305,182.163 7.5,175.5C 6.19679,159.096 8.03013,143.096 13,127.5C 14.2717,143.57 17.2717,159.237 22,174.5C 26.8919,187.57 33.7252,199.57 42.5,210.5C 41.1413,212.306 41.4746,213.806 43.5,215C 41.6536,216.03 39.9869,217.196 38.5,218.5 Z"/></g>
<g><path style="opacity:0.953" fill="#76b6fb" d="M 278.5,126.5 C 280.851,128.744 283.518,129.077 286.5,127.5C 286.328,128.492 286.662,129.158 287.5,129.5C 287.5,142.5 287.5,155.5 287.5,168.5C 284.062,198.239 276.229,226.906 264,254.5C 262.406,256.297 260.406,257.297 258,257.5C 252.429,255.297 246.929,252.963 241.5,250.5C 243.539,249.089 244.539,247.089 244.5,244.5C 245.5,244.5 246.5,244.5 247.5,244.5C 250.721,245.573 253.888,245.573 257,244.5C 272.708,206.787 279.875,167.454 278.5,126.5 Z"/></g>
<g><path style="opacity:0.972" fill="#67dbfc" d="M 180.5,160.5 C 182.05,161.441 183.716,162.107 185.5,162.5C 200.691,168.256 216.024,173.756 231.5,179C 232.931,179.465 234.097,180.299 235,181.5C 235.776,188.3 235.109,194.967 233,201.5C 229.992,211.843 226.159,221.843 221.5,231.5C 219.638,233.891 218.304,236.558 217.5,239.5C 208.741,253.592 197.075,264.592 182.5,272.5C 179.408,270.287 176.074,268.621 172.5,267.5C 182.071,261.598 190.404,254.264 197.5,245.5C 212.185,228.123 221.519,208.123 225.5,185.5C 225.124,183.617 224.124,182.117 222.5,181C 216.846,179.06 211.18,177.226 205.5,175.5C 203.68,173.552 201.346,172.552 198.5,172.5C 188.388,168.126 178.055,164.126 167.5,160.5C 163.089,158.138 158.423,156.138 153.5,154.5C 150.341,152.92 147.007,151.92 143.5,151.5C 144.249,149.754 145.583,148.754 147.5,148.5C 158.629,152.235 169.629,156.235 180.5,160.5 Z"/></g>
<g><path style="opacity:1" fill="#1c5fa1" d="M 233.5,237.5 C 231.447,237.598 229.78,236.931 228.5,235.5C 229.5,235.5 230.5,235.5 231.5,235.5C 236.504,218.824 241.504,202.157 246.5,185.5C 244.929,178.867 240.929,174.367 234.5,172C 220.109,166.647 205.609,161.48 191,156.5C 189.172,158.137 187.339,159.803 185.5,161.5C 186.517,156.793 189.017,153.126 193,150.5C 207.505,155.83 222.005,161.33 236.5,167C 250.823,173.28 254.99,183.78 249,198.5C 244.665,211.178 240.331,223.845 236,236.5C 235.329,237.252 234.496,237.586 233.5,237.5 Z"/></g>
<g><path style="opacity:1" fill="#1a5998" d="M 228.5,235.5 C 225.379,235.264 223.046,233.931 221.5,231.5C 226.159,221.843 229.992,211.843 233,201.5C 235.109,194.967 235.776,188.3 235,181.5C 234.097,180.299 232.931,179.465 231.5,179C 216.024,173.756 200.691,168.256 185.5,162.5C 185.5,162.167 185.5,161.833 185.5,161.5C 187.339,159.803 189.172,158.137 191,156.5C 205.609,161.48 220.109,166.647 234.5,172C 240.929,174.367 244.929,178.867 246.5,185.5C 241.504,202.157 236.504,218.824 231.5,235.5C 230.5,235.5 229.5,235.5 228.5,235.5 Z"/></g>
<g><path style="opacity:0.972" fill="#40bcf4" d="M 95.5,170.5 C 93.6321,175.437 91.9654,180.437 90.5,185.5C 85.9451,182.971 81.4451,180.304 77,177.5C 76.7216,178.416 76.2216,179.082 75.5,179.5C 76.5489,173.403 78.7155,167.736 82,162.5C 82.6667,163.833 83.3333,163.833 84,162.5C 84.6838,163.784 84.5171,164.951 83.5,166C 84.4491,166.617 85.2825,166.451 86,165.5C 88.5661,168.366 91.7328,170.032 95.5,170.5 Z"/></g>
<g><path style="opacity:1" fill="#2066ad" d="M 237.5,239.5 C 235.847,239.34 234.514,238.674 233.5,237.5C 234.496,237.586 235.329,237.252 236,236.5C 240.331,223.845 244.665,211.178 249,198.5C 254.99,183.78 250.823,173.28 236.5,167C 222.005,161.33 207.505,155.83 193,150.5C 189.017,153.126 186.517,156.793 185.5,161.5C 184.427,160.749 184.26,159.749 185,158.5C 186.063,155.118 187.563,152.118 189.5,149.5C 190.304,147.811 191.304,146.145 192.5,144.5C 194.421,143.359 196.421,143.192 198.5,144C 215.223,151.176 231.556,159.01 247.5,167.5C 254.548,173.134 257.381,180.467 256,189.5C 250.833,206.17 245.666,222.836 240.5,239.5C 239.5,239.5 238.5,239.5 237.5,239.5 Z"/></g>
<g><path style="opacity:1" fill="#d0cfd6" d="M -0.5,156.5 C 0.586173,156.62 1.25284,157.287 1.5,158.5C 2.63067,162.823 3.63067,167.156 4.5,171.5C 5.74027,178.276 7.40694,184.943 9.5,191.5C 7.51894,188.872 6.01894,185.872 5,182.5C 4.17229,177.024 2.83896,171.691 1,166.5C 0.617425,167.056 0.117425,167.389 -0.5,167.5C -0.5,163.833 -0.5,160.167 -0.5,156.5 Z"/></g>
<g><path style="opacity:0.989" fill="#47bfe3" d="M 143.5,151.5 C 147.007,151.92 150.341,152.92 153.5,154.5C 152.402,155.397 152.402,156.23 153.5,157C 149.457,158.69 145.624,160.857 142,163.5C 140.072,166.851 138.572,170.351 137.5,174C 137.833,174.333 138.167,174.667 138.5,175C 137.508,180.168 135.842,185.002 133.5,189.5C 133.631,193.154 135.298,195.987 138.5,198C 142.653,200.912 146.987,203.579 151.5,206C 158.867,211.69 166.534,217.024 174.5,222C 178.002,222.694 181.336,222.194 184.5,220.5C 185.797,216.23 188.297,212.896 192,210.5C 196.36,200.905 196.527,191.239 192.5,181.5C 195.112,182.277 196.945,183.944 198,186.5C 198.667,191.833 198.667,197.167 198,202.5C 195.849,207.436 193.849,212.436 192,217.5C 189.066,221.062 186.399,224.729 184,228.5C 181.209,229.562 178.543,230.895 176,232.5C 168.753,230.822 162.087,226.822 156,220.5C 147.316,215.851 138.816,210.185 130.5,203.5C 125.966,199.553 125.299,195.387 128.5,191C 127.729,189.002 128.395,187.335 130.5,186C 129.906,185.536 129.239,185.369 128.5,185.5C 134.573,174.683 139.573,163.35 143.5,151.5 Z"/></g>
<g><path style="opacity:0.918" fill="#fac7c7" d="M 9.5,191.5 C 9.22911,193.38 9.89578,194.713 11.5,195.5C 11.523,197.927 12.023,200.26 13,202.5C 14.6756,206.527 16.8423,210.194 19.5,213.5C 19.3433,214.873 19.51,216.207 20,217.5C 23.079,222.882 26.9123,227.548 31.5,231.5C 38.1823,239.335 45.849,246.001 54.5,251.5C 55.1667,251.5 55.8333,251.5 56.5,251.5C 57.973,253.395 59.6397,255.061 61.5,256.5C 67.5162,261.178 74.1829,264.845 81.5,267.5C 83.0452,270.109 84.7118,270.109 86.5,267.5C 90.9821,270.818 95.8154,273.485 101,275.5C 106.624,279.393 112.458,282.893 118.5,286C 117.584,286.278 116.918,286.778 116.5,287.5C 116.167,287.5 115.833,287.5 115.5,287.5C 50.7373,274.404 12.0707,235.404 -0.5,170.5C -0.5,169.5 -0.5,168.5 -0.5,167.5C 0.117425,167.389 0.617425,167.056 1,166.5C 2.83896,171.691 4.17229,177.024 5,182.5C 6.01894,185.872 7.51894,188.872 9.5,191.5 Z"/></g>
<g><path style="opacity:1" fill="#4bc6ea" d="M 153.5,154.5 C 158.423,156.138 163.089,158.138 167.5,160.5C 166.127,160.343 164.793,160.51 163.5,161C 173.547,167.351 183.213,174.185 192.5,181.5C 196.527,191.239 196.36,200.905 192,210.5C 188.297,212.896 185.797,216.23 184.5,220.5C 181.336,222.194 178.002,222.694 174.5,222C 166.534,217.024 158.867,211.69 151.5,206C 146.987,203.579 142.653,200.912 138.5,198C 135.298,195.987 133.631,193.154 133.5,189.5C 135.842,185.002 137.508,180.168 138.5,175C 138.167,174.667 137.833,174.333 137.5,174C 138.572,170.351 140.072,166.851 142,163.5C 145.624,160.857 149.457,158.69 153.5,157C 152.402,156.23 152.402,155.397 153.5,154.5 Z"/></g>
<g><path style="opacity:1" fill="#53cff4" d="M 149.5,160.5 C 164.558,168.388 178.391,178.054 191,189.5C 194.575,201.036 190.908,209.703 180,215.5C 177.828,214.088 175.662,213.588 173.5,214C 172.54,212.581 171.707,211.081 171,209.5C 170.667,209.833 170.333,210.167 170,210.5C 159.392,203.276 149.392,195.943 140,188.5C 139.125,187.127 138.625,185.627 138.5,184C 140.258,177.802 142.091,171.635 144,165.5C 146.191,164.167 148.024,162.5 149.5,160.5 Z"/></g>
<g><path style="opacity:1" fill="#ade4e6" d="M 4.5,171.5 C 5.16667,171.833 5.83333,172.167 6.5,172.5C 6.26269,173.791 6.59603,174.791 7.5,175.5C 8.8305,182.163 10.1638,188.83 11.5,195.5C 9.89578,194.713 9.22911,193.38 9.5,191.5C 7.40694,184.943 5.74027,178.276 4.5,171.5 Z"/></g>
<g><path style="opacity:0.966" fill="#5abeee" d="M 90.5,185.5 C 90.1417,188.267 89.475,190.933 88.5,193.5C 84.0297,191.431 79.6964,189.098 75.5,186.5C 74.8182,187.243 74.1515,187.909 73.5,188.5C 73.8726,185.426 74.5392,182.426 75.5,179.5C 76.2216,179.082 76.7216,178.416 77,177.5C 81.4451,180.304 85.9451,182.971 90.5,185.5 Z"/></g>
<g><path style="opacity:1" fill="#31aacd" d="M 205.5,175.5 C 211.18,177.226 216.846,179.06 222.5,181C 224.124,182.117 225.124,183.617 225.5,185.5C 221.519,208.123 212.185,228.123 197.5,245.5C 195.801,245.66 194.134,245.494 192.5,245C 193.833,244.333 193.833,243.667 192.5,243C 193.167,242.667 193.833,242.333 194.5,242C 193.572,241.612 192.905,240.945 192.5,240C 193.986,239.749 194.986,238.415 195.5,236C 195.167,235 194.833,234 194.5,233C 195.701,232.097 196.535,230.931 197,229.5C 199.978,221.118 202.145,212.785 203.5,204.5C 204.975,197.375 205.975,190.208 206.5,183C 205.5,180.667 204.5,178.333 203.5,176C 204.094,175.536 204.761,175.369 205.5,175.5 Z"/></g>
<g><path style="opacity:0.993" fill="#73bfe8" d="M 88.5,193.5 C 87.9619,197.524 87.2952,201.524 86.5,205.5C 82.3484,202.923 78.015,200.589 73.5,198.5C 72.8243,199.602 72.1577,200.602 71.5,201.5C 71.5,199.833 71.5,198.167 71.5,196.5C 72.404,195.791 72.7373,194.791 72.5,193.5C 72.6287,191.784 72.962,190.117 73.5,188.5C 74.1515,187.909 74.8182,187.243 75.5,186.5C 79.6964,189.098 84.0297,191.431 88.5,193.5 Z"/></g>
<g><path style="opacity:1" fill="#43badd" d="M 167.5,160.5 C 178.055,164.126 188.388,168.126 198.5,172.5C 197.761,172.369 197.094,172.536 196.5,173C 199.242,179.384 201.242,185.884 202.5,192.5C 200.016,208.004 194.683,222.004 186.5,234.5C 184.473,235.693 182.973,237.36 182,239.5C 179.241,238.346 176.575,238.679 174,240.5C 171.804,239.91 169.638,239.243 167.5,238.5C 166.614,237.675 166.281,236.675 166.5,235.5C 162.31,233.477 158.477,230.81 155,227.5C 154,227.5 153,227.5 152,227.5C 151.517,226.552 151.351,225.552 151.5,224.5C 149.42,223.956 147.42,223.122 145.5,222C 144.874,221.25 144.374,220.416 144,219.5C 143.667,219.833 143.333,220.167 143,220.5C 139.927,219.761 137.76,217.928 136.5,215C 132.545,213.096 129.379,210.93 127,208.5C 125.989,209.337 124.822,209.67 123.5,209.5C 123.5,208.5 123.5,207.5 123.5,206.5C 121.436,206.313 119.436,205.813 117.5,205C 117.833,204.667 118.167,204.333 118.5,204C 116.942,203.79 115.609,203.29 114.5,202.5C 119.416,196.978 124.083,191.311 128.5,185.5C 129.239,185.369 129.906,185.536 130.5,186C 128.395,187.335 127.729,189.002 128.5,191C 125.299,195.387 125.966,199.553 130.5,203.5C 138.816,210.185 147.316,215.851 156,220.5C 162.087,226.822 168.753,230.822 176,232.5C 178.543,230.895 181.209,229.562 184,228.5C 186.399,224.729 189.066,221.062 192,217.5C 193.849,212.436 195.849,207.436 198,202.5C 198.667,197.167 198.667,191.833 198,186.5C 196.945,183.944 195.112,182.277 192.5,181.5C 183.213,174.185 173.547,167.351 163.5,161C 164.793,160.51 166.127,160.343 167.5,160.5 Z"/></g>
<g><path style="opacity:1" fill="#ddd6d4" d="M 11.5,195.5 C 13.1991,197.566 14.5324,199.9 15.5,202.5C 17.1479,206.114 18.4813,209.781 19.5,213.5C 16.8423,210.194 14.6756,206.527 13,202.5C 12.023,200.26 11.523,197.927 11.5,195.5 Z"/></g>
<g><path style="opacity:1" fill="#3fb4d7" d="M 202.5,192.5 C 202.645,196.325 202.645,200.158 202.5,204C 198.546,217.87 192.88,230.537 185.5,242C 185.833,242.333 186.167,242.667 186.5,243C 183.786,246.724 180.619,250.224 177,253.5C 176.333,252.167 175.667,250.833 175,249.5C 173.093,249.421 171.093,249.754 169,250.5C 153.955,239.057 138.455,228.224 122.5,218C 117.977,212.05 112.31,210.883 105.5,214.5C 103.787,214.121 102.787,213.121 102.5,211.5C 106.5,208.5 110.5,205.5 114.5,202.5C 115.609,203.29 116.942,203.79 118.5,204C 118.167,204.333 117.833,204.667 117.5,205C 119.436,205.813 121.436,206.313 123.5,206.5C 123.5,207.5 123.5,208.5 123.5,209.5C 124.822,209.67 125.989,209.337 127,208.5C 129.379,210.93 132.545,213.096 136.5,215C 137.76,217.928 139.927,219.761 143,220.5C 143.333,220.167 143.667,219.833 144,219.5C 144.374,220.416 144.874,221.25 145.5,222C 147.42,223.122 149.42,223.956 151.5,224.5C 151.351,225.552 151.517,226.552 152,227.5C 153,227.5 154,227.5 155,227.5C 158.477,230.81 162.31,233.477 166.5,235.5C 166.281,236.675 166.614,237.675 167.5,238.5C 169.638,239.243 171.804,239.91 174,240.5C 176.575,238.679 179.241,238.346 182,239.5C 182.973,237.36 184.473,235.693 186.5,234.5C 194.683,222.004 200.016,208.004 202.5,192.5 Z"/></g>
<g><path style="opacity:1" fill="#9ef3ed" d="M 15.5,202.5 C 17.5596,203.215 19.2263,204.549 20.5,206.5C 22.9791,212.229 25.9791,217.563 29.5,222.5C 30.4408,224.05 31.1075,225.716 31.5,227.5C 29.7708,226.883 28.2708,225.883 27,224.5C 25.4182,220.106 22.9182,216.439 19.5,213.5C 18.4813,209.781 17.1479,206.114 15.5,202.5 Z"/></g>
<g><path style="opacity:0.989" fill="#3baed0" d="M 198.5,172.5 C 201.346,172.552 203.68,173.552 205.5,175.5C 204.761,175.369 204.094,175.536 203.5,176C 204.5,178.333 205.5,180.667 206.5,183C 205.975,190.208 204.975,197.375 203.5,204.5C 202.145,212.785 199.978,221.118 197,229.5C 196.535,230.931 195.701,232.097 194.5,233C 194.833,234 195.167,235 195.5,236C 194.986,238.415 193.986,239.749 192.5,240C 192.905,240.945 193.572,241.612 194.5,242C 193.833,242.333 193.167,242.667 192.5,243C 193.833,243.667 193.833,244.333 192.5,245C 194.134,245.494 195.801,245.66 197.5,245.5C 190.404,254.264 182.071,261.598 172.5,267.5C 169.314,268.597 166.314,269.93 163.5,271.5C 160.994,272.75 158.327,273.416 155.5,273.5C 156.809,270.814 157.809,267.98 158.5,265C 157.833,264 157.167,263 156.5,262C 157.956,261.577 158.456,260.744 158,259.5C 157.667,259.833 157.333,260.167 157,260.5C 145.517,250.847 133.351,242.181 120.5,234.5C 120.881,232.058 120.214,231.391 118.5,232.5C 113.969,229.073 109.303,225.906 104.5,223C 103.874,222.25 103.374,221.416 103,220.5C 97.1038,221.621 90.9372,222.621 84.5,223.5C 84.5,222.167 84.5,220.833 84.5,219.5C 85.1667,219.5 85.5,219.167 85.5,218.5C 91.5971,217.136 97.2638,214.803 102.5,211.5C 102.787,213.121 103.787,214.121 105.5,214.5C 112.31,210.883 117.977,212.05 122.5,218C 138.455,228.224 153.955,239.057 169,250.5C 171.093,249.754 173.093,249.421 175,249.5C 175.667,250.833 176.333,252.167 177,253.5C 180.619,250.224 183.786,246.724 186.5,243C 186.167,242.667 185.833,242.333 185.5,242C 192.88,230.537 198.546,217.87 202.5,204C 202.645,200.158 202.645,196.325 202.5,192.5C 201.242,185.884 199.242,179.384 196.5,173C 197.094,172.536 197.761,172.369 198.5,172.5 Z"/></g>
<g><path style="opacity:1" fill="#8cc1e2" d="M 86.5,205.5 C 85.9198,209.81 85.5865,214.143 85.5,218.5C 85.5,219.167 85.1667,219.5 84.5,219.5C 82.3588,215.739 79.0255,213.405 74.5,212.5C 73.6667,211.5 72.8333,210.5 72,209.5C 71.8138,212.036 71.3138,214.369 70.5,216.5C 70.5,214.833 70.5,213.167 70.5,211.5C 70.5,209.833 70.5,208.167 70.5,206.5C 70.5,205.167 70.5,203.833 70.5,202.5C 71.1667,202.5 71.5,202.167 71.5,201.5C 72.1577,200.602 72.8243,199.602 73.5,198.5C 78.015,200.589 82.3484,202.923 86.5,205.5 Z"/></g>
<g><path style="opacity:1" fill="#a5c3dc" d="M 84.5,219.5 C 84.5,220.833 84.5,222.167 84.5,223.5C 84.5,225.833 84.5,228.167 84.5,230.5C 80.555,228.19 76.555,225.857 72.5,223.5C 71.5344,225.396 71.2011,227.396 71.5,229.5C 71.1667,229.5 70.8333,229.5 70.5,229.5C 70.5,225.833 70.5,222.167 70.5,218.5C 70.5,217.833 70.5,217.167 70.5,216.5C 71.3138,214.369 71.8138,212.036 72,209.5C 72.8333,210.5 73.6667,211.5 74.5,212.5C 79.0255,213.405 82.3588,215.739 84.5,219.5 Z"/></g>
<g><path style="opacity:1" fill="#7cefed" d="M 56.5,212.5 C 58.5167,214.217 58.85,216.217 57.5,218.5C 59.6301,221.215 59.2968,223.715 56.5,226C 50.3624,230.787 43.3624,232.954 35.5,232.5C 34.1667,231.5 32.8333,230.5 31.5,229.5C 31.5,228.833 31.5,228.167 31.5,227.5C 31.1075,225.716 30.4408,224.05 29.5,222.5C 32.6865,221.403 35.6865,220.07 38.5,218.5C 41.033,219.561 43.033,218.728 44.5,216C 47.6412,215.684 50.3078,214.517 52.5,212.5C 54.035,211.646 55.3684,211.646 56.5,212.5 Z"/></g>
<g><path style="opacity:1" fill="#e6d0cf" d="M 19.5,213.5 C 22.9182,216.439 25.4182,220.106 27,224.5C 28.2708,225.883 29.7708,226.883 31.5,227.5C 31.5,228.167 31.5,228.833 31.5,229.5C 31.5,230.167 31.5,230.833 31.5,231.5C 26.9123,227.548 23.079,222.882 20,217.5C 19.51,216.207 19.3433,214.873 19.5,213.5 Z"/></g>
<g><path style="opacity:1" fill="#34a1c1" d="M 155.5,273.5 C 154.5,274.167 153.5,274.833 152.5,275.5C 147.196,276.384 141.863,277.051 136.5,277.5C 137.919,276.549 139.585,276.216 141.5,276.5C 141.034,274.799 141.034,273.299 141.5,272C 123.985,259.08 106.318,246.413 88.5,234C 87.5838,233.626 86.7504,233.126 86,232.5C 85.6012,232.728 85.4346,233.062 85.5,233.5C 84.596,232.791 84.2627,231.791 84.5,230.5C 84.5,228.167 84.5,225.833 84.5,223.5C 90.9372,222.621 97.1038,221.621 103,220.5C 103.374,221.416 103.874,222.25 104.5,223C 109.303,225.906 113.969,229.073 118.5,232.5C 120.214,231.391 120.881,232.058 120.5,234.5C 133.351,242.181 145.517,250.847 157,260.5C 157.333,260.167 157.667,259.833 158,259.5C 158.456,260.744 157.956,261.577 156.5,262C 157.167,263 157.833,264 158.5,265C 157.809,267.98 156.809,270.814 155.5,273.5 Z"/></g>
<g><path style="opacity:1" fill="#6fdddf" d="M 56.5,212.5 C 58.8583,212.253 60.8583,212.919 62.5,214.5C 64.3949,216.241 66.7282,217.241 69.5,217.5C 69.5,218.167 69.8333,218.5 70.5,218.5C 70.5,222.167 70.5,225.833 70.5,229.5C 70.7394,231.467 70.4061,233.301 69.5,235C 62.4311,237.743 55.4311,240.577 48.5,243.5C 43.8482,240.179 39.5149,236.513 35.5,232.5C 43.3624,232.954 50.3624,230.787 56.5,226C 59.2968,223.715 59.6301,221.215 57.5,218.5C 58.85,216.217 58.5167,214.217 56.5,212.5 Z"/></g>
<g><path style="opacity:1" fill="#2f99b8" d="M 136.5,277.5 C 136.5,277.833 136.5,278.167 136.5,278.5C 133.833,278.5 131.167,278.5 128.5,278.5C 130.292,277.691 132.292,277.191 134.5,277C 126.063,269.941 117.063,263.608 107.5,258C 102.74,255.061 98.5731,251.561 95,247.5C 94.6667,247.833 94.3333,248.167 94,248.5C 92,246.833 90,245.167 88,243.5C 87.5357,244.094 87.369,244.761 87.5,245.5C 86.8333,245.5 86.5,245.167 86.5,244.5C 85.7564,240.881 85.423,237.215 85.5,233.5C 85.4346,233.062 85.6012,232.728 86,232.5C 86.7504,233.126 87.5838,233.626 88.5,234C 106.318,246.413 123.985,259.08 141.5,272C 141.034,273.299 141.034,274.799 141.5,276.5C 139.585,276.216 137.919,276.549 136.5,277.5 Z"/></g>
<g><path style="opacity:1" fill="#b2d1d1" d="M 31.5,229.5 C 32.8333,230.5 34.1667,231.5 35.5,232.5C 39.5149,236.513 43.8482,240.179 48.5,243.5C 48.8333,244.167 49.1667,244.833 49.5,245.5C 51.1667,247.5 52.8333,249.5 54.5,251.5C 45.849,246.001 38.1823,239.335 31.5,231.5C 31.5,230.833 31.5,230.167 31.5,229.5 Z"/></g>
<g><path style="opacity:1" fill="#bdc4d6" d="M 84.5,230.5 C 84.2627,231.791 84.596,232.791 85.5,233.5C 85.423,237.215 85.7564,240.881 86.5,244.5C 82.1226,242.561 77.9559,240.228 74,237.5C 73.5172,238.448 73.3505,239.448 73.5,240.5C 72.8333,238.5 72.1667,236.5 71.5,234.5C 71.5,232.833 71.5,231.167 71.5,229.5C 71.2011,227.396 71.5344,225.396 72.5,223.5C 76.555,225.857 80.555,228.19 84.5,230.5 Z"/></g>
<g><path style="opacity:0.887" fill="#336da7" d="M 221.5,231.5 C 223.046,233.931 225.379,235.264 228.5,235.5C 229.78,236.931 231.447,237.598 233.5,237.5C 234.514,238.674 235.847,239.34 237.5,239.5C 237.5,239.833 237.5,240.167 237.5,240.5C 235.605,241.973 233.939,243.64 232.5,245.5C 227.387,243.777 222.387,241.777 217.5,239.5C 218.304,236.558 219.638,233.891 221.5,231.5 Z"/></g>
<g><path style="opacity:1" fill="#60c8cc" d="M 70.5,229.5 C 70.8333,229.5 71.1667,229.5 71.5,229.5C 71.5,231.167 71.5,232.833 71.5,234.5C 71.7564,236.792 71.4231,238.959 70.5,241C 64.7943,243.069 59.1276,245.235 53.5,247.5C 52.3777,246.37 51.0443,245.703 49.5,245.5C 49.1667,244.833 48.8333,244.167 48.5,243.5C 55.4311,240.577 62.4311,237.743 69.5,235C 70.4061,233.301 70.7394,231.467 70.5,229.5 Z"/></g>
<g><path style="opacity:1" fill="#56b6be" d="M 71.5,234.5 C 72.1667,236.5 72.8333,238.5 73.5,240.5C 74.3436,244.874 75.3436,249.207 76.5,253.5C 73.6819,254.97 70.6819,255.97 67.5,256.5C 64.8839,255.52 62.5506,254.02 60.5,252C 59.2068,251.51 57.8734,251.343 56.5,251.5C 55.8333,251.5 55.1667,251.5 54.5,251.5C 52.8333,249.5 51.1667,247.5 49.5,245.5C 51.0443,245.703 52.3777,246.37 53.5,247.5C 59.1276,245.235 64.7943,243.069 70.5,241C 71.4231,238.959 71.7564,236.792 71.5,234.5 Z"/></g>
<g><path style="opacity:1" fill="#2c93b1" d="M 128.5,278.5 C 125.167,278.5 121.833,278.5 118.5,278.5C 114.466,278.328 110.466,277.828 106.5,277C 100.902,272.239 96.235,266.739 92.5,260.5C 89.8307,255.825 88.164,250.825 87.5,245.5C 87.369,244.761 87.5357,244.094 88,243.5C 90,245.167 92,246.833 94,248.5C 94.3333,248.167 94.6667,247.833 95,247.5C 98.5731,251.561 102.74,255.061 107.5,258C 117.063,263.608 126.063,269.941 134.5,277C 132.292,277.191 130.292,277.691 128.5,278.5 Z"/></g>
<g><path style="opacity:1" fill="#5997d7" d="M 237.5,240.5 C 238.5,240.5 239.5,240.5 240.5,240.5C 240.842,241.338 241.508,241.672 242.5,241.5C 243.93,242.537 245.597,243.204 247.5,243.5C 247.5,243.833 247.5,244.167 247.5,244.5C 246.5,244.5 245.5,244.5 244.5,244.5C 244.539,247.089 243.539,249.089 241.5,250.5C 238.304,249.071 235.304,247.405 232.5,245.5C 233.939,243.64 235.605,241.973 237.5,240.5 Z"/></g>
<g><path style="opacity:1" fill="#d5c5d0" d="M 86.5,244.5 C 86.5,245.167 86.8333,245.5 87.5,245.5C 88.164,250.825 89.8307,255.825 92.5,260.5C 88.0614,258.446 83.728,256.113 79.5,253.5C 78.7025,253.957 78.3691,254.624 78.5,255.5C 77.8333,254.833 77.1667,254.167 76.5,253.5C 75.3436,249.207 74.3436,244.874 73.5,240.5C 73.3505,239.448 73.5172,238.448 74,237.5C 77.9559,240.228 82.1226,242.561 86.5,244.5 Z"/></g>
<g><path style="opacity:1" fill="#509caa" d="M 76.5,253.5 C 77.1667,254.167 77.8333,254.833 78.5,255.5C 79.663,259.35 81.3297,263.017 83.5,266.5C 83.0431,267.298 82.3764,267.631 81.5,267.5C 78.672,265.252 75.672,263.252 72.5,261.5C 71.1879,259.521 69.5212,257.855 67.5,256.5C 70.6819,255.97 73.6819,254.97 76.5,253.5 Z"/></g>
<g><path style="opacity:1" fill="#79afb8" d="M 56.5,251.5 C 57.8734,251.343 59.2068,251.51 60.5,252C 62.5506,254.02 64.8839,255.52 67.5,256.5C 69.5212,257.855 71.1879,259.521 72.5,261.5C 68.6837,260.091 65.0171,258.424 61.5,256.5C 59.6397,255.061 57.973,253.395 56.5,251.5 Z"/></g>
<g><path style="opacity:1" fill="#d1bcbf" d="M 61.5,256.5 C 65.0171,258.424 68.6837,260.091 72.5,261.5C 75.672,263.252 78.672,265.252 81.5,267.5C 74.1829,264.845 67.5162,261.178 61.5,256.5 Z"/></g>
<g><path style="opacity:1" fill="#ecc6cb" d="M 92.5,260.5 C 96.235,266.739 100.902,272.239 106.5,277C 110.466,277.828 114.466,278.328 118.5,278.5C 126.506,278.999 133.506,281.999 139.5,287.5C 131.833,287.5 124.167,287.5 116.5,287.5C 116.918,286.778 117.584,286.278 118.5,286C 112.458,282.893 106.624,279.393 101,275.5C 95.8154,273.485 90.9821,270.818 86.5,267.5C 84.7118,270.109 83.0452,270.109 81.5,267.5C 82.3764,267.631 83.0431,267.298 83.5,266.5C 81.3297,263.017 79.663,259.35 78.5,255.5C 78.3691,254.624 78.7025,253.957 79.5,253.5C 83.728,256.113 88.0614,258.446 92.5,260.5 Z"/></g>
<g><path style="opacity:0.977" fill="#94d5ed" d="M 172.5,267.5 C 176.074,268.621 179.408,270.287 182.5,272.5C 180.664,274.588 178.331,275.921 175.5,276.5C 172.304,272.985 168.304,271.319 163.5,271.5C 166.314,269.93 169.314,268.597 172.5,267.5 Z"/></g>
<g><path style="opacity:0.954" fill="#aad2e5" d="M 163.5,271.5 C 168.304,271.319 172.304,272.985 175.5,276.5C 172.744,278.204 169.744,279.537 166.5,280.5C 163.313,278.65 160.147,276.65 157,274.5C 155.644,275.38 154.144,275.714 152.5,275.5C 153.5,274.833 154.5,274.167 155.5,273.5C 158.327,273.416 160.994,272.75 163.5,271.5 Z"/></g>
<g><path style="opacity:1" fill="#c6cdda" d="M 166.5,280.5 C 162.499,282.589 158.165,283.922 153.5,284.5C 150.726,283.277 148.059,281.777 145.5,280C 142.607,278.851 139.607,278.351 136.5,278.5C 136.5,278.167 136.5,277.833 136.5,277.5C 141.863,277.051 147.196,276.384 152.5,275.5C 154.144,275.714 155.644,275.38 157,274.5C 160.147,276.65 163.313,278.65 166.5,280.5 Z"/></g>
<g><path style="opacity:0.899" fill="#e2c9cf" d="M 118.5,278.5 C 121.833,278.5 125.167,278.5 128.5,278.5C 131.167,278.5 133.833,278.5 136.5,278.5C 139.607,278.351 142.607,278.851 145.5,280C 148.059,281.777 150.726,283.277 153.5,284.5C 149.858,285.607 146.191,286.607 142.5,287.5C 141.5,287.5 140.5,287.5 139.5,287.5C 133.506,281.999 126.506,278.999 118.5,278.5 Z"/></g>
</svg>
