<?xml version="1.0" encoding="UTF-8"?>
<!DOCTYPE svg PUBLIC "-//W3C//DTD SVG 1.1//EN" "http://www.w3.org/Graphics/SVG/1.1/DTD/svg11.dtd">
<svg xmlns="http://www.w3.org/2000/svg" version="1.1" width="320px" height="320px" style="shape-rendering:geometricPrecision; text-rendering:geometricPrecision; image-rendering:optimizeQuality; fill-rule:evenodd; clip-rule:evenodd" xmlns:xlink="http://www.w3.org/1999/xlink">
<g><path style="opacity:0.994" fill="#000000" d="M 141.5,-0.5 C 153.5,-0.5 165.5,-0.5 177.5,-0.5C 245.031,10.2025 290.197,47.8692 313,112.5C 315.764,122.17 317.931,131.837 319.5,141.5C 319.5,153.5 319.5,165.5 319.5,177.5C 308.798,245.031 271.131,290.197 206.5,313C 196.83,315.764 187.163,317.931 177.5,319.5C 165.5,319.5 153.5,319.5 141.5,319.5C 73.9694,308.798 28.8028,271.131 6,206.5C 3.23573,196.83 1.06906,187.163 -0.5,177.5C -0.5,165.5 -0.5,153.5 -0.5,141.5C 10.2025,73.9694 47.8692,28.8028 112.5,6C 122.17,3.23573 131.837,1.06906 141.5,-0.5 Z"/></g>
<g><path style="opacity:1" fill="#fcfcfc" d="M 131.5,84.5 C 142.404,86.0807 151.737,90.7473 159.5,98.5C 167.14,91.1894 176.14,86.5227 186.5,84.5C 187.833,84.5 189.167,84.5 190.5,84.5C 190.5,92.5 190.5,100.5 190.5,108.5C 182.085,110.41 176.252,115.41 173,123.5C 171.864,135.433 171.364,147.433 171.5,159.5C 171.364,171.567 171.864,183.567 173,195.5C 176.243,203.58 182.076,208.58 190.5,210.5C 190.5,218.5 190.5,226.5 190.5,234.5C 189.167,234.5 187.833,234.5 186.5,234.5C 176.14,232.477 167.14,227.811 159.5,220.5C 151.518,227.824 142.185,232.491 131.5,234.5C 130.5,234.5 129.5,234.5 128.5,234.5C 128.5,226.5 128.5,218.5 128.5,210.5C 136.924,208.58 142.757,203.58 146,195.5C 147.136,183.567 147.636,171.567 147.5,159.5C 147.333,148.5 147.167,137.5 147,126.5C 144.278,116.944 138.111,110.944 128.5,108.5C 128.5,100.5 128.5,92.5 128.5,84.5C 129.5,84.5 130.5,84.5 131.5,84.5 Z"/></g>
<g><path style="opacity:1" fill="#7d7d7d" d="M 131.5,84.5 C 130.5,84.5 129.5,84.5 128.5,84.5C 128.5,92.5 128.5,100.5 128.5,108.5C 127.507,100.35 127.174,92.0168 127.5,83.5C 129.099,83.2322 130.432,83.5655 131.5,84.5 Z"/></g>
<g><path style="opacity:1" fill="#b2b2b2" d="M 186.5,84.5 C 187.919,83.5489 189.585,83.2155 191.5,83.5C 191.826,92.0168 191.493,100.35 190.5,108.5C 190.5,100.5 190.5,92.5 190.5,84.5C 189.167,84.5 187.833,84.5 186.5,84.5 Z"/></g>
<g><path style="opacity:1" fill="#7c7c7c" d="M 128.5,210.5 C 128.5,218.5 128.5,226.5 128.5,234.5C 129.5,234.5 130.5,234.5 131.5,234.5C 130.432,235.434 129.099,235.768 127.5,235.5C 127.174,226.983 127.507,218.65 128.5,210.5 Z"/></g>
<g><path style="opacity:1" fill="#b3b3b3" d="M 190.5,210.5 C 191.493,218.65 191.826,226.983 191.5,235.5C 189.585,235.784 187.919,235.451 186.5,234.5C 187.833,234.5 189.167,234.5 190.5,234.5C 190.5,226.5 190.5,218.5 190.5,210.5 Z"/></g>
</svg>
