<?xml version="1.0" encoding="UTF-8"?>
<!DOCTYPE svg PUBLIC "-//W3C//DTD SVG 1.1//EN" "http://www.w3.org/Graphics/SVG/1.1/DTD/svg11.dtd">
<svg xmlns="http://www.w3.org/2000/svg" version="1.1" width="500px" height="500px" style="shape-rendering:geometricPrecision; text-rendering:geometricPrecision; image-rendering:optimizeQuality; fill-rule:evenodd; clip-rule:evenodd" xmlns:xlink="http://www.w3.org/1999/xlink">
<g><path style="opacity:0.525" fill="#949496" d="M 308.5,186.5 C 318.674,185.177 329.007,185.177 339.5,186.5C 338.145,188.521 336.479,190.188 334.5,191.5C 334.5,189.833 334.5,188.167 334.5,186.5C 325.833,186.5 317.167,186.5 308.5,186.5 Z"/></g>
<g><path style="opacity:1" fill="#eff0f1" d="M 308.5,186.5 C 317.167,186.5 325.833,186.5 334.5,186.5C 334.5,188.167 334.5,189.833 334.5,191.5C 323.035,203.465 311.369,215.298 299.5,227C 288.968,234.823 277.968,235.49 266.5,229C 259.136,221.302 251.47,213.969 243.5,207C 223.167,206.333 202.833,206.333 182.5,207C 175.812,213.04 176.479,218.373 184.5,223C 198.143,224.783 211.81,224.95 225.5,223.5C 236.167,223.514 246.5,225.348 256.5,229C 260.748,231.243 264.414,234.243 267.5,238C 264.283,240.716 261.616,243.883 259.5,247.5C 258.833,247.5 258.5,247.833 258.5,248.5C 257.833,248.5 257.5,248.833 257.5,249.5C 256.833,249.5 256.5,249.833 256.5,250.5C 255.167,250.5 254.5,251.167 254.5,252.5C 252.022,251.805 250.022,250.305 248.5,248C 246.043,246.438 243.376,245.438 240.5,245C 222.833,244.667 205.167,244.333 187.5,244C 181.252,243.639 175.586,241.806 170.5,238.5C 170.027,237.094 169.027,236.427 167.5,236.5C 157.81,228.828 154.81,218.828 158.5,206.5C 159.186,205.152 160.186,203.985 161.5,203C 160.748,202.329 160.414,201.496 160.5,200.5C 164.372,192.043 171.038,187.209 180.5,186C 201.833,185.333 223.167,185.333 244.5,186C 250.747,186.958 256.414,189.291 261.5,193C 268.043,199.878 274.876,206.378 282,212.5C 291.326,204.341 300.159,195.674 308.5,186.5 Z"/></g>
<g><path style="opacity:0.745" fill="#8f8f90" d="M 160.5,200.5 C 160.414,201.496 160.748,202.329 161.5,203C 160.186,203.985 159.186,205.152 158.5,206.5C 158.259,204.102 158.926,202.102 160.5,200.5 Z"/></g>
<g><path style="opacity:0.502" fill="#6e6e6e" d="M 167.5,236.5 C 169.027,236.427 170.027,237.094 170.5,238.5C 168.973,238.573 167.973,237.906 167.5,236.5 Z"/></g>
<g><path style="opacity:1" fill="#f1f2f3" d="M 340.5,283.5 C 337.038,284.482 333.371,284.815 329.5,284.5C 323.158,284.666 316.825,284.5 310.5,284C 301.64,275.14 292.806,266.306 284,257.5C 275.394,267.112 265.894,275.612 255.5,283C 251.194,283.972 246.86,284.806 242.5,285.5C 222.191,284.69 201.858,284.19 181.5,284C 174.036,282.436 168.036,278.602 163.5,272.5C 163.67,271.178 163.337,270.011 162.5,269C 163.167,268.667 163.833,268.333 164.5,268C 163.099,267.59 161.766,267.09 160.5,266.5C 158.717,261.025 158.051,255.359 158.5,249.5C 165.167,249.5 171.833,249.5 178.5,249.5C 177.053,255.898 179.053,260.731 184.5,264C 204.833,264.667 225.167,264.667 245.5,264C 249.668,260.998 253.335,257.498 256.5,253.5C 257.167,253.5 257.5,253.167 257.5,252.5C 258.5,252.167 259.167,251.5 259.5,250.5C 260.167,250.5 260.5,250.167 260.5,249.5C 262.167,248.5 263.5,247.167 264.5,245.5C 275.786,234.722 287.786,233.889 300.5,243C 313.701,256.7 327.034,270.2 340.5,283.5 Z M 256.5,250.5 C 256.167,251.5 255.5,252.167 254.5,252.5C 254.5,251.167 255.167,250.5 256.5,250.5 Z M 257.5,250.5 C 258.167,250.5 258.833,250.5 259.5,250.5C 259.167,251.5 258.5,252.167 257.5,252.5C 257.5,251.833 257.5,251.167 257.5,250.5 Z"/></g>
<g><path style="opacity:0.004" fill="#000000" d="M 264.5,245.5 C 261.999,245.489 261.832,244.822 264,243.5C 264.464,244.094 264.631,244.761 264.5,245.5 Z"/></g>
<g><path style="opacity:0.01" fill="#000000" d="M 259.5,247.5 C 260.338,247.842 260.672,248.508 260.5,249.5C 259.833,249.5 259.5,249.833 259.5,250.5C 258.833,250.5 258.167,250.5 257.5,250.5C 257.5,250.167 257.5,249.833 257.5,249.5C 258.167,249.5 258.5,249.167 258.5,248.5C 259.167,248.5 259.5,248.167 259.5,247.5 Z"/></g>
<g><path style="opacity:0.009" fill="#000000" d="M 256.5,250.5 C 256.833,250.5 257.167,250.5 257.5,250.5C 257.5,251.167 257.5,251.833 257.5,252.5C 256.833,252.5 256.5,252.833 256.5,253.5C 255.508,253.672 254.842,253.338 254.5,252.5C 255.5,252.167 256.167,251.5 256.5,250.5 Z"/></g>
<g><path style="opacity:0.867" fill="#8b8c8e" d="M 160.5,266.5 C 161.766,267.09 163.099,267.59 164.5,268C 163.833,268.333 163.167,268.667 162.5,269C 163.337,270.011 163.67,271.178 163.5,272.5C 161.992,270.819 160.992,268.819 160.5,266.5 Z"/></g>
<g><path style="opacity:0.012" fill="#020202" d="M 340.5,283.5 C 341.043,283.56 341.376,283.893 341.5,284.5C 337.351,285.809 333.351,285.809 329.5,284.5C 333.371,284.815 337.038,284.482 340.5,283.5 Z"/></g>
</svg>
