<?xml version="1.0" encoding="UTF-8"?>
<!DOCTYPE svg PUBLIC "-//W3C//DTD SVG 1.1//EN" "http://www.w3.org/Graphics/SVG/1.1/DTD/svg11.dtd">
<svg xmlns="http://www.w3.org/2000/svg" version="1.1" width="398px" height="398px" style="shape-rendering:geometricPrecision; text-rendering:geometricPrecision; image-rendering:optimizeQuality; fill-rule:evenodd; clip-rule:evenodd" xmlns:xlink="http://www.w3.org/1999/xlink">
<g><path style="opacity:0.996" fill="#151521" d="M 178.5,-0.5 C 191.833,-0.5 205.167,-0.5 218.5,-0.5C 293.612,10.128 347.779,49.4613 381,117.5C 389.301,137.213 394.801,157.546 397.5,178.5C 397.5,191.833 397.5,205.167 397.5,218.5C 386.872,293.612 347.539,347.779 279.5,381C 259.787,389.301 239.454,394.801 218.5,397.5C 205.167,397.5 191.833,397.5 178.5,397.5C 103.388,386.872 49.2212,347.539 16,279.5C 7.6989,259.787 2.1989,239.454 -0.5,218.5C -0.5,205.167 -0.5,191.833 -0.5,178.5C 10.128,103.388 49.4613,49.2212 117.5,16C 137.213,7.6989 157.546,2.1989 178.5,-0.5 Z"/></g>
<g><path style="opacity:1" fill="#e6f6f7" d="M 209.5,129.5 C 209.158,134.026 210.492,137.859 213.5,141C 212.262,140.923 211.262,141.089 210.5,141.5C 212.505,142.337 213.505,143.837 213.5,146C 212.582,148.086 211.915,150.253 211.5,152.5C 209.833,152.5 208.167,152.5 206.5,152.5C 207.025,157.118 205.692,158.118 202.5,155.5C 201.707,156.355 202.04,157.189 203.5,158C 202.906,158.464 202.239,158.631 201.5,158.5C 193.76,153.601 186.427,148.101 179.5,142C 184.24,133.186 189.24,124.519 194.5,116C 196.833,115.333 199.167,115.333 201.5,116C 204.819,120.143 207.486,124.643 209.5,129.5 Z"/></g>
<g><path style="opacity:1" fill="#e9f5f8" d="M 204.5,171.5 C 204.082,172.222 203.416,172.722 202.5,173C 204.402,173.199 205.902,174.033 207,175.5C 207.333,174.833 207.667,174.167 208,173.5C 208.827,174.662 209.66,175.829 210.5,177C 210.333,177.5 210.167,178 210,178.5C 202.612,181.223 197.112,186.056 193.5,193C 194.737,193.232 195.737,193.732 196.5,194.5C 179.708,197.215 162.875,199.882 146,202.5C 145.5,202.167 145,201.833 144.5,201.5C 151.235,188.61 158.569,176.11 166.5,164C 179.337,165.534 192.004,168.034 204.5,171.5 Z"/></g>
<g><path style="opacity:1" fill="#ecf2f8" d="M 209.5,129.5 C 219.197,145.218 228.53,161.218 237.5,177.5C 235.248,178.957 235.581,180.457 238.5,182C 237.285,184.096 236.451,183.929 236,181.5C 234.148,183.23 234.314,184.396 236.5,185C 231.492,185.869 231.825,186.536 237.5,187C 232.492,187.869 232.825,188.536 238.5,189C 236.833,189.833 235.167,190.667 233.5,191.5C 232.304,191.154 232.304,190.654 233.5,190C 231.288,189.211 229.288,189.378 227.5,190.5C 217.199,192.019 206.866,193.352 196.5,194.5C 195.737,193.732 194.737,193.232 193.5,193C 197.112,186.056 202.612,181.223 210,178.5C 210.167,178 210.333,177.5 210.5,177C 209.66,175.829 208.827,174.662 208,173.5C 207.667,174.167 207.333,174.833 207,175.5C 205.902,174.033 204.402,173.199 202.5,173C 203.416,172.722 204.082,172.222 204.5,171.5C 210.865,172.893 217.198,174.06 223.5,175C 215.983,169.637 208.65,164.137 201.5,158.5C 202.239,158.631 202.906,158.464 203.5,158C 202.04,157.189 201.707,156.355 202.5,155.5C 205.692,158.118 207.025,157.118 206.5,152.5C 208.167,152.5 209.833,152.5 211.5,152.5C 211.915,150.253 212.582,148.086 213.5,146C 213.505,143.837 212.505,142.337 210.5,141.5C 211.262,141.089 212.262,140.923 213.5,141C 210.492,137.859 209.158,134.026 209.5,129.5 Z"/></g>
<g><path style="opacity:1" fill="#eef1f9" d="M 237.5,177.5 C 245.021,179.893 252.688,181.893 260.5,183.5C 260.414,184.496 260.748,185.329 261.5,186C 259.383,188.156 257.716,190.656 256.5,193.5C 256.833,194.167 257.167,194.833 257.5,195.5C 256.478,196.354 255.645,197.354 255,198.5C 254.586,198.043 254.086,197.709 253.5,197.5C 252.476,198.853 251.143,199.52 249.5,199.5C 249.5,202.167 249.5,204.833 249.5,207.5C 247.857,207.52 246.524,206.853 245.5,205.5C 243.04,207.096 240.374,208.262 237.5,209C 238.056,209.383 238.389,209.883 238.5,210.5C 208.402,232.083 178.402,253.917 148.5,276C 134.833,276.667 121.167,276.667 107.5,276C 105.848,274.53 104.848,272.697 104.5,270.5C 105.418,266.99 107.084,263.99 109.5,261.5C 109.322,264.322 108.655,266.989 107.5,269.5C 107.57,270.772 107.903,271.938 108.5,273C 114.459,272.785 120.459,272.285 126.5,271.5C 126.337,269.143 126.503,266.81 127,264.5C 132.243,261.596 135.576,257.262 137,251.5C 139.726,249.812 142.559,248.312 145.5,247C 147.351,245.316 149.018,243.483 150.5,241.5C 149.167,240.38 148.667,239.047 149,237.5C 151.564,235.923 154.397,234.923 157.5,234.5C 158.386,233.675 158.719,232.675 158.5,231.5C 162.913,230.256 165.913,227.423 167.5,223C 166.347,221.117 164.681,220.284 162.5,220.5C 184.678,210.533 207.012,200.7 229.5,191C 228.906,190.536 228.239,190.369 227.5,190.5C 229.288,189.378 231.288,189.211 233.5,190C 232.304,190.654 232.304,191.154 233.5,191.5C 235.167,190.667 236.833,189.833 238.5,189C 232.825,188.536 232.492,187.869 237.5,187C 231.825,186.536 231.492,185.869 236.5,185C 234.314,184.396 234.148,183.23 236,181.5C 236.451,183.929 237.285,184.096 238.5,182C 235.581,180.457 235.248,178.957 237.5,177.5 Z"/></g>
<g><path style="opacity:1" fill="#ebe8f9" d="M 260.5,183.5 C 261.88,183.962 262.547,184.962 262.5,186.5C 260.565,193.973 258.231,201.306 255.5,208.5C 262.443,220.059 269.11,231.725 275.5,243.5C 271.492,238.075 266.825,233.075 261.5,228.5C 259.004,232.092 256.337,235.425 253.5,238.5C 253.178,233.413 252.345,228.413 251,223.5C 245.427,241.385 239.593,259.052 233.5,276.5C 218.324,276.829 203.324,276.496 188.5,275.5C 205.787,253.708 223.287,232.041 241,210.5C 241.667,209.833 241.667,209.167 241,208.5C 240.292,209.381 239.458,210.047 238.5,210.5C 238.389,209.883 238.056,209.383 237.5,209C 240.374,208.262 243.04,207.096 245.5,205.5C 246.524,206.853 247.857,207.52 249.5,207.5C 249.5,204.833 249.5,202.167 249.5,199.5C 251.143,199.52 252.476,198.853 253.5,197.5C 254.086,197.709 254.586,198.043 255,198.5C 255.645,197.354 256.478,196.354 257.5,195.5C 257.167,194.833 256.833,194.167 256.5,193.5C 257.716,190.656 259.383,188.156 261.5,186C 260.748,185.329 260.414,184.496 260.5,183.5 Z"/></g>
<g><path style="opacity:1" fill="#eaf4f9" d="M 162.5,220.5 C 164.681,220.284 166.347,221.117 167.5,223C 165.913,227.423 162.913,230.256 158.5,231.5C 158.719,232.675 158.386,233.675 157.5,234.5C 154.397,234.923 151.564,235.923 149,237.5C 148.667,239.047 149.167,240.38 150.5,241.5C 149.018,243.483 147.351,245.316 145.5,247C 142.559,248.312 139.726,249.812 137,251.5C 135.576,257.262 132.243,261.596 127,264.5C 126.503,266.81 126.337,269.143 126.5,271.5C 120.459,272.285 114.459,272.785 108.5,273C 107.903,271.938 107.57,270.772 107.5,269.5C 108.655,266.989 109.322,264.322 109.5,261.5C 113.764,253.144 118.43,244.977 123.5,237C 136.521,231.488 149.521,225.988 162.5,220.5 Z"/></g>
<g><path style="opacity:1" fill="#e2ddf7" d="M 275.5,243.5 C 280.559,251.27 285.392,259.27 290,267.5C 291.291,271.672 290.124,274.839 286.5,277C 276.839,277.5 267.172,277.666 257.5,277.5C 256.412,264.466 255.079,251.466 253.5,238.5C 256.337,235.425 259.004,232.092 261.5,228.5C 266.825,233.075 271.492,238.075 275.5,243.5 Z"/></g>
<g><path style="opacity:1" fill="#5f5c6c" d="M 188.5,275.5 C 203.324,276.496 218.324,276.829 233.5,276.5C 218.328,277.826 202.995,277.826 187.5,276.5C 187.624,275.893 187.957,275.56 188.5,275.5 Z"/></g>
</svg>
