<?xml version="1.0" encoding="UTF-8"?>
<!DOCTYPE svg PUBLIC "-//W3C//DTD SVG 1.1//EN" "http://www.w3.org/Graphics/SVG/1.1/DTD/svg11.dtd">
<svg xmlns="http://www.w3.org/2000/svg" version="1.1" width="400px" height="400px" style="shape-rendering:geometricPrecision; text-rendering:geometricPrecision; image-rendering:optimizeQuality; fill-rule:evenodd; clip-rule:evenodd" xmlns:xlink="http://www.w3.org/1999/xlink">
<g><path style="opacity:0.995" fill="#d095c9" d="M 179.5,-0.5 C 192.833,-0.5 206.167,-0.5 219.5,-0.5C 287.286,8.48556 338.786,42.1522 374,100.5C 387.612,125.313 396.112,151.646 399.5,179.5C 399.5,192.833 399.5,206.167 399.5,219.5C 390.514,287.286 356.848,338.786 298.5,374C 273.687,387.612 247.354,396.112 219.5,399.5C 206.167,399.5 192.833,399.5 179.5,399.5C 111.714,390.514 60.214,356.848 25,298.5C 11.3884,273.687 2.88842,247.354 -0.5,219.5C -0.5,206.167 -0.5,192.833 -0.5,179.5C 8.48556,111.714 42.1522,60.214 100.5,25C 125.313,11.3884 151.646,2.88842 179.5,-0.5 Z"/></g>
<g><path style="opacity:1" fill="#000000" d="M 149.5,49.5 C 182.833,49.5 216.167,49.5 249.5,49.5C 249.333,66.5033 249.5,83.5033 250,100.5C 283,133.5 316,166.5 349,199.5C 349.5,232.832 349.667,266.165 349.5,299.5C 316.167,299.5 282.833,299.5 249.5,299.5C 249.5,316.167 249.5,332.833 249.5,349.5C 216.167,349.5 182.833,349.5 149.5,349.5C 149.667,332.497 149.5,315.497 149,298.5C 116,265.5 83,232.5 50,199.5C 49.5,166.168 49.3333,132.835 49.5,99.5C 82.8333,99.5 116.167,99.5 149.5,99.5C 149.5,82.8333 149.5,66.1667 149.5,49.5 Z"/></g>
<g><path style="opacity:1" fill="#d095c9" d="M 162.5,149.5 C 187.169,149.333 211.836,149.5 236.5,150C 242.87,151.436 247.037,155.269 249,161.5C 249.667,187.167 249.667,212.833 249,238.5C 246.833,243.333 243.333,246.833 238.5,249C 213.167,249.667 187.833,249.667 162.5,249C 156.307,246.807 152.141,242.641 150,236.5C 149.333,211.833 149.333,187.167 150,162.5C 152.327,156.341 156.494,152.007 162.5,149.5 Z"/></g>
</svg>
